<?xml version="1.0" encoding="utf-8" standalone="no"?>
<!DOCTYPE svg PUBLIC "-//W3C//DTD SVG 1.1//EN"
  "http://www.w3.org/Graphics/SVG/1.1/DTD/svg11.dtd">
<svg xmlns:xlink="http://www.w3.org/1999/xlink" width="700.264924pt" height="646.54249pt" viewBox="0 0 700.264924 646.54249" xmlns="http://www.w3.org/2000/svg" version="1.1">
 <metadata>
  <rdf:RDF xmlns:dc="http://purl.org/dc/elements/1.1/" xmlns:cc="http://creativecommons.org/ns#" xmlns:rdf="http://www.w3.org/1999/02/22-rdf-syntax-ns#">
   <cc:Work>
    <dc:type rdf:resource="http://purl.org/dc/dcmitype/StillImage"/>
    <dc:date>2025-01-24T02:53:18.967763</dc:date>
    <dc:format>image/svg+xml</dc:format>
    <dc:creator>
     <cc:Agent>
      <dc:title>Matplotlib v3.9.2, https://matplotlib.org/</dc:title>
     </cc:Agent>
    </dc:creator>
   </cc:Work>
  </rdf:RDF>
 </metadata>
 <defs>
  <style type="text/css">*{stroke-linejoin: round; stroke-linecap: butt}</style>
 </defs>
 <g id="figure_1">
  <g id="patch_1">
   <path d="M 0 646.54249 
L 700.264924 646.54249 
L 700.264924 0 
L 0 0 
z
" style="fill: #ffffff"/>
  </g>
  <g id="axes_1">
   <g id="patch_2">
    <path d="M 52.160938 608.98624 
L 242.100124 608.98624 
L 242.100124 67.13856 
L 52.160938 67.13856 
z
" style="fill: #ffffff"/>
   </g>
   <g id="matplotlib.axis_1">
    <g id="xtick_1">
     <g id="line2d_1">
      <path d="M 60.794537 608.98624 
L 60.794537 67.13856 
" clip-path="url(#pca6a0bfab1)" style="fill: none; stroke: #b0b0b0; stroke-width: 0.8; stroke-linecap: square"/>
     </g>
     <g id="line2d_2">
      <defs>
       <path id="mfd963bc371" d="M 0 0 
L 0 3.5 
" style="stroke: #000000; stroke-width: 0.8"/>
      </defs>
      <g>
       <use xlink:href="#mfd963bc371" x="60.794537" y="608.98624" style="stroke: #000000; stroke-width: 0.8"/>
      </g>
     </g>
     <g id="text_1">
      <!-- 0 -->
      <g transform="translate(57.613287 623.584677) scale(0.1 -0.1)">
       <defs>
        <path id="DejaVuSans-30" d="M 2034 4250 
Q 1547 4250 1301 3770 
Q 1056 3291 1056 2328 
Q 1056 1369 1301 889 
Q 1547 409 2034 409 
Q 2525 409 2770 889 
Q 3016 1369 3016 2328 
Q 3016 3291 2770 3770 
Q 2525 4250 2034 4250 
z
M 2034 4750 
Q 2819 4750 3233 4129 
Q 3647 3509 3647 2328 
Q 3647 1150 3233 529 
Q 2819 -91 2034 -91 
Q 1250 -91 836 529 
Q 422 1150 422 2328 
Q 422 3509 836 4129 
Q 1250 4750 2034 4750 
z
" transform="scale(0.015625)"/>
       </defs>
       <use xlink:href="#DejaVuSans-30"/>
      </g>
     </g>
    </g>
    <g id="xtick_2">
     <g id="line2d_3">
      <path d="M 103.962534 608.98624 
L 103.962534 67.13856 
" clip-path="url(#pca6a0bfab1)" style="fill: none; stroke: #b0b0b0; stroke-width: 0.8; stroke-linecap: square"/>
     </g>
     <g id="line2d_4">
      <g>
       <use xlink:href="#mfd963bc371" x="103.962534" y="608.98624" style="stroke: #000000; stroke-width: 0.8"/>
      </g>
     </g>
     <g id="text_2">
      <!-- 5 -->
      <g transform="translate(100.781284 623.584677) scale(0.1 -0.1)">
       <defs>
        <path id="DejaVuSans-35" d="M 691 4666 
L 3169 4666 
L 3169 4134 
L 1269 4134 
L 1269 2991 
Q 1406 3038 1543 3061 
Q 1681 3084 1819 3084 
Q 2600 3084 3056 2656 
Q 3513 2228 3513 1497 
Q 3513 744 3044 326 
Q 2575 -91 1722 -91 
Q 1428 -91 1123 -41 
Q 819 9 494 109 
L 494 744 
Q 775 591 1075 516 
Q 1375 441 1709 441 
Q 2250 441 2565 725 
Q 2881 1009 2881 1497 
Q 2881 1984 2565 2268 
Q 2250 2553 1709 2553 
Q 1456 2553 1204 2497 
Q 953 2441 691 2322 
L 691 4666 
z
" transform="scale(0.015625)"/>
       </defs>
       <use xlink:href="#DejaVuSans-35"/>
      </g>
     </g>
    </g>
    <g id="xtick_3">
     <g id="line2d_5">
      <path d="M 147.130531 608.98624 
L 147.130531 67.13856 
" clip-path="url(#pca6a0bfab1)" style="fill: none; stroke: #b0b0b0; stroke-width: 0.8; stroke-linecap: square"/>
     </g>
     <g id="line2d_6">
      <g>
       <use xlink:href="#mfd963bc371" x="147.130531" y="608.98624" style="stroke: #000000; stroke-width: 0.8"/>
      </g>
     </g>
     <g id="text_3">
      <!-- 10 -->
      <g transform="translate(140.768031 623.584677) scale(0.1 -0.1)">
       <defs>
        <path id="DejaVuSans-31" d="M 794 531 
L 1825 531 
L 1825 4091 
L 703 3866 
L 703 4441 
L 1819 4666 
L 2450 4666 
L 2450 531 
L 3481 531 
L 3481 0 
L 794 0 
L 794 531 
z
" transform="scale(0.015625)"/>
       </defs>
       <use xlink:href="#DejaVuSans-31"/>
       <use xlink:href="#DejaVuSans-30" x="63.623047"/>
      </g>
     </g>
    </g>
    <g id="xtick_4">
     <g id="line2d_7">
      <path d="M 190.298528 608.98624 
L 190.298528 67.13856 
" clip-path="url(#pca6a0bfab1)" style="fill: none; stroke: #b0b0b0; stroke-width: 0.8; stroke-linecap: square"/>
     </g>
     <g id="line2d_8">
      <g>
       <use xlink:href="#mfd963bc371" x="190.298528" y="608.98624" style="stroke: #000000; stroke-width: 0.8"/>
      </g>
     </g>
     <g id="text_4">
      <!-- 15 -->
      <g transform="translate(183.936028 623.584677) scale(0.1 -0.1)">
       <use xlink:href="#DejaVuSans-31"/>
       <use xlink:href="#DejaVuSans-35" x="63.623047"/>
      </g>
     </g>
    </g>
    <g id="xtick_5">
     <g id="line2d_9">
      <path d="M 233.466525 608.98624 
L 233.466525 67.13856 
" clip-path="url(#pca6a0bfab1)" style="fill: none; stroke: #b0b0b0; stroke-width: 0.8; stroke-linecap: square"/>
     </g>
     <g id="line2d_10">
      <g>
       <use xlink:href="#mfd963bc371" x="233.466525" y="608.98624" style="stroke: #000000; stroke-width: 0.8"/>
      </g>
     </g>
     <g id="text_5">
      <!-- 20 -->
      <g transform="translate(227.104025 623.584677) scale(0.1 -0.1)">
       <defs>
        <path id="DejaVuSans-32" d="M 1228 531 
L 3431 531 
L 3431 0 
L 469 0 
L 469 531 
Q 828 903 1448 1529 
Q 2069 2156 2228 2338 
Q 2531 2678 2651 2914 
Q 2772 3150 2772 3378 
Q 2772 3750 2511 3984 
Q 2250 4219 1831 4219 
Q 1534 4219 1204 4116 
Q 875 4013 500 3803 
L 500 4441 
Q 881 4594 1212 4672 
Q 1544 4750 1819 4750 
Q 2544 4750 2975 4387 
Q 3406 4025 3406 3419 
Q 3406 3131 3298 2873 
Q 3191 2616 2906 2266 
Q 2828 2175 2409 1742 
Q 1991 1309 1228 531 
z
" transform="scale(0.015625)"/>
       </defs>
       <use xlink:href="#DejaVuSans-32"/>
       <use xlink:href="#DejaVuSans-30" x="63.623047"/>
      </g>
     </g>
    </g>
    <g id="text_6">
     <!-- t -->
     <g transform="translate(145.170375 637.262802) scale(0.1 -0.1)">
      <defs>
       <path id="DejaVuSans-74" d="M 1172 4494 
L 1172 3500 
L 2356 3500 
L 2356 3053 
L 1172 3053 
L 1172 1153 
Q 1172 725 1289 603 
Q 1406 481 1766 481 
L 2356 481 
L 2356 0 
L 1766 0 
Q 1100 0 847 248 
Q 594 497 594 1153 
L 594 3053 
L 172 3053 
L 172 3500 
L 594 3500 
L 594 4494 
L 1172 4494 
z
" transform="scale(0.015625)"/>
      </defs>
      <use xlink:href="#DejaVuSans-74"/>
     </g>
    </g>
   </g>
   <g id="matplotlib.axis_2">
    <g id="ytick_1">
     <g id="line2d_11">
      <path d="M 52.160938 531.178274 
L 242.100124 531.178274 
" clip-path="url(#pca6a0bfab1)" style="fill: none; stroke: #b0b0b0; stroke-width: 0.8; stroke-linecap: square"/>
     </g>
     <g id="line2d_12">
      <defs>
       <path id="m16a074d193" d="M 0 0 
L -3.5 0 
" style="stroke: #000000; stroke-width: 0.8"/>
      </defs>
      <g>
       <use xlink:href="#m16a074d193" x="52.160938" y="531.178274" style="stroke: #000000; stroke-width: 0.8"/>
      </g>
     </g>
     <g id="text_7">
      <!-- −1.0 -->
      <g transform="translate(20.878125 534.977493) scale(0.1 -0.1)">
       <defs>
        <path id="DejaVuSans-2212" d="M 678 2272 
L 4684 2272 
L 4684 1741 
L 678 1741 
L 678 2272 
z
" transform="scale(0.015625)"/>
        <path id="DejaVuSans-2e" d="M 684 794 
L 1344 794 
L 1344 0 
L 684 0 
L 684 794 
z
" transform="scale(0.015625)"/>
       </defs>
       <use xlink:href="#DejaVuSans-2212"/>
       <use xlink:href="#DejaVuSans-31" x="83.789062"/>
       <use xlink:href="#DejaVuSans-2e" x="147.412109"/>
       <use xlink:href="#DejaVuSans-30" x="179.199219"/>
      </g>
     </g>
    </g>
    <g id="ytick_2">
     <g id="line2d_13">
      <path d="M 52.160938 428.217725 
L 242.100124 428.217725 
" clip-path="url(#pca6a0bfab1)" style="fill: none; stroke: #b0b0b0; stroke-width: 0.8; stroke-linecap: square"/>
     </g>
     <g id="line2d_14">
      <g>
       <use xlink:href="#m16a074d193" x="52.160938" y="428.217725" style="stroke: #000000; stroke-width: 0.8"/>
      </g>
     </g>
     <g id="text_8">
      <!-- −0.5 -->
      <g transform="translate(20.878125 432.016944) scale(0.1 -0.1)">
       <use xlink:href="#DejaVuSans-2212"/>
       <use xlink:href="#DejaVuSans-30" x="83.789062"/>
       <use xlink:href="#DejaVuSans-2e" x="147.412109"/>
       <use xlink:href="#DejaVuSans-35" x="179.199219"/>
      </g>
     </g>
    </g>
    <g id="ytick_3">
     <g id="line2d_15">
      <path d="M 52.160938 325.257176 
L 242.100124 325.257176 
" clip-path="url(#pca6a0bfab1)" style="fill: none; stroke: #b0b0b0; stroke-width: 0.8; stroke-linecap: square"/>
     </g>
     <g id="line2d_16">
      <g>
       <use xlink:href="#m16a074d193" x="52.160938" y="325.257176" style="stroke: #000000; stroke-width: 0.8"/>
      </g>
     </g>
     <g id="text_9">
      <!-- 0.0 -->
      <g transform="translate(29.257812 329.056395) scale(0.1 -0.1)">
       <use xlink:href="#DejaVuSans-30"/>
       <use xlink:href="#DejaVuSans-2e" x="63.623047"/>
       <use xlink:href="#DejaVuSans-30" x="95.410156"/>
      </g>
     </g>
    </g>
    <g id="ytick_4">
     <g id="line2d_17">
      <path d="M 52.160938 222.296628 
L 242.100124 222.296628 
" clip-path="url(#pca6a0bfab1)" style="fill: none; stroke: #b0b0b0; stroke-width: 0.8; stroke-linecap: square"/>
     </g>
     <g id="line2d_18">
      <g>
       <use xlink:href="#m16a074d193" x="52.160938" y="222.296628" style="stroke: #000000; stroke-width: 0.8"/>
      </g>
     </g>
     <g id="text_10">
      <!-- 0.5 -->
      <g transform="translate(29.257812 226.095846) scale(0.1 -0.1)">
       <use xlink:href="#DejaVuSans-30"/>
       <use xlink:href="#DejaVuSans-2e" x="63.623047"/>
       <use xlink:href="#DejaVuSans-35" x="95.410156"/>
      </g>
     </g>
    </g>
    <g id="ytick_5">
     <g id="line2d_19">
      <path d="M 52.160938 119.336079 
L 242.100124 119.336079 
" clip-path="url(#pca6a0bfab1)" style="fill: none; stroke: #b0b0b0; stroke-width: 0.8; stroke-linecap: square"/>
     </g>
     <g id="line2d_20">
      <g>
       <use xlink:href="#m16a074d193" x="52.160938" y="119.336079" style="stroke: #000000; stroke-width: 0.8"/>
      </g>
     </g>
     <g id="text_11">
      <!-- 1.0 -->
      <g transform="translate(29.257812 123.135298) scale(0.1 -0.1)">
       <use xlink:href="#DejaVuSans-31"/>
       <use xlink:href="#DejaVuSans-2e" x="63.623047"/>
       <use xlink:href="#DejaVuSans-30" x="95.410156"/>
      </g>
     </g>
    </g>
    <g id="text_12">
     <!-- x(t) -->
     <g transform="translate(14.798438 346.883494) rotate(-90) scale(0.1 -0.1)">
      <defs>
       <path id="DejaVuSans-78" d="M 3513 3500 
L 2247 1797 
L 3578 0 
L 2900 0 
L 1881 1375 
L 863 0 
L 184 0 
L 1544 1831 
L 300 3500 
L 978 3500 
L 1906 2253 
L 2834 3500 
L 3513 3500 
z
" transform="scale(0.015625)"/>
       <path id="DejaVuSans-28" d="M 1984 4856 
Q 1566 4138 1362 3434 
Q 1159 2731 1159 2009 
Q 1159 1288 1364 580 
Q 1569 -128 1984 -844 
L 1484 -844 
Q 1016 -109 783 600 
Q 550 1309 550 2009 
Q 550 2706 781 3412 
Q 1013 4119 1484 4856 
L 1984 4856 
z
" transform="scale(0.015625)"/>
       <path id="DejaVuSans-29" d="M 513 4856 
L 1013 4856 
Q 1481 4119 1714 3412 
Q 1947 2706 1947 2009 
Q 1947 1309 1714 600 
Q 1481 -109 1013 -844 
L 513 -844 
Q 928 -128 1133 580 
Q 1338 1288 1338 2009 
Q 1338 2731 1133 3434 
Q 928 4138 513 4856 
z
" transform="scale(0.015625)"/>
      </defs>
      <use xlink:href="#DejaVuSans-78"/>
      <use xlink:href="#DejaVuSans-28" x="59.179688"/>
      <use xlink:href="#DejaVuSans-74" x="98.193359"/>
      <use xlink:href="#DejaVuSans-29" x="137.402344"/>
     </g>
    </g>
   </g>
   <g id="line2d_21">
    <path d="M 60.794537 325.257176 
L 65.634192 325.159747 
L 67.535485 324.901762 
L 69.091089 324.467223 
L 70.473848 323.841454 
L 71.683761 323.062792 
L 72.893675 322.032597 
L 74.103589 320.722599 
L 75.486348 318.857287 
L 76.869106 316.586342 
L 78.42471 313.555426 
L 80.153158 309.650342 
L 82.227296 304.383319 
L 87.758331 289.941957 
L 89.141089 287.042435 
L 90.351003 285.015686 
L 91.215227 283.930266 
L 92.079452 283.195984 
L 92.770831 282.889667 
L 93.46221 282.855591 
L 94.15359 283.113264 
L 94.844969 283.680778 
L 95.536348 284.574541 
L 96.227728 285.80905 
L 97.091952 287.84999 
L 97.956176 290.461502 
L 98.993245 294.365935 
L 100.030314 299.119034 
L 101.240228 305.727968 
L 102.622986 314.635469 
L 104.17859 326.2541 
L 105.907038 340.875418 
L 108.154021 361.893535 
L 114.89497 426.520607 
L 116.450573 438.838045 
L 117.833332 448.086213 
L 118.870401 453.757921 
L 119.90747 458.195947 
L 120.771694 460.861713 
L 121.463073 462.270552 
L 121.981608 462.884545 
L 122.500142 463.105802 
L 122.845832 463.029682 
L 123.191522 462.771188 
L 123.710056 462.03575 
L 124.22859 460.876316 
L 124.91997 458.660414 
L 125.611349 455.669799 
L 126.475573 450.835207 
L 127.339797 444.785485 
L 128.376866 435.945715 
L 129.58678 423.5261 
L 130.969539 406.72642 
L 132.525142 384.855992 
L 134.426436 354.63129 
L 137.019108 309.371415 
L 142.031608 221.135517 
L 143.932901 191.806839 
L 145.488505 171.032519 
L 146.871264 155.597385 
L 147.908333 146.167375 
L 148.945402 138.759697 
L 149.809626 134.236043 
L 150.501005 131.749617 
L 151.01954 130.566866 
L 151.538074 129.982019 
L 151.883764 129.929433 
L 152.229453 130.14982 
L 152.575143 130.645392 
L 153.093678 131.908393 
L 153.612212 133.798181 
L 154.303591 137.294863 
L 154.994971 141.904162 
L 155.859195 149.211663 
L 156.896264 160.19159 
L 158.106178 175.909778 
L 159.488936 197.409739 
L 161.04454 225.537592 
L 162.945833 264.391126 
L 165.884195 330.025593 
L 169.686782 414.367245 
L 171.588075 451.940256 
L 173.143678 478.748938 
L 174.526437 498.871455 
L 175.736351 513.185648 
L 176.77342 522.764845 
L 177.637644 528.724181 
L 178.329023 532.108766 
L 178.847558 533.81744 
L 179.366092 534.801029 
L 179.711782 535.048737 
L 180.057471 534.966975 
L 180.403161 534.553643 
L 180.748851 533.807222 
L 181.267385 532.061219 
L 181.78592 529.563354 
L 182.477299 525.068277 
L 183.341523 517.600379 
L 184.205747 508.126393 
L 185.242816 494.216099 
L 186.45273 474.706672 
L 187.835489 448.52424 
L 189.563937 410.943003 
L 191.81092 356.446826 
L 197.860489 206.532792 
L 199.588938 170.169171 
L 200.971696 145.059673 
L 202.18161 126.547755 
L 203.218679 113.555435 
L 204.082903 104.917198 
L 204.947127 98.381081 
L 205.638507 94.725987 
L 206.157041 92.928152 
L 206.675576 91.954113 
L 207.021265 91.768 
L 207.366955 91.95571 
L 207.712645 92.519368 
L 208.231179 94.072697 
L 208.749714 96.476818 
L 209.441093 101.00222 
L 210.132472 107.022461 
L 210.996697 116.609852 
L 212.033766 131.036804 
L 213.243679 151.663191 
L 214.626438 179.767882 
L 216.182042 216.299065 
L 218.256179 271.011694 
L 225.861352 478.264232 
L 227.416956 512.349821 
L 228.799714 538.03406 
L 230.009628 556.392031 
L 231.046697 568.757475 
L 231.910921 576.5241 
L 232.602301 581.001583 
L 233.120835 583.317759 
L 233.466525 584.3568 
L 233.466525 584.3568 
" clip-path="url(#pca6a0bfab1)" style="fill: none; stroke: #0000ff; stroke-width: 1.5; stroke-linecap: square"/>
   </g>
   <g id="line2d_22">
    <path d="M 60.794537 325.257176 
L 61.658761 325.651134 
L 62.522985 325.82532 
L 63.387209 325.776511 
L 64.251434 325.504066 
L 65.115658 325.009911 
L 66.152727 324.130757 
L 67.189796 322.951508 
L 68.39971 321.220553 
L 69.782468 318.820696 
L 71.338072 315.670196 
L 73.41221 310.945078 
L 78.251865 299.717924 
L 79.807468 296.790176 
L 81.017382 294.972281 
L 82.054451 293.804278 
L 82.918675 293.139586 
L 83.7829 292.776107 
L 84.474279 292.711051 
L 85.165658 292.850578 
L 85.857038 293.195243 
L 86.721262 293.910626 
L 87.585486 294.931555 
L 88.622555 296.534557 
L 89.832469 298.871227 
L 91.215227 302.05135 
L 93.116521 307.043661 
L 98.47471 321.522074 
L 100.030314 324.950056 
L 101.413073 327.454021 
L 102.622986 329.158281 
L 103.660055 330.224295 
L 104.52428 330.819579 
L 105.388504 331.140322 
L 106.252728 331.182038 
L 107.116952 330.943164 
L 107.981176 330.425019 
L 108.8454 329.631778 
L 109.882469 328.32684 
L 110.919538 326.653557 
L 112.129452 324.267544 
L 113.512211 321.028122 
L 115.240659 316.34478 
L 117.660487 309.016377 
L 121.290228 297.987124 
L 122.845832 293.960214 
L 124.055746 291.385049 
L 125.092815 289.668645 
L 125.957039 288.635635 
L 126.648418 288.091864 
L 127.339797 287.812312 
L 128.031177 287.804861 
L 128.722556 288.073242 
L 129.413935 288.616913 
L 130.105315 289.431049 
L 130.969539 290.815013 
L 132.006608 292.977459 
L 133.216522 296.113539 
L 134.59928 300.35707 
L 136.500574 306.96995 
L 141.513074 324.798747 
L 143.068677 329.408406 
L 144.451436 332.840672 
L 145.66135 335.247561 
L 146.698419 336.826642 
L 147.562643 337.782799 
L 148.426867 338.40121 
L 149.118246 338.648239 
L 149.809626 338.67296 
L 150.501005 338.474771 
L 151.192384 338.054333 
L 152.056609 337.219282 
L 152.920833 336.046514 
L 153.957902 334.206988 
L 154.994971 331.917193 
L 156.204885 328.715291 
L 157.587643 324.427507 
L 159.316092 318.28464 
L 161.735919 308.715223 
L 165.365661 294.300056 
L 166.921264 289.04092 
L 168.131178 285.701119 
L 169.168247 283.50782 
L 170.032471 282.224861 
L 170.72385 281.586646 
L 171.242385 281.34526 
L 171.760919 281.312402 
L 172.279454 281.490555 
L 172.797988 281.880153 
L 173.489368 282.725467 
L 174.180747 283.934279 
L 175.044971 285.932642 
L 176.08204 288.988897 
L 177.291954 293.342696 
L 178.847558 299.912518 
L 181.09454 310.537596 
L 184.724282 327.67656 
L 186.45273 334.764149 
L 187.835489 339.610076 
L 189.045403 343.141846 
L 190.082472 345.591579 
L 191.119541 347.475493 
L 191.983765 348.596391 
L 192.675144 349.192149 
L 193.366524 349.516746 
L 194.057903 349.568271 
L 194.749282 349.346156 
L 195.440662 348.851164 
L 196.132041 348.085367 
L 196.996265 346.752564 
L 197.860489 345.011398 
L 198.897558 342.400781 
L 200.107472 338.671829 
L 201.490231 333.577486 
L 203.045834 326.908927 
L 204.947127 317.674888 
L 208.058334 301.159408 
L 210.478162 288.72079 
L 212.033766 281.866815 
L 213.070835 278.133998 
L 213.935059 275.67375 
L 214.799283 273.892945 
L 215.490662 273.002203 
L 216.009197 272.662149 
L 216.527731 272.610941 
L 217.046266 272.85209 
L 217.5648 273.385891 
L 218.256179 274.547442 
L 218.947559 276.208585 
L 219.811783 278.95019 
L 220.848852 283.129537 
L 222.058766 289.055108 
L 223.614369 297.940283 
L 226.034197 313.314885 
L 229.318249 333.995473 
L 231.219542 344.493284 
L 232.775145 351.820632 
L 233.466525 354.655125 
L 233.466525 354.655125 
" clip-path="url(#pca6a0bfab1)" style="fill: none; stroke-dasharray: 5.55,2.4; stroke-dashoffset: 0; stroke: #ff0000; stroke-width: 1.5"/>
   </g>
   <g id="patch_3">
    <path d="M 52.160938 608.98624 
L 52.160938 67.13856 
" style="fill: none; stroke: #000000; stroke-width: 0.8; stroke-linejoin: miter; stroke-linecap: square"/>
   </g>
   <g id="patch_4">
    <path d="M 242.100124 608.98624 
L 242.100124 67.13856 
" style="fill: none; stroke: #000000; stroke-width: 0.8; stroke-linejoin: miter; stroke-linecap: square"/>
   </g>
   <g id="patch_5">
    <path d="M 52.160938 608.98624 
L 242.100124 608.98624 
" style="fill: none; stroke: #000000; stroke-width: 0.8; stroke-linejoin: miter; stroke-linecap: square"/>
   </g>
   <g id="patch_6">
    <path d="M 52.160938 67.13856 
L 242.100124 67.13856 
" style="fill: none; stroke: #000000; stroke-width: 0.8; stroke-linejoin: miter; stroke-linecap: square"/>
   </g>
   <g id="legend_1">
    <g id="patch_7">
     <path d="M 59.160938 104.49481 
L 117.753125 104.49481 
Q 119.753125 104.49481 119.753125 102.49481 
L 119.753125 74.13856 
Q 119.753125 72.13856 117.753125 72.13856 
L 59.160938 72.13856 
Q 57.160938 72.13856 57.160938 74.13856 
L 57.160938 102.49481 
Q 57.160938 104.49481 59.160938 104.49481 
z
" style="fill: #ffffff; opacity: 0.8; stroke: #cccccc; stroke-linejoin: miter"/>
    </g>
    <g id="line2d_23">
     <path d="M 61.160938 80.236997 
L 71.160938 80.236997 
L 81.160938 80.236997 
" style="fill: none; stroke: #0000ff; stroke-width: 1.5; stroke-linecap: square"/>
    </g>
    <g id="text_13">
     <!-- data -->
     <g transform="translate(89.160938 83.736997) scale(0.1 -0.1)">
      <defs>
       <path id="DejaVuSans-64" d="M 2906 2969 
L 2906 4863 
L 3481 4863 
L 3481 0 
L 2906 0 
L 2906 525 
Q 2725 213 2448 61 
Q 2172 -91 1784 -91 
Q 1150 -91 751 415 
Q 353 922 353 1747 
Q 353 2572 751 3078 
Q 1150 3584 1784 3584 
Q 2172 3584 2448 3432 
Q 2725 3281 2906 2969 
z
M 947 1747 
Q 947 1113 1208 752 
Q 1469 391 1925 391 
Q 2381 391 2643 752 
Q 2906 1113 2906 1747 
Q 2906 2381 2643 2742 
Q 2381 3103 1925 3103 
Q 1469 3103 1208 2742 
Q 947 2381 947 1747 
z
" transform="scale(0.015625)"/>
       <path id="DejaVuSans-61" d="M 2194 1759 
Q 1497 1759 1228 1600 
Q 959 1441 959 1056 
Q 959 750 1161 570 
Q 1363 391 1709 391 
Q 2188 391 2477 730 
Q 2766 1069 2766 1631 
L 2766 1759 
L 2194 1759 
z
M 3341 1997 
L 3341 0 
L 2766 0 
L 2766 531 
Q 2569 213 2275 61 
Q 1981 -91 1556 -91 
Q 1019 -91 701 211 
Q 384 513 384 1019 
Q 384 1609 779 1909 
Q 1175 2209 1959 2209 
L 2766 2209 
L 2766 2266 
Q 2766 2663 2505 2880 
Q 2244 3097 1772 3097 
Q 1472 3097 1187 3025 
Q 903 2953 641 2809 
L 641 3341 
Q 956 3463 1253 3523 
Q 1550 3584 1831 3584 
Q 2591 3584 2966 3190 
Q 3341 2797 3341 1997 
z
" transform="scale(0.015625)"/>
      </defs>
      <use xlink:href="#DejaVuSans-64"/>
      <use xlink:href="#DejaVuSans-61" x="63.476562"/>
      <use xlink:href="#DejaVuSans-74" x="124.755859"/>
      <use xlink:href="#DejaVuSans-61" x="163.964844"/>
     </g>
    </g>
    <g id="line2d_24">
     <path d="M 61.160938 94.915122 
L 71.160938 94.915122 
L 81.160938 94.915122 
" style="fill: none; stroke-dasharray: 5.55,2.4; stroke-dashoffset: 0; stroke: #ff0000; stroke-width: 1.5"/>
    </g>
    <g id="text_14">
     <!-- sindy -->
     <g transform="translate(89.160938 98.415122) scale(0.1 -0.1)">
      <defs>
       <path id="DejaVuSans-73" d="M 2834 3397 
L 2834 2853 
Q 2591 2978 2328 3040 
Q 2066 3103 1784 3103 
Q 1356 3103 1142 2972 
Q 928 2841 928 2578 
Q 928 2378 1081 2264 
Q 1234 2150 1697 2047 
L 1894 2003 
Q 2506 1872 2764 1633 
Q 3022 1394 3022 966 
Q 3022 478 2636 193 
Q 2250 -91 1575 -91 
Q 1294 -91 989 -36 
Q 684 19 347 128 
L 347 722 
Q 666 556 975 473 
Q 1284 391 1588 391 
Q 1994 391 2212 530 
Q 2431 669 2431 922 
Q 2431 1156 2273 1281 
Q 2116 1406 1581 1522 
L 1381 1569 
Q 847 1681 609 1914 
Q 372 2147 372 2553 
Q 372 3047 722 3315 
Q 1072 3584 1716 3584 
Q 2034 3584 2315 3537 
Q 2597 3491 2834 3397 
z
" transform="scale(0.015625)"/>
       <path id="DejaVuSans-69" d="M 603 3500 
L 1178 3500 
L 1178 0 
L 603 0 
L 603 3500 
z
M 603 4863 
L 1178 4863 
L 1178 4134 
L 603 4134 
L 603 4863 
z
" transform="scale(0.015625)"/>
       <path id="DejaVuSans-6e" d="M 3513 2113 
L 3513 0 
L 2938 0 
L 2938 2094 
Q 2938 2591 2744 2837 
Q 2550 3084 2163 3084 
Q 1697 3084 1428 2787 
Q 1159 2491 1159 1978 
L 1159 0 
L 581 0 
L 581 3500 
L 1159 3500 
L 1159 2956 
Q 1366 3272 1645 3428 
Q 1925 3584 2291 3584 
Q 2894 3584 3203 3211 
Q 3513 2838 3513 2113 
z
" transform="scale(0.015625)"/>
       <path id="DejaVuSans-79" d="M 2059 -325 
Q 1816 -950 1584 -1140 
Q 1353 -1331 966 -1331 
L 506 -1331 
L 506 -850 
L 844 -850 
Q 1081 -850 1212 -737 
Q 1344 -625 1503 -206 
L 1606 56 
L 191 3500 
L 800 3500 
L 1894 763 
L 2988 3500 
L 3597 3500 
L 2059 -325 
z
" transform="scale(0.015625)"/>
      </defs>
      <use xlink:href="#DejaVuSans-73"/>
      <use xlink:href="#DejaVuSans-69" x="52.099609"/>
      <use xlink:href="#DejaVuSans-6e" x="79.882812"/>
      <use xlink:href="#DejaVuSans-64" x="143.261719"/>
      <use xlink:href="#DejaVuSans-79" x="206.738281"/>
     </g>
    </g>
   </g>
  </g>
  <g id="axes_2">
   <g id="patch_8">
    <path d="M 277.643338 608.98624 
L 467.582524 608.98624 
L 467.582524 67.13856 
L 277.643338 67.13856 
z
" style="fill: #ffffff"/>
   </g>
   <g id="matplotlib.axis_3">
    <g id="xtick_6">
     <g id="line2d_25">
      <path d="M 286.276937 608.98624 
L 286.276937 67.13856 
" clip-path="url(#pc6b1120b9a)" style="fill: none; stroke: #b0b0b0; stroke-width: 0.8; stroke-linecap: square"/>
     </g>
     <g id="line2d_26">
      <g>
       <use xlink:href="#mfd963bc371" x="286.276937" y="608.98624" style="stroke: #000000; stroke-width: 0.8"/>
      </g>
     </g>
     <g id="text_15">
      <!-- 0 -->
      <g transform="translate(283.095687 623.584677) scale(0.1 -0.1)">
       <use xlink:href="#DejaVuSans-30"/>
      </g>
     </g>
    </g>
    <g id="xtick_7">
     <g id="line2d_27">
      <path d="M 329.444934 608.98624 
L 329.444934 67.13856 
" clip-path="url(#pc6b1120b9a)" style="fill: none; stroke: #b0b0b0; stroke-width: 0.8; stroke-linecap: square"/>
     </g>
     <g id="line2d_28">
      <g>
       <use xlink:href="#mfd963bc371" x="329.444934" y="608.98624" style="stroke: #000000; stroke-width: 0.8"/>
      </g>
     </g>
     <g id="text_16">
      <!-- 5 -->
      <g transform="translate(326.263684 623.584677) scale(0.1 -0.1)">
       <use xlink:href="#DejaVuSans-35"/>
      </g>
     </g>
    </g>
    <g id="xtick_8">
     <g id="line2d_29">
      <path d="M 372.612931 608.98624 
L 372.612931 67.13856 
" clip-path="url(#pc6b1120b9a)" style="fill: none; stroke: #b0b0b0; stroke-width: 0.8; stroke-linecap: square"/>
     </g>
     <g id="line2d_30">
      <g>
       <use xlink:href="#mfd963bc371" x="372.612931" y="608.98624" style="stroke: #000000; stroke-width: 0.8"/>
      </g>
     </g>
     <g id="text_17">
      <!-- 10 -->
      <g transform="translate(366.250431 623.584677) scale(0.1 -0.1)">
       <use xlink:href="#DejaVuSans-31"/>
       <use xlink:href="#DejaVuSans-30" x="63.623047"/>
      </g>
     </g>
    </g>
    <g id="xtick_9">
     <g id="line2d_31">
      <path d="M 415.780928 608.98624 
L 415.780928 67.13856 
" clip-path="url(#pc6b1120b9a)" style="fill: none; stroke: #b0b0b0; stroke-width: 0.8; stroke-linecap: square"/>
     </g>
     <g id="line2d_32">
      <g>
       <use xlink:href="#mfd963bc371" x="415.780928" y="608.98624" style="stroke: #000000; stroke-width: 0.8"/>
      </g>
     </g>
     <g id="text_18">
      <!-- 15 -->
      <g transform="translate(409.418428 623.584677) scale(0.1 -0.1)">
       <use xlink:href="#DejaVuSans-31"/>
       <use xlink:href="#DejaVuSans-35" x="63.623047"/>
      </g>
     </g>
    </g>
    <g id="xtick_10">
     <g id="line2d_33">
      <path d="M 458.948925 608.98624 
L 458.948925 67.13856 
" clip-path="url(#pc6b1120b9a)" style="fill: none; stroke: #b0b0b0; stroke-width: 0.8; stroke-linecap: square"/>
     </g>
     <g id="line2d_34">
      <g>
       <use xlink:href="#mfd963bc371" x="458.948925" y="608.98624" style="stroke: #000000; stroke-width: 0.8"/>
      </g>
     </g>
     <g id="text_19">
      <!-- 20 -->
      <g transform="translate(452.586425 623.584677) scale(0.1 -0.1)">
       <use xlink:href="#DejaVuSans-32"/>
       <use xlink:href="#DejaVuSans-30" x="63.623047"/>
      </g>
     </g>
    </g>
    <g id="text_20">
     <!-- t -->
     <g transform="translate(370.652775 637.262802) scale(0.1 -0.1)">
      <use xlink:href="#DejaVuSans-74"/>
     </g>
    </g>
   </g>
   <g id="matplotlib.axis_4">
    <g id="ytick_6">
     <g id="line2d_35">
      <path d="M 277.643338 581.52831 
L 467.582524 581.52831 
" clip-path="url(#pc6b1120b9a)" style="fill: none; stroke: #b0b0b0; stroke-width: 0.8; stroke-linecap: square"/>
     </g>
     <g id="line2d_36">
      <g>
       <use xlink:href="#m16a074d193" x="277.643338" y="581.52831" style="stroke: #000000; stroke-width: 0.8"/>
      </g>
     </g>
     <g id="text_21">
      <!-- −0.4 -->
      <g transform="translate(246.360525 585.327528) scale(0.1 -0.1)">
       <defs>
        <path id="DejaVuSans-34" d="M 2419 4116 
L 825 1625 
L 2419 1625 
L 2419 4116 
z
M 2253 4666 
L 3047 4666 
L 3047 1625 
L 3713 1625 
L 3713 1100 
L 3047 1100 
L 3047 0 
L 2419 0 
L 2419 1100 
L 313 1100 
L 313 1709 
L 2253 4666 
z
" transform="scale(0.015625)"/>
       </defs>
       <use xlink:href="#DejaVuSans-2212"/>
       <use xlink:href="#DejaVuSans-30" x="83.789062"/>
       <use xlink:href="#DejaVuSans-2e" x="147.412109"/>
       <use xlink:href="#DejaVuSans-34" x="179.199219"/>
      </g>
     </g>
    </g>
    <g id="ytick_7">
     <g id="line2d_37">
      <path d="M 277.643338 518.887211 
L 467.582524 518.887211 
" clip-path="url(#pc6b1120b9a)" style="fill: none; stroke: #b0b0b0; stroke-width: 0.8; stroke-linecap: square"/>
     </g>
     <g id="line2d_38">
      <g>
       <use xlink:href="#m16a074d193" x="277.643338" y="518.887211" style="stroke: #000000; stroke-width: 0.8"/>
      </g>
     </g>
     <g id="text_22">
      <!-- −0.3 -->
      <g transform="translate(246.360525 522.686429) scale(0.1 -0.1)">
       <defs>
        <path id="DejaVuSans-33" d="M 2597 2516 
Q 3050 2419 3304 2112 
Q 3559 1806 3559 1356 
Q 3559 666 3084 287 
Q 2609 -91 1734 -91 
Q 1441 -91 1130 -33 
Q 819 25 488 141 
L 488 750 
Q 750 597 1062 519 
Q 1375 441 1716 441 
Q 2309 441 2620 675 
Q 2931 909 2931 1356 
Q 2931 1769 2642 2001 
Q 2353 2234 1838 2234 
L 1294 2234 
L 1294 2753 
L 1863 2753 
Q 2328 2753 2575 2939 
Q 2822 3125 2822 3475 
Q 2822 3834 2567 4026 
Q 2313 4219 1838 4219 
Q 1578 4219 1281 4162 
Q 984 4106 628 3988 
L 628 4550 
Q 988 4650 1302 4700 
Q 1616 4750 1894 4750 
Q 2613 4750 3031 4423 
Q 3450 4097 3450 3541 
Q 3450 3153 3228 2886 
Q 3006 2619 2597 2516 
z
" transform="scale(0.015625)"/>
       </defs>
       <use xlink:href="#DejaVuSans-2212"/>
       <use xlink:href="#DejaVuSans-30" x="83.789062"/>
       <use xlink:href="#DejaVuSans-2e" x="147.412109"/>
       <use xlink:href="#DejaVuSans-33" x="179.199219"/>
      </g>
     </g>
    </g>
    <g id="ytick_8">
     <g id="line2d_39">
      <path d="M 277.643338 456.246111 
L 467.582524 456.246111 
" clip-path="url(#pc6b1120b9a)" style="fill: none; stroke: #b0b0b0; stroke-width: 0.8; stroke-linecap: square"/>
     </g>
     <g id="line2d_40">
      <g>
       <use xlink:href="#m16a074d193" x="277.643338" y="456.246111" style="stroke: #000000; stroke-width: 0.8"/>
      </g>
     </g>
     <g id="text_23">
      <!-- −0.2 -->
      <g transform="translate(246.360525 460.04533) scale(0.1 -0.1)">
       <use xlink:href="#DejaVuSans-2212"/>
       <use xlink:href="#DejaVuSans-30" x="83.789062"/>
       <use xlink:href="#DejaVuSans-2e" x="147.412109"/>
       <use xlink:href="#DejaVuSans-32" x="179.199219"/>
      </g>
     </g>
    </g>
    <g id="ytick_9">
     <g id="line2d_41">
      <path d="M 277.643338 393.605012 
L 467.582524 393.605012 
" clip-path="url(#pc6b1120b9a)" style="fill: none; stroke: #b0b0b0; stroke-width: 0.8; stroke-linecap: square"/>
     </g>
     <g id="line2d_42">
      <g>
       <use xlink:href="#m16a074d193" x="277.643338" y="393.605012" style="stroke: #000000; stroke-width: 0.8"/>
      </g>
     </g>
     <g id="text_24">
      <!-- −0.1 -->
      <g transform="translate(246.360525 397.404231) scale(0.1 -0.1)">
       <use xlink:href="#DejaVuSans-2212"/>
       <use xlink:href="#DejaVuSans-30" x="83.789062"/>
       <use xlink:href="#DejaVuSans-2e" x="147.412109"/>
       <use xlink:href="#DejaVuSans-31" x="179.199219"/>
      </g>
     </g>
    </g>
    <g id="ytick_10">
     <g id="line2d_43">
      <path d="M 277.643338 330.963913 
L 467.582524 330.963913 
" clip-path="url(#pc6b1120b9a)" style="fill: none; stroke: #b0b0b0; stroke-width: 0.8; stroke-linecap: square"/>
     </g>
     <g id="line2d_44">
      <g>
       <use xlink:href="#m16a074d193" x="277.643338" y="330.963913" style="stroke: #000000; stroke-width: 0.8"/>
      </g>
     </g>
     <g id="text_25">
      <!-- 0.0 -->
      <g transform="translate(254.740213 334.763132) scale(0.1 -0.1)">
       <use xlink:href="#DejaVuSans-30"/>
       <use xlink:href="#DejaVuSans-2e" x="63.623047"/>
       <use xlink:href="#DejaVuSans-30" x="95.410156"/>
      </g>
     </g>
    </g>
    <g id="ytick_11">
     <g id="line2d_45">
      <path d="M 277.643338 268.322814 
L 467.582524 268.322814 
" clip-path="url(#pc6b1120b9a)" style="fill: none; stroke: #b0b0b0; stroke-width: 0.8; stroke-linecap: square"/>
     </g>
     <g id="line2d_46">
      <g>
       <use xlink:href="#m16a074d193" x="277.643338" y="268.322814" style="stroke: #000000; stroke-width: 0.8"/>
      </g>
     </g>
     <g id="text_26">
      <!-- 0.1 -->
      <g transform="translate(254.740213 272.122033) scale(0.1 -0.1)">
       <use xlink:href="#DejaVuSans-30"/>
       <use xlink:href="#DejaVuSans-2e" x="63.623047"/>
       <use xlink:href="#DejaVuSans-31" x="95.410156"/>
      </g>
     </g>
    </g>
    <g id="ytick_12">
     <g id="line2d_47">
      <path d="M 277.643338 205.681715 
L 467.582524 205.681715 
" clip-path="url(#pc6b1120b9a)" style="fill: none; stroke: #b0b0b0; stroke-width: 0.8; stroke-linecap: square"/>
     </g>
     <g id="line2d_48">
      <g>
       <use xlink:href="#m16a074d193" x="277.643338" y="205.681715" style="stroke: #000000; stroke-width: 0.8"/>
      </g>
     </g>
     <g id="text_27">
      <!-- 0.2 -->
      <g transform="translate(254.740213 209.480934) scale(0.1 -0.1)">
       <use xlink:href="#DejaVuSans-30"/>
       <use xlink:href="#DejaVuSans-2e" x="63.623047"/>
       <use xlink:href="#DejaVuSans-32" x="95.410156"/>
      </g>
     </g>
    </g>
    <g id="ytick_13">
     <g id="line2d_49">
      <path d="M 277.643338 143.040616 
L 467.582524 143.040616 
" clip-path="url(#pc6b1120b9a)" style="fill: none; stroke: #b0b0b0; stroke-width: 0.8; stroke-linecap: square"/>
     </g>
     <g id="line2d_50">
      <g>
       <use xlink:href="#m16a074d193" x="277.643338" y="143.040616" style="stroke: #000000; stroke-width: 0.8"/>
      </g>
     </g>
     <g id="text_28">
      <!-- 0.3 -->
      <g transform="translate(254.740213 146.839834) scale(0.1 -0.1)">
       <use xlink:href="#DejaVuSans-30"/>
       <use xlink:href="#DejaVuSans-2e" x="63.623047"/>
       <use xlink:href="#DejaVuSans-33" x="95.410156"/>
      </g>
     </g>
    </g>
    <g id="ytick_14">
     <g id="line2d_51">
      <path d="M 277.643338 80.399517 
L 467.582524 80.399517 
" clip-path="url(#pc6b1120b9a)" style="fill: none; stroke: #b0b0b0; stroke-width: 0.8; stroke-linecap: square"/>
     </g>
     <g id="line2d_52">
      <g>
       <use xlink:href="#m16a074d193" x="277.643338" y="80.399517" style="stroke: #000000; stroke-width: 0.8"/>
      </g>
     </g>
     <g id="text_29">
      <!-- 0.4 -->
      <g transform="translate(254.740213 84.198735) scale(0.1 -0.1)">
       <use xlink:href="#DejaVuSans-30"/>
       <use xlink:href="#DejaVuSans-2e" x="63.623047"/>
       <use xlink:href="#DejaVuSans-34" x="95.410156"/>
      </g>
     </g>
    </g>
    <g id="text_30">
     <!-- Fr(t) -->
     <g transform="translate(240.280838 348.492869) rotate(-90) scale(0.1 -0.1)">
      <defs>
       <path id="DejaVuSans-46" d="M 628 4666 
L 3309 4666 
L 3309 4134 
L 1259 4134 
L 1259 2759 
L 3109 2759 
L 3109 2228 
L 1259 2228 
L 1259 0 
L 628 0 
L 628 4666 
z
" transform="scale(0.015625)"/>
       <path id="DejaVuSans-72" d="M 2631 2963 
Q 2534 3019 2420 3045 
Q 2306 3072 2169 3072 
Q 1681 3072 1420 2755 
Q 1159 2438 1159 1844 
L 1159 0 
L 581 0 
L 581 3500 
L 1159 3500 
L 1159 2956 
Q 1341 3275 1631 3429 
Q 1922 3584 2338 3584 
Q 2397 3584 2469 3576 
Q 2541 3569 2628 3553 
L 2631 2963 
z
" transform="scale(0.015625)"/>
      </defs>
      <use xlink:href="#DejaVuSans-46"/>
      <use xlink:href="#DejaVuSans-72" x="50.269531"/>
      <use xlink:href="#DejaVuSans-28" x="91.382812"/>
      <use xlink:href="#DejaVuSans-74" x="130.396484"/>
      <use xlink:href="#DejaVuSans-29" x="169.605469"/>
     </g>
    </g>
   </g>
   <g id="line2d_53">
    <path d="M 286.276937 330.963913 
L 290.770903 330.853228 
L 292.499351 330.567992 
L 293.88211 330.104023 
L 295.092023 329.454393 
L 296.301937 328.517871 
L 297.339006 327.446648 
L 298.54892 325.8435 
L 299.758834 323.827193 
L 300.968748 321.377911 
L 302.351506 318.046664 
L 303.90711 313.65688 
L 305.635558 308.094435 
L 308.055386 299.492125 
L 312.030817 285.324479 
L 313.58642 280.56783 
L 314.796334 277.456115 
L 315.833403 275.309956 
L 316.697627 273.9527 
L 317.389007 273.183627 
L 318.080386 272.722454 
L 318.598921 272.593192 
L 319.117455 272.676799 
L 319.63599 273.013456 
L 320.154524 273.615253 
L 320.845903 274.848422 
L 321.537283 276.594643 
L 322.401507 279.528518 
L 323.265731 283.325186 
L 324.3028 289.049425 
L 325.339869 296.063742 
L 326.549783 305.869246 
L 327.932542 319.149384 
L 329.488145 336.499122 
L 332.599352 374.441955 
L 335.710559 411.566673 
L 337.784697 433.6442 
L 339.513145 449.627498 
L 340.895904 460.58531 
L 342.278663 469.788959 
L 343.488577 476.335665 
L 344.525646 480.789874 
L 345.38987 483.66314 
L 346.254094 485.753862 
L 346.945473 486.848123 
L 347.464008 487.322725 
L 347.982542 487.493412 
L 348.328232 487.377219 
L 348.673922 486.98405 
L 349.192456 485.865452 
L 349.71099 484.101955 
L 350.40237 480.731573 
L 351.093749 476.182854 
L 351.957973 468.829452 
L 352.822197 459.62784 
L 353.859266 446.182571 
L 355.06918 427.292366 
L 356.451939 401.740093 
L 358.007542 368.475224 
L 359.908836 322.630241 
L 362.155818 269.974425 
L 363.884267 234.515823 
L 365.43987 206.989753 
L 366.822629 186.087507 
L 368.205388 168.434184 
L 369.415301 155.503515 
L 370.625215 144.762929 
L 371.835129 136.060188 
L 372.872198 130.11731 
L 373.909267 125.496981 
L 374.773491 122.616489 
L 375.464871 120.93084 
L 376.15625 119.788581 
L 376.674784 119.287741 
L 377.193319 119.09347 
L 377.539009 119.225799 
L 377.884698 119.769909 
L 378.230388 120.733989 
L 378.748922 122.972329 
L 379.267457 126.165115 
L 379.958836 131.907645 
L 380.82306 141.4587 
L 381.687285 153.603822 
L 382.724354 171.496003 
L 383.934267 196.70632 
L 385.317026 230.743638 
L 386.87263 274.782002 
L 388.946768 340.538482 
L 390.675216 392.430124 
L 392.230819 432.241533 
L 393.613578 462.026804 
L 394.996337 486.817619 
L 396.20625 504.76454 
L 397.416164 519.576056 
L 398.626078 531.593684 
L 399.663147 539.908837 
L 400.700216 546.572664 
L 401.737285 551.727478 
L 402.601509 554.951556 
L 403.292889 556.864336 
L 403.984268 558.203007 
L 404.502802 558.836284 
L 405.021337 559.153593 
L 405.367027 559.178219 
L 405.712716 558.802047 
L 406.058406 557.920288 
L 406.57694 555.645878 
L 407.095475 552.227618 
L 407.786854 545.895439 
L 408.478234 537.553375 
L 409.342458 524.352388 
L 410.379527 504.578822 
L 411.589441 476.397141 
L 412.972199 438.07311 
L 414.527803 388.305462 
L 419.021768 238.003836 
L 420.404527 203.293686 
L 421.614441 177.952432 
L 422.824355 156.878973 
L 424.034269 139.599496 
L 425.244182 125.639568 
L 426.281251 115.983564 
L 427.31832 108.2042 
L 428.355389 102.098597 
L 429.219614 98.170382 
L 430.083838 95.217928 
L 430.775217 93.522272 
L 431.466596 92.398899 
L 431.985131 91.925792 
L 432.503665 91.768 
L 432.67651 91.839453 
L 433.0222 92.410528 
L 433.36789 93.554642 
L 433.886424 96.34856 
L 434.404959 100.436252 
L 435.096338 107.890487 
L 435.960562 120.389525 
L 436.824786 136.33863 
L 437.861855 159.845247 
L 439.071769 192.900856 
L 440.454528 237.334854 
L 442.182976 301.158504 
L 444.775648 399.471812 
L 446.158407 442.043128 
L 447.368321 473.213273 
L 448.578235 499.146072 
L 449.788149 520.412927 
L 450.998062 537.627188 
L 452.207976 551.377268 
L 453.245045 560.805957 
L 454.282114 568.359568 
L 455.319183 574.27354 
L 456.183407 578.086243 
L 457.047632 580.975541 
L 457.739011 582.664669 
L 458.43039 583.825088 
L 458.948925 584.3568 
L 458.948925 584.3568 
" clip-path="url(#pc6b1120b9a)" style="fill: none; stroke: #0000ff; stroke-width: 1.5; stroke-linecap: square"/>
   </g>
   <g id="line2d_54">
    <path d="M 286.276937 330.963913 
L 286.968316 330.729122 
L 287.83254 330.171107 
L 288.696765 329.32371 
L 289.733834 327.936539 
L 290.770903 326.165227 
L 291.980816 323.651007 
L 293.363575 320.25873 
L 295.092023 315.401228 
L 297.857541 306.84177 
L 300.623058 298.484423 
L 302.178662 294.424498 
L 303.388575 291.798646 
L 304.425644 290.010526 
L 305.289868 288.89257 
L 306.154093 288.143378 
L 306.845472 287.824332 
L 307.536851 287.76299 
L 308.228231 287.963761 
L 308.91961 288.427604 
L 309.610989 289.151939 
L 310.475213 290.413971 
L 311.512282 292.424369 
L 312.549351 294.928659 
L 313.93211 298.92345 
L 315.660558 304.706467 
L 322.228662 327.624389 
L 323.611421 331.330247 
L 324.821335 333.980776 
L 325.858404 335.760315 
L 326.722628 336.871729 
L 327.586852 337.630719 
L 328.278231 337.977571 
L 328.969611 338.089467 
L 329.66099 337.964764 
L 330.352369 337.603331 
L 331.043749 337.006546 
L 331.907973 335.934176 
L 332.772197 334.507816 
L 333.809266 332.347516 
L 335.01918 329.247687 
L 336.401938 325.019935 
L 338.130387 318.89093 
L 340.550214 309.301536 
L 344.007111 295.571899 
L 345.562715 290.24956 
L 346.772628 286.797727 
L 347.809697 284.443772 
L 348.673922 282.972101 
L 349.365301 282.144513 
L 350.05668 281.645616 
L 350.575215 281.494583 
L 351.093749 281.538786 
L 351.612284 281.780178 
L 352.303663 282.409232 
L 352.995042 283.385897 
L 353.859266 285.082058 
L 354.723491 287.280043 
L 355.76056 290.524326 
L 356.970473 295.034307 
L 358.526077 301.719855 
L 361.118749 314.042519 
L 364.057112 327.713343 
L 365.78556 334.687816 
L 367.168319 339.382279 
L 368.378232 342.724193 
L 369.415301 344.963592 
L 370.279526 346.363549 
L 371.14375 347.324646 
L 371.835129 347.77085 
L 372.526508 347.926648 
L 373.217888 347.790349 
L 373.909267 347.361758 
L 374.600646 346.642172 
L 375.464871 345.337911 
L 376.329095 343.592437 
L 377.366164 340.934098 
L 378.576078 337.095439 
L 379.958836 331.819296 
L 381.51444 324.911483 
L 383.588578 314.527407 
L 388.601078 288.758141 
L 389.983837 282.925298 
L 391.19375 278.76152 
L 392.057975 276.440719 
L 392.922199 274.736114 
L 393.613578 273.851363 
L 394.132113 273.481209 
L 394.650647 273.369982 
L 395.169182 273.522157 
L 395.687716 273.940038 
L 396.20625 274.623664 
L 396.89763 275.944267 
L 397.761854 278.234523 
L 398.626078 281.198071 
L 399.663147 285.563739 
L 400.873061 291.614359 
L 402.428664 300.541577 
L 405.367027 319.056486 
L 407.959699 334.774598 
L 409.688147 343.879077 
L 411.070906 350.031243 
L 412.28082 354.458764 
L 413.317889 357.485229 
L 414.182113 359.43938 
L 415.046337 360.861909 
L 415.737717 361.610158 
L 416.429096 362.007926 
L 416.94763 362.07483 
L 417.466165 361.942791 
L 417.984699 361.611723 
L 418.676079 360.861289 
L 419.367458 359.759487 
L 420.231682 357.893148 
L 421.095906 355.492391 
L 422.132975 351.925267 
L 423.342889 346.85889 
L 424.725648 339.963516 
L 426.281251 330.973967 
L 428.182545 318.625737 
L 433.886424 280.432863 
L 435.269183 273.137833 
L 436.306252 268.730539 
L 437.170476 265.892125 
L 437.861855 264.23004 
L 438.553235 263.14944 
L 439.071769 262.738604 
L 439.417459 262.660408 
L 439.763148 262.741194 
L 440.281683 263.163317 
L 440.800217 263.948038 
L 441.491597 265.555312 
L 442.182976 267.791024 
L 443.0472 271.431673 
L 444.084269 276.945652 
L 445.294183 284.746112 
L 446.849786 296.435217 
L 449.442459 318.083055 
L 452.380821 342.150287 
L 454.109269 354.585075 
L 455.664873 364.150137 
L 456.874787 370.364834 
L 458.084701 375.423842 
L 458.948925 378.299526 
L 458.948925 378.299526 
" clip-path="url(#pc6b1120b9a)" style="fill: none; stroke-dasharray: 5.55,2.4; stroke-dashoffset: 0; stroke: #ff0000; stroke-width: 1.5"/>
   </g>
   <g id="patch_9">
    <path d="M 277.643338 608.98624 
L 277.643338 67.13856 
" style="fill: none; stroke: #000000; stroke-width: 0.8; stroke-linejoin: miter; stroke-linecap: square"/>
   </g>
   <g id="patch_10">
    <path d="M 467.582524 608.98624 
L 467.582524 67.13856 
" style="fill: none; stroke: #000000; stroke-width: 0.8; stroke-linejoin: miter; stroke-linecap: square"/>
   </g>
   <g id="patch_11">
    <path d="M 277.643338 608.98624 
L 467.582524 608.98624 
" style="fill: none; stroke: #000000; stroke-width: 0.8; stroke-linejoin: miter; stroke-linecap: square"/>
   </g>
   <g id="patch_12">
    <path d="M 277.643338 67.13856 
L 467.582524 67.13856 
" style="fill: none; stroke: #000000; stroke-width: 0.8; stroke-linejoin: miter; stroke-linecap: square"/>
   </g>
   <g id="legend_2">
    <g id="patch_13">
     <path d="M 284.643338 104.49481 
L 343.235525 104.49481 
Q 345.235525 104.49481 345.235525 102.49481 
L 345.235525 74.13856 
Q 345.235525 72.13856 343.235525 72.13856 
L 284.643338 72.13856 
Q 282.643338 72.13856 282.643338 74.13856 
L 282.643338 102.49481 
Q 282.643338 104.49481 284.643338 104.49481 
z
" style="fill: #ffffff; opacity: 0.8; stroke: #cccccc; stroke-linejoin: miter"/>
    </g>
    <g id="line2d_55">
     <path d="M 286.643338 80.236997 
L 296.643338 80.236997 
L 306.643338 80.236997 
" style="fill: none; stroke: #0000ff; stroke-width: 1.5; stroke-linecap: square"/>
    </g>
    <g id="text_31">
     <!-- data -->
     <g transform="translate(314.643338 83.736997) scale(0.1 -0.1)">
      <use xlink:href="#DejaVuSans-64"/>
      <use xlink:href="#DejaVuSans-61" x="63.476562"/>
      <use xlink:href="#DejaVuSans-74" x="124.755859"/>
      <use xlink:href="#DejaVuSans-61" x="163.964844"/>
     </g>
    </g>
    <g id="line2d_56">
     <path d="M 286.643338 94.915122 
L 296.643338 94.915122 
L 306.643338 94.915122 
" style="fill: none; stroke-dasharray: 5.55,2.4; stroke-dashoffset: 0; stroke: #ff0000; stroke-width: 1.5"/>
    </g>
    <g id="text_32">
     <!-- sindy -->
     <g transform="translate(314.643338 98.415122) scale(0.1 -0.1)">
      <use xlink:href="#DejaVuSans-73"/>
      <use xlink:href="#DejaVuSans-69" x="52.099609"/>
      <use xlink:href="#DejaVuSans-6e" x="79.882812"/>
      <use xlink:href="#DejaVuSans-64" x="143.261719"/>
      <use xlink:href="#DejaVuSans-79" x="206.738281"/>
     </g>
    </g>
   </g>
  </g>
  <g id="axes_3">
   <g id="patch_14">
    <path d="M 503.125737 608.98624 
L 693.064924 608.98624 
L 693.064924 67.13856 
L 503.125737 67.13856 
z
" style="fill: #ffffff"/>
   </g>
   <g id="matplotlib.axis_5">
    <g id="xtick_11">
     <g id="line2d_57">
      <path d="M 530.400528 608.98624 
L 530.400528 67.13856 
" clip-path="url(#p1088f68f56)" style="fill: none; stroke: #b0b0b0; stroke-width: 0.8; stroke-linecap: square"/>
     </g>
     <g id="line2d_58">
      <g>
       <use xlink:href="#mfd963bc371" x="530.400528" y="608.98624" style="stroke: #000000; stroke-width: 0.8"/>
      </g>
     </g>
     <g id="text_33">
      <!-- −1.0 -->
      <g transform="translate(518.259121 623.584677) scale(0.1 -0.1)">
       <use xlink:href="#DejaVuSans-2212"/>
       <use xlink:href="#DejaVuSans-31" x="83.789062"/>
       <use xlink:href="#DejaVuSans-2e" x="147.412109"/>
       <use xlink:href="#DejaVuSans-30" x="179.199219"/>
      </g>
     </g>
    </g>
    <g id="xtick_12">
     <g id="line2d_59">
      <path d="M 566.4923 608.98624 
L 566.4923 67.13856 
" clip-path="url(#p1088f68f56)" style="fill: none; stroke: #b0b0b0; stroke-width: 0.8; stroke-linecap: square"/>
     </g>
     <g id="line2d_60">
      <g>
       <use xlink:href="#mfd963bc371" x="566.4923" y="608.98624" style="stroke: #000000; stroke-width: 0.8"/>
      </g>
     </g>
     <g id="text_34">
      <!-- −0.5 -->
      <g transform="translate(554.350893 623.584677) scale(0.1 -0.1)">
       <use xlink:href="#DejaVuSans-2212"/>
       <use xlink:href="#DejaVuSans-30" x="83.789062"/>
       <use xlink:href="#DejaVuSans-2e" x="147.412109"/>
       <use xlink:href="#DejaVuSans-35" x="179.199219"/>
      </g>
     </g>
    </g>
    <g id="xtick_13">
     <g id="line2d_61">
      <path d="M 602.584072 608.98624 
L 602.584072 67.13856 
" clip-path="url(#p1088f68f56)" style="fill: none; stroke: #b0b0b0; stroke-width: 0.8; stroke-linecap: square"/>
     </g>
     <g id="line2d_62">
      <g>
       <use xlink:href="#mfd963bc371" x="602.584072" y="608.98624" style="stroke: #000000; stroke-width: 0.8"/>
      </g>
     </g>
     <g id="text_35">
      <!-- 0.0 -->
      <g transform="translate(594.632509 623.584677) scale(0.1 -0.1)">
       <use xlink:href="#DejaVuSans-30"/>
       <use xlink:href="#DejaVuSans-2e" x="63.623047"/>
       <use xlink:href="#DejaVuSans-30" x="95.410156"/>
      </g>
     </g>
    </g>
    <g id="xtick_14">
     <g id="line2d_63">
      <path d="M 638.675843 608.98624 
L 638.675843 67.13856 
" clip-path="url(#p1088f68f56)" style="fill: none; stroke: #b0b0b0; stroke-width: 0.8; stroke-linecap: square"/>
     </g>
     <g id="line2d_64">
      <g>
       <use xlink:href="#mfd963bc371" x="638.675843" y="608.98624" style="stroke: #000000; stroke-width: 0.8"/>
      </g>
     </g>
     <g id="text_36">
      <!-- 0.5 -->
      <g transform="translate(630.724281 623.584677) scale(0.1 -0.1)">
       <use xlink:href="#DejaVuSans-30"/>
       <use xlink:href="#DejaVuSans-2e" x="63.623047"/>
       <use xlink:href="#DejaVuSans-35" x="95.410156"/>
      </g>
     </g>
    </g>
    <g id="xtick_15">
     <g id="line2d_65">
      <path d="M 674.767615 608.98624 
L 674.767615 67.13856 
" clip-path="url(#p1088f68f56)" style="fill: none; stroke: #b0b0b0; stroke-width: 0.8; stroke-linecap: square"/>
     </g>
     <g id="line2d_66">
      <g>
       <use xlink:href="#mfd963bc371" x="674.767615" y="608.98624" style="stroke: #000000; stroke-width: 0.8"/>
      </g>
     </g>
     <g id="text_37">
      <!-- 1.0 -->
      <g transform="translate(666.816053 623.584677) scale(0.1 -0.1)">
       <use xlink:href="#DejaVuSans-31"/>
       <use xlink:href="#DejaVuSans-2e" x="63.623047"/>
       <use xlink:href="#DejaVuSans-30" x="95.410156"/>
      </g>
     </g>
    </g>
    <g id="text_38">
     <!-- x(t) -->
     <g transform="translate(589.274237 637.262802) scale(0.1 -0.1)">
      <use xlink:href="#DejaVuSans-78"/>
      <use xlink:href="#DejaVuSans-28" x="59.179688"/>
      <use xlink:href="#DejaVuSans-74" x="98.193359"/>
      <use xlink:href="#DejaVuSans-29" x="137.402344"/>
     </g>
    </g>
   </g>
   <g id="matplotlib.axis_6">
    <g id="ytick_15">
     <g id="line2d_67">
      <path d="M 503.125737 581.52831 
L 693.064924 581.52831 
" clip-path="url(#p1088f68f56)" style="fill: none; stroke: #b0b0b0; stroke-width: 0.8; stroke-linecap: square"/>
     </g>
     <g id="line2d_68">
      <g>
       <use xlink:href="#m16a074d193" x="503.125737" y="581.52831" style="stroke: #000000; stroke-width: 0.8"/>
      </g>
     </g>
     <g id="text_39">
      <!-- −0.4 -->
      <g transform="translate(471.842925 585.327528) scale(0.1 -0.1)">
       <use xlink:href="#DejaVuSans-2212"/>
       <use xlink:href="#DejaVuSans-30" x="83.789062"/>
       <use xlink:href="#DejaVuSans-2e" x="147.412109"/>
       <use xlink:href="#DejaVuSans-34" x="179.199219"/>
      </g>
     </g>
    </g>
    <g id="ytick_16">
     <g id="line2d_69">
      <path d="M 503.125737 518.887211 
L 693.064924 518.887211 
" clip-path="url(#p1088f68f56)" style="fill: none; stroke: #b0b0b0; stroke-width: 0.8; stroke-linecap: square"/>
     </g>
     <g id="line2d_70">
      <g>
       <use xlink:href="#m16a074d193" x="503.125737" y="518.887211" style="stroke: #000000; stroke-width: 0.8"/>
      </g>
     </g>
     <g id="text_40">
      <!-- −0.3 -->
      <g transform="translate(471.842925 522.686429) scale(0.1 -0.1)">
       <use xlink:href="#DejaVuSans-2212"/>
       <use xlink:href="#DejaVuSans-30" x="83.789062"/>
       <use xlink:href="#DejaVuSans-2e" x="147.412109"/>
       <use xlink:href="#DejaVuSans-33" x="179.199219"/>
      </g>
     </g>
    </g>
    <g id="ytick_17">
     <g id="line2d_71">
      <path d="M 503.125737 456.246111 
L 693.064924 456.246111 
" clip-path="url(#p1088f68f56)" style="fill: none; stroke: #b0b0b0; stroke-width: 0.8; stroke-linecap: square"/>
     </g>
     <g id="line2d_72">
      <g>
       <use xlink:href="#m16a074d193" x="503.125737" y="456.246111" style="stroke: #000000; stroke-width: 0.8"/>
      </g>
     </g>
     <g id="text_41">
      <!-- −0.2 -->
      <g transform="translate(471.842925 460.04533) scale(0.1 -0.1)">
       <use xlink:href="#DejaVuSans-2212"/>
       <use xlink:href="#DejaVuSans-30" x="83.789062"/>
       <use xlink:href="#DejaVuSans-2e" x="147.412109"/>
       <use xlink:href="#DejaVuSans-32" x="179.199219"/>
      </g>
     </g>
    </g>
    <g id="ytick_18">
     <g id="line2d_73">
      <path d="M 503.125737 393.605012 
L 693.064924 393.605012 
" clip-path="url(#p1088f68f56)" style="fill: none; stroke: #b0b0b0; stroke-width: 0.8; stroke-linecap: square"/>
     </g>
     <g id="line2d_74">
      <g>
       <use xlink:href="#m16a074d193" x="503.125737" y="393.605012" style="stroke: #000000; stroke-width: 0.8"/>
      </g>
     </g>
     <g id="text_42">
      <!-- −0.1 -->
      <g transform="translate(471.842925 397.404231) scale(0.1 -0.1)">
       <use xlink:href="#DejaVuSans-2212"/>
       <use xlink:href="#DejaVuSans-30" x="83.789062"/>
       <use xlink:href="#DejaVuSans-2e" x="147.412109"/>
       <use xlink:href="#DejaVuSans-31" x="179.199219"/>
      </g>
     </g>
    </g>
    <g id="ytick_19">
     <g id="line2d_75">
      <path d="M 503.125737 330.963913 
L 693.064924 330.963913 
" clip-path="url(#p1088f68f56)" style="fill: none; stroke: #b0b0b0; stroke-width: 0.8; stroke-linecap: square"/>
     </g>
     <g id="line2d_76">
      <g>
       <use xlink:href="#m16a074d193" x="503.125737" y="330.963913" style="stroke: #000000; stroke-width: 0.8"/>
      </g>
     </g>
     <g id="text_43">
      <!-- 0.0 -->
      <g transform="translate(480.222612 334.763132) scale(0.1 -0.1)">
       <use xlink:href="#DejaVuSans-30"/>
       <use xlink:href="#DejaVuSans-2e" x="63.623047"/>
       <use xlink:href="#DejaVuSans-30" x="95.410156"/>
      </g>
     </g>
    </g>
    <g id="ytick_20">
     <g id="line2d_77">
      <path d="M 503.125737 268.322814 
L 693.064924 268.322814 
" clip-path="url(#p1088f68f56)" style="fill: none; stroke: #b0b0b0; stroke-width: 0.8; stroke-linecap: square"/>
     </g>
     <g id="line2d_78">
      <g>
       <use xlink:href="#m16a074d193" x="503.125737" y="268.322814" style="stroke: #000000; stroke-width: 0.8"/>
      </g>
     </g>
     <g id="text_44">
      <!-- 0.1 -->
      <g transform="translate(480.222612 272.122033) scale(0.1 -0.1)">
       <use xlink:href="#DejaVuSans-30"/>
       <use xlink:href="#DejaVuSans-2e" x="63.623047"/>
       <use xlink:href="#DejaVuSans-31" x="95.410156"/>
      </g>
     </g>
    </g>
    <g id="ytick_21">
     <g id="line2d_79">
      <path d="M 503.125737 205.681715 
L 693.064924 205.681715 
" clip-path="url(#p1088f68f56)" style="fill: none; stroke: #b0b0b0; stroke-width: 0.8; stroke-linecap: square"/>
     </g>
     <g id="line2d_80">
      <g>
       <use xlink:href="#m16a074d193" x="503.125737" y="205.681715" style="stroke: #000000; stroke-width: 0.8"/>
      </g>
     </g>
     <g id="text_45">
      <!-- 0.2 -->
      <g transform="translate(480.222612 209.480934) scale(0.1 -0.1)">
       <use xlink:href="#DejaVuSans-30"/>
       <use xlink:href="#DejaVuSans-2e" x="63.623047"/>
       <use xlink:href="#DejaVuSans-32" x="95.410156"/>
      </g>
     </g>
    </g>
    <g id="ytick_22">
     <g id="line2d_81">
      <path d="M 503.125737 143.040616 
L 693.064924 143.040616 
" clip-path="url(#p1088f68f56)" style="fill: none; stroke: #b0b0b0; stroke-width: 0.8; stroke-linecap: square"/>
     </g>
     <g id="line2d_82">
      <g>
       <use xlink:href="#m16a074d193" x="503.125737" y="143.040616" style="stroke: #000000; stroke-width: 0.8"/>
      </g>
     </g>
     <g id="text_46">
      <!-- 0.3 -->
      <g transform="translate(480.222612 146.839834) scale(0.1 -0.1)">
       <use xlink:href="#DejaVuSans-30"/>
       <use xlink:href="#DejaVuSans-2e" x="63.623047"/>
       <use xlink:href="#DejaVuSans-33" x="95.410156"/>
      </g>
     </g>
    </g>
    <g id="ytick_23">
     <g id="line2d_83">
      <path d="M 503.125737 80.399517 
L 693.064924 80.399517 
" clip-path="url(#p1088f68f56)" style="fill: none; stroke: #b0b0b0; stroke-width: 0.8; stroke-linecap: square"/>
     </g>
     <g id="line2d_84">
      <g>
       <use xlink:href="#m16a074d193" x="503.125737" y="80.399517" style="stroke: #000000; stroke-width: 0.8"/>
      </g>
     </g>
     <g id="text_47">
      <!-- 0.4 -->
      <g transform="translate(480.222612 84.198735) scale(0.1 -0.1)">
       <use xlink:href="#DejaVuSans-30"/>
       <use xlink:href="#DejaVuSans-2e" x="63.623047"/>
       <use xlink:href="#DejaVuSans-34" x="95.410156"/>
      </g>
     </g>
    </g>
    <g id="text_48">
     <!-- Fr(t) -->
     <g transform="translate(465.763238 348.492869) rotate(-90) scale(0.1 -0.1)">
      <use xlink:href="#DejaVuSans-46"/>
      <use xlink:href="#DejaVuSans-72" x="50.269531"/>
      <use xlink:href="#DejaVuSans-28" x="91.382812"/>
      <use xlink:href="#DejaVuSans-74" x="130.396484"/>
      <use xlink:href="#DejaVuSans-29" x="169.605469"/>
     </g>
    </g>
   </g>
   <g id="line2d_85">
    <path d="M 602.584072 330.963913 
L 606.686001 313.65688 
L 610.71244 297.588955 
L 614.824043 282.070637 
L 617.45391 272.593192 
L 617.090862 274.169062 
L 600.253337 346.813341 
L 596.020199 363.761083 
L 592.073538 378.700672 
L 587.965547 393.416938 
L 583.765504 407.631823 
L 579.548371 421.106561 
L 575.393597 433.6442 
L 571.383828 445.08841 
L 567.087207 456.676306 
L 562.769455 467.657536 
L 558.482337 477.940702 
L 554.26264 487.493412 
L 554.268052 487.469511 
L 594.328257 314.141967 
L 598.492179 297.543763 
L 602.745839 281.537674 
L 607.06534 266.21008 
L 611.426392 251.627026 
L 615.804429 237.835918 
L 620.174721 224.867525 
L 624.512481 212.738139 
L 628.792969 201.451793 
L 632.991593 191.002442 
L 637.084003 181.376036 
L 641.046189 172.552445 
L 645.779927 162.614354 
L 650.228538 153.838681 
L 654.348756 146.169075 
L 658.801418 138.347185 
L 663.233818 131.014179 
L 667.958864 123.66472 
L 671.056912 119.09347 
L 671.027609 119.225799 
L 618.65282 346.064175 
L 614.624765 362.210641 
L 610.546063 377.677058 
L 606.431039 392.430124 
L 602.293995 406.448101 
L 598.149174 419.719461 
L 594.010726 432.241533 
L 589.892676 444.019173 
L 585.808902 455.063497 
L 581.773104 465.390699 
L 577.798779 475.020966 
L 573.899199 483.977495 
L 570.087384 492.285627 
L 565.16348 502.400811 
L 560.447619 511.475931 
L 555.968154 519.576056 
L 551.752304 526.764445 
L 546.892669 534.558885 
L 542.533251 541.129935 
L 538.02428 547.533196 
L 533.34977 553.774986 
L 529.043776 559.189062 
L 529.04362 559.178219 
L 584.111337 320.450181 
L 588.613148 302.191566 
L 593.178767 284.789294 
L 597.791149 268.27927 
L 602.433327 252.681832 
L 607.088444 238.003836 
L 611.739798 224.240719 
L 616.370871 211.378463 
L 620.965363 199.395441 
L 625.507218 188.264092 
L 629.980656 177.952432 
L 634.370195 168.425378 
L 638.660678 159.645897 
L 642.837297 151.575981 
L 646.885623 144.177468 
L 650.791622 137.412707 
L 655.754775 129.315829 
L 660.409777 122.198272 
L 664.727171 115.983564 
L 669.606946 109.379536 
L 674.638469 103.007381 
L 679.274252 97.50381 
L 684.284615 91.925792 
L 684.431325 91.768 
L 684.414857 91.839453 
L 626.565541 342.582832 
L 621.599273 362.572528 
L 616.550283 381.54793 
L 613.147745 393.615491 
L 609.722539 405.209172 
L 606.28027 416.326279 
L 602.826517 426.967193 
L 599.366825 437.135007 
L 595.906702 446.835188 
L 592.451613 456.075235 
L 587.290264 469.093139 
L 582.170503 481.13376 
L 577.110125 492.239323 
L 572.126614 502.455629 
L 567.237118 511.830578 
L 562.458424 520.412927 
L 557.806927 528.251279 
L 553.298608 535.393264 
L 548.949006 541.884902 
L 544.773187 547.770112 
L 539.500865 554.745013 
L 534.596394 560.805957 
L 530.091049 566.034518 
L 525.065176 571.508666 
L 519.99171 576.67618 
L 514.98279 581.448446 
L 511.759337 584.3568 
L 511.759337 584.3568 
" clip-path="url(#p1088f68f56)" style="fill: none; stroke: #0000ff; stroke-width: 1.5; stroke-linecap: square"/>
   </g>
   <g id="line2d_86">
    <path d="M 602.584072 330.963913 
L 602.445974 330.640944 
L 602.382345 329.696952 
L 602.525991 327.667331 
L 603.040663 324.037813 
L 604.096014 318.386403 
L 605.686837 311.1843 
L 607.601032 303.606299 
L 609.490302 297.059103 
L 611.022348 292.493618 
L 612.243869 289.520764 
L 613.034539 288.143378 
L 613.48823 287.761094 
L 613.715054 287.830469 
L 613.876673 288.162876 
L 613.982355 288.94671 
L 613.943875 290.71245 
L 613.631167 293.618462 
L 612.950769 297.862779 
L 611.703574 304.098983 
L 609.94718 311.619333 
L 607.955799 319.172423 
L 605.924935 326.071851 
L 604.038858 331.744648 
L 602.571482 335.496862 
L 601.62626 337.370116 
L 601.077404 338.027662 
L 600.842899 338.080504 
L 600.668332 337.896571 
L 600.536492 337.334212 
L 600.51605 335.934176 
L 600.728435 333.487329 
L 601.340862 329.247687 
L 602.433788 323.269041 
L 604.066523 315.560928 
L 606.060196 307.180452 
L 608.277119 298.842773 
L 610.169043 292.509268 
L 611.800197 287.71198 
L 613.111743 284.443772 
L 614.095049 282.518142 
L 614.780021 281.645616 
L 615.142271 281.487497 
L 615.35971 281.597288 
L 615.572884 282.050918 
L 615.709987 283.109523 
L 615.67767 285.082058 
L 615.365386 288.291363 
L 614.657421 293.015073 
L 613.454537 299.401437 
L 611.703961 307.372813 
L 609.648326 315.7126 
L 607.213945 324.650094 
L 604.789848 332.712329 
L 602.553269 339.382279 
L 600.805856 343.918557 
L 599.663812 346.363549 
L 598.879609 347.583884 
L 598.452157 347.915043 
L 598.193342 347.851844 
L 598.010322 347.496263 
L 597.889971 346.642172 
L 597.906279 345.023757 
L 598.200871 341.886987 
L 598.898131 337.095439 
L 600.10513 330.366098 
L 601.909639 321.571154 
L 604.135089 311.799516 
L 606.671401 301.690558 
L 609.125898 292.8497 
L 611.340031 285.716548 
L 613.212835 280.424153 
L 614.701422 276.857446 
L 615.813721 274.736114 
L 616.594338 273.699571 
L 617.107408 273.377968 
L 617.420685 273.441977 
L 617.668611 273.771172 
L 617.892331 274.623664 
L 617.988966 275.944267 
L 617.926015 278.234523 
L 617.579318 281.866955 
L 616.811339 287.195888 
L 615.680933 293.502195 
L 614.00552 301.591705 
L 611.739242 311.342926 
L 609.208758 321.241446 
L 606.268376 331.789638 
L 603.37728 341.299135 
L 600.699714 349.323603 
L 598.581325 355.013624 
L 596.992265 358.720815 
L 595.861232 360.861909 
L 595.100503 361.853025 
L 594.705489 362.074617 
L 594.469685 362.008922 
L 594.286508 361.744182 
L 594.125084 361.081934 
L 594.057587 359.759487 
L 594.174357 357.455381 
L 594.581882 353.800822 
L 595.526104 347.640064 
L 597.104107 339.025072 
L 599.193549 328.824822 
L 602.005067 316.267951 
L 604.933843 304.244572 
L 607.777151 293.524142 
L 610.380491 284.566063 
L 612.640206 277.530265 
L 614.803279 271.556461 
L 616.514326 267.498308 
L 617.794121 264.990544 
L 618.697255 263.615025 
L 619.474437 262.836718 
L 619.965037 262.660408 
L 620.244749 262.741194 
L 620.484684 262.982347 
L 620.766912 263.646196 
L 620.952383 264.67204 
L 621.044039 266.595866 
L 620.903139 269.866124 
L 620.478327 274.040818 
L 619.605543 280.124268 
L 618.364024 287.203925 
L 616.505319 296.435217 
L 614.283372 306.361569 
L 611.418134 318.083055 
L 608.342924 329.71581 
L 605.196213 340.818333 
L 601.724654 352.238588 
L 598.466097 362.17205 
L 595.534306 370.364834 
L 593.272523 376.048877 
L 592.27892 378.299526 
L 592.27892 378.299526 
" clip-path="url(#p1088f68f56)" style="fill: none; stroke-dasharray: 5.55,2.4; stroke-dashoffset: 0; stroke: #ff0000; stroke-width: 1.5"/>
   </g>
   <g id="patch_15">
    <path d="M 503.125737 608.98624 
L 503.125737 67.13856 
" style="fill: none; stroke: #000000; stroke-width: 0.8; stroke-linejoin: miter; stroke-linecap: square"/>
   </g>
   <g id="patch_16">
    <path d="M 693.064924 608.98624 
L 693.064924 67.13856 
" style="fill: none; stroke: #000000; stroke-width: 0.8; stroke-linejoin: miter; stroke-linecap: square"/>
   </g>
   <g id="patch_17">
    <path d="M 503.125737 608.98624 
L 693.064924 608.98624 
" style="fill: none; stroke: #000000; stroke-width: 0.8; stroke-linejoin: miter; stroke-linecap: square"/>
   </g>
   <g id="patch_18">
    <path d="M 503.125737 67.13856 
L 693.064924 67.13856 
" style="fill: none; stroke: #000000; stroke-width: 0.8; stroke-linejoin: miter; stroke-linecap: square"/>
   </g>
   <g id="legend_3">
    <g id="patch_19">
     <path d="M 510.125738 104.49481 
L 568.717925 104.49481 
Q 570.717925 104.49481 570.717925 102.49481 
L 570.717925 74.13856 
Q 570.717925 72.13856 568.717925 72.13856 
L 510.125738 72.13856 
Q 508.125738 72.13856 508.125738 74.13856 
L 508.125738 102.49481 
Q 508.125738 104.49481 510.125738 104.49481 
z
" style="fill: #ffffff; opacity: 0.8; stroke: #cccccc; stroke-linejoin: miter"/>
    </g>
    <g id="line2d_87">
     <path d="M 512.125738 80.236997 
L 522.125738 80.236997 
L 532.125738 80.236997 
" style="fill: none; stroke: #0000ff; stroke-width: 1.5; stroke-linecap: square"/>
    </g>
    <g id="text_49">
     <!-- data -->
     <g transform="translate(540.125738 83.736997) scale(0.1 -0.1)">
      <use xlink:href="#DejaVuSans-64"/>
      <use xlink:href="#DejaVuSans-61" x="63.476562"/>
      <use xlink:href="#DejaVuSans-74" x="124.755859"/>
      <use xlink:href="#DejaVuSans-61" x="163.964844"/>
     </g>
    </g>
    <g id="line2d_88">
     <path d="M 512.125738 94.915122 
L 522.125738 94.915122 
L 532.125738 94.915122 
" style="fill: none; stroke-dasharray: 5.55,2.4; stroke-dashoffset: 0; stroke: #ff0000; stroke-width: 1.5"/>
    </g>
    <g id="text_50">
     <!-- sindy -->
     <g transform="translate(540.125738 98.415122) scale(0.1 -0.1)">
      <use xlink:href="#DejaVuSans-73"/>
      <use xlink:href="#DejaVuSans-69" x="52.099609"/>
      <use xlink:href="#DejaVuSans-6e" x="79.882812"/>
      <use xlink:href="#DejaVuSans-64" x="143.261719"/>
      <use xlink:href="#DejaVuSans-79" x="206.738281"/>
     </g>
    </g>
   </g>
  </g>
  <g id="text_51">
   <!-- FL_fr_n5 -->
   <g transform="translate(324.933974 19.3575) scale(0.16 -0.16)">
    <defs>
     <path id="DejaVuSans-4c" d="M 628 4666 
L 1259 4666 
L 1259 531 
L 3531 531 
L 3531 0 
L 628 0 
L 628 4666 
z
" transform="scale(0.015625)"/>
     <path id="DejaVuSans-5f" d="M 3263 -1063 
L 3263 -1509 
L -63 -1509 
L -63 -1063 
L 3263 -1063 
z
" transform="scale(0.015625)"/>
     <path id="DejaVuSans-66" d="M 2375 4863 
L 2375 4384 
L 1825 4384 
Q 1516 4384 1395 4259 
Q 1275 4134 1275 3809 
L 1275 3500 
L 2222 3500 
L 2222 3053 
L 1275 3053 
L 1275 0 
L 697 0 
L 697 3053 
L 147 3053 
L 147 3500 
L 697 3500 
L 697 3744 
Q 697 4328 969 4595 
Q 1241 4863 1831 4863 
L 2375 4863 
z
" transform="scale(0.015625)"/>
    </defs>
    <use xlink:href="#DejaVuSans-46"/>
    <use xlink:href="#DejaVuSans-4c" x="57.519531"/>
    <use xlink:href="#DejaVuSans-5f" x="113.232422"/>
    <use xlink:href="#DejaVuSans-66" x="163.232422"/>
    <use xlink:href="#DejaVuSans-72" x="198.4375"/>
    <use xlink:href="#DejaVuSans-5f" x="239.550781"/>
    <use xlink:href="#DejaVuSans-6e" x="289.550781"/>
    <use xlink:href="#DejaVuSans-35" x="352.929688"/>
   </g>
  </g>
 </g>
 <defs>
  <clipPath id="pca6a0bfab1">
   <rect x="52.160938" y="67.13856" width="189.939187" height="541.84768"/>
  </clipPath>
  <clipPath id="pc6b1120b9a">
   <rect x="277.643338" y="67.13856" width="189.939187" height="541.84768"/>
  </clipPath>
  <clipPath id="p1088f68f56">
   <rect x="503.125737" y="67.13856" width="189.939187" height="541.84768"/>
  </clipPath>
 </defs>
</svg>
