<?xml version="1.0" encoding="utf-8" standalone="no"?>
<!DOCTYPE svg PUBLIC "-//W3C//DTD SVG 1.1//EN"
  "http://www.w3.org/Graphics/SVG/1.1/DTD/svg11.dtd">
<svg xmlns:xlink="http://www.w3.org/1999/xlink" width="1072.370625pt" height="355.59625pt" viewBox="0 0 1072.370625 355.59625" xmlns="http://www.w3.org/2000/svg" version="1.1">
 <metadata>
  <rdf:RDF xmlns:dc="http://purl.org/dc/elements/1.1/" xmlns:cc="http://creativecommons.org/ns#" xmlns:rdf="http://www.w3.org/1999/02/22-rdf-syntax-ns#">
   <cc:Work>
    <dc:type rdf:resource="http://purl.org/dc/dcmitype/StillImage"/>
    <dc:date>2025-01-21T22:55:00.372328</dc:date>
    <dc:format>image/svg+xml</dc:format>
    <dc:creator>
     <cc:Agent>
      <dc:title>Matplotlib v3.9.2, https://matplotlib.org/</dc:title>
     </cc:Agent>
    </dc:creator>
   </cc:Work>
  </rdf:RDF>
 </metadata>
 <defs>
  <style type="text/css">*{stroke-linejoin: round; stroke-linecap: butt}</style>
 </defs>
 <g id="figure_1">
  <g id="patch_1">
   <path d="M 0 355.59625 
L 1072.370625 355.59625 
L 1072.370625 0 
L 0 0 
z
" style="fill: #ffffff"/>
  </g>
  <g id="axes_1">
   <g id="patch_2">
    <path d="M 34.240625 318.04 
L 340.550625 318.04 
L 340.550625 36.72 
L 34.240625 36.72 
z
" style="fill: #ffffff"/>
   </g>
   <g id="matplotlib.axis_1">
    <g id="xtick_1">
     <g id="line2d_1">
      <path d="M 48.163807 318.04 
L 48.163807 36.72 
" clip-path="url(#p437ec2edfe)" style="fill: none; stroke: #b0b0b0; stroke-width: 0.8; stroke-linecap: square"/>
     </g>
     <g id="line2d_2">
      <defs>
       <path id="mdd32c97930" d="M 0 0 
L 0 3.5 
" style="stroke: #000000; stroke-width: 0.8"/>
      </defs>
      <g>
       <use xlink:href="#mdd32c97930" x="48.163807" y="318.04" style="stroke: #000000; stroke-width: 0.8"/>
      </g>
     </g>
     <g id="text_1">
      <!-- 0.0 -->
      <g transform="translate(40.212244 332.638437) scale(0.1 -0.1)">
       <defs>
        <path id="DejaVuSans-30" d="M 2034 4250 
Q 1547 4250 1301 3770 
Q 1056 3291 1056 2328 
Q 1056 1369 1301 889 
Q 1547 409 2034 409 
Q 2525 409 2770 889 
Q 3016 1369 3016 2328 
Q 3016 3291 2770 3770 
Q 2525 4250 2034 4250 
z
M 2034 4750 
Q 2819 4750 3233 4129 
Q 3647 3509 3647 2328 
Q 3647 1150 3233 529 
Q 2819 -91 2034 -91 
Q 1250 -91 836 529 
Q 422 1150 422 2328 
Q 422 3509 836 4129 
Q 1250 4750 2034 4750 
z
" transform="scale(0.015625)"/>
        <path id="DejaVuSans-2e" d="M 684 794 
L 1344 794 
L 1344 0 
L 684 0 
L 684 794 
z
" transform="scale(0.015625)"/>
       </defs>
       <use xlink:href="#DejaVuSans-30"/>
       <use xlink:href="#DejaVuSans-2e" x="63.623047"/>
       <use xlink:href="#DejaVuSans-30" x="95.410156"/>
      </g>
     </g>
    </g>
    <g id="xtick_2">
     <g id="line2d_3">
      <path d="M 82.971761 318.04 
L 82.971761 36.72 
" clip-path="url(#p437ec2edfe)" style="fill: none; stroke: #b0b0b0; stroke-width: 0.8; stroke-linecap: square"/>
     </g>
     <g id="line2d_4">
      <g>
       <use xlink:href="#mdd32c97930" x="82.971761" y="318.04" style="stroke: #000000; stroke-width: 0.8"/>
      </g>
     </g>
     <g id="text_2">
      <!-- 2.5 -->
      <g transform="translate(75.020199 332.638437) scale(0.1 -0.1)">
       <defs>
        <path id="DejaVuSans-32" d="M 1228 531 
L 3431 531 
L 3431 0 
L 469 0 
L 469 531 
Q 828 903 1448 1529 
Q 2069 2156 2228 2338 
Q 2531 2678 2651 2914 
Q 2772 3150 2772 3378 
Q 2772 3750 2511 3984 
Q 2250 4219 1831 4219 
Q 1534 4219 1204 4116 
Q 875 4013 500 3803 
L 500 4441 
Q 881 4594 1212 4672 
Q 1544 4750 1819 4750 
Q 2544 4750 2975 4387 
Q 3406 4025 3406 3419 
Q 3406 3131 3298 2873 
Q 3191 2616 2906 2266 
Q 2828 2175 2409 1742 
Q 1991 1309 1228 531 
z
" transform="scale(0.015625)"/>
        <path id="DejaVuSans-35" d="M 691 4666 
L 3169 4666 
L 3169 4134 
L 1269 4134 
L 1269 2991 
Q 1406 3038 1543 3061 
Q 1681 3084 1819 3084 
Q 2600 3084 3056 2656 
Q 3513 2228 3513 1497 
Q 3513 744 3044 326 
Q 2575 -91 1722 -91 
Q 1428 -91 1123 -41 
Q 819 9 494 109 
L 494 744 
Q 775 591 1075 516 
Q 1375 441 1709 441 
Q 2250 441 2565 725 
Q 2881 1009 2881 1497 
Q 2881 1984 2565 2268 
Q 2250 2553 1709 2553 
Q 1456 2553 1204 2497 
Q 953 2441 691 2322 
L 691 4666 
z
" transform="scale(0.015625)"/>
       </defs>
       <use xlink:href="#DejaVuSans-32"/>
       <use xlink:href="#DejaVuSans-2e" x="63.623047"/>
       <use xlink:href="#DejaVuSans-35" x="95.410156"/>
      </g>
     </g>
    </g>
    <g id="xtick_3">
     <g id="line2d_5">
      <path d="M 117.779716 318.04 
L 117.779716 36.72 
" clip-path="url(#p437ec2edfe)" style="fill: none; stroke: #b0b0b0; stroke-width: 0.8; stroke-linecap: square"/>
     </g>
     <g id="line2d_6">
      <g>
       <use xlink:href="#mdd32c97930" x="117.779716" y="318.04" style="stroke: #000000; stroke-width: 0.8"/>
      </g>
     </g>
     <g id="text_3">
      <!-- 5.0 -->
      <g transform="translate(109.828153 332.638437) scale(0.1 -0.1)">
       <use xlink:href="#DejaVuSans-35"/>
       <use xlink:href="#DejaVuSans-2e" x="63.623047"/>
       <use xlink:href="#DejaVuSans-30" x="95.410156"/>
      </g>
     </g>
    </g>
    <g id="xtick_4">
     <g id="line2d_7">
      <path d="M 152.58767 318.04 
L 152.58767 36.72 
" clip-path="url(#p437ec2edfe)" style="fill: none; stroke: #b0b0b0; stroke-width: 0.8; stroke-linecap: square"/>
     </g>
     <g id="line2d_8">
      <g>
       <use xlink:href="#mdd32c97930" x="152.58767" y="318.04" style="stroke: #000000; stroke-width: 0.8"/>
      </g>
     </g>
     <g id="text_4">
      <!-- 7.5 -->
      <g transform="translate(144.636108 332.638437) scale(0.1 -0.1)">
       <defs>
        <path id="DejaVuSans-37" d="M 525 4666 
L 3525 4666 
L 3525 4397 
L 1831 0 
L 1172 0 
L 2766 4134 
L 525 4134 
L 525 4666 
z
" transform="scale(0.015625)"/>
       </defs>
       <use xlink:href="#DejaVuSans-37"/>
       <use xlink:href="#DejaVuSans-2e" x="63.623047"/>
       <use xlink:href="#DejaVuSans-35" x="95.410156"/>
      </g>
     </g>
    </g>
    <g id="xtick_5">
     <g id="line2d_9">
      <path d="M 187.395625 318.04 
L 187.395625 36.72 
" clip-path="url(#p437ec2edfe)" style="fill: none; stroke: #b0b0b0; stroke-width: 0.8; stroke-linecap: square"/>
     </g>
     <g id="line2d_10">
      <g>
       <use xlink:href="#mdd32c97930" x="187.395625" y="318.04" style="stroke: #000000; stroke-width: 0.8"/>
      </g>
     </g>
     <g id="text_5">
      <!-- 10.0 -->
      <g transform="translate(176.262812 332.638437) scale(0.1 -0.1)">
       <defs>
        <path id="DejaVuSans-31" d="M 794 531 
L 1825 531 
L 1825 4091 
L 703 3866 
L 703 4441 
L 1819 4666 
L 2450 4666 
L 2450 531 
L 3481 531 
L 3481 0 
L 794 0 
L 794 531 
z
" transform="scale(0.015625)"/>
       </defs>
       <use xlink:href="#DejaVuSans-31"/>
       <use xlink:href="#DejaVuSans-30" x="63.623047"/>
       <use xlink:href="#DejaVuSans-2e" x="127.246094"/>
       <use xlink:href="#DejaVuSans-30" x="159.033203"/>
      </g>
     </g>
    </g>
    <g id="xtick_6">
     <g id="line2d_11">
      <path d="M 222.20358 318.04 
L 222.20358 36.72 
" clip-path="url(#p437ec2edfe)" style="fill: none; stroke: #b0b0b0; stroke-width: 0.8; stroke-linecap: square"/>
     </g>
     <g id="line2d_12">
      <g>
       <use xlink:href="#mdd32c97930" x="222.20358" y="318.04" style="stroke: #000000; stroke-width: 0.8"/>
      </g>
     </g>
     <g id="text_6">
      <!-- 12.5 -->
      <g transform="translate(211.070767 332.638437) scale(0.1 -0.1)">
       <use xlink:href="#DejaVuSans-31"/>
       <use xlink:href="#DejaVuSans-32" x="63.623047"/>
       <use xlink:href="#DejaVuSans-2e" x="127.246094"/>
       <use xlink:href="#DejaVuSans-35" x="159.033203"/>
      </g>
     </g>
    </g>
    <g id="xtick_7">
     <g id="line2d_13">
      <path d="M 257.011534 318.04 
L 257.011534 36.72 
" clip-path="url(#p437ec2edfe)" style="fill: none; stroke: #b0b0b0; stroke-width: 0.8; stroke-linecap: square"/>
     </g>
     <g id="line2d_14">
      <g>
       <use xlink:href="#mdd32c97930" x="257.011534" y="318.04" style="stroke: #000000; stroke-width: 0.8"/>
      </g>
     </g>
     <g id="text_7">
      <!-- 15.0 -->
      <g transform="translate(245.878722 332.638437) scale(0.1 -0.1)">
       <use xlink:href="#DejaVuSans-31"/>
       <use xlink:href="#DejaVuSans-35" x="63.623047"/>
       <use xlink:href="#DejaVuSans-2e" x="127.246094"/>
       <use xlink:href="#DejaVuSans-30" x="159.033203"/>
      </g>
     </g>
    </g>
    <g id="xtick_8">
     <g id="line2d_15">
      <path d="M 291.819489 318.04 
L 291.819489 36.72 
" clip-path="url(#p437ec2edfe)" style="fill: none; stroke: #b0b0b0; stroke-width: 0.8; stroke-linecap: square"/>
     </g>
     <g id="line2d_16">
      <g>
       <use xlink:href="#mdd32c97930" x="291.819489" y="318.04" style="stroke: #000000; stroke-width: 0.8"/>
      </g>
     </g>
     <g id="text_8">
      <!-- 17.5 -->
      <g transform="translate(280.686676 332.638437) scale(0.1 -0.1)">
       <use xlink:href="#DejaVuSans-31"/>
       <use xlink:href="#DejaVuSans-37" x="63.623047"/>
       <use xlink:href="#DejaVuSans-2e" x="127.246094"/>
       <use xlink:href="#DejaVuSans-35" x="159.033203"/>
      </g>
     </g>
    </g>
    <g id="xtick_9">
     <g id="line2d_17">
      <path d="M 326.627443 318.04 
L 326.627443 36.72 
" clip-path="url(#p437ec2edfe)" style="fill: none; stroke: #b0b0b0; stroke-width: 0.8; stroke-linecap: square"/>
     </g>
     <g id="line2d_18">
      <g>
       <use xlink:href="#mdd32c97930" x="326.627443" y="318.04" style="stroke: #000000; stroke-width: 0.8"/>
      </g>
     </g>
     <g id="text_9">
      <!-- 20.0 -->
      <g transform="translate(315.494631 332.638437) scale(0.1 -0.1)">
       <use xlink:href="#DejaVuSans-32"/>
       <use xlink:href="#DejaVuSans-30" x="63.623047"/>
       <use xlink:href="#DejaVuSans-2e" x="127.246094"/>
       <use xlink:href="#DejaVuSans-30" x="159.033203"/>
      </g>
     </g>
    </g>
    <g id="text_10">
     <!-- t -->
     <g transform="translate(185.435469 346.316562) scale(0.1 -0.1)">
      <defs>
       <path id="DejaVuSans-74" d="M 1172 4494 
L 1172 3500 
L 2356 3500 
L 2356 3053 
L 1172 3053 
L 1172 1153 
Q 1172 725 1289 603 
Q 1406 481 1766 481 
L 2356 481 
L 2356 0 
L 1766 0 
Q 1100 0 847 248 
Q 594 497 594 1153 
L 594 3053 
L 172 3053 
L 172 3500 
L 594 3500 
L 594 4494 
L 1172 4494 
z
" transform="scale(0.015625)"/>
      </defs>
      <use xlink:href="#DejaVuSans-74"/>
     </g>
    </g>
   </g>
   <g id="matplotlib.axis_2">
    <g id="ytick_1">
     <g id="line2d_19">
      <path d="M 34.240625 269.43876 
L 340.550625 269.43876 
" clip-path="url(#p437ec2edfe)" style="fill: none; stroke: #b0b0b0; stroke-width: 0.8; stroke-linecap: square"/>
     </g>
     <g id="line2d_20">
      <defs>
       <path id="mccdcb3526a" d="M 0 0 
L -3.5 0 
" style="stroke: #000000; stroke-width: 0.8"/>
      </defs>
      <g>
       <use xlink:href="#mccdcb3526a" x="34.240625" y="269.43876" style="stroke: #000000; stroke-width: 0.8"/>
      </g>
     </g>
     <g id="text_11">
      <!-- 0 -->
      <g transform="translate(20.878125 273.237979) scale(0.1 -0.1)">
       <use xlink:href="#DejaVuSans-30"/>
      </g>
     </g>
    </g>
    <g id="ytick_2">
     <g id="line2d_21">
      <path d="M 34.240625 212.511998 
L 340.550625 212.511998 
" clip-path="url(#p437ec2edfe)" style="fill: none; stroke: #b0b0b0; stroke-width: 0.8; stroke-linecap: square"/>
     </g>
     <g id="line2d_22">
      <g>
       <use xlink:href="#mccdcb3526a" x="34.240625" y="212.511998" style="stroke: #000000; stroke-width: 0.8"/>
      </g>
     </g>
     <g id="text_12">
      <!-- 2 -->
      <g transform="translate(20.878125 216.311217) scale(0.1 -0.1)">
       <use xlink:href="#DejaVuSans-32"/>
      </g>
     </g>
    </g>
    <g id="ytick_3">
     <g id="line2d_23">
      <path d="M 34.240625 155.585235 
L 340.550625 155.585235 
" clip-path="url(#p437ec2edfe)" style="fill: none; stroke: #b0b0b0; stroke-width: 0.8; stroke-linecap: square"/>
     </g>
     <g id="line2d_24">
      <g>
       <use xlink:href="#mccdcb3526a" x="34.240625" y="155.585235" style="stroke: #000000; stroke-width: 0.8"/>
      </g>
     </g>
     <g id="text_13">
      <!-- 4 -->
      <g transform="translate(20.878125 159.384454) scale(0.1 -0.1)">
       <defs>
        <path id="DejaVuSans-34" d="M 2419 4116 
L 825 1625 
L 2419 1625 
L 2419 4116 
z
M 2253 4666 
L 3047 4666 
L 3047 1625 
L 3713 1625 
L 3713 1100 
L 3047 1100 
L 3047 0 
L 2419 0 
L 2419 1100 
L 313 1100 
L 313 1709 
L 2253 4666 
z
" transform="scale(0.015625)"/>
       </defs>
       <use xlink:href="#DejaVuSans-34"/>
      </g>
     </g>
    </g>
    <g id="ytick_4">
     <g id="line2d_25">
      <path d="M 34.240625 98.658473 
L 340.550625 98.658473 
" clip-path="url(#p437ec2edfe)" style="fill: none; stroke: #b0b0b0; stroke-width: 0.8; stroke-linecap: square"/>
     </g>
     <g id="line2d_26">
      <g>
       <use xlink:href="#mccdcb3526a" x="34.240625" y="98.658473" style="stroke: #000000; stroke-width: 0.8"/>
      </g>
     </g>
     <g id="text_14">
      <!-- 6 -->
      <g transform="translate(20.878125 102.457691) scale(0.1 -0.1)">
       <defs>
        <path id="DejaVuSans-36" d="M 2113 2584 
Q 1688 2584 1439 2293 
Q 1191 2003 1191 1497 
Q 1191 994 1439 701 
Q 1688 409 2113 409 
Q 2538 409 2786 701 
Q 3034 994 3034 1497 
Q 3034 2003 2786 2293 
Q 2538 2584 2113 2584 
z
M 3366 4563 
L 3366 3988 
Q 3128 4100 2886 4159 
Q 2644 4219 2406 4219 
Q 1781 4219 1451 3797 
Q 1122 3375 1075 2522 
Q 1259 2794 1537 2939 
Q 1816 3084 2150 3084 
Q 2853 3084 3261 2657 
Q 3669 2231 3669 1497 
Q 3669 778 3244 343 
Q 2819 -91 2113 -91 
Q 1303 -91 875 529 
Q 447 1150 447 2328 
Q 447 3434 972 4092 
Q 1497 4750 2381 4750 
Q 2619 4750 2861 4703 
Q 3103 4656 3366 4563 
z
" transform="scale(0.015625)"/>
       </defs>
       <use xlink:href="#DejaVuSans-36"/>
      </g>
     </g>
    </g>
    <g id="ytick_5">
     <g id="line2d_27">
      <path d="M 34.240625 41.73171 
L 340.550625 41.73171 
" clip-path="url(#p437ec2edfe)" style="fill: none; stroke: #b0b0b0; stroke-width: 0.8; stroke-linecap: square"/>
     </g>
     <g id="line2d_28">
      <g>
       <use xlink:href="#mccdcb3526a" x="34.240625" y="41.73171" style="stroke: #000000; stroke-width: 0.8"/>
      </g>
     </g>
     <g id="text_15">
      <!-- 8 -->
      <g transform="translate(20.878125 45.530929) scale(0.1 -0.1)">
       <defs>
        <path id="DejaVuSans-38" d="M 2034 2216 
Q 1584 2216 1326 1975 
Q 1069 1734 1069 1313 
Q 1069 891 1326 650 
Q 1584 409 2034 409 
Q 2484 409 2743 651 
Q 3003 894 3003 1313 
Q 3003 1734 2745 1975 
Q 2488 2216 2034 2216 
z
M 1403 2484 
Q 997 2584 770 2862 
Q 544 3141 544 3541 
Q 544 4100 942 4425 
Q 1341 4750 2034 4750 
Q 2731 4750 3128 4425 
Q 3525 4100 3525 3541 
Q 3525 3141 3298 2862 
Q 3072 2584 2669 2484 
Q 3125 2378 3379 2068 
Q 3634 1759 3634 1313 
Q 3634 634 3220 271 
Q 2806 -91 2034 -91 
Q 1263 -91 848 271 
Q 434 634 434 1313 
Q 434 1759 690 2068 
Q 947 2378 1403 2484 
z
M 1172 3481 
Q 1172 3119 1398 2916 
Q 1625 2713 2034 2713 
Q 2441 2713 2670 2916 
Q 2900 3119 2900 3481 
Q 2900 3844 2670 4047 
Q 2441 4250 2034 4250 
Q 1625 4250 1398 4047 
Q 1172 3844 1172 3481 
z
" transform="scale(0.015625)"/>
       </defs>
       <use xlink:href="#DejaVuSans-38"/>
      </g>
     </g>
    </g>
    <g id="text_16">
     <!-- x(t) -->
     <g transform="translate(14.798438 186.201094) rotate(-90) scale(0.1 -0.1)">
      <defs>
       <path id="DejaVuSans-78" d="M 3513 3500 
L 2247 1797 
L 3578 0 
L 2900 0 
L 1881 1375 
L 863 0 
L 184 0 
L 1544 1831 
L 300 3500 
L 978 3500 
L 1906 2253 
L 2834 3500 
L 3513 3500 
z
" transform="scale(0.015625)"/>
       <path id="DejaVuSans-28" d="M 1984 4856 
Q 1566 4138 1362 3434 
Q 1159 2731 1159 2009 
Q 1159 1288 1364 580 
Q 1569 -128 1984 -844 
L 1484 -844 
Q 1016 -109 783 600 
Q 550 1309 550 2009 
Q 550 2706 781 3412 
Q 1013 4119 1484 4856 
L 1984 4856 
z
" transform="scale(0.015625)"/>
       <path id="DejaVuSans-29" d="M 513 4856 
L 1013 4856 
Q 1481 4119 1714 3412 
Q 1947 2706 1947 2009 
Q 1947 1309 1714 600 
Q 1481 -109 1013 -844 
L 513 -844 
Q 928 -128 1133 580 
Q 1338 1288 1338 2009 
Q 1338 2731 1133 3434 
Q 928 4138 513 4856 
z
" transform="scale(0.015625)"/>
      </defs>
      <use xlink:href="#DejaVuSans-78"/>
      <use xlink:href="#DejaVuSans-28" x="59.179688"/>
      <use xlink:href="#DejaVuSans-74" x="98.193359"/>
      <use xlink:href="#DejaVuSans-29" x="137.402344"/>
     </g>
    </g>
   </g>
   <g id="line2d_29">
    <path d="M 48.163807 269.43876 
L 61.543441 269.329569 
L 66.839546 269.058602 
L 71.578167 268.589418 
L 76.038045 267.920191 
L 81.055408 266.926325 
L 94.713784 264.027338 
L 97.77995 263.679608 
L 100.567374 263.575313 
L 103.076055 263.691875 
L 105.584737 264.036282 
L 107.814676 264.550537 
L 110.044615 265.270177 
L 112.553296 266.328667 
L 115.061978 267.644678 
L 117.849402 269.387413 
L 120.915568 271.597587 
L 124.539219 274.50281 
L 135.410171 283.435867 
L 138.197595 285.311427 
L 140.427534 286.558497 
L 142.378731 287.425046 
L 144.329927 288.051517 
L 146.002382 288.377393 
L 147.674836 288.492845 
L 149.34729 288.385286 
L 151.019745 288.044843 
L 152.692199 287.465005 
L 154.364653 286.642894 
L 156.037107 285.579446 
L 157.988304 284.040467 
L 159.939501 282.194454 
L 162.16944 279.737392 
L 164.678121 276.584394 
L 167.465545 272.694189 
L 171.367938 266.813329 
L 178.336498 256.233746 
L 181.123921 252.405791 
L 183.632603 249.340716 
L 185.5838 247.271162 
L 187.534996 245.52338 
L 189.20745 244.310719 
L 190.879905 243.384537 
L 192.273617 242.845342 
L 193.667329 242.527751 
L 195.06104 242.439642 
L 196.454752 242.587197 
L 197.848464 242.974399 
L 199.242176 243.602633 
L 200.635888 244.47061 
L 202.0296 245.574331 
L 203.702054 247.20033 
L 205.374508 249.139278 
L 207.325705 251.767087 
L 209.555644 255.197778 
L 212.064326 259.50571 
L 215.409234 265.761217 
L 224.32899 282.745301 
L 226.837672 286.949491 
L 229.067611 290.271712 
L 231.018807 292.79081 
L 232.691262 294.622279 
L 234.363716 296.121736 
L 235.757428 297.09996 
L 237.15114 297.818454 
L 238.544851 298.26694 
L 239.938563 298.437135 
L 241.053533 298.368701 
L 242.168502 298.116186 
L 243.562214 297.540786 
L 244.955926 296.678487 
L 246.349638 295.534297 
L 247.74335 294.116542 
L 249.415804 292.070683 
L 251.088259 289.673816 
L 253.039455 286.477313 
L 255.269394 282.372533 
L 258.056818 276.72292 
L 262.516696 267.050737 
L 267.255317 256.904871 
L 270.04274 251.449885 
L 272.272679 247.538805 
L 274.223876 244.531015 
L 275.89633 242.308197 
L 277.568785 240.448787 
L 278.962496 239.198324 
L 280.356208 238.235704 
L 281.74992 237.573656 
L 282.86489 237.267538 
L 283.979859 237.16479 
L 285.094829 237.268647 
L 286.209798 237.58106 
L 287.324768 238.102439 
L 288.439737 238.831616 
L 289.833449 240.030972 
L 291.227161 241.541795 
L 292.620873 243.35149 
L 294.293327 245.894472 
L 296.244524 249.328547 
L 298.474463 253.786253 
L 300.983144 259.338182 
L 304.606795 267.981277 
L 311.01787 283.376755 
L 313.805294 289.451943 
L 316.035233 293.807057 
L 317.986429 297.156317 
L 319.658884 299.63176 
L 321.331338 301.702997 
L 322.72505 303.096515 
L 324.118762 304.170055 
L 325.233731 304.788953 
L 326.348701 305.187947 
L 326.627443 305.252727 
L 326.627443 305.252727 
" clip-path="url(#p437ec2edfe)" style="fill: none; stroke: #0000ff; stroke-width: 1.5; stroke-linecap: square"/>
   </g>
   <g id="line2d_30">
    <path d="M 48.163807 269.43876 
L 59.313502 271.144163 
L 65.167092 271.821068 
L 70.184455 272.185412 
L 74.644333 272.290527 
L 78.825468 272.164423 
L 82.727862 271.821978 
L 86.351513 271.288329 
L 89.975164 270.53011 
L 93.598815 269.536087 
L 97.222465 268.305394 
L 101.124859 266.736525 
L 106.142222 264.451149 
L 113.389523 261.134025 
L 116.734432 259.864177 
L 119.521856 259.043507 
L 122.030537 258.534291 
L 124.539219 258.269827 
L 126.769158 258.253271 
L 128.999097 258.447228 
L 131.229036 258.850474 
L 133.737717 259.546691 
L 136.246399 260.486282 
L 138.75508 261.652023 
L 141.542504 263.190301 
L 144.60867 265.150578 
L 147.953578 267.578677 
L 151.298487 270.279257 
L 155.20088 273.724738 
L 166.90806 284.344272 
L 169.137999 285.938191 
L 171.089196 287.090634 
L 173.040392 287.98046 
L 174.712847 288.514171 
L 176.385301 288.824951 
L 178.057755 288.907985 
L 179.73021 288.765021 
L 181.402664 288.404711 
L 183.353861 287.730186 
L 185.305057 286.813233 
L 187.534996 285.51553 
L 190.043678 283.797477 
L 192.831101 281.626217 
L 195.897268 278.942428 
L 198.684691 276.199947 
L 201.193373 273.424788 
L 203.702054 270.303356 
L 206.489478 266.426666 
L 214.851749 254.350899 
L 216.802946 252.072414 
L 218.4754 250.40959 
L 220.147855 249.035719 
L 221.820309 247.961145 
L 223.214021 247.298768 
L 224.607733 246.851678 
L 226.001444 246.623464 
L 227.395156 246.617941 
L 228.788868 246.838169 
L 230.18258 247.284947 
L 231.576292 247.955179 
L 233.248746 249.042479 
L 234.921201 250.41507 
L 236.872397 252.332256 
L 239.102336 254.866894 
L 241.611018 258.060178 
L 244.677184 262.347066 
L 247.74335 267.012454 
L 250.809516 272.067271 
L 254.990652 279.454237 
L 258.614303 285.739388 
L 260.844242 289.176953 
L 262.795438 291.760749 
L 264.467893 293.607897 
L 265.861605 294.866811 
L 267.255317 295.854168 
L 268.649028 296.549221 
L 269.763998 296.875766 
L 270.878967 296.97866 
L 271.993937 296.838277 
L 273.108906 296.437446 
L 274.223876 295.766757 
L 275.338845 294.829928 
L 276.732557 293.316455 
L 278.405012 291.09399 
L 280.634951 287.684173 
L 283.979859 282.110099 
L 287.046025 276.622268 
L 289.554707 271.675747 
L 292.342131 265.615396 
L 297.080751 255.214315 
L 299.031948 251.475813 
L 300.983144 248.22159 
L 302.934341 245.450621 
L 304.885538 243.102604 
L 307.115477 240.816382 
L 310.181643 238.056771 
L 312.690324 235.728171 
L 314.084036 234.14645 
L 315.199006 232.510228 
L 316.035233 230.867064 
L 316.592718 229.425595 
L 317.150202 227.518061 
L 317.707687 224.797979 
L 318.265172 220.412241 
L 318.543914 216.875185 
L 318.822657 211.244347 
L 319.101399 199.78433 
L 319.380141 140.972616 
L 319.658884 52.918823 
L 319.937626 50.001713 
L 320.216368 49.581575 
L 320.773853 49.508971 
L 326.627443 49.507273 
L 326.627443 49.507273 
" clip-path="url(#p437ec2edfe)" style="fill: none; stroke-dasharray: 5.55,2.4; stroke-dashoffset: 0; stroke: #ff0000; stroke-width: 1.5"/>
   </g>
   <g id="patch_3">
    <path d="M 34.240625 318.04 
L 34.240625 36.72 
" style="fill: none; stroke: #000000; stroke-width: 0.8; stroke-linejoin: miter; stroke-linecap: square"/>
   </g>
   <g id="patch_4">
    <path d="M 340.550625 318.04 
L 340.550625 36.72 
" style="fill: none; stroke: #000000; stroke-width: 0.8; stroke-linejoin: miter; stroke-linecap: square"/>
   </g>
   <g id="patch_5">
    <path d="M 34.240625 318.04 
L 340.550625 318.04 
" style="fill: none; stroke: #000000; stroke-width: 0.8; stroke-linejoin: miter; stroke-linecap: square"/>
   </g>
   <g id="patch_6">
    <path d="M 34.240625 36.72 
L 340.550625 36.72 
" style="fill: none; stroke: #000000; stroke-width: 0.8; stroke-linejoin: miter; stroke-linecap: square"/>
   </g>
   <g id="legend_1">
    <g id="patch_7">
     <path d="M 41.240625 74.07625 
L 99.832812 74.07625 
Q 101.832812 74.07625 101.832812 72.07625 
L 101.832812 43.72 
Q 101.832812 41.72 99.832812 41.72 
L 41.240625 41.72 
Q 39.240625 41.72 39.240625 43.72 
L 39.240625 72.07625 
Q 39.240625 74.07625 41.240625 74.07625 
z
" style="fill: #ffffff; opacity: 0.8; stroke: #cccccc; stroke-linejoin: miter"/>
    </g>
    <g id="line2d_31">
     <path d="M 43.240625 49.818437 
L 53.240625 49.818437 
L 63.240625 49.818437 
" style="fill: none; stroke: #0000ff; stroke-width: 1.5; stroke-linecap: square"/>
    </g>
    <g id="text_17">
     <!-- data -->
     <g transform="translate(71.240625 53.318437) scale(0.1 -0.1)">
      <defs>
       <path id="DejaVuSans-64" d="M 2906 2969 
L 2906 4863 
L 3481 4863 
L 3481 0 
L 2906 0 
L 2906 525 
Q 2725 213 2448 61 
Q 2172 -91 1784 -91 
Q 1150 -91 751 415 
Q 353 922 353 1747 
Q 353 2572 751 3078 
Q 1150 3584 1784 3584 
Q 2172 3584 2448 3432 
Q 2725 3281 2906 2969 
z
M 947 1747 
Q 947 1113 1208 752 
Q 1469 391 1925 391 
Q 2381 391 2643 752 
Q 2906 1113 2906 1747 
Q 2906 2381 2643 2742 
Q 2381 3103 1925 3103 
Q 1469 3103 1208 2742 
Q 947 2381 947 1747 
z
" transform="scale(0.015625)"/>
       <path id="DejaVuSans-61" d="M 2194 1759 
Q 1497 1759 1228 1600 
Q 959 1441 959 1056 
Q 959 750 1161 570 
Q 1363 391 1709 391 
Q 2188 391 2477 730 
Q 2766 1069 2766 1631 
L 2766 1759 
L 2194 1759 
z
M 3341 1997 
L 3341 0 
L 2766 0 
L 2766 531 
Q 2569 213 2275 61 
Q 1981 -91 1556 -91 
Q 1019 -91 701 211 
Q 384 513 384 1019 
Q 384 1609 779 1909 
Q 1175 2209 1959 2209 
L 2766 2209 
L 2766 2266 
Q 2766 2663 2505 2880 
Q 2244 3097 1772 3097 
Q 1472 3097 1187 3025 
Q 903 2953 641 2809 
L 641 3341 
Q 956 3463 1253 3523 
Q 1550 3584 1831 3584 
Q 2591 3584 2966 3190 
Q 3341 2797 3341 1997 
z
" transform="scale(0.015625)"/>
      </defs>
      <use xlink:href="#DejaVuSans-64"/>
      <use xlink:href="#DejaVuSans-61" x="63.476562"/>
      <use xlink:href="#DejaVuSans-74" x="124.755859"/>
      <use xlink:href="#DejaVuSans-61" x="163.964844"/>
     </g>
    </g>
    <g id="line2d_32">
     <path d="M 43.240625 64.496562 
L 53.240625 64.496562 
L 63.240625 64.496562 
" style="fill: none; stroke-dasharray: 5.55,2.4; stroke-dashoffset: 0; stroke: #ff0000; stroke-width: 1.5"/>
    </g>
    <g id="text_18">
     <!-- sindy -->
     <g transform="translate(71.240625 67.996562) scale(0.1 -0.1)">
      <defs>
       <path id="DejaVuSans-73" d="M 2834 3397 
L 2834 2853 
Q 2591 2978 2328 3040 
Q 2066 3103 1784 3103 
Q 1356 3103 1142 2972 
Q 928 2841 928 2578 
Q 928 2378 1081 2264 
Q 1234 2150 1697 2047 
L 1894 2003 
Q 2506 1872 2764 1633 
Q 3022 1394 3022 966 
Q 3022 478 2636 193 
Q 2250 -91 1575 -91 
Q 1294 -91 989 -36 
Q 684 19 347 128 
L 347 722 
Q 666 556 975 473 
Q 1284 391 1588 391 
Q 1994 391 2212 530 
Q 2431 669 2431 922 
Q 2431 1156 2273 1281 
Q 2116 1406 1581 1522 
L 1381 1569 
Q 847 1681 609 1914 
Q 372 2147 372 2553 
Q 372 3047 722 3315 
Q 1072 3584 1716 3584 
Q 2034 3584 2315 3537 
Q 2597 3491 2834 3397 
z
" transform="scale(0.015625)"/>
       <path id="DejaVuSans-69" d="M 603 3500 
L 1178 3500 
L 1178 0 
L 603 0 
L 603 3500 
z
M 603 4863 
L 1178 4863 
L 1178 4134 
L 603 4134 
L 603 4863 
z
" transform="scale(0.015625)"/>
       <path id="DejaVuSans-6e" d="M 3513 2113 
L 3513 0 
L 2938 0 
L 2938 2094 
Q 2938 2591 2744 2837 
Q 2550 3084 2163 3084 
Q 1697 3084 1428 2787 
Q 1159 2491 1159 1978 
L 1159 0 
L 581 0 
L 581 3500 
L 1159 3500 
L 1159 2956 
Q 1366 3272 1645 3428 
Q 1925 3584 2291 3584 
Q 2894 3584 3203 3211 
Q 3513 2838 3513 2113 
z
" transform="scale(0.015625)"/>
       <path id="DejaVuSans-79" d="M 2059 -325 
Q 1816 -950 1584 -1140 
Q 1353 -1331 966 -1331 
L 506 -1331 
L 506 -850 
L 844 -850 
Q 1081 -850 1212 -737 
Q 1344 -625 1503 -206 
L 1606 56 
L 191 3500 
L 800 3500 
L 1894 763 
L 2988 3500 
L 3597 3500 
L 2059 -325 
z
" transform="scale(0.015625)"/>
      </defs>
      <use xlink:href="#DejaVuSans-73"/>
      <use xlink:href="#DejaVuSans-69" x="52.099609"/>
      <use xlink:href="#DejaVuSans-6e" x="79.882812"/>
      <use xlink:href="#DejaVuSans-64" x="143.261719"/>
      <use xlink:href="#DejaVuSans-79" x="206.738281"/>
     </g>
    </g>
   </g>
  </g>
  <g id="axes_2">
   <g id="patch_8">
    <path d="M 396.550625 318.04 
L 702.860625 318.04 
L 702.860625 36.72 
L 396.550625 36.72 
z
" style="fill: #ffffff"/>
   </g>
   <g id="matplotlib.axis_3">
    <g id="xtick_10">
     <g id="line2d_33">
      <path d="M 410.473807 318.04 
L 410.473807 36.72 
" clip-path="url(#pa0a54a317d)" style="fill: none; stroke: #b0b0b0; stroke-width: 0.8; stroke-linecap: square"/>
     </g>
     <g id="line2d_34">
      <g>
       <use xlink:href="#mdd32c97930" x="410.473807" y="318.04" style="stroke: #000000; stroke-width: 0.8"/>
      </g>
     </g>
     <g id="text_19">
      <!-- 0.0 -->
      <g transform="translate(402.522244 332.638437) scale(0.1 -0.1)">
       <use xlink:href="#DejaVuSans-30"/>
       <use xlink:href="#DejaVuSans-2e" x="63.623047"/>
       <use xlink:href="#DejaVuSans-30" x="95.410156"/>
      </g>
     </g>
    </g>
    <g id="xtick_11">
     <g id="line2d_35">
      <path d="M 445.281761 318.04 
L 445.281761 36.72 
" clip-path="url(#pa0a54a317d)" style="fill: none; stroke: #b0b0b0; stroke-width: 0.8; stroke-linecap: square"/>
     </g>
     <g id="line2d_36">
      <g>
       <use xlink:href="#mdd32c97930" x="445.281761" y="318.04" style="stroke: #000000; stroke-width: 0.8"/>
      </g>
     </g>
     <g id="text_20">
      <!-- 2.5 -->
      <g transform="translate(437.330199 332.638437) scale(0.1 -0.1)">
       <use xlink:href="#DejaVuSans-32"/>
       <use xlink:href="#DejaVuSans-2e" x="63.623047"/>
       <use xlink:href="#DejaVuSans-35" x="95.410156"/>
      </g>
     </g>
    </g>
    <g id="xtick_12">
     <g id="line2d_37">
      <path d="M 480.089716 318.04 
L 480.089716 36.72 
" clip-path="url(#pa0a54a317d)" style="fill: none; stroke: #b0b0b0; stroke-width: 0.8; stroke-linecap: square"/>
     </g>
     <g id="line2d_38">
      <g>
       <use xlink:href="#mdd32c97930" x="480.089716" y="318.04" style="stroke: #000000; stroke-width: 0.8"/>
      </g>
     </g>
     <g id="text_21">
      <!-- 5.0 -->
      <g transform="translate(472.138153 332.638437) scale(0.1 -0.1)">
       <use xlink:href="#DejaVuSans-35"/>
       <use xlink:href="#DejaVuSans-2e" x="63.623047"/>
       <use xlink:href="#DejaVuSans-30" x="95.410156"/>
      </g>
     </g>
    </g>
    <g id="xtick_13">
     <g id="line2d_39">
      <path d="M 514.89767 318.04 
L 514.89767 36.72 
" clip-path="url(#pa0a54a317d)" style="fill: none; stroke: #b0b0b0; stroke-width: 0.8; stroke-linecap: square"/>
     </g>
     <g id="line2d_40">
      <g>
       <use xlink:href="#mdd32c97930" x="514.89767" y="318.04" style="stroke: #000000; stroke-width: 0.8"/>
      </g>
     </g>
     <g id="text_22">
      <!-- 7.5 -->
      <g transform="translate(506.946108 332.638437) scale(0.1 -0.1)">
       <use xlink:href="#DejaVuSans-37"/>
       <use xlink:href="#DejaVuSans-2e" x="63.623047"/>
       <use xlink:href="#DejaVuSans-35" x="95.410156"/>
      </g>
     </g>
    </g>
    <g id="xtick_14">
     <g id="line2d_41">
      <path d="M 549.705625 318.04 
L 549.705625 36.72 
" clip-path="url(#pa0a54a317d)" style="fill: none; stroke: #b0b0b0; stroke-width: 0.8; stroke-linecap: square"/>
     </g>
     <g id="line2d_42">
      <g>
       <use xlink:href="#mdd32c97930" x="549.705625" y="318.04" style="stroke: #000000; stroke-width: 0.8"/>
      </g>
     </g>
     <g id="text_23">
      <!-- 10.0 -->
      <g transform="translate(538.572812 332.638437) scale(0.1 -0.1)">
       <use xlink:href="#DejaVuSans-31"/>
       <use xlink:href="#DejaVuSans-30" x="63.623047"/>
       <use xlink:href="#DejaVuSans-2e" x="127.246094"/>
       <use xlink:href="#DejaVuSans-30" x="159.033203"/>
      </g>
     </g>
    </g>
    <g id="xtick_15">
     <g id="line2d_43">
      <path d="M 584.51358 318.04 
L 584.51358 36.72 
" clip-path="url(#pa0a54a317d)" style="fill: none; stroke: #b0b0b0; stroke-width: 0.8; stroke-linecap: square"/>
     </g>
     <g id="line2d_44">
      <g>
       <use xlink:href="#mdd32c97930" x="584.51358" y="318.04" style="stroke: #000000; stroke-width: 0.8"/>
      </g>
     </g>
     <g id="text_24">
      <!-- 12.5 -->
      <g transform="translate(573.380767 332.638437) scale(0.1 -0.1)">
       <use xlink:href="#DejaVuSans-31"/>
       <use xlink:href="#DejaVuSans-32" x="63.623047"/>
       <use xlink:href="#DejaVuSans-2e" x="127.246094"/>
       <use xlink:href="#DejaVuSans-35" x="159.033203"/>
      </g>
     </g>
    </g>
    <g id="xtick_16">
     <g id="line2d_45">
      <path d="M 619.321534 318.04 
L 619.321534 36.72 
" clip-path="url(#pa0a54a317d)" style="fill: none; stroke: #b0b0b0; stroke-width: 0.8; stroke-linecap: square"/>
     </g>
     <g id="line2d_46">
      <g>
       <use xlink:href="#mdd32c97930" x="619.321534" y="318.04" style="stroke: #000000; stroke-width: 0.8"/>
      </g>
     </g>
     <g id="text_25">
      <!-- 15.0 -->
      <g transform="translate(608.188722 332.638437) scale(0.1 -0.1)">
       <use xlink:href="#DejaVuSans-31"/>
       <use xlink:href="#DejaVuSans-35" x="63.623047"/>
       <use xlink:href="#DejaVuSans-2e" x="127.246094"/>
       <use xlink:href="#DejaVuSans-30" x="159.033203"/>
      </g>
     </g>
    </g>
    <g id="xtick_17">
     <g id="line2d_47">
      <path d="M 654.129489 318.04 
L 654.129489 36.72 
" clip-path="url(#pa0a54a317d)" style="fill: none; stroke: #b0b0b0; stroke-width: 0.8; stroke-linecap: square"/>
     </g>
     <g id="line2d_48">
      <g>
       <use xlink:href="#mdd32c97930" x="654.129489" y="318.04" style="stroke: #000000; stroke-width: 0.8"/>
      </g>
     </g>
     <g id="text_26">
      <!-- 17.5 -->
      <g transform="translate(642.996676 332.638437) scale(0.1 -0.1)">
       <use xlink:href="#DejaVuSans-31"/>
       <use xlink:href="#DejaVuSans-37" x="63.623047"/>
       <use xlink:href="#DejaVuSans-2e" x="127.246094"/>
       <use xlink:href="#DejaVuSans-35" x="159.033203"/>
      </g>
     </g>
    </g>
    <g id="xtick_18">
     <g id="line2d_49">
      <path d="M 688.937443 318.04 
L 688.937443 36.72 
" clip-path="url(#pa0a54a317d)" style="fill: none; stroke: #b0b0b0; stroke-width: 0.8; stroke-linecap: square"/>
     </g>
     <g id="line2d_50">
      <g>
       <use xlink:href="#mdd32c97930" x="688.937443" y="318.04" style="stroke: #000000; stroke-width: 0.8"/>
      </g>
     </g>
     <g id="text_27">
      <!-- 20.0 -->
      <g transform="translate(677.804631 332.638437) scale(0.1 -0.1)">
       <use xlink:href="#DejaVuSans-32"/>
       <use xlink:href="#DejaVuSans-30" x="63.623047"/>
       <use xlink:href="#DejaVuSans-2e" x="127.246094"/>
       <use xlink:href="#DejaVuSans-30" x="159.033203"/>
      </g>
     </g>
    </g>
    <g id="text_28">
     <!-- t -->
     <g transform="translate(547.745469 346.316562) scale(0.1 -0.1)">
      <use xlink:href="#DejaVuSans-74"/>
     </g>
    </g>
   </g>
   <g id="matplotlib.axis_4">
    <g id="ytick_6">
     <g id="line2d_51">
      <path d="M 396.550625 315.674356 
L 702.860625 315.674356 
" clip-path="url(#pa0a54a317d)" style="fill: none; stroke: #b0b0b0; stroke-width: 0.8; stroke-linecap: square"/>
     </g>
     <g id="line2d_52">
      <g>
       <use xlink:href="#mccdcb3526a" x="396.550625" y="315.674356" style="stroke: #000000; stroke-width: 0.8"/>
      </g>
     </g>
     <g id="text_29">
      <!-- −0.5 -->
      <g transform="translate(365.267812 319.473574) scale(0.1 -0.1)">
       <defs>
        <path id="DejaVuSans-2212" d="M 678 2272 
L 4684 2272 
L 4684 1741 
L 678 1741 
L 678 2272 
z
" transform="scale(0.015625)"/>
       </defs>
       <use xlink:href="#DejaVuSans-2212"/>
       <use xlink:href="#DejaVuSans-30" x="83.789062"/>
       <use xlink:href="#DejaVuSans-2e" x="147.412109"/>
       <use xlink:href="#DejaVuSans-35" x="179.199219"/>
      </g>
     </g>
    </g>
    <g id="ytick_7">
     <g id="line2d_53">
      <path d="M 396.550625 261.102062 
L 702.860625 261.102062 
" clip-path="url(#pa0a54a317d)" style="fill: none; stroke: #b0b0b0; stroke-width: 0.8; stroke-linecap: square"/>
     </g>
     <g id="line2d_54">
      <g>
       <use xlink:href="#mccdcb3526a" x="396.550625" y="261.102062" style="stroke: #000000; stroke-width: 0.8"/>
      </g>
     </g>
     <g id="text_30">
      <!-- 0.0 -->
      <g transform="translate(373.6475 264.901281) scale(0.1 -0.1)">
       <use xlink:href="#DejaVuSans-30"/>
       <use xlink:href="#DejaVuSans-2e" x="63.623047"/>
       <use xlink:href="#DejaVuSans-30" x="95.410156"/>
      </g>
     </g>
    </g>
    <g id="ytick_8">
     <g id="line2d_55">
      <path d="M 396.550625 206.529768 
L 702.860625 206.529768 
" clip-path="url(#pa0a54a317d)" style="fill: none; stroke: #b0b0b0; stroke-width: 0.8; stroke-linecap: square"/>
     </g>
     <g id="line2d_56">
      <g>
       <use xlink:href="#mccdcb3526a" x="396.550625" y="206.529768" style="stroke: #000000; stroke-width: 0.8"/>
      </g>
     </g>
     <g id="text_31">
      <!-- 0.5 -->
      <g transform="translate(373.6475 210.328987) scale(0.1 -0.1)">
       <use xlink:href="#DejaVuSans-30"/>
       <use xlink:href="#DejaVuSans-2e" x="63.623047"/>
       <use xlink:href="#DejaVuSans-35" x="95.410156"/>
      </g>
     </g>
    </g>
    <g id="ytick_9">
     <g id="line2d_57">
      <path d="M 396.550625 151.957475 
L 702.860625 151.957475 
" clip-path="url(#pa0a54a317d)" style="fill: none; stroke: #b0b0b0; stroke-width: 0.8; stroke-linecap: square"/>
     </g>
     <g id="line2d_58">
      <g>
       <use xlink:href="#mccdcb3526a" x="396.550625" y="151.957475" style="stroke: #000000; stroke-width: 0.8"/>
      </g>
     </g>
     <g id="text_32">
      <!-- 1.0 -->
      <g transform="translate(373.6475 155.756693) scale(0.1 -0.1)">
       <use xlink:href="#DejaVuSans-31"/>
       <use xlink:href="#DejaVuSans-2e" x="63.623047"/>
       <use xlink:href="#DejaVuSans-30" x="95.410156"/>
      </g>
     </g>
    </g>
    <g id="ytick_10">
     <g id="line2d_59">
      <path d="M 396.550625 97.385181 
L 702.860625 97.385181 
" clip-path="url(#pa0a54a317d)" style="fill: none; stroke: #b0b0b0; stroke-width: 0.8; stroke-linecap: square"/>
     </g>
     <g id="line2d_60">
      <g>
       <use xlink:href="#mccdcb3526a" x="396.550625" y="97.385181" style="stroke: #000000; stroke-width: 0.8"/>
      </g>
     </g>
     <g id="text_33">
      <!-- 1.5 -->
      <g transform="translate(373.6475 101.1844) scale(0.1 -0.1)">
       <use xlink:href="#DejaVuSans-31"/>
       <use xlink:href="#DejaVuSans-2e" x="63.623047"/>
       <use xlink:href="#DejaVuSans-35" x="95.410156"/>
      </g>
     </g>
    </g>
    <g id="ytick_11">
     <g id="line2d_61">
      <path d="M 396.550625 42.812887 
L 702.860625 42.812887 
" clip-path="url(#pa0a54a317d)" style="fill: none; stroke: #b0b0b0; stroke-width: 0.8; stroke-linecap: square"/>
     </g>
     <g id="line2d_62">
      <g>
       <use xlink:href="#mccdcb3526a" x="396.550625" y="42.812887" style="stroke: #000000; stroke-width: 0.8"/>
      </g>
     </g>
     <g id="text_34">
      <!-- 2.0 -->
      <g transform="translate(373.6475 46.612106) scale(0.1 -0.1)">
       <use xlink:href="#DejaVuSans-32"/>
       <use xlink:href="#DejaVuSans-2e" x="63.623047"/>
       <use xlink:href="#DejaVuSans-30" x="95.410156"/>
      </g>
     </g>
    </g>
    <g id="text_35">
     <!-- Fr(t) -->
     <g transform="translate(359.188125 187.810469) rotate(-90) scale(0.1 -0.1)">
      <defs>
       <path id="DejaVuSans-46" d="M 628 4666 
L 3309 4666 
L 3309 4134 
L 1259 4134 
L 1259 2759 
L 3109 2759 
L 3109 2228 
L 1259 2228 
L 1259 0 
L 628 0 
L 628 4666 
z
" transform="scale(0.015625)"/>
       <path id="DejaVuSans-72" d="M 2631 2963 
Q 2534 3019 2420 3045 
Q 2306 3072 2169 3072 
Q 1681 3072 1420 2755 
Q 1159 2438 1159 1844 
L 1159 0 
L 581 0 
L 581 3500 
L 1159 3500 
L 1159 2956 
Q 1341 3275 1631 3429 
Q 1922 3584 2338 3584 
Q 2397 3584 2469 3576 
Q 2541 3569 2628 3553 
L 2631 2963 
z
" transform="scale(0.015625)"/>
      </defs>
      <use xlink:href="#DejaVuSans-46"/>
      <use xlink:href="#DejaVuSans-72" x="50.269531"/>
      <use xlink:href="#DejaVuSans-28" x="91.382812"/>
      <use xlink:href="#DejaVuSans-74" x="130.396484"/>
      <use xlink:href="#DejaVuSans-29" x="169.605469"/>
     </g>
    </g>
   </g>
   <g id="line2d_63">
    <path d="M 410.473807 261.102062 
L 421.623502 260.99827 
L 426.08338 260.728147 
L 429.707031 260.296825 
L 433.051939 259.685012 
L 436.396848 258.851386 
L 440.020499 257.712325 
L 444.480377 256.057413 
L 453.400133 252.673709 
L 456.466299 251.778971 
L 458.974981 251.254339 
L 461.20492 250.987395 
L 463.434859 250.946233 
L 465.386055 251.155291 
L 467.05851 251.544228 
L 468.730964 252.140062 
L 470.403418 252.952288 
L 472.075873 253.987024 
L 474.027069 255.478424 
L 475.978266 257.272673 
L 477.929462 259.358766 
L 480.159402 262.066505 
L 484.340537 267.561206 
L 489.636642 274.460524 
L 492.702809 278.078536 
L 495.21149 280.714543 
L 497.441429 282.7695 
L 499.671368 284.528071 
L 501.622565 285.810076 
L 503.573761 286.843005 
L 505.524958 287.618736 
L 507.476155 288.128515 
L 509.148609 288.345706 
L 510.542321 288.355201 
L 511.65729 288.169153 
L 512.77226 287.784525 
L 513.887229 287.197277 
L 515.280941 286.174315 
L 516.674653 284.828498 
L 518.068365 283.161222 
L 519.462077 281.177528 
L 521.134531 278.392002 
L 522.806985 275.185798 
L 524.758182 270.953703 
L 526.988121 265.54353 
L 533.956681 247.901127 
L 536.18662 243.167304 
L 538.137816 239.501054 
L 540.089013 236.282815 
L 542.04021 233.500767 
L 543.991406 231.133793 
L 545.942603 229.156104 
L 547.615057 227.750441 
L 549.287511 226.59516 
L 550.959966 225.676312 
L 552.63242 224.982669 
L 554.304874 224.506323 
L 555.977329 224.243205 
L 557.649783 224.20924 
L 558.764752 224.472024 
L 559.879722 225.028965 
L 560.994691 225.881686 
L 562.109661 227.029716 
L 563.22463 228.470463 
L 564.618342 230.675622 
L 566.012054 233.316695 
L 567.684508 237.034203 
L 569.356963 241.309271 
L 571.308159 246.931083 
L 573.538098 254.069392 
L 579.391688 273.454509 
L 581.342885 278.74847 
L 583.294082 283.338442 
L 584.966536 286.735293 
L 586.63899 289.668657 
L 588.311444 292.17517 
L 589.983899 294.293057 
L 591.656353 296.059388 
L 593.328807 297.508204 
L 595.001262 298.669296 
L 596.673716 299.56746 
L 598.34617 300.222051 
L 600.018624 300.646697 
L 601.691079 300.84906 
L 603.084791 300.800119 
L 603.921018 300.536523 
L 604.757245 300.073805 
L 605.872214 299.146992 
L 606.987184 297.868013 
L 608.102153 296.241458 
L 609.495865 293.730704 
L 610.889577 290.708046 
L 612.562031 286.442054 
L 614.234486 281.532626 
L 616.185682 275.082707 
L 618.415621 266.914815 
L 622.875499 250.180016 
L 624.826696 244.087911 
L 626.49915 239.552965 
L 628.171605 235.623863 
L 629.844059 232.257621 
L 631.516513 229.403498 
L 633.188967 227.008627 
L 634.861422 225.021946 
L 636.533876 223.396741 
L 638.20633 222.092156 
L 639.878785 221.073982 
L 641.551239 220.315007 
L 643.223693 219.795125 
L 644.896147 219.501392 
L 646.568602 219.437498 
L 647.404829 219.624173 
L 648.241056 220.035829 
L 649.077283 220.672958 
L 650.192253 221.87226 
L 651.307222 223.467718 
L 652.422192 225.452556 
L 653.815903 228.465992 
L 655.209615 232.046768 
L 656.88207 237.046233 
L 658.554524 242.746386 
L 660.505721 250.172068 
L 663.014402 260.711609 
L 664.965599 268.833751 
L 666.916795 275.975428 
L 668.58925 281.291239 
L 670.261704 285.887303 
L 671.934158 289.812529 
L 673.606612 293.129286 
L 675.279067 295.904895 
L 676.951521 298.205693 
L 678.623975 300.093229 
L 680.296429 301.622088 
L 681.968884 302.838839 
L 683.641338 303.781725 
L 685.313792 304.480743 
L 686.986247 304.957894 
L 688.658701 305.227418 
L 688.937443 305.252727 
L 688.937443 305.252727 
" clip-path="url(#pa0a54a317d)" style="fill: none; stroke: #0000ff; stroke-width: 1.5; stroke-linecap: square"/>
   </g>
   <g id="line2d_64">
    <path d="M 410.473807 261.102062 
L 417.721109 262.709526 
L 422.738471 263.598315 
L 426.919607 264.121589 
L 430.822 264.380729 
L 434.166909 264.393008 
L 437.511818 264.183591 
L 440.577984 263.775232 
L 443.64415 263.141283 
L 446.710316 262.266254 
L 449.776482 261.139208 
L 452.842648 259.757157 
L 455.908815 258.130127 
L 459.532465 255.933175 
L 464.549828 252.582386 
L 470.124676 248.910605 
L 473.190842 247.154672 
L 475.699523 245.954197 
L 477.929462 245.107633 
L 480.159402 244.4972 
L 482.110598 244.174028 
L 484.061795 244.059771 
L 486.012991 244.162894 
L 487.964188 244.488959 
L 489.915385 245.040606 
L 491.866581 245.817577 
L 493.817778 246.816833 
L 496.047717 248.223775 
L 498.277656 249.901953 
L 500.786338 252.095766 
L 503.295019 254.589927 
L 506.082443 257.679489 
L 509.148609 261.41201 
L 513.051002 266.545009 
L 522.528243 279.236622 
L 525.036924 282.165978 
L 527.266864 284.450128 
L 529.21806 286.146267 
L 530.890514 287.344686 
L 532.562969 288.2867 
L 534.235423 288.957277 
L 535.629135 289.300722 
L 537.022847 289.443693 
L 538.416559 289.383746 
L 539.810271 289.120454 
L 541.203982 288.655673 
L 542.876437 287.838337 
L 544.548891 286.749816 
L 546.221345 285.407173 
L 548.172542 283.54575 
L 550.402481 281.065624 
L 552.63242 278.238878 
L 554.862359 275.073558 
L 557.092298 271.551559 
L 559.322237 267.636893 
L 561.552176 263.29977 
L 564.060858 257.946446 
L 570.471932 243.910425 
L 572.423129 240.344674 
L 574.095583 237.713841 
L 575.768037 235.466187 
L 577.440492 233.575932 
L 579.112946 232.021775 
L 580.7854 230.792997 
L 582.179112 230.016477 
L 583.572824 229.4683 
L 584.966536 229.155024 
L 586.360248 229.086323 
L 587.75396 229.274712 
L 589.147672 229.734768 
L 590.541383 230.48161 
L 591.935095 231.528738 
L 593.328807 232.88554 
L 594.722519 234.555076 
L 596.394973 236.964356 
L 598.067428 239.794944 
L 600.018624 243.583788 
L 602.248563 248.473583 
L 604.757245 254.553452 
L 608.380896 264.008169 
L 612.562031 274.819523 
L 615.070713 280.679634 
L 617.300652 285.324368 
L 619.251848 288.911778 
L 621.203045 292.010587 
L 622.875499 294.240569 
L 624.269211 295.780552 
L 625.662923 297.024482 
L 627.056635 297.970668 
L 628.450347 298.616645 
L 629.565317 298.911422 
L 630.680286 298.998143 
L 631.795256 298.860276 
L 632.910225 298.474866 
L 634.025195 297.814132 
L 635.140164 296.84936 
L 636.255134 295.557051 
L 637.370103 293.925982 
L 638.763815 291.422167 
L 640.157527 288.450965 
L 641.829981 284.375865 
L 644.05992 278.268954 
L 646.289859 271.505855 
L 648.798541 263.114777 
L 654.930873 241.915054 
L 656.324585 238.141543 
L 657.718297 234.953325 
L 659.112009 232.259528 
L 660.784463 229.527701 
L 662.456917 227.210619 
L 664.408114 224.917371 
L 666.359311 222.976161 
L 668.58925 221.073623 
L 674.721582 216.098486 
L 675.836551 214.827884 
L 676.951521 213.170086 
L 677.787748 211.489381 
L 678.623975 209.151972 
L 679.18146 206.976342 
L 679.738945 203.939822 
L 680.296429 199.311731 
L 680.575172 195.877227 
L 680.853914 191.007781 
L 681.132657 183.276456 
L 681.411399 167.682207 
L 681.690141 90.637088 
L 681.968884 49.507273 
L 682.247626 60.757769 
L 682.526368 62.328677 
L 682.805111 62.563515 
L 683.92008 62.605276 
L 688.937443 62.605298 
L 688.937443 62.605298 
" clip-path="url(#pa0a54a317d)" style="fill: none; stroke-dasharray: 5.55,2.4; stroke-dashoffset: 0; stroke: #ff0000; stroke-width: 1.5"/>
   </g>
   <g id="patch_9">
    <path d="M 396.550625 318.04 
L 396.550625 36.72 
" style="fill: none; stroke: #000000; stroke-width: 0.8; stroke-linejoin: miter; stroke-linecap: square"/>
   </g>
   <g id="patch_10">
    <path d="M 702.860625 318.04 
L 702.860625 36.72 
" style="fill: none; stroke: #000000; stroke-width: 0.8; stroke-linejoin: miter; stroke-linecap: square"/>
   </g>
   <g id="patch_11">
    <path d="M 396.550625 318.04 
L 702.860625 318.04 
" style="fill: none; stroke: #000000; stroke-width: 0.8; stroke-linejoin: miter; stroke-linecap: square"/>
   </g>
   <g id="patch_12">
    <path d="M 396.550625 36.72 
L 702.860625 36.72 
" style="fill: none; stroke: #000000; stroke-width: 0.8; stroke-linejoin: miter; stroke-linecap: square"/>
   </g>
   <g id="legend_2">
    <g id="patch_13">
     <path d="M 403.550625 74.07625 
L 462.142812 74.07625 
Q 464.142812 74.07625 464.142812 72.07625 
L 464.142812 43.72 
Q 464.142812 41.72 462.142812 41.72 
L 403.550625 41.72 
Q 401.550625 41.72 401.550625 43.72 
L 401.550625 72.07625 
Q 401.550625 74.07625 403.550625 74.07625 
z
" style="fill: #ffffff; opacity: 0.8; stroke: #cccccc; stroke-linejoin: miter"/>
    </g>
    <g id="line2d_65">
     <path d="M 405.550625 49.818437 
L 415.550625 49.818437 
L 425.550625 49.818437 
" style="fill: none; stroke: #0000ff; stroke-width: 1.5; stroke-linecap: square"/>
    </g>
    <g id="text_36">
     <!-- data -->
     <g transform="translate(433.550625 53.318437) scale(0.1 -0.1)">
      <use xlink:href="#DejaVuSans-64"/>
      <use xlink:href="#DejaVuSans-61" x="63.476562"/>
      <use xlink:href="#DejaVuSans-74" x="124.755859"/>
      <use xlink:href="#DejaVuSans-61" x="163.964844"/>
     </g>
    </g>
    <g id="line2d_66">
     <path d="M 405.550625 64.496562 
L 415.550625 64.496562 
L 425.550625 64.496562 
" style="fill: none; stroke-dasharray: 5.55,2.4; stroke-dashoffset: 0; stroke: #ff0000; stroke-width: 1.5"/>
    </g>
    <g id="text_37">
     <!-- sindy -->
     <g transform="translate(433.550625 67.996562) scale(0.1 -0.1)">
      <use xlink:href="#DejaVuSans-73"/>
      <use xlink:href="#DejaVuSans-69" x="52.099609"/>
      <use xlink:href="#DejaVuSans-6e" x="79.882812"/>
      <use xlink:href="#DejaVuSans-64" x="143.261719"/>
      <use xlink:href="#DejaVuSans-79" x="206.738281"/>
     </g>
    </g>
   </g>
  </g>
  <g id="axes_3">
   <g id="patch_14">
    <path d="M 758.860625 318.04 
L 1065.170625 318.04 
L 1065.170625 36.72 
L 758.860625 36.72 
z
" style="fill: #ffffff"/>
   </g>
   <g id="matplotlib.axis_5">
    <g id="xtick_19">
     <g id="line2d_67">
      <path d="M 811.779172 318.04 
L 811.779172 36.72 
" clip-path="url(#paf19656b55)" style="fill: none; stroke: #b0b0b0; stroke-width: 0.8; stroke-linecap: square"/>
     </g>
     <g id="line2d_68">
      <g>
       <use xlink:href="#mdd32c97930" x="811.779172" y="318.04" style="stroke: #000000; stroke-width: 0.8"/>
      </g>
     </g>
     <g id="text_38">
      <!-- 0 -->
      <g transform="translate(808.597922 332.638437) scale(0.1 -0.1)">
       <use xlink:href="#DejaVuSans-30"/>
      </g>
     </g>
    </g>
    <g id="xtick_20">
     <g id="line2d_69">
      <path d="M 873.762809 318.04 
L 873.762809 36.72 
" clip-path="url(#paf19656b55)" style="fill: none; stroke: #b0b0b0; stroke-width: 0.8; stroke-linecap: square"/>
     </g>
     <g id="line2d_70">
      <g>
       <use xlink:href="#mdd32c97930" x="873.762809" y="318.04" style="stroke: #000000; stroke-width: 0.8"/>
      </g>
     </g>
     <g id="text_39">
      <!-- 2 -->
      <g transform="translate(870.581559 332.638437) scale(0.1 -0.1)">
       <use xlink:href="#DejaVuSans-32"/>
      </g>
     </g>
    </g>
    <g id="xtick_21">
     <g id="line2d_71">
      <path d="M 935.746445 318.04 
L 935.746445 36.72 
" clip-path="url(#paf19656b55)" style="fill: none; stroke: #b0b0b0; stroke-width: 0.8; stroke-linecap: square"/>
     </g>
     <g id="line2d_72">
      <g>
       <use xlink:href="#mdd32c97930" x="935.746445" y="318.04" style="stroke: #000000; stroke-width: 0.8"/>
      </g>
     </g>
     <g id="text_40">
      <!-- 4 -->
      <g transform="translate(932.565195 332.638437) scale(0.1 -0.1)">
       <use xlink:href="#DejaVuSans-34"/>
      </g>
     </g>
    </g>
    <g id="xtick_22">
     <g id="line2d_73">
      <path d="M 997.730082 318.04 
L 997.730082 36.72 
" clip-path="url(#paf19656b55)" style="fill: none; stroke: #b0b0b0; stroke-width: 0.8; stroke-linecap: square"/>
     </g>
     <g id="line2d_74">
      <g>
       <use xlink:href="#mdd32c97930" x="997.730082" y="318.04" style="stroke: #000000; stroke-width: 0.8"/>
      </g>
     </g>
     <g id="text_41">
      <!-- 6 -->
      <g transform="translate(994.548832 332.638437) scale(0.1 -0.1)">
       <use xlink:href="#DejaVuSans-36"/>
      </g>
     </g>
    </g>
    <g id="xtick_23">
     <g id="line2d_75">
      <path d="M 1059.713719 318.04 
L 1059.713719 36.72 
" clip-path="url(#paf19656b55)" style="fill: none; stroke: #b0b0b0; stroke-width: 0.8; stroke-linecap: square"/>
     </g>
     <g id="line2d_76">
      <g>
       <use xlink:href="#mdd32c97930" x="1059.713719" y="318.04" style="stroke: #000000; stroke-width: 0.8"/>
      </g>
     </g>
     <g id="text_42">
      <!-- 8 -->
      <g transform="translate(1056.532469 332.638437) scale(0.1 -0.1)">
       <use xlink:href="#DejaVuSans-38"/>
      </g>
     </g>
    </g>
    <g id="text_43">
     <!-- x(t) -->
     <g transform="translate(903.194531 346.316562) scale(0.1 -0.1)">
      <use xlink:href="#DejaVuSans-78"/>
      <use xlink:href="#DejaVuSans-28" x="59.179688"/>
      <use xlink:href="#DejaVuSans-74" x="98.193359"/>
      <use xlink:href="#DejaVuSans-29" x="137.402344"/>
     </g>
    </g>
   </g>
   <g id="matplotlib.axis_6">
    <g id="ytick_12">
     <g id="line2d_77">
      <path d="M 758.860625 315.674356 
L 1065.170625 315.674356 
" clip-path="url(#paf19656b55)" style="fill: none; stroke: #b0b0b0; stroke-width: 0.8; stroke-linecap: square"/>
     </g>
     <g id="line2d_78">
      <g>
       <use xlink:href="#mccdcb3526a" x="758.860625" y="315.674356" style="stroke: #000000; stroke-width: 0.8"/>
      </g>
     </g>
     <g id="text_44">
      <!-- −0.5 -->
      <g transform="translate(727.577813 319.473574) scale(0.1 -0.1)">
       <use xlink:href="#DejaVuSans-2212"/>
       <use xlink:href="#DejaVuSans-30" x="83.789062"/>
       <use xlink:href="#DejaVuSans-2e" x="147.412109"/>
       <use xlink:href="#DejaVuSans-35" x="179.199219"/>
      </g>
     </g>
    </g>
    <g id="ytick_13">
     <g id="line2d_79">
      <path d="M 758.860625 261.102062 
L 1065.170625 261.102062 
" clip-path="url(#paf19656b55)" style="fill: none; stroke: #b0b0b0; stroke-width: 0.8; stroke-linecap: square"/>
     </g>
     <g id="line2d_80">
      <g>
       <use xlink:href="#mccdcb3526a" x="758.860625" y="261.102062" style="stroke: #000000; stroke-width: 0.8"/>
      </g>
     </g>
     <g id="text_45">
      <!-- 0.0 -->
      <g transform="translate(735.9575 264.901281) scale(0.1 -0.1)">
       <use xlink:href="#DejaVuSans-30"/>
       <use xlink:href="#DejaVuSans-2e" x="63.623047"/>
       <use xlink:href="#DejaVuSans-30" x="95.410156"/>
      </g>
     </g>
    </g>
    <g id="ytick_14">
     <g id="line2d_81">
      <path d="M 758.860625 206.529768 
L 1065.170625 206.529768 
" clip-path="url(#paf19656b55)" style="fill: none; stroke: #b0b0b0; stroke-width: 0.8; stroke-linecap: square"/>
     </g>
     <g id="line2d_82">
      <g>
       <use xlink:href="#mccdcb3526a" x="758.860625" y="206.529768" style="stroke: #000000; stroke-width: 0.8"/>
      </g>
     </g>
     <g id="text_46">
      <!-- 0.5 -->
      <g transform="translate(735.9575 210.328987) scale(0.1 -0.1)">
       <use xlink:href="#DejaVuSans-30"/>
       <use xlink:href="#DejaVuSans-2e" x="63.623047"/>
       <use xlink:href="#DejaVuSans-35" x="95.410156"/>
      </g>
     </g>
    </g>
    <g id="ytick_15">
     <g id="line2d_83">
      <path d="M 758.860625 151.957475 
L 1065.170625 151.957475 
" clip-path="url(#paf19656b55)" style="fill: none; stroke: #b0b0b0; stroke-width: 0.8; stroke-linecap: square"/>
     </g>
     <g id="line2d_84">
      <g>
       <use xlink:href="#mccdcb3526a" x="758.860625" y="151.957475" style="stroke: #000000; stroke-width: 0.8"/>
      </g>
     </g>
     <g id="text_47">
      <!-- 1.0 -->
      <g transform="translate(735.9575 155.756693) scale(0.1 -0.1)">
       <use xlink:href="#DejaVuSans-31"/>
       <use xlink:href="#DejaVuSans-2e" x="63.623047"/>
       <use xlink:href="#DejaVuSans-30" x="95.410156"/>
      </g>
     </g>
    </g>
    <g id="ytick_16">
     <g id="line2d_85">
      <path d="M 758.860625 97.385181 
L 1065.170625 97.385181 
" clip-path="url(#paf19656b55)" style="fill: none; stroke: #b0b0b0; stroke-width: 0.8; stroke-linecap: square"/>
     </g>
     <g id="line2d_86">
      <g>
       <use xlink:href="#mccdcb3526a" x="758.860625" y="97.385181" style="stroke: #000000; stroke-width: 0.8"/>
      </g>
     </g>
     <g id="text_48">
      <!-- 1.5 -->
      <g transform="translate(735.9575 101.1844) scale(0.1 -0.1)">
       <use xlink:href="#DejaVuSans-31"/>
       <use xlink:href="#DejaVuSans-2e" x="63.623047"/>
       <use xlink:href="#DejaVuSans-35" x="95.410156"/>
      </g>
     </g>
    </g>
    <g id="ytick_17">
     <g id="line2d_87">
      <path d="M 758.860625 42.812887 
L 1065.170625 42.812887 
" clip-path="url(#paf19656b55)" style="fill: none; stroke: #b0b0b0; stroke-width: 0.8; stroke-linecap: square"/>
     </g>
     <g id="line2d_88">
      <g>
       <use xlink:href="#mccdcb3526a" x="758.860625" y="42.812887" style="stroke: #000000; stroke-width: 0.8"/>
      </g>
     </g>
     <g id="text_49">
      <!-- 2.0 -->
      <g transform="translate(735.9575 46.612106) scale(0.1 -0.1)">
       <use xlink:href="#DejaVuSans-32"/>
       <use xlink:href="#DejaVuSans-2e" x="63.623047"/>
       <use xlink:href="#DejaVuSans-30" x="95.410156"/>
      </g>
     </g>
    </g>
    <g id="text_50">
     <!-- Fr(t) -->
     <g transform="translate(721.498125 187.810469) rotate(-90) scale(0.1 -0.1)">
      <use xlink:href="#DejaVuSans-46"/>
      <use xlink:href="#DejaVuSans-72" x="50.269531"/>
      <use xlink:href="#DejaVuSans-28" x="91.382812"/>
      <use xlink:href="#DejaVuSans-74" x="130.396484"/>
      <use xlink:href="#DejaVuSans-29" x="169.605469"/>
     </g>
    </g>
   </g>
   <g id="line2d_89">
    <path d="M 811.779172 261.102062 
L 814.648276 256.2745 
L 817.579064 251.778971 
L 818.163499 250.931665 
L 817.542112 252.025946 
L 809.659235 265.702325 
L 806.76839 270.158436 
L 803.699469 274.460524 
L 800.6099 278.387092 
L 797.441563 282.032515 
L 794.312069 285.290658 
L 791.03249 288.375446 
L 791.034814 288.371282 
L 809.122995 256.713211 
L 811.848627 252.490134 
L 814.637824 248.532219 
L 817.455299 244.875628 
L 820.730368 241.017215 
L 823.938279 237.607689 
L 827.022558 234.640863 
L 830.325201 231.769174 
L 833.66255 229.156104 
L 837.313542 226.59516 
L 841.080719 224.243205 
L 841.17781 224.186183 
L 841.068901 224.37886 
L 817.528011 265.621469 
L 814.610137 270.112151 
L 811.654629 274.254274 
L 808.689829 278.035675 
L 805.743775 281.456103 
L 802.844037 284.524314 
L 799.463396 287.76284 
L 796.233366 290.549704 
L 792.712942 293.280322 
L 789.095604 295.787921 
L 785.312271 298.123042 
L 781.313256 300.308512 
L 780.204836 300.867551 
L 780.27935 300.734336 
L 805.133106 257.13309 
L 807.741029 253.056689 
L 810.38465 249.256356 
L 813.713113 244.904886 
L 817.037121 240.995534 
L 820.323992 237.515109 
L 823.541825 234.44165 
L 826.659655 231.747797 
L 830.227045 228.973879 
L 833.55814 226.650493 
L 837.083973 224.442195 
L 840.942944 222.288859 
L 844.941081 220.315007 
L 846.920079 219.425049 
L 846.856501 219.537001 
L 820.658402 265.467705 
L 817.775529 269.915719 
L 814.844055 274.038406 
L 811.883266 277.82948 
L 808.912261 281.291239 
L 805.949883 284.432608 
L 803.014659 287.267353 
L 799.411436 290.405782 
L 795.913505 293.129286 
L 792.554221 295.477015 
L 788.751095 297.852509 
L 784.69456 300.093229 
L 780.65448 302.06029 
L 776.318355 303.914472 
L 772.783807 305.252727 
L 772.783807 305.252727 
" clip-path="url(#paf19656b55)" style="fill: none; stroke: #0000ff; stroke-width: 1.5; stroke-linecap: square"/>
   </g>
   <g id="line2d_90">
    <path d="M 811.779172 261.102062 
L 809.842035 263.512157 
L 808.93337 264.358977 
L 808.700239 264.374202 
L 808.681407 264.155328 
L 808.892563 263.458473 
L 809.660398 261.785616 
L 811.31247 258.748756 
L 813.594012 255.026616 
L 815.936576 251.634988 
L 818.07192 248.910605 
L 820.17093 246.591338 
L 821.886689 245.017918 
L 823.020925 244.245487 
L 823.603428 244.059771 
L 823.875178 244.162894 
L 823.973712 244.428597 
L 823.906002 245.040606 
L 823.49907 246.218881 
L 822.549966 248.223775 
L 820.559939 251.836704 
L 817.059037 257.679489 
L 812.613425 264.673766 
L 808.757443 270.357389 
L 805.138965 275.289178 
L 801.980497 279.236622 
L 798.880665 282.768299 
L 796.026291 285.693037 
L 793.618646 287.848782 
L 791.968562 289.041823 
L 791.089506 289.431281 
L 790.710116 289.383746 
L 790.58302 289.120454 
L 790.657334 288.538878 
L 791.047254 287.504866 
L 792.122942 285.407173 
L 794.666475 281.065624 
L 801.714643 269.153349 
L 810.048243 254.819714 
L 812.894858 250.408388 
L 815.502357 246.755254 
L 818.215115 243.369434 
L 820.961688 240.344674 
L 823.658455 237.713841 
L 826.632303 235.127018 
L 830.018035 232.503364 
L 833.033029 230.455276 
L 834.811325 229.4683 
L 835.885887 229.097552 
L 836.372692 229.130045 
L 836.590749 229.344502 
L 836.654133 229.734768 
L 836.512947 230.48161 
L 836.017875 231.775124 
L 834.812932 234.196255 
L 832.215921 238.806516 
L 822.520036 255.259231 
L 816.781491 264.747802 
L 813.452131 269.881037 
L 810.460021 274.131517 
L 807.345741 278.153108 
L 804.133726 281.892946 
L 800.874008 285.324368 
L 797.642295 288.428057 
L 794.03054 291.599732 
L 790.287611 294.572056 
L 787.112404 296.799487 
L 784.880445 298.12404 
L 783.410524 298.789264 
L 782.52319 298.996758 
L 782.053554 298.916951 
L 781.853231 298.700171 
L 781.79287 298.336641 
L 781.945723 297.602504 
L 782.537055 296.245215 
L 783.851176 293.925982 
L 786.938996 289.079086 
L 793.888882 278.268954 
L 798.506322 270.614514 
L 810.616461 250.098848 
L 813.239479 246.274824 
L 815.942171 242.742411 
L 818.683334 239.577859 
L 821.413213 236.799917 
L 824.082085 234.378634 
L 827.267193 231.770209 
L 831.877118 228.323732 
L 845.948862 218.074187 
L 848.178785 216.098486 
L 850.607092 213.634428 
L 853.77724 210.029138 
L 858.756826 203.939822 
L 887.621091 167.682207 
L 951.657121 90.637088 
L 1047.532841 49.507273 
L 1051.247443 62.605298 
L 1051.247443 62.605298 
" clip-path="url(#paf19656b55)" style="fill: none; stroke-dasharray: 5.55,2.4; stroke-dashoffset: 0; stroke: #ff0000; stroke-width: 1.5"/>
   </g>
   <g id="patch_15">
    <path d="M 758.860625 318.04 
L 758.860625 36.72 
" style="fill: none; stroke: #000000; stroke-width: 0.8; stroke-linejoin: miter; stroke-linecap: square"/>
   </g>
   <g id="patch_16">
    <path d="M 1065.170625 318.04 
L 1065.170625 36.72 
" style="fill: none; stroke: #000000; stroke-width: 0.8; stroke-linejoin: miter; stroke-linecap: square"/>
   </g>
   <g id="patch_17">
    <path d="M 758.860625 318.04 
L 1065.170625 318.04 
" style="fill: none; stroke: #000000; stroke-width: 0.8; stroke-linejoin: miter; stroke-linecap: square"/>
   </g>
   <g id="patch_18">
    <path d="M 758.860625 36.72 
L 1065.170625 36.72 
" style="fill: none; stroke: #000000; stroke-width: 0.8; stroke-linejoin: miter; stroke-linecap: square"/>
   </g>
   <g id="legend_3">
    <g id="patch_19">
     <path d="M 765.860625 74.07625 
L 824.452813 74.07625 
Q 826.452813 74.07625 826.452813 72.07625 
L 826.452813 43.72 
Q 826.452813 41.72 824.452813 41.72 
L 765.860625 41.72 
Q 763.860625 41.72 763.860625 43.72 
L 763.860625 72.07625 
Q 763.860625 74.07625 765.860625 74.07625 
z
" style="fill: #ffffff; opacity: 0.8; stroke: #cccccc; stroke-linejoin: miter"/>
    </g>
    <g id="line2d_91">
     <path d="M 767.860625 49.818437 
L 777.860625 49.818437 
L 787.860625 49.818437 
" style="fill: none; stroke: #0000ff; stroke-width: 1.5; stroke-linecap: square"/>
    </g>
    <g id="text_51">
     <!-- data -->
     <g transform="translate(795.860625 53.318437) scale(0.1 -0.1)">
      <use xlink:href="#DejaVuSans-64"/>
      <use xlink:href="#DejaVuSans-61" x="63.476562"/>
      <use xlink:href="#DejaVuSans-74" x="124.755859"/>
      <use xlink:href="#DejaVuSans-61" x="163.964844"/>
     </g>
    </g>
    <g id="line2d_92">
     <path d="M 767.860625 64.496562 
L 777.860625 64.496562 
L 787.860625 64.496562 
" style="fill: none; stroke-dasharray: 5.55,2.4; stroke-dashoffset: 0; stroke: #ff0000; stroke-width: 1.5"/>
    </g>
    <g id="text_52">
     <!-- sindy -->
     <g transform="translate(795.860625 67.996562) scale(0.1 -0.1)">
      <use xlink:href="#DejaVuSans-73"/>
      <use xlink:href="#DejaVuSans-69" x="52.099609"/>
      <use xlink:href="#DejaVuSans-6e" x="79.882812"/>
      <use xlink:href="#DejaVuSans-64" x="143.261719"/>
      <use xlink:href="#DejaVuSans-79" x="206.738281"/>
     </g>
    </g>
   </g>
  </g>
  <g id="text_53">
   <!-- FL_pol_n1_bTrue_iTrue_FL_fr_n1 -->
   <g transform="translate(409.955625 19.3575) scale(0.16 -0.16)">
    <defs>
     <path id="DejaVuSans-4c" d="M 628 4666 
L 1259 4666 
L 1259 531 
L 3531 531 
L 3531 0 
L 628 0 
L 628 4666 
z
" transform="scale(0.015625)"/>
     <path id="DejaVuSans-5f" d="M 3263 -1063 
L 3263 -1509 
L -63 -1509 
L -63 -1063 
L 3263 -1063 
z
" transform="scale(0.015625)"/>
     <path id="DejaVuSans-70" d="M 1159 525 
L 1159 -1331 
L 581 -1331 
L 581 3500 
L 1159 3500 
L 1159 2969 
Q 1341 3281 1617 3432 
Q 1894 3584 2278 3584 
Q 2916 3584 3314 3078 
Q 3713 2572 3713 1747 
Q 3713 922 3314 415 
Q 2916 -91 2278 -91 
Q 1894 -91 1617 61 
Q 1341 213 1159 525 
z
M 3116 1747 
Q 3116 2381 2855 2742 
Q 2594 3103 2138 3103 
Q 1681 3103 1420 2742 
Q 1159 2381 1159 1747 
Q 1159 1113 1420 752 
Q 1681 391 2138 391 
Q 2594 391 2855 752 
Q 3116 1113 3116 1747 
z
" transform="scale(0.015625)"/>
     <path id="DejaVuSans-6f" d="M 1959 3097 
Q 1497 3097 1228 2736 
Q 959 2375 959 1747 
Q 959 1119 1226 758 
Q 1494 397 1959 397 
Q 2419 397 2687 759 
Q 2956 1122 2956 1747 
Q 2956 2369 2687 2733 
Q 2419 3097 1959 3097 
z
M 1959 3584 
Q 2709 3584 3137 3096 
Q 3566 2609 3566 1747 
Q 3566 888 3137 398 
Q 2709 -91 1959 -91 
Q 1206 -91 779 398 
Q 353 888 353 1747 
Q 353 2609 779 3096 
Q 1206 3584 1959 3584 
z
" transform="scale(0.015625)"/>
     <path id="DejaVuSans-6c" d="M 603 4863 
L 1178 4863 
L 1178 0 
L 603 0 
L 603 4863 
z
" transform="scale(0.015625)"/>
     <path id="DejaVuSans-62" d="M 3116 1747 
Q 3116 2381 2855 2742 
Q 2594 3103 2138 3103 
Q 1681 3103 1420 2742 
Q 1159 2381 1159 1747 
Q 1159 1113 1420 752 
Q 1681 391 2138 391 
Q 2594 391 2855 752 
Q 3116 1113 3116 1747 
z
M 1159 2969 
Q 1341 3281 1617 3432 
Q 1894 3584 2278 3584 
Q 2916 3584 3314 3078 
Q 3713 2572 3713 1747 
Q 3713 922 3314 415 
Q 2916 -91 2278 -91 
Q 1894 -91 1617 61 
Q 1341 213 1159 525 
L 1159 0 
L 581 0 
L 581 4863 
L 1159 4863 
L 1159 2969 
z
" transform="scale(0.015625)"/>
     <path id="DejaVuSans-54" d="M -19 4666 
L 3928 4666 
L 3928 4134 
L 2272 4134 
L 2272 0 
L 1638 0 
L 1638 4134 
L -19 4134 
L -19 4666 
z
" transform="scale(0.015625)"/>
     <path id="DejaVuSans-75" d="M 544 1381 
L 544 3500 
L 1119 3500 
L 1119 1403 
Q 1119 906 1312 657 
Q 1506 409 1894 409 
Q 2359 409 2629 706 
Q 2900 1003 2900 1516 
L 2900 3500 
L 3475 3500 
L 3475 0 
L 2900 0 
L 2900 538 
Q 2691 219 2414 64 
Q 2138 -91 1772 -91 
Q 1169 -91 856 284 
Q 544 659 544 1381 
z
M 1991 3584 
L 1991 3584 
z
" transform="scale(0.015625)"/>
     <path id="DejaVuSans-65" d="M 3597 1894 
L 3597 1613 
L 953 1613 
Q 991 1019 1311 708 
Q 1631 397 2203 397 
Q 2534 397 2845 478 
Q 3156 559 3463 722 
L 3463 178 
Q 3153 47 2828 -22 
Q 2503 -91 2169 -91 
Q 1331 -91 842 396 
Q 353 884 353 1716 
Q 353 2575 817 3079 
Q 1281 3584 2069 3584 
Q 2775 3584 3186 3129 
Q 3597 2675 3597 1894 
z
M 3022 2063 
Q 3016 2534 2758 2815 
Q 2500 3097 2075 3097 
Q 1594 3097 1305 2825 
Q 1016 2553 972 2059 
L 3022 2063 
z
" transform="scale(0.015625)"/>
     <path id="DejaVuSans-66" d="M 2375 4863 
L 2375 4384 
L 1825 4384 
Q 1516 4384 1395 4259 
Q 1275 4134 1275 3809 
L 1275 3500 
L 2222 3500 
L 2222 3053 
L 1275 3053 
L 1275 0 
L 697 0 
L 697 3053 
L 147 3053 
L 147 3500 
L 697 3500 
L 697 3744 
Q 697 4328 969 4595 
Q 1241 4863 1831 4863 
L 2375 4863 
z
" transform="scale(0.015625)"/>
    </defs>
    <use xlink:href="#DejaVuSans-46"/>
    <use xlink:href="#DejaVuSans-4c" x="57.519531"/>
    <use xlink:href="#DejaVuSans-5f" x="113.232422"/>
    <use xlink:href="#DejaVuSans-70" x="163.232422"/>
    <use xlink:href="#DejaVuSans-6f" x="226.708984"/>
    <use xlink:href="#DejaVuSans-6c" x="287.890625"/>
    <use xlink:href="#DejaVuSans-5f" x="315.673828"/>
    <use xlink:href="#DejaVuSans-6e" x="365.673828"/>
    <use xlink:href="#DejaVuSans-31" x="429.052734"/>
    <use xlink:href="#DejaVuSans-5f" x="492.675781"/>
    <use xlink:href="#DejaVuSans-62" x="542.675781"/>
    <use xlink:href="#DejaVuSans-54" x="606.152344"/>
    <use xlink:href="#DejaVuSans-72" x="652.486328"/>
    <use xlink:href="#DejaVuSans-75" x="693.599609"/>
    <use xlink:href="#DejaVuSans-65" x="756.978516"/>
    <use xlink:href="#DejaVuSans-5f" x="818.501953"/>
    <use xlink:href="#DejaVuSans-69" x="868.501953"/>
    <use xlink:href="#DejaVuSans-54" x="896.285156"/>
    <use xlink:href="#DejaVuSans-72" x="942.619141"/>
    <use xlink:href="#DejaVuSans-75" x="983.732422"/>
    <use xlink:href="#DejaVuSans-65" x="1047.111328"/>
    <use xlink:href="#DejaVuSans-5f" x="1108.634766"/>
    <use xlink:href="#DejaVuSans-46" x="1158.634766"/>
    <use xlink:href="#DejaVuSans-4c" x="1216.154297"/>
    <use xlink:href="#DejaVuSans-5f" x="1271.867188"/>
    <use xlink:href="#DejaVuSans-66" x="1321.867188"/>
    <use xlink:href="#DejaVuSans-72" x="1357.072266"/>
    <use xlink:href="#DejaVuSans-5f" x="1398.185547"/>
    <use xlink:href="#DejaVuSans-6e" x="1448.185547"/>
    <use xlink:href="#DejaVuSans-31" x="1511.564453"/>
   </g>
  </g>
 </g>
 <defs>
  <clipPath id="p437ec2edfe">
   <rect x="34.240625" y="36.72" width="306.31" height="281.32"/>
  </clipPath>
  <clipPath id="pa0a54a317d">
   <rect x="396.550625" y="36.72" width="306.31" height="281.32"/>
  </clipPath>
  <clipPath id="paf19656b55">
   <rect x="758.860625" y="36.72" width="306.31" height="281.32"/>
  </clipPath>
 </defs>
</svg>
