<?xml version="1.0" encoding="utf-8" standalone="no"?>
<!DOCTYPE svg PUBLIC "-//W3C//DTD SVG 1.1//EN"
  "http://www.w3.org/Graphics/SVG/1.1/DTD/svg11.dtd">
<svg xmlns:xlink="http://www.w3.org/1999/xlink" width="1072.470937pt" height="355.59625pt" viewBox="0 0 1072.470937 355.59625" xmlns="http://www.w3.org/2000/svg" version="1.1">
 <metadata>
  <rdf:RDF xmlns:dc="http://purl.org/dc/elements/1.1/" xmlns:cc="http://creativecommons.org/ns#" xmlns:rdf="http://www.w3.org/1999/02/22-rdf-syntax-ns#">
   <cc:Work>
    <dc:type rdf:resource="http://purl.org/dc/dcmitype/StillImage"/>
    <dc:date>2025-01-21T22:54:55.878488</dc:date>
    <dc:format>image/svg+xml</dc:format>
    <dc:creator>
     <cc:Agent>
      <dc:title>Matplotlib v3.9.2, https://matplotlib.org/</dc:title>
     </cc:Agent>
    </dc:creator>
   </cc:Work>
  </rdf:RDF>
 </metadata>
 <defs>
  <style type="text/css">*{stroke-linejoin: round; stroke-linecap: butt}</style>
 </defs>
 <g id="figure_1">
  <g id="patch_1">
   <path d="M 0 355.59625 
L 1072.470937 355.59625 
L 1072.470937 0 
L 0 0 
z
" style="fill: #ffffff"/>
  </g>
  <g id="axes_1">
   <g id="patch_2">
    <path d="M 52.160938 318.04 
L 352.470937 318.04 
L 352.470937 36.72 
L 52.160938 36.72 
z
" style="fill: #ffffff"/>
   </g>
   <g id="matplotlib.axis_1">
    <g id="xtick_1">
     <g id="line2d_1">
      <path d="M 65.811392 318.04 
L 65.811392 36.72 
" clip-path="url(#p2873cf1bd0)" style="fill: none; stroke: #b0b0b0; stroke-width: 0.8; stroke-linecap: square"/>
     </g>
     <g id="line2d_2">
      <defs>
       <path id="m3c664bd1b0" d="M 0 0 
L 0 3.5 
" style="stroke: #000000; stroke-width: 0.8"/>
      </defs>
      <g>
       <use xlink:href="#m3c664bd1b0" x="65.811392" y="318.04" style="stroke: #000000; stroke-width: 0.8"/>
      </g>
     </g>
     <g id="text_1">
      <!-- 0.0 -->
      <g transform="translate(57.85983 332.638437) scale(0.1 -0.1)">
       <defs>
        <path id="DejaVuSans-30" d="M 2034 4250 
Q 1547 4250 1301 3770 
Q 1056 3291 1056 2328 
Q 1056 1369 1301 889 
Q 1547 409 2034 409 
Q 2525 409 2770 889 
Q 3016 1369 3016 2328 
Q 3016 3291 2770 3770 
Q 2525 4250 2034 4250 
z
M 2034 4750 
Q 2819 4750 3233 4129 
Q 3647 3509 3647 2328 
Q 3647 1150 3233 529 
Q 2819 -91 2034 -91 
Q 1250 -91 836 529 
Q 422 1150 422 2328 
Q 422 3509 836 4129 
Q 1250 4750 2034 4750 
z
" transform="scale(0.015625)"/>
        <path id="DejaVuSans-2e" d="M 684 794 
L 1344 794 
L 1344 0 
L 684 0 
L 684 794 
z
" transform="scale(0.015625)"/>
       </defs>
       <use xlink:href="#DejaVuSans-30"/>
       <use xlink:href="#DejaVuSans-2e" x="63.623047"/>
       <use xlink:href="#DejaVuSans-30" x="95.410156"/>
      </g>
     </g>
    </g>
    <g id="xtick_2">
     <g id="line2d_3">
      <path d="M 99.937528 318.04 
L 99.937528 36.72 
" clip-path="url(#p2873cf1bd0)" style="fill: none; stroke: #b0b0b0; stroke-width: 0.8; stroke-linecap: square"/>
     </g>
     <g id="line2d_4">
      <g>
       <use xlink:href="#m3c664bd1b0" x="99.937528" y="318.04" style="stroke: #000000; stroke-width: 0.8"/>
      </g>
     </g>
     <g id="text_2">
      <!-- 2.5 -->
      <g transform="translate(91.985966 332.638437) scale(0.1 -0.1)">
       <defs>
        <path id="DejaVuSans-32" d="M 1228 531 
L 3431 531 
L 3431 0 
L 469 0 
L 469 531 
Q 828 903 1448 1529 
Q 2069 2156 2228 2338 
Q 2531 2678 2651 2914 
Q 2772 3150 2772 3378 
Q 2772 3750 2511 3984 
Q 2250 4219 1831 4219 
Q 1534 4219 1204 4116 
Q 875 4013 500 3803 
L 500 4441 
Q 881 4594 1212 4672 
Q 1544 4750 1819 4750 
Q 2544 4750 2975 4387 
Q 3406 4025 3406 3419 
Q 3406 3131 3298 2873 
Q 3191 2616 2906 2266 
Q 2828 2175 2409 1742 
Q 1991 1309 1228 531 
z
" transform="scale(0.015625)"/>
        <path id="DejaVuSans-35" d="M 691 4666 
L 3169 4666 
L 3169 4134 
L 1269 4134 
L 1269 2991 
Q 1406 3038 1543 3061 
Q 1681 3084 1819 3084 
Q 2600 3084 3056 2656 
Q 3513 2228 3513 1497 
Q 3513 744 3044 326 
Q 2575 -91 1722 -91 
Q 1428 -91 1123 -41 
Q 819 9 494 109 
L 494 744 
Q 775 591 1075 516 
Q 1375 441 1709 441 
Q 2250 441 2565 725 
Q 2881 1009 2881 1497 
Q 2881 1984 2565 2268 
Q 2250 2553 1709 2553 
Q 1456 2553 1204 2497 
Q 953 2441 691 2322 
L 691 4666 
z
" transform="scale(0.015625)"/>
       </defs>
       <use xlink:href="#DejaVuSans-32"/>
       <use xlink:href="#DejaVuSans-2e" x="63.623047"/>
       <use xlink:href="#DejaVuSans-35" x="95.410156"/>
      </g>
     </g>
    </g>
    <g id="xtick_3">
     <g id="line2d_5">
      <path d="M 134.063665 318.04 
L 134.063665 36.72 
" clip-path="url(#p2873cf1bd0)" style="fill: none; stroke: #b0b0b0; stroke-width: 0.8; stroke-linecap: square"/>
     </g>
     <g id="line2d_6">
      <g>
       <use xlink:href="#m3c664bd1b0" x="134.063665" y="318.04" style="stroke: #000000; stroke-width: 0.8"/>
      </g>
     </g>
     <g id="text_3">
      <!-- 5.0 -->
      <g transform="translate(126.112102 332.638437) scale(0.1 -0.1)">
       <use xlink:href="#DejaVuSans-35"/>
       <use xlink:href="#DejaVuSans-2e" x="63.623047"/>
       <use xlink:href="#DejaVuSans-30" x="95.410156"/>
      </g>
     </g>
    </g>
    <g id="xtick_4">
     <g id="line2d_7">
      <path d="M 168.189801 318.04 
L 168.189801 36.72 
" clip-path="url(#p2873cf1bd0)" style="fill: none; stroke: #b0b0b0; stroke-width: 0.8; stroke-linecap: square"/>
     </g>
     <g id="line2d_8">
      <g>
       <use xlink:href="#m3c664bd1b0" x="168.189801" y="318.04" style="stroke: #000000; stroke-width: 0.8"/>
      </g>
     </g>
     <g id="text_4">
      <!-- 7.5 -->
      <g transform="translate(160.238239 332.638437) scale(0.1 -0.1)">
       <defs>
        <path id="DejaVuSans-37" d="M 525 4666 
L 3525 4666 
L 3525 4397 
L 1831 0 
L 1172 0 
L 2766 4134 
L 525 4134 
L 525 4666 
z
" transform="scale(0.015625)"/>
       </defs>
       <use xlink:href="#DejaVuSans-37"/>
       <use xlink:href="#DejaVuSans-2e" x="63.623047"/>
       <use xlink:href="#DejaVuSans-35" x="95.410156"/>
      </g>
     </g>
    </g>
    <g id="xtick_5">
     <g id="line2d_9">
      <path d="M 202.315938 318.04 
L 202.315938 36.72 
" clip-path="url(#p2873cf1bd0)" style="fill: none; stroke: #b0b0b0; stroke-width: 0.8; stroke-linecap: square"/>
     </g>
     <g id="line2d_10">
      <g>
       <use xlink:href="#m3c664bd1b0" x="202.315938" y="318.04" style="stroke: #000000; stroke-width: 0.8"/>
      </g>
     </g>
     <g id="text_5">
      <!-- 10.0 -->
      <g transform="translate(191.183125 332.638437) scale(0.1 -0.1)">
       <defs>
        <path id="DejaVuSans-31" d="M 794 531 
L 1825 531 
L 1825 4091 
L 703 3866 
L 703 4441 
L 1819 4666 
L 2450 4666 
L 2450 531 
L 3481 531 
L 3481 0 
L 794 0 
L 794 531 
z
" transform="scale(0.015625)"/>
       </defs>
       <use xlink:href="#DejaVuSans-31"/>
       <use xlink:href="#DejaVuSans-30" x="63.623047"/>
       <use xlink:href="#DejaVuSans-2e" x="127.246094"/>
       <use xlink:href="#DejaVuSans-30" x="159.033203"/>
      </g>
     </g>
    </g>
    <g id="xtick_6">
     <g id="line2d_11">
      <path d="M 236.442074 318.04 
L 236.442074 36.72 
" clip-path="url(#p2873cf1bd0)" style="fill: none; stroke: #b0b0b0; stroke-width: 0.8; stroke-linecap: square"/>
     </g>
     <g id="line2d_12">
      <g>
       <use xlink:href="#m3c664bd1b0" x="236.442074" y="318.04" style="stroke: #000000; stroke-width: 0.8"/>
      </g>
     </g>
     <g id="text_6">
      <!-- 12.5 -->
      <g transform="translate(225.309261 332.638437) scale(0.1 -0.1)">
       <use xlink:href="#DejaVuSans-31"/>
       <use xlink:href="#DejaVuSans-32" x="63.623047"/>
       <use xlink:href="#DejaVuSans-2e" x="127.246094"/>
       <use xlink:href="#DejaVuSans-35" x="159.033203"/>
      </g>
     </g>
    </g>
    <g id="xtick_7">
     <g id="line2d_13">
      <path d="M 270.56821 318.04 
L 270.56821 36.72 
" clip-path="url(#p2873cf1bd0)" style="fill: none; stroke: #b0b0b0; stroke-width: 0.8; stroke-linecap: square"/>
     </g>
     <g id="line2d_14">
      <g>
       <use xlink:href="#m3c664bd1b0" x="270.56821" y="318.04" style="stroke: #000000; stroke-width: 0.8"/>
      </g>
     </g>
     <g id="text_7">
      <!-- 15.0 -->
      <g transform="translate(259.435398 332.638437) scale(0.1 -0.1)">
       <use xlink:href="#DejaVuSans-31"/>
       <use xlink:href="#DejaVuSans-35" x="63.623047"/>
       <use xlink:href="#DejaVuSans-2e" x="127.246094"/>
       <use xlink:href="#DejaVuSans-30" x="159.033203"/>
      </g>
     </g>
    </g>
    <g id="xtick_8">
     <g id="line2d_15">
      <path d="M 304.694347 318.04 
L 304.694347 36.72 
" clip-path="url(#p2873cf1bd0)" style="fill: none; stroke: #b0b0b0; stroke-width: 0.8; stroke-linecap: square"/>
     </g>
     <g id="line2d_16">
      <g>
       <use xlink:href="#m3c664bd1b0" x="304.694347" y="318.04" style="stroke: #000000; stroke-width: 0.8"/>
      </g>
     </g>
     <g id="text_8">
      <!-- 17.5 -->
      <g transform="translate(293.561534 332.638437) scale(0.1 -0.1)">
       <use xlink:href="#DejaVuSans-31"/>
       <use xlink:href="#DejaVuSans-37" x="63.623047"/>
       <use xlink:href="#DejaVuSans-2e" x="127.246094"/>
       <use xlink:href="#DejaVuSans-35" x="159.033203"/>
      </g>
     </g>
    </g>
    <g id="xtick_9">
     <g id="line2d_17">
      <path d="M 338.820483 318.04 
L 338.820483 36.72 
" clip-path="url(#p2873cf1bd0)" style="fill: none; stroke: #b0b0b0; stroke-width: 0.8; stroke-linecap: square"/>
     </g>
     <g id="line2d_18">
      <g>
       <use xlink:href="#m3c664bd1b0" x="338.820483" y="318.04" style="stroke: #000000; stroke-width: 0.8"/>
      </g>
     </g>
     <g id="text_9">
      <!-- 20.0 -->
      <g transform="translate(327.68767 332.638437) scale(0.1 -0.1)">
       <use xlink:href="#DejaVuSans-32"/>
       <use xlink:href="#DejaVuSans-30" x="63.623047"/>
       <use xlink:href="#DejaVuSans-2e" x="127.246094"/>
       <use xlink:href="#DejaVuSans-30" x="159.033203"/>
      </g>
     </g>
    </g>
    <g id="text_10">
     <!-- t -->
     <g transform="translate(200.355781 346.316562) scale(0.1 -0.1)">
      <defs>
       <path id="DejaVuSans-74" d="M 1172 4494 
L 1172 3500 
L 2356 3500 
L 2356 3053 
L 1172 3053 
L 1172 1153 
Q 1172 725 1289 603 
Q 1406 481 1766 481 
L 2356 481 
L 2356 0 
L 1766 0 
Q 1100 0 847 248 
Q 594 497 594 1153 
L 594 3053 
L 172 3053 
L 172 3500 
L 594 3500 
L 594 4494 
L 1172 4494 
z
" transform="scale(0.015625)"/>
      </defs>
      <use xlink:href="#DejaVuSans-74"/>
     </g>
    </g>
   </g>
   <g id="matplotlib.axis_2">
    <g id="ytick_1">
     <g id="line2d_19">
      <path d="M 52.160938 277.643154 
L 352.470937 277.643154 
" clip-path="url(#p2873cf1bd0)" style="fill: none; stroke: #b0b0b0; stroke-width: 0.8; stroke-linecap: square"/>
     </g>
     <g id="line2d_20">
      <defs>
       <path id="m5c22ea8fea" d="M 0 0 
L -3.5 0 
" style="stroke: #000000; stroke-width: 0.8"/>
      </defs>
      <g>
       <use xlink:href="#m5c22ea8fea" x="52.160938" y="277.643154" style="stroke: #000000; stroke-width: 0.8"/>
      </g>
     </g>
     <g id="text_11">
      <!-- −1.0 -->
      <g transform="translate(20.878125 281.442373) scale(0.1 -0.1)">
       <defs>
        <path id="DejaVuSans-2212" d="M 678 2272 
L 4684 2272 
L 4684 1741 
L 678 1741 
L 678 2272 
z
" transform="scale(0.015625)"/>
       </defs>
       <use xlink:href="#DejaVuSans-2212"/>
       <use xlink:href="#DejaVuSans-31" x="83.789062"/>
       <use xlink:href="#DejaVuSans-2e" x="147.412109"/>
       <use xlink:href="#DejaVuSans-30" x="179.199219"/>
      </g>
     </g>
    </g>
    <g id="ytick_2">
     <g id="line2d_21">
      <path d="M 52.160938 224.187428 
L 352.470937 224.187428 
" clip-path="url(#p2873cf1bd0)" style="fill: none; stroke: #b0b0b0; stroke-width: 0.8; stroke-linecap: square"/>
     </g>
     <g id="line2d_22">
      <g>
       <use xlink:href="#m5c22ea8fea" x="52.160938" y="224.187428" style="stroke: #000000; stroke-width: 0.8"/>
      </g>
     </g>
     <g id="text_12">
      <!-- −0.5 -->
      <g transform="translate(20.878125 227.986646) scale(0.1 -0.1)">
       <use xlink:href="#DejaVuSans-2212"/>
       <use xlink:href="#DejaVuSans-30" x="83.789062"/>
       <use xlink:href="#DejaVuSans-2e" x="147.412109"/>
       <use xlink:href="#DejaVuSans-35" x="179.199219"/>
      </g>
     </g>
    </g>
    <g id="ytick_3">
     <g id="line2d_23">
      <path d="M 52.160938 170.731701 
L 352.470937 170.731701 
" clip-path="url(#p2873cf1bd0)" style="fill: none; stroke: #b0b0b0; stroke-width: 0.8; stroke-linecap: square"/>
     </g>
     <g id="line2d_24">
      <g>
       <use xlink:href="#m5c22ea8fea" x="52.160938" y="170.731701" style="stroke: #000000; stroke-width: 0.8"/>
      </g>
     </g>
     <g id="text_13">
      <!-- 0.0 -->
      <g transform="translate(29.257812 174.53092) scale(0.1 -0.1)">
       <use xlink:href="#DejaVuSans-30"/>
       <use xlink:href="#DejaVuSans-2e" x="63.623047"/>
       <use xlink:href="#DejaVuSans-30" x="95.410156"/>
      </g>
     </g>
    </g>
    <g id="ytick_4">
     <g id="line2d_25">
      <path d="M 52.160938 117.275974 
L 352.470937 117.275974 
" clip-path="url(#p2873cf1bd0)" style="fill: none; stroke: #b0b0b0; stroke-width: 0.8; stroke-linecap: square"/>
     </g>
     <g id="line2d_26">
      <g>
       <use xlink:href="#m5c22ea8fea" x="52.160938" y="117.275974" style="stroke: #000000; stroke-width: 0.8"/>
      </g>
     </g>
     <g id="text_14">
      <!-- 0.5 -->
      <g transform="translate(29.257812 121.075193) scale(0.1 -0.1)">
       <use xlink:href="#DejaVuSans-30"/>
       <use xlink:href="#DejaVuSans-2e" x="63.623047"/>
       <use xlink:href="#DejaVuSans-35" x="95.410156"/>
      </g>
     </g>
    </g>
    <g id="ytick_5">
     <g id="line2d_27">
      <path d="M 52.160938 63.820247 
L 352.470937 63.820247 
" clip-path="url(#p2873cf1bd0)" style="fill: none; stroke: #b0b0b0; stroke-width: 0.8; stroke-linecap: square"/>
     </g>
     <g id="line2d_28">
      <g>
       <use xlink:href="#m5c22ea8fea" x="52.160938" y="63.820247" style="stroke: #000000; stroke-width: 0.8"/>
      </g>
     </g>
     <g id="text_15">
      <!-- 1.0 -->
      <g transform="translate(29.257812 67.619466) scale(0.1 -0.1)">
       <use xlink:href="#DejaVuSans-31"/>
       <use xlink:href="#DejaVuSans-2e" x="63.623047"/>
       <use xlink:href="#DejaVuSans-30" x="95.410156"/>
      </g>
     </g>
    </g>
    <g id="text_16">
     <!-- x(t) -->
     <g transform="translate(14.798438 186.201094) rotate(-90) scale(0.1 -0.1)">
      <defs>
       <path id="DejaVuSans-78" d="M 3513 3500 
L 2247 1797 
L 3578 0 
L 2900 0 
L 1881 1375 
L 863 0 
L 184 0 
L 1544 1831 
L 300 3500 
L 978 3500 
L 1906 2253 
L 2834 3500 
L 3513 3500 
z
" transform="scale(0.015625)"/>
       <path id="DejaVuSans-28" d="M 1984 4856 
Q 1566 4138 1362 3434 
Q 1159 2731 1159 2009 
Q 1159 1288 1364 580 
Q 1569 -128 1984 -844 
L 1484 -844 
Q 1016 -109 783 600 
Q 550 1309 550 2009 
Q 550 2706 781 3412 
Q 1013 4119 1484 4856 
L 1984 4856 
z
" transform="scale(0.015625)"/>
       <path id="DejaVuSans-29" d="M 513 4856 
L 1013 4856 
Q 1481 4119 1714 3412 
Q 1947 2706 1947 2009 
Q 1947 1309 1714 600 
Q 1481 -109 1013 -844 
L 513 -844 
Q 928 -128 1133 580 
Q 1338 1288 1338 2009 
Q 1338 2731 1133 3434 
Q 928 4138 513 4856 
z
" transform="scale(0.015625)"/>
      </defs>
      <use xlink:href="#DejaVuSans-78"/>
      <use xlink:href="#DejaVuSans-28" x="59.179688"/>
      <use xlink:href="#DejaVuSans-74" x="98.193359"/>
      <use xlink:href="#DejaVuSans-29" x="137.402344"/>
     </g>
    </g>
   </g>
   <g id="line2d_29">
    <path d="M 65.811392 170.731701 
L 75.102993 170.623473 
L 78.655664 170.353248 
L 81.66177 169.89351 
L 84.121311 169.303785 
L 86.580852 168.483916 
L 89.040394 167.408965 
L 91.499935 166.067771 
L 93.959476 164.466082 
L 96.6923 162.411937 
L 99.971689 159.655946 
L 108.17016 152.60301 
L 110.356419 151.063347 
L 112.269396 149.971473 
L 113.90909 149.275327 
L 115.548784 148.841664 
L 116.915196 148.7079 
L 118.281608 148.802977 
L 119.64802 149.145796 
L 121.014431 149.753205 
L 122.380843 150.639631 
L 123.747255 151.816745 
L 125.113667 153.293143 
L 126.480079 155.074063 
L 128.119773 157.615157 
L 129.759467 160.5924 
L 131.672444 164.599467 
L 133.585421 169.147048 
L 135.77168 174.939538 
L 138.231221 182.093628 
L 141.510609 192.383279 
L 149.982363 219.391088 
L 152.441904 226.262996 
L 154.354881 230.987392 
L 155.994575 234.502878 
L 157.360987 236.999428 
L 158.727399 239.058936 
L 159.820528 240.366092 
L 160.913658 241.350705 
L 162.006787 241.995739 
L 162.826635 242.24721 
L 163.646482 242.292829 
L 164.466329 242.127119 
L 165.286176 241.74529 
L 166.106023 241.143327 
L 167.199153 239.992861 
L 168.292282 238.440174 
L 169.385412 236.482744 
L 170.478541 234.120885 
L 171.844953 230.605013 
L 173.211365 226.475236 
L 174.851059 220.737886 
L 176.490753 214.194208 
L 178.40373 205.626024 
L 180.589989 194.757666 
L 183.322813 179.894628 
L 187.148766 157.63529 
L 193.160978 122.642403 
L 195.893802 108.124619 
L 198.080061 97.662355 
L 199.993037 89.572245 
L 201.632732 83.55889 
L 202.999143 79.269995 
L 204.365555 75.691547 
L 205.458685 73.371219 
L 206.551814 71.556107 
L 207.371661 70.537823 
L 208.191509 69.821605 
L 209.011356 69.413853 
L 209.831203 69.320174 
L 210.65105 69.545321 
L 211.470897 70.092959 
L 212.290744 70.965497 
L 213.110591 72.164064 
L 214.203721 74.268826 
L 215.29685 76.948704 
L 216.38998 80.195482 
L 217.756392 85.031877 
L 219.122803 90.701059 
L 220.762498 98.541745 
L 222.675474 109.000267 
L 224.861733 122.458085 
L 227.321275 139.130869 
L 230.873946 165.033936 
L 237.432722 213.217027 
L 240.165546 231.425278 
L 242.351805 244.49663 
L 244.264782 254.569349 
L 245.904476 262.033698 
L 247.270888 267.344379 
L 248.6373 271.766577 
L 249.730429 274.630077 
L 250.823559 276.869071 
L 251.643406 278.126253 
L 252.463253 279.013374 
L 253.2831 279.52404 
L 253.829665 279.652646 
L 254.37623 279.610197 
L 254.922794 279.3956 
L 255.742641 278.749292 
L 256.562489 277.712621 
L 257.382336 276.285866 
L 258.202183 274.470926 
L 259.295312 271.453485 
L 260.388442 267.765219 
L 261.754854 262.239314 
L 263.121266 255.739581 
L 264.76096 246.736697 
L 266.673936 234.730296 
L 268.860195 219.312312 
L 271.319737 200.288954 
L 275.14569 168.657632 
L 280.338055 125.805015 
L 283.070879 105.116424 
L 285.257138 90.212102 
L 287.170114 78.691206 
L 288.809809 70.1264 
L 290.176221 64.011527 
L 291.542632 58.897404 
L 292.635762 55.566558 
L 293.728891 52.940695 
L 294.548738 51.448033 
L 295.368586 50.373542 
L 296.188433 49.724566 
L 296.734997 49.531408 
L 297.281562 49.531663 
L 297.828127 49.726598 
L 298.374692 50.117136 
L 299.194539 51.070829 
L 300.014386 52.466147 
L 300.834233 54.301555 
L 301.927363 57.427183 
L 303.020492 61.315638 
L 304.113622 65.947766 
L 305.480033 72.745171 
L 306.846445 80.604047 
L 308.48614 91.330167 
L 310.399116 105.434891 
L 312.585375 123.302288 
L 315.318199 147.5417 
L 325.429647 239.30186 
L 327.615906 256.355727 
L 329.528882 269.666281 
L 331.168577 279.672221 
L 332.808271 288.227533 
L 334.174683 294.153708 
L 335.267812 298.058209 
L 336.360942 301.186095 
L 337.180789 303.006197 
L 338.000636 304.36459 
L 338.820483 305.252727 
L 338.820483 305.252727 
" clip-path="url(#p2873cf1bd0)" style="fill: none; stroke: #0000ff; stroke-width: 1.5; stroke-linecap: square"/>
   </g>
   <g id="line2d_30">
    <path d="M 65.811392 170.731701 
L 69.090781 171.410298 
L 72.096887 171.805062 
L 74.82971 171.93182 
L 77.289252 171.835739 
L 79.748793 171.532797 
L 82.481617 170.958413 
L 85.214441 170.154917 
L 88.493829 168.943854 
L 93.139629 166.953901 
L 98.605277 164.651757 
L 101.611383 163.625941 
L 104.070924 163.006184 
L 106.257183 162.662168 
L 108.443442 162.539438 
L 110.629701 162.65497 
L 112.81596 163.016364 
L 115.002219 163.621097 
L 117.188478 164.456141 
L 119.64802 165.641124 
L 122.380843 167.204391 
L 126.480079 169.842352 
L 131.672444 173.157173 
L 134.405268 174.630736 
L 136.591527 175.570445 
L 138.504503 176.173288 
L 140.41748 176.540569 
L 142.057174 176.650449 
L 143.696868 176.56033 
L 145.336563 176.264375 
L 146.976257 175.76126 
L 148.889234 174.917245 
L 150.80221 173.809785 
L 152.988469 172.251301 
L 155.44801 170.184076 
L 158.454117 167.338002 
L 165.832741 160.200897 
L 168.019 158.442788 
L 169.931976 157.170706 
L 171.571671 156.320515 
L 173.211365 155.722066 
L 174.577777 155.432383 
L 175.944188 155.343727 
L 177.3106 155.463266 
L 178.677012 155.795052 
L 180.043424 156.339951 
L 181.409836 157.095591 
L 183.04953 158.272371 
L 184.689224 159.728343 
L 186.602201 161.748997 
L 188.78846 164.423025 
L 191.521284 168.17567 
L 199.993037 180.202814 
L 201.906014 182.424276 
L 203.545708 184.033692 
L 205.185402 185.321659 
L 206.551814 186.120965 
L 207.918226 186.651432 
L 209.011356 186.872505 
L 210.104485 186.906824 
L 211.197615 186.750505 
L 212.290744 186.401197 
L 213.383874 185.85804 
L 214.750285 184.907537 
L 216.116697 183.659555 
L 217.483109 182.122178 
L 219.122803 179.91266 
L 220.762498 177.333507 
L 222.675474 173.911186 
L 225.135016 168.988644 
L 228.960969 160.690927 
L 232.51364 153.123023 
L 234.699899 148.944917 
L 236.612875 145.784163 
L 238.25257 143.538629 
L 239.618981 142.043878 
L 240.712111 141.117036 
L 241.80524 140.443294 
L 242.89837 140.032718 
L 243.991499 139.89262 
L 245.084629 140.027594 
L 246.177758 140.439626 
L 247.270888 141.128265 
L 248.364017 142.090844 
L 249.457147 143.32269 
L 250.823559 145.231099 
L 252.189971 147.533543 
L 253.829665 150.787242 
L 255.469359 154.533798 
L 257.382336 159.451746 
L 259.841877 166.459436 
L 264.214395 179.832501 
L 267.220501 188.684359 
L 269.133478 193.733683 
L 270.773172 197.524485 
L 272.139584 200.227719 
L 273.505996 202.468406 
L 274.599125 203.906065 
L 275.692255 205.016586 
L 276.785384 205.794352 
L 277.878514 206.237975 
L 278.698361 206.352529 
L 279.518208 206.282036 
L 280.338055 206.028876 
L 281.431185 205.411895 
L 282.524314 204.481721 
L 283.617444 203.244753 
L 284.710573 201.706563 
L 286.076985 199.366976 
L 287.443397 196.57032 
L 289.083091 192.618975 
L 290.722785 188.031148 
L 292.635762 181.911168 
L 294.822021 174.013933 
L 297.554845 163.132778 
L 304.386904 135.333159 
L 306.573163 127.62467 
L 308.212857 122.599042 
L 309.579269 119.030809 
L 310.945681 116.122435 
L 312.03881 114.327538 
L 312.858657 113.315905 
L 313.678505 112.604485 
L 314.498352 112.201514 
L 315.318199 112.111193 
L 316.138046 112.333543 
L 316.957893 112.864554 
L 317.77774 113.696631 
L 318.597587 114.819272 
L 319.690717 116.746235 
L 320.783846 119.134806 
L 322.150258 122.720362 
L 323.51667 126.919718 
L 325.156364 132.705219 
L 327.069341 140.408428 
L 328.982318 149.055037 
L 331.168577 159.935205 
L 334.447965 177.585875 
L 338.820483 201.098362 
L 338.820483 201.098362 
" clip-path="url(#p2873cf1bd0)" style="fill: none; stroke-dasharray: 5.55,2.4; stroke-dashoffset: 0; stroke: #ff0000; stroke-width: 1.5"/>
   </g>
   <g id="patch_3">
    <path d="M 52.160938 318.04 
L 52.160938 36.72 
" style="fill: none; stroke: #000000; stroke-width: 0.8; stroke-linejoin: miter; stroke-linecap: square"/>
   </g>
   <g id="patch_4">
    <path d="M 352.470937 318.04 
L 352.470937 36.72 
" style="fill: none; stroke: #000000; stroke-width: 0.8; stroke-linejoin: miter; stroke-linecap: square"/>
   </g>
   <g id="patch_5">
    <path d="M 52.160938 318.04 
L 352.470938 318.04 
" style="fill: none; stroke: #000000; stroke-width: 0.8; stroke-linejoin: miter; stroke-linecap: square"/>
   </g>
   <g id="patch_6">
    <path d="M 52.160938 36.72 
L 352.470938 36.72 
" style="fill: none; stroke: #000000; stroke-width: 0.8; stroke-linejoin: miter; stroke-linecap: square"/>
   </g>
   <g id="legend_1">
    <g id="patch_7">
     <path d="M 59.160938 74.07625 
L 117.753125 74.07625 
Q 119.753125 74.07625 119.753125 72.07625 
L 119.753125 43.72 
Q 119.753125 41.72 117.753125 41.72 
L 59.160938 41.72 
Q 57.160938 41.72 57.160938 43.72 
L 57.160938 72.07625 
Q 57.160938 74.07625 59.160938 74.07625 
z
" style="fill: #ffffff; opacity: 0.8; stroke: #cccccc; stroke-linejoin: miter"/>
    </g>
    <g id="line2d_31">
     <path d="M 61.160938 49.818437 
L 71.160938 49.818437 
L 81.160938 49.818437 
" style="fill: none; stroke: #0000ff; stroke-width: 1.5; stroke-linecap: square"/>
    </g>
    <g id="text_17">
     <!-- data -->
     <g transform="translate(89.160938 53.318437) scale(0.1 -0.1)">
      <defs>
       <path id="DejaVuSans-64" d="M 2906 2969 
L 2906 4863 
L 3481 4863 
L 3481 0 
L 2906 0 
L 2906 525 
Q 2725 213 2448 61 
Q 2172 -91 1784 -91 
Q 1150 -91 751 415 
Q 353 922 353 1747 
Q 353 2572 751 3078 
Q 1150 3584 1784 3584 
Q 2172 3584 2448 3432 
Q 2725 3281 2906 2969 
z
M 947 1747 
Q 947 1113 1208 752 
Q 1469 391 1925 391 
Q 2381 391 2643 752 
Q 2906 1113 2906 1747 
Q 2906 2381 2643 2742 
Q 2381 3103 1925 3103 
Q 1469 3103 1208 2742 
Q 947 2381 947 1747 
z
" transform="scale(0.015625)"/>
       <path id="DejaVuSans-61" d="M 2194 1759 
Q 1497 1759 1228 1600 
Q 959 1441 959 1056 
Q 959 750 1161 570 
Q 1363 391 1709 391 
Q 2188 391 2477 730 
Q 2766 1069 2766 1631 
L 2766 1759 
L 2194 1759 
z
M 3341 1997 
L 3341 0 
L 2766 0 
L 2766 531 
Q 2569 213 2275 61 
Q 1981 -91 1556 -91 
Q 1019 -91 701 211 
Q 384 513 384 1019 
Q 384 1609 779 1909 
Q 1175 2209 1959 2209 
L 2766 2209 
L 2766 2266 
Q 2766 2663 2505 2880 
Q 2244 3097 1772 3097 
Q 1472 3097 1187 3025 
Q 903 2953 641 2809 
L 641 3341 
Q 956 3463 1253 3523 
Q 1550 3584 1831 3584 
Q 2591 3584 2966 3190 
Q 3341 2797 3341 1997 
z
" transform="scale(0.015625)"/>
      </defs>
      <use xlink:href="#DejaVuSans-64"/>
      <use xlink:href="#DejaVuSans-61" x="63.476562"/>
      <use xlink:href="#DejaVuSans-74" x="124.755859"/>
      <use xlink:href="#DejaVuSans-61" x="163.964844"/>
     </g>
    </g>
    <g id="line2d_32">
     <path d="M 61.160938 64.496562 
L 71.160938 64.496562 
L 81.160938 64.496562 
" style="fill: none; stroke-dasharray: 5.55,2.4; stroke-dashoffset: 0; stroke: #ff0000; stroke-width: 1.5"/>
    </g>
    <g id="text_18">
     <!-- sindy -->
     <g transform="translate(89.160938 67.996562) scale(0.1 -0.1)">
      <defs>
       <path id="DejaVuSans-73" d="M 2834 3397 
L 2834 2853 
Q 2591 2978 2328 3040 
Q 2066 3103 1784 3103 
Q 1356 3103 1142 2972 
Q 928 2841 928 2578 
Q 928 2378 1081 2264 
Q 1234 2150 1697 2047 
L 1894 2003 
Q 2506 1872 2764 1633 
Q 3022 1394 3022 966 
Q 3022 478 2636 193 
Q 2250 -91 1575 -91 
Q 1294 -91 989 -36 
Q 684 19 347 128 
L 347 722 
Q 666 556 975 473 
Q 1284 391 1588 391 
Q 1994 391 2212 530 
Q 2431 669 2431 922 
Q 2431 1156 2273 1281 
Q 2116 1406 1581 1522 
L 1381 1569 
Q 847 1681 609 1914 
Q 372 2147 372 2553 
Q 372 3047 722 3315 
Q 1072 3584 1716 3584 
Q 2034 3584 2315 3537 
Q 2597 3491 2834 3397 
z
" transform="scale(0.015625)"/>
       <path id="DejaVuSans-69" d="M 603 3500 
L 1178 3500 
L 1178 0 
L 603 0 
L 603 3500 
z
M 603 4863 
L 1178 4863 
L 1178 4134 
L 603 4134 
L 603 4863 
z
" transform="scale(0.015625)"/>
       <path id="DejaVuSans-6e" d="M 3513 2113 
L 3513 0 
L 2938 0 
L 2938 2094 
Q 2938 2591 2744 2837 
Q 2550 3084 2163 3084 
Q 1697 3084 1428 2787 
Q 1159 2491 1159 1978 
L 1159 0 
L 581 0 
L 581 3500 
L 1159 3500 
L 1159 2956 
Q 1366 3272 1645 3428 
Q 1925 3584 2291 3584 
Q 2894 3584 3203 3211 
Q 3513 2838 3513 2113 
z
" transform="scale(0.015625)"/>
       <path id="DejaVuSans-79" d="M 2059 -325 
Q 1816 -950 1584 -1140 
Q 1353 -1331 966 -1331 
L 506 -1331 
L 506 -850 
L 844 -850 
Q 1081 -850 1212 -737 
Q 1344 -625 1503 -206 
L 1606 56 
L 191 3500 
L 800 3500 
L 1894 763 
L 2988 3500 
L 3597 3500 
L 2059 -325 
z
" transform="scale(0.015625)"/>
      </defs>
      <use xlink:href="#DejaVuSans-73"/>
      <use xlink:href="#DejaVuSans-69" x="52.099609"/>
      <use xlink:href="#DejaVuSans-6e" x="79.882812"/>
      <use xlink:href="#DejaVuSans-64" x="143.261719"/>
      <use xlink:href="#DejaVuSans-79" x="206.738281"/>
     </g>
    </g>
   </g>
  </g>
  <g id="axes_2">
   <g id="patch_8">
    <path d="M 408.560938 318.04 
L 708.870937 318.04 
L 708.870937 36.72 
L 408.560938 36.72 
z
" style="fill: #ffffff"/>
   </g>
   <g id="matplotlib.axis_3">
    <g id="xtick_10">
     <g id="line2d_33">
      <path d="M 422.211392 318.04 
L 422.211392 36.72 
" clip-path="url(#pd681c42944)" style="fill: none; stroke: #b0b0b0; stroke-width: 0.8; stroke-linecap: square"/>
     </g>
     <g id="line2d_34">
      <g>
       <use xlink:href="#m3c664bd1b0" x="422.211392" y="318.04" style="stroke: #000000; stroke-width: 0.8"/>
      </g>
     </g>
     <g id="text_19">
      <!-- 0.0 -->
      <g transform="translate(414.25983 332.638437) scale(0.1 -0.1)">
       <use xlink:href="#DejaVuSans-30"/>
       <use xlink:href="#DejaVuSans-2e" x="63.623047"/>
       <use xlink:href="#DejaVuSans-30" x="95.410156"/>
      </g>
     </g>
    </g>
    <g id="xtick_11">
     <g id="line2d_35">
      <path d="M 456.337528 318.04 
L 456.337528 36.72 
" clip-path="url(#pd681c42944)" style="fill: none; stroke: #b0b0b0; stroke-width: 0.8; stroke-linecap: square"/>
     </g>
     <g id="line2d_36">
      <g>
       <use xlink:href="#m3c664bd1b0" x="456.337528" y="318.04" style="stroke: #000000; stroke-width: 0.8"/>
      </g>
     </g>
     <g id="text_20">
      <!-- 2.5 -->
      <g transform="translate(448.385966 332.638437) scale(0.1 -0.1)">
       <use xlink:href="#DejaVuSans-32"/>
       <use xlink:href="#DejaVuSans-2e" x="63.623047"/>
       <use xlink:href="#DejaVuSans-35" x="95.410156"/>
      </g>
     </g>
    </g>
    <g id="xtick_12">
     <g id="line2d_37">
      <path d="M 490.463665 318.04 
L 490.463665 36.72 
" clip-path="url(#pd681c42944)" style="fill: none; stroke: #b0b0b0; stroke-width: 0.8; stroke-linecap: square"/>
     </g>
     <g id="line2d_38">
      <g>
       <use xlink:href="#m3c664bd1b0" x="490.463665" y="318.04" style="stroke: #000000; stroke-width: 0.8"/>
      </g>
     </g>
     <g id="text_21">
      <!-- 5.0 -->
      <g transform="translate(482.512102 332.638437) scale(0.1 -0.1)">
       <use xlink:href="#DejaVuSans-35"/>
       <use xlink:href="#DejaVuSans-2e" x="63.623047"/>
       <use xlink:href="#DejaVuSans-30" x="95.410156"/>
      </g>
     </g>
    </g>
    <g id="xtick_13">
     <g id="line2d_39">
      <path d="M 524.589801 318.04 
L 524.589801 36.72 
" clip-path="url(#pd681c42944)" style="fill: none; stroke: #b0b0b0; stroke-width: 0.8; stroke-linecap: square"/>
     </g>
     <g id="line2d_40">
      <g>
       <use xlink:href="#m3c664bd1b0" x="524.589801" y="318.04" style="stroke: #000000; stroke-width: 0.8"/>
      </g>
     </g>
     <g id="text_22">
      <!-- 7.5 -->
      <g transform="translate(516.638239 332.638437) scale(0.1 -0.1)">
       <use xlink:href="#DejaVuSans-37"/>
       <use xlink:href="#DejaVuSans-2e" x="63.623047"/>
       <use xlink:href="#DejaVuSans-35" x="95.410156"/>
      </g>
     </g>
    </g>
    <g id="xtick_14">
     <g id="line2d_41">
      <path d="M 558.715937 318.04 
L 558.715937 36.72 
" clip-path="url(#pd681c42944)" style="fill: none; stroke: #b0b0b0; stroke-width: 0.8; stroke-linecap: square"/>
     </g>
     <g id="line2d_42">
      <g>
       <use xlink:href="#m3c664bd1b0" x="558.715937" y="318.04" style="stroke: #000000; stroke-width: 0.8"/>
      </g>
     </g>
     <g id="text_23">
      <!-- 10.0 -->
      <g transform="translate(547.583125 332.638437) scale(0.1 -0.1)">
       <use xlink:href="#DejaVuSans-31"/>
       <use xlink:href="#DejaVuSans-30" x="63.623047"/>
       <use xlink:href="#DejaVuSans-2e" x="127.246094"/>
       <use xlink:href="#DejaVuSans-30" x="159.033203"/>
      </g>
     </g>
    </g>
    <g id="xtick_15">
     <g id="line2d_43">
      <path d="M 592.842074 318.04 
L 592.842074 36.72 
" clip-path="url(#pd681c42944)" style="fill: none; stroke: #b0b0b0; stroke-width: 0.8; stroke-linecap: square"/>
     </g>
     <g id="line2d_44">
      <g>
       <use xlink:href="#m3c664bd1b0" x="592.842074" y="318.04" style="stroke: #000000; stroke-width: 0.8"/>
      </g>
     </g>
     <g id="text_24">
      <!-- 12.5 -->
      <g transform="translate(581.709261 332.638437) scale(0.1 -0.1)">
       <use xlink:href="#DejaVuSans-31"/>
       <use xlink:href="#DejaVuSans-32" x="63.623047"/>
       <use xlink:href="#DejaVuSans-2e" x="127.246094"/>
       <use xlink:href="#DejaVuSans-35" x="159.033203"/>
      </g>
     </g>
    </g>
    <g id="xtick_16">
     <g id="line2d_45">
      <path d="M 626.96821 318.04 
L 626.96821 36.72 
" clip-path="url(#pd681c42944)" style="fill: none; stroke: #b0b0b0; stroke-width: 0.8; stroke-linecap: square"/>
     </g>
     <g id="line2d_46">
      <g>
       <use xlink:href="#m3c664bd1b0" x="626.96821" y="318.04" style="stroke: #000000; stroke-width: 0.8"/>
      </g>
     </g>
     <g id="text_25">
      <!-- 15.0 -->
      <g transform="translate(615.835398 332.638437) scale(0.1 -0.1)">
       <use xlink:href="#DejaVuSans-31"/>
       <use xlink:href="#DejaVuSans-35" x="63.623047"/>
       <use xlink:href="#DejaVuSans-2e" x="127.246094"/>
       <use xlink:href="#DejaVuSans-30" x="159.033203"/>
      </g>
     </g>
    </g>
    <g id="xtick_17">
     <g id="line2d_47">
      <path d="M 661.094347 318.04 
L 661.094347 36.72 
" clip-path="url(#pd681c42944)" style="fill: none; stroke: #b0b0b0; stroke-width: 0.8; stroke-linecap: square"/>
     </g>
     <g id="line2d_48">
      <g>
       <use xlink:href="#m3c664bd1b0" x="661.094347" y="318.04" style="stroke: #000000; stroke-width: 0.8"/>
      </g>
     </g>
     <g id="text_26">
      <!-- 17.5 -->
      <g transform="translate(649.961534 332.638437) scale(0.1 -0.1)">
       <use xlink:href="#DejaVuSans-31"/>
       <use xlink:href="#DejaVuSans-37" x="63.623047"/>
       <use xlink:href="#DejaVuSans-2e" x="127.246094"/>
       <use xlink:href="#DejaVuSans-35" x="159.033203"/>
      </g>
     </g>
    </g>
    <g id="xtick_18">
     <g id="line2d_49">
      <path d="M 695.220483 318.04 
L 695.220483 36.72 
" clip-path="url(#pd681c42944)" style="fill: none; stroke: #b0b0b0; stroke-width: 0.8; stroke-linecap: square"/>
     </g>
     <g id="line2d_50">
      <g>
       <use xlink:href="#m3c664bd1b0" x="695.220483" y="318.04" style="stroke: #000000; stroke-width: 0.8"/>
      </g>
     </g>
     <g id="text_27">
      <!-- 20.0 -->
      <g transform="translate(684.08767 332.638437) scale(0.1 -0.1)">
       <use xlink:href="#DejaVuSans-32"/>
       <use xlink:href="#DejaVuSans-30" x="63.623047"/>
       <use xlink:href="#DejaVuSans-2e" x="127.246094"/>
       <use xlink:href="#DejaVuSans-30" x="159.033203"/>
      </g>
     </g>
    </g>
    <g id="text_28">
     <!-- t -->
     <g transform="translate(556.755781 346.316562) scale(0.1 -0.1)">
      <use xlink:href="#DejaVuSans-74"/>
     </g>
    </g>
   </g>
   <g id="matplotlib.axis_4">
    <g id="ytick_6">
     <g id="line2d_51">
      <path d="M 408.560938 303.784213 
L 708.870937 303.784213 
" clip-path="url(#pd681c42944)" style="fill: none; stroke: #b0b0b0; stroke-width: 0.8; stroke-linecap: square"/>
     </g>
     <g id="line2d_52">
      <g>
       <use xlink:href="#m5c22ea8fea" x="408.560938" y="303.784213" style="stroke: #000000; stroke-width: 0.8"/>
      </g>
     </g>
     <g id="text_29">
      <!-- −0.4 -->
      <g transform="translate(377.278125 307.583432) scale(0.1 -0.1)">
       <defs>
        <path id="DejaVuSans-34" d="M 2419 4116 
L 825 1625 
L 2419 1625 
L 2419 4116 
z
M 2253 4666 
L 3047 4666 
L 3047 1625 
L 3713 1625 
L 3713 1100 
L 3047 1100 
L 3047 0 
L 2419 0 
L 2419 1100 
L 313 1100 
L 313 1709 
L 2253 4666 
z
" transform="scale(0.015625)"/>
       </defs>
       <use xlink:href="#DejaVuSans-2212"/>
       <use xlink:href="#DejaVuSans-30" x="83.789062"/>
       <use xlink:href="#DejaVuSans-2e" x="147.412109"/>
       <use xlink:href="#DejaVuSans-34" x="179.199219"/>
      </g>
     </g>
    </g>
    <g id="ytick_7">
     <g id="line2d_53">
      <path d="M 408.560938 271.2618 
L 708.870937 271.2618 
" clip-path="url(#pd681c42944)" style="fill: none; stroke: #b0b0b0; stroke-width: 0.8; stroke-linecap: square"/>
     </g>
     <g id="line2d_54">
      <g>
       <use xlink:href="#m5c22ea8fea" x="408.560938" y="271.2618" style="stroke: #000000; stroke-width: 0.8"/>
      </g>
     </g>
     <g id="text_30">
      <!-- −0.3 -->
      <g transform="translate(377.278125 275.061019) scale(0.1 -0.1)">
       <defs>
        <path id="DejaVuSans-33" d="M 2597 2516 
Q 3050 2419 3304 2112 
Q 3559 1806 3559 1356 
Q 3559 666 3084 287 
Q 2609 -91 1734 -91 
Q 1441 -91 1130 -33 
Q 819 25 488 141 
L 488 750 
Q 750 597 1062 519 
Q 1375 441 1716 441 
Q 2309 441 2620 675 
Q 2931 909 2931 1356 
Q 2931 1769 2642 2001 
Q 2353 2234 1838 2234 
L 1294 2234 
L 1294 2753 
L 1863 2753 
Q 2328 2753 2575 2939 
Q 2822 3125 2822 3475 
Q 2822 3834 2567 4026 
Q 2313 4219 1838 4219 
Q 1578 4219 1281 4162 
Q 984 4106 628 3988 
L 628 4550 
Q 988 4650 1302 4700 
Q 1616 4750 1894 4750 
Q 2613 4750 3031 4423 
Q 3450 4097 3450 3541 
Q 3450 3153 3228 2886 
Q 3006 2619 2597 2516 
z
" transform="scale(0.015625)"/>
       </defs>
       <use xlink:href="#DejaVuSans-2212"/>
       <use xlink:href="#DejaVuSans-30" x="83.789062"/>
       <use xlink:href="#DejaVuSans-2e" x="147.412109"/>
       <use xlink:href="#DejaVuSans-33" x="179.199219"/>
      </g>
     </g>
    </g>
    <g id="ytick_8">
     <g id="line2d_55">
      <path d="M 408.560938 238.739387 
L 708.870937 238.739387 
" clip-path="url(#pd681c42944)" style="fill: none; stroke: #b0b0b0; stroke-width: 0.8; stroke-linecap: square"/>
     </g>
     <g id="line2d_56">
      <g>
       <use xlink:href="#m5c22ea8fea" x="408.560938" y="238.739387" style="stroke: #000000; stroke-width: 0.8"/>
      </g>
     </g>
     <g id="text_31">
      <!-- −0.2 -->
      <g transform="translate(377.278125 242.538606) scale(0.1 -0.1)">
       <use xlink:href="#DejaVuSans-2212"/>
       <use xlink:href="#DejaVuSans-30" x="83.789062"/>
       <use xlink:href="#DejaVuSans-2e" x="147.412109"/>
       <use xlink:href="#DejaVuSans-32" x="179.199219"/>
      </g>
     </g>
    </g>
    <g id="ytick_9">
     <g id="line2d_57">
      <path d="M 408.560938 206.216974 
L 708.870937 206.216974 
" clip-path="url(#pd681c42944)" style="fill: none; stroke: #b0b0b0; stroke-width: 0.8; stroke-linecap: square"/>
     </g>
     <g id="line2d_58">
      <g>
       <use xlink:href="#m5c22ea8fea" x="408.560938" y="206.216974" style="stroke: #000000; stroke-width: 0.8"/>
      </g>
     </g>
     <g id="text_32">
      <!-- −0.1 -->
      <g transform="translate(377.278125 210.016193) scale(0.1 -0.1)">
       <use xlink:href="#DejaVuSans-2212"/>
       <use xlink:href="#DejaVuSans-30" x="83.789062"/>
       <use xlink:href="#DejaVuSans-2e" x="147.412109"/>
       <use xlink:href="#DejaVuSans-31" x="179.199219"/>
      </g>
     </g>
    </g>
    <g id="ytick_10">
     <g id="line2d_59">
      <path d="M 408.560938 173.694561 
L 708.870937 173.694561 
" clip-path="url(#pd681c42944)" style="fill: none; stroke: #b0b0b0; stroke-width: 0.8; stroke-linecap: square"/>
     </g>
     <g id="line2d_60">
      <g>
       <use xlink:href="#m5c22ea8fea" x="408.560938" y="173.694561" style="stroke: #000000; stroke-width: 0.8"/>
      </g>
     </g>
     <g id="text_33">
      <!-- 0.0 -->
      <g transform="translate(385.657813 177.49378) scale(0.1 -0.1)">
       <use xlink:href="#DejaVuSans-30"/>
       <use xlink:href="#DejaVuSans-2e" x="63.623047"/>
       <use xlink:href="#DejaVuSans-30" x="95.410156"/>
      </g>
     </g>
    </g>
    <g id="ytick_11">
     <g id="line2d_61">
      <path d="M 408.560938 141.172148 
L 708.870937 141.172148 
" clip-path="url(#pd681c42944)" style="fill: none; stroke: #b0b0b0; stroke-width: 0.8; stroke-linecap: square"/>
     </g>
     <g id="line2d_62">
      <g>
       <use xlink:href="#m5c22ea8fea" x="408.560938" y="141.172148" style="stroke: #000000; stroke-width: 0.8"/>
      </g>
     </g>
     <g id="text_34">
      <!-- 0.1 -->
      <g transform="translate(385.657813 144.971367) scale(0.1 -0.1)">
       <use xlink:href="#DejaVuSans-30"/>
       <use xlink:href="#DejaVuSans-2e" x="63.623047"/>
       <use xlink:href="#DejaVuSans-31" x="95.410156"/>
      </g>
     </g>
    </g>
    <g id="ytick_12">
     <g id="line2d_63">
      <path d="M 408.560938 108.649736 
L 708.870937 108.649736 
" clip-path="url(#pd681c42944)" style="fill: none; stroke: #b0b0b0; stroke-width: 0.8; stroke-linecap: square"/>
     </g>
     <g id="line2d_64">
      <g>
       <use xlink:href="#m5c22ea8fea" x="408.560938" y="108.649736" style="stroke: #000000; stroke-width: 0.8"/>
      </g>
     </g>
     <g id="text_35">
      <!-- 0.2 -->
      <g transform="translate(385.657813 112.448954) scale(0.1 -0.1)">
       <use xlink:href="#DejaVuSans-30"/>
       <use xlink:href="#DejaVuSans-2e" x="63.623047"/>
       <use xlink:href="#DejaVuSans-32" x="95.410156"/>
      </g>
     </g>
    </g>
    <g id="ytick_13">
     <g id="line2d_65">
      <path d="M 408.560938 76.127323 
L 708.870937 76.127323 
" clip-path="url(#pd681c42944)" style="fill: none; stroke: #b0b0b0; stroke-width: 0.8; stroke-linecap: square"/>
     </g>
     <g id="line2d_66">
      <g>
       <use xlink:href="#m5c22ea8fea" x="408.560938" y="76.127323" style="stroke: #000000; stroke-width: 0.8"/>
      </g>
     </g>
     <g id="text_36">
      <!-- 0.3 -->
      <g transform="translate(385.657813 79.926541) scale(0.1 -0.1)">
       <use xlink:href="#DejaVuSans-30"/>
       <use xlink:href="#DejaVuSans-2e" x="63.623047"/>
       <use xlink:href="#DejaVuSans-33" x="95.410156"/>
      </g>
     </g>
    </g>
    <g id="ytick_14">
     <g id="line2d_67">
      <path d="M 408.560938 43.60491 
L 708.870937 43.60491 
" clip-path="url(#pd681c42944)" style="fill: none; stroke: #b0b0b0; stroke-width: 0.8; stroke-linecap: square"/>
     </g>
     <g id="line2d_68">
      <g>
       <use xlink:href="#m5c22ea8fea" x="408.560938" y="43.60491" style="stroke: #000000; stroke-width: 0.8"/>
      </g>
     </g>
     <g id="text_37">
      <!-- 0.4 -->
      <g transform="translate(385.657813 47.404128) scale(0.1 -0.1)">
       <use xlink:href="#DejaVuSans-30"/>
       <use xlink:href="#DejaVuSans-2e" x="63.623047"/>
       <use xlink:href="#DejaVuSans-34" x="95.410156"/>
      </g>
     </g>
    </g>
    <g id="text_38">
     <!-- Fr(t) -->
     <g transform="translate(371.198438 187.810469) rotate(-90) scale(0.1 -0.1)">
      <defs>
       <path id="DejaVuSans-46" d="M 628 4666 
L 3309 4666 
L 3309 4134 
L 1259 4134 
L 1259 2759 
L 3109 2759 
L 3109 2228 
L 1259 2228 
L 1259 0 
L 628 0 
L 628 4666 
z
" transform="scale(0.015625)"/>
       <path id="DejaVuSans-72" d="M 2631 2963 
Q 2534 3019 2420 3045 
Q 2306 3072 2169 3072 
Q 1681 3072 1420 2755 
Q 1159 2438 1159 1844 
L 1159 0 
L 581 0 
L 581 3500 
L 1159 3500 
L 1159 2956 
Q 1341 3275 1631 3429 
Q 1922 3584 2338 3584 
Q 2397 3584 2469 3576 
Q 2541 3569 2628 3553 
L 2631 2963 
z
" transform="scale(0.015625)"/>
      </defs>
      <use xlink:href="#DejaVuSans-46"/>
      <use xlink:href="#DejaVuSans-72" x="50.269531"/>
      <use xlink:href="#DejaVuSans-28" x="91.382812"/>
      <use xlink:href="#DejaVuSans-74" x="130.396484"/>
      <use xlink:href="#DejaVuSans-29" x="169.605469"/>
     </g>
    </g>
   </g>
   <g id="line2d_69">
    <path d="M 422.211392 173.694561 
L 430.409863 173.593714 
L 433.689252 173.32123 
L 436.148793 172.910839 
L 438.335052 172.341351 
L 440.521311 171.537 
L 442.434288 170.614527 
L 444.347264 169.472101 
L 446.533523 167.889218 
L 448.719782 166.016669 
L 451.179324 163.593975 
L 453.912147 160.58287 
L 458.284665 155.377708 
L 462.383901 150.594531 
L 464.843442 148.044506 
L 466.756419 146.343635 
L 468.396113 145.140499 
L 470.035807 144.218432 
L 471.402219 143.695817 
L 472.768631 143.422974 
L 473.861761 143.403987 
L 474.95489 143.607466 
L 476.04802 144.055622 
L 477.141149 144.76141 
L 478.234279 145.736279 
L 479.327408 146.989999 
L 480.69382 148.961178 
L 482.060232 151.39139 
L 483.426644 154.286447 
L 485.066338 158.373949 
L 486.706032 163.119752 
L 488.619009 169.455937 
L 490.805268 177.62637 
L 494.631221 192.941228 
L 499.550304 212.466064 
L 502.283127 222.408806 
L 504.469386 229.624758 
L 506.655645 236.062184 
L 508.568622 240.992241 
L 510.208316 244.664045 
L 511.84801 247.804096 
L 513.214422 250.002926 
L 514.580834 251.812539 
L 515.947246 253.223878 
L 517.040376 254.059413 
L 518.133505 254.627538 
L 519.226635 254.921199 
L 520.046482 254.950155 
L 520.866329 254.69811 
L 521.686176 254.117349 
L 522.506023 253.201765 
L 523.32587 251.946484 
L 524.145717 250.347903 
L 525.238847 247.678676 
L 526.331976 244.393529 
L 527.698388 239.425453 
L 529.0648 233.514533 
L 530.431212 226.686828 
L 532.070906 217.336489 
L 533.983883 204.942212 
L 536.170142 189.033873 
L 538.902965 167.156943 
L 541.635789 146.009117 
L 543.822048 130.674571 
L 545.735025 118.610749 
L 547.648001 107.877606 
L 549.560978 98.476688 
L 551.200672 91.449466 
L 552.840366 85.331147 
L 554.480061 80.073485 
L 556.119755 75.625936 
L 557.486167 72.503179 
L 558.852579 69.883359 
L 560.218991 67.744192 
L 561.585402 66.067619 
L 562.678532 65.050412 
L 563.771661 64.316529 
L 564.864791 63.8642 
L 565.95792 63.694288 
L 566.504485 63.762991 
L 567.05105 64.045486 
L 567.597615 64.546023 
L 568.417462 65.708139 
L 569.237309 67.36579 
L 570.057156 69.51938 
L 571.150285 73.159257 
L 572.243415 77.668432 
L 573.336544 83.031226 
L 574.702956 90.900976 
L 576.069368 100.012861 
L 577.709062 112.484683 
L 579.622039 128.960743 
L 581.808298 149.971992 
L 584.814404 181.534413 
L 587.000663 203.095755 
L 588.91364 219.775243 
L 590.826616 234.344617 
L 592.466311 245.193406 
L 594.106005 254.611701 
L 595.745699 262.702284 
L 597.385393 269.577893 
L 598.751805 274.461164 
L 600.118217 278.641483 
L 601.484629 282.175945 
L 602.851041 285.115293 
L 604.217453 287.503067 
L 605.583865 289.375062 
L 606.676994 290.520177 
L 607.770124 291.363384 
L 608.863253 291.911463 
L 609.956382 292.167563 
L 610.77623 292.115429 
L 611.322794 291.789029 
L 611.869359 291.199594 
L 612.415924 290.346404 
L 613.235771 288.57169 
L 614.055618 286.204347 
L 614.875465 283.248087 
L 615.968595 278.401352 
L 617.061724 272.540385 
L 618.428136 263.833078 
L 619.794548 253.660753 
L 621.434242 239.650195 
L 623.347219 221.061938 
L 625.533478 197.305556 
L 630.999125 135.697892 
L 632.638819 120.614777 
L 634.278514 107.409903 
L 635.918208 95.991437 
L 637.557902 86.226044 
L 639.197596 77.960448 
L 640.564008 72.10448 
L 641.93042 67.092934 
L 643.296832 62.84441 
L 644.663244 59.285703 
L 646.029656 56.352909 
L 647.396068 53.99201 
L 648.489197 52.485228 
L 649.582327 51.298429 
L 650.675456 50.418067 
L 651.768586 49.834827 
L 652.861715 49.543683 
L 653.681562 49.54437 
L 654.228127 49.840865 
L 654.774692 50.434873 
L 655.321256 51.327249 
L 656.141104 53.225738 
L 656.960951 55.7947 
L 657.780798 59.029895 
L 658.873927 64.367182 
L 659.967057 70.851271 
L 661.333469 80.517117 
L 662.699881 91.837122 
L 664.339575 107.455086 
L 666.252551 128.199683 
L 668.43881 154.725532 
L 672.811328 209.262937 
L 674.451023 226.208217 
L 676.090717 240.961205 
L 677.730411 253.635468 
L 679.370105 264.400483 
L 680.736517 272.053932 
L 682.102929 278.63419 
L 683.469341 284.254291 
L 684.835753 289.019615 
L 686.202165 293.025447 
L 687.568577 296.355667 
L 688.934988 299.082214 
L 690.3014 301.265053 
L 691.39453 302.652643 
L 692.487659 303.742749 
L 693.580789 304.5502 
L 694.673918 305.085309 
L 695.220483 305.252727 
L 695.220483 305.252727 
" clip-path="url(#pd681c42944)" style="fill: none; stroke: #0000ff; stroke-width: 1.5; stroke-linecap: square"/>
   </g>
   <g id="line2d_70">
    <path d="M 422.211392 173.694561 
L 424.944216 174.081044 
L 427.403757 174.196039 
L 429.863298 174.069473 
L 432.32284 173.693424 
L 434.782381 173.073097 
L 437.241923 172.227329 
L 440.248029 170.935646 
L 444.073982 169.011232 
L 451.179324 165.369799 
L 453.912147 164.237464 
L 456.371689 163.466664 
L 458.557948 163.02757 
L 460.470924 162.85985 
L 462.383901 162.910262 
L 464.296878 163.187403 
L 466.209854 163.69277 
L 468.122831 164.420404 
L 470.30909 165.506403 
L 472.768631 167.013034 
L 475.501455 168.964232 
L 479.873973 172.409419 
L 483.973208 175.558458 
L 486.43275 177.196292 
L 488.619009 178.389683 
L 490.531985 179.177631 
L 492.17168 179.63294 
L 493.811374 179.865125 
L 495.451068 179.860122 
L 497.090762 179.60897 
L 498.730457 179.108124 
L 500.370151 178.359667 
L 502.009845 177.371441 
L 503.922822 175.933997 
L 505.835798 174.220614 
L 508.022057 171.978963 
L 511.028163 168.545141 
L 518.133505 160.240135 
L 520.319764 158.08194 
L 522.232741 156.503717 
L 523.872435 155.434111 
L 525.238847 154.77017 
L 526.605259 154.331776 
L 527.971671 154.133097 
L 529.338082 154.184704 
L 530.704494 154.493359 
L 532.070906 155.06186 
L 533.437318 155.888933 
L 534.80373 156.969171 
L 536.443424 158.585871 
L 538.083118 160.52871 
L 539.996095 163.163162 
L 542.182354 166.576211 
L 545.18846 171.748051 
L 551.200672 182.258752 
L 553.386931 185.589666 
L 555.299908 188.077146 
L 556.939602 189.813506 
L 558.306014 190.940747 
L 559.672426 191.750221 
L 560.765555 192.15534 
L 561.858685 192.336268 
L 562.951814 192.287275 
L 564.044944 192.004742 
L 565.138073 191.487096 
L 566.231203 190.734757 
L 567.324332 189.750068 
L 568.690744 188.199092 
L 570.057156 186.304193 
L 571.69685 183.6006 
L 573.336544 180.465037 
L 575.249521 176.327234 
L 577.709062 170.402707 
L 581.535016 160.438754 
L 585.087687 151.333504 
L 587.273946 146.289249 
L 588.91364 142.968581 
L 590.553334 140.148435 
L 591.919746 138.239538 
L 593.012875 137.030378 
L 594.106005 136.122679 
L 595.199134 135.5307 
L 596.018981 135.300786 
L 596.838829 135.258462 
L 597.658676 135.406355 
L 598.478523 135.746107 
L 599.29837 136.278373 
L 600.391499 137.286826 
L 601.484629 138.633401 
L 602.577758 140.311679 
L 603.94417 142.86155 
L 605.310582 145.890703 
L 606.950276 150.114414 
L 608.863253 155.769057 
L 611.049512 163.02912 
L 613.782336 172.94035 
L 619.794548 195.050072 
L 621.707525 201.209063 
L 623.347219 205.827964 
L 624.713631 209.116456 
L 626.080043 211.835226 
L 627.173172 213.572131 
L 628.266302 214.903887 
L 629.086149 215.631482 
L 629.905996 216.124526 
L 630.725843 216.382695 
L 631.54569 216.406887 
L 632.365537 216.199035 
L 633.185384 215.761912 
L 634.005231 215.098944 
L 635.098361 213.870472 
L 636.19149 212.257565 
L 637.28462 210.270796 
L 638.651032 207.277853 
L 640.017444 203.738111 
L 641.657138 198.797907 
L 643.296832 193.13872 
L 645.209809 185.690544 
L 647.396068 176.192321 
L 650.128891 163.196568 
L 656.687668 131.351341 
L 658.600645 123.256995 
L 660.240339 117.147377 
L 661.606751 112.746268 
L 662.973163 109.048042 
L 664.066292 106.639608 
L 665.159422 104.754915 
L 665.979269 103.70353 
L 666.799116 102.976039 
L 667.618963 102.583466 
L 668.165528 102.512598 
L 668.712093 102.597219 
L 669.258657 102.839231 
L 670.078505 103.500248 
L 670.898352 104.520644 
L 671.718199 105.899516 
L 672.811328 108.287944 
L 673.904458 111.287218 
L 675.27087 115.852986 
L 676.637282 121.262921 
L 678.276976 128.76314 
L 680.189952 138.736861 
L 682.376211 151.498083 
L 685.109035 169.007904 
L 692.214377 215.596585 
L 694.127353 226.105502 
L 695.220483 231.370789 
L 695.220483 231.370789 
" clip-path="url(#pd681c42944)" style="fill: none; stroke-dasharray: 5.55,2.4; stroke-dashoffset: 0; stroke: #ff0000; stroke-width: 1.5"/>
   </g>
   <g id="patch_9">
    <path d="M 408.560938 318.04 
L 408.560938 36.72 
" style="fill: none; stroke: #000000; stroke-width: 0.8; stroke-linejoin: miter; stroke-linecap: square"/>
   </g>
   <g id="patch_10">
    <path d="M 708.870937 318.04 
L 708.870937 36.72 
" style="fill: none; stroke: #000000; stroke-width: 0.8; stroke-linejoin: miter; stroke-linecap: square"/>
   </g>
   <g id="patch_11">
    <path d="M 408.560938 318.04 
L 708.870937 318.04 
" style="fill: none; stroke: #000000; stroke-width: 0.8; stroke-linejoin: miter; stroke-linecap: square"/>
   </g>
   <g id="patch_12">
    <path d="M 408.560938 36.72 
L 708.870937 36.72 
" style="fill: none; stroke: #000000; stroke-width: 0.8; stroke-linejoin: miter; stroke-linecap: square"/>
   </g>
   <g id="legend_2">
    <g id="patch_13">
     <path d="M 415.560938 74.07625 
L 474.153125 74.07625 
Q 476.153125 74.07625 476.153125 72.07625 
L 476.153125 43.72 
Q 476.153125 41.72 474.153125 41.72 
L 415.560938 41.72 
Q 413.560938 41.72 413.560938 43.72 
L 413.560938 72.07625 
Q 413.560938 74.07625 415.560938 74.07625 
z
" style="fill: #ffffff; opacity: 0.8; stroke: #cccccc; stroke-linejoin: miter"/>
    </g>
    <g id="line2d_71">
     <path d="M 417.560938 49.818437 
L 427.560938 49.818437 
L 437.560938 49.818437 
" style="fill: none; stroke: #0000ff; stroke-width: 1.5; stroke-linecap: square"/>
    </g>
    <g id="text_39">
     <!-- data -->
     <g transform="translate(445.560938 53.318437) scale(0.1 -0.1)">
      <use xlink:href="#DejaVuSans-64"/>
      <use xlink:href="#DejaVuSans-61" x="63.476562"/>
      <use xlink:href="#DejaVuSans-74" x="124.755859"/>
      <use xlink:href="#DejaVuSans-61" x="163.964844"/>
     </g>
    </g>
    <g id="line2d_72">
     <path d="M 417.560938 64.496562 
L 427.560938 64.496562 
L 437.560938 64.496562 
" style="fill: none; stroke-dasharray: 5.55,2.4; stroke-dashoffset: 0; stroke: #ff0000; stroke-width: 1.5"/>
    </g>
    <g id="text_40">
     <!-- sindy -->
     <g transform="translate(445.560938 67.996562) scale(0.1 -0.1)">
      <use xlink:href="#DejaVuSans-73"/>
      <use xlink:href="#DejaVuSans-69" x="52.099609"/>
      <use xlink:href="#DejaVuSans-6e" x="79.882812"/>
      <use xlink:href="#DejaVuSans-64" x="143.261719"/>
      <use xlink:href="#DejaVuSans-79" x="206.738281"/>
     </g>
    </g>
   </g>
  </g>
  <g id="axes_3">
   <g id="patch_14">
    <path d="M 764.960938 318.04 
L 1065.270937 318.04 
L 1065.270937 36.72 
L 764.960938 36.72 
z
" style="fill: #ffffff"/>
   </g>
   <g id="matplotlib.axis_5">
    <g id="xtick_19">
     <g id="line2d_73">
      <path d="M 808.084699 318.04 
L 808.084699 36.72 
" clip-path="url(#p17f70e3a77)" style="fill: none; stroke: #b0b0b0; stroke-width: 0.8; stroke-linecap: square"/>
     </g>
     <g id="line2d_74">
      <g>
       <use xlink:href="#m3c664bd1b0" x="808.084699" y="318.04" style="stroke: #000000; stroke-width: 0.8"/>
      </g>
     </g>
     <g id="text_41">
      <!-- −1.0 -->
      <g transform="translate(795.943293 332.638437) scale(0.1 -0.1)">
       <use xlink:href="#DejaVuSans-2212"/>
       <use xlink:href="#DejaVuSans-31" x="83.789062"/>
       <use xlink:href="#DejaVuSans-2e" x="147.412109"/>
       <use xlink:href="#DejaVuSans-30" x="179.199219"/>
      </g>
     </g>
    </g>
    <g id="xtick_20">
     <g id="line2d_75">
      <path d="M 865.148859 318.04 
L 865.148859 36.72 
" clip-path="url(#p17f70e3a77)" style="fill: none; stroke: #b0b0b0; stroke-width: 0.8; stroke-linecap: square"/>
     </g>
     <g id="line2d_76">
      <g>
       <use xlink:href="#m3c664bd1b0" x="865.148859" y="318.04" style="stroke: #000000; stroke-width: 0.8"/>
      </g>
     </g>
     <g id="text_42">
      <!-- −0.5 -->
      <g transform="translate(853.007452 332.638437) scale(0.1 -0.1)">
       <use xlink:href="#DejaVuSans-2212"/>
       <use xlink:href="#DejaVuSans-30" x="83.789062"/>
       <use xlink:href="#DejaVuSans-2e" x="147.412109"/>
       <use xlink:href="#DejaVuSans-35" x="179.199219"/>
      </g>
     </g>
    </g>
    <g id="xtick_21">
     <g id="line2d_77">
      <path d="M 922.213018 318.04 
L 922.213018 36.72 
" clip-path="url(#p17f70e3a77)" style="fill: none; stroke: #b0b0b0; stroke-width: 0.8; stroke-linecap: square"/>
     </g>
     <g id="line2d_78">
      <g>
       <use xlink:href="#m3c664bd1b0" x="922.213018" y="318.04" style="stroke: #000000; stroke-width: 0.8"/>
      </g>
     </g>
     <g id="text_43">
      <!-- 0.0 -->
      <g transform="translate(914.261456 332.638437) scale(0.1 -0.1)">
       <use xlink:href="#DejaVuSans-30"/>
       <use xlink:href="#DejaVuSans-2e" x="63.623047"/>
       <use xlink:href="#DejaVuSans-30" x="95.410156"/>
      </g>
     </g>
    </g>
    <g id="xtick_22">
     <g id="line2d_79">
      <path d="M 979.277178 318.04 
L 979.277178 36.72 
" clip-path="url(#p17f70e3a77)" style="fill: none; stroke: #b0b0b0; stroke-width: 0.8; stroke-linecap: square"/>
     </g>
     <g id="line2d_80">
      <g>
       <use xlink:href="#m3c664bd1b0" x="979.277178" y="318.04" style="stroke: #000000; stroke-width: 0.8"/>
      </g>
     </g>
     <g id="text_44">
      <!-- 0.5 -->
      <g transform="translate(971.325615 332.638437) scale(0.1 -0.1)">
       <use xlink:href="#DejaVuSans-30"/>
       <use xlink:href="#DejaVuSans-2e" x="63.623047"/>
       <use xlink:href="#DejaVuSans-35" x="95.410156"/>
      </g>
     </g>
    </g>
    <g id="xtick_23">
     <g id="line2d_81">
      <path d="M 1036.341337 318.04 
L 1036.341337 36.72 
" clip-path="url(#p17f70e3a77)" style="fill: none; stroke: #b0b0b0; stroke-width: 0.8; stroke-linecap: square"/>
     </g>
     <g id="line2d_82">
      <g>
       <use xlink:href="#m3c664bd1b0" x="1036.341337" y="318.04" style="stroke: #000000; stroke-width: 0.8"/>
      </g>
     </g>
     <g id="text_45">
      <!-- 1.0 -->
      <g transform="translate(1028.389774 332.638437) scale(0.1 -0.1)">
       <use xlink:href="#DejaVuSans-31"/>
       <use xlink:href="#DejaVuSans-2e" x="63.623047"/>
       <use xlink:href="#DejaVuSans-30" x="95.410156"/>
      </g>
     </g>
    </g>
    <g id="text_46">
     <!-- x(t) -->
     <g transform="translate(906.294844 346.316562) scale(0.1 -0.1)">
      <use xlink:href="#DejaVuSans-78"/>
      <use xlink:href="#DejaVuSans-28" x="59.179688"/>
      <use xlink:href="#DejaVuSans-74" x="98.193359"/>
      <use xlink:href="#DejaVuSans-29" x="137.402344"/>
     </g>
    </g>
   </g>
   <g id="matplotlib.axis_6">
    <g id="ytick_15">
     <g id="line2d_83">
      <path d="M 764.960938 303.784213 
L 1065.270937 303.784213 
" clip-path="url(#p17f70e3a77)" style="fill: none; stroke: #b0b0b0; stroke-width: 0.8; stroke-linecap: square"/>
     </g>
     <g id="line2d_84">
      <g>
       <use xlink:href="#m5c22ea8fea" x="764.960938" y="303.784213" style="stroke: #000000; stroke-width: 0.8"/>
      </g>
     </g>
     <g id="text_47">
      <!-- −0.4 -->
      <g transform="translate(733.678125 307.583432) scale(0.1 -0.1)">
       <use xlink:href="#DejaVuSans-2212"/>
       <use xlink:href="#DejaVuSans-30" x="83.789062"/>
       <use xlink:href="#DejaVuSans-2e" x="147.412109"/>
       <use xlink:href="#DejaVuSans-34" x="179.199219"/>
      </g>
     </g>
    </g>
    <g id="ytick_16">
     <g id="line2d_85">
      <path d="M 764.960938 271.2618 
L 1065.270937 271.2618 
" clip-path="url(#p17f70e3a77)" style="fill: none; stroke: #b0b0b0; stroke-width: 0.8; stroke-linecap: square"/>
     </g>
     <g id="line2d_86">
      <g>
       <use xlink:href="#m5c22ea8fea" x="764.960938" y="271.2618" style="stroke: #000000; stroke-width: 0.8"/>
      </g>
     </g>
     <g id="text_48">
      <!-- −0.3 -->
      <g transform="translate(733.678125 275.061019) scale(0.1 -0.1)">
       <use xlink:href="#DejaVuSans-2212"/>
       <use xlink:href="#DejaVuSans-30" x="83.789062"/>
       <use xlink:href="#DejaVuSans-2e" x="147.412109"/>
       <use xlink:href="#DejaVuSans-33" x="179.199219"/>
      </g>
     </g>
    </g>
    <g id="ytick_17">
     <g id="line2d_87">
      <path d="M 764.960938 238.739387 
L 1065.270937 238.739387 
" clip-path="url(#p17f70e3a77)" style="fill: none; stroke: #b0b0b0; stroke-width: 0.8; stroke-linecap: square"/>
     </g>
     <g id="line2d_88">
      <g>
       <use xlink:href="#m5c22ea8fea" x="764.960938" y="238.739387" style="stroke: #000000; stroke-width: 0.8"/>
      </g>
     </g>
     <g id="text_49">
      <!-- −0.2 -->
      <g transform="translate(733.678125 242.538606) scale(0.1 -0.1)">
       <use xlink:href="#DejaVuSans-2212"/>
       <use xlink:href="#DejaVuSans-30" x="83.789062"/>
       <use xlink:href="#DejaVuSans-2e" x="147.412109"/>
       <use xlink:href="#DejaVuSans-32" x="179.199219"/>
      </g>
     </g>
    </g>
    <g id="ytick_18">
     <g id="line2d_89">
      <path d="M 764.960938 206.216974 
L 1065.270937 206.216974 
" clip-path="url(#p17f70e3a77)" style="fill: none; stroke: #b0b0b0; stroke-width: 0.8; stroke-linecap: square"/>
     </g>
     <g id="line2d_90">
      <g>
       <use xlink:href="#m5c22ea8fea" x="764.960938" y="206.216974" style="stroke: #000000; stroke-width: 0.8"/>
      </g>
     </g>
     <g id="text_50">
      <!-- −0.1 -->
      <g transform="translate(733.678125 210.016193) scale(0.1 -0.1)">
       <use xlink:href="#DejaVuSans-2212"/>
       <use xlink:href="#DejaVuSans-30" x="83.789062"/>
       <use xlink:href="#DejaVuSans-2e" x="147.412109"/>
       <use xlink:href="#DejaVuSans-31" x="179.199219"/>
      </g>
     </g>
    </g>
    <g id="ytick_19">
     <g id="line2d_91">
      <path d="M 764.960938 173.694561 
L 1065.270937 173.694561 
" clip-path="url(#p17f70e3a77)" style="fill: none; stroke: #b0b0b0; stroke-width: 0.8; stroke-linecap: square"/>
     </g>
     <g id="line2d_92">
      <g>
       <use xlink:href="#m5c22ea8fea" x="764.960938" y="173.694561" style="stroke: #000000; stroke-width: 0.8"/>
      </g>
     </g>
     <g id="text_51">
      <!-- 0.0 -->
      <g transform="translate(742.057812 177.49378) scale(0.1 -0.1)">
       <use xlink:href="#DejaVuSans-30"/>
       <use xlink:href="#DejaVuSans-2e" x="63.623047"/>
       <use xlink:href="#DejaVuSans-30" x="95.410156"/>
      </g>
     </g>
    </g>
    <g id="ytick_20">
     <g id="line2d_93">
      <path d="M 764.960938 141.172148 
L 1065.270937 141.172148 
" clip-path="url(#p17f70e3a77)" style="fill: none; stroke: #b0b0b0; stroke-width: 0.8; stroke-linecap: square"/>
     </g>
     <g id="line2d_94">
      <g>
       <use xlink:href="#m5c22ea8fea" x="764.960938" y="141.172148" style="stroke: #000000; stroke-width: 0.8"/>
      </g>
     </g>
     <g id="text_52">
      <!-- 0.1 -->
      <g transform="translate(742.057812 144.971367) scale(0.1 -0.1)">
       <use xlink:href="#DejaVuSans-30"/>
       <use xlink:href="#DejaVuSans-2e" x="63.623047"/>
       <use xlink:href="#DejaVuSans-31" x="95.410156"/>
      </g>
     </g>
    </g>
    <g id="ytick_21">
     <g id="line2d_95">
      <path d="M 764.960938 108.649736 
L 1065.270937 108.649736 
" clip-path="url(#p17f70e3a77)" style="fill: none; stroke: #b0b0b0; stroke-width: 0.8; stroke-linecap: square"/>
     </g>
     <g id="line2d_96">
      <g>
       <use xlink:href="#m5c22ea8fea" x="764.960938" y="108.649736" style="stroke: #000000; stroke-width: 0.8"/>
      </g>
     </g>
     <g id="text_53">
      <!-- 0.2 -->
      <g transform="translate(742.057812 112.448954) scale(0.1 -0.1)">
       <use xlink:href="#DejaVuSans-30"/>
       <use xlink:href="#DejaVuSans-2e" x="63.623047"/>
       <use xlink:href="#DejaVuSans-32" x="95.410156"/>
      </g>
     </g>
    </g>
    <g id="ytick_22">
     <g id="line2d_97">
      <path d="M 764.960938 76.127323 
L 1065.270937 76.127323 
" clip-path="url(#p17f70e3a77)" style="fill: none; stroke: #b0b0b0; stroke-width: 0.8; stroke-linecap: square"/>
     </g>
     <g id="line2d_98">
      <g>
       <use xlink:href="#m5c22ea8fea" x="764.960938" y="76.127323" style="stroke: #000000; stroke-width: 0.8"/>
      </g>
     </g>
     <g id="text_54">
      <!-- 0.3 -->
      <g transform="translate(742.057812 79.926541) scale(0.1 -0.1)">
       <use xlink:href="#DejaVuSans-30"/>
       <use xlink:href="#DejaVuSans-2e" x="63.623047"/>
       <use xlink:href="#DejaVuSans-33" x="95.410156"/>
      </g>
     </g>
    </g>
    <g id="ytick_23">
     <g id="line2d_99">
      <path d="M 764.960938 43.60491 
L 1065.270937 43.60491 
" clip-path="url(#p17f70e3a77)" style="fill: none; stroke: #b0b0b0; stroke-width: 0.8; stroke-linecap: square"/>
     </g>
     <g id="line2d_100">
      <g>
       <use xlink:href="#m5c22ea8fea" x="764.960938" y="43.60491" style="stroke: #000000; stroke-width: 0.8"/>
      </g>
     </g>
     <g id="text_55">
      <!-- 0.4 -->
      <g transform="translate(742.057812 47.404128) scale(0.1 -0.1)">
       <use xlink:href="#DejaVuSans-30"/>
       <use xlink:href="#DejaVuSans-2e" x="63.623047"/>
       <use xlink:href="#DejaVuSans-34" x="95.410156"/>
      </g>
     </g>
    </g>
    <g id="text_56">
     <!-- Fr(t) -->
     <g transform="translate(727.598438 187.810469) rotate(-90) scale(0.1 -0.1)">
      <use xlink:href="#DejaVuSans-46"/>
      <use xlink:href="#DejaVuSans-72" x="50.269531"/>
      <use xlink:href="#DejaVuSans-28" x="91.382812"/>
      <use xlink:href="#DejaVuSans-74" x="130.396484"/>
      <use xlink:href="#DejaVuSans-29" x="169.605469"/>
     </g>
    </g>
   </g>
   <g id="line2d_101">
    <path d="M 922.213018 173.694561 
L 927.731692 166.016669 
L 933.277207 158.662745 
L 938.937589 151.512212 
L 944.778648 144.491891 
L 945.723496 143.389271 
L 945.149487 144.207441 
L 919.325479 180.840403 
L 913.556869 188.507218 
L 907.408393 196.267774 
L 901.90793 202.868731 
L 896.265002 209.321856 
L 890.551601 215.542426 
L 884.844143 221.45722 
L 878.299752 227.889992 
L 872.003582 233.745087 
L 866.089458 238.962738 
L 859.970336 244.088536 
L 853.568791 249.169613 
L 846.827005 254.226771 
L 845.812727 254.962564 
L 845.998181 254.69811 
L 907.540516 167.156943 
L 914.082749 158.470835 
L 919.090696 152.146712 
L 924.167892 146.009117 
L 929.298284 140.075246 
L 934.46564 134.35901 
L 939.653586 128.871258 
L 946.574409 121.923172 
L 953.463391 115.407326 
L 960.281361 109.328851 
L 966.9893 103.687087 
L 973.548498 98.476688 
L 979.920704 93.68866 
L 986.068282 89.311321 
L 993.38078 84.396463 
L 1000.214778 80.073485 
L 1007.689451 75.625936 
L 1015.270273 71.396232 
L 1022.967776 67.372365 
L 1030.4744 63.694288 
L 1030.470148 63.703037 
L 949.720266 178.665548 
L 943.383293 187.161288 
L 936.958694 195.311172 
L 930.469118 203.095755 
L 923.937198 210.501827 
L 917.385489 217.521716 
L 910.836416 224.152579 
L 904.312229 230.39571 
L 897.83495 236.255867 
L 891.426337 241.740645 
L 885.107844 246.859892 
L 878.900575 251.625183 
L 872.825256 256.049353 
L 866.902188 260.146073 
L 859.275835 265.123499 
L 852.001043 269.577893 
L 845.121766 273.542672 
L 837.142781 277.85883 
L 829.925094 281.518186 
L 822.370138 285.115293 
L 814.357965 288.686201 
L 805.93956 292.185978 
L 805.939313 292.180348 
L 893.006054 168.235974 
L 897.738677 161.867996 
L 902.520134 155.694173 
L 907.342432 149.721322 
L 912.197588 143.954524 
L 917.077646 138.397261 
L 921.974678 133.051562 
L 926.880798 127.918146 
L 934.239885 120.614777 
L 941.575575 113.782034 
L 948.861977 107.409903 
L 956.073572 101.485011 
L 963.185259 95.991437 
L 970.172399 90.911431 
L 977.010852 86.226044 
L 983.677017 81.915659 
L 990.147875 77.960448 
L 998.433254 73.205389 
L 1006.280421 69.001599 
L 1013.640374 65.306259 
L 1022.084466 61.341944 
L 1030.997198 57.4546 
L 1039.545162 53.99201 
L 1048.535499 50.610011 
L 1051.620483 49.507273 
L 1051.594446 49.54437 
L 960.12976 179.726947 
L 954.911054 186.703108 
L 949.62975 193.448941 
L 944.294786 199.9571 
L 938.915084 206.222415 
L 933.499542 212.241698 
L 928.057023 218.01355 
L 922.596345 223.538168 
L 917.126278 228.81716 
L 911.655529 233.853363 
L 906.19274 238.650671 
L 900.746482 243.213874 
L 895.325244 247.548509 
L 889.937431 251.660718 
L 881.936543 257.426577 
L 874.057188 262.730745 
L 866.32648 267.598092 
L 858.770958 272.053932 
L 851.416546 276.123498 
L 844.288511 279.831521 
L 837.41142 283.201891 
L 828.673386 287.209714 
L 820.478003 290.708125 
L 811.075198 294.434311 
L 802.695059 297.515102 
L 794.110397 300.453817 
L 784.516548 303.497223 
L 778.611392 305.252727 
L 778.611392 305.252727 
" clip-path="url(#p17f70e3a77)" style="fill: none; stroke: #0000ff; stroke-width: 1.5; stroke-linecap: square"/>
   </g>
   <g id="line2d_102">
    <path d="M 922.213018 173.694561 
L 921.392817 174.16096 
L 921.042457 174.156348 
L 920.938525 173.971864 
L 920.992672 173.513142 
L 921.357845 172.629294 
L 922.204172 171.188443 
L 923.663883 169.154995 
L 925.60318 166.844488 
L 927.519269 164.887309 
L 929.132258 163.538694 
L 930.122219 162.958158 
L 930.671684 162.861238 
L 930.883039 163.001019 
L 930.958285 163.308624 
L 930.834954 163.978013 
L 930.3825 165.069011 
L 929.387325 166.832482 
L 927.800078 169.17142 
L 925.619022 171.971997 
L 923.162401 174.75578 
L 920.874855 177.028116 
L 918.958756 178.641163 
L 917.51654 179.572099 
L 916.650788 179.88107 
L 916.203698 179.835521 
L 915.97806 179.60897 
L 915.894735 179.20892 
L 915.990938 178.501344 
L 916.381061 177.371441 
L 917.194487 175.705253 
L 918.561921 173.411896 
L 920.59084 170.457169 
L 923.060865 167.237887 
L 926.123788 163.630684 
L 929.037523 160.531463 
L 931.874103 157.836925 
L 934.193695 155.93359 
L 935.949763 154.77017 
L 937.175045 154.222864 
L 937.841146 154.123239 
L 938.31439 154.277073 
L 938.545088 154.586253 
L 938.638383 155.06186 
L 938.555679 155.888933 
L 938.157938 157.21483 
L 937.280335 159.198699 
L 935.966239 161.612468 
L 933.959137 164.822604 
L 931.466373 168.407909 
L 928.179472 172.722273 
L 924.522205 177.121047 
L 921.103326 180.906809 
L 917.673715 184.39386 
L 914.384822 187.413591 
L 911.742668 189.552054 
L 909.731156 190.940747 
L 908.0131 191.872125 
L 906.841637 192.274236 
L 906.092794 192.340787 
L 905.52303 192.175347 
L 905.218654 191.897389 
L 904.982658 191.320955 
L 904.946022 190.510234 
L 905.112894 189.468047 
L 905.611334 187.84715 
L 906.635947 185.453583 
L 908.120998 182.601205 
L 910.417894 178.750213 
L 913.288085 174.418064 
L 916.677323 169.71225 
L 920.509962 164.762446 
L 924.687217 159.718585 
L 929.087772 154.745967 
L 933.571514 150.017579 
L 937.986111 145.704856 
L 941.596395 142.461452 
L 944.944456 139.732955 
L 947.939354 137.598283 
L 950.105354 136.320511 
L 951.591414 135.648429 
L 952.837361 135.300786 
L 953.604261 135.258462 
L 954.220892 135.406355 
L 954.682255 135.746107 
L 954.984281 136.278373 
L 955.123833 137.002828 
L 955.098693 137.918181 
L 954.806826 139.431592 
L 954.219128 141.272411 
L 953.07129 144.017279 
L 951.472225 147.229868 
L 948.976431 151.654747 
L 945.880976 156.634003 
L 942.22641 162.082335 
L 938.064244 167.898257 
L 933.459418 173.96278 
L 928.49296 180.139302 
L 923.263723 186.275817 
L 917.888206 192.210178 
L 912.497885 197.778261 
L 908.096479 202.025375 
L 903.866609 205.827964 
L 899.890214 209.116456 
L 896.244158 211.835226 
L 892.997086 213.943479 
L 890.725924 215.172404 
L 888.771038 215.986287 
L 887.150559 216.382695 
L 886.162394 216.406887 
L 885.372796 216.199035 
L 884.783526 215.761912 
L 884.394974 215.098944 
L 884.206373 214.214037 
L 884.216036 213.111418 
L 884.421595 211.795505 
L 884.995519 209.716941 
L 885.905564 207.277853 
L 887.505231 203.738111 
L 889.607415 199.672307 
L 892.203018 195.102373 
L 895.959682 188.988929 
L 900.406303 182.242423 
L 905.524995 174.941093 
L 910.278901 168.510262 
L 915.439286 161.850948 
L 920.952854 155.062116 
L 926.748171 148.256607 
L 932.738183 141.555299 
L 938.825462 135.079806 
L 944.908632 128.945556 
L 950.887802 123.256995 
L 956.667369 118.105875 
L 961.085642 114.426165 
L 965.271324 111.178885 
L 969.177735 108.39856 
L 972.756892 106.118113 
L 975.959439 104.369193 
L 978.084195 103.424475 
L 979.948461 102.807463 
L 981.532763 102.528734 
L 982.424643 102.535342 
L 983.179648 102.698451 
L 983.793839 103.019716 
L 984.264007 103.500248 
L 984.587743 104.14057 
L 984.763496 104.940576 
L 984.790598 105.899516 
L 984.553239 107.632679 
L 983.986382 109.712753 
L 983.098138 112.129439 
L 981.433584 115.852986 
L 979.250038 120.116953 
L 976.582537 124.882931 
L 972.619381 131.486351 
L 968.011788 138.736861 
L 962.806409 146.560346 
L 957.039764 154.8807 
L 950.744567 163.612777 
L 943.958758 172.653893 
L 936.734815 181.876564 
L 930.689074 189.281968 
L 924.458694 196.613694 
L 918.101793 203.774154 
L 911.68398 210.664141 
L 905.276276 217.188504 
L 898.95331 223.261478 
L 892.792047 228.810784 
L 889.79651 231.370789 
L 889.79651 231.370789 
" clip-path="url(#p17f70e3a77)" style="fill: none; stroke-dasharray: 5.55,2.4; stroke-dashoffset: 0; stroke: #ff0000; stroke-width: 1.5"/>
   </g>
   <g id="patch_15">
    <path d="M 764.960938 318.04 
L 764.960938 36.72 
" style="fill: none; stroke: #000000; stroke-width: 0.8; stroke-linejoin: miter; stroke-linecap: square"/>
   </g>
   <g id="patch_16">
    <path d="M 1065.270937 318.04 
L 1065.270937 36.72 
" style="fill: none; stroke: #000000; stroke-width: 0.8; stroke-linejoin: miter; stroke-linecap: square"/>
   </g>
   <g id="patch_17">
    <path d="M 764.960938 318.04 
L 1065.270937 318.04 
" style="fill: none; stroke: #000000; stroke-width: 0.8; stroke-linejoin: miter; stroke-linecap: square"/>
   </g>
   <g id="patch_18">
    <path d="M 764.960938 36.72 
L 1065.270937 36.72 
" style="fill: none; stroke: #000000; stroke-width: 0.8; stroke-linejoin: miter; stroke-linecap: square"/>
   </g>
   <g id="legend_3">
    <g id="patch_19">
     <path d="M 771.960938 74.07625 
L 830.553125 74.07625 
Q 832.553125 74.07625 832.553125 72.07625 
L 832.553125 43.72 
Q 832.553125 41.72 830.553125 41.72 
L 771.960938 41.72 
Q 769.960938 41.72 769.960938 43.72 
L 769.960938 72.07625 
Q 769.960938 74.07625 771.960938 74.07625 
z
" style="fill: #ffffff; opacity: 0.8; stroke: #cccccc; stroke-linejoin: miter"/>
    </g>
    <g id="line2d_103">
     <path d="M 773.960938 49.818437 
L 783.960938 49.818437 
L 793.960938 49.818437 
" style="fill: none; stroke: #0000ff; stroke-width: 1.5; stroke-linecap: square"/>
    </g>
    <g id="text_57">
     <!-- data -->
     <g transform="translate(801.960938 53.318437) scale(0.1 -0.1)">
      <use xlink:href="#DejaVuSans-64"/>
      <use xlink:href="#DejaVuSans-61" x="63.476562"/>
      <use xlink:href="#DejaVuSans-74" x="124.755859"/>
      <use xlink:href="#DejaVuSans-61" x="163.964844"/>
     </g>
    </g>
    <g id="line2d_104">
     <path d="M 773.960938 64.496562 
L 783.960938 64.496562 
L 793.960938 64.496562 
" style="fill: none; stroke-dasharray: 5.55,2.4; stroke-dashoffset: 0; stroke: #ff0000; stroke-width: 1.5"/>
    </g>
    <g id="text_58">
     <!-- sindy -->
     <g transform="translate(801.960938 67.996562) scale(0.1 -0.1)">
      <use xlink:href="#DejaVuSans-73"/>
      <use xlink:href="#DejaVuSans-69" x="52.099609"/>
      <use xlink:href="#DejaVuSans-6e" x="79.882812"/>
      <use xlink:href="#DejaVuSans-64" x="143.261719"/>
      <use xlink:href="#DejaVuSans-79" x="206.738281"/>
     </g>
    </g>
   </g>
  </g>
  <g id="text_59">
   <!-- FL_pol_n2_bFalse_iFalse_FL_fr_n2 -->
   <g transform="translate(403.858438 19.3575) scale(0.16 -0.16)">
    <defs>
     <path id="DejaVuSans-4c" d="M 628 4666 
L 1259 4666 
L 1259 531 
L 3531 531 
L 3531 0 
L 628 0 
L 628 4666 
z
" transform="scale(0.015625)"/>
     <path id="DejaVuSans-5f" d="M 3263 -1063 
L 3263 -1509 
L -63 -1509 
L -63 -1063 
L 3263 -1063 
z
" transform="scale(0.015625)"/>
     <path id="DejaVuSans-70" d="M 1159 525 
L 1159 -1331 
L 581 -1331 
L 581 3500 
L 1159 3500 
L 1159 2969 
Q 1341 3281 1617 3432 
Q 1894 3584 2278 3584 
Q 2916 3584 3314 3078 
Q 3713 2572 3713 1747 
Q 3713 922 3314 415 
Q 2916 -91 2278 -91 
Q 1894 -91 1617 61 
Q 1341 213 1159 525 
z
M 3116 1747 
Q 3116 2381 2855 2742 
Q 2594 3103 2138 3103 
Q 1681 3103 1420 2742 
Q 1159 2381 1159 1747 
Q 1159 1113 1420 752 
Q 1681 391 2138 391 
Q 2594 391 2855 752 
Q 3116 1113 3116 1747 
z
" transform="scale(0.015625)"/>
     <path id="DejaVuSans-6f" d="M 1959 3097 
Q 1497 3097 1228 2736 
Q 959 2375 959 1747 
Q 959 1119 1226 758 
Q 1494 397 1959 397 
Q 2419 397 2687 759 
Q 2956 1122 2956 1747 
Q 2956 2369 2687 2733 
Q 2419 3097 1959 3097 
z
M 1959 3584 
Q 2709 3584 3137 3096 
Q 3566 2609 3566 1747 
Q 3566 888 3137 398 
Q 2709 -91 1959 -91 
Q 1206 -91 779 398 
Q 353 888 353 1747 
Q 353 2609 779 3096 
Q 1206 3584 1959 3584 
z
" transform="scale(0.015625)"/>
     <path id="DejaVuSans-6c" d="M 603 4863 
L 1178 4863 
L 1178 0 
L 603 0 
L 603 4863 
z
" transform="scale(0.015625)"/>
     <path id="DejaVuSans-62" d="M 3116 1747 
Q 3116 2381 2855 2742 
Q 2594 3103 2138 3103 
Q 1681 3103 1420 2742 
Q 1159 2381 1159 1747 
Q 1159 1113 1420 752 
Q 1681 391 2138 391 
Q 2594 391 2855 752 
Q 3116 1113 3116 1747 
z
M 1159 2969 
Q 1341 3281 1617 3432 
Q 1894 3584 2278 3584 
Q 2916 3584 3314 3078 
Q 3713 2572 3713 1747 
Q 3713 922 3314 415 
Q 2916 -91 2278 -91 
Q 1894 -91 1617 61 
Q 1341 213 1159 525 
L 1159 0 
L 581 0 
L 581 4863 
L 1159 4863 
L 1159 2969 
z
" transform="scale(0.015625)"/>
     <path id="DejaVuSans-65" d="M 3597 1894 
L 3597 1613 
L 953 1613 
Q 991 1019 1311 708 
Q 1631 397 2203 397 
Q 2534 397 2845 478 
Q 3156 559 3463 722 
L 3463 178 
Q 3153 47 2828 -22 
Q 2503 -91 2169 -91 
Q 1331 -91 842 396 
Q 353 884 353 1716 
Q 353 2575 817 3079 
Q 1281 3584 2069 3584 
Q 2775 3584 3186 3129 
Q 3597 2675 3597 1894 
z
M 3022 2063 
Q 3016 2534 2758 2815 
Q 2500 3097 2075 3097 
Q 1594 3097 1305 2825 
Q 1016 2553 972 2059 
L 3022 2063 
z
" transform="scale(0.015625)"/>
     <path id="DejaVuSans-66" d="M 2375 4863 
L 2375 4384 
L 1825 4384 
Q 1516 4384 1395 4259 
Q 1275 4134 1275 3809 
L 1275 3500 
L 2222 3500 
L 2222 3053 
L 1275 3053 
L 1275 0 
L 697 0 
L 697 3053 
L 147 3053 
L 147 3500 
L 697 3500 
L 697 3744 
Q 697 4328 969 4595 
Q 1241 4863 1831 4863 
L 2375 4863 
z
" transform="scale(0.015625)"/>
    </defs>
    <use xlink:href="#DejaVuSans-46"/>
    <use xlink:href="#DejaVuSans-4c" x="57.519531"/>
    <use xlink:href="#DejaVuSans-5f" x="113.232422"/>
    <use xlink:href="#DejaVuSans-70" x="163.232422"/>
    <use xlink:href="#DejaVuSans-6f" x="226.708984"/>
    <use xlink:href="#DejaVuSans-6c" x="287.890625"/>
    <use xlink:href="#DejaVuSans-5f" x="315.673828"/>
    <use xlink:href="#DejaVuSans-6e" x="365.673828"/>
    <use xlink:href="#DejaVuSans-32" x="429.052734"/>
    <use xlink:href="#DejaVuSans-5f" x="492.675781"/>
    <use xlink:href="#DejaVuSans-62" x="542.675781"/>
    <use xlink:href="#DejaVuSans-46" x="606.152344"/>
    <use xlink:href="#DejaVuSans-61" x="654.546875"/>
    <use xlink:href="#DejaVuSans-6c" x="715.826172"/>
    <use xlink:href="#DejaVuSans-73" x="743.609375"/>
    <use xlink:href="#DejaVuSans-65" x="795.708984"/>
    <use xlink:href="#DejaVuSans-5f" x="857.232422"/>
    <use xlink:href="#DejaVuSans-69" x="907.232422"/>
    <use xlink:href="#DejaVuSans-46" x="935.015625"/>
    <use xlink:href="#DejaVuSans-61" x="983.410156"/>
    <use xlink:href="#DejaVuSans-6c" x="1044.689453"/>
    <use xlink:href="#DejaVuSans-73" x="1072.472656"/>
    <use xlink:href="#DejaVuSans-65" x="1124.572266"/>
    <use xlink:href="#DejaVuSans-5f" x="1186.095703"/>
    <use xlink:href="#DejaVuSans-46" x="1236.095703"/>
    <use xlink:href="#DejaVuSans-4c" x="1293.615234"/>
    <use xlink:href="#DejaVuSans-5f" x="1349.328125"/>
    <use xlink:href="#DejaVuSans-66" x="1399.328125"/>
    <use xlink:href="#DejaVuSans-72" x="1434.533203"/>
    <use xlink:href="#DejaVuSans-5f" x="1475.646484"/>
    <use xlink:href="#DejaVuSans-6e" x="1525.646484"/>
    <use xlink:href="#DejaVuSans-32" x="1589.025391"/>
   </g>
  </g>
 </g>
 <defs>
  <clipPath id="p2873cf1bd0">
   <rect x="52.160938" y="36.72" width="300.31" height="281.32"/>
  </clipPath>
  <clipPath id="pd681c42944">
   <rect x="408.560938" y="36.72" width="300.31" height="281.32"/>
  </clipPath>
  <clipPath id="p17f70e3a77">
   <rect x="764.960938" y="36.72" width="300.31" height="281.32"/>
  </clipPath>
 </defs>
</svg>
