<?xml version="1.0" encoding="utf-8" standalone="no"?>
<!DOCTYPE svg PUBLIC "-//W3C//DTD SVG 1.1//EN"
  "http://www.w3.org/Graphics/SVG/1.1/DTD/svg11.dtd">
<svg xmlns:xlink="http://www.w3.org/1999/xlink" width="1072.470937pt" height="355.59625pt" viewBox="0 0 1072.470937 355.59625" xmlns="http://www.w3.org/2000/svg" version="1.1">
 <metadata>
  <rdf:RDF xmlns:dc="http://purl.org/dc/elements/1.1/" xmlns:cc="http://creativecommons.org/ns#" xmlns:rdf="http://www.w3.org/1999/02/22-rdf-syntax-ns#">
   <cc:Work>
    <dc:type rdf:resource="http://purl.org/dc/dcmitype/StillImage"/>
    <dc:date>2025-01-21T22:54:04.352065</dc:date>
    <dc:format>image/svg+xml</dc:format>
    <dc:creator>
     <cc:Agent>
      <dc:title>Matplotlib v3.9.2, https://matplotlib.org/</dc:title>
     </cc:Agent>
    </dc:creator>
   </cc:Work>
  </rdf:RDF>
 </metadata>
 <defs>
  <style type="text/css">*{stroke-linejoin: round; stroke-linecap: butt}</style>
 </defs>
 <g id="figure_1">
  <g id="patch_1">
   <path d="M 0 355.59625 
L 1072.470937 355.59625 
L 1072.470937 0 
L 0 0 
z
" style="fill: #ffffff"/>
  </g>
  <g id="axes_1">
   <g id="patch_2">
    <path d="M 52.160938 318.04 
L 352.470937 318.04 
L 352.470937 36.72 
L 52.160938 36.72 
z
" style="fill: #ffffff"/>
   </g>
   <g id="matplotlib.axis_1">
    <g id="xtick_1">
     <g id="line2d_1">
      <path d="M 65.811392 318.04 
L 65.811392 36.72 
" clip-path="url(#p26e5c4c6d9)" style="fill: none; stroke: #b0b0b0; stroke-width: 0.8; stroke-linecap: square"/>
     </g>
     <g id="line2d_2">
      <defs>
       <path id="m710e66bb8a" d="M 0 0 
L 0 3.5 
" style="stroke: #000000; stroke-width: 0.8"/>
      </defs>
      <g>
       <use xlink:href="#m710e66bb8a" x="65.811392" y="318.04" style="stroke: #000000; stroke-width: 0.8"/>
      </g>
     </g>
     <g id="text_1">
      <!-- 0.0 -->
      <g transform="translate(57.85983 332.638437) scale(0.1 -0.1)">
       <defs>
        <path id="DejaVuSans-30" d="M 2034 4250 
Q 1547 4250 1301 3770 
Q 1056 3291 1056 2328 
Q 1056 1369 1301 889 
Q 1547 409 2034 409 
Q 2525 409 2770 889 
Q 3016 1369 3016 2328 
Q 3016 3291 2770 3770 
Q 2525 4250 2034 4250 
z
M 2034 4750 
Q 2819 4750 3233 4129 
Q 3647 3509 3647 2328 
Q 3647 1150 3233 529 
Q 2819 -91 2034 -91 
Q 1250 -91 836 529 
Q 422 1150 422 2328 
Q 422 3509 836 4129 
Q 1250 4750 2034 4750 
z
" transform="scale(0.015625)"/>
        <path id="DejaVuSans-2e" d="M 684 794 
L 1344 794 
L 1344 0 
L 684 0 
L 684 794 
z
" transform="scale(0.015625)"/>
       </defs>
       <use xlink:href="#DejaVuSans-30"/>
       <use xlink:href="#DejaVuSans-2e" x="63.623047"/>
       <use xlink:href="#DejaVuSans-30" x="95.410156"/>
      </g>
     </g>
    </g>
    <g id="xtick_2">
     <g id="line2d_3">
      <path d="M 99.937528 318.04 
L 99.937528 36.72 
" clip-path="url(#p26e5c4c6d9)" style="fill: none; stroke: #b0b0b0; stroke-width: 0.8; stroke-linecap: square"/>
     </g>
     <g id="line2d_4">
      <g>
       <use xlink:href="#m710e66bb8a" x="99.937528" y="318.04" style="stroke: #000000; stroke-width: 0.8"/>
      </g>
     </g>
     <g id="text_2">
      <!-- 2.5 -->
      <g transform="translate(91.985966 332.638437) scale(0.1 -0.1)">
       <defs>
        <path id="DejaVuSans-32" d="M 1228 531 
L 3431 531 
L 3431 0 
L 469 0 
L 469 531 
Q 828 903 1448 1529 
Q 2069 2156 2228 2338 
Q 2531 2678 2651 2914 
Q 2772 3150 2772 3378 
Q 2772 3750 2511 3984 
Q 2250 4219 1831 4219 
Q 1534 4219 1204 4116 
Q 875 4013 500 3803 
L 500 4441 
Q 881 4594 1212 4672 
Q 1544 4750 1819 4750 
Q 2544 4750 2975 4387 
Q 3406 4025 3406 3419 
Q 3406 3131 3298 2873 
Q 3191 2616 2906 2266 
Q 2828 2175 2409 1742 
Q 1991 1309 1228 531 
z
" transform="scale(0.015625)"/>
        <path id="DejaVuSans-35" d="M 691 4666 
L 3169 4666 
L 3169 4134 
L 1269 4134 
L 1269 2991 
Q 1406 3038 1543 3061 
Q 1681 3084 1819 3084 
Q 2600 3084 3056 2656 
Q 3513 2228 3513 1497 
Q 3513 744 3044 326 
Q 2575 -91 1722 -91 
Q 1428 -91 1123 -41 
Q 819 9 494 109 
L 494 744 
Q 775 591 1075 516 
Q 1375 441 1709 441 
Q 2250 441 2565 725 
Q 2881 1009 2881 1497 
Q 2881 1984 2565 2268 
Q 2250 2553 1709 2553 
Q 1456 2553 1204 2497 
Q 953 2441 691 2322 
L 691 4666 
z
" transform="scale(0.015625)"/>
       </defs>
       <use xlink:href="#DejaVuSans-32"/>
       <use xlink:href="#DejaVuSans-2e" x="63.623047"/>
       <use xlink:href="#DejaVuSans-35" x="95.410156"/>
      </g>
     </g>
    </g>
    <g id="xtick_3">
     <g id="line2d_5">
      <path d="M 134.063665 318.04 
L 134.063665 36.72 
" clip-path="url(#p26e5c4c6d9)" style="fill: none; stroke: #b0b0b0; stroke-width: 0.8; stroke-linecap: square"/>
     </g>
     <g id="line2d_6">
      <g>
       <use xlink:href="#m710e66bb8a" x="134.063665" y="318.04" style="stroke: #000000; stroke-width: 0.8"/>
      </g>
     </g>
     <g id="text_3">
      <!-- 5.0 -->
      <g transform="translate(126.112102 332.638437) scale(0.1 -0.1)">
       <use xlink:href="#DejaVuSans-35"/>
       <use xlink:href="#DejaVuSans-2e" x="63.623047"/>
       <use xlink:href="#DejaVuSans-30" x="95.410156"/>
      </g>
     </g>
    </g>
    <g id="xtick_4">
     <g id="line2d_7">
      <path d="M 168.189801 318.04 
L 168.189801 36.72 
" clip-path="url(#p26e5c4c6d9)" style="fill: none; stroke: #b0b0b0; stroke-width: 0.8; stroke-linecap: square"/>
     </g>
     <g id="line2d_8">
      <g>
       <use xlink:href="#m710e66bb8a" x="168.189801" y="318.04" style="stroke: #000000; stroke-width: 0.8"/>
      </g>
     </g>
     <g id="text_4">
      <!-- 7.5 -->
      <g transform="translate(160.238239 332.638437) scale(0.1 -0.1)">
       <defs>
        <path id="DejaVuSans-37" d="M 525 4666 
L 3525 4666 
L 3525 4397 
L 1831 0 
L 1172 0 
L 2766 4134 
L 525 4134 
L 525 4666 
z
" transform="scale(0.015625)"/>
       </defs>
       <use xlink:href="#DejaVuSans-37"/>
       <use xlink:href="#DejaVuSans-2e" x="63.623047"/>
       <use xlink:href="#DejaVuSans-35" x="95.410156"/>
      </g>
     </g>
    </g>
    <g id="xtick_5">
     <g id="line2d_9">
      <path d="M 202.315938 318.04 
L 202.315938 36.72 
" clip-path="url(#p26e5c4c6d9)" style="fill: none; stroke: #b0b0b0; stroke-width: 0.8; stroke-linecap: square"/>
     </g>
     <g id="line2d_10">
      <g>
       <use xlink:href="#m710e66bb8a" x="202.315938" y="318.04" style="stroke: #000000; stroke-width: 0.8"/>
      </g>
     </g>
     <g id="text_5">
      <!-- 10.0 -->
      <g transform="translate(191.183125 332.638437) scale(0.1 -0.1)">
       <defs>
        <path id="DejaVuSans-31" d="M 794 531 
L 1825 531 
L 1825 4091 
L 703 3866 
L 703 4441 
L 1819 4666 
L 2450 4666 
L 2450 531 
L 3481 531 
L 3481 0 
L 794 0 
L 794 531 
z
" transform="scale(0.015625)"/>
       </defs>
       <use xlink:href="#DejaVuSans-31"/>
       <use xlink:href="#DejaVuSans-30" x="63.623047"/>
       <use xlink:href="#DejaVuSans-2e" x="127.246094"/>
       <use xlink:href="#DejaVuSans-30" x="159.033203"/>
      </g>
     </g>
    </g>
    <g id="xtick_6">
     <g id="line2d_11">
      <path d="M 236.442074 318.04 
L 236.442074 36.72 
" clip-path="url(#p26e5c4c6d9)" style="fill: none; stroke: #b0b0b0; stroke-width: 0.8; stroke-linecap: square"/>
     </g>
     <g id="line2d_12">
      <g>
       <use xlink:href="#m710e66bb8a" x="236.442074" y="318.04" style="stroke: #000000; stroke-width: 0.8"/>
      </g>
     </g>
     <g id="text_6">
      <!-- 12.5 -->
      <g transform="translate(225.309261 332.638437) scale(0.1 -0.1)">
       <use xlink:href="#DejaVuSans-31"/>
       <use xlink:href="#DejaVuSans-32" x="63.623047"/>
       <use xlink:href="#DejaVuSans-2e" x="127.246094"/>
       <use xlink:href="#DejaVuSans-35" x="159.033203"/>
      </g>
     </g>
    </g>
    <g id="xtick_7">
     <g id="line2d_13">
      <path d="M 270.56821 318.04 
L 270.56821 36.72 
" clip-path="url(#p26e5c4c6d9)" style="fill: none; stroke: #b0b0b0; stroke-width: 0.8; stroke-linecap: square"/>
     </g>
     <g id="line2d_14">
      <g>
       <use xlink:href="#m710e66bb8a" x="270.56821" y="318.04" style="stroke: #000000; stroke-width: 0.8"/>
      </g>
     </g>
     <g id="text_7">
      <!-- 15.0 -->
      <g transform="translate(259.435398 332.638437) scale(0.1 -0.1)">
       <use xlink:href="#DejaVuSans-31"/>
       <use xlink:href="#DejaVuSans-35" x="63.623047"/>
       <use xlink:href="#DejaVuSans-2e" x="127.246094"/>
       <use xlink:href="#DejaVuSans-30" x="159.033203"/>
      </g>
     </g>
    </g>
    <g id="xtick_8">
     <g id="line2d_15">
      <path d="M 304.694347 318.04 
L 304.694347 36.72 
" clip-path="url(#p26e5c4c6d9)" style="fill: none; stroke: #b0b0b0; stroke-width: 0.8; stroke-linecap: square"/>
     </g>
     <g id="line2d_16">
      <g>
       <use xlink:href="#m710e66bb8a" x="304.694347" y="318.04" style="stroke: #000000; stroke-width: 0.8"/>
      </g>
     </g>
     <g id="text_8">
      <!-- 17.5 -->
      <g transform="translate(293.561534 332.638437) scale(0.1 -0.1)">
       <use xlink:href="#DejaVuSans-31"/>
       <use xlink:href="#DejaVuSans-37" x="63.623047"/>
       <use xlink:href="#DejaVuSans-2e" x="127.246094"/>
       <use xlink:href="#DejaVuSans-35" x="159.033203"/>
      </g>
     </g>
    </g>
    <g id="xtick_9">
     <g id="line2d_17">
      <path d="M 338.820483 318.04 
L 338.820483 36.72 
" clip-path="url(#p26e5c4c6d9)" style="fill: none; stroke: #b0b0b0; stroke-width: 0.8; stroke-linecap: square"/>
     </g>
     <g id="line2d_18">
      <g>
       <use xlink:href="#m710e66bb8a" x="338.820483" y="318.04" style="stroke: #000000; stroke-width: 0.8"/>
      </g>
     </g>
     <g id="text_9">
      <!-- 20.0 -->
      <g transform="translate(327.68767 332.638437) scale(0.1 -0.1)">
       <use xlink:href="#DejaVuSans-32"/>
       <use xlink:href="#DejaVuSans-30" x="63.623047"/>
       <use xlink:href="#DejaVuSans-2e" x="127.246094"/>
       <use xlink:href="#DejaVuSans-30" x="159.033203"/>
      </g>
     </g>
    </g>
    <g id="text_10">
     <!-- t -->
     <g transform="translate(200.355781 346.316562) scale(0.1 -0.1)">
      <defs>
       <path id="DejaVuSans-74" d="M 1172 4494 
L 1172 3500 
L 2356 3500 
L 2356 3053 
L 1172 3053 
L 1172 1153 
Q 1172 725 1289 603 
Q 1406 481 1766 481 
L 2356 481 
L 2356 0 
L 1766 0 
Q 1100 0 847 248 
Q 594 497 594 1153 
L 594 3053 
L 172 3053 
L 172 3500 
L 594 3500 
L 594 4494 
L 1172 4494 
z
" transform="scale(0.015625)"/>
      </defs>
      <use xlink:href="#DejaVuSans-74"/>
     </g>
    </g>
   </g>
   <g id="matplotlib.axis_2">
    <g id="ytick_1">
     <g id="line2d_19">
      <path d="M 52.160938 277.643154 
L 352.470937 277.643154 
" clip-path="url(#p26e5c4c6d9)" style="fill: none; stroke: #b0b0b0; stroke-width: 0.8; stroke-linecap: square"/>
     </g>
     <g id="line2d_20">
      <defs>
       <path id="md6475a7887" d="M 0 0 
L -3.5 0 
" style="stroke: #000000; stroke-width: 0.8"/>
      </defs>
      <g>
       <use xlink:href="#md6475a7887" x="52.160938" y="277.643154" style="stroke: #000000; stroke-width: 0.8"/>
      </g>
     </g>
     <g id="text_11">
      <!-- −1.0 -->
      <g transform="translate(20.878125 281.442373) scale(0.1 -0.1)">
       <defs>
        <path id="DejaVuSans-2212" d="M 678 2272 
L 4684 2272 
L 4684 1741 
L 678 1741 
L 678 2272 
z
" transform="scale(0.015625)"/>
       </defs>
       <use xlink:href="#DejaVuSans-2212"/>
       <use xlink:href="#DejaVuSans-31" x="83.789062"/>
       <use xlink:href="#DejaVuSans-2e" x="147.412109"/>
       <use xlink:href="#DejaVuSans-30" x="179.199219"/>
      </g>
     </g>
    </g>
    <g id="ytick_2">
     <g id="line2d_21">
      <path d="M 52.160938 224.187428 
L 352.470937 224.187428 
" clip-path="url(#p26e5c4c6d9)" style="fill: none; stroke: #b0b0b0; stroke-width: 0.8; stroke-linecap: square"/>
     </g>
     <g id="line2d_22">
      <g>
       <use xlink:href="#md6475a7887" x="52.160938" y="224.187428" style="stroke: #000000; stroke-width: 0.8"/>
      </g>
     </g>
     <g id="text_12">
      <!-- −0.5 -->
      <g transform="translate(20.878125 227.986646) scale(0.1 -0.1)">
       <use xlink:href="#DejaVuSans-2212"/>
       <use xlink:href="#DejaVuSans-30" x="83.789062"/>
       <use xlink:href="#DejaVuSans-2e" x="147.412109"/>
       <use xlink:href="#DejaVuSans-35" x="179.199219"/>
      </g>
     </g>
    </g>
    <g id="ytick_3">
     <g id="line2d_23">
      <path d="M 52.160938 170.731701 
L 352.470937 170.731701 
" clip-path="url(#p26e5c4c6d9)" style="fill: none; stroke: #b0b0b0; stroke-width: 0.8; stroke-linecap: square"/>
     </g>
     <g id="line2d_24">
      <g>
       <use xlink:href="#md6475a7887" x="52.160938" y="170.731701" style="stroke: #000000; stroke-width: 0.8"/>
      </g>
     </g>
     <g id="text_13">
      <!-- 0.0 -->
      <g transform="translate(29.257812 174.53092) scale(0.1 -0.1)">
       <use xlink:href="#DejaVuSans-30"/>
       <use xlink:href="#DejaVuSans-2e" x="63.623047"/>
       <use xlink:href="#DejaVuSans-30" x="95.410156"/>
      </g>
     </g>
    </g>
    <g id="ytick_4">
     <g id="line2d_25">
      <path d="M 52.160938 117.275974 
L 352.470937 117.275974 
" clip-path="url(#p26e5c4c6d9)" style="fill: none; stroke: #b0b0b0; stroke-width: 0.8; stroke-linecap: square"/>
     </g>
     <g id="line2d_26">
      <g>
       <use xlink:href="#md6475a7887" x="52.160938" y="117.275974" style="stroke: #000000; stroke-width: 0.8"/>
      </g>
     </g>
     <g id="text_14">
      <!-- 0.5 -->
      <g transform="translate(29.257812 121.075193) scale(0.1 -0.1)">
       <use xlink:href="#DejaVuSans-30"/>
       <use xlink:href="#DejaVuSans-2e" x="63.623047"/>
       <use xlink:href="#DejaVuSans-35" x="95.410156"/>
      </g>
     </g>
    </g>
    <g id="ytick_5">
     <g id="line2d_27">
      <path d="M 52.160938 63.820247 
L 352.470937 63.820247 
" clip-path="url(#p26e5c4c6d9)" style="fill: none; stroke: #b0b0b0; stroke-width: 0.8; stroke-linecap: square"/>
     </g>
     <g id="line2d_28">
      <g>
       <use xlink:href="#md6475a7887" x="52.160938" y="63.820247" style="stroke: #000000; stroke-width: 0.8"/>
      </g>
     </g>
     <g id="text_15">
      <!-- 1.0 -->
      <g transform="translate(29.257812 67.619466) scale(0.1 -0.1)">
       <use xlink:href="#DejaVuSans-31"/>
       <use xlink:href="#DejaVuSans-2e" x="63.623047"/>
       <use xlink:href="#DejaVuSans-30" x="95.410156"/>
      </g>
     </g>
    </g>
    <g id="text_16">
     <!-- x(t) -->
     <g transform="translate(14.798438 186.201094) rotate(-90) scale(0.1 -0.1)">
      <defs>
       <path id="DejaVuSans-78" d="M 3513 3500 
L 2247 1797 
L 3578 0 
L 2900 0 
L 1881 1375 
L 863 0 
L 184 0 
L 1544 1831 
L 300 3500 
L 978 3500 
L 1906 2253 
L 2834 3500 
L 3513 3500 
z
" transform="scale(0.015625)"/>
       <path id="DejaVuSans-28" d="M 1984 4856 
Q 1566 4138 1362 3434 
Q 1159 2731 1159 2009 
Q 1159 1288 1364 580 
Q 1569 -128 1984 -844 
L 1484 -844 
Q 1016 -109 783 600 
Q 550 1309 550 2009 
Q 550 2706 781 3412 
Q 1013 4119 1484 4856 
L 1984 4856 
z
" transform="scale(0.015625)"/>
       <path id="DejaVuSans-29" d="M 513 4856 
L 1013 4856 
Q 1481 4119 1714 3412 
Q 1947 2706 1947 2009 
Q 1947 1309 1714 600 
Q 1481 -109 1013 -844 
L 513 -844 
Q 928 -128 1133 580 
Q 1338 1288 1338 2009 
Q 1338 2731 1133 3434 
Q 928 4138 513 4856 
z
" transform="scale(0.015625)"/>
      </defs>
      <use xlink:href="#DejaVuSans-78"/>
      <use xlink:href="#DejaVuSans-28" x="59.179688"/>
      <use xlink:href="#DejaVuSans-74" x="98.193359"/>
      <use xlink:href="#DejaVuSans-29" x="137.402344"/>
     </g>
    </g>
   </g>
   <g id="line2d_29">
    <path d="M 65.811392 170.731701 
L 75.102993 170.623473 
L 78.655664 170.353248 
L 81.66177 169.89351 
L 84.121311 169.303785 
L 86.580852 168.483916 
L 89.040394 167.408965 
L 91.499935 166.067771 
L 93.959476 164.466082 
L 96.6923 162.411937 
L 99.971689 159.655946 
L 108.17016 152.60301 
L 110.356419 151.063347 
L 112.269396 149.971473 
L 113.90909 149.275327 
L 115.548784 148.841664 
L 116.915196 148.7079 
L 118.281608 148.802977 
L 119.64802 149.145796 
L 121.014431 149.753205 
L 122.380843 150.639631 
L 123.747255 151.816745 
L 125.113667 153.293143 
L 126.480079 155.074063 
L 128.119773 157.615157 
L 129.759467 160.5924 
L 131.672444 164.599467 
L 133.585421 169.147048 
L 135.77168 174.939538 
L 138.231221 182.093628 
L 141.510609 192.383279 
L 149.982363 219.391088 
L 152.441904 226.262996 
L 154.354881 230.987392 
L 155.994575 234.502878 
L 157.360987 236.999428 
L 158.727399 239.058936 
L 159.820528 240.366092 
L 160.913658 241.350705 
L 162.006787 241.995739 
L 162.826635 242.24721 
L 163.646482 242.292829 
L 164.466329 242.127119 
L 165.286176 241.74529 
L 166.106023 241.143327 
L 167.199153 239.992861 
L 168.292282 238.440174 
L 169.385412 236.482744 
L 170.478541 234.120885 
L 171.844953 230.605013 
L 173.211365 226.475236 
L 174.851059 220.737886 
L 176.490753 214.194208 
L 178.40373 205.626024 
L 180.589989 194.757666 
L 183.322813 179.894628 
L 187.148766 157.63529 
L 193.160978 122.642403 
L 195.893802 108.124619 
L 198.080061 97.662355 
L 199.993037 89.572245 
L 201.632732 83.55889 
L 202.999143 79.269995 
L 204.365555 75.691547 
L 205.458685 73.371219 
L 206.551814 71.556107 
L 207.371661 70.537823 
L 208.191509 69.821605 
L 209.011356 69.413853 
L 209.831203 69.320174 
L 210.65105 69.545321 
L 211.470897 70.092959 
L 212.290744 70.965497 
L 213.110591 72.164064 
L 214.203721 74.268826 
L 215.29685 76.948704 
L 216.38998 80.195482 
L 217.756392 85.031877 
L 219.122803 90.701059 
L 220.762498 98.541745 
L 222.675474 109.000267 
L 224.861733 122.458085 
L 227.321275 139.130869 
L 230.873946 165.033936 
L 237.432722 213.217027 
L 240.165546 231.425278 
L 242.351805 244.49663 
L 244.264782 254.569349 
L 245.904476 262.033698 
L 247.270888 267.344379 
L 248.6373 271.766577 
L 249.730429 274.630077 
L 250.823559 276.869071 
L 251.643406 278.126253 
L 252.463253 279.013374 
L 253.2831 279.52404 
L 253.829665 279.652646 
L 254.37623 279.610197 
L 254.922794 279.3956 
L 255.742641 278.749292 
L 256.562489 277.712621 
L 257.382336 276.285866 
L 258.202183 274.470926 
L 259.295312 271.453485 
L 260.388442 267.765219 
L 261.754854 262.239314 
L 263.121266 255.739581 
L 264.76096 246.736697 
L 266.673936 234.730296 
L 268.860195 219.312312 
L 271.319737 200.288954 
L 275.14569 168.657632 
L 280.338055 125.805015 
L 283.070879 105.116424 
L 285.257138 90.212102 
L 287.170114 78.691206 
L 288.809809 70.1264 
L 290.176221 64.011527 
L 291.542632 58.897404 
L 292.635762 55.566558 
L 293.728891 52.940695 
L 294.548738 51.448033 
L 295.368586 50.373542 
L 296.188433 49.724566 
L 296.734997 49.531408 
L 297.281562 49.531663 
L 297.828127 49.726598 
L 298.374692 50.117136 
L 299.194539 51.070829 
L 300.014386 52.466147 
L 300.834233 54.301555 
L 301.927363 57.427183 
L 303.020492 61.315638 
L 304.113622 65.947766 
L 305.480033 72.745171 
L 306.846445 80.604047 
L 308.48614 91.330167 
L 310.399116 105.434891 
L 312.585375 123.302288 
L 315.318199 147.5417 
L 325.429647 239.30186 
L 327.615906 256.355727 
L 329.528882 269.666281 
L 331.168577 279.672221 
L 332.808271 288.227533 
L 334.174683 294.153708 
L 335.267812 298.058209 
L 336.360942 301.186095 
L 337.180789 303.006197 
L 338.000636 304.36459 
L 338.820483 305.252727 
L 338.820483 305.252727 
" clip-path="url(#p26e5c4c6d9)" style="fill: none; stroke: #0000ff; stroke-width: 1.5; stroke-linecap: square"/>
   </g>
   <g id="line2d_30">
    <path d="M 65.811392 170.731701 
L 68.270933 171.738348 
L 70.457192 172.384693 
L 72.370169 172.718657 
L 74.283146 172.809635 
L 75.92284 172.680989 
L 77.562534 172.356146 
L 79.475511 171.73125 
L 81.388487 170.855063 
L 83.574746 169.581243 
L 86.034288 167.875271 
L 90.406806 164.492779 
L 93.686194 162.060692 
L 96.145735 160.517366 
L 98.058712 159.567803 
L 99.971689 158.883928 
L 101.611383 158.531416 
L 103.251077 158.406036 
L 104.890771 158.511485 
L 106.530466 158.845051 
L 108.17016 159.398222 
L 110.083137 160.302712 
L 111.996113 161.458197 
L 114.182372 163.03946 
L 116.915196 165.312996 
L 121.834279 169.790482 
L 125.386949 172.868928 
L 127.573208 174.500143 
L 129.486185 175.672967 
L 131.125879 176.441633 
L 132.765573 176.955782 
L 134.131985 177.168399 
L 135.498397 177.169857 
L 136.864809 176.949917 
L 138.231221 176.502655 
L 139.597633 175.827166 
L 140.964045 174.928244 
L 142.603739 173.570658 
L 144.516716 171.643964 
L 146.702975 169.082898 
L 150.255645 164.482252 
L 153.535034 160.324189 
L 155.721293 157.901722 
L 157.360987 156.375708 
L 159.000681 155.153829 
L 160.367093 154.394037 
L 161.733505 153.884121 
L 163.099917 153.631593 
L 164.466329 153.638194 
L 165.832741 153.900477 
L 167.199153 154.41051 
L 168.565564 155.156641 
L 170.205259 156.342866 
L 171.844953 157.818231 
L 173.757929 159.860348 
L 175.944188 162.545956 
L 178.677012 166.290684 
L 187.422048 178.662935 
L 189.335025 180.864698 
L 190.974719 182.441544 
L 192.341131 183.49085 
L 193.707543 184.264686 
L 194.800672 184.66525 
L 195.893802 184.856597 
L 196.986931 184.826633 
L 198.080061 184.565227 
L 199.17319 184.064589 
L 200.26632 183.319738 
L 201.359449 182.329074 
L 202.725861 180.749228 
L 204.092273 178.804816 
L 205.731967 176.031914 
L 207.644944 172.292025 
L 210.377768 166.34631 
L 214.477003 157.379026 
L 216.38998 153.700219 
L 218.029674 150.999792 
L 219.396086 149.135404 
L 220.762498 147.661297 
L 221.855627 146.779674 
L 222.948757 146.170367 
L 224.041886 145.83547 
L 225.135016 145.772692 
L 226.228145 145.975868 
L 227.321275 146.435584 
L 228.414404 147.139907 
L 229.780816 148.343275 
L 231.147228 149.878326 
L 232.786922 152.116135 
L 234.426616 154.73759 
L 236.339593 158.215306 
L 238.525852 162.649442 
L 241.258676 168.707146 
L 249.730429 187.957854 
L 251.643406 191.566926 
L 253.2831 194.195843 
L 254.649512 195.993451 
L 256.015924 197.386621 
L 257.109053 198.183831 
L 258.202183 198.679795 
L 259.02203 198.844415 
L 259.841877 198.824295 
L 260.661724 198.613456 
L 261.481571 198.206154 
L 262.301418 197.596868 
L 263.394548 196.461288 
L 264.487677 194.94627 
L 265.580807 193.043443 
L 266.947219 190.114797 
L 268.313631 186.585866 
L 269.953325 181.616289 
L 271.866302 174.985818 
L 275.14569 162.531468 
L 278.151796 151.449011 
L 280.064773 145.242508 
L 281.704467 140.707147 
L 283.070879 137.589361 
L 284.164008 135.575476 
L 285.257138 134.015662 
L 286.076985 133.153636 
L 286.896832 132.559106 
L 287.716679 132.231721 
L 288.536526 132.167738 
L 289.356373 132.360171 
L 290.176221 132.799131 
L 290.996068 133.472341 
L 292.089197 134.709954 
L 293.182327 136.303239 
L 294.548738 138.740289 
L 296.188433 142.233253 
L 297.828127 146.259623 
L 299.741104 151.540976 
L 301.927363 158.257222 
L 304.386904 166.576353 
L 307.39301 177.604002 
L 313.405222 200.0036 
L 315.318199 206.231653 
L 316.957893 210.878892 
L 318.324305 214.172926 
L 319.690717 216.892737 
L 320.783846 218.63907 
L 321.876976 219.999893 
L 322.970105 220.978604 
L 323.789952 221.466628 
L 324.6098 221.748788 
L 325.429647 221.830116 
L 326.249494 221.715658 
L 327.069341 221.410029 
L 328.16247 220.7115 
L 329.2556 219.68505 
L 330.348729 218.330704 
L 331.441859 216.641918 
L 332.534988 214.604711 
L 333.9014 211.534448 
L 335.267812 207.827843 
L 336.634224 203.418142 
L 338.000636 198.246331 
L 338.820483 194.76518 
L 338.820483 194.76518 
" clip-path="url(#p26e5c4c6d9)" style="fill: none; stroke-dasharray: 5.55,2.4; stroke-dashoffset: 0; stroke: #ff0000; stroke-width: 1.5"/>
   </g>
   <g id="patch_3">
    <path d="M 52.160938 318.04 
L 52.160938 36.72 
" style="fill: none; stroke: #000000; stroke-width: 0.8; stroke-linejoin: miter; stroke-linecap: square"/>
   </g>
   <g id="patch_4">
    <path d="M 352.470937 318.04 
L 352.470937 36.72 
" style="fill: none; stroke: #000000; stroke-width: 0.8; stroke-linejoin: miter; stroke-linecap: square"/>
   </g>
   <g id="patch_5">
    <path d="M 52.160938 318.04 
L 352.470938 318.04 
" style="fill: none; stroke: #000000; stroke-width: 0.8; stroke-linejoin: miter; stroke-linecap: square"/>
   </g>
   <g id="patch_6">
    <path d="M 52.160938 36.72 
L 352.470938 36.72 
" style="fill: none; stroke: #000000; stroke-width: 0.8; stroke-linejoin: miter; stroke-linecap: square"/>
   </g>
   <g id="legend_1">
    <g id="patch_7">
     <path d="M 59.160938 74.07625 
L 117.753125 74.07625 
Q 119.753125 74.07625 119.753125 72.07625 
L 119.753125 43.72 
Q 119.753125 41.72 117.753125 41.72 
L 59.160938 41.72 
Q 57.160938 41.72 57.160938 43.72 
L 57.160938 72.07625 
Q 57.160938 74.07625 59.160938 74.07625 
z
" style="fill: #ffffff; opacity: 0.8; stroke: #cccccc; stroke-linejoin: miter"/>
    </g>
    <g id="line2d_31">
     <path d="M 61.160938 49.818437 
L 71.160938 49.818437 
L 81.160938 49.818437 
" style="fill: none; stroke: #0000ff; stroke-width: 1.5; stroke-linecap: square"/>
    </g>
    <g id="text_17">
     <!-- data -->
     <g transform="translate(89.160938 53.318437) scale(0.1 -0.1)">
      <defs>
       <path id="DejaVuSans-64" d="M 2906 2969 
L 2906 4863 
L 3481 4863 
L 3481 0 
L 2906 0 
L 2906 525 
Q 2725 213 2448 61 
Q 2172 -91 1784 -91 
Q 1150 -91 751 415 
Q 353 922 353 1747 
Q 353 2572 751 3078 
Q 1150 3584 1784 3584 
Q 2172 3584 2448 3432 
Q 2725 3281 2906 2969 
z
M 947 1747 
Q 947 1113 1208 752 
Q 1469 391 1925 391 
Q 2381 391 2643 752 
Q 2906 1113 2906 1747 
Q 2906 2381 2643 2742 
Q 2381 3103 1925 3103 
Q 1469 3103 1208 2742 
Q 947 2381 947 1747 
z
" transform="scale(0.015625)"/>
       <path id="DejaVuSans-61" d="M 2194 1759 
Q 1497 1759 1228 1600 
Q 959 1441 959 1056 
Q 959 750 1161 570 
Q 1363 391 1709 391 
Q 2188 391 2477 730 
Q 2766 1069 2766 1631 
L 2766 1759 
L 2194 1759 
z
M 3341 1997 
L 3341 0 
L 2766 0 
L 2766 531 
Q 2569 213 2275 61 
Q 1981 -91 1556 -91 
Q 1019 -91 701 211 
Q 384 513 384 1019 
Q 384 1609 779 1909 
Q 1175 2209 1959 2209 
L 2766 2209 
L 2766 2266 
Q 2766 2663 2505 2880 
Q 2244 3097 1772 3097 
Q 1472 3097 1187 3025 
Q 903 2953 641 2809 
L 641 3341 
Q 956 3463 1253 3523 
Q 1550 3584 1831 3584 
Q 2591 3584 2966 3190 
Q 3341 2797 3341 1997 
z
" transform="scale(0.015625)"/>
      </defs>
      <use xlink:href="#DejaVuSans-64"/>
      <use xlink:href="#DejaVuSans-61" x="63.476562"/>
      <use xlink:href="#DejaVuSans-74" x="124.755859"/>
      <use xlink:href="#DejaVuSans-61" x="163.964844"/>
     </g>
    </g>
    <g id="line2d_32">
     <path d="M 61.160938 64.496562 
L 71.160938 64.496562 
L 81.160938 64.496562 
" style="fill: none; stroke-dasharray: 5.55,2.4; stroke-dashoffset: 0; stroke: #ff0000; stroke-width: 1.5"/>
    </g>
    <g id="text_18">
     <!-- sindy -->
     <g transform="translate(89.160938 67.996562) scale(0.1 -0.1)">
      <defs>
       <path id="DejaVuSans-73" d="M 2834 3397 
L 2834 2853 
Q 2591 2978 2328 3040 
Q 2066 3103 1784 3103 
Q 1356 3103 1142 2972 
Q 928 2841 928 2578 
Q 928 2378 1081 2264 
Q 1234 2150 1697 2047 
L 1894 2003 
Q 2506 1872 2764 1633 
Q 3022 1394 3022 966 
Q 3022 478 2636 193 
Q 2250 -91 1575 -91 
Q 1294 -91 989 -36 
Q 684 19 347 128 
L 347 722 
Q 666 556 975 473 
Q 1284 391 1588 391 
Q 1994 391 2212 530 
Q 2431 669 2431 922 
Q 2431 1156 2273 1281 
Q 2116 1406 1581 1522 
L 1381 1569 
Q 847 1681 609 1914 
Q 372 2147 372 2553 
Q 372 3047 722 3315 
Q 1072 3584 1716 3584 
Q 2034 3584 2315 3537 
Q 2597 3491 2834 3397 
z
" transform="scale(0.015625)"/>
       <path id="DejaVuSans-69" d="M 603 3500 
L 1178 3500 
L 1178 0 
L 603 0 
L 603 3500 
z
M 603 4863 
L 1178 4863 
L 1178 4134 
L 603 4134 
L 603 4863 
z
" transform="scale(0.015625)"/>
       <path id="DejaVuSans-6e" d="M 3513 2113 
L 3513 0 
L 2938 0 
L 2938 2094 
Q 2938 2591 2744 2837 
Q 2550 3084 2163 3084 
Q 1697 3084 1428 2787 
Q 1159 2491 1159 1978 
L 1159 0 
L 581 0 
L 581 3500 
L 1159 3500 
L 1159 2956 
Q 1366 3272 1645 3428 
Q 1925 3584 2291 3584 
Q 2894 3584 3203 3211 
Q 3513 2838 3513 2113 
z
" transform="scale(0.015625)"/>
       <path id="DejaVuSans-79" d="M 2059 -325 
Q 1816 -950 1584 -1140 
Q 1353 -1331 966 -1331 
L 506 -1331 
L 506 -850 
L 844 -850 
Q 1081 -850 1212 -737 
Q 1344 -625 1503 -206 
L 1606 56 
L 191 3500 
L 800 3500 
L 1894 763 
L 2988 3500 
L 3597 3500 
L 2059 -325 
z
" transform="scale(0.015625)"/>
      </defs>
      <use xlink:href="#DejaVuSans-73"/>
      <use xlink:href="#DejaVuSans-69" x="52.099609"/>
      <use xlink:href="#DejaVuSans-6e" x="79.882812"/>
      <use xlink:href="#DejaVuSans-64" x="143.261719"/>
      <use xlink:href="#DejaVuSans-79" x="206.738281"/>
     </g>
    </g>
   </g>
  </g>
  <g id="axes_2">
   <g id="patch_8">
    <path d="M 408.560938 318.04 
L 708.870937 318.04 
L 708.870937 36.72 
L 408.560938 36.72 
z
" style="fill: #ffffff"/>
   </g>
   <g id="matplotlib.axis_3">
    <g id="xtick_10">
     <g id="line2d_33">
      <path d="M 422.211392 318.04 
L 422.211392 36.72 
" clip-path="url(#pfc2aa83c18)" style="fill: none; stroke: #b0b0b0; stroke-width: 0.8; stroke-linecap: square"/>
     </g>
     <g id="line2d_34">
      <g>
       <use xlink:href="#m710e66bb8a" x="422.211392" y="318.04" style="stroke: #000000; stroke-width: 0.8"/>
      </g>
     </g>
     <g id="text_19">
      <!-- 0.0 -->
      <g transform="translate(414.25983 332.638437) scale(0.1 -0.1)">
       <use xlink:href="#DejaVuSans-30"/>
       <use xlink:href="#DejaVuSans-2e" x="63.623047"/>
       <use xlink:href="#DejaVuSans-30" x="95.410156"/>
      </g>
     </g>
    </g>
    <g id="xtick_11">
     <g id="line2d_35">
      <path d="M 456.337528 318.04 
L 456.337528 36.72 
" clip-path="url(#pfc2aa83c18)" style="fill: none; stroke: #b0b0b0; stroke-width: 0.8; stroke-linecap: square"/>
     </g>
     <g id="line2d_36">
      <g>
       <use xlink:href="#m710e66bb8a" x="456.337528" y="318.04" style="stroke: #000000; stroke-width: 0.8"/>
      </g>
     </g>
     <g id="text_20">
      <!-- 2.5 -->
      <g transform="translate(448.385966 332.638437) scale(0.1 -0.1)">
       <use xlink:href="#DejaVuSans-32"/>
       <use xlink:href="#DejaVuSans-2e" x="63.623047"/>
       <use xlink:href="#DejaVuSans-35" x="95.410156"/>
      </g>
     </g>
    </g>
    <g id="xtick_12">
     <g id="line2d_37">
      <path d="M 490.463665 318.04 
L 490.463665 36.72 
" clip-path="url(#pfc2aa83c18)" style="fill: none; stroke: #b0b0b0; stroke-width: 0.8; stroke-linecap: square"/>
     </g>
     <g id="line2d_38">
      <g>
       <use xlink:href="#m710e66bb8a" x="490.463665" y="318.04" style="stroke: #000000; stroke-width: 0.8"/>
      </g>
     </g>
     <g id="text_21">
      <!-- 5.0 -->
      <g transform="translate(482.512102 332.638437) scale(0.1 -0.1)">
       <use xlink:href="#DejaVuSans-35"/>
       <use xlink:href="#DejaVuSans-2e" x="63.623047"/>
       <use xlink:href="#DejaVuSans-30" x="95.410156"/>
      </g>
     </g>
    </g>
    <g id="xtick_13">
     <g id="line2d_39">
      <path d="M 524.589801 318.04 
L 524.589801 36.72 
" clip-path="url(#pfc2aa83c18)" style="fill: none; stroke: #b0b0b0; stroke-width: 0.8; stroke-linecap: square"/>
     </g>
     <g id="line2d_40">
      <g>
       <use xlink:href="#m710e66bb8a" x="524.589801" y="318.04" style="stroke: #000000; stroke-width: 0.8"/>
      </g>
     </g>
     <g id="text_22">
      <!-- 7.5 -->
      <g transform="translate(516.638239 332.638437) scale(0.1 -0.1)">
       <use xlink:href="#DejaVuSans-37"/>
       <use xlink:href="#DejaVuSans-2e" x="63.623047"/>
       <use xlink:href="#DejaVuSans-35" x="95.410156"/>
      </g>
     </g>
    </g>
    <g id="xtick_14">
     <g id="line2d_41">
      <path d="M 558.715937 318.04 
L 558.715937 36.72 
" clip-path="url(#pfc2aa83c18)" style="fill: none; stroke: #b0b0b0; stroke-width: 0.8; stroke-linecap: square"/>
     </g>
     <g id="line2d_42">
      <g>
       <use xlink:href="#m710e66bb8a" x="558.715937" y="318.04" style="stroke: #000000; stroke-width: 0.8"/>
      </g>
     </g>
     <g id="text_23">
      <!-- 10.0 -->
      <g transform="translate(547.583125 332.638437) scale(0.1 -0.1)">
       <use xlink:href="#DejaVuSans-31"/>
       <use xlink:href="#DejaVuSans-30" x="63.623047"/>
       <use xlink:href="#DejaVuSans-2e" x="127.246094"/>
       <use xlink:href="#DejaVuSans-30" x="159.033203"/>
      </g>
     </g>
    </g>
    <g id="xtick_15">
     <g id="line2d_43">
      <path d="M 592.842074 318.04 
L 592.842074 36.72 
" clip-path="url(#pfc2aa83c18)" style="fill: none; stroke: #b0b0b0; stroke-width: 0.8; stroke-linecap: square"/>
     </g>
     <g id="line2d_44">
      <g>
       <use xlink:href="#m710e66bb8a" x="592.842074" y="318.04" style="stroke: #000000; stroke-width: 0.8"/>
      </g>
     </g>
     <g id="text_24">
      <!-- 12.5 -->
      <g transform="translate(581.709261 332.638437) scale(0.1 -0.1)">
       <use xlink:href="#DejaVuSans-31"/>
       <use xlink:href="#DejaVuSans-32" x="63.623047"/>
       <use xlink:href="#DejaVuSans-2e" x="127.246094"/>
       <use xlink:href="#DejaVuSans-35" x="159.033203"/>
      </g>
     </g>
    </g>
    <g id="xtick_16">
     <g id="line2d_45">
      <path d="M 626.96821 318.04 
L 626.96821 36.72 
" clip-path="url(#pfc2aa83c18)" style="fill: none; stroke: #b0b0b0; stroke-width: 0.8; stroke-linecap: square"/>
     </g>
     <g id="line2d_46">
      <g>
       <use xlink:href="#m710e66bb8a" x="626.96821" y="318.04" style="stroke: #000000; stroke-width: 0.8"/>
      </g>
     </g>
     <g id="text_25">
      <!-- 15.0 -->
      <g transform="translate(615.835398 332.638437) scale(0.1 -0.1)">
       <use xlink:href="#DejaVuSans-31"/>
       <use xlink:href="#DejaVuSans-35" x="63.623047"/>
       <use xlink:href="#DejaVuSans-2e" x="127.246094"/>
       <use xlink:href="#DejaVuSans-30" x="159.033203"/>
      </g>
     </g>
    </g>
    <g id="xtick_17">
     <g id="line2d_47">
      <path d="M 661.094347 318.04 
L 661.094347 36.72 
" clip-path="url(#pfc2aa83c18)" style="fill: none; stroke: #b0b0b0; stroke-width: 0.8; stroke-linecap: square"/>
     </g>
     <g id="line2d_48">
      <g>
       <use xlink:href="#m710e66bb8a" x="661.094347" y="318.04" style="stroke: #000000; stroke-width: 0.8"/>
      </g>
     </g>
     <g id="text_26">
      <!-- 17.5 -->
      <g transform="translate(649.961534 332.638437) scale(0.1 -0.1)">
       <use xlink:href="#DejaVuSans-31"/>
       <use xlink:href="#DejaVuSans-37" x="63.623047"/>
       <use xlink:href="#DejaVuSans-2e" x="127.246094"/>
       <use xlink:href="#DejaVuSans-35" x="159.033203"/>
      </g>
     </g>
    </g>
    <g id="xtick_18">
     <g id="line2d_49">
      <path d="M 695.220483 318.04 
L 695.220483 36.72 
" clip-path="url(#pfc2aa83c18)" style="fill: none; stroke: #b0b0b0; stroke-width: 0.8; stroke-linecap: square"/>
     </g>
     <g id="line2d_50">
      <g>
       <use xlink:href="#m710e66bb8a" x="695.220483" y="318.04" style="stroke: #000000; stroke-width: 0.8"/>
      </g>
     </g>
     <g id="text_27">
      <!-- 20.0 -->
      <g transform="translate(684.08767 332.638437) scale(0.1 -0.1)">
       <use xlink:href="#DejaVuSans-32"/>
       <use xlink:href="#DejaVuSans-30" x="63.623047"/>
       <use xlink:href="#DejaVuSans-2e" x="127.246094"/>
       <use xlink:href="#DejaVuSans-30" x="159.033203"/>
      </g>
     </g>
    </g>
    <g id="text_28">
     <!-- t -->
     <g transform="translate(556.755781 346.316562) scale(0.1 -0.1)">
      <use xlink:href="#DejaVuSans-74"/>
     </g>
    </g>
   </g>
   <g id="matplotlib.axis_4">
    <g id="ytick_6">
     <g id="line2d_51">
      <path d="M 408.560938 303.784213 
L 708.870937 303.784213 
" clip-path="url(#pfc2aa83c18)" style="fill: none; stroke: #b0b0b0; stroke-width: 0.8; stroke-linecap: square"/>
     </g>
     <g id="line2d_52">
      <g>
       <use xlink:href="#md6475a7887" x="408.560938" y="303.784213" style="stroke: #000000; stroke-width: 0.8"/>
      </g>
     </g>
     <g id="text_29">
      <!-- −0.4 -->
      <g transform="translate(377.278125 307.583432) scale(0.1 -0.1)">
       <defs>
        <path id="DejaVuSans-34" d="M 2419 4116 
L 825 1625 
L 2419 1625 
L 2419 4116 
z
M 2253 4666 
L 3047 4666 
L 3047 1625 
L 3713 1625 
L 3713 1100 
L 3047 1100 
L 3047 0 
L 2419 0 
L 2419 1100 
L 313 1100 
L 313 1709 
L 2253 4666 
z
" transform="scale(0.015625)"/>
       </defs>
       <use xlink:href="#DejaVuSans-2212"/>
       <use xlink:href="#DejaVuSans-30" x="83.789062"/>
       <use xlink:href="#DejaVuSans-2e" x="147.412109"/>
       <use xlink:href="#DejaVuSans-34" x="179.199219"/>
      </g>
     </g>
    </g>
    <g id="ytick_7">
     <g id="line2d_53">
      <path d="M 408.560938 271.2618 
L 708.870937 271.2618 
" clip-path="url(#pfc2aa83c18)" style="fill: none; stroke: #b0b0b0; stroke-width: 0.8; stroke-linecap: square"/>
     </g>
     <g id="line2d_54">
      <g>
       <use xlink:href="#md6475a7887" x="408.560938" y="271.2618" style="stroke: #000000; stroke-width: 0.8"/>
      </g>
     </g>
     <g id="text_30">
      <!-- −0.3 -->
      <g transform="translate(377.278125 275.061019) scale(0.1 -0.1)">
       <defs>
        <path id="DejaVuSans-33" d="M 2597 2516 
Q 3050 2419 3304 2112 
Q 3559 1806 3559 1356 
Q 3559 666 3084 287 
Q 2609 -91 1734 -91 
Q 1441 -91 1130 -33 
Q 819 25 488 141 
L 488 750 
Q 750 597 1062 519 
Q 1375 441 1716 441 
Q 2309 441 2620 675 
Q 2931 909 2931 1356 
Q 2931 1769 2642 2001 
Q 2353 2234 1838 2234 
L 1294 2234 
L 1294 2753 
L 1863 2753 
Q 2328 2753 2575 2939 
Q 2822 3125 2822 3475 
Q 2822 3834 2567 4026 
Q 2313 4219 1838 4219 
Q 1578 4219 1281 4162 
Q 984 4106 628 3988 
L 628 4550 
Q 988 4650 1302 4700 
Q 1616 4750 1894 4750 
Q 2613 4750 3031 4423 
Q 3450 4097 3450 3541 
Q 3450 3153 3228 2886 
Q 3006 2619 2597 2516 
z
" transform="scale(0.015625)"/>
       </defs>
       <use xlink:href="#DejaVuSans-2212"/>
       <use xlink:href="#DejaVuSans-30" x="83.789062"/>
       <use xlink:href="#DejaVuSans-2e" x="147.412109"/>
       <use xlink:href="#DejaVuSans-33" x="179.199219"/>
      </g>
     </g>
    </g>
    <g id="ytick_8">
     <g id="line2d_55">
      <path d="M 408.560938 238.739387 
L 708.870937 238.739387 
" clip-path="url(#pfc2aa83c18)" style="fill: none; stroke: #b0b0b0; stroke-width: 0.8; stroke-linecap: square"/>
     </g>
     <g id="line2d_56">
      <g>
       <use xlink:href="#md6475a7887" x="408.560938" y="238.739387" style="stroke: #000000; stroke-width: 0.8"/>
      </g>
     </g>
     <g id="text_31">
      <!-- −0.2 -->
      <g transform="translate(377.278125 242.538606) scale(0.1 -0.1)">
       <use xlink:href="#DejaVuSans-2212"/>
       <use xlink:href="#DejaVuSans-30" x="83.789062"/>
       <use xlink:href="#DejaVuSans-2e" x="147.412109"/>
       <use xlink:href="#DejaVuSans-32" x="179.199219"/>
      </g>
     </g>
    </g>
    <g id="ytick_9">
     <g id="line2d_57">
      <path d="M 408.560938 206.216974 
L 708.870937 206.216974 
" clip-path="url(#pfc2aa83c18)" style="fill: none; stroke: #b0b0b0; stroke-width: 0.8; stroke-linecap: square"/>
     </g>
     <g id="line2d_58">
      <g>
       <use xlink:href="#md6475a7887" x="408.560938" y="206.216974" style="stroke: #000000; stroke-width: 0.8"/>
      </g>
     </g>
     <g id="text_32">
      <!-- −0.1 -->
      <g transform="translate(377.278125 210.016193) scale(0.1 -0.1)">
       <use xlink:href="#DejaVuSans-2212"/>
       <use xlink:href="#DejaVuSans-30" x="83.789062"/>
       <use xlink:href="#DejaVuSans-2e" x="147.412109"/>
       <use xlink:href="#DejaVuSans-31" x="179.199219"/>
      </g>
     </g>
    </g>
    <g id="ytick_10">
     <g id="line2d_59">
      <path d="M 408.560938 173.694561 
L 708.870937 173.694561 
" clip-path="url(#pfc2aa83c18)" style="fill: none; stroke: #b0b0b0; stroke-width: 0.8; stroke-linecap: square"/>
     </g>
     <g id="line2d_60">
      <g>
       <use xlink:href="#md6475a7887" x="408.560938" y="173.694561" style="stroke: #000000; stroke-width: 0.8"/>
      </g>
     </g>
     <g id="text_33">
      <!-- 0.0 -->
      <g transform="translate(385.657813 177.49378) scale(0.1 -0.1)">
       <use xlink:href="#DejaVuSans-30"/>
       <use xlink:href="#DejaVuSans-2e" x="63.623047"/>
       <use xlink:href="#DejaVuSans-30" x="95.410156"/>
      </g>
     </g>
    </g>
    <g id="ytick_11">
     <g id="line2d_61">
      <path d="M 408.560938 141.172148 
L 708.870937 141.172148 
" clip-path="url(#pfc2aa83c18)" style="fill: none; stroke: #b0b0b0; stroke-width: 0.8; stroke-linecap: square"/>
     </g>
     <g id="line2d_62">
      <g>
       <use xlink:href="#md6475a7887" x="408.560938" y="141.172148" style="stroke: #000000; stroke-width: 0.8"/>
      </g>
     </g>
     <g id="text_34">
      <!-- 0.1 -->
      <g transform="translate(385.657813 144.971367) scale(0.1 -0.1)">
       <use xlink:href="#DejaVuSans-30"/>
       <use xlink:href="#DejaVuSans-2e" x="63.623047"/>
       <use xlink:href="#DejaVuSans-31" x="95.410156"/>
      </g>
     </g>
    </g>
    <g id="ytick_12">
     <g id="line2d_63">
      <path d="M 408.560938 108.649736 
L 708.870937 108.649736 
" clip-path="url(#pfc2aa83c18)" style="fill: none; stroke: #b0b0b0; stroke-width: 0.8; stroke-linecap: square"/>
     </g>
     <g id="line2d_64">
      <g>
       <use xlink:href="#md6475a7887" x="408.560938" y="108.649736" style="stroke: #000000; stroke-width: 0.8"/>
      </g>
     </g>
     <g id="text_35">
      <!-- 0.2 -->
      <g transform="translate(385.657813 112.448954) scale(0.1 -0.1)">
       <use xlink:href="#DejaVuSans-30"/>
       <use xlink:href="#DejaVuSans-2e" x="63.623047"/>
       <use xlink:href="#DejaVuSans-32" x="95.410156"/>
      </g>
     </g>
    </g>
    <g id="ytick_13">
     <g id="line2d_65">
      <path d="M 408.560938 76.127323 
L 708.870937 76.127323 
" clip-path="url(#pfc2aa83c18)" style="fill: none; stroke: #b0b0b0; stroke-width: 0.8; stroke-linecap: square"/>
     </g>
     <g id="line2d_66">
      <g>
       <use xlink:href="#md6475a7887" x="408.560938" y="76.127323" style="stroke: #000000; stroke-width: 0.8"/>
      </g>
     </g>
     <g id="text_36">
      <!-- 0.3 -->
      <g transform="translate(385.657813 79.926541) scale(0.1 -0.1)">
       <use xlink:href="#DejaVuSans-30"/>
       <use xlink:href="#DejaVuSans-2e" x="63.623047"/>
       <use xlink:href="#DejaVuSans-33" x="95.410156"/>
      </g>
     </g>
    </g>
    <g id="ytick_14">
     <g id="line2d_67">
      <path d="M 408.560938 43.60491 
L 708.870937 43.60491 
" clip-path="url(#pfc2aa83c18)" style="fill: none; stroke: #b0b0b0; stroke-width: 0.8; stroke-linecap: square"/>
     </g>
     <g id="line2d_68">
      <g>
       <use xlink:href="#md6475a7887" x="408.560938" y="43.60491" style="stroke: #000000; stroke-width: 0.8"/>
      </g>
     </g>
     <g id="text_37">
      <!-- 0.4 -->
      <g transform="translate(385.657813 47.404128) scale(0.1 -0.1)">
       <use xlink:href="#DejaVuSans-30"/>
       <use xlink:href="#DejaVuSans-2e" x="63.623047"/>
       <use xlink:href="#DejaVuSans-34" x="95.410156"/>
      </g>
     </g>
    </g>
    <g id="text_38">
     <!-- Fr(t) -->
     <g transform="translate(371.198438 187.810469) rotate(-90) scale(0.1 -0.1)">
      <defs>
       <path id="DejaVuSans-46" d="M 628 4666 
L 3309 4666 
L 3309 4134 
L 1259 4134 
L 1259 2759 
L 3109 2759 
L 3109 2228 
L 1259 2228 
L 1259 0 
L 628 0 
L 628 4666 
z
" transform="scale(0.015625)"/>
       <path id="DejaVuSans-72" d="M 2631 2963 
Q 2534 3019 2420 3045 
Q 2306 3072 2169 3072 
Q 1681 3072 1420 2755 
Q 1159 2438 1159 1844 
L 1159 0 
L 581 0 
L 581 3500 
L 1159 3500 
L 1159 2956 
Q 1341 3275 1631 3429 
Q 1922 3584 2338 3584 
Q 2397 3584 2469 3576 
Q 2541 3569 2628 3553 
L 2631 2963 
z
" transform="scale(0.015625)"/>
      </defs>
      <use xlink:href="#DejaVuSans-46"/>
      <use xlink:href="#DejaVuSans-72" x="50.269531"/>
      <use xlink:href="#DejaVuSans-28" x="91.382812"/>
      <use xlink:href="#DejaVuSans-74" x="130.396484"/>
      <use xlink:href="#DejaVuSans-29" x="169.605469"/>
     </g>
    </g>
   </g>
   <g id="line2d_69">
    <path d="M 422.211392 173.694561 
L 430.409863 173.593714 
L 433.689252 173.32123 
L 436.148793 172.910839 
L 438.335052 172.341351 
L 440.521311 171.537 
L 442.434288 170.614527 
L 444.347264 169.472101 
L 446.533523 167.889218 
L 448.719782 166.016669 
L 451.179324 163.593975 
L 453.912147 160.58287 
L 458.284665 155.377708 
L 462.383901 150.594531 
L 464.843442 148.044506 
L 466.756419 146.343635 
L 468.396113 145.140499 
L 470.035807 144.218432 
L 471.402219 143.695817 
L 472.768631 143.422974 
L 473.861761 143.403987 
L 474.95489 143.607466 
L 476.04802 144.055622 
L 477.141149 144.76141 
L 478.234279 145.736279 
L 479.327408 146.989999 
L 480.69382 148.961178 
L 482.060232 151.39139 
L 483.426644 154.286447 
L 485.066338 158.373949 
L 486.706032 163.119752 
L 488.619009 169.455937 
L 490.805268 177.62637 
L 494.631221 192.941228 
L 499.550304 212.466064 
L 502.283127 222.408806 
L 504.469386 229.624758 
L 506.655645 236.062184 
L 508.568622 240.992241 
L 510.208316 244.664045 
L 511.84801 247.804096 
L 513.214422 250.002926 
L 514.580834 251.812539 
L 515.947246 253.223878 
L 517.040376 254.059413 
L 518.133505 254.627538 
L 519.226635 254.921199 
L 520.046482 254.950155 
L 520.866329 254.69811 
L 521.686176 254.117349 
L 522.506023 253.201765 
L 523.32587 251.946484 
L 524.145717 250.347903 
L 525.238847 247.678676 
L 526.331976 244.393529 
L 527.698388 239.425453 
L 529.0648 233.514533 
L 530.431212 226.686828 
L 532.070906 217.336489 
L 533.983883 204.942212 
L 536.170142 189.033873 
L 538.902965 167.156943 
L 541.635789 146.009117 
L 543.822048 130.674571 
L 545.735025 118.610749 
L 547.648001 107.877606 
L 549.560978 98.476688 
L 551.200672 91.449466 
L 552.840366 85.331147 
L 554.480061 80.073485 
L 556.119755 75.625936 
L 557.486167 72.503179 
L 558.852579 69.883359 
L 560.218991 67.744192 
L 561.585402 66.067619 
L 562.678532 65.050412 
L 563.771661 64.316529 
L 564.864791 63.8642 
L 565.95792 63.694288 
L 566.504485 63.762991 
L 567.05105 64.045486 
L 567.597615 64.546023 
L 568.417462 65.708139 
L 569.237309 67.36579 
L 570.057156 69.51938 
L 571.150285 73.159257 
L 572.243415 77.668432 
L 573.336544 83.031226 
L 574.702956 90.900976 
L 576.069368 100.012861 
L 577.709062 112.484683 
L 579.622039 128.960743 
L 581.808298 149.971992 
L 584.814404 181.534413 
L 587.000663 203.095755 
L 588.91364 219.775243 
L 590.826616 234.344617 
L 592.466311 245.193406 
L 594.106005 254.611701 
L 595.745699 262.702284 
L 597.385393 269.577893 
L 598.751805 274.461164 
L 600.118217 278.641483 
L 601.484629 282.175945 
L 602.851041 285.115293 
L 604.217453 287.503067 
L 605.583865 289.375062 
L 606.676994 290.520177 
L 607.770124 291.363384 
L 608.863253 291.911463 
L 609.956382 292.167563 
L 610.77623 292.115429 
L 611.322794 291.789029 
L 611.869359 291.199594 
L 612.415924 290.346404 
L 613.235771 288.57169 
L 614.055618 286.204347 
L 614.875465 283.248087 
L 615.968595 278.401352 
L 617.061724 272.540385 
L 618.428136 263.833078 
L 619.794548 253.660753 
L 621.434242 239.650195 
L 623.347219 221.061938 
L 625.533478 197.305556 
L 630.999125 135.697892 
L 632.638819 120.614777 
L 634.278514 107.409903 
L 635.918208 95.991437 
L 637.557902 86.226044 
L 639.197596 77.960448 
L 640.564008 72.10448 
L 641.93042 67.092934 
L 643.296832 62.84441 
L 644.663244 59.285703 
L 646.029656 56.352909 
L 647.396068 53.99201 
L 648.489197 52.485228 
L 649.582327 51.298429 
L 650.675456 50.418067 
L 651.768586 49.834827 
L 652.861715 49.543683 
L 653.681562 49.54437 
L 654.228127 49.840865 
L 654.774692 50.434873 
L 655.321256 51.327249 
L 656.141104 53.225738 
L 656.960951 55.7947 
L 657.780798 59.029895 
L 658.873927 64.367182 
L 659.967057 70.851271 
L 661.333469 80.517117 
L 662.699881 91.837122 
L 664.339575 107.455086 
L 666.252551 128.199683 
L 668.43881 154.725532 
L 672.811328 209.262937 
L 674.451023 226.208217 
L 676.090717 240.961205 
L 677.730411 253.635468 
L 679.370105 264.400483 
L 680.736517 272.053932 
L 682.102929 278.63419 
L 683.469341 284.254291 
L 684.835753 289.019615 
L 686.202165 293.025447 
L 687.568577 296.355667 
L 688.934988 299.082214 
L 690.3014 301.265053 
L 691.39453 302.652643 
L 692.487659 303.742749 
L 693.580789 304.5502 
L 694.673918 305.085309 
L 695.220483 305.252727 
L 695.220483 305.252727 
" clip-path="url(#pfc2aa83c18)" style="fill: none; stroke: #0000ff; stroke-width: 1.5; stroke-linecap: square"/>
   </g>
   <g id="line2d_70">
    <path d="M 422.211392 173.694561 
L 424.124369 174.247312 
L 425.764063 174.500872 
L 427.403757 174.533293 
L 429.043451 174.332858 
L 430.683146 173.893794 
L 432.32284 173.217194 
L 433.962534 172.311847 
L 435.875511 170.989857 
L 438.06177 169.181667 
L 440.794593 166.607885 
L 446.806806 160.812065 
L 448.993065 159.064647 
L 450.906041 157.842315 
L 452.545735 157.06985 
L 453.912147 156.641067 
L 455.278559 156.418489 
L 456.644971 156.407018 
L 458.011383 156.606717 
L 459.377795 157.013112 
L 461.017489 157.761225 
L 462.657183 158.772611 
L 464.57016 160.247548 
L 466.756419 162.25647 
L 469.489243 165.119591 
L 478.780843 175.218979 
L 480.69382 176.867837 
L 482.333514 178.040469 
L 483.973208 178.948127 
L 485.33962 179.475061 
L 486.706032 179.772662 
L 488.072444 179.824241 
L 489.438856 179.616383 
L 490.805268 179.139651 
L 492.17168 178.389356 
L 493.538091 177.366409 
L 494.904503 176.078189 
L 496.544198 174.203407 
L 498.457174 171.615909 
L 500.643433 168.249638 
L 508.29534 156.006759 
L 509.935034 153.94345 
L 511.301446 152.519018 
L 512.667858 151.399597 
L 513.760987 150.740597 
L 514.854117 150.301075 
L 515.947246 150.085487 
L 517.040376 150.094645 
L 518.133505 150.32596 
L 519.226635 150.773734 
L 520.319764 151.429501 
L 521.686176 152.524951 
L 523.052588 153.902725 
L 524.692282 155.88729 
L 526.605259 158.588817 
L 528.791518 162.071104 
L 532.070906 167.783233 
L 537.809836 177.865878 
L 540.269377 181.68407 
L 542.182354 184.243832 
L 543.822048 186.068448 
L 545.18846 187.28109 
L 546.554872 188.177229 
L 547.648001 188.644546 
L 548.741131 188.873405 
L 549.83426 188.849912 
L 550.92739 188.561788 
L 552.020519 187.998673 
L 553.113649 187.152514 
L 554.206778 186.018063 
L 555.299908 184.593498 
L 556.66632 182.408928 
L 558.032732 179.791331 
L 559.672426 176.124451 
L 561.585402 171.239006 
L 564.318226 163.547704 
L 567.870897 153.581879 
L 569.783874 148.870731 
L 571.423568 145.463959 
L 572.78998 143.165827 
L 573.883109 141.718346 
L 574.976239 140.637123 
L 575.796086 140.072598 
L 576.615933 139.721191 
L 577.43578 139.582452 
L 578.255627 139.654038 
L 579.075474 139.931837 
L 579.895321 140.410098 
L 580.988451 141.3469 
L 582.08158 142.606324 
L 583.447992 144.597343 
L 584.814404 147.002398 
L 586.454098 150.356805 
L 588.367075 154.793982 
L 590.826616 161.103183 
L 594.65257 171.656426 
L 599.844935 185.907368 
L 602.304476 191.997907 
L 604.217453 196.178905 
L 605.857147 199.253186 
L 607.223559 201.386983 
L 608.589971 203.079456 
L 609.6831 204.085616 
L 610.77623 204.760125 
L 611.596077 205.037008 
L 612.415924 205.109455 
L 613.235771 204.970613 
L 614.055618 204.613975 
L 614.875465 204.033293 
L 615.695312 203.222498 
L 616.788442 201.773282 
L 617.881571 199.890978 
L 618.974701 197.563256 
L 620.341113 194.012599 
L 621.707525 189.742783 
L 623.073936 184.76774 
L 624.713631 177.939783 
L 626.89989 167.699717 
L 632.092255 142.729015 
L 633.731949 136.126023 
L 635.098361 131.462213 
L 636.464773 127.659128 
L 637.557902 125.276343 
L 638.651032 123.501118 
L 639.470879 122.575578 
L 640.290726 122.000664 
L 641.110573 121.77636 
L 641.657138 121.820464 
L 642.476985 122.173473 
L 643.296832 122.863892 
L 644.116679 123.881071 
L 644.936526 125.211041 
L 646.029656 127.440779 
L 647.122785 130.147272 
L 648.489197 134.116581 
L 650.128891 139.588722 
L 652.31515 147.778468 
L 655.047974 158.938303 
L 659.420492 177.840302 
L 665.159422 202.58369 
L 667.618963 212.153536 
L 669.53194 218.668595 
L 671.171634 223.398881 
L 672.538046 226.646093 
L 673.631175 228.756035 
L 674.724305 230.418874 
L 675.817434 231.631135 
L 676.637282 232.246482 
L 677.457129 232.613593 
L 678.276976 232.737017 
L 679.096823 232.621983 
L 679.91667 232.273946 
L 680.736517 231.69815 
L 681.829647 230.583943 
L 682.922776 229.080776 
L 684.015906 227.191712 
L 685.109035 224.913624 
L 686.475447 221.502217 
L 687.841859 217.42745 
L 689.208271 212.630407 
L 690.574683 207.035196 
L 691.941094 200.559503 
L 693.580789 191.535801 
L 695.220483 181.144773 
L 695.220483 181.144773 
" clip-path="url(#pfc2aa83c18)" style="fill: none; stroke-dasharray: 5.55,2.4; stroke-dashoffset: 0; stroke: #ff0000; stroke-width: 1.5"/>
   </g>
   <g id="patch_9">
    <path d="M 408.560938 318.04 
L 408.560938 36.72 
" style="fill: none; stroke: #000000; stroke-width: 0.8; stroke-linejoin: miter; stroke-linecap: square"/>
   </g>
   <g id="patch_10">
    <path d="M 708.870937 318.04 
L 708.870937 36.72 
" style="fill: none; stroke: #000000; stroke-width: 0.8; stroke-linejoin: miter; stroke-linecap: square"/>
   </g>
   <g id="patch_11">
    <path d="M 408.560938 318.04 
L 708.870937 318.04 
" style="fill: none; stroke: #000000; stroke-width: 0.8; stroke-linejoin: miter; stroke-linecap: square"/>
   </g>
   <g id="patch_12">
    <path d="M 408.560938 36.72 
L 708.870937 36.72 
" style="fill: none; stroke: #000000; stroke-width: 0.8; stroke-linejoin: miter; stroke-linecap: square"/>
   </g>
   <g id="legend_2">
    <g id="patch_13">
     <path d="M 415.560938 74.07625 
L 474.153125 74.07625 
Q 476.153125 74.07625 476.153125 72.07625 
L 476.153125 43.72 
Q 476.153125 41.72 474.153125 41.72 
L 415.560938 41.72 
Q 413.560938 41.72 413.560938 43.72 
L 413.560938 72.07625 
Q 413.560938 74.07625 415.560938 74.07625 
z
" style="fill: #ffffff; opacity: 0.8; stroke: #cccccc; stroke-linejoin: miter"/>
    </g>
    <g id="line2d_71">
     <path d="M 417.560938 49.818437 
L 427.560938 49.818437 
L 437.560938 49.818437 
" style="fill: none; stroke: #0000ff; stroke-width: 1.5; stroke-linecap: square"/>
    </g>
    <g id="text_39">
     <!-- data -->
     <g transform="translate(445.560938 53.318437) scale(0.1 -0.1)">
      <use xlink:href="#DejaVuSans-64"/>
      <use xlink:href="#DejaVuSans-61" x="63.476562"/>
      <use xlink:href="#DejaVuSans-74" x="124.755859"/>
      <use xlink:href="#DejaVuSans-61" x="163.964844"/>
     </g>
    </g>
    <g id="line2d_72">
     <path d="M 417.560938 64.496562 
L 427.560938 64.496562 
L 437.560938 64.496562 
" style="fill: none; stroke-dasharray: 5.55,2.4; stroke-dashoffset: 0; stroke: #ff0000; stroke-width: 1.5"/>
    </g>
    <g id="text_40">
     <!-- sindy -->
     <g transform="translate(445.560938 67.996562) scale(0.1 -0.1)">
      <use xlink:href="#DejaVuSans-73"/>
      <use xlink:href="#DejaVuSans-69" x="52.099609"/>
      <use xlink:href="#DejaVuSans-6e" x="79.882812"/>
      <use xlink:href="#DejaVuSans-64" x="143.261719"/>
      <use xlink:href="#DejaVuSans-79" x="206.738281"/>
     </g>
    </g>
   </g>
  </g>
  <g id="axes_3">
   <g id="patch_14">
    <path d="M 764.960938 318.04 
L 1065.270937 318.04 
L 1065.270937 36.72 
L 764.960938 36.72 
z
" style="fill: #ffffff"/>
   </g>
   <g id="matplotlib.axis_5">
    <g id="xtick_19">
     <g id="line2d_73">
      <path d="M 808.084699 318.04 
L 808.084699 36.72 
" clip-path="url(#pf534a8bfc8)" style="fill: none; stroke: #b0b0b0; stroke-width: 0.8; stroke-linecap: square"/>
     </g>
     <g id="line2d_74">
      <g>
       <use xlink:href="#m710e66bb8a" x="808.084699" y="318.04" style="stroke: #000000; stroke-width: 0.8"/>
      </g>
     </g>
     <g id="text_41">
      <!-- −1.0 -->
      <g transform="translate(795.943293 332.638437) scale(0.1 -0.1)">
       <use xlink:href="#DejaVuSans-2212"/>
       <use xlink:href="#DejaVuSans-31" x="83.789062"/>
       <use xlink:href="#DejaVuSans-2e" x="147.412109"/>
       <use xlink:href="#DejaVuSans-30" x="179.199219"/>
      </g>
     </g>
    </g>
    <g id="xtick_20">
     <g id="line2d_75">
      <path d="M 865.148859 318.04 
L 865.148859 36.72 
" clip-path="url(#pf534a8bfc8)" style="fill: none; stroke: #b0b0b0; stroke-width: 0.8; stroke-linecap: square"/>
     </g>
     <g id="line2d_76">
      <g>
       <use xlink:href="#m710e66bb8a" x="865.148859" y="318.04" style="stroke: #000000; stroke-width: 0.8"/>
      </g>
     </g>
     <g id="text_42">
      <!-- −0.5 -->
      <g transform="translate(853.007452 332.638437) scale(0.1 -0.1)">
       <use xlink:href="#DejaVuSans-2212"/>
       <use xlink:href="#DejaVuSans-30" x="83.789062"/>
       <use xlink:href="#DejaVuSans-2e" x="147.412109"/>
       <use xlink:href="#DejaVuSans-35" x="179.199219"/>
      </g>
     </g>
    </g>
    <g id="xtick_21">
     <g id="line2d_77">
      <path d="M 922.213018 318.04 
L 922.213018 36.72 
" clip-path="url(#pf534a8bfc8)" style="fill: none; stroke: #b0b0b0; stroke-width: 0.8; stroke-linecap: square"/>
     </g>
     <g id="line2d_78">
      <g>
       <use xlink:href="#m710e66bb8a" x="922.213018" y="318.04" style="stroke: #000000; stroke-width: 0.8"/>
      </g>
     </g>
     <g id="text_43">
      <!-- 0.0 -->
      <g transform="translate(914.261456 332.638437) scale(0.1 -0.1)">
       <use xlink:href="#DejaVuSans-30"/>
       <use xlink:href="#DejaVuSans-2e" x="63.623047"/>
       <use xlink:href="#DejaVuSans-30" x="95.410156"/>
      </g>
     </g>
    </g>
    <g id="xtick_22">
     <g id="line2d_79">
      <path d="M 979.277178 318.04 
L 979.277178 36.72 
" clip-path="url(#pf534a8bfc8)" style="fill: none; stroke: #b0b0b0; stroke-width: 0.8; stroke-linecap: square"/>
     </g>
     <g id="line2d_80">
      <g>
       <use xlink:href="#m710e66bb8a" x="979.277178" y="318.04" style="stroke: #000000; stroke-width: 0.8"/>
      </g>
     </g>
     <g id="text_44">
      <!-- 0.5 -->
      <g transform="translate(971.325615 332.638437) scale(0.1 -0.1)">
       <use xlink:href="#DejaVuSans-30"/>
       <use xlink:href="#DejaVuSans-2e" x="63.623047"/>
       <use xlink:href="#DejaVuSans-35" x="95.410156"/>
      </g>
     </g>
    </g>
    <g id="xtick_23">
     <g id="line2d_81">
      <path d="M 1036.341337 318.04 
L 1036.341337 36.72 
" clip-path="url(#pf534a8bfc8)" style="fill: none; stroke: #b0b0b0; stroke-width: 0.8; stroke-linecap: square"/>
     </g>
     <g id="line2d_82">
      <g>
       <use xlink:href="#m710e66bb8a" x="1036.341337" y="318.04" style="stroke: #000000; stroke-width: 0.8"/>
      </g>
     </g>
     <g id="text_45">
      <!-- 1.0 -->
      <g transform="translate(1028.389774 332.638437) scale(0.1 -0.1)">
       <use xlink:href="#DejaVuSans-31"/>
       <use xlink:href="#DejaVuSans-2e" x="63.623047"/>
       <use xlink:href="#DejaVuSans-30" x="95.410156"/>
      </g>
     </g>
    </g>
    <g id="text_46">
     <!-- x(t) -->
     <g transform="translate(906.294844 346.316562) scale(0.1 -0.1)">
      <use xlink:href="#DejaVuSans-78"/>
      <use xlink:href="#DejaVuSans-28" x="59.179688"/>
      <use xlink:href="#DejaVuSans-74" x="98.193359"/>
      <use xlink:href="#DejaVuSans-29" x="137.402344"/>
     </g>
    </g>
   </g>
   <g id="matplotlib.axis_6">
    <g id="ytick_15">
     <g id="line2d_83">
      <path d="M 764.960938 303.784213 
L 1065.270937 303.784213 
" clip-path="url(#pf534a8bfc8)" style="fill: none; stroke: #b0b0b0; stroke-width: 0.8; stroke-linecap: square"/>
     </g>
     <g id="line2d_84">
      <g>
       <use xlink:href="#md6475a7887" x="764.960938" y="303.784213" style="stroke: #000000; stroke-width: 0.8"/>
      </g>
     </g>
     <g id="text_47">
      <!-- −0.4 -->
      <g transform="translate(733.678125 307.583432) scale(0.1 -0.1)">
       <use xlink:href="#DejaVuSans-2212"/>
       <use xlink:href="#DejaVuSans-30" x="83.789062"/>
       <use xlink:href="#DejaVuSans-2e" x="147.412109"/>
       <use xlink:href="#DejaVuSans-34" x="179.199219"/>
      </g>
     </g>
    </g>
    <g id="ytick_16">
     <g id="line2d_85">
      <path d="M 764.960938 271.2618 
L 1065.270937 271.2618 
" clip-path="url(#pf534a8bfc8)" style="fill: none; stroke: #b0b0b0; stroke-width: 0.8; stroke-linecap: square"/>
     </g>
     <g id="line2d_86">
      <g>
       <use xlink:href="#md6475a7887" x="764.960938" y="271.2618" style="stroke: #000000; stroke-width: 0.8"/>
      </g>
     </g>
     <g id="text_48">
      <!-- −0.3 -->
      <g transform="translate(733.678125 275.061019) scale(0.1 -0.1)">
       <use xlink:href="#DejaVuSans-2212"/>
       <use xlink:href="#DejaVuSans-30" x="83.789062"/>
       <use xlink:href="#DejaVuSans-2e" x="147.412109"/>
       <use xlink:href="#DejaVuSans-33" x="179.199219"/>
      </g>
     </g>
    </g>
    <g id="ytick_17">
     <g id="line2d_87">
      <path d="M 764.960938 238.739387 
L 1065.270937 238.739387 
" clip-path="url(#pf534a8bfc8)" style="fill: none; stroke: #b0b0b0; stroke-width: 0.8; stroke-linecap: square"/>
     </g>
     <g id="line2d_88">
      <g>
       <use xlink:href="#md6475a7887" x="764.960938" y="238.739387" style="stroke: #000000; stroke-width: 0.8"/>
      </g>
     </g>
     <g id="text_49">
      <!-- −0.2 -->
      <g transform="translate(733.678125 242.538606) scale(0.1 -0.1)">
       <use xlink:href="#DejaVuSans-2212"/>
       <use xlink:href="#DejaVuSans-30" x="83.789062"/>
       <use xlink:href="#DejaVuSans-2e" x="147.412109"/>
       <use xlink:href="#DejaVuSans-32" x="179.199219"/>
      </g>
     </g>
    </g>
    <g id="ytick_18">
     <g id="line2d_89">
      <path d="M 764.960938 206.216974 
L 1065.270937 206.216974 
" clip-path="url(#pf534a8bfc8)" style="fill: none; stroke: #b0b0b0; stroke-width: 0.8; stroke-linecap: square"/>
     </g>
     <g id="line2d_90">
      <g>
       <use xlink:href="#md6475a7887" x="764.960938" y="206.216974" style="stroke: #000000; stroke-width: 0.8"/>
      </g>
     </g>
     <g id="text_50">
      <!-- −0.1 -->
      <g transform="translate(733.678125 210.016193) scale(0.1 -0.1)">
       <use xlink:href="#DejaVuSans-2212"/>
       <use xlink:href="#DejaVuSans-30" x="83.789062"/>
       <use xlink:href="#DejaVuSans-2e" x="147.412109"/>
       <use xlink:href="#DejaVuSans-31" x="179.199219"/>
      </g>
     </g>
    </g>
    <g id="ytick_19">
     <g id="line2d_91">
      <path d="M 764.960938 173.694561 
L 1065.270937 173.694561 
" clip-path="url(#pf534a8bfc8)" style="fill: none; stroke: #b0b0b0; stroke-width: 0.8; stroke-linecap: square"/>
     </g>
     <g id="line2d_92">
      <g>
       <use xlink:href="#md6475a7887" x="764.960938" y="173.694561" style="stroke: #000000; stroke-width: 0.8"/>
      </g>
     </g>
     <g id="text_51">
      <!-- 0.0 -->
      <g transform="translate(742.057812 177.49378) scale(0.1 -0.1)">
       <use xlink:href="#DejaVuSans-30"/>
       <use xlink:href="#DejaVuSans-2e" x="63.623047"/>
       <use xlink:href="#DejaVuSans-30" x="95.410156"/>
      </g>
     </g>
    </g>
    <g id="ytick_20">
     <g id="line2d_93">
      <path d="M 764.960938 141.172148 
L 1065.270937 141.172148 
" clip-path="url(#pf534a8bfc8)" style="fill: none; stroke: #b0b0b0; stroke-width: 0.8; stroke-linecap: square"/>
     </g>
     <g id="line2d_94">
      <g>
       <use xlink:href="#md6475a7887" x="764.960938" y="141.172148" style="stroke: #000000; stroke-width: 0.8"/>
      </g>
     </g>
     <g id="text_52">
      <!-- 0.1 -->
      <g transform="translate(742.057812 144.971367) scale(0.1 -0.1)">
       <use xlink:href="#DejaVuSans-30"/>
       <use xlink:href="#DejaVuSans-2e" x="63.623047"/>
       <use xlink:href="#DejaVuSans-31" x="95.410156"/>
      </g>
     </g>
    </g>
    <g id="ytick_21">
     <g id="line2d_95">
      <path d="M 764.960938 108.649736 
L 1065.270937 108.649736 
" clip-path="url(#pf534a8bfc8)" style="fill: none; stroke: #b0b0b0; stroke-width: 0.8; stroke-linecap: square"/>
     </g>
     <g id="line2d_96">
      <g>
       <use xlink:href="#md6475a7887" x="764.960938" y="108.649736" style="stroke: #000000; stroke-width: 0.8"/>
      </g>
     </g>
     <g id="text_53">
      <!-- 0.2 -->
      <g transform="translate(742.057812 112.448954) scale(0.1 -0.1)">
       <use xlink:href="#DejaVuSans-30"/>
       <use xlink:href="#DejaVuSans-2e" x="63.623047"/>
       <use xlink:href="#DejaVuSans-32" x="95.410156"/>
      </g>
     </g>
    </g>
    <g id="ytick_22">
     <g id="line2d_97">
      <path d="M 764.960938 76.127323 
L 1065.270937 76.127323 
" clip-path="url(#pf534a8bfc8)" style="fill: none; stroke: #b0b0b0; stroke-width: 0.8; stroke-linecap: square"/>
     </g>
     <g id="line2d_98">
      <g>
       <use xlink:href="#md6475a7887" x="764.960938" y="76.127323" style="stroke: #000000; stroke-width: 0.8"/>
      </g>
     </g>
     <g id="text_54">
      <!-- 0.3 -->
      <g transform="translate(742.057812 79.926541) scale(0.1 -0.1)">
       <use xlink:href="#DejaVuSans-30"/>
       <use xlink:href="#DejaVuSans-2e" x="63.623047"/>
       <use xlink:href="#DejaVuSans-33" x="95.410156"/>
      </g>
     </g>
    </g>
    <g id="ytick_23">
     <g id="line2d_99">
      <path d="M 764.960938 43.60491 
L 1065.270937 43.60491 
" clip-path="url(#pf534a8bfc8)" style="fill: none; stroke: #b0b0b0; stroke-width: 0.8; stroke-linecap: square"/>
     </g>
     <g id="line2d_100">
      <g>
       <use xlink:href="#md6475a7887" x="764.960938" y="43.60491" style="stroke: #000000; stroke-width: 0.8"/>
      </g>
     </g>
     <g id="text_55">
      <!-- 0.4 -->
      <g transform="translate(742.057812 47.404128) scale(0.1 -0.1)">
       <use xlink:href="#DejaVuSans-30"/>
       <use xlink:href="#DejaVuSans-2e" x="63.623047"/>
       <use xlink:href="#DejaVuSans-34" x="95.410156"/>
      </g>
     </g>
    </g>
    <g id="text_56">
     <!-- Fr(t) -->
     <g transform="translate(727.598438 187.810469) rotate(-90) scale(0.1 -0.1)">
      <use xlink:href="#DejaVuSans-46"/>
      <use xlink:href="#DejaVuSans-72" x="50.269531"/>
      <use xlink:href="#DejaVuSans-28" x="91.382812"/>
      <use xlink:href="#DejaVuSans-74" x="130.396484"/>
      <use xlink:href="#DejaVuSans-29" x="169.605469"/>
     </g>
    </g>
   </g>
   <g id="line2d_101">
    <path d="M 922.213018 173.694561 
L 927.731692 166.016669 
L 933.277207 158.662745 
L 938.937589 151.512212 
L 944.778648 144.491891 
L 945.723496 143.389271 
L 945.149487 144.207441 
L 919.325479 180.840403 
L 913.556869 188.507218 
L 907.408393 196.267774 
L 901.90793 202.868731 
L 896.265002 209.321856 
L 890.551601 215.542426 
L 884.844143 221.45722 
L 878.299752 227.889992 
L 872.003582 233.745087 
L 866.089458 238.962738 
L 859.970336 244.088536 
L 853.568791 249.169613 
L 846.827005 254.226771 
L 845.812727 254.962564 
L 845.998181 254.69811 
L 907.540516 167.156943 
L 914.082749 158.470835 
L 919.090696 152.146712 
L 924.167892 146.009117 
L 929.298284 140.075246 
L 934.46564 134.35901 
L 939.653586 128.871258 
L 946.574409 121.923172 
L 953.463391 115.407326 
L 960.281361 109.328851 
L 966.9893 103.687087 
L 973.548498 98.476688 
L 979.920704 93.68866 
L 986.068282 89.311321 
L 993.38078 84.396463 
L 1000.214778 80.073485 
L 1007.689451 75.625936 
L 1015.270273 71.396232 
L 1022.967776 67.372365 
L 1030.4744 63.694288 
L 1030.470148 63.703037 
L 949.720266 178.665548 
L 943.383293 187.161288 
L 936.958694 195.311172 
L 930.469118 203.095755 
L 923.937198 210.501827 
L 917.385489 217.521716 
L 910.836416 224.152579 
L 904.312229 230.39571 
L 897.83495 236.255867 
L 891.426337 241.740645 
L 885.107844 246.859892 
L 878.900575 251.625183 
L 872.825256 256.049353 
L 866.902188 260.146073 
L 859.275835 265.123499 
L 852.001043 269.577893 
L 845.121766 273.542672 
L 837.142781 277.85883 
L 829.925094 281.518186 
L 822.370138 285.115293 
L 814.357965 288.686201 
L 805.93956 292.185978 
L 805.939313 292.180348 
L 893.006054 168.235974 
L 897.738677 161.867996 
L 902.520134 155.694173 
L 907.342432 149.721322 
L 912.197588 143.954524 
L 917.077646 138.397261 
L 921.974678 133.051562 
L 926.880798 127.918146 
L 934.239885 120.614777 
L 941.575575 113.782034 
L 948.861977 107.409903 
L 956.073572 101.485011 
L 963.185259 95.991437 
L 970.172399 90.911431 
L 977.010852 86.226044 
L 983.677017 81.915659 
L 990.147875 77.960448 
L 998.433254 73.205389 
L 1006.280421 69.001599 
L 1013.640374 65.306259 
L 1022.084466 61.341944 
L 1030.997198 57.4546 
L 1039.545162 53.99201 
L 1048.535499 50.610011 
L 1051.620483 49.507273 
L 1051.594446 49.54437 
L 960.12976 179.726947 
L 954.911054 186.703108 
L 949.62975 193.448941 
L 944.294786 199.9571 
L 938.915084 206.222415 
L 933.499542 212.241698 
L 928.057023 218.01355 
L 922.596345 223.538168 
L 917.126278 228.81716 
L 911.655529 233.853363 
L 906.19274 238.650671 
L 900.746482 243.213874 
L 895.325244 247.548509 
L 889.937431 251.660718 
L 881.936543 257.426577 
L 874.057188 262.730745 
L 866.32648 267.598092 
L 858.770958 272.053932 
L 851.416546 276.123498 
L 844.288511 279.831521 
L 837.41142 283.201891 
L 828.673386 287.209714 
L 820.478003 290.708125 
L 811.075198 294.434311 
L 802.695059 297.515102 
L 794.110397 300.453817 
L 784.516548 303.497223 
L 778.611392 305.252727 
L 778.611392 305.252727 
" clip-path="url(#pf534a8bfc8)" style="fill: none; stroke: #0000ff; stroke-width: 1.5; stroke-linecap: square"/>
   </g>
   <g id="line2d_102">
    <path d="M 922.213018 173.694561 
L 921.037249 174.400795 
L 920.448444 174.547894 
L 920.12753 174.426031 
L 920.00328 174.143258 
L 920.037486 173.584826 
L 920.339995 172.638165 
L 921.033781 171.194899 
L 922.394159 168.937254 
L 924.21865 166.338801 
L 926.589937 163.357199 
L 929.099677 160.576561 
L 931.266964 158.501542 
L 932.95131 157.17957 
L 934.130514 156.526906 
L 934.774943 156.386164 
L 935.137964 156.501686 
L 935.334505 156.826215 
L 935.360554 157.352735 
L 935.166172 158.235631 
L 934.635312 159.579482 
L 933.65072 161.467817 
L 932.112514 163.93793 
L 929.963445 166.951738 
L 927.481793 170.056719 
L 924.824279 173.047626 
L 922.166594 175.717355 
L 919.931522 177.67709 
L 918.190194 178.948127 
L 916.938201 179.622621 
L 916.117648 179.834071 
L 915.639994 179.731361 
L 915.40631 179.458333 
L 915.313444 179.011534 
L 915.405354 178.206442 
L 915.832214 176.882304 
L 916.773593 174.866224 
L 918.18141 172.394612 
L 920.31357 169.12315 
L 922.908487 165.546793 
L 925.824085 161.886181 
L 928.884325 158.384419 
L 931.895874 155.279998 
L 934.340413 153.053892 
L 936.485225 151.399597 
L 938.011113 150.493035 
L 939.025397 150.118286 
L 939.653526 150.071372 
L 940.110813 150.247566 
L 940.392831 150.641916 
L 940.497724 151.246617 
L 940.380773 152.282397 
L 939.993739 153.605945 
L 939.18735 155.533538 
L 937.806539 158.180654 
L 935.998188 161.168273 
L 933.479999 164.877333 
L 930.569452 168.763599 
L 927.368802 172.684114 
L 923.990947 176.494915 
L 920.561158 180.049491 
L 917.217744 183.198377 
L 914.480616 185.502388 
L 912.029128 187.28109 
L 910.235418 188.315601 
L 909.007241 188.789685 
L 908.225012 188.894011 
L 907.639449 188.739626 
L 907.338909 188.447147 
L 907.164035 187.998673 
L 907.135857 187.152514 
L 907.352257 186.018063 
L 907.980117 184.192201 
L 909.015054 181.919279 
L 910.796758 178.629549 
L 913.149932 174.788251 
L 916.029007 170.498532 
L 919.356549 165.904241 
L 923.023452 161.184118 
L 926.894437 156.537992 
L 930.818317 152.167711 
L 934.640469 148.258092 
L 937.641741 145.463959 
L 940.39418 143.165827 
L 942.832038 141.413209 
L 944.519151 140.425322 
L 945.948312 139.814635 
L 947.102975 139.582452 
L 947.781883 139.654038 
L 948.29717 139.931837 
L 948.64764 140.410098 
L 948.833621 141.081579 
L 948.85684 141.937721 
L 948.639949 143.349599 
L 948.1492 145.046977 
L 947.170253 147.528238 
L 945.812308 150.356805 
L 943.726602 154.13081 
L 941.195262 158.231291 
L 938.272096 162.571481 
L 934.435721 167.831643 
L 930.218168 173.191176 
L 925.704955 178.53534 
L 920.992146 183.746069 
L 916.192094 188.696655 
L 911.436414 193.249947 
L 907.508394 196.726778 
L 903.824045 199.712967 
L 900.486708 202.119526 
L 898.043146 203.622749 
L 895.964286 204.623646 
L 894.596893 205.037008 
L 893.758805 205.109455 
L 893.09109 204.970613 
L 892.601761 204.613975 
L 892.298255 204.033293 
L 892.187532 203.222498 
L 892.276179 202.175674 
L 892.715347 200.40286 
L 893.534366 198.187544 
L 894.746601 195.519071 
L 896.832639 191.536757 
L 899.567513 186.840183 
L 902.953012 181.46288 
L 906.966822 175.482351 
L 911.552539 169.030869 
L 916.613697 162.296282 
L 922.016147 155.507943 
L 927.599862 148.90965 
L 932.083883 143.921996 
L 936.492355 139.301616 
L 940.748369 135.128184 
L 944.783011 131.462213 
L 948.535306 128.347714 
L 951.951469 125.815685 
L 954.984215 123.887218 
L 956.982262 122.845199 
L 958.726642 122.153295 
L 960.204949 121.812273 
L 961.407507 121.820464 
L 962.052626 122.017883 
L 962.571061 122.366581 
L 962.962385 122.863892 
L 963.226889 123.506499 
L 963.36558 124.290424 
L 963.341649 125.720991 
L 963.047192 127.440779 
L 962.493683 129.428879 
L 961.376813 132.457055 
L 959.860958 135.863226 
L 957.984799 139.588722 
L 955.189891 144.609641 
L 951.956093 149.944523 
L 948.337039 155.512572 
L 944.37377 161.250433 
L 940.09673 167.109495 
L 934.5832 174.246183 
L 928.689966 181.441203 
L 922.46457 188.626598 
L 915.976927 195.713523 
L 909.329529 202.58369 
L 903.767424 208.037311 
L 898.288626 213.141731 
L 893.00147 217.798987 
L 888.01658 221.918781 
L 883.438089 225.426808 
L 879.355763 228.270155 
L 875.839371 230.418874 
L 873.466121 231.631135 
L 871.499216 232.396228 
L 870.294052 232.681562 
L 869.319897 232.724898 
L 868.574289 232.531592 
L 868.053321 232.107076 
L 867.752115 231.456426 
L 867.665296 230.583943 
L 867.787481 229.492769 
L 868.267113 227.700209 
L 869.10065 225.520056 
L 870.634033 222.236035 
L 872.718873 218.298018 
L 875.982776 212.630407 
L 880.153255 205.813042 
L 885.34261 197.706488 
L 891.669757 188.218955 
L 896.557202 181.144773 
L 896.557202 181.144773 
" clip-path="url(#pf534a8bfc8)" style="fill: none; stroke-dasharray: 5.55,2.4; stroke-dashoffset: 0; stroke: #ff0000; stroke-width: 1.5"/>
   </g>
   <g id="patch_15">
    <path d="M 764.960938 318.04 
L 764.960938 36.72 
" style="fill: none; stroke: #000000; stroke-width: 0.8; stroke-linejoin: miter; stroke-linecap: square"/>
   </g>
   <g id="patch_16">
    <path d="M 1065.270937 318.04 
L 1065.270937 36.72 
" style="fill: none; stroke: #000000; stroke-width: 0.8; stroke-linejoin: miter; stroke-linecap: square"/>
   </g>
   <g id="patch_17">
    <path d="M 764.960938 318.04 
L 1065.270937 318.04 
" style="fill: none; stroke: #000000; stroke-width: 0.8; stroke-linejoin: miter; stroke-linecap: square"/>
   </g>
   <g id="patch_18">
    <path d="M 764.960938 36.72 
L 1065.270937 36.72 
" style="fill: none; stroke: #000000; stroke-width: 0.8; stroke-linejoin: miter; stroke-linecap: square"/>
   </g>
   <g id="legend_3">
    <g id="patch_19">
     <path d="M 771.960938 74.07625 
L 830.553125 74.07625 
Q 832.553125 74.07625 832.553125 72.07625 
L 832.553125 43.72 
Q 832.553125 41.72 830.553125 41.72 
L 771.960938 41.72 
Q 769.960938 41.72 769.960938 43.72 
L 769.960938 72.07625 
Q 769.960938 74.07625 771.960938 74.07625 
z
" style="fill: #ffffff; opacity: 0.8; stroke: #cccccc; stroke-linejoin: miter"/>
    </g>
    <g id="line2d_103">
     <path d="M 773.960938 49.818437 
L 783.960938 49.818437 
L 793.960938 49.818437 
" style="fill: none; stroke: #0000ff; stroke-width: 1.5; stroke-linecap: square"/>
    </g>
    <g id="text_57">
     <!-- data -->
     <g transform="translate(801.960938 53.318437) scale(0.1 -0.1)">
      <use xlink:href="#DejaVuSans-64"/>
      <use xlink:href="#DejaVuSans-61" x="63.476562"/>
      <use xlink:href="#DejaVuSans-74" x="124.755859"/>
      <use xlink:href="#DejaVuSans-61" x="163.964844"/>
     </g>
    </g>
    <g id="line2d_104">
     <path d="M 773.960938 64.496562 
L 783.960938 64.496562 
L 793.960938 64.496562 
" style="fill: none; stroke-dasharray: 5.55,2.4; stroke-dashoffset: 0; stroke: #ff0000; stroke-width: 1.5"/>
    </g>
    <g id="text_58">
     <!-- sindy -->
     <g transform="translate(801.960938 67.996562) scale(0.1 -0.1)">
      <use xlink:href="#DejaVuSans-73"/>
      <use xlink:href="#DejaVuSans-69" x="52.099609"/>
      <use xlink:href="#DejaVuSans-6e" x="79.882812"/>
      <use xlink:href="#DejaVuSans-64" x="143.261719"/>
      <use xlink:href="#DejaVuSans-79" x="206.738281"/>
     </g>
    </g>
   </g>
  </g>
  <g id="text_59">
   <!-- FL_pol_n2_bTrue_iTrue_FL_fr_n2 -->
   <g transform="translate(410.055938 19.3575) scale(0.16 -0.16)">
    <defs>
     <path id="DejaVuSans-4c" d="M 628 4666 
L 1259 4666 
L 1259 531 
L 3531 531 
L 3531 0 
L 628 0 
L 628 4666 
z
" transform="scale(0.015625)"/>
     <path id="DejaVuSans-5f" d="M 3263 -1063 
L 3263 -1509 
L -63 -1509 
L -63 -1063 
L 3263 -1063 
z
" transform="scale(0.015625)"/>
     <path id="DejaVuSans-70" d="M 1159 525 
L 1159 -1331 
L 581 -1331 
L 581 3500 
L 1159 3500 
L 1159 2969 
Q 1341 3281 1617 3432 
Q 1894 3584 2278 3584 
Q 2916 3584 3314 3078 
Q 3713 2572 3713 1747 
Q 3713 922 3314 415 
Q 2916 -91 2278 -91 
Q 1894 -91 1617 61 
Q 1341 213 1159 525 
z
M 3116 1747 
Q 3116 2381 2855 2742 
Q 2594 3103 2138 3103 
Q 1681 3103 1420 2742 
Q 1159 2381 1159 1747 
Q 1159 1113 1420 752 
Q 1681 391 2138 391 
Q 2594 391 2855 752 
Q 3116 1113 3116 1747 
z
" transform="scale(0.015625)"/>
     <path id="DejaVuSans-6f" d="M 1959 3097 
Q 1497 3097 1228 2736 
Q 959 2375 959 1747 
Q 959 1119 1226 758 
Q 1494 397 1959 397 
Q 2419 397 2687 759 
Q 2956 1122 2956 1747 
Q 2956 2369 2687 2733 
Q 2419 3097 1959 3097 
z
M 1959 3584 
Q 2709 3584 3137 3096 
Q 3566 2609 3566 1747 
Q 3566 888 3137 398 
Q 2709 -91 1959 -91 
Q 1206 -91 779 398 
Q 353 888 353 1747 
Q 353 2609 779 3096 
Q 1206 3584 1959 3584 
z
" transform="scale(0.015625)"/>
     <path id="DejaVuSans-6c" d="M 603 4863 
L 1178 4863 
L 1178 0 
L 603 0 
L 603 4863 
z
" transform="scale(0.015625)"/>
     <path id="DejaVuSans-62" d="M 3116 1747 
Q 3116 2381 2855 2742 
Q 2594 3103 2138 3103 
Q 1681 3103 1420 2742 
Q 1159 2381 1159 1747 
Q 1159 1113 1420 752 
Q 1681 391 2138 391 
Q 2594 391 2855 752 
Q 3116 1113 3116 1747 
z
M 1159 2969 
Q 1341 3281 1617 3432 
Q 1894 3584 2278 3584 
Q 2916 3584 3314 3078 
Q 3713 2572 3713 1747 
Q 3713 922 3314 415 
Q 2916 -91 2278 -91 
Q 1894 -91 1617 61 
Q 1341 213 1159 525 
L 1159 0 
L 581 0 
L 581 4863 
L 1159 4863 
L 1159 2969 
z
" transform="scale(0.015625)"/>
     <path id="DejaVuSans-54" d="M -19 4666 
L 3928 4666 
L 3928 4134 
L 2272 4134 
L 2272 0 
L 1638 0 
L 1638 4134 
L -19 4134 
L -19 4666 
z
" transform="scale(0.015625)"/>
     <path id="DejaVuSans-75" d="M 544 1381 
L 544 3500 
L 1119 3500 
L 1119 1403 
Q 1119 906 1312 657 
Q 1506 409 1894 409 
Q 2359 409 2629 706 
Q 2900 1003 2900 1516 
L 2900 3500 
L 3475 3500 
L 3475 0 
L 2900 0 
L 2900 538 
Q 2691 219 2414 64 
Q 2138 -91 1772 -91 
Q 1169 -91 856 284 
Q 544 659 544 1381 
z
M 1991 3584 
L 1991 3584 
z
" transform="scale(0.015625)"/>
     <path id="DejaVuSans-65" d="M 3597 1894 
L 3597 1613 
L 953 1613 
Q 991 1019 1311 708 
Q 1631 397 2203 397 
Q 2534 397 2845 478 
Q 3156 559 3463 722 
L 3463 178 
Q 3153 47 2828 -22 
Q 2503 -91 2169 -91 
Q 1331 -91 842 396 
Q 353 884 353 1716 
Q 353 2575 817 3079 
Q 1281 3584 2069 3584 
Q 2775 3584 3186 3129 
Q 3597 2675 3597 1894 
z
M 3022 2063 
Q 3016 2534 2758 2815 
Q 2500 3097 2075 3097 
Q 1594 3097 1305 2825 
Q 1016 2553 972 2059 
L 3022 2063 
z
" transform="scale(0.015625)"/>
     <path id="DejaVuSans-66" d="M 2375 4863 
L 2375 4384 
L 1825 4384 
Q 1516 4384 1395 4259 
Q 1275 4134 1275 3809 
L 1275 3500 
L 2222 3500 
L 2222 3053 
L 1275 3053 
L 1275 0 
L 697 0 
L 697 3053 
L 147 3053 
L 147 3500 
L 697 3500 
L 697 3744 
Q 697 4328 969 4595 
Q 1241 4863 1831 4863 
L 2375 4863 
z
" transform="scale(0.015625)"/>
    </defs>
    <use xlink:href="#DejaVuSans-46"/>
    <use xlink:href="#DejaVuSans-4c" x="57.519531"/>
    <use xlink:href="#DejaVuSans-5f" x="113.232422"/>
    <use xlink:href="#DejaVuSans-70" x="163.232422"/>
    <use xlink:href="#DejaVuSans-6f" x="226.708984"/>
    <use xlink:href="#DejaVuSans-6c" x="287.890625"/>
    <use xlink:href="#DejaVuSans-5f" x="315.673828"/>
    <use xlink:href="#DejaVuSans-6e" x="365.673828"/>
    <use xlink:href="#DejaVuSans-32" x="429.052734"/>
    <use xlink:href="#DejaVuSans-5f" x="492.675781"/>
    <use xlink:href="#DejaVuSans-62" x="542.675781"/>
    <use xlink:href="#DejaVuSans-54" x="606.152344"/>
    <use xlink:href="#DejaVuSans-72" x="652.486328"/>
    <use xlink:href="#DejaVuSans-75" x="693.599609"/>
    <use xlink:href="#DejaVuSans-65" x="756.978516"/>
    <use xlink:href="#DejaVuSans-5f" x="818.501953"/>
    <use xlink:href="#DejaVuSans-69" x="868.501953"/>
    <use xlink:href="#DejaVuSans-54" x="896.285156"/>
    <use xlink:href="#DejaVuSans-72" x="942.619141"/>
    <use xlink:href="#DejaVuSans-75" x="983.732422"/>
    <use xlink:href="#DejaVuSans-65" x="1047.111328"/>
    <use xlink:href="#DejaVuSans-5f" x="1108.634766"/>
    <use xlink:href="#DejaVuSans-46" x="1158.634766"/>
    <use xlink:href="#DejaVuSans-4c" x="1216.154297"/>
    <use xlink:href="#DejaVuSans-5f" x="1271.867188"/>
    <use xlink:href="#DejaVuSans-66" x="1321.867188"/>
    <use xlink:href="#DejaVuSans-72" x="1357.072266"/>
    <use xlink:href="#DejaVuSans-5f" x="1398.185547"/>
    <use xlink:href="#DejaVuSans-6e" x="1448.185547"/>
    <use xlink:href="#DejaVuSans-32" x="1511.564453"/>
   </g>
  </g>
 </g>
 <defs>
  <clipPath id="p26e5c4c6d9">
   <rect x="52.160938" y="36.72" width="300.31" height="281.32"/>
  </clipPath>
  <clipPath id="pfc2aa83c18">
   <rect x="408.560938" y="36.72" width="300.31" height="281.32"/>
  </clipPath>
  <clipPath id="pf534a8bfc8">
   <rect x="764.960938" y="36.72" width="300.31" height="281.32"/>
  </clipPath>
 </defs>
</svg>
