<?xml version="1.0" encoding="utf-8" standalone="no"?>
<!DOCTYPE svg PUBLIC "-//W3C//DTD SVG 1.1//EN"
  "http://www.w3.org/Graphics/SVG/1.1/DTD/svg11.dtd">
<svg xmlns:xlink="http://www.w3.org/1999/xlink" width="1072.470937pt" height="355.59625pt" viewBox="0 0 1072.470937 355.59625" xmlns="http://www.w3.org/2000/svg" version="1.1">
 <metadata>
  <rdf:RDF xmlns:dc="http://purl.org/dc/elements/1.1/" xmlns:cc="http://creativecommons.org/ns#" xmlns:rdf="http://www.w3.org/1999/02/22-rdf-syntax-ns#">
   <cc:Work>
    <dc:type rdf:resource="http://purl.org/dc/dcmitype/StillImage"/>
    <dc:date>2025-01-21T22:54:19.683603</dc:date>
    <dc:format>image/svg+xml</dc:format>
    <dc:creator>
     <cc:Agent>
      <dc:title>Matplotlib v3.9.2, https://matplotlib.org/</dc:title>
     </cc:Agent>
    </dc:creator>
   </cc:Work>
  </rdf:RDF>
 </metadata>
 <defs>
  <style type="text/css">*{stroke-linejoin: round; stroke-linecap: butt}</style>
 </defs>
 <g id="figure_1">
  <g id="patch_1">
   <path d="M 0 355.59625 
L 1072.470937 355.59625 
L 1072.470937 0 
L 0 0 
z
" style="fill: #ffffff"/>
  </g>
  <g id="axes_1">
   <g id="patch_2">
    <path d="M 52.160938 318.04 
L 352.470937 318.04 
L 352.470937 36.72 
L 52.160938 36.72 
z
" style="fill: #ffffff"/>
   </g>
   <g id="matplotlib.axis_1">
    <g id="xtick_1">
     <g id="line2d_1">
      <path d="M 65.811392 318.04 
L 65.811392 36.72 
" clip-path="url(#pac5053409d)" style="fill: none; stroke: #b0b0b0; stroke-width: 0.8; stroke-linecap: square"/>
     </g>
     <g id="line2d_2">
      <defs>
       <path id="m3c36cf2a73" d="M 0 0 
L 0 3.5 
" style="stroke: #000000; stroke-width: 0.8"/>
      </defs>
      <g>
       <use xlink:href="#m3c36cf2a73" x="65.811392" y="318.04" style="stroke: #000000; stroke-width: 0.8"/>
      </g>
     </g>
     <g id="text_1">
      <!-- 0.0 -->
      <g transform="translate(57.85983 332.638437) scale(0.1 -0.1)">
       <defs>
        <path id="DejaVuSans-30" d="M 2034 4250 
Q 1547 4250 1301 3770 
Q 1056 3291 1056 2328 
Q 1056 1369 1301 889 
Q 1547 409 2034 409 
Q 2525 409 2770 889 
Q 3016 1369 3016 2328 
Q 3016 3291 2770 3770 
Q 2525 4250 2034 4250 
z
M 2034 4750 
Q 2819 4750 3233 4129 
Q 3647 3509 3647 2328 
Q 3647 1150 3233 529 
Q 2819 -91 2034 -91 
Q 1250 -91 836 529 
Q 422 1150 422 2328 
Q 422 3509 836 4129 
Q 1250 4750 2034 4750 
z
" transform="scale(0.015625)"/>
        <path id="DejaVuSans-2e" d="M 684 794 
L 1344 794 
L 1344 0 
L 684 0 
L 684 794 
z
" transform="scale(0.015625)"/>
       </defs>
       <use xlink:href="#DejaVuSans-30"/>
       <use xlink:href="#DejaVuSans-2e" x="63.623047"/>
       <use xlink:href="#DejaVuSans-30" x="95.410156"/>
      </g>
     </g>
    </g>
    <g id="xtick_2">
     <g id="line2d_3">
      <path d="M 99.937528 318.04 
L 99.937528 36.72 
" clip-path="url(#pac5053409d)" style="fill: none; stroke: #b0b0b0; stroke-width: 0.8; stroke-linecap: square"/>
     </g>
     <g id="line2d_4">
      <g>
       <use xlink:href="#m3c36cf2a73" x="99.937528" y="318.04" style="stroke: #000000; stroke-width: 0.8"/>
      </g>
     </g>
     <g id="text_2">
      <!-- 2.5 -->
      <g transform="translate(91.985966 332.638437) scale(0.1 -0.1)">
       <defs>
        <path id="DejaVuSans-32" d="M 1228 531 
L 3431 531 
L 3431 0 
L 469 0 
L 469 531 
Q 828 903 1448 1529 
Q 2069 2156 2228 2338 
Q 2531 2678 2651 2914 
Q 2772 3150 2772 3378 
Q 2772 3750 2511 3984 
Q 2250 4219 1831 4219 
Q 1534 4219 1204 4116 
Q 875 4013 500 3803 
L 500 4441 
Q 881 4594 1212 4672 
Q 1544 4750 1819 4750 
Q 2544 4750 2975 4387 
Q 3406 4025 3406 3419 
Q 3406 3131 3298 2873 
Q 3191 2616 2906 2266 
Q 2828 2175 2409 1742 
Q 1991 1309 1228 531 
z
" transform="scale(0.015625)"/>
        <path id="DejaVuSans-35" d="M 691 4666 
L 3169 4666 
L 3169 4134 
L 1269 4134 
L 1269 2991 
Q 1406 3038 1543 3061 
Q 1681 3084 1819 3084 
Q 2600 3084 3056 2656 
Q 3513 2228 3513 1497 
Q 3513 744 3044 326 
Q 2575 -91 1722 -91 
Q 1428 -91 1123 -41 
Q 819 9 494 109 
L 494 744 
Q 775 591 1075 516 
Q 1375 441 1709 441 
Q 2250 441 2565 725 
Q 2881 1009 2881 1497 
Q 2881 1984 2565 2268 
Q 2250 2553 1709 2553 
Q 1456 2553 1204 2497 
Q 953 2441 691 2322 
L 691 4666 
z
" transform="scale(0.015625)"/>
       </defs>
       <use xlink:href="#DejaVuSans-32"/>
       <use xlink:href="#DejaVuSans-2e" x="63.623047"/>
       <use xlink:href="#DejaVuSans-35" x="95.410156"/>
      </g>
     </g>
    </g>
    <g id="xtick_3">
     <g id="line2d_5">
      <path d="M 134.063665 318.04 
L 134.063665 36.72 
" clip-path="url(#pac5053409d)" style="fill: none; stroke: #b0b0b0; stroke-width: 0.8; stroke-linecap: square"/>
     </g>
     <g id="line2d_6">
      <g>
       <use xlink:href="#m3c36cf2a73" x="134.063665" y="318.04" style="stroke: #000000; stroke-width: 0.8"/>
      </g>
     </g>
     <g id="text_3">
      <!-- 5.0 -->
      <g transform="translate(126.112102 332.638437) scale(0.1 -0.1)">
       <use xlink:href="#DejaVuSans-35"/>
       <use xlink:href="#DejaVuSans-2e" x="63.623047"/>
       <use xlink:href="#DejaVuSans-30" x="95.410156"/>
      </g>
     </g>
    </g>
    <g id="xtick_4">
     <g id="line2d_7">
      <path d="M 168.189801 318.04 
L 168.189801 36.72 
" clip-path="url(#pac5053409d)" style="fill: none; stroke: #b0b0b0; stroke-width: 0.8; stroke-linecap: square"/>
     </g>
     <g id="line2d_8">
      <g>
       <use xlink:href="#m3c36cf2a73" x="168.189801" y="318.04" style="stroke: #000000; stroke-width: 0.8"/>
      </g>
     </g>
     <g id="text_4">
      <!-- 7.5 -->
      <g transform="translate(160.238239 332.638437) scale(0.1 -0.1)">
       <defs>
        <path id="DejaVuSans-37" d="M 525 4666 
L 3525 4666 
L 3525 4397 
L 1831 0 
L 1172 0 
L 2766 4134 
L 525 4134 
L 525 4666 
z
" transform="scale(0.015625)"/>
       </defs>
       <use xlink:href="#DejaVuSans-37"/>
       <use xlink:href="#DejaVuSans-2e" x="63.623047"/>
       <use xlink:href="#DejaVuSans-35" x="95.410156"/>
      </g>
     </g>
    </g>
    <g id="xtick_5">
     <g id="line2d_9">
      <path d="M 202.315938 318.04 
L 202.315938 36.72 
" clip-path="url(#pac5053409d)" style="fill: none; stroke: #b0b0b0; stroke-width: 0.8; stroke-linecap: square"/>
     </g>
     <g id="line2d_10">
      <g>
       <use xlink:href="#m3c36cf2a73" x="202.315938" y="318.04" style="stroke: #000000; stroke-width: 0.8"/>
      </g>
     </g>
     <g id="text_5">
      <!-- 10.0 -->
      <g transform="translate(191.183125 332.638437) scale(0.1 -0.1)">
       <defs>
        <path id="DejaVuSans-31" d="M 794 531 
L 1825 531 
L 1825 4091 
L 703 3866 
L 703 4441 
L 1819 4666 
L 2450 4666 
L 2450 531 
L 3481 531 
L 3481 0 
L 794 0 
L 794 531 
z
" transform="scale(0.015625)"/>
       </defs>
       <use xlink:href="#DejaVuSans-31"/>
       <use xlink:href="#DejaVuSans-30" x="63.623047"/>
       <use xlink:href="#DejaVuSans-2e" x="127.246094"/>
       <use xlink:href="#DejaVuSans-30" x="159.033203"/>
      </g>
     </g>
    </g>
    <g id="xtick_6">
     <g id="line2d_11">
      <path d="M 236.442074 318.04 
L 236.442074 36.72 
" clip-path="url(#pac5053409d)" style="fill: none; stroke: #b0b0b0; stroke-width: 0.8; stroke-linecap: square"/>
     </g>
     <g id="line2d_12">
      <g>
       <use xlink:href="#m3c36cf2a73" x="236.442074" y="318.04" style="stroke: #000000; stroke-width: 0.8"/>
      </g>
     </g>
     <g id="text_6">
      <!-- 12.5 -->
      <g transform="translate(225.309261 332.638437) scale(0.1 -0.1)">
       <use xlink:href="#DejaVuSans-31"/>
       <use xlink:href="#DejaVuSans-32" x="63.623047"/>
       <use xlink:href="#DejaVuSans-2e" x="127.246094"/>
       <use xlink:href="#DejaVuSans-35" x="159.033203"/>
      </g>
     </g>
    </g>
    <g id="xtick_7">
     <g id="line2d_13">
      <path d="M 270.56821 318.04 
L 270.56821 36.72 
" clip-path="url(#pac5053409d)" style="fill: none; stroke: #b0b0b0; stroke-width: 0.8; stroke-linecap: square"/>
     </g>
     <g id="line2d_14">
      <g>
       <use xlink:href="#m3c36cf2a73" x="270.56821" y="318.04" style="stroke: #000000; stroke-width: 0.8"/>
      </g>
     </g>
     <g id="text_7">
      <!-- 15.0 -->
      <g transform="translate(259.435398 332.638437) scale(0.1 -0.1)">
       <use xlink:href="#DejaVuSans-31"/>
       <use xlink:href="#DejaVuSans-35" x="63.623047"/>
       <use xlink:href="#DejaVuSans-2e" x="127.246094"/>
       <use xlink:href="#DejaVuSans-30" x="159.033203"/>
      </g>
     </g>
    </g>
    <g id="xtick_8">
     <g id="line2d_15">
      <path d="M 304.694347 318.04 
L 304.694347 36.72 
" clip-path="url(#pac5053409d)" style="fill: none; stroke: #b0b0b0; stroke-width: 0.8; stroke-linecap: square"/>
     </g>
     <g id="line2d_16">
      <g>
       <use xlink:href="#m3c36cf2a73" x="304.694347" y="318.04" style="stroke: #000000; stroke-width: 0.8"/>
      </g>
     </g>
     <g id="text_8">
      <!-- 17.5 -->
      <g transform="translate(293.561534 332.638437) scale(0.1 -0.1)">
       <use xlink:href="#DejaVuSans-31"/>
       <use xlink:href="#DejaVuSans-37" x="63.623047"/>
       <use xlink:href="#DejaVuSans-2e" x="127.246094"/>
       <use xlink:href="#DejaVuSans-35" x="159.033203"/>
      </g>
     </g>
    </g>
    <g id="xtick_9">
     <g id="line2d_17">
      <path d="M 338.820483 318.04 
L 338.820483 36.72 
" clip-path="url(#pac5053409d)" style="fill: none; stroke: #b0b0b0; stroke-width: 0.8; stroke-linecap: square"/>
     </g>
     <g id="line2d_18">
      <g>
       <use xlink:href="#m3c36cf2a73" x="338.820483" y="318.04" style="stroke: #000000; stroke-width: 0.8"/>
      </g>
     </g>
     <g id="text_9">
      <!-- 20.0 -->
      <g transform="translate(327.68767 332.638437) scale(0.1 -0.1)">
       <use xlink:href="#DejaVuSans-32"/>
       <use xlink:href="#DejaVuSans-30" x="63.623047"/>
       <use xlink:href="#DejaVuSans-2e" x="127.246094"/>
       <use xlink:href="#DejaVuSans-30" x="159.033203"/>
      </g>
     </g>
    </g>
    <g id="text_10">
     <!-- t -->
     <g transform="translate(200.355781 346.316562) scale(0.1 -0.1)">
      <defs>
       <path id="DejaVuSans-74" d="M 1172 4494 
L 1172 3500 
L 2356 3500 
L 2356 3053 
L 1172 3053 
L 1172 1153 
Q 1172 725 1289 603 
Q 1406 481 1766 481 
L 2356 481 
L 2356 0 
L 1766 0 
Q 1100 0 847 248 
Q 594 497 594 1153 
L 594 3053 
L 172 3053 
L 172 3500 
L 594 3500 
L 594 4494 
L 1172 4494 
z
" transform="scale(0.015625)"/>
      </defs>
      <use xlink:href="#DejaVuSans-74"/>
     </g>
    </g>
   </g>
   <g id="matplotlib.axis_2">
    <g id="ytick_1">
     <g id="line2d_19">
      <path d="M 52.160938 277.643154 
L 352.470937 277.643154 
" clip-path="url(#pac5053409d)" style="fill: none; stroke: #b0b0b0; stroke-width: 0.8; stroke-linecap: square"/>
     </g>
     <g id="line2d_20">
      <defs>
       <path id="m7a4722378d" d="M 0 0 
L -3.5 0 
" style="stroke: #000000; stroke-width: 0.8"/>
      </defs>
      <g>
       <use xlink:href="#m7a4722378d" x="52.160938" y="277.643154" style="stroke: #000000; stroke-width: 0.8"/>
      </g>
     </g>
     <g id="text_11">
      <!-- −1.0 -->
      <g transform="translate(20.878125 281.442373) scale(0.1 -0.1)">
       <defs>
        <path id="DejaVuSans-2212" d="M 678 2272 
L 4684 2272 
L 4684 1741 
L 678 1741 
L 678 2272 
z
" transform="scale(0.015625)"/>
       </defs>
       <use xlink:href="#DejaVuSans-2212"/>
       <use xlink:href="#DejaVuSans-31" x="83.789062"/>
       <use xlink:href="#DejaVuSans-2e" x="147.412109"/>
       <use xlink:href="#DejaVuSans-30" x="179.199219"/>
      </g>
     </g>
    </g>
    <g id="ytick_2">
     <g id="line2d_21">
      <path d="M 52.160938 224.187428 
L 352.470937 224.187428 
" clip-path="url(#pac5053409d)" style="fill: none; stroke: #b0b0b0; stroke-width: 0.8; stroke-linecap: square"/>
     </g>
     <g id="line2d_22">
      <g>
       <use xlink:href="#m7a4722378d" x="52.160938" y="224.187428" style="stroke: #000000; stroke-width: 0.8"/>
      </g>
     </g>
     <g id="text_12">
      <!-- −0.5 -->
      <g transform="translate(20.878125 227.986646) scale(0.1 -0.1)">
       <use xlink:href="#DejaVuSans-2212"/>
       <use xlink:href="#DejaVuSans-30" x="83.789062"/>
       <use xlink:href="#DejaVuSans-2e" x="147.412109"/>
       <use xlink:href="#DejaVuSans-35" x="179.199219"/>
      </g>
     </g>
    </g>
    <g id="ytick_3">
     <g id="line2d_23">
      <path d="M 52.160938 170.731701 
L 352.470937 170.731701 
" clip-path="url(#pac5053409d)" style="fill: none; stroke: #b0b0b0; stroke-width: 0.8; stroke-linecap: square"/>
     </g>
     <g id="line2d_24">
      <g>
       <use xlink:href="#m7a4722378d" x="52.160938" y="170.731701" style="stroke: #000000; stroke-width: 0.8"/>
      </g>
     </g>
     <g id="text_13">
      <!-- 0.0 -->
      <g transform="translate(29.257812 174.53092) scale(0.1 -0.1)">
       <use xlink:href="#DejaVuSans-30"/>
       <use xlink:href="#DejaVuSans-2e" x="63.623047"/>
       <use xlink:href="#DejaVuSans-30" x="95.410156"/>
      </g>
     </g>
    </g>
    <g id="ytick_4">
     <g id="line2d_25">
      <path d="M 52.160938 117.275974 
L 352.470937 117.275974 
" clip-path="url(#pac5053409d)" style="fill: none; stroke: #b0b0b0; stroke-width: 0.8; stroke-linecap: square"/>
     </g>
     <g id="line2d_26">
      <g>
       <use xlink:href="#m7a4722378d" x="52.160938" y="117.275974" style="stroke: #000000; stroke-width: 0.8"/>
      </g>
     </g>
     <g id="text_14">
      <!-- 0.5 -->
      <g transform="translate(29.257812 121.075193) scale(0.1 -0.1)">
       <use xlink:href="#DejaVuSans-30"/>
       <use xlink:href="#DejaVuSans-2e" x="63.623047"/>
       <use xlink:href="#DejaVuSans-35" x="95.410156"/>
      </g>
     </g>
    </g>
    <g id="ytick_5">
     <g id="line2d_27">
      <path d="M 52.160938 63.820247 
L 352.470937 63.820247 
" clip-path="url(#pac5053409d)" style="fill: none; stroke: #b0b0b0; stroke-width: 0.8; stroke-linecap: square"/>
     </g>
     <g id="line2d_28">
      <g>
       <use xlink:href="#m7a4722378d" x="52.160938" y="63.820247" style="stroke: #000000; stroke-width: 0.8"/>
      </g>
     </g>
     <g id="text_15">
      <!-- 1.0 -->
      <g transform="translate(29.257812 67.619466) scale(0.1 -0.1)">
       <use xlink:href="#DejaVuSans-31"/>
       <use xlink:href="#DejaVuSans-2e" x="63.623047"/>
       <use xlink:href="#DejaVuSans-30" x="95.410156"/>
      </g>
     </g>
    </g>
    <g id="text_16">
     <!-- x(t) -->
     <g transform="translate(14.798438 186.201094) rotate(-90) scale(0.1 -0.1)">
      <defs>
       <path id="DejaVuSans-78" d="M 3513 3500 
L 2247 1797 
L 3578 0 
L 2900 0 
L 1881 1375 
L 863 0 
L 184 0 
L 1544 1831 
L 300 3500 
L 978 3500 
L 1906 2253 
L 2834 3500 
L 3513 3500 
z
" transform="scale(0.015625)"/>
       <path id="DejaVuSans-28" d="M 1984 4856 
Q 1566 4138 1362 3434 
Q 1159 2731 1159 2009 
Q 1159 1288 1364 580 
Q 1569 -128 1984 -844 
L 1484 -844 
Q 1016 -109 783 600 
Q 550 1309 550 2009 
Q 550 2706 781 3412 
Q 1013 4119 1484 4856 
L 1984 4856 
z
" transform="scale(0.015625)"/>
       <path id="DejaVuSans-29" d="M 513 4856 
L 1013 4856 
Q 1481 4119 1714 3412 
Q 1947 2706 1947 2009 
Q 1947 1309 1714 600 
Q 1481 -109 1013 -844 
L 513 -844 
Q 928 -128 1133 580 
Q 1338 1288 1338 2009 
Q 1338 2731 1133 3434 
Q 928 4138 513 4856 
z
" transform="scale(0.015625)"/>
      </defs>
      <use xlink:href="#DejaVuSans-78"/>
      <use xlink:href="#DejaVuSans-28" x="59.179688"/>
      <use xlink:href="#DejaVuSans-74" x="98.193359"/>
      <use xlink:href="#DejaVuSans-29" x="137.402344"/>
     </g>
    </g>
   </g>
   <g id="line2d_29">
    <path d="M 65.811392 170.731701 
L 75.102993 170.623473 
L 78.655664 170.353248 
L 81.66177 169.89351 
L 84.121311 169.303785 
L 86.580852 168.483916 
L 89.040394 167.408965 
L 91.499935 166.067771 
L 93.959476 164.466082 
L 96.6923 162.411937 
L 99.971689 159.655946 
L 108.17016 152.60301 
L 110.356419 151.063347 
L 112.269396 149.971473 
L 113.90909 149.275327 
L 115.548784 148.841664 
L 116.915196 148.7079 
L 118.281608 148.802977 
L 119.64802 149.145796 
L 121.014431 149.753205 
L 122.380843 150.639631 
L 123.747255 151.816745 
L 125.113667 153.293143 
L 126.480079 155.074063 
L 128.119773 157.615157 
L 129.759467 160.5924 
L 131.672444 164.599467 
L 133.585421 169.147048 
L 135.77168 174.939538 
L 138.231221 182.093628 
L 141.510609 192.383279 
L 149.982363 219.391088 
L 152.441904 226.262996 
L 154.354881 230.987392 
L 155.994575 234.502878 
L 157.360987 236.999428 
L 158.727399 239.058936 
L 159.820528 240.366092 
L 160.913658 241.350705 
L 162.006787 241.995739 
L 162.826635 242.24721 
L 163.646482 242.292829 
L 164.466329 242.127119 
L 165.286176 241.74529 
L 166.106023 241.143327 
L 167.199153 239.992861 
L 168.292282 238.440174 
L 169.385412 236.482744 
L 170.478541 234.120885 
L 171.844953 230.605013 
L 173.211365 226.475236 
L 174.851059 220.737886 
L 176.490753 214.194208 
L 178.40373 205.626024 
L 180.589989 194.757666 
L 183.322813 179.894628 
L 187.148766 157.63529 
L 193.160978 122.642403 
L 195.893802 108.124619 
L 198.080061 97.662355 
L 199.993037 89.572245 
L 201.632732 83.55889 
L 202.999143 79.269995 
L 204.365555 75.691547 
L 205.458685 73.371219 
L 206.551814 71.556107 
L 207.371661 70.537823 
L 208.191509 69.821605 
L 209.011356 69.413853 
L 209.831203 69.320174 
L 210.65105 69.545321 
L 211.470897 70.092959 
L 212.290744 70.965497 
L 213.110591 72.164064 
L 214.203721 74.268826 
L 215.29685 76.948704 
L 216.38998 80.195482 
L 217.756392 85.031877 
L 219.122803 90.701059 
L 220.762498 98.541745 
L 222.675474 109.000267 
L 224.861733 122.458085 
L 227.321275 139.130869 
L 230.873946 165.033936 
L 237.432722 213.217027 
L 240.165546 231.425278 
L 242.351805 244.49663 
L 244.264782 254.569349 
L 245.904476 262.033698 
L 247.270888 267.344379 
L 248.6373 271.766577 
L 249.730429 274.630077 
L 250.823559 276.869071 
L 251.643406 278.126253 
L 252.463253 279.013374 
L 253.2831 279.52404 
L 253.829665 279.652646 
L 254.37623 279.610197 
L 254.922794 279.3956 
L 255.742641 278.749292 
L 256.562489 277.712621 
L 257.382336 276.285866 
L 258.202183 274.470926 
L 259.295312 271.453485 
L 260.388442 267.765219 
L 261.754854 262.239314 
L 263.121266 255.739581 
L 264.76096 246.736697 
L 266.673936 234.730296 
L 268.860195 219.312312 
L 271.319737 200.288954 
L 275.14569 168.657632 
L 280.338055 125.805015 
L 283.070879 105.116424 
L 285.257138 90.212102 
L 287.170114 78.691206 
L 288.809809 70.1264 
L 290.176221 64.011527 
L 291.542632 58.897404 
L 292.635762 55.566558 
L 293.728891 52.940695 
L 294.548738 51.448033 
L 295.368586 50.373542 
L 296.188433 49.724566 
L 296.734997 49.531408 
L 297.281562 49.531663 
L 297.828127 49.726598 
L 298.374692 50.117136 
L 299.194539 51.070829 
L 300.014386 52.466147 
L 300.834233 54.301555 
L 301.927363 57.427183 
L 303.020492 61.315638 
L 304.113622 65.947766 
L 305.480033 72.745171 
L 306.846445 80.604047 
L 308.48614 91.330167 
L 310.399116 105.434891 
L 312.585375 123.302288 
L 315.318199 147.5417 
L 325.429647 239.30186 
L 327.615906 256.355727 
L 329.528882 269.666281 
L 331.168577 279.672221 
L 332.808271 288.227533 
L 334.174683 294.153708 
L 335.267812 298.058209 
L 336.360942 301.186095 
L 337.180789 303.006197 
L 338.000636 304.36459 
L 338.820483 305.252727 
L 338.820483 305.252727 
" clip-path="url(#pac5053409d)" style="fill: none; stroke: #0000ff; stroke-width: 1.5; stroke-linecap: square"/>
   </g>
   <g id="line2d_30">
    <path d="M 65.811392 170.731701 
L 68.270933 171.517578 
L 70.457192 171.981348 
L 72.643451 172.204149 
L 74.556428 172.190148 
L 76.469405 171.97473 
L 78.382381 171.55569 
L 80.56864 170.830334 
L 82.754899 169.852748 
L 85.214441 168.476873 
L 87.947264 166.658087 
L 91.499935 163.978829 
L 98.058712 158.968642 
L 100.518253 157.411238 
L 102.43123 156.434818 
L 104.344207 155.711426 
L 105.983901 155.317367 
L 107.623595 155.145373 
L 109.263289 155.200075 
L 110.902984 155.478271 
L 112.542678 155.969473 
L 114.455654 156.789135 
L 116.641913 158.007778 
L 119.101455 159.664646 
L 122.380843 162.189278 
L 132.219009 170.00463 
L 134.951832 171.806219 
L 137.411374 173.166129 
L 139.597633 174.126944 
L 141.510609 174.751694 
L 143.423586 175.156488 
L 145.336563 175.326469 
L 147.249539 175.249874 
L 149.162516 174.918622 
L 151.075493 174.328969 
L 152.988469 173.482235 
L 154.901446 172.385579 
L 157.087705 170.844265 
L 159.273964 169.027439 
L 162.006787 166.442069 
L 166.106023 162.185436 
L 170.205259 158.018409 
L 172.391518 156.085467 
L 174.304494 154.676713 
L 175.944188 153.733187 
L 177.583883 153.069243 
L 178.950295 152.746547 
L 180.316706 152.641249 
L 181.683118 152.754273 
L 183.04953 153.080658 
L 184.415942 153.6101 
L 186.055636 154.492336 
L 187.968613 155.820902 
L 190.154872 157.661967 
L 192.614413 160.035216 
L 196.440366 164.081021 
L 202.725861 170.747164 
L 205.731967 173.611026 
L 208.191509 175.680205 
L 210.377768 177.260714 
L 212.564026 178.556579 
L 214.477003 179.427628 
L 216.116697 179.960425 
L 217.756392 180.281713 
L 219.396086 180.379649 
L 221.03578 180.244242 
L 222.675474 179.867743 
L 224.315169 179.245064 
L 225.954863 178.374228 
L 227.594557 177.256842 
L 229.507534 175.649461 
L 231.42051 173.73149 
L 233.606769 171.194139 
L 236.066311 167.970404 
L 239.345699 163.267785 
L 244.264782 156.20968 
L 246.451041 153.490627 
L 248.090735 151.776931 
L 249.457147 150.618042 
L 250.823559 149.739182 
L 252.189971 149.16465 
L 253.2831 148.934148 
L 254.37623 148.910267 
L 255.469359 149.091106 
L 256.562489 149.47066 
L 257.9289 150.209517 
L 259.295312 151.218128 
L 260.935007 152.741072 
L 262.847983 154.874697 
L 265.034242 157.668659 
L 268.040348 161.903203 
L 278.698361 177.286682 
L 281.431185 180.741181 
L 283.890726 183.516044 
L 286.076985 185.654233 
L 287.989962 187.227207 
L 289.629656 188.325187 
L 291.26935 189.168639 
L 292.909044 189.736546 
L 294.275456 189.985359 
L 295.641868 190.019449 
L 297.00828 189.830128 
L 298.374692 189.410167 
L 299.741104 188.753964 
L 301.107515 187.857741 
L 302.473927 186.719748 
L 304.113622 185.035912 
L 305.753316 183.010483 
L 307.39301 180.654934 
L 309.305987 177.513707 
L 311.492246 173.45601 
L 313.951787 168.398339 
L 317.77774 159.922585 
L 321.057129 152.805633 
L 322.970105 149.128571 
L 324.6098 146.464033 
L 325.976211 144.686393 
L 327.069341 143.599042 
L 328.16247 142.834816 
L 328.982318 142.482811 
L 329.802165 142.323724 
L 330.622012 142.357374 
L 331.441859 142.580703 
L 332.534988 143.163246 
L 333.628118 144.052385 
L 334.721247 145.221976 
L 336.087659 147.031931 
L 337.727353 149.630039 
L 338.820483 151.569774 
L 338.820483 151.569774 
" clip-path="url(#pac5053409d)" style="fill: none; stroke-dasharray: 5.55,2.4; stroke-dashoffset: 0; stroke: #ff0000; stroke-width: 1.5"/>
   </g>
   <g id="patch_3">
    <path d="M 52.160938 318.04 
L 52.160938 36.72 
" style="fill: none; stroke: #000000; stroke-width: 0.8; stroke-linejoin: miter; stroke-linecap: square"/>
   </g>
   <g id="patch_4">
    <path d="M 352.470937 318.04 
L 352.470937 36.72 
" style="fill: none; stroke: #000000; stroke-width: 0.8; stroke-linejoin: miter; stroke-linecap: square"/>
   </g>
   <g id="patch_5">
    <path d="M 52.160938 318.04 
L 352.470938 318.04 
" style="fill: none; stroke: #000000; stroke-width: 0.8; stroke-linejoin: miter; stroke-linecap: square"/>
   </g>
   <g id="patch_6">
    <path d="M 52.160938 36.72 
L 352.470938 36.72 
" style="fill: none; stroke: #000000; stroke-width: 0.8; stroke-linejoin: miter; stroke-linecap: square"/>
   </g>
   <g id="legend_1">
    <g id="patch_7">
     <path d="M 59.160938 74.07625 
L 117.753125 74.07625 
Q 119.753125 74.07625 119.753125 72.07625 
L 119.753125 43.72 
Q 119.753125 41.72 117.753125 41.72 
L 59.160938 41.72 
Q 57.160938 41.72 57.160938 43.72 
L 57.160938 72.07625 
Q 57.160938 74.07625 59.160938 74.07625 
z
" style="fill: #ffffff; opacity: 0.8; stroke: #cccccc; stroke-linejoin: miter"/>
    </g>
    <g id="line2d_31">
     <path d="M 61.160938 49.818437 
L 71.160938 49.818437 
L 81.160938 49.818437 
" style="fill: none; stroke: #0000ff; stroke-width: 1.5; stroke-linecap: square"/>
    </g>
    <g id="text_17">
     <!-- data -->
     <g transform="translate(89.160938 53.318437) scale(0.1 -0.1)">
      <defs>
       <path id="DejaVuSans-64" d="M 2906 2969 
L 2906 4863 
L 3481 4863 
L 3481 0 
L 2906 0 
L 2906 525 
Q 2725 213 2448 61 
Q 2172 -91 1784 -91 
Q 1150 -91 751 415 
Q 353 922 353 1747 
Q 353 2572 751 3078 
Q 1150 3584 1784 3584 
Q 2172 3584 2448 3432 
Q 2725 3281 2906 2969 
z
M 947 1747 
Q 947 1113 1208 752 
Q 1469 391 1925 391 
Q 2381 391 2643 752 
Q 2906 1113 2906 1747 
Q 2906 2381 2643 2742 
Q 2381 3103 1925 3103 
Q 1469 3103 1208 2742 
Q 947 2381 947 1747 
z
" transform="scale(0.015625)"/>
       <path id="DejaVuSans-61" d="M 2194 1759 
Q 1497 1759 1228 1600 
Q 959 1441 959 1056 
Q 959 750 1161 570 
Q 1363 391 1709 391 
Q 2188 391 2477 730 
Q 2766 1069 2766 1631 
L 2766 1759 
L 2194 1759 
z
M 3341 1997 
L 3341 0 
L 2766 0 
L 2766 531 
Q 2569 213 2275 61 
Q 1981 -91 1556 -91 
Q 1019 -91 701 211 
Q 384 513 384 1019 
Q 384 1609 779 1909 
Q 1175 2209 1959 2209 
L 2766 2209 
L 2766 2266 
Q 2766 2663 2505 2880 
Q 2244 3097 1772 3097 
Q 1472 3097 1187 3025 
Q 903 2953 641 2809 
L 641 3341 
Q 956 3463 1253 3523 
Q 1550 3584 1831 3584 
Q 2591 3584 2966 3190 
Q 3341 2797 3341 1997 
z
" transform="scale(0.015625)"/>
      </defs>
      <use xlink:href="#DejaVuSans-64"/>
      <use xlink:href="#DejaVuSans-61" x="63.476562"/>
      <use xlink:href="#DejaVuSans-74" x="124.755859"/>
      <use xlink:href="#DejaVuSans-61" x="163.964844"/>
     </g>
    </g>
    <g id="line2d_32">
     <path d="M 61.160938 64.496562 
L 71.160938 64.496562 
L 81.160938 64.496562 
" style="fill: none; stroke-dasharray: 5.55,2.4; stroke-dashoffset: 0; stroke: #ff0000; stroke-width: 1.5"/>
    </g>
    <g id="text_18">
     <!-- sindy -->
     <g transform="translate(89.160938 67.996562) scale(0.1 -0.1)">
      <defs>
       <path id="DejaVuSans-73" d="M 2834 3397 
L 2834 2853 
Q 2591 2978 2328 3040 
Q 2066 3103 1784 3103 
Q 1356 3103 1142 2972 
Q 928 2841 928 2578 
Q 928 2378 1081 2264 
Q 1234 2150 1697 2047 
L 1894 2003 
Q 2506 1872 2764 1633 
Q 3022 1394 3022 966 
Q 3022 478 2636 193 
Q 2250 -91 1575 -91 
Q 1294 -91 989 -36 
Q 684 19 347 128 
L 347 722 
Q 666 556 975 473 
Q 1284 391 1588 391 
Q 1994 391 2212 530 
Q 2431 669 2431 922 
Q 2431 1156 2273 1281 
Q 2116 1406 1581 1522 
L 1381 1569 
Q 847 1681 609 1914 
Q 372 2147 372 2553 
Q 372 3047 722 3315 
Q 1072 3584 1716 3584 
Q 2034 3584 2315 3537 
Q 2597 3491 2834 3397 
z
" transform="scale(0.015625)"/>
       <path id="DejaVuSans-69" d="M 603 3500 
L 1178 3500 
L 1178 0 
L 603 0 
L 603 3500 
z
M 603 4863 
L 1178 4863 
L 1178 4134 
L 603 4134 
L 603 4863 
z
" transform="scale(0.015625)"/>
       <path id="DejaVuSans-6e" d="M 3513 2113 
L 3513 0 
L 2938 0 
L 2938 2094 
Q 2938 2591 2744 2837 
Q 2550 3084 2163 3084 
Q 1697 3084 1428 2787 
Q 1159 2491 1159 1978 
L 1159 0 
L 581 0 
L 581 3500 
L 1159 3500 
L 1159 2956 
Q 1366 3272 1645 3428 
Q 1925 3584 2291 3584 
Q 2894 3584 3203 3211 
Q 3513 2838 3513 2113 
z
" transform="scale(0.015625)"/>
       <path id="DejaVuSans-79" d="M 2059 -325 
Q 1816 -950 1584 -1140 
Q 1353 -1331 966 -1331 
L 506 -1331 
L 506 -850 
L 844 -850 
Q 1081 -850 1212 -737 
Q 1344 -625 1503 -206 
L 1606 56 
L 191 3500 
L 800 3500 
L 1894 763 
L 2988 3500 
L 3597 3500 
L 2059 -325 
z
" transform="scale(0.015625)"/>
      </defs>
      <use xlink:href="#DejaVuSans-73"/>
      <use xlink:href="#DejaVuSans-69" x="52.099609"/>
      <use xlink:href="#DejaVuSans-6e" x="79.882812"/>
      <use xlink:href="#DejaVuSans-64" x="143.261719"/>
      <use xlink:href="#DejaVuSans-79" x="206.738281"/>
     </g>
    </g>
   </g>
  </g>
  <g id="axes_2">
   <g id="patch_8">
    <path d="M 408.560938 318.04 
L 708.870937 318.04 
L 708.870937 36.72 
L 408.560938 36.72 
z
" style="fill: #ffffff"/>
   </g>
   <g id="matplotlib.axis_3">
    <g id="xtick_10">
     <g id="line2d_33">
      <path d="M 422.211392 318.04 
L 422.211392 36.72 
" clip-path="url(#peba149d4e7)" style="fill: none; stroke: #b0b0b0; stroke-width: 0.8; stroke-linecap: square"/>
     </g>
     <g id="line2d_34">
      <g>
       <use xlink:href="#m3c36cf2a73" x="422.211392" y="318.04" style="stroke: #000000; stroke-width: 0.8"/>
      </g>
     </g>
     <g id="text_19">
      <!-- 0.0 -->
      <g transform="translate(414.25983 332.638437) scale(0.1 -0.1)">
       <use xlink:href="#DejaVuSans-30"/>
       <use xlink:href="#DejaVuSans-2e" x="63.623047"/>
       <use xlink:href="#DejaVuSans-30" x="95.410156"/>
      </g>
     </g>
    </g>
    <g id="xtick_11">
     <g id="line2d_35">
      <path d="M 456.337528 318.04 
L 456.337528 36.72 
" clip-path="url(#peba149d4e7)" style="fill: none; stroke: #b0b0b0; stroke-width: 0.8; stroke-linecap: square"/>
     </g>
     <g id="line2d_36">
      <g>
       <use xlink:href="#m3c36cf2a73" x="456.337528" y="318.04" style="stroke: #000000; stroke-width: 0.8"/>
      </g>
     </g>
     <g id="text_20">
      <!-- 2.5 -->
      <g transform="translate(448.385966 332.638437) scale(0.1 -0.1)">
       <use xlink:href="#DejaVuSans-32"/>
       <use xlink:href="#DejaVuSans-2e" x="63.623047"/>
       <use xlink:href="#DejaVuSans-35" x="95.410156"/>
      </g>
     </g>
    </g>
    <g id="xtick_12">
     <g id="line2d_37">
      <path d="M 490.463665 318.04 
L 490.463665 36.72 
" clip-path="url(#peba149d4e7)" style="fill: none; stroke: #b0b0b0; stroke-width: 0.8; stroke-linecap: square"/>
     </g>
     <g id="line2d_38">
      <g>
       <use xlink:href="#m3c36cf2a73" x="490.463665" y="318.04" style="stroke: #000000; stroke-width: 0.8"/>
      </g>
     </g>
     <g id="text_21">
      <!-- 5.0 -->
      <g transform="translate(482.512102 332.638437) scale(0.1 -0.1)">
       <use xlink:href="#DejaVuSans-35"/>
       <use xlink:href="#DejaVuSans-2e" x="63.623047"/>
       <use xlink:href="#DejaVuSans-30" x="95.410156"/>
      </g>
     </g>
    </g>
    <g id="xtick_13">
     <g id="line2d_39">
      <path d="M 524.589801 318.04 
L 524.589801 36.72 
" clip-path="url(#peba149d4e7)" style="fill: none; stroke: #b0b0b0; stroke-width: 0.8; stroke-linecap: square"/>
     </g>
     <g id="line2d_40">
      <g>
       <use xlink:href="#m3c36cf2a73" x="524.589801" y="318.04" style="stroke: #000000; stroke-width: 0.8"/>
      </g>
     </g>
     <g id="text_22">
      <!-- 7.5 -->
      <g transform="translate(516.638239 332.638437) scale(0.1 -0.1)">
       <use xlink:href="#DejaVuSans-37"/>
       <use xlink:href="#DejaVuSans-2e" x="63.623047"/>
       <use xlink:href="#DejaVuSans-35" x="95.410156"/>
      </g>
     </g>
    </g>
    <g id="xtick_14">
     <g id="line2d_41">
      <path d="M 558.715937 318.04 
L 558.715937 36.72 
" clip-path="url(#peba149d4e7)" style="fill: none; stroke: #b0b0b0; stroke-width: 0.8; stroke-linecap: square"/>
     </g>
     <g id="line2d_42">
      <g>
       <use xlink:href="#m3c36cf2a73" x="558.715937" y="318.04" style="stroke: #000000; stroke-width: 0.8"/>
      </g>
     </g>
     <g id="text_23">
      <!-- 10.0 -->
      <g transform="translate(547.583125 332.638437) scale(0.1 -0.1)">
       <use xlink:href="#DejaVuSans-31"/>
       <use xlink:href="#DejaVuSans-30" x="63.623047"/>
       <use xlink:href="#DejaVuSans-2e" x="127.246094"/>
       <use xlink:href="#DejaVuSans-30" x="159.033203"/>
      </g>
     </g>
    </g>
    <g id="xtick_15">
     <g id="line2d_43">
      <path d="M 592.842074 318.04 
L 592.842074 36.72 
" clip-path="url(#peba149d4e7)" style="fill: none; stroke: #b0b0b0; stroke-width: 0.8; stroke-linecap: square"/>
     </g>
     <g id="line2d_44">
      <g>
       <use xlink:href="#m3c36cf2a73" x="592.842074" y="318.04" style="stroke: #000000; stroke-width: 0.8"/>
      </g>
     </g>
     <g id="text_24">
      <!-- 12.5 -->
      <g transform="translate(581.709261 332.638437) scale(0.1 -0.1)">
       <use xlink:href="#DejaVuSans-31"/>
       <use xlink:href="#DejaVuSans-32" x="63.623047"/>
       <use xlink:href="#DejaVuSans-2e" x="127.246094"/>
       <use xlink:href="#DejaVuSans-35" x="159.033203"/>
      </g>
     </g>
    </g>
    <g id="xtick_16">
     <g id="line2d_45">
      <path d="M 626.96821 318.04 
L 626.96821 36.72 
" clip-path="url(#peba149d4e7)" style="fill: none; stroke: #b0b0b0; stroke-width: 0.8; stroke-linecap: square"/>
     </g>
     <g id="line2d_46">
      <g>
       <use xlink:href="#m3c36cf2a73" x="626.96821" y="318.04" style="stroke: #000000; stroke-width: 0.8"/>
      </g>
     </g>
     <g id="text_25">
      <!-- 15.0 -->
      <g transform="translate(615.835398 332.638437) scale(0.1 -0.1)">
       <use xlink:href="#DejaVuSans-31"/>
       <use xlink:href="#DejaVuSans-35" x="63.623047"/>
       <use xlink:href="#DejaVuSans-2e" x="127.246094"/>
       <use xlink:href="#DejaVuSans-30" x="159.033203"/>
      </g>
     </g>
    </g>
    <g id="xtick_17">
     <g id="line2d_47">
      <path d="M 661.094347 318.04 
L 661.094347 36.72 
" clip-path="url(#peba149d4e7)" style="fill: none; stroke: #b0b0b0; stroke-width: 0.8; stroke-linecap: square"/>
     </g>
     <g id="line2d_48">
      <g>
       <use xlink:href="#m3c36cf2a73" x="661.094347" y="318.04" style="stroke: #000000; stroke-width: 0.8"/>
      </g>
     </g>
     <g id="text_26">
      <!-- 17.5 -->
      <g transform="translate(649.961534 332.638437) scale(0.1 -0.1)">
       <use xlink:href="#DejaVuSans-31"/>
       <use xlink:href="#DejaVuSans-37" x="63.623047"/>
       <use xlink:href="#DejaVuSans-2e" x="127.246094"/>
       <use xlink:href="#DejaVuSans-35" x="159.033203"/>
      </g>
     </g>
    </g>
    <g id="xtick_18">
     <g id="line2d_49">
      <path d="M 695.220483 318.04 
L 695.220483 36.72 
" clip-path="url(#peba149d4e7)" style="fill: none; stroke: #b0b0b0; stroke-width: 0.8; stroke-linecap: square"/>
     </g>
     <g id="line2d_50">
      <g>
       <use xlink:href="#m3c36cf2a73" x="695.220483" y="318.04" style="stroke: #000000; stroke-width: 0.8"/>
      </g>
     </g>
     <g id="text_27">
      <!-- 20.0 -->
      <g transform="translate(684.08767 332.638437) scale(0.1 -0.1)">
       <use xlink:href="#DejaVuSans-32"/>
       <use xlink:href="#DejaVuSans-30" x="63.623047"/>
       <use xlink:href="#DejaVuSans-2e" x="127.246094"/>
       <use xlink:href="#DejaVuSans-30" x="159.033203"/>
      </g>
     </g>
    </g>
    <g id="text_28">
     <!-- t -->
     <g transform="translate(556.755781 346.316562) scale(0.1 -0.1)">
      <use xlink:href="#DejaVuSans-74"/>
     </g>
    </g>
   </g>
   <g id="matplotlib.axis_4">
    <g id="ytick_6">
     <g id="line2d_51">
      <path d="M 408.560938 303.784213 
L 708.870937 303.784213 
" clip-path="url(#peba149d4e7)" style="fill: none; stroke: #b0b0b0; stroke-width: 0.8; stroke-linecap: square"/>
     </g>
     <g id="line2d_52">
      <g>
       <use xlink:href="#m7a4722378d" x="408.560938" y="303.784213" style="stroke: #000000; stroke-width: 0.8"/>
      </g>
     </g>
     <g id="text_29">
      <!-- −0.4 -->
      <g transform="translate(377.278125 307.583432) scale(0.1 -0.1)">
       <defs>
        <path id="DejaVuSans-34" d="M 2419 4116 
L 825 1625 
L 2419 1625 
L 2419 4116 
z
M 2253 4666 
L 3047 4666 
L 3047 1625 
L 3713 1625 
L 3713 1100 
L 3047 1100 
L 3047 0 
L 2419 0 
L 2419 1100 
L 313 1100 
L 313 1709 
L 2253 4666 
z
" transform="scale(0.015625)"/>
       </defs>
       <use xlink:href="#DejaVuSans-2212"/>
       <use xlink:href="#DejaVuSans-30" x="83.789062"/>
       <use xlink:href="#DejaVuSans-2e" x="147.412109"/>
       <use xlink:href="#DejaVuSans-34" x="179.199219"/>
      </g>
     </g>
    </g>
    <g id="ytick_7">
     <g id="line2d_53">
      <path d="M 408.560938 271.2618 
L 708.870937 271.2618 
" clip-path="url(#peba149d4e7)" style="fill: none; stroke: #b0b0b0; stroke-width: 0.8; stroke-linecap: square"/>
     </g>
     <g id="line2d_54">
      <g>
       <use xlink:href="#m7a4722378d" x="408.560938" y="271.2618" style="stroke: #000000; stroke-width: 0.8"/>
      </g>
     </g>
     <g id="text_30">
      <!-- −0.3 -->
      <g transform="translate(377.278125 275.061019) scale(0.1 -0.1)">
       <defs>
        <path id="DejaVuSans-33" d="M 2597 2516 
Q 3050 2419 3304 2112 
Q 3559 1806 3559 1356 
Q 3559 666 3084 287 
Q 2609 -91 1734 -91 
Q 1441 -91 1130 -33 
Q 819 25 488 141 
L 488 750 
Q 750 597 1062 519 
Q 1375 441 1716 441 
Q 2309 441 2620 675 
Q 2931 909 2931 1356 
Q 2931 1769 2642 2001 
Q 2353 2234 1838 2234 
L 1294 2234 
L 1294 2753 
L 1863 2753 
Q 2328 2753 2575 2939 
Q 2822 3125 2822 3475 
Q 2822 3834 2567 4026 
Q 2313 4219 1838 4219 
Q 1578 4219 1281 4162 
Q 984 4106 628 3988 
L 628 4550 
Q 988 4650 1302 4700 
Q 1616 4750 1894 4750 
Q 2613 4750 3031 4423 
Q 3450 4097 3450 3541 
Q 3450 3153 3228 2886 
Q 3006 2619 2597 2516 
z
" transform="scale(0.015625)"/>
       </defs>
       <use xlink:href="#DejaVuSans-2212"/>
       <use xlink:href="#DejaVuSans-30" x="83.789062"/>
       <use xlink:href="#DejaVuSans-2e" x="147.412109"/>
       <use xlink:href="#DejaVuSans-33" x="179.199219"/>
      </g>
     </g>
    </g>
    <g id="ytick_8">
     <g id="line2d_55">
      <path d="M 408.560938 238.739387 
L 708.870937 238.739387 
" clip-path="url(#peba149d4e7)" style="fill: none; stroke: #b0b0b0; stroke-width: 0.8; stroke-linecap: square"/>
     </g>
     <g id="line2d_56">
      <g>
       <use xlink:href="#m7a4722378d" x="408.560938" y="238.739387" style="stroke: #000000; stroke-width: 0.8"/>
      </g>
     </g>
     <g id="text_31">
      <!-- −0.2 -->
      <g transform="translate(377.278125 242.538606) scale(0.1 -0.1)">
       <use xlink:href="#DejaVuSans-2212"/>
       <use xlink:href="#DejaVuSans-30" x="83.789062"/>
       <use xlink:href="#DejaVuSans-2e" x="147.412109"/>
       <use xlink:href="#DejaVuSans-32" x="179.199219"/>
      </g>
     </g>
    </g>
    <g id="ytick_9">
     <g id="line2d_57">
      <path d="M 408.560938 206.216974 
L 708.870937 206.216974 
" clip-path="url(#peba149d4e7)" style="fill: none; stroke: #b0b0b0; stroke-width: 0.8; stroke-linecap: square"/>
     </g>
     <g id="line2d_58">
      <g>
       <use xlink:href="#m7a4722378d" x="408.560938" y="206.216974" style="stroke: #000000; stroke-width: 0.8"/>
      </g>
     </g>
     <g id="text_32">
      <!-- −0.1 -->
      <g transform="translate(377.278125 210.016193) scale(0.1 -0.1)">
       <use xlink:href="#DejaVuSans-2212"/>
       <use xlink:href="#DejaVuSans-30" x="83.789062"/>
       <use xlink:href="#DejaVuSans-2e" x="147.412109"/>
       <use xlink:href="#DejaVuSans-31" x="179.199219"/>
      </g>
     </g>
    </g>
    <g id="ytick_10">
     <g id="line2d_59">
      <path d="M 408.560938 173.694561 
L 708.870937 173.694561 
" clip-path="url(#peba149d4e7)" style="fill: none; stroke: #b0b0b0; stroke-width: 0.8; stroke-linecap: square"/>
     </g>
     <g id="line2d_60">
      <g>
       <use xlink:href="#m7a4722378d" x="408.560938" y="173.694561" style="stroke: #000000; stroke-width: 0.8"/>
      </g>
     </g>
     <g id="text_33">
      <!-- 0.0 -->
      <g transform="translate(385.657813 177.49378) scale(0.1 -0.1)">
       <use xlink:href="#DejaVuSans-30"/>
       <use xlink:href="#DejaVuSans-2e" x="63.623047"/>
       <use xlink:href="#DejaVuSans-30" x="95.410156"/>
      </g>
     </g>
    </g>
    <g id="ytick_11">
     <g id="line2d_61">
      <path d="M 408.560938 141.172148 
L 708.870937 141.172148 
" clip-path="url(#peba149d4e7)" style="fill: none; stroke: #b0b0b0; stroke-width: 0.8; stroke-linecap: square"/>
     </g>
     <g id="line2d_62">
      <g>
       <use xlink:href="#m7a4722378d" x="408.560938" y="141.172148" style="stroke: #000000; stroke-width: 0.8"/>
      </g>
     </g>
     <g id="text_34">
      <!-- 0.1 -->
      <g transform="translate(385.657813 144.971367) scale(0.1 -0.1)">
       <use xlink:href="#DejaVuSans-30"/>
       <use xlink:href="#DejaVuSans-2e" x="63.623047"/>
       <use xlink:href="#DejaVuSans-31" x="95.410156"/>
      </g>
     </g>
    </g>
    <g id="ytick_12">
     <g id="line2d_63">
      <path d="M 408.560938 108.649736 
L 708.870937 108.649736 
" clip-path="url(#peba149d4e7)" style="fill: none; stroke: #b0b0b0; stroke-width: 0.8; stroke-linecap: square"/>
     </g>
     <g id="line2d_64">
      <g>
       <use xlink:href="#m7a4722378d" x="408.560938" y="108.649736" style="stroke: #000000; stroke-width: 0.8"/>
      </g>
     </g>
     <g id="text_35">
      <!-- 0.2 -->
      <g transform="translate(385.657813 112.448954) scale(0.1 -0.1)">
       <use xlink:href="#DejaVuSans-30"/>
       <use xlink:href="#DejaVuSans-2e" x="63.623047"/>
       <use xlink:href="#DejaVuSans-32" x="95.410156"/>
      </g>
     </g>
    </g>
    <g id="ytick_13">
     <g id="line2d_65">
      <path d="M 408.560938 76.127323 
L 708.870937 76.127323 
" clip-path="url(#peba149d4e7)" style="fill: none; stroke: #b0b0b0; stroke-width: 0.8; stroke-linecap: square"/>
     </g>
     <g id="line2d_66">
      <g>
       <use xlink:href="#m7a4722378d" x="408.560938" y="76.127323" style="stroke: #000000; stroke-width: 0.8"/>
      </g>
     </g>
     <g id="text_36">
      <!-- 0.3 -->
      <g transform="translate(385.657813 79.926541) scale(0.1 -0.1)">
       <use xlink:href="#DejaVuSans-30"/>
       <use xlink:href="#DejaVuSans-2e" x="63.623047"/>
       <use xlink:href="#DejaVuSans-33" x="95.410156"/>
      </g>
     </g>
    </g>
    <g id="ytick_14">
     <g id="line2d_67">
      <path d="M 408.560938 43.60491 
L 708.870937 43.60491 
" clip-path="url(#peba149d4e7)" style="fill: none; stroke: #b0b0b0; stroke-width: 0.8; stroke-linecap: square"/>
     </g>
     <g id="line2d_68">
      <g>
       <use xlink:href="#m7a4722378d" x="408.560938" y="43.60491" style="stroke: #000000; stroke-width: 0.8"/>
      </g>
     </g>
     <g id="text_37">
      <!-- 0.4 -->
      <g transform="translate(385.657813 47.404128) scale(0.1 -0.1)">
       <use xlink:href="#DejaVuSans-30"/>
       <use xlink:href="#DejaVuSans-2e" x="63.623047"/>
       <use xlink:href="#DejaVuSans-34" x="95.410156"/>
      </g>
     </g>
    </g>
    <g id="text_38">
     <!-- Fr(t) -->
     <g transform="translate(371.198438 187.810469) rotate(-90) scale(0.1 -0.1)">
      <defs>
       <path id="DejaVuSans-46" d="M 628 4666 
L 3309 4666 
L 3309 4134 
L 1259 4134 
L 1259 2759 
L 3109 2759 
L 3109 2228 
L 1259 2228 
L 1259 0 
L 628 0 
L 628 4666 
z
" transform="scale(0.015625)"/>
       <path id="DejaVuSans-72" d="M 2631 2963 
Q 2534 3019 2420 3045 
Q 2306 3072 2169 3072 
Q 1681 3072 1420 2755 
Q 1159 2438 1159 1844 
L 1159 0 
L 581 0 
L 581 3500 
L 1159 3500 
L 1159 2956 
Q 1341 3275 1631 3429 
Q 1922 3584 2338 3584 
Q 2397 3584 2469 3576 
Q 2541 3569 2628 3553 
L 2631 2963 
z
" transform="scale(0.015625)"/>
      </defs>
      <use xlink:href="#DejaVuSans-46"/>
      <use xlink:href="#DejaVuSans-72" x="50.269531"/>
      <use xlink:href="#DejaVuSans-28" x="91.382812"/>
      <use xlink:href="#DejaVuSans-74" x="130.396484"/>
      <use xlink:href="#DejaVuSans-29" x="169.605469"/>
     </g>
    </g>
   </g>
   <g id="line2d_69">
    <path d="M 422.211392 173.694561 
L 430.409863 173.593714 
L 433.689252 173.32123 
L 436.148793 172.910839 
L 438.335052 172.341351 
L 440.521311 171.537 
L 442.434288 170.614527 
L 444.347264 169.472101 
L 446.533523 167.889218 
L 448.719782 166.016669 
L 451.179324 163.593975 
L 453.912147 160.58287 
L 458.284665 155.377708 
L 462.383901 150.594531 
L 464.843442 148.044506 
L 466.756419 146.343635 
L 468.396113 145.140499 
L 470.035807 144.218432 
L 471.402219 143.695817 
L 472.768631 143.422974 
L 473.861761 143.403987 
L 474.95489 143.607466 
L 476.04802 144.055622 
L 477.141149 144.76141 
L 478.234279 145.736279 
L 479.327408 146.989999 
L 480.69382 148.961178 
L 482.060232 151.39139 
L 483.426644 154.286447 
L 485.066338 158.373949 
L 486.706032 163.119752 
L 488.619009 169.455937 
L 490.805268 177.62637 
L 494.631221 192.941228 
L 499.550304 212.466064 
L 502.283127 222.408806 
L 504.469386 229.624758 
L 506.655645 236.062184 
L 508.568622 240.992241 
L 510.208316 244.664045 
L 511.84801 247.804096 
L 513.214422 250.002926 
L 514.580834 251.812539 
L 515.947246 253.223878 
L 517.040376 254.059413 
L 518.133505 254.627538 
L 519.226635 254.921199 
L 520.046482 254.950155 
L 520.866329 254.69811 
L 521.686176 254.117349 
L 522.506023 253.201765 
L 523.32587 251.946484 
L 524.145717 250.347903 
L 525.238847 247.678676 
L 526.331976 244.393529 
L 527.698388 239.425453 
L 529.0648 233.514533 
L 530.431212 226.686828 
L 532.070906 217.336489 
L 533.983883 204.942212 
L 536.170142 189.033873 
L 538.902965 167.156943 
L 541.635789 146.009117 
L 543.822048 130.674571 
L 545.735025 118.610749 
L 547.648001 107.877606 
L 549.560978 98.476688 
L 551.200672 91.449466 
L 552.840366 85.331147 
L 554.480061 80.073485 
L 556.119755 75.625936 
L 557.486167 72.503179 
L 558.852579 69.883359 
L 560.218991 67.744192 
L 561.585402 66.067619 
L 562.678532 65.050412 
L 563.771661 64.316529 
L 564.864791 63.8642 
L 565.95792 63.694288 
L 566.504485 63.762991 
L 567.05105 64.045486 
L 567.597615 64.546023 
L 568.417462 65.708139 
L 569.237309 67.36579 
L 570.057156 69.51938 
L 571.150285 73.159257 
L 572.243415 77.668432 
L 573.336544 83.031226 
L 574.702956 90.900976 
L 576.069368 100.012861 
L 577.709062 112.484683 
L 579.622039 128.960743 
L 581.808298 149.971992 
L 584.814404 181.534413 
L 587.000663 203.095755 
L 588.91364 219.775243 
L 590.826616 234.344617 
L 592.466311 245.193406 
L 594.106005 254.611701 
L 595.745699 262.702284 
L 597.385393 269.577893 
L 598.751805 274.461164 
L 600.118217 278.641483 
L 601.484629 282.175945 
L 602.851041 285.115293 
L 604.217453 287.503067 
L 605.583865 289.375062 
L 606.676994 290.520177 
L 607.770124 291.363384 
L 608.863253 291.911463 
L 609.956382 292.167563 
L 610.77623 292.115429 
L 611.322794 291.789029 
L 611.869359 291.199594 
L 612.415924 290.346404 
L 613.235771 288.57169 
L 614.055618 286.204347 
L 614.875465 283.248087 
L 615.968595 278.401352 
L 617.061724 272.540385 
L 618.428136 263.833078 
L 619.794548 253.660753 
L 621.434242 239.650195 
L 623.347219 221.061938 
L 625.533478 197.305556 
L 630.999125 135.697892 
L 632.638819 120.614777 
L 634.278514 107.409903 
L 635.918208 95.991437 
L 637.557902 86.226044 
L 639.197596 77.960448 
L 640.564008 72.10448 
L 641.93042 67.092934 
L 643.296832 62.84441 
L 644.663244 59.285703 
L 646.029656 56.352909 
L 647.396068 53.99201 
L 648.489197 52.485228 
L 649.582327 51.298429 
L 650.675456 50.418067 
L 651.768586 49.834827 
L 652.861715 49.543683 
L 653.681562 49.54437 
L 654.228127 49.840865 
L 654.774692 50.434873 
L 655.321256 51.327249 
L 656.141104 53.225738 
L 656.960951 55.7947 
L 657.780798 59.029895 
L 658.873927 64.367182 
L 659.967057 70.851271 
L 661.333469 80.517117 
L 662.699881 91.837122 
L 664.339575 107.455086 
L 666.252551 128.199683 
L 668.43881 154.725532 
L 672.811328 209.262937 
L 674.451023 226.208217 
L 676.090717 240.961205 
L 677.730411 253.635468 
L 679.370105 264.400483 
L 680.736517 272.053932 
L 682.102929 278.63419 
L 683.469341 284.254291 
L 684.835753 289.019615 
L 686.202165 293.025447 
L 687.568577 296.355667 
L 688.934988 299.082214 
L 690.3014 301.265053 
L 691.39453 302.652643 
L 692.487659 303.742749 
L 693.580789 304.5502 
L 694.673918 305.085309 
L 695.220483 305.252727 
L 695.220483 305.252727 
" clip-path="url(#peba149d4e7)" style="fill: none; stroke: #0000ff; stroke-width: 1.5; stroke-linecap: square"/>
   </g>
   <g id="line2d_70">
    <path d="M 422.211392 173.694561 
L 424.124369 174.085964 
L 426.037345 174.231448 
L 427.67704 174.152488 
L 429.316734 173.880813 
L 431.22971 173.317612 
L 433.142687 172.490582 
L 435.055664 171.406793 
L 436.96864 170.080182 
L 439.154899 168.295203 
L 441.614441 166.001747 
L 445.167111 162.343347 
L 450.359476 156.998702 
L 452.545735 155.048775 
L 454.458712 153.61432 
L 456.098406 152.637392 
L 457.738101 151.928193 
L 459.104512 151.559143 
L 460.470924 151.401192 
L 461.837336 151.457722 
L 463.203748 151.726947 
L 464.57016 152.202098 
L 466.209854 153.027848 
L 467.849548 154.106602 
L 469.762525 155.640205 
L 471.948784 157.681747 
L 474.95489 160.824602 
L 483.699926 170.208982 
L 486.43275 172.713 
L 488.619009 174.445922 
L 490.805268 175.894639 
L 492.718244 176.90101 
L 494.631221 177.641058 
L 496.270915 178.048844 
L 497.910609 178.236207 
L 499.550304 178.193953 
L 501.189998 177.91462 
L 502.829692 177.392845 
L 504.469386 176.625834 
L 506.109081 175.613948 
L 507.748775 174.361415 
L 509.661751 172.608163 
L 511.574728 170.563596 
L 513.760987 167.917283 
L 516.767093 163.880336 
L 523.32587 154.864462 
L 525.512129 152.325619 
L 527.151823 150.73548 
L 528.518235 149.66218 
L 529.884647 148.846883 
L 531.251059 148.310166 
L 532.344188 148.090533 
L 533.437318 148.060985 
L 534.530447 148.221386 
L 535.623577 148.568362 
L 536.989989 149.254361 
L 538.356401 150.202959 
L 539.996095 151.653326 
L 541.635789 153.396586 
L 543.822048 156.080722 
L 546.554872 159.825553 
L 556.119755 173.273681 
L 558.852579 176.553386 
L 561.038838 178.855687 
L 563.225097 180.825662 
L 565.138073 182.245592 
L 566.777768 183.216873 
L 568.417462 183.945134 
L 570.057156 184.415739 
L 571.423568 184.60106 
L 572.78998 184.590308 
L 574.156392 184.37659 
L 575.522803 183.953778 
L 576.889215 183.316715 
L 578.255627 182.46146 
L 579.895321 181.143886 
L 581.535016 179.508364 
L 583.17471 177.559767 
L 585.087687 174.906731 
L 587.000663 171.877319 
L 589.460204 167.518031 
L 592.739593 161.185539 
L 596.838829 153.309974 
L 599.025088 149.608435 
L 600.664782 147.251902 
L 602.031194 145.638177 
L 603.397606 144.391206 
L 604.490735 143.681664 
L 605.583865 143.242118 
L 606.676994 143.079869 
L 607.770124 143.196715 
L 608.863253 143.588936 
L 609.956382 144.24751 
L 611.049512 145.158542 
L 612.415924 146.624376 
L 613.782336 148.413332 
L 615.42203 150.918332 
L 617.608289 154.721586 
L 620.614395 160.475422 
L 628.266302 175.333592 
L 631.272408 180.586669 
L 633.731949 184.47501 
L 635.918208 187.56614 
L 638.104467 190.266689 
L 640.017444 192.272262 
L 641.657138 193.699668 
L 643.296832 194.835527 
L 644.663244 195.544094 
L 646.029656 196.023464 
L 647.396068 196.261958 
L 648.762479 196.248383 
L 650.128891 195.972134 
L 651.495303 195.423277 
L 652.861715 194.592622 
L 654.228127 193.471835 
L 655.594539 192.053616 
L 656.960951 190.332 
L 658.600645 187.859931 
L 660.240339 184.943134 
L 661.880033 181.587751 
L 663.79301 177.143814 
L 665.979269 171.441203 
L 668.712093 163.61376 
L 674.17774 147.728482 
L 676.090717 142.970014 
L 677.457129 140.087229 
L 678.823541 137.738719 
L 679.91667 136.296155 
L 681.0098 135.274431 
L 681.829647 134.797243 
L 682.649494 134.573889 
L 683.469341 134.606246 
L 684.289188 134.892857 
L 685.109035 135.428941 
L 685.928882 136.206503 
L 687.022012 137.599448 
L 688.115141 139.368313 
L 689.481553 142.046023 
L 691.121247 145.825486 
L 693.034224 150.81263 
L 695.220483 156.982936 
L 695.220483 156.982936 
" clip-path="url(#peba149d4e7)" style="fill: none; stroke-dasharray: 5.55,2.4; stroke-dashoffset: 0; stroke: #ff0000; stroke-width: 1.5"/>
   </g>
   <g id="patch_9">
    <path d="M 408.560938 318.04 
L 408.560938 36.72 
" style="fill: none; stroke: #000000; stroke-width: 0.8; stroke-linejoin: miter; stroke-linecap: square"/>
   </g>
   <g id="patch_10">
    <path d="M 708.870937 318.04 
L 708.870937 36.72 
" style="fill: none; stroke: #000000; stroke-width: 0.8; stroke-linejoin: miter; stroke-linecap: square"/>
   </g>
   <g id="patch_11">
    <path d="M 408.560938 318.04 
L 708.870937 318.04 
" style="fill: none; stroke: #000000; stroke-width: 0.8; stroke-linejoin: miter; stroke-linecap: square"/>
   </g>
   <g id="patch_12">
    <path d="M 408.560938 36.72 
L 708.870937 36.72 
" style="fill: none; stroke: #000000; stroke-width: 0.8; stroke-linejoin: miter; stroke-linecap: square"/>
   </g>
   <g id="legend_2">
    <g id="patch_13">
     <path d="M 415.560938 74.07625 
L 474.153125 74.07625 
Q 476.153125 74.07625 476.153125 72.07625 
L 476.153125 43.72 
Q 476.153125 41.72 474.153125 41.72 
L 415.560938 41.72 
Q 413.560938 41.72 413.560938 43.72 
L 413.560938 72.07625 
Q 413.560938 74.07625 415.560938 74.07625 
z
" style="fill: #ffffff; opacity: 0.8; stroke: #cccccc; stroke-linejoin: miter"/>
    </g>
    <g id="line2d_71">
     <path d="M 417.560938 49.818437 
L 427.560938 49.818437 
L 437.560938 49.818437 
" style="fill: none; stroke: #0000ff; stroke-width: 1.5; stroke-linecap: square"/>
    </g>
    <g id="text_39">
     <!-- data -->
     <g transform="translate(445.560938 53.318437) scale(0.1 -0.1)">
      <use xlink:href="#DejaVuSans-64"/>
      <use xlink:href="#DejaVuSans-61" x="63.476562"/>
      <use xlink:href="#DejaVuSans-74" x="124.755859"/>
      <use xlink:href="#DejaVuSans-61" x="163.964844"/>
     </g>
    </g>
    <g id="line2d_72">
     <path d="M 417.560938 64.496562 
L 427.560938 64.496562 
L 437.560938 64.496562 
" style="fill: none; stroke-dasharray: 5.55,2.4; stroke-dashoffset: 0; stroke: #ff0000; stroke-width: 1.5"/>
    </g>
    <g id="text_40">
     <!-- sindy -->
     <g transform="translate(445.560938 67.996562) scale(0.1 -0.1)">
      <use xlink:href="#DejaVuSans-73"/>
      <use xlink:href="#DejaVuSans-69" x="52.099609"/>
      <use xlink:href="#DejaVuSans-6e" x="79.882812"/>
      <use xlink:href="#DejaVuSans-64" x="143.261719"/>
      <use xlink:href="#DejaVuSans-79" x="206.738281"/>
     </g>
    </g>
   </g>
  </g>
  <g id="axes_3">
   <g id="patch_14">
    <path d="M 764.960938 318.04 
L 1065.270937 318.04 
L 1065.270937 36.72 
L 764.960938 36.72 
z
" style="fill: #ffffff"/>
   </g>
   <g id="matplotlib.axis_5">
    <g id="xtick_19">
     <g id="line2d_73">
      <path d="M 808.084699 318.04 
L 808.084699 36.72 
" clip-path="url(#pfc3a7ff50b)" style="fill: none; stroke: #b0b0b0; stroke-width: 0.8; stroke-linecap: square"/>
     </g>
     <g id="line2d_74">
      <g>
       <use xlink:href="#m3c36cf2a73" x="808.084699" y="318.04" style="stroke: #000000; stroke-width: 0.8"/>
      </g>
     </g>
     <g id="text_41">
      <!-- −1.0 -->
      <g transform="translate(795.943293 332.638437) scale(0.1 -0.1)">
       <use xlink:href="#DejaVuSans-2212"/>
       <use xlink:href="#DejaVuSans-31" x="83.789062"/>
       <use xlink:href="#DejaVuSans-2e" x="147.412109"/>
       <use xlink:href="#DejaVuSans-30" x="179.199219"/>
      </g>
     </g>
    </g>
    <g id="xtick_20">
     <g id="line2d_75">
      <path d="M 865.148859 318.04 
L 865.148859 36.72 
" clip-path="url(#pfc3a7ff50b)" style="fill: none; stroke: #b0b0b0; stroke-width: 0.8; stroke-linecap: square"/>
     </g>
     <g id="line2d_76">
      <g>
       <use xlink:href="#m3c36cf2a73" x="865.148859" y="318.04" style="stroke: #000000; stroke-width: 0.8"/>
      </g>
     </g>
     <g id="text_42">
      <!-- −0.5 -->
      <g transform="translate(853.007452 332.638437) scale(0.1 -0.1)">
       <use xlink:href="#DejaVuSans-2212"/>
       <use xlink:href="#DejaVuSans-30" x="83.789062"/>
       <use xlink:href="#DejaVuSans-2e" x="147.412109"/>
       <use xlink:href="#DejaVuSans-35" x="179.199219"/>
      </g>
     </g>
    </g>
    <g id="xtick_21">
     <g id="line2d_77">
      <path d="M 922.213018 318.04 
L 922.213018 36.72 
" clip-path="url(#pfc3a7ff50b)" style="fill: none; stroke: #b0b0b0; stroke-width: 0.8; stroke-linecap: square"/>
     </g>
     <g id="line2d_78">
      <g>
       <use xlink:href="#m3c36cf2a73" x="922.213018" y="318.04" style="stroke: #000000; stroke-width: 0.8"/>
      </g>
     </g>
     <g id="text_43">
      <!-- 0.0 -->
      <g transform="translate(914.261456 332.638437) scale(0.1 -0.1)">
       <use xlink:href="#DejaVuSans-30"/>
       <use xlink:href="#DejaVuSans-2e" x="63.623047"/>
       <use xlink:href="#DejaVuSans-30" x="95.410156"/>
      </g>
     </g>
    </g>
    <g id="xtick_22">
     <g id="line2d_79">
      <path d="M 979.277178 318.04 
L 979.277178 36.72 
" clip-path="url(#pfc3a7ff50b)" style="fill: none; stroke: #b0b0b0; stroke-width: 0.8; stroke-linecap: square"/>
     </g>
     <g id="line2d_80">
      <g>
       <use xlink:href="#m3c36cf2a73" x="979.277178" y="318.04" style="stroke: #000000; stroke-width: 0.8"/>
      </g>
     </g>
     <g id="text_44">
      <!-- 0.5 -->
      <g transform="translate(971.325615 332.638437) scale(0.1 -0.1)">
       <use xlink:href="#DejaVuSans-30"/>
       <use xlink:href="#DejaVuSans-2e" x="63.623047"/>
       <use xlink:href="#DejaVuSans-35" x="95.410156"/>
      </g>
     </g>
    </g>
    <g id="xtick_23">
     <g id="line2d_81">
      <path d="M 1036.341337 318.04 
L 1036.341337 36.72 
" clip-path="url(#pfc3a7ff50b)" style="fill: none; stroke: #b0b0b0; stroke-width: 0.8; stroke-linecap: square"/>
     </g>
     <g id="line2d_82">
      <g>
       <use xlink:href="#m3c36cf2a73" x="1036.341337" y="318.04" style="stroke: #000000; stroke-width: 0.8"/>
      </g>
     </g>
     <g id="text_45">
      <!-- 1.0 -->
      <g transform="translate(1028.389774 332.638437) scale(0.1 -0.1)">
       <use xlink:href="#DejaVuSans-31"/>
       <use xlink:href="#DejaVuSans-2e" x="63.623047"/>
       <use xlink:href="#DejaVuSans-30" x="95.410156"/>
      </g>
     </g>
    </g>
    <g id="text_46">
     <!-- x(t) -->
     <g transform="translate(906.294844 346.316562) scale(0.1 -0.1)">
      <use xlink:href="#DejaVuSans-78"/>
      <use xlink:href="#DejaVuSans-28" x="59.179688"/>
      <use xlink:href="#DejaVuSans-74" x="98.193359"/>
      <use xlink:href="#DejaVuSans-29" x="137.402344"/>
     </g>
    </g>
   </g>
   <g id="matplotlib.axis_6">
    <g id="ytick_15">
     <g id="line2d_83">
      <path d="M 764.960938 303.784213 
L 1065.270937 303.784213 
" clip-path="url(#pfc3a7ff50b)" style="fill: none; stroke: #b0b0b0; stroke-width: 0.8; stroke-linecap: square"/>
     </g>
     <g id="line2d_84">
      <g>
       <use xlink:href="#m7a4722378d" x="764.960938" y="303.784213" style="stroke: #000000; stroke-width: 0.8"/>
      </g>
     </g>
     <g id="text_47">
      <!-- −0.4 -->
      <g transform="translate(733.678125 307.583432) scale(0.1 -0.1)">
       <use xlink:href="#DejaVuSans-2212"/>
       <use xlink:href="#DejaVuSans-30" x="83.789062"/>
       <use xlink:href="#DejaVuSans-2e" x="147.412109"/>
       <use xlink:href="#DejaVuSans-34" x="179.199219"/>
      </g>
     </g>
    </g>
    <g id="ytick_16">
     <g id="line2d_85">
      <path d="M 764.960938 271.2618 
L 1065.270937 271.2618 
" clip-path="url(#pfc3a7ff50b)" style="fill: none; stroke: #b0b0b0; stroke-width: 0.8; stroke-linecap: square"/>
     </g>
     <g id="line2d_86">
      <g>
       <use xlink:href="#m7a4722378d" x="764.960938" y="271.2618" style="stroke: #000000; stroke-width: 0.8"/>
      </g>
     </g>
     <g id="text_48">
      <!-- −0.3 -->
      <g transform="translate(733.678125 275.061019) scale(0.1 -0.1)">
       <use xlink:href="#DejaVuSans-2212"/>
       <use xlink:href="#DejaVuSans-30" x="83.789062"/>
       <use xlink:href="#DejaVuSans-2e" x="147.412109"/>
       <use xlink:href="#DejaVuSans-33" x="179.199219"/>
      </g>
     </g>
    </g>
    <g id="ytick_17">
     <g id="line2d_87">
      <path d="M 764.960938 238.739387 
L 1065.270937 238.739387 
" clip-path="url(#pfc3a7ff50b)" style="fill: none; stroke: #b0b0b0; stroke-width: 0.8; stroke-linecap: square"/>
     </g>
     <g id="line2d_88">
      <g>
       <use xlink:href="#m7a4722378d" x="764.960938" y="238.739387" style="stroke: #000000; stroke-width: 0.8"/>
      </g>
     </g>
     <g id="text_49">
      <!-- −0.2 -->
      <g transform="translate(733.678125 242.538606) scale(0.1 -0.1)">
       <use xlink:href="#DejaVuSans-2212"/>
       <use xlink:href="#DejaVuSans-30" x="83.789062"/>
       <use xlink:href="#DejaVuSans-2e" x="147.412109"/>
       <use xlink:href="#DejaVuSans-32" x="179.199219"/>
      </g>
     </g>
    </g>
    <g id="ytick_18">
     <g id="line2d_89">
      <path d="M 764.960938 206.216974 
L 1065.270937 206.216974 
" clip-path="url(#pfc3a7ff50b)" style="fill: none; stroke: #b0b0b0; stroke-width: 0.8; stroke-linecap: square"/>
     </g>
     <g id="line2d_90">
      <g>
       <use xlink:href="#m7a4722378d" x="764.960938" y="206.216974" style="stroke: #000000; stroke-width: 0.8"/>
      </g>
     </g>
     <g id="text_50">
      <!-- −0.1 -->
      <g transform="translate(733.678125 210.016193) scale(0.1 -0.1)">
       <use xlink:href="#DejaVuSans-2212"/>
       <use xlink:href="#DejaVuSans-30" x="83.789062"/>
       <use xlink:href="#DejaVuSans-2e" x="147.412109"/>
       <use xlink:href="#DejaVuSans-31" x="179.199219"/>
      </g>
     </g>
    </g>
    <g id="ytick_19">
     <g id="line2d_91">
      <path d="M 764.960938 173.694561 
L 1065.270937 173.694561 
" clip-path="url(#pfc3a7ff50b)" style="fill: none; stroke: #b0b0b0; stroke-width: 0.8; stroke-linecap: square"/>
     </g>
     <g id="line2d_92">
      <g>
       <use xlink:href="#m7a4722378d" x="764.960938" y="173.694561" style="stroke: #000000; stroke-width: 0.8"/>
      </g>
     </g>
     <g id="text_51">
      <!-- 0.0 -->
      <g transform="translate(742.057812 177.49378) scale(0.1 -0.1)">
       <use xlink:href="#DejaVuSans-30"/>
       <use xlink:href="#DejaVuSans-2e" x="63.623047"/>
       <use xlink:href="#DejaVuSans-30" x="95.410156"/>
      </g>
     </g>
    </g>
    <g id="ytick_20">
     <g id="line2d_93">
      <path d="M 764.960938 141.172148 
L 1065.270937 141.172148 
" clip-path="url(#pfc3a7ff50b)" style="fill: none; stroke: #b0b0b0; stroke-width: 0.8; stroke-linecap: square"/>
     </g>
     <g id="line2d_94">
      <g>
       <use xlink:href="#m7a4722378d" x="764.960938" y="141.172148" style="stroke: #000000; stroke-width: 0.8"/>
      </g>
     </g>
     <g id="text_52">
      <!-- 0.1 -->
      <g transform="translate(742.057812 144.971367) scale(0.1 -0.1)">
       <use xlink:href="#DejaVuSans-30"/>
       <use xlink:href="#DejaVuSans-2e" x="63.623047"/>
       <use xlink:href="#DejaVuSans-31" x="95.410156"/>
      </g>
     </g>
    </g>
    <g id="ytick_21">
     <g id="line2d_95">
      <path d="M 764.960938 108.649736 
L 1065.270937 108.649736 
" clip-path="url(#pfc3a7ff50b)" style="fill: none; stroke: #b0b0b0; stroke-width: 0.8; stroke-linecap: square"/>
     </g>
     <g id="line2d_96">
      <g>
       <use xlink:href="#m7a4722378d" x="764.960938" y="108.649736" style="stroke: #000000; stroke-width: 0.8"/>
      </g>
     </g>
     <g id="text_53">
      <!-- 0.2 -->
      <g transform="translate(742.057812 112.448954) scale(0.1 -0.1)">
       <use xlink:href="#DejaVuSans-30"/>
       <use xlink:href="#DejaVuSans-2e" x="63.623047"/>
       <use xlink:href="#DejaVuSans-32" x="95.410156"/>
      </g>
     </g>
    </g>
    <g id="ytick_22">
     <g id="line2d_97">
      <path d="M 764.960938 76.127323 
L 1065.270937 76.127323 
" clip-path="url(#pfc3a7ff50b)" style="fill: none; stroke: #b0b0b0; stroke-width: 0.8; stroke-linecap: square"/>
     </g>
     <g id="line2d_98">
      <g>
       <use xlink:href="#m7a4722378d" x="764.960938" y="76.127323" style="stroke: #000000; stroke-width: 0.8"/>
      </g>
     </g>
     <g id="text_54">
      <!-- 0.3 -->
      <g transform="translate(742.057812 79.926541) scale(0.1 -0.1)">
       <use xlink:href="#DejaVuSans-30"/>
       <use xlink:href="#DejaVuSans-2e" x="63.623047"/>
       <use xlink:href="#DejaVuSans-33" x="95.410156"/>
      </g>
     </g>
    </g>
    <g id="ytick_23">
     <g id="line2d_99">
      <path d="M 764.960938 43.60491 
L 1065.270937 43.60491 
" clip-path="url(#pfc3a7ff50b)" style="fill: none; stroke: #b0b0b0; stroke-width: 0.8; stroke-linecap: square"/>
     </g>
     <g id="line2d_100">
      <g>
       <use xlink:href="#m7a4722378d" x="764.960938" y="43.60491" style="stroke: #000000; stroke-width: 0.8"/>
      </g>
     </g>
     <g id="text_55">
      <!-- 0.4 -->
      <g transform="translate(742.057812 47.404128) scale(0.1 -0.1)">
       <use xlink:href="#DejaVuSans-30"/>
       <use xlink:href="#DejaVuSans-2e" x="63.623047"/>
       <use xlink:href="#DejaVuSans-34" x="95.410156"/>
      </g>
     </g>
    </g>
    <g id="text_56">
     <!-- Fr(t) -->
     <g transform="translate(727.598438 187.810469) rotate(-90) scale(0.1 -0.1)">
      <use xlink:href="#DejaVuSans-46"/>
      <use xlink:href="#DejaVuSans-72" x="50.269531"/>
      <use xlink:href="#DejaVuSans-28" x="91.382812"/>
      <use xlink:href="#DejaVuSans-74" x="130.396484"/>
      <use xlink:href="#DejaVuSans-29" x="169.605469"/>
     </g>
    </g>
   </g>
   <g id="line2d_101">
    <path d="M 922.213018 173.694561 
L 927.731692 166.016669 
L 933.277207 158.662745 
L 938.937589 151.512212 
L 944.778648 144.491891 
L 945.723496 143.389271 
L 945.149487 144.207441 
L 919.325479 180.840403 
L 913.556869 188.507218 
L 907.408393 196.267774 
L 901.90793 202.868731 
L 896.265002 209.321856 
L 890.551601 215.542426 
L 884.844143 221.45722 
L 878.299752 227.889992 
L 872.003582 233.745087 
L 866.089458 238.962738 
L 859.970336 244.088536 
L 853.568791 249.169613 
L 846.827005 254.226771 
L 845.812727 254.962564 
L 845.998181 254.69811 
L 907.540516 167.156943 
L 914.082749 158.470835 
L 919.090696 152.146712 
L 924.167892 146.009117 
L 929.298284 140.075246 
L 934.46564 134.35901 
L 939.653586 128.871258 
L 946.574409 121.923172 
L 953.463391 115.407326 
L 960.281361 109.328851 
L 966.9893 103.687087 
L 973.548498 98.476688 
L 979.920704 93.68866 
L 986.068282 89.311321 
L 993.38078 84.396463 
L 1000.214778 80.073485 
L 1007.689451 75.625936 
L 1015.270273 71.396232 
L 1022.967776 67.372365 
L 1030.4744 63.694288 
L 1030.470148 63.703037 
L 949.720266 178.665548 
L 943.383293 187.161288 
L 936.958694 195.311172 
L 930.469118 203.095755 
L 923.937198 210.501827 
L 917.385489 217.521716 
L 910.836416 224.152579 
L 904.312229 230.39571 
L 897.83495 236.255867 
L 891.426337 241.740645 
L 885.107844 246.859892 
L 878.900575 251.625183 
L 872.825256 256.049353 
L 866.902188 260.146073 
L 859.275835 265.123499 
L 852.001043 269.577893 
L 845.121766 273.542672 
L 837.142781 277.85883 
L 829.925094 281.518186 
L 822.370138 285.115293 
L 814.357965 288.686201 
L 805.93956 292.185978 
L 805.939313 292.180348 
L 893.006054 168.235974 
L 897.738677 161.867996 
L 902.520134 155.694173 
L 907.342432 149.721322 
L 912.197588 143.954524 
L 917.077646 138.397261 
L 921.974678 133.051562 
L 926.880798 127.918146 
L 934.239885 120.614777 
L 941.575575 113.782034 
L 948.861977 107.409903 
L 956.073572 101.485011 
L 963.185259 95.991437 
L 970.172399 90.911431 
L 977.010852 86.226044 
L 983.677017 81.915659 
L 990.147875 77.960448 
L 998.433254 73.205389 
L 1006.280421 69.001599 
L 1013.640374 65.306259 
L 1022.084466 61.341944 
L 1030.997198 57.4546 
L 1039.545162 53.99201 
L 1048.535499 50.610011 
L 1051.620483 49.507273 
L 1051.594446 49.54437 
L 960.12976 179.726947 
L 954.911054 186.703108 
L 949.62975 193.448941 
L 944.294786 199.9571 
L 938.915084 206.222415 
L 933.499542 212.241698 
L 928.057023 218.01355 
L 922.596345 223.538168 
L 917.126278 228.81716 
L 911.655529 233.853363 
L 906.19274 238.650671 
L 900.746482 243.213874 
L 895.325244 247.548509 
L 889.937431 251.660718 
L 881.936543 257.426577 
L 874.057188 262.730745 
L 866.32648 267.598092 
L 858.770958 272.053932 
L 851.416546 276.123498 
L 844.288511 279.831521 
L 837.41142 283.201891 
L 828.673386 287.209714 
L 820.478003 290.708125 
L 811.075198 294.434311 
L 802.695059 297.515102 
L 794.110397 300.453817 
L 784.516548 303.497223 
L 778.611392 305.252727 
L 778.611392 305.252727 
" clip-path="url(#pfc3a7ff50b)" style="fill: none; stroke: #0000ff; stroke-width: 1.5; stroke-linecap: square"/>
   </g>
   <g id="line2d_102">
    <path d="M 922.213018 173.694561 
L 921.298789 174.179107 
L 920.834855 174.200048 
L 920.656266 173.992965 
L 920.630119 173.591485 
L 920.839929 172.753505 
L 921.500952 171.231724 
L 922.729542 168.995716 
L 924.800723 165.731838 
L 927.410572 162.053732 
L 930.110665 158.617394 
L 932.628846 155.746217 
L 934.770121 153.61432 
L 936.432655 152.24762 
L 937.602777 151.559143 
L 938.24721 151.395323 
L 938.613964 151.494698 
L 938.817091 151.805803 
L 938.852504 152.320915 
L 938.673885 153.190903 
L 938.170815 154.516793 
L 937.096752 156.627849 
L 935.427583 159.360734 
L 933.162098 162.625908 
L 930.383968 166.240951 
L 927.263474 169.941011 
L 924.269046 173.170762 
L 921.611753 175.73035 
L 919.614259 177.357786 
L 918.375116 178.095646 
L 917.77349 178.248042 
L 917.447943 178.127496 
L 917.318149 177.844604 
L 917.33905 177.282073 
L 917.614367 176.315625 
L 918.372923 174.586568 
L 919.746554 172.052392 
L 921.870246 168.606304 
L 924.825732 164.260535 
L 927.973666 160.02548 
L 931.028124 156.270684 
L 933.768634 153.228073 
L 936.058728 150.978825 
L 938.08203 149.303793 
L 939.538963 148.394476 
L 940.498656 148.065275 
L 941.067749 148.117578 
L 941.361752 148.371885 
L 941.507727 148.809914 
L 941.480005 149.603537 
L 941.143015 150.88824 
L 940.352653 152.786299 
L 938.979738 155.377479 
L 936.939339 158.670024 
L 934.217461 162.581939 
L 930.885358 166.93989 
L 927.097959 171.493297 
L 923.383537 175.612928 
L 919.938431 179.120944 
L 916.930474 181.870448 
L 914.867358 183.487366 
L 913.42772 184.355796 
L 912.61834 184.614826 
L 912.221252 184.56401 
L 911.984053 184.308935 
L 911.913803 183.843651 
L 912.05835 183.000969 
L 912.552699 181.618481 
L 913.556684 179.508364 
L 915.247409 176.471397 
L 917.801584 172.33135 
L 921.361079 167.007632 
L 925.160712 161.72417 
L 928.897599 156.899884 
L 932.330277 152.819382 
L 935.295896 149.608435 
L 938.101475 146.901855 
L 940.281077 145.093167 
L 941.876327 144.003352 
L 943.22366 143.3262 
L 944.097235 143.094241 
L 944.771903 143.141448 
L 945.140138 143.358847 
L 945.386462 143.729072 
L 945.522273 144.452242 
L 945.43796 145.423703 
L 945.029925 146.957802 
L 944.302263 148.80571 
L 943.04382 151.368124 
L 941.115736 154.721586 
L 938.78707 158.33814 
L 935.763256 162.638866 
L 932.061404 167.51512 
L 927.764187 172.795651 
L 923.010879 178.260805 
L 918.398679 183.224378 
L 914.071346 187.56614 
L 910.164614 191.16915 
L 907.096522 193.699668 
L 904.824126 195.287503 
L 903.431915 196.023464 
L 902.531528 196.279757 
L 902.005 196.214475 
L 901.738981 195.972134 
L 901.617062 195.555309 
L 901.675038 194.78171 
L 902.064403 193.471835 
L 902.974194 191.401657 
L 904.628809 188.302856 
L 907.278513 183.872799 
L 911.177089 177.811865 
L 916.008917 170.688061 
L 921.04979 163.61376 
L 925.962754 157.098851 
L 930.478385 151.50515 
L 934.405166 147.005901 
L 937.635356 143.602895 
L 940.747957 140.623766 
L 943.659843 138.161785 
L 945.786354 136.618366 
L 947.684764 135.489101 
L 949.314128 134.797243 
L 950.337789 134.573889 
L 951.177218 134.606246 
L 951.822432 134.892857 
L 952.266345 135.428941 
L 952.50495 136.206503 
L 952.537397 137.214529 
L 952.365942 138.439275 
L 951.829545 140.38131 
L 950.959812 142.636751 
L 949.444731 145.825486 
L 947.512599 149.337571 
L 944.73911 153.853464 
L 942.668436 156.982936 
L 942.668436 156.982936 
" clip-path="url(#pfc3a7ff50b)" style="fill: none; stroke-dasharray: 5.55,2.4; stroke-dashoffset: 0; stroke: #ff0000; stroke-width: 1.5"/>
   </g>
   <g id="patch_15">
    <path d="M 764.960938 318.04 
L 764.960938 36.72 
" style="fill: none; stroke: #000000; stroke-width: 0.8; stroke-linejoin: miter; stroke-linecap: square"/>
   </g>
   <g id="patch_16">
    <path d="M 1065.270937 318.04 
L 1065.270937 36.72 
" style="fill: none; stroke: #000000; stroke-width: 0.8; stroke-linejoin: miter; stroke-linecap: square"/>
   </g>
   <g id="patch_17">
    <path d="M 764.960938 318.04 
L 1065.270937 318.04 
" style="fill: none; stroke: #000000; stroke-width: 0.8; stroke-linejoin: miter; stroke-linecap: square"/>
   </g>
   <g id="patch_18">
    <path d="M 764.960938 36.72 
L 1065.270937 36.72 
" style="fill: none; stroke: #000000; stroke-width: 0.8; stroke-linejoin: miter; stroke-linecap: square"/>
   </g>
   <g id="legend_3">
    <g id="patch_19">
     <path d="M 771.960938 74.07625 
L 830.553125 74.07625 
Q 832.553125 74.07625 832.553125 72.07625 
L 832.553125 43.72 
Q 832.553125 41.72 830.553125 41.72 
L 771.960938 41.72 
Q 769.960938 41.72 769.960938 43.72 
L 769.960938 72.07625 
Q 769.960938 74.07625 771.960938 74.07625 
z
" style="fill: #ffffff; opacity: 0.8; stroke: #cccccc; stroke-linejoin: miter"/>
    </g>
    <g id="line2d_103">
     <path d="M 773.960938 49.818437 
L 783.960938 49.818437 
L 793.960938 49.818437 
" style="fill: none; stroke: #0000ff; stroke-width: 1.5; stroke-linecap: square"/>
    </g>
    <g id="text_57">
     <!-- data -->
     <g transform="translate(801.960938 53.318437) scale(0.1 -0.1)">
      <use xlink:href="#DejaVuSans-64"/>
      <use xlink:href="#DejaVuSans-61" x="63.476562"/>
      <use xlink:href="#DejaVuSans-74" x="124.755859"/>
      <use xlink:href="#DejaVuSans-61" x="163.964844"/>
     </g>
    </g>
    <g id="line2d_104">
     <path d="M 773.960938 64.496562 
L 783.960938 64.496562 
L 793.960938 64.496562 
" style="fill: none; stroke-dasharray: 5.55,2.4; stroke-dashoffset: 0; stroke: #ff0000; stroke-width: 1.5"/>
    </g>
    <g id="text_58">
     <!-- sindy -->
     <g transform="translate(801.960938 67.996562) scale(0.1 -0.1)">
      <use xlink:href="#DejaVuSans-73"/>
      <use xlink:href="#DejaVuSans-69" x="52.099609"/>
      <use xlink:href="#DejaVuSans-6e" x="79.882812"/>
      <use xlink:href="#DejaVuSans-64" x="143.261719"/>
      <use xlink:href="#DejaVuSans-79" x="206.738281"/>
     </g>
    </g>
   </g>
  </g>
  <g id="text_59">
   <!-- FL_pol_n2_bTrue_iTrue_FL_fr_n3 -->
   <g transform="translate(410.055938 19.3575) scale(0.16 -0.16)">
    <defs>
     <path id="DejaVuSans-4c" d="M 628 4666 
L 1259 4666 
L 1259 531 
L 3531 531 
L 3531 0 
L 628 0 
L 628 4666 
z
" transform="scale(0.015625)"/>
     <path id="DejaVuSans-5f" d="M 3263 -1063 
L 3263 -1509 
L -63 -1509 
L -63 -1063 
L 3263 -1063 
z
" transform="scale(0.015625)"/>
     <path id="DejaVuSans-70" d="M 1159 525 
L 1159 -1331 
L 581 -1331 
L 581 3500 
L 1159 3500 
L 1159 2969 
Q 1341 3281 1617 3432 
Q 1894 3584 2278 3584 
Q 2916 3584 3314 3078 
Q 3713 2572 3713 1747 
Q 3713 922 3314 415 
Q 2916 -91 2278 -91 
Q 1894 -91 1617 61 
Q 1341 213 1159 525 
z
M 3116 1747 
Q 3116 2381 2855 2742 
Q 2594 3103 2138 3103 
Q 1681 3103 1420 2742 
Q 1159 2381 1159 1747 
Q 1159 1113 1420 752 
Q 1681 391 2138 391 
Q 2594 391 2855 752 
Q 3116 1113 3116 1747 
z
" transform="scale(0.015625)"/>
     <path id="DejaVuSans-6f" d="M 1959 3097 
Q 1497 3097 1228 2736 
Q 959 2375 959 1747 
Q 959 1119 1226 758 
Q 1494 397 1959 397 
Q 2419 397 2687 759 
Q 2956 1122 2956 1747 
Q 2956 2369 2687 2733 
Q 2419 3097 1959 3097 
z
M 1959 3584 
Q 2709 3584 3137 3096 
Q 3566 2609 3566 1747 
Q 3566 888 3137 398 
Q 2709 -91 1959 -91 
Q 1206 -91 779 398 
Q 353 888 353 1747 
Q 353 2609 779 3096 
Q 1206 3584 1959 3584 
z
" transform="scale(0.015625)"/>
     <path id="DejaVuSans-6c" d="M 603 4863 
L 1178 4863 
L 1178 0 
L 603 0 
L 603 4863 
z
" transform="scale(0.015625)"/>
     <path id="DejaVuSans-62" d="M 3116 1747 
Q 3116 2381 2855 2742 
Q 2594 3103 2138 3103 
Q 1681 3103 1420 2742 
Q 1159 2381 1159 1747 
Q 1159 1113 1420 752 
Q 1681 391 2138 391 
Q 2594 391 2855 752 
Q 3116 1113 3116 1747 
z
M 1159 2969 
Q 1341 3281 1617 3432 
Q 1894 3584 2278 3584 
Q 2916 3584 3314 3078 
Q 3713 2572 3713 1747 
Q 3713 922 3314 415 
Q 2916 -91 2278 -91 
Q 1894 -91 1617 61 
Q 1341 213 1159 525 
L 1159 0 
L 581 0 
L 581 4863 
L 1159 4863 
L 1159 2969 
z
" transform="scale(0.015625)"/>
     <path id="DejaVuSans-54" d="M -19 4666 
L 3928 4666 
L 3928 4134 
L 2272 4134 
L 2272 0 
L 1638 0 
L 1638 4134 
L -19 4134 
L -19 4666 
z
" transform="scale(0.015625)"/>
     <path id="DejaVuSans-75" d="M 544 1381 
L 544 3500 
L 1119 3500 
L 1119 1403 
Q 1119 906 1312 657 
Q 1506 409 1894 409 
Q 2359 409 2629 706 
Q 2900 1003 2900 1516 
L 2900 3500 
L 3475 3500 
L 3475 0 
L 2900 0 
L 2900 538 
Q 2691 219 2414 64 
Q 2138 -91 1772 -91 
Q 1169 -91 856 284 
Q 544 659 544 1381 
z
M 1991 3584 
L 1991 3584 
z
" transform="scale(0.015625)"/>
     <path id="DejaVuSans-65" d="M 3597 1894 
L 3597 1613 
L 953 1613 
Q 991 1019 1311 708 
Q 1631 397 2203 397 
Q 2534 397 2845 478 
Q 3156 559 3463 722 
L 3463 178 
Q 3153 47 2828 -22 
Q 2503 -91 2169 -91 
Q 1331 -91 842 396 
Q 353 884 353 1716 
Q 353 2575 817 3079 
Q 1281 3584 2069 3584 
Q 2775 3584 3186 3129 
Q 3597 2675 3597 1894 
z
M 3022 2063 
Q 3016 2534 2758 2815 
Q 2500 3097 2075 3097 
Q 1594 3097 1305 2825 
Q 1016 2553 972 2059 
L 3022 2063 
z
" transform="scale(0.015625)"/>
     <path id="DejaVuSans-66" d="M 2375 4863 
L 2375 4384 
L 1825 4384 
Q 1516 4384 1395 4259 
Q 1275 4134 1275 3809 
L 1275 3500 
L 2222 3500 
L 2222 3053 
L 1275 3053 
L 1275 0 
L 697 0 
L 697 3053 
L 147 3053 
L 147 3500 
L 697 3500 
L 697 3744 
Q 697 4328 969 4595 
Q 1241 4863 1831 4863 
L 2375 4863 
z
" transform="scale(0.015625)"/>
    </defs>
    <use xlink:href="#DejaVuSans-46"/>
    <use xlink:href="#DejaVuSans-4c" x="57.519531"/>
    <use xlink:href="#DejaVuSans-5f" x="113.232422"/>
    <use xlink:href="#DejaVuSans-70" x="163.232422"/>
    <use xlink:href="#DejaVuSans-6f" x="226.708984"/>
    <use xlink:href="#DejaVuSans-6c" x="287.890625"/>
    <use xlink:href="#DejaVuSans-5f" x="315.673828"/>
    <use xlink:href="#DejaVuSans-6e" x="365.673828"/>
    <use xlink:href="#DejaVuSans-32" x="429.052734"/>
    <use xlink:href="#DejaVuSans-5f" x="492.675781"/>
    <use xlink:href="#DejaVuSans-62" x="542.675781"/>
    <use xlink:href="#DejaVuSans-54" x="606.152344"/>
    <use xlink:href="#DejaVuSans-72" x="652.486328"/>
    <use xlink:href="#DejaVuSans-75" x="693.599609"/>
    <use xlink:href="#DejaVuSans-65" x="756.978516"/>
    <use xlink:href="#DejaVuSans-5f" x="818.501953"/>
    <use xlink:href="#DejaVuSans-69" x="868.501953"/>
    <use xlink:href="#DejaVuSans-54" x="896.285156"/>
    <use xlink:href="#DejaVuSans-72" x="942.619141"/>
    <use xlink:href="#DejaVuSans-75" x="983.732422"/>
    <use xlink:href="#DejaVuSans-65" x="1047.111328"/>
    <use xlink:href="#DejaVuSans-5f" x="1108.634766"/>
    <use xlink:href="#DejaVuSans-46" x="1158.634766"/>
    <use xlink:href="#DejaVuSans-4c" x="1216.154297"/>
    <use xlink:href="#DejaVuSans-5f" x="1271.867188"/>
    <use xlink:href="#DejaVuSans-66" x="1321.867188"/>
    <use xlink:href="#DejaVuSans-72" x="1357.072266"/>
    <use xlink:href="#DejaVuSans-5f" x="1398.185547"/>
    <use xlink:href="#DejaVuSans-6e" x="1448.185547"/>
    <use xlink:href="#DejaVuSans-33" x="1511.564453"/>
   </g>
  </g>
 </g>
 <defs>
  <clipPath id="pac5053409d">
   <rect x="52.160938" y="36.72" width="300.31" height="281.32"/>
  </clipPath>
  <clipPath id="peba149d4e7">
   <rect x="408.560938" y="36.72" width="300.31" height="281.32"/>
  </clipPath>
  <clipPath id="pfc3a7ff50b">
   <rect x="764.960938" y="36.72" width="300.31" height="281.32"/>
  </clipPath>
 </defs>
</svg>
