<?xml version="1.0" encoding="utf-8" standalone="no"?>
<!DOCTYPE svg PUBLIC "-//W3C//DTD SVG 1.1//EN"
  "http://www.w3.org/Graphics/SVG/1.1/DTD/svg11.dtd">
<svg xmlns:xlink="http://www.w3.org/1999/xlink" width="1072.380313pt" height="351.034375pt" viewBox="0 0 1072.380313 351.034375" xmlns="http://www.w3.org/2000/svg" version="1.1">
 <metadata>
  <rdf:RDF xmlns:dc="http://purl.org/dc/elements/1.1/" xmlns:cc="http://creativecommons.org/ns#" xmlns:rdf="http://www.w3.org/1999/02/22-rdf-syntax-ns#">
   <cc:Work>
    <dc:type rdf:resource="http://purl.org/dc/dcmitype/StillImage"/>
    <dc:date>2025-02-10T19:42:16.098747</dc:date>
    <dc:format>image/svg+xml</dc:format>
    <dc:creator>
     <cc:Agent>
      <dc:title>Matplotlib v3.9.2, https://matplotlib.org/</dc:title>
     </cc:Agent>
    </dc:creator>
   </cc:Work>
  </rdf:RDF>
 </metadata>
 <defs>
  <style type="text/css">*{stroke-linejoin: round; stroke-linecap: butt}</style>
 </defs>
 <g id="figure_1">
  <g id="patch_1">
   <path d="M 0 351.034375 
L 1072.380313 351.034375 
L 1072.380313 0 
L 0 0 
z
" style="fill: #ffffff"/>
  </g>
  <g id="axes_1">
   <g id="patch_2">
    <path d="M 42.620313 313.478125 
L 522.705312 313.478125 
L 522.705312 22.318125 
L 42.620313 22.318125 
z
" style="fill: #ffffff"/>
   </g>
   <g id="matplotlib.axis_1">
    <g id="xtick_1">
     <g id="line2d_1">
      <path d="M 64.442358 313.478125 
L 64.442358 22.318125 
" clip-path="url(#p7b11eb7cf8)" style="fill: none; stroke: #b0b0b0; stroke-width: 0.8; stroke-linecap: square"/>
     </g>
     <g id="line2d_2">
      <defs>
       <path id="ma624d414d9" d="M 0 0 
L 0 3.5 
" style="stroke: #000000; stroke-width: 0.8"/>
      </defs>
      <g>
       <use xlink:href="#ma624d414d9" x="64.442358" y="313.478125" style="stroke: #000000; stroke-width: 0.8"/>
      </g>
     </g>
     <g id="text_1">
      <!-- 0 -->
      <g transform="translate(61.261108 328.076563) scale(0.1 -0.1)">
       <defs>
        <path id="DejaVuSans-30" d="M 2034 4250 
Q 1547 4250 1301 3770 
Q 1056 3291 1056 2328 
Q 1056 1369 1301 889 
Q 1547 409 2034 409 
Q 2525 409 2770 889 
Q 3016 1369 3016 2328 
Q 3016 3291 2770 3770 
Q 2525 4250 2034 4250 
z
M 2034 4750 
Q 2819 4750 3233 4129 
Q 3647 3509 3647 2328 
Q 3647 1150 3233 529 
Q 2819 -91 2034 -91 
Q 1250 -91 836 529 
Q 422 1150 422 2328 
Q 422 3509 836 4129 
Q 1250 4750 2034 4750 
z
" transform="scale(0.015625)"/>
       </defs>
       <use xlink:href="#DejaVuSans-30"/>
      </g>
     </g>
    </g>
    <g id="xtick_2">
     <g id="line2d_3">
      <path d="M 126.791059 313.478125 
L 126.791059 22.318125 
" clip-path="url(#p7b11eb7cf8)" style="fill: none; stroke: #b0b0b0; stroke-width: 0.8; stroke-linecap: square"/>
     </g>
     <g id="line2d_4">
      <g>
       <use xlink:href="#ma624d414d9" x="126.791059" y="313.478125" style="stroke: #000000; stroke-width: 0.8"/>
      </g>
     </g>
     <g id="text_2">
      <!-- 10 -->
      <g transform="translate(120.428559 328.076563) scale(0.1 -0.1)">
       <defs>
        <path id="DejaVuSans-31" d="M 794 531 
L 1825 531 
L 1825 4091 
L 703 3866 
L 703 4441 
L 1819 4666 
L 2450 4666 
L 2450 531 
L 3481 531 
L 3481 0 
L 794 0 
L 794 531 
z
" transform="scale(0.015625)"/>
       </defs>
       <use xlink:href="#DejaVuSans-31"/>
       <use xlink:href="#DejaVuSans-30" x="63.623047"/>
      </g>
     </g>
    </g>
    <g id="xtick_3">
     <g id="line2d_5">
      <path d="M 189.139761 313.478125 
L 189.139761 22.318125 
" clip-path="url(#p7b11eb7cf8)" style="fill: none; stroke: #b0b0b0; stroke-width: 0.8; stroke-linecap: square"/>
     </g>
     <g id="line2d_6">
      <g>
       <use xlink:href="#ma624d414d9" x="189.139761" y="313.478125" style="stroke: #000000; stroke-width: 0.8"/>
      </g>
     </g>
     <g id="text_3">
      <!-- 20 -->
      <g transform="translate(182.777261 328.076563) scale(0.1 -0.1)">
       <defs>
        <path id="DejaVuSans-32" d="M 1228 531 
L 3431 531 
L 3431 0 
L 469 0 
L 469 531 
Q 828 903 1448 1529 
Q 2069 2156 2228 2338 
Q 2531 2678 2651 2914 
Q 2772 3150 2772 3378 
Q 2772 3750 2511 3984 
Q 2250 4219 1831 4219 
Q 1534 4219 1204 4116 
Q 875 4013 500 3803 
L 500 4441 
Q 881 4594 1212 4672 
Q 1544 4750 1819 4750 
Q 2544 4750 2975 4387 
Q 3406 4025 3406 3419 
Q 3406 3131 3298 2873 
Q 3191 2616 2906 2266 
Q 2828 2175 2409 1742 
Q 1991 1309 1228 531 
z
" transform="scale(0.015625)"/>
       </defs>
       <use xlink:href="#DejaVuSans-32"/>
       <use xlink:href="#DejaVuSans-30" x="63.623047"/>
      </g>
     </g>
    </g>
    <g id="xtick_4">
     <g id="line2d_7">
      <path d="M 251.488462 313.478125 
L 251.488462 22.318125 
" clip-path="url(#p7b11eb7cf8)" style="fill: none; stroke: #b0b0b0; stroke-width: 0.8; stroke-linecap: square"/>
     </g>
     <g id="line2d_8">
      <g>
       <use xlink:href="#ma624d414d9" x="251.488462" y="313.478125" style="stroke: #000000; stroke-width: 0.8"/>
      </g>
     </g>
     <g id="text_4">
      <!-- 30 -->
      <g transform="translate(245.125962 328.076563) scale(0.1 -0.1)">
       <defs>
        <path id="DejaVuSans-33" d="M 2597 2516 
Q 3050 2419 3304 2112 
Q 3559 1806 3559 1356 
Q 3559 666 3084 287 
Q 2609 -91 1734 -91 
Q 1441 -91 1130 -33 
Q 819 25 488 141 
L 488 750 
Q 750 597 1062 519 
Q 1375 441 1716 441 
Q 2309 441 2620 675 
Q 2931 909 2931 1356 
Q 2931 1769 2642 2001 
Q 2353 2234 1838 2234 
L 1294 2234 
L 1294 2753 
L 1863 2753 
Q 2328 2753 2575 2939 
Q 2822 3125 2822 3475 
Q 2822 3834 2567 4026 
Q 2313 4219 1838 4219 
Q 1578 4219 1281 4162 
Q 984 4106 628 3988 
L 628 4550 
Q 988 4650 1302 4700 
Q 1616 4750 1894 4750 
Q 2613 4750 3031 4423 
Q 3450 4097 3450 3541 
Q 3450 3153 3228 2886 
Q 3006 2619 2597 2516 
z
" transform="scale(0.015625)"/>
       </defs>
       <use xlink:href="#DejaVuSans-33"/>
       <use xlink:href="#DejaVuSans-30" x="63.623047"/>
      </g>
     </g>
    </g>
    <g id="xtick_5">
     <g id="line2d_9">
      <path d="M 313.837163 313.478125 
L 313.837163 22.318125 
" clip-path="url(#p7b11eb7cf8)" style="fill: none; stroke: #b0b0b0; stroke-width: 0.8; stroke-linecap: square"/>
     </g>
     <g id="line2d_10">
      <g>
       <use xlink:href="#ma624d414d9" x="313.837163" y="313.478125" style="stroke: #000000; stroke-width: 0.8"/>
      </g>
     </g>
     <g id="text_5">
      <!-- 40 -->
      <g transform="translate(307.474663 328.076563) scale(0.1 -0.1)">
       <defs>
        <path id="DejaVuSans-34" d="M 2419 4116 
L 825 1625 
L 2419 1625 
L 2419 4116 
z
M 2253 4666 
L 3047 4666 
L 3047 1625 
L 3713 1625 
L 3713 1100 
L 3047 1100 
L 3047 0 
L 2419 0 
L 2419 1100 
L 313 1100 
L 313 1709 
L 2253 4666 
z
" transform="scale(0.015625)"/>
       </defs>
       <use xlink:href="#DejaVuSans-34"/>
       <use xlink:href="#DejaVuSans-30" x="63.623047"/>
      </g>
     </g>
    </g>
    <g id="xtick_6">
     <g id="line2d_11">
      <path d="M 376.185864 313.478125 
L 376.185864 22.318125 
" clip-path="url(#p7b11eb7cf8)" style="fill: none; stroke: #b0b0b0; stroke-width: 0.8; stroke-linecap: square"/>
     </g>
     <g id="line2d_12">
      <g>
       <use xlink:href="#ma624d414d9" x="376.185864" y="313.478125" style="stroke: #000000; stroke-width: 0.8"/>
      </g>
     </g>
     <g id="text_6">
      <!-- 50 -->
      <g transform="translate(369.823364 328.076563) scale(0.1 -0.1)">
       <defs>
        <path id="DejaVuSans-35" d="M 691 4666 
L 3169 4666 
L 3169 4134 
L 1269 4134 
L 1269 2991 
Q 1406 3038 1543 3061 
Q 1681 3084 1819 3084 
Q 2600 3084 3056 2656 
Q 3513 2228 3513 1497 
Q 3513 744 3044 326 
Q 2575 -91 1722 -91 
Q 1428 -91 1123 -41 
Q 819 9 494 109 
L 494 744 
Q 775 591 1075 516 
Q 1375 441 1709 441 
Q 2250 441 2565 725 
Q 2881 1009 2881 1497 
Q 2881 1984 2565 2268 
Q 2250 2553 1709 2553 
Q 1456 2553 1204 2497 
Q 953 2441 691 2322 
L 691 4666 
z
" transform="scale(0.015625)"/>
       </defs>
       <use xlink:href="#DejaVuSans-35"/>
       <use xlink:href="#DejaVuSans-30" x="63.623047"/>
      </g>
     </g>
    </g>
    <g id="xtick_7">
     <g id="line2d_13">
      <path d="M 438.534566 313.478125 
L 438.534566 22.318125 
" clip-path="url(#p7b11eb7cf8)" style="fill: none; stroke: #b0b0b0; stroke-width: 0.8; stroke-linecap: square"/>
     </g>
     <g id="line2d_14">
      <g>
       <use xlink:href="#ma624d414d9" x="438.534566" y="313.478125" style="stroke: #000000; stroke-width: 0.8"/>
      </g>
     </g>
     <g id="text_7">
      <!-- 60 -->
      <g transform="translate(432.172066 328.076563) scale(0.1 -0.1)">
       <defs>
        <path id="DejaVuSans-36" d="M 2113 2584 
Q 1688 2584 1439 2293 
Q 1191 2003 1191 1497 
Q 1191 994 1439 701 
Q 1688 409 2113 409 
Q 2538 409 2786 701 
Q 3034 994 3034 1497 
Q 3034 2003 2786 2293 
Q 2538 2584 2113 2584 
z
M 3366 4563 
L 3366 3988 
Q 3128 4100 2886 4159 
Q 2644 4219 2406 4219 
Q 1781 4219 1451 3797 
Q 1122 3375 1075 2522 
Q 1259 2794 1537 2939 
Q 1816 3084 2150 3084 
Q 2853 3084 3261 2657 
Q 3669 2231 3669 1497 
Q 3669 778 3244 343 
Q 2819 -91 2113 -91 
Q 1303 -91 875 529 
Q 447 1150 447 2328 
Q 447 3434 972 4092 
Q 1497 4750 2381 4750 
Q 2619 4750 2861 4703 
Q 3103 4656 3366 4563 
z
" transform="scale(0.015625)"/>
       </defs>
       <use xlink:href="#DejaVuSans-36"/>
       <use xlink:href="#DejaVuSans-30" x="63.623047"/>
      </g>
     </g>
    </g>
    <g id="xtick_8">
     <g id="line2d_15">
      <path d="M 500.883267 313.478125 
L 500.883267 22.318125 
" clip-path="url(#p7b11eb7cf8)" style="fill: none; stroke: #b0b0b0; stroke-width: 0.8; stroke-linecap: square"/>
     </g>
     <g id="line2d_16">
      <g>
       <use xlink:href="#ma624d414d9" x="500.883267" y="313.478125" style="stroke: #000000; stroke-width: 0.8"/>
      </g>
     </g>
     <g id="text_8">
      <!-- 70 -->
      <g transform="translate(494.520767 328.076563) scale(0.1 -0.1)">
       <defs>
        <path id="DejaVuSans-37" d="M 525 4666 
L 3525 4666 
L 3525 4397 
L 1831 0 
L 1172 0 
L 2766 4134 
L 525 4134 
L 525 4666 
z
" transform="scale(0.015625)"/>
       </defs>
       <use xlink:href="#DejaVuSans-37"/>
       <use xlink:href="#DejaVuSans-30" x="63.623047"/>
      </g>
     </g>
    </g>
    <g id="text_9">
     <!-- Time -->
     <g transform="translate(270.429219 341.754687) scale(0.1 -0.1)">
      <defs>
       <path id="DejaVuSans-54" d="M -19 4666 
L 3928 4666 
L 3928 4134 
L 2272 4134 
L 2272 0 
L 1638 0 
L 1638 4134 
L -19 4134 
L -19 4666 
z
" transform="scale(0.015625)"/>
       <path id="DejaVuSans-69" d="M 603 3500 
L 1178 3500 
L 1178 0 
L 603 0 
L 603 3500 
z
M 603 4863 
L 1178 4863 
L 1178 4134 
L 603 4134 
L 603 4863 
z
" transform="scale(0.015625)"/>
       <path id="DejaVuSans-6d" d="M 3328 2828 
Q 3544 3216 3844 3400 
Q 4144 3584 4550 3584 
Q 5097 3584 5394 3201 
Q 5691 2819 5691 2113 
L 5691 0 
L 5113 0 
L 5113 2094 
Q 5113 2597 4934 2840 
Q 4756 3084 4391 3084 
Q 3944 3084 3684 2787 
Q 3425 2491 3425 1978 
L 3425 0 
L 2847 0 
L 2847 2094 
Q 2847 2600 2669 2842 
Q 2491 3084 2119 3084 
Q 1678 3084 1418 2786 
Q 1159 2488 1159 1978 
L 1159 0 
L 581 0 
L 581 3500 
L 1159 3500 
L 1159 2956 
Q 1356 3278 1631 3431 
Q 1906 3584 2284 3584 
Q 2666 3584 2933 3390 
Q 3200 3197 3328 2828 
z
" transform="scale(0.015625)"/>
       <path id="DejaVuSans-65" d="M 3597 1894 
L 3597 1613 
L 953 1613 
Q 991 1019 1311 708 
Q 1631 397 2203 397 
Q 2534 397 2845 478 
Q 3156 559 3463 722 
L 3463 178 
Q 3153 47 2828 -22 
Q 2503 -91 2169 -91 
Q 1331 -91 842 396 
Q 353 884 353 1716 
Q 353 2575 817 3079 
Q 1281 3584 2069 3584 
Q 2775 3584 3186 3129 
Q 3597 2675 3597 1894 
z
M 3022 2063 
Q 3016 2534 2758 2815 
Q 2500 3097 2075 3097 
Q 1594 3097 1305 2825 
Q 1016 2553 972 2059 
L 3022 2063 
z
" transform="scale(0.015625)"/>
      </defs>
      <use xlink:href="#DejaVuSans-54"/>
      <use xlink:href="#DejaVuSans-69" x="57.958984"/>
      <use xlink:href="#DejaVuSans-6d" x="85.742188"/>
      <use xlink:href="#DejaVuSans-65" x="183.154297"/>
     </g>
    </g>
   </g>
   <g id="matplotlib.axis_2">
    <g id="ytick_1">
     <g id="line2d_17">
      <path d="M 42.620313 277.148793 
L 522.705312 277.148793 
" clip-path="url(#p7b11eb7cf8)" style="fill: none; stroke: #b0b0b0; stroke-width: 0.8; stroke-linecap: square"/>
     </g>
     <g id="line2d_18">
      <defs>
       <path id="m12cbbb06ca" d="M 0 0 
L -3.5 0 
" style="stroke: #000000; stroke-width: 0.8"/>
      </defs>
      <g>
       <use xlink:href="#m12cbbb06ca" x="42.620313" y="277.148793" style="stroke: #000000; stroke-width: 0.8"/>
      </g>
     </g>
     <g id="text_10">
      <!-- −2 -->
      <g transform="translate(20.878125 280.948012) scale(0.1 -0.1)">
       <defs>
        <path id="DejaVuSans-2212" d="M 678 2272 
L 4684 2272 
L 4684 1741 
L 678 1741 
L 678 2272 
z
" transform="scale(0.015625)"/>
       </defs>
       <use xlink:href="#DejaVuSans-2212"/>
       <use xlink:href="#DejaVuSans-32" x="83.789062"/>
      </g>
     </g>
    </g>
    <g id="ytick_2">
     <g id="line2d_19">
      <path d="M 42.620313 222.704409 
L 522.705312 222.704409 
" clip-path="url(#p7b11eb7cf8)" style="fill: none; stroke: #b0b0b0; stroke-width: 0.8; stroke-linecap: square"/>
     </g>
     <g id="line2d_20">
      <g>
       <use xlink:href="#m12cbbb06ca" x="42.620313" y="222.704409" style="stroke: #000000; stroke-width: 0.8"/>
      </g>
     </g>
     <g id="text_11">
      <!-- −1 -->
      <g transform="translate(20.878125 226.503628) scale(0.1 -0.1)">
       <use xlink:href="#DejaVuSans-2212"/>
       <use xlink:href="#DejaVuSans-31" x="83.789062"/>
      </g>
     </g>
    </g>
    <g id="ytick_3">
     <g id="line2d_21">
      <path d="M 42.620313 168.260025 
L 522.705312 168.260025 
" clip-path="url(#p7b11eb7cf8)" style="fill: none; stroke: #b0b0b0; stroke-width: 0.8; stroke-linecap: square"/>
     </g>
     <g id="line2d_22">
      <g>
       <use xlink:href="#m12cbbb06ca" x="42.620313" y="168.260025" style="stroke: #000000; stroke-width: 0.8"/>
      </g>
     </g>
     <g id="text_12">
      <!-- 0 -->
      <g transform="translate(29.257813 172.059244) scale(0.1 -0.1)">
       <use xlink:href="#DejaVuSans-30"/>
      </g>
     </g>
    </g>
    <g id="ytick_4">
     <g id="line2d_23">
      <path d="M 42.620313 113.815641 
L 522.705312 113.815641 
" clip-path="url(#p7b11eb7cf8)" style="fill: none; stroke: #b0b0b0; stroke-width: 0.8; stroke-linecap: square"/>
     </g>
     <g id="line2d_24">
      <g>
       <use xlink:href="#m12cbbb06ca" x="42.620313" y="113.815641" style="stroke: #000000; stroke-width: 0.8"/>
      </g>
     </g>
     <g id="text_13">
      <!-- 1 -->
      <g transform="translate(29.257813 117.61486) scale(0.1 -0.1)">
       <use xlink:href="#DejaVuSans-31"/>
      </g>
     </g>
    </g>
    <g id="ytick_5">
     <g id="line2d_25">
      <path d="M 42.620313 59.371258 
L 522.705312 59.371258 
" clip-path="url(#p7b11eb7cf8)" style="fill: none; stroke: #b0b0b0; stroke-width: 0.8; stroke-linecap: square"/>
     </g>
     <g id="line2d_26">
      <g>
       <use xlink:href="#m12cbbb06ca" x="42.620313" y="59.371258" style="stroke: #000000; stroke-width: 0.8"/>
      </g>
     </g>
     <g id="text_14">
      <!-- 2 -->
      <g transform="translate(29.257813 63.170476) scale(0.1 -0.1)">
       <use xlink:href="#DejaVuSans-32"/>
      </g>
     </g>
    </g>
    <g id="text_15">
     <!-- Amplitude -->
     <g transform="translate(14.798438 193.520781) rotate(-90) scale(0.1 -0.1)">
      <defs>
       <path id="DejaVuSans-41" d="M 2188 4044 
L 1331 1722 
L 3047 1722 
L 2188 4044 
z
M 1831 4666 
L 2547 4666 
L 4325 0 
L 3669 0 
L 3244 1197 
L 1141 1197 
L 716 0 
L 50 0 
L 1831 4666 
z
" transform="scale(0.015625)"/>
       <path id="DejaVuSans-70" d="M 1159 525 
L 1159 -1331 
L 581 -1331 
L 581 3500 
L 1159 3500 
L 1159 2969 
Q 1341 3281 1617 3432 
Q 1894 3584 2278 3584 
Q 2916 3584 3314 3078 
Q 3713 2572 3713 1747 
Q 3713 922 3314 415 
Q 2916 -91 2278 -91 
Q 1894 -91 1617 61 
Q 1341 213 1159 525 
z
M 3116 1747 
Q 3116 2381 2855 2742 
Q 2594 3103 2138 3103 
Q 1681 3103 1420 2742 
Q 1159 2381 1159 1747 
Q 1159 1113 1420 752 
Q 1681 391 2138 391 
Q 2594 391 2855 752 
Q 3116 1113 3116 1747 
z
" transform="scale(0.015625)"/>
       <path id="DejaVuSans-6c" d="M 603 4863 
L 1178 4863 
L 1178 0 
L 603 0 
L 603 4863 
z
" transform="scale(0.015625)"/>
       <path id="DejaVuSans-74" d="M 1172 4494 
L 1172 3500 
L 2356 3500 
L 2356 3053 
L 1172 3053 
L 1172 1153 
Q 1172 725 1289 603 
Q 1406 481 1766 481 
L 2356 481 
L 2356 0 
L 1766 0 
Q 1100 0 847 248 
Q 594 497 594 1153 
L 594 3053 
L 172 3053 
L 172 3500 
L 594 3500 
L 594 4494 
L 1172 4494 
z
" transform="scale(0.015625)"/>
       <path id="DejaVuSans-75" d="M 544 1381 
L 544 3500 
L 1119 3500 
L 1119 1403 
Q 1119 906 1312 657 
Q 1506 409 1894 409 
Q 2359 409 2629 706 
Q 2900 1003 2900 1516 
L 2900 3500 
L 3475 3500 
L 3475 0 
L 2900 0 
L 2900 538 
Q 2691 219 2414 64 
Q 2138 -91 1772 -91 
Q 1169 -91 856 284 
Q 544 659 544 1381 
z
M 1991 3584 
L 1991 3584 
z
" transform="scale(0.015625)"/>
       <path id="DejaVuSans-64" d="M 2906 2969 
L 2906 4863 
L 3481 4863 
L 3481 0 
L 2906 0 
L 2906 525 
Q 2725 213 2448 61 
Q 2172 -91 1784 -91 
Q 1150 -91 751 415 
Q 353 922 353 1747 
Q 353 2572 751 3078 
Q 1150 3584 1784 3584 
Q 2172 3584 2448 3432 
Q 2725 3281 2906 2969 
z
M 947 1747 
Q 947 1113 1208 752 
Q 1469 391 1925 391 
Q 2381 391 2643 752 
Q 2906 1113 2906 1747 
Q 2906 2381 2643 2742 
Q 2381 3103 1925 3103 
Q 1469 3103 1208 2742 
Q 947 2381 947 1747 
z
" transform="scale(0.015625)"/>
      </defs>
      <use xlink:href="#DejaVuSans-41"/>
      <use xlink:href="#DejaVuSans-6d" x="68.408203"/>
      <use xlink:href="#DejaVuSans-70" x="165.820312"/>
      <use xlink:href="#DejaVuSans-6c" x="229.296875"/>
      <use xlink:href="#DejaVuSans-69" x="257.080078"/>
      <use xlink:href="#DejaVuSans-74" x="284.863281"/>
      <use xlink:href="#DejaVuSans-75" x="324.072266"/>
      <use xlink:href="#DejaVuSans-64" x="387.451172"/>
      <use xlink:href="#DejaVuSans-65" x="450.927734"/>
     </g>
    </g>
   </g>
   <g id="line2d_27">
    <path d="M 64.442358 168.260025 
L 69.248014 168.171531 
L 71.432403 167.893711 
L 73.179914 167.436289 
L 74.927425 166.715841 
L 76.674936 165.725548 
L 78.859325 164.188628 
L 82.354347 161.649658 
L 83.664981 160.944609 
L 84.975614 160.529449 
L 85.84937 160.464089 
L 86.723125 160.600989 
L 87.596881 160.965133 
L 88.470636 161.576984 
L 89.344392 162.451381 
L 90.218147 163.59653 
L 91.528781 165.821264 
L 92.839414 168.622293 
L 94.150047 171.923521 
L 96.334436 178.209414 
L 99.829459 188.590932 
L 101.140092 191.940639 
L 102.450725 194.661951 
L 103.324481 196.022311 
L 104.198237 196.949456 
L 105.071992 197.38739 
L 105.50887 197.406772 
L 105.945748 197.285302 
L 106.382625 197.017919 
L 107.256381 196.029223 
L 108.130137 194.417124 
L 109.003892 192.173116 
L 109.877648 189.304842 
L 111.188281 183.89023 
L 112.498915 177.285174 
L 114.246426 167.05054 
L 120.799592 126.656445 
L 122.110226 120.63335 
L 122.983981 117.391619 
L 123.857737 114.869413 
L 124.731493 113.147413 
L 125.16837 112.610034 
L 125.605248 112.300061 
L 126.042126 112.225594 
L 126.479004 112.394087 
L 126.915881 112.811863 
L 127.352759 113.483754 
L 128.226515 115.601358 
L 129.10027 118.753477 
L 129.974026 122.919791 
L 130.847782 128.052558 
L 132.158415 137.392478 
L 133.469048 148.369026 
L 135.653437 168.971463 
L 139.585337 206.575766 
L 141.332848 220.845727 
L 142.643482 229.706501 
L 143.517237 234.528264 
L 144.390993 238.360982 
L 145.264749 241.10883 
L 145.701626 242.048175 
L 146.138504 242.684145 
L 146.575382 243.007297 
L 147.01226 243.008896 
L 147.449137 242.68122 
L 147.886015 242.018408 
L 148.322893 241.016784 
L 149.196649 237.99364 
L 150.070404 233.627833 
L 150.94416 227.972389 
L 152.254793 217.277017 
L 153.565426 204.339466 
L 155.312938 184.669123 
L 160.118593 128.52773 
L 161.866104 111.402357 
L 163.176738 100.853834 
L 164.050493 95.152715 
L 164.924249 90.652023 
L 165.798005 87.457324 
L 166.234882 86.37977 
L 166.67176 85.663269 
L 167.108638 85.31768 
L 167.545516 85.351969 
L 167.982393 85.77375 
L 168.419271 86.588261 
L 168.856149 87.79804 
L 169.729905 91.399795 
L 170.60366 96.544036 
L 171.477416 103.151541 
L 172.788049 115.52755 
L 174.098682 130.329292 
L 176.283071 158.302305 
L 179.778094 203.771559 
L 181.525605 223.559436 
L 182.836238 236.028174 
L 183.709994 242.937358 
L 184.583749 248.568665 
L 185.457505 252.801212 
L 186.33126 255.526558 
L 186.768138 256.293958 
L 187.205016 256.650391 
L 187.641894 256.58658 
L 188.078772 256.094872 
L 188.515649 255.170383 
L 188.952527 253.811304 
L 189.826283 249.797739 
L 190.700038 244.102201 
L 191.573794 236.822304 
L 192.884427 223.262503 
L 194.195061 207.152234 
L 196.37945 176.983356 
L 199.874472 128.568216 
L 201.621983 107.800274 
L 202.932616 94.891369 
L 203.806372 87.848138 
L 204.680128 82.219696 
L 205.553883 78.13284 
L 205.990761 76.703183 
L 206.427639 75.699745 
L 206.864516 75.133955 
L 207.301394 75.016093 
L 207.738272 75.355031 
L 208.17515 76.157045 
L 208.612028 77.425082 
L 209.048905 79.158687 
L 209.922661 84.003658 
L 210.796417 90.619971 
L 211.670172 98.882063 
L 212.980805 113.961525 
L 214.728317 137.799617 
L 220.844606 225.678357 
L 222.155239 240.451184 
L 223.465872 252.402398 
L 224.339628 258.54367 
L 225.213384 263.062364 
L 225.650261 264.674762 
L 226.087139 265.837484 
L 226.524017 266.538203 
L 226.960895 266.765833 
L 227.397772 266.510687 
L 227.83465 265.765573 
L 228.271528 264.52682 
L 228.708406 262.794416 
L 229.582161 257.867022 
L 230.455917 251.056802 
L 231.329673 242.494796 
L 232.640306 226.78816 
L 234.387817 201.858128 
L 240.504106 109.378286 
L 241.814739 93.719618 
L 243.125373 80.998901 
L 243.999128 74.42553 
L 244.872884 69.549662 
L 245.309762 67.789189 
L 245.74664 66.499872 
L 246.183517 65.694796 
L 246.620395 65.385719 
L 247.057273 65.582956 
L 247.494151 66.294381 
L 247.931028 67.524183 
L 248.367906 69.272664 
L 249.241662 74.307287 
L 250.115417 81.322516 
L 250.989173 90.18137 
L 252.299806 106.48413 
L 254.047317 132.419185 
L 260.163606 228.990234 
L 261.47424 245.418954 
L 262.784873 258.800347 
L 263.658629 265.738983 
L 264.532384 270.911 
L 265.40614 274.181257 
L 265.843018 275.066447 
L 266.279895 275.434783 
L 266.716773 275.275456 
L 267.153651 274.580091 
L 267.590529 273.344147 
L 268.027407 271.56718 
L 268.901162 266.409017 
L 269.774918 259.184356 
L 270.648673 250.036422 
L 271.959307 233.171736 
L 273.706818 206.315326 
L 279.823107 106.111185 
L 281.13374 89.015166 
L 282.444374 75.069614 
L 283.318129 67.82497 
L 284.191885 62.410891 
L 285.06564 58.968189 
L 285.502518 58.024359 
L 285.939396 57.616409 
L 286.376274 57.755542 
L 286.813151 58.45048 
L 287.250029 59.705968 
L 287.686907 61.522465 
L 288.560663 66.818752 
L 289.434418 74.256951 
L 290.308174 83.68732 
L 291.618807 101.084084 
L 293.366318 128.788668 
L 299.482607 232.222558 
L 300.793241 249.893971 
L 302.103874 264.316734 
L 302.97763 271.813638 
L 303.851385 277.420398 
L 304.725141 280.991337 
L 305.162019 281.973882 
L 305.598896 282.40309 
L 306.035774 282.267459 
L 306.472652 281.55805 
L 306.90953 280.270051 
L 307.346407 278.403111 
L 308.220163 272.953426 
L 309.093919 265.295627 
L 309.967674 255.586255 
L 311.278308 237.68021 
L 313.025819 209.187475 
L 319.142108 102.864681 
L 320.452741 84.696078 
L 321.763374 69.869939 
L 322.63713 62.166237 
L 323.510886 56.408346 
L 324.384641 52.746079 
L 324.821519 51.741318 
L 325.258397 51.305941 
L 325.695275 51.451672 
L 326.132152 52.187554 
L 326.56903 53.518348 
L 327.005908 55.444194 
L 327.879663 61.058414 
L 328.753419 68.938857 
L 329.627175 78.92197 
L 330.937808 97.314078 
L 332.685319 126.538713 
L 338.801608 235.441092 
L 340.112241 254.035506 
L 341.422875 269.197278 
L 342.29663 277.065844 
L 343.170386 282.93633 
L 343.607264 285.073474 
L 344.044142 286.655448 
L 344.481019 287.666902 
L 344.917897 288.094167 
L 345.354775 287.925368 
L 345.791653 287.151458 
L 346.22853 285.767842 
L 346.665408 283.774682 
L 347.539164 277.984289 
L 348.412919 269.876831 
L 349.286675 259.62308 
L 350.597308 240.763418 
L 352.34482 210.854327 
L 358.461109 99.638904 
L 359.771742 80.680286 
L 361.082375 65.241111 
L 361.956131 57.24352 
L 362.829886 51.293145 
L 363.266764 49.135415 
L 363.703642 47.546149 
L 364.14052 46.540915 
L 364.577398 46.13354 
L 365.014275 46.335983 
L 365.451153 47.157202 
L 365.888031 48.601535 
L 366.324909 50.668434 
L 367.198664 56.643191 
L 368.07242 64.979357 
L 368.946175 75.498792 
L 370.256809 94.806378 
L 372.00432 125.354136 
L 378.120609 238.634872 
L 379.431242 257.900251 
L 380.741876 273.562258 
L 381.615631 281.655097 
L 382.489387 287.65434 
L 382.926265 289.818352 
L 383.363142 291.401499 
L 383.80002 292.388055 
L 384.236898 292.764092 
L 384.673776 292.517628 
L 385.110654 291.639889 
L 385.547531 290.126878 
L 385.984409 287.979608 
L 386.858165 281.811456 
L 387.73192 273.243474 
L 388.605676 262.461322 
L 389.916309 242.72147 
L 391.66382 211.573831 
L 397.780109 96.442452 
L 399.090743 76.920041 
L 400.401376 61.082172 
L 401.275132 52.922946 
L 402.148887 46.901108 
L 402.585765 44.742824 
L 403.022643 43.176979 
L 403.459521 42.219399 
L 403.896398 41.884061 
L 404.333276 42.182912 
L 404.770154 43.12446 
L 405.207032 44.712283 
L 405.64391 46.944841 
L 406.517665 53.312377 
L 407.391421 62.112816 
L 408.265176 73.15289 
L 409.57581 93.307892 
L 411.323321 125.017167 
L 417.43961 241.796396 
L 418.750243 261.528818 
L 420.060876 277.497911 
L 420.934632 285.695932 
L 421.808388 291.715068 
L 422.245265 293.85598 
L 422.682143 295.393621 
L 423.119021 296.312114 
L 423.555899 296.597479 
L 423.992777 296.237866 
L 424.429654 295.225114 
L 424.866532 293.556135 
L 425.30341 291.233057 
L 426.177165 284.659203 
L 427.050921 275.624292 
L 427.924677 264.329306 
L 429.23531 243.772885 
L 430.982821 211.534461 
L 436.662232 100.632823 
L 437.972866 79.627438 
L 439.283499 62.200432 
L 440.157255 52.947023 
L 441.03101 45.820816 
L 441.904766 40.997501 
L 442.341644 39.497081 
L 442.778521 38.625952 
L 443.215399 38.398054 
L 443.652277 38.825079 
L 444.089155 39.914769 
L 444.526033 41.669662 
L 444.96291 44.086994 
L 445.836666 50.871403 
L 446.710421 60.14056 
L 447.584177 71.685719 
L 448.89481 92.628277 
L 450.642322 125.363316 
L 456.321733 237.509794 
L 457.632366 258.668478 
L 458.943 276.177195 
L 459.816755 285.441439 
L 460.690511 292.541656 
L 461.564266 297.301224 
L 462.001144 298.755507 
L 462.438022 299.571022 
L 462.8749 299.733908 
L 463.311777 299.232691 
L 463.748655 298.060125 
L 464.185533 296.214274 
L 464.622411 293.69859 
L 465.496166 286.698417 
L 466.369922 277.193943 
L 467.243677 265.401742 
L 468.554311 244.085401 
L 470.301822 210.881437 
L 475.981233 97.625019 
L 477.291867 76.34701 
L 478.6025 58.788962 
L 479.476255 49.533928 
L 480.350011 42.478072 
L 481.223767 37.798591 
L 481.660644 36.39775 
L 482.097522 35.644528 
L 482.5344 35.55267 
L 482.971278 36.133368 
L 483.408156 37.393311 
L 483.845033 39.333783 
L 484.718789 45.23415 
L 485.592545 53.735932 
L 486.4663 64.655679 
L 487.776933 84.971002 
L 489.524445 117.492425 
L 492.582589 180.852067 
L 494.766978 224.573174 
L 496.514489 255.123068 
L 497.825123 274.052631 
L 498.698878 284.320715 
L 499.572634 292.454462 
L 500.446389 298.263263 
L 500.883267 300.24358 
L 500.883267 300.24358 
" clip-path="url(#p7b11eb7cf8)" style="fill: none; stroke: #0000ff; stroke-width: 1.5; stroke-linecap: square"/>
   </g>
   <g id="line2d_28">
    <path d="M 64.442358 168.260025 
L 69.248014 168.171603 
L 71.432403 167.89494 
L 73.179914 167.442489 
L 74.927425 166.737534 
L 76.674936 165.783636 
L 79.296203 164.031354 
L 81.917469 162.285257 
L 83.228103 161.596908 
L 84.538736 161.139882 
L 85.412492 161.004417 
L 86.286247 161.038367 
L 87.160003 161.286021 
L 88.033758 161.771787 
L 88.907514 162.513449 
L 89.78127 163.522646 
L 90.655025 164.803938 
L 91.965659 167.226542 
L 93.71317 171.223002 
L 98.955703 183.86471 
L 100.266336 186.382452 
L 101.57697 188.433204 
L 102.450725 189.507381 
L 103.324481 190.326573 
L 104.198237 190.873274 
L 105.071992 191.128287 
L 105.50887 191.135759 
L 105.945748 191.014289 
L 106.382625 190.746906 
L 107.256381 189.75821 
L 108.130137 188.146111 
L 109.003892 185.902103 
L 109.877648 183.033829 
L 111.188281 177.619217 
L 112.498915 171.014161 
L 115.557059 154.526847 
L 116.867692 148.611067 
L 118.178326 143.628617 
L 119.488959 139.58142 
L 120.799592 136.413371 
L 121.673348 134.75141 
L 122.547104 133.422796 
L 123.420859 132.408338 
L 124.294615 131.69439 
L 125.16837 131.274617 
L 126.042126 131.154723 
L 126.479004 131.323216 
L 126.915881 131.740992 
L 127.352759 132.412883 
L 128.226515 134.530487 
L 129.10027 137.682606 
L 129.974026 141.84892 
L 130.847782 146.981687 
L 132.158415 156.321608 
L 133.905926 171.160242 
L 135.216559 181.659381 
L 136.527193 190.290506 
L 137.837826 197.084926 
L 138.711582 200.699817 
L 139.585337 203.679633 
L 140.459093 206.108897 
L 141.332848 208.066122 
L 142.206604 209.620278 
L 143.08036 210.829184 
L 143.954115 211.738998 
L 144.827871 212.384233 
L 145.701626 212.787836 
L 146.575382 212.961002 
L 147.01226 212.928512 
L 147.449137 212.600837 
L 147.886015 211.938025 
L 148.322893 210.936401 
L 149.196649 207.913257 
L 150.070404 203.54745 
L 150.94416 197.892005 
L 152.254793 187.196634 
L 153.565426 174.259083 
L 155.312938 156.170121 
L 156.623571 145.580669 
L 157.497327 140.003677 
L 158.371082 135.466414 
L 159.244838 131.820094 
L 160.118593 128.918811 
L 160.992349 126.630689 
L 161.866104 124.842749 
L 162.73986 123.461989 
L 163.613616 122.414444 
L 164.487371 121.643421 
L 165.361127 121.10763 
L 166.234882 120.779666 
L 167.108638 120.64513 
L 167.545516 120.707723 
L 167.982393 121.129505 
L 168.419271 121.944016 
L 168.856149 123.153795 
L 169.729905 126.75555 
L 170.60366 131.89979 
L 171.477416 138.507296 
L 172.788049 150.883305 
L 174.098682 165.685047 
L 175.409316 180.524692 
L 176.283071 188.55707 
L 177.156827 195.135622 
L 178.030583 200.421918 
L 178.904338 204.609518 
L 179.778094 207.890979 
L 180.651849 210.440199 
L 181.525605 212.405037 
L 182.39936 213.906016 
L 183.273116 215.038169 
L 184.146872 215.874115 
L 185.020627 216.467297 
L 185.894383 216.854743 
L 186.768138 217.059038 
L 187.205016 217.095876 
L 187.641894 217.008825 
L 188.078772 216.517117 
L 188.515649 215.592628 
L 188.952527 214.23355 
L 189.826283 210.219985 
L 190.700038 204.524447 
L 191.573794 197.24455 
L 192.884427 183.684749 
L 195.942572 148.440051 
L 196.816327 141.361743 
L 197.690083 135.731317 
L 198.563839 131.321942 
L 199.437594 127.908329 
L 200.31135 125.288552 
L 201.185105 123.292666 
L 202.058861 121.783674 
L 202.932616 120.65471 
L 203.806372 119.824807 
L 204.680128 119.234614 
L 205.553883 118.842732 
L 206.427639 118.62302 
L 207.301394 118.574962 
L 207.738272 118.913901 
L 208.17515 119.715915 
L 208.612028 120.983952 
L 209.048905 122.717556 
L 209.922661 127.562527 
L 210.796417 134.17884 
L 211.670172 142.440932 
L 212.980805 157.520395 
L 215.165194 184.642431 
L 216.03895 192.757292 
L 216.912706 199.20745 
L 217.786461 204.238435 
L 218.660217 208.108934 
L 219.533972 211.057147 
L 220.407728 213.286106 
L 221.281483 214.96037 
L 222.155239 216.208605 
L 223.028995 217.128559 
L 223.90275 217.792465 
L 224.776506 218.251866 
L 226.087139 218.629384 
L 226.960895 218.698134 
L 227.397772 218.442989 
L 227.83465 217.697874 
L 228.271528 216.459121 
L 228.708406 214.726718 
L 229.582161 209.799324 
L 230.455917 202.989103 
L 231.329673 194.427098 
L 232.640306 178.720461 
L 234.824695 150.723399 
L 235.69845 142.516467 
L 236.572206 136.062079 
L 237.445962 131.082762 
L 238.319717 127.294218 
L 239.193473 124.439824 
L 240.067228 122.30444 
L 240.940984 120.716237 
L 241.814739 119.54264 
L 242.688495 118.684121 
L 243.562251 118.067859 
L 244.872884 117.489539 
L 246.183517 117.238409 
L 246.620395 117.219033 
L 247.057273 117.419328 
L 247.494151 118.130753 
L 247.931028 119.360555 
L 248.367906 121.109036 
L 249.241662 126.143659 
L 250.115417 133.158889 
L 250.989173 142.017743 
L 252.299806 158.320503 
L 254.047317 182.120004 
L 254.921073 191.359768 
L 255.794829 198.643953 
L 256.668584 204.256729 
L 257.54234 208.510917 
L 258.416095 211.698196 
L 259.289851 214.067051 
L 260.163606 215.817462 
L 261.037362 217.104208 
L 261.911118 218.043655 
L 262.784873 218.721173 
L 264.095507 219.374541 
L 265.40614 219.701481 
L 266.279895 219.769831 
L 266.716773 219.600415 
L 267.153651 218.905051 
L 267.590529 217.669107 
L 268.027407 215.892139 
L 268.901162 210.733977 
L 269.774918 203.509316 
L 270.648673 194.361381 
L 271.959307 177.496695 
L 273.706818 153.207197 
L 274.580573 143.95703 
L 275.454329 136.730353 
L 276.328085 131.213104 
L 277.20184 127.069955 
L 278.075596 123.994233 
L 278.949351 121.728607 
L 279.823107 120.068665 
L 280.696862 118.858046 
L 281.570618 117.980445 
L 282.444374 117.351348 
L 283.755007 116.747844 
L 285.06564 116.446138 
L 285.939396 116.38163 
L 286.376274 116.536872 
L 286.813151 117.231809 
L 287.250029 118.487297 
L 287.686907 120.303794 
L 288.560663 125.600082 
L 289.434418 133.03828 
L 290.308174 142.468649 
L 291.618807 159.865413 
L 293.366318 184.516981 
L 294.240074 193.729928 
L 295.113829 200.867135 
L 295.987585 206.26991 
L 296.861341 210.292814 
L 297.735096 213.254431 
L 298.608852 215.418403 
L 299.482607 216.991673 
L 300.356363 218.130848 
L 301.230118 218.951281 
L 302.103874 219.536054 
L 303.414507 220.093999 
L 304.725141 220.371901 
L 305.598896 220.431606 
L 306.035774 220.277292 
L 306.472652 219.567883 
L 306.90953 218.279884 
L 307.346407 216.412944 
L 308.220163 210.963259 
L 309.093919 203.30546 
L 309.967674 193.596088 
L 311.278308 175.690043 
L 312.588941 156.245228 
L 313.462696 145.940229 
L 314.336452 137.903146 
L 315.210208 131.802564 
L 316.083963 127.261586 
L 316.957719 123.927283 
L 317.831474 121.501117 
L 318.70523 119.745917 
L 319.578985 118.481059 
L 320.452741 117.573066 
L 321.326497 116.925578 
L 322.63713 116.299765 
L 323.947763 115.965845 
L 325.258397 115.850538 
L 325.695275 116.014041 
L 326.132152 116.749923 
L 326.56903 118.080717 
L 327.005908 120.006564 
L 327.879663 125.620784 
L 328.753419 133.501226 
L 329.627175 143.48434 
L 330.937808 161.876448 
L 332.248441 181.49591 
L 333.122197 191.721006 
L 333.995952 199.63688 
L 334.869708 205.601475 
L 335.743464 210.009201 
L 336.617219 213.222826 
L 337.490975 215.545208 
L 338.36473 217.214347 
L 339.238486 218.409782 
L 340.112241 219.263041 
L 340.985997 219.868329 
L 342.29663 220.450057 
L 343.607264 220.758395 
L 344.917897 220.863423 
L 345.354775 220.680729 
L 345.791653 219.906819 
L 346.22853 218.523203 
L 346.665408 216.530043 
L 347.539164 210.73965 
L 348.412919 202.632192 
L 349.286675 192.378442 
L 350.597308 173.518779 
L 351.907942 153.805274 
L 352.781697 143.689637 
L 353.655453 135.913229 
L 354.529208 130.09383 
L 355.402964 125.822147 
L 356.27672 122.727928 
L 357.150475 120.505815 
L 358.024231 118.91825 
L 358.897986 117.787607 
L 359.771742 116.984792 
L 360.645497 116.418017 
L 361.956131 115.87623 
L 363.266764 115.591115 
L 364.577398 115.495871 
L 365.014275 115.706945 
L 365.451153 116.528163 
L 365.888031 117.972497 
L 366.324909 120.039396 
L 367.198664 126.014152 
L 368.07242 134.350318 
L 368.946175 144.869753 
L 370.256809 164.17734 
L 371.567442 183.910846 
L 372.441198 193.895527 
L 373.314953 201.520688 
L 374.188709 207.190475 
L 375.062464 211.326613 
L 375.93622 214.304795 
L 376.809976 216.431372 
L 377.683731 217.942459 
L 378.557487 219.013169 
L 379.431242 219.769834 
L 380.304998 220.301673 
L 381.615631 220.807456 
L 382.926265 221.071585 
L 384.236898 221.157582 
L 384.673776 220.90766 
L 385.110654 220.029921 
L 385.547531 218.51691 
L 385.984409 216.36964 
L 386.858165 210.201488 
L 387.73192 201.633506 
L 388.605676 190.851354 
L 389.916309 171.111502 
L 390.790065 157.338016 
L 391.66382 146.192816 
L 392.537576 137.592231 
L 393.411331 131.157693 
L 394.285087 126.450413 
L 395.158843 123.060216 
L 396.032598 120.643588 
L 396.906354 118.931552 
L 397.780109 117.722733 
L 398.653865 116.871041 
L 399.52762 116.272927 
L 400.838254 115.700176 
L 402.148887 115.388429 
L 403.896398 115.249974 
L 404.333276 115.549135 
L 404.770154 116.490682 
L 405.207032 118.078505 
L 405.64391 120.311063 
L 406.517665 126.678599 
L 407.391421 135.479039 
L 408.265176 146.519113 
L 409.57581 166.674115 
L 410.449565 180.401691 
L 411.323321 191.39581 
L 412.197076 199.828275 
L 413.070832 206.100804 
L 413.944587 210.66453 
L 414.818343 213.934296 
L 415.692099 216.253626 
L 416.565854 217.889128 
L 417.43961 219.038905 
L 418.313365 219.845727 
L 419.187121 220.410177 
L 420.497754 220.948238 
L 421.808388 221.239064 
L 423.555899 221.363806 
L 423.992777 221.004193 
L 424.429654 219.991441 
L 424.866532 218.322462 
L 425.30341 215.999384 
L 426.177165 209.42553 
L 427.050921 200.390619 
L 427.924677 189.095633 
L 429.23531 168.539212 
L 430.109066 154.912833 
L 430.982821 144.086111 
L 431.856577 135.83024 
L 432.730332 129.722386 
L 433.604088 125.301145 
L 434.477843 122.14869 
L 435.351599 119.922674 
L 436.225355 118.359612 
L 437.09911 117.265087 
L 437.972866 116.499855 
L 438.846621 115.966362 
L 440.157255 115.459981 
L 441.467888 115.188209 
L 443.215399 115.081527 
L 443.652277 115.508552 
L 444.089155 116.598242 
L 444.526033 118.353135 
L 444.96291 120.770467 
L 445.836666 127.554876 
L 446.710421 136.824033 
L 447.584177 148.369192 
L 448.89481 169.301657 
L 449.768566 182.785219 
L 450.642322 193.433159 
L 451.516077 201.507873 
L 452.389833 207.451206 
L 453.263588 211.7329 
L 454.137344 214.772302 
L 455.011099 216.909604 
L 455.884855 218.4046 
L 456.758611 219.44773 
L 457.632366 220.174608 
L 458.943 220.870313 
L 460.253633 221.262449 
L 462.001144 221.492923 
L 462.8749 221.493817 
L 463.311777 220.9926 
L 463.748655 219.820033 
L 464.185533 217.974182 
L 464.622411 215.458499 
L 465.496166 208.458325 
L 466.369922 198.953851 
L 467.243677 187.161651 
L 470.301822 142.118373 
L 471.175578 134.229338 
L 472.049333 128.450724 
L 472.923089 124.306237 
L 473.796844 121.376355 
L 474.6706 119.323913 
L 475.544355 117.893316 
L 476.418111 116.898352 
L 477.291867 116.207128 
L 478.6025 115.547889 
L 479.913133 115.178203 
L 481.660644 114.963792 
L 482.5344 114.989096 
L 482.971278 115.569794 
L 483.408156 116.829737 
L 483.845033 118.770209 
L 484.718789 124.670576 
L 485.592545 133.172358 
L 486.4663 144.092105 
L 487.776933 164.407427 
L 489.087567 185.071201 
L 489.961322 195.332969 
L 490.835078 203.034802 
L 491.708834 208.650605 
L 492.582589 212.661579 
L 493.456345 215.486278 
L 494.3301 217.458135 
L 495.203856 218.828176 
L 496.077611 219.778237 
L 496.951367 220.436466 
L 498.262 221.062192 
L 499.572634 221.411342 
L 500.883267 221.583712 
L 500.883267 221.583712 
" clip-path="url(#p7b11eb7cf8)" style="fill: none; stroke-dasharray: 5.55,2.4; stroke-dashoffset: 0; stroke: #ff0000; stroke-width: 1.5"/>
   </g>
   <g id="patch_3">
    <path d="M 42.620313 313.478125 
L 42.620313 22.318125 
" style="fill: none; stroke: #000000; stroke-width: 0.8; stroke-linejoin: miter; stroke-linecap: square"/>
   </g>
   <g id="patch_4">
    <path d="M 522.705312 313.478125 
L 522.705312 22.318125 
" style="fill: none; stroke: #000000; stroke-width: 0.8; stroke-linejoin: miter; stroke-linecap: square"/>
   </g>
   <g id="patch_5">
    <path d="M 42.620313 313.478125 
L 522.705312 313.478125 
" style="fill: none; stroke: #000000; stroke-width: 0.8; stroke-linejoin: miter; stroke-linecap: square"/>
   </g>
   <g id="patch_6">
    <path d="M 42.620313 22.318125 
L 522.705312 22.318125 
" style="fill: none; stroke: #000000; stroke-width: 0.8; stroke-linejoin: miter; stroke-linecap: square"/>
   </g>
   <g id="text_16">
    <!-- Time Response -->
    <g transform="translate(237.25875 16.318125) scale(0.12 -0.12)">
     <defs>
      <path id="DejaVuSans-20" transform="scale(0.015625)"/>
      <path id="DejaVuSans-52" d="M 2841 2188 
Q 3044 2119 3236 1894 
Q 3428 1669 3622 1275 
L 4263 0 
L 3584 0 
L 2988 1197 
Q 2756 1666 2539 1819 
Q 2322 1972 1947 1972 
L 1259 1972 
L 1259 0 
L 628 0 
L 628 4666 
L 2053 4666 
Q 2853 4666 3247 4331 
Q 3641 3997 3641 3322 
Q 3641 2881 3436 2590 
Q 3231 2300 2841 2188 
z
M 1259 4147 
L 1259 2491 
L 2053 2491 
Q 2509 2491 2742 2702 
Q 2975 2913 2975 3322 
Q 2975 3731 2742 3939 
Q 2509 4147 2053 4147 
L 1259 4147 
z
" transform="scale(0.015625)"/>
      <path id="DejaVuSans-73" d="M 2834 3397 
L 2834 2853 
Q 2591 2978 2328 3040 
Q 2066 3103 1784 3103 
Q 1356 3103 1142 2972 
Q 928 2841 928 2578 
Q 928 2378 1081 2264 
Q 1234 2150 1697 2047 
L 1894 2003 
Q 2506 1872 2764 1633 
Q 3022 1394 3022 966 
Q 3022 478 2636 193 
Q 2250 -91 1575 -91 
Q 1294 -91 989 -36 
Q 684 19 347 128 
L 347 722 
Q 666 556 975 473 
Q 1284 391 1588 391 
Q 1994 391 2212 530 
Q 2431 669 2431 922 
Q 2431 1156 2273 1281 
Q 2116 1406 1581 1522 
L 1381 1569 
Q 847 1681 609 1914 
Q 372 2147 372 2553 
Q 372 3047 722 3315 
Q 1072 3584 1716 3584 
Q 2034 3584 2315 3537 
Q 2597 3491 2834 3397 
z
" transform="scale(0.015625)"/>
      <path id="DejaVuSans-6f" d="M 1959 3097 
Q 1497 3097 1228 2736 
Q 959 2375 959 1747 
Q 959 1119 1226 758 
Q 1494 397 1959 397 
Q 2419 397 2687 759 
Q 2956 1122 2956 1747 
Q 2956 2369 2687 2733 
Q 2419 3097 1959 3097 
z
M 1959 3584 
Q 2709 3584 3137 3096 
Q 3566 2609 3566 1747 
Q 3566 888 3137 398 
Q 2709 -91 1959 -91 
Q 1206 -91 779 398 
Q 353 888 353 1747 
Q 353 2609 779 3096 
Q 1206 3584 1959 3584 
z
" transform="scale(0.015625)"/>
      <path id="DejaVuSans-6e" d="M 3513 2113 
L 3513 0 
L 2938 0 
L 2938 2094 
Q 2938 2591 2744 2837 
Q 2550 3084 2163 3084 
Q 1697 3084 1428 2787 
Q 1159 2491 1159 1978 
L 1159 0 
L 581 0 
L 581 3500 
L 1159 3500 
L 1159 2956 
Q 1366 3272 1645 3428 
Q 1925 3584 2291 3584 
Q 2894 3584 3203 3211 
Q 3513 2838 3513 2113 
z
" transform="scale(0.015625)"/>
     </defs>
     <use xlink:href="#DejaVuSans-54"/>
     <use xlink:href="#DejaVuSans-69" x="57.958984"/>
     <use xlink:href="#DejaVuSans-6d" x="85.742188"/>
     <use xlink:href="#DejaVuSans-65" x="183.154297"/>
     <use xlink:href="#DejaVuSans-20" x="244.677734"/>
     <use xlink:href="#DejaVuSans-52" x="276.464844"/>
     <use xlink:href="#DejaVuSans-65" x="341.447266"/>
     <use xlink:href="#DejaVuSans-73" x="402.970703"/>
     <use xlink:href="#DejaVuSans-70" x="455.070312"/>
     <use xlink:href="#DejaVuSans-6f" x="518.546875"/>
     <use xlink:href="#DejaVuSans-6e" x="579.728516"/>
     <use xlink:href="#DejaVuSans-73" x="643.107422"/>
     <use xlink:href="#DejaVuSans-65" x="695.207031"/>
    </g>
   </g>
   <g id="legend_1">
    <g id="patch_7">
     <path d="M 49.620313 59.674375 
L 176.246875 59.674375 
Q 178.246875 59.674375 178.246875 57.674375 
L 178.246875 29.318125 
Q 178.246875 27.318125 176.246875 27.318125 
L 49.620313 27.318125 
Q 47.620313 27.318125 47.620313 29.318125 
L 47.620313 57.674375 
Q 47.620313 59.674375 49.620313 59.674375 
z
" style="fill: #ffffff; opacity: 0.8; stroke: #cccccc; stroke-linejoin: miter"/>
    </g>
    <g id="line2d_29">
     <path d="M 51.620313 35.416562 
L 61.620313 35.416562 
L 71.620313 35.416562 
" style="fill: none; stroke: #0000ff; stroke-width: 1.5; stroke-linecap: square"/>
    </g>
    <g id="text_17">
     <!-- Displacement -->
     <g transform="translate(79.620313 38.916562) scale(0.1 -0.1)">
      <defs>
       <path id="DejaVuSans-44" d="M 1259 4147 
L 1259 519 
L 2022 519 
Q 2988 519 3436 956 
Q 3884 1394 3884 2338 
Q 3884 3275 3436 3711 
Q 2988 4147 2022 4147 
L 1259 4147 
z
M 628 4666 
L 1925 4666 
Q 3281 4666 3915 4102 
Q 4550 3538 4550 2338 
Q 4550 1131 3912 565 
Q 3275 0 1925 0 
L 628 0 
L 628 4666 
z
" transform="scale(0.015625)"/>
       <path id="DejaVuSans-61" d="M 2194 1759 
Q 1497 1759 1228 1600 
Q 959 1441 959 1056 
Q 959 750 1161 570 
Q 1363 391 1709 391 
Q 2188 391 2477 730 
Q 2766 1069 2766 1631 
L 2766 1759 
L 2194 1759 
z
M 3341 1997 
L 3341 0 
L 2766 0 
L 2766 531 
Q 2569 213 2275 61 
Q 1981 -91 1556 -91 
Q 1019 -91 701 211 
Q 384 513 384 1019 
Q 384 1609 779 1909 
Q 1175 2209 1959 2209 
L 2766 2209 
L 2766 2266 
Q 2766 2663 2505 2880 
Q 2244 3097 1772 3097 
Q 1472 3097 1187 3025 
Q 903 2953 641 2809 
L 641 3341 
Q 956 3463 1253 3523 
Q 1550 3584 1831 3584 
Q 2591 3584 2966 3190 
Q 3341 2797 3341 1997 
z
" transform="scale(0.015625)"/>
       <path id="DejaVuSans-63" d="M 3122 3366 
L 3122 2828 
Q 2878 2963 2633 3030 
Q 2388 3097 2138 3097 
Q 1578 3097 1268 2742 
Q 959 2388 959 1747 
Q 959 1106 1268 751 
Q 1578 397 2138 397 
Q 2388 397 2633 464 
Q 2878 531 3122 666 
L 3122 134 
Q 2881 22 2623 -34 
Q 2366 -91 2075 -91 
Q 1284 -91 818 406 
Q 353 903 353 1747 
Q 353 2603 823 3093 
Q 1294 3584 2113 3584 
Q 2378 3584 2631 3529 
Q 2884 3475 3122 3366 
z
" transform="scale(0.015625)"/>
      </defs>
      <use xlink:href="#DejaVuSans-44"/>
      <use xlink:href="#DejaVuSans-69" x="77.001953"/>
      <use xlink:href="#DejaVuSans-73" x="104.785156"/>
      <use xlink:href="#DejaVuSans-70" x="156.884766"/>
      <use xlink:href="#DejaVuSans-6c" x="220.361328"/>
      <use xlink:href="#DejaVuSans-61" x="248.144531"/>
      <use xlink:href="#DejaVuSans-63" x="309.423828"/>
      <use xlink:href="#DejaVuSans-65" x="364.404297"/>
      <use xlink:href="#DejaVuSans-6d" x="425.927734"/>
      <use xlink:href="#DejaVuSans-65" x="523.339844"/>
      <use xlink:href="#DejaVuSans-6e" x="584.863281"/>
      <use xlink:href="#DejaVuSans-74" x="648.242188"/>
     </g>
    </g>
    <g id="line2d_30">
     <path d="M 51.620313 50.094688 
L 61.620313 50.094688 
L 71.620313 50.094688 
" style="fill: none; stroke-dasharray: 5.55,2.4; stroke-dashoffset: 0; stroke: #ff0000; stroke-width: 1.5"/>
    </g>
    <g id="text_18">
     <!-- Hysteretic Variable -->
     <g transform="translate(79.620313 53.594688) scale(0.1 -0.1)">
      <defs>
       <path id="DejaVuSans-48" d="M 628 4666 
L 1259 4666 
L 1259 2753 
L 3553 2753 
L 3553 4666 
L 4184 4666 
L 4184 0 
L 3553 0 
L 3553 2222 
L 1259 2222 
L 1259 0 
L 628 0 
L 628 4666 
z
" transform="scale(0.015625)"/>
       <path id="DejaVuSans-79" d="M 2059 -325 
Q 1816 -950 1584 -1140 
Q 1353 -1331 966 -1331 
L 506 -1331 
L 506 -850 
L 844 -850 
Q 1081 -850 1212 -737 
Q 1344 -625 1503 -206 
L 1606 56 
L 191 3500 
L 800 3500 
L 1894 763 
L 2988 3500 
L 3597 3500 
L 2059 -325 
z
" transform="scale(0.015625)"/>
       <path id="DejaVuSans-72" d="M 2631 2963 
Q 2534 3019 2420 3045 
Q 2306 3072 2169 3072 
Q 1681 3072 1420 2755 
Q 1159 2438 1159 1844 
L 1159 0 
L 581 0 
L 581 3500 
L 1159 3500 
L 1159 2956 
Q 1341 3275 1631 3429 
Q 1922 3584 2338 3584 
Q 2397 3584 2469 3576 
Q 2541 3569 2628 3553 
L 2631 2963 
z
" transform="scale(0.015625)"/>
       <path id="DejaVuSans-56" d="M 1831 0 
L 50 4666 
L 709 4666 
L 2188 738 
L 3669 4666 
L 4325 4666 
L 2547 0 
L 1831 0 
z
" transform="scale(0.015625)"/>
       <path id="DejaVuSans-62" d="M 3116 1747 
Q 3116 2381 2855 2742 
Q 2594 3103 2138 3103 
Q 1681 3103 1420 2742 
Q 1159 2381 1159 1747 
Q 1159 1113 1420 752 
Q 1681 391 2138 391 
Q 2594 391 2855 752 
Q 3116 1113 3116 1747 
z
M 1159 2969 
Q 1341 3281 1617 3432 
Q 1894 3584 2278 3584 
Q 2916 3584 3314 3078 
Q 3713 2572 3713 1747 
Q 3713 922 3314 415 
Q 2916 -91 2278 -91 
Q 1894 -91 1617 61 
Q 1341 213 1159 525 
L 1159 0 
L 581 0 
L 581 4863 
L 1159 4863 
L 1159 2969 
z
" transform="scale(0.015625)"/>
      </defs>
      <use xlink:href="#DejaVuSans-48"/>
      <use xlink:href="#DejaVuSans-79" x="75.195312"/>
      <use xlink:href="#DejaVuSans-73" x="134.375"/>
      <use xlink:href="#DejaVuSans-74" x="186.474609"/>
      <use xlink:href="#DejaVuSans-65" x="225.683594"/>
      <use xlink:href="#DejaVuSans-72" x="287.207031"/>
      <use xlink:href="#DejaVuSans-65" x="326.070312"/>
      <use xlink:href="#DejaVuSans-74" x="387.59375"/>
      <use xlink:href="#DejaVuSans-69" x="426.802734"/>
      <use xlink:href="#DejaVuSans-63" x="454.585938"/>
      <use xlink:href="#DejaVuSans-20" x="509.566406"/>
      <use xlink:href="#DejaVuSans-56" x="541.353516"/>
      <use xlink:href="#DejaVuSans-61" x="602.011719"/>
      <use xlink:href="#DejaVuSans-72" x="663.291016"/>
      <use xlink:href="#DejaVuSans-69" x="704.404297"/>
      <use xlink:href="#DejaVuSans-61" x="732.1875"/>
      <use xlink:href="#DejaVuSans-62" x="793.466797"/>
      <use xlink:href="#DejaVuSans-6c" x="856.943359"/>
      <use xlink:href="#DejaVuSans-65" x="884.726562"/>
     </g>
    </g>
   </g>
  </g>
  <g id="axes_2">
   <g id="patch_8">
    <path d="M 585.095312 313.478125 
L 1065.180313 313.478125 
L 1065.180313 22.318125 
L 585.095312 22.318125 
z
" style="fill: #ffffff"/>
   </g>
   <g id="matplotlib.axis_3">
    <g id="xtick_9">
     <g id="line2d_31">
      <path d="M 644.997659 313.478125 
L 644.997659 22.318125 
" clip-path="url(#p4548a60167)" style="fill: none; stroke: #b0b0b0; stroke-width: 0.8; stroke-linecap: square"/>
     </g>
     <g id="line2d_32">
      <g>
       <use xlink:href="#ma624d414d9" x="644.997659" y="313.478125" style="stroke: #000000; stroke-width: 0.8"/>
      </g>
     </g>
     <g id="text_19">
      <!-- −2 -->
      <g transform="translate(637.626565 328.076563) scale(0.1 -0.1)">
       <use xlink:href="#DejaVuSans-2212"/>
       <use xlink:href="#DejaVuSans-32" x="83.789062"/>
      </g>
     </g>
    </g>
    <g id="xtick_10">
     <g id="line2d_33">
      <path d="M 734.769373 313.478125 
L 734.769373 22.318125 
" clip-path="url(#p4548a60167)" style="fill: none; stroke: #b0b0b0; stroke-width: 0.8; stroke-linecap: square"/>
     </g>
     <g id="line2d_34">
      <g>
       <use xlink:href="#ma624d414d9" x="734.769373" y="313.478125" style="stroke: #000000; stroke-width: 0.8"/>
      </g>
     </g>
     <g id="text_20">
      <!-- −1 -->
      <g transform="translate(727.398279 328.076563) scale(0.1 -0.1)">
       <use xlink:href="#DejaVuSans-2212"/>
       <use xlink:href="#DejaVuSans-31" x="83.789062"/>
      </g>
     </g>
    </g>
    <g id="xtick_11">
     <g id="line2d_35">
      <path d="M 824.541086 313.478125 
L 824.541086 22.318125 
" clip-path="url(#p4548a60167)" style="fill: none; stroke: #b0b0b0; stroke-width: 0.8; stroke-linecap: square"/>
     </g>
     <g id="line2d_36">
      <g>
       <use xlink:href="#ma624d414d9" x="824.541086" y="313.478125" style="stroke: #000000; stroke-width: 0.8"/>
      </g>
     </g>
     <g id="text_21">
      <!-- 0 -->
      <g transform="translate(821.359836 328.076563) scale(0.1 -0.1)">
       <use xlink:href="#DejaVuSans-30"/>
      </g>
     </g>
    </g>
    <g id="xtick_12">
     <g id="line2d_37">
      <path d="M 914.312799 313.478125 
L 914.312799 22.318125 
" clip-path="url(#p4548a60167)" style="fill: none; stroke: #b0b0b0; stroke-width: 0.8; stroke-linecap: square"/>
     </g>
     <g id="line2d_38">
      <g>
       <use xlink:href="#ma624d414d9" x="914.312799" y="313.478125" style="stroke: #000000; stroke-width: 0.8"/>
      </g>
     </g>
     <g id="text_22">
      <!-- 1 -->
      <g transform="translate(911.131549 328.076563) scale(0.1 -0.1)">
       <use xlink:href="#DejaVuSans-31"/>
      </g>
     </g>
    </g>
    <g id="xtick_13">
     <g id="line2d_39">
      <path d="M 1004.084512 313.478125 
L 1004.084512 22.318125 
" clip-path="url(#p4548a60167)" style="fill: none; stroke: #b0b0b0; stroke-width: 0.8; stroke-linecap: square"/>
     </g>
     <g id="line2d_40">
      <g>
       <use xlink:href="#ma624d414d9" x="1004.084512" y="313.478125" style="stroke: #000000; stroke-width: 0.8"/>
      </g>
     </g>
     <g id="text_23">
      <!-- 2 -->
      <g transform="translate(1000.903262 328.076563) scale(0.1 -0.1)">
       <use xlink:href="#DejaVuSans-32"/>
      </g>
     </g>
    </g>
    <g id="text_24">
     <!-- Displacement -->
     <g transform="translate(790.765156 341.754687) scale(0.1 -0.1)">
      <use xlink:href="#DejaVuSans-44"/>
      <use xlink:href="#DejaVuSans-69" x="77.001953"/>
      <use xlink:href="#DejaVuSans-73" x="104.785156"/>
      <use xlink:href="#DejaVuSans-70" x="156.884766"/>
      <use xlink:href="#DejaVuSans-6c" x="220.361328"/>
      <use xlink:href="#DejaVuSans-61" x="248.144531"/>
      <use xlink:href="#DejaVuSans-63" x="309.423828"/>
      <use xlink:href="#DejaVuSans-65" x="364.404297"/>
      <use xlink:href="#DejaVuSans-6d" x="425.927734"/>
      <use xlink:href="#DejaVuSans-65" x="523.339844"/>
      <use xlink:href="#DejaVuSans-6e" x="584.863281"/>
      <use xlink:href="#DejaVuSans-74" x="648.242188"/>
     </g>
    </g>
   </g>
   <g id="matplotlib.axis_4">
    <g id="ytick_6">
     <g id="line2d_41">
      <path d="M 585.095312 301.060774 
L 1065.180313 301.060774 
" clip-path="url(#p4548a60167)" style="fill: none; stroke: #b0b0b0; stroke-width: 0.8; stroke-linecap: square"/>
     </g>
     <g id="line2d_42">
      <g>
       <use xlink:href="#m12cbbb06ca" x="585.095312" y="301.060774" style="stroke: #000000; stroke-width: 0.8"/>
      </g>
     </g>
     <g id="text_25">
      <!-- −1.00 -->
      <g transform="translate(547.45 304.859992) scale(0.1 -0.1)">
       <defs>
        <path id="DejaVuSans-2e" d="M 684 794 
L 1344 794 
L 1344 0 
L 684 0 
L 684 794 
z
" transform="scale(0.015625)"/>
       </defs>
       <use xlink:href="#DejaVuSans-2212"/>
       <use xlink:href="#DejaVuSans-31" x="83.789062"/>
       <use xlink:href="#DejaVuSans-2e" x="147.412109"/>
       <use xlink:href="#DejaVuSans-30" x="179.199219"/>
       <use xlink:href="#DejaVuSans-30" x="242.822266"/>
      </g>
     </g>
    </g>
    <g id="ytick_7">
     <g id="line2d_43">
      <path d="M 585.095312 267.768509 
L 1065.180313 267.768509 
" clip-path="url(#p4548a60167)" style="fill: none; stroke: #b0b0b0; stroke-width: 0.8; stroke-linecap: square"/>
     </g>
     <g id="line2d_44">
      <g>
       <use xlink:href="#m12cbbb06ca" x="585.095312" y="267.768509" style="stroke: #000000; stroke-width: 0.8"/>
      </g>
     </g>
     <g id="text_26">
      <!-- −0.75 -->
      <g transform="translate(547.45 271.567728) scale(0.1 -0.1)">
       <use xlink:href="#DejaVuSans-2212"/>
       <use xlink:href="#DejaVuSans-30" x="83.789062"/>
       <use xlink:href="#DejaVuSans-2e" x="147.412109"/>
       <use xlink:href="#DejaVuSans-37" x="179.199219"/>
       <use xlink:href="#DejaVuSans-35" x="242.822266"/>
      </g>
     </g>
    </g>
    <g id="ytick_8">
     <g id="line2d_45">
      <path d="M 585.095312 234.476244 
L 1065.180313 234.476244 
" clip-path="url(#p4548a60167)" style="fill: none; stroke: #b0b0b0; stroke-width: 0.8; stroke-linecap: square"/>
     </g>
     <g id="line2d_46">
      <g>
       <use xlink:href="#m12cbbb06ca" x="585.095312" y="234.476244" style="stroke: #000000; stroke-width: 0.8"/>
      </g>
     </g>
     <g id="text_27">
      <!-- −0.50 -->
      <g transform="translate(547.45 238.275463) scale(0.1 -0.1)">
       <use xlink:href="#DejaVuSans-2212"/>
       <use xlink:href="#DejaVuSans-30" x="83.789062"/>
       <use xlink:href="#DejaVuSans-2e" x="147.412109"/>
       <use xlink:href="#DejaVuSans-35" x="179.199219"/>
       <use xlink:href="#DejaVuSans-30" x="242.822266"/>
      </g>
     </g>
    </g>
    <g id="ytick_9">
     <g id="line2d_47">
      <path d="M 585.095312 201.183979 
L 1065.180313 201.183979 
" clip-path="url(#p4548a60167)" style="fill: none; stroke: #b0b0b0; stroke-width: 0.8; stroke-linecap: square"/>
     </g>
     <g id="line2d_48">
      <g>
       <use xlink:href="#m12cbbb06ca" x="585.095312" y="201.183979" style="stroke: #000000; stroke-width: 0.8"/>
      </g>
     </g>
     <g id="text_28">
      <!-- −0.25 -->
      <g transform="translate(547.45 204.983198) scale(0.1 -0.1)">
       <use xlink:href="#DejaVuSans-2212"/>
       <use xlink:href="#DejaVuSans-30" x="83.789062"/>
       <use xlink:href="#DejaVuSans-2e" x="147.412109"/>
       <use xlink:href="#DejaVuSans-32" x="179.199219"/>
       <use xlink:href="#DejaVuSans-35" x="242.822266"/>
      </g>
     </g>
    </g>
    <g id="ytick_10">
     <g id="line2d_49">
      <path d="M 585.095312 167.891714 
L 1065.180313 167.891714 
" clip-path="url(#p4548a60167)" style="fill: none; stroke: #b0b0b0; stroke-width: 0.8; stroke-linecap: square"/>
     </g>
     <g id="line2d_50">
      <g>
       <use xlink:href="#m12cbbb06ca" x="585.095312" y="167.891714" style="stroke: #000000; stroke-width: 0.8"/>
      </g>
     </g>
     <g id="text_29">
      <!-- 0.00 -->
      <g transform="translate(555.829687 171.690933) scale(0.1 -0.1)">
       <use xlink:href="#DejaVuSans-30"/>
       <use xlink:href="#DejaVuSans-2e" x="63.623047"/>
       <use xlink:href="#DejaVuSans-30" x="95.410156"/>
       <use xlink:href="#DejaVuSans-30" x="159.033203"/>
      </g>
     </g>
    </g>
    <g id="ytick_11">
     <g id="line2d_51">
      <path d="M 585.095312 134.59945 
L 1065.180313 134.59945 
" clip-path="url(#p4548a60167)" style="fill: none; stroke: #b0b0b0; stroke-width: 0.8; stroke-linecap: square"/>
     </g>
     <g id="line2d_52">
      <g>
       <use xlink:href="#m12cbbb06ca" x="585.095312" y="134.59945" style="stroke: #000000; stroke-width: 0.8"/>
      </g>
     </g>
     <g id="text_30">
      <!-- 0.25 -->
      <g transform="translate(555.829687 138.398668) scale(0.1 -0.1)">
       <use xlink:href="#DejaVuSans-30"/>
       <use xlink:href="#DejaVuSans-2e" x="63.623047"/>
       <use xlink:href="#DejaVuSans-32" x="95.410156"/>
       <use xlink:href="#DejaVuSans-35" x="159.033203"/>
      </g>
     </g>
    </g>
    <g id="ytick_12">
     <g id="line2d_53">
      <path d="M 585.095312 101.307185 
L 1065.180313 101.307185 
" clip-path="url(#p4548a60167)" style="fill: none; stroke: #b0b0b0; stroke-width: 0.8; stroke-linecap: square"/>
     </g>
     <g id="line2d_54">
      <g>
       <use xlink:href="#m12cbbb06ca" x="585.095312" y="101.307185" style="stroke: #000000; stroke-width: 0.8"/>
      </g>
     </g>
     <g id="text_31">
      <!-- 0.50 -->
      <g transform="translate(555.829687 105.106404) scale(0.1 -0.1)">
       <use xlink:href="#DejaVuSans-30"/>
       <use xlink:href="#DejaVuSans-2e" x="63.623047"/>
       <use xlink:href="#DejaVuSans-35" x="95.410156"/>
       <use xlink:href="#DejaVuSans-30" x="159.033203"/>
      </g>
     </g>
    </g>
    <g id="ytick_13">
     <g id="line2d_55">
      <path d="M 585.095312 68.01492 
L 1065.180313 68.01492 
" clip-path="url(#p4548a60167)" style="fill: none; stroke: #b0b0b0; stroke-width: 0.8; stroke-linecap: square"/>
     </g>
     <g id="line2d_56">
      <g>
       <use xlink:href="#m12cbbb06ca" x="585.095312" y="68.01492" style="stroke: #000000; stroke-width: 0.8"/>
      </g>
     </g>
     <g id="text_32">
      <!-- 0.75 -->
      <g transform="translate(555.829687 71.814139) scale(0.1 -0.1)">
       <use xlink:href="#DejaVuSans-30"/>
       <use xlink:href="#DejaVuSans-2e" x="63.623047"/>
       <use xlink:href="#DejaVuSans-37" x="95.410156"/>
       <use xlink:href="#DejaVuSans-35" x="159.033203"/>
      </g>
     </g>
    </g>
    <g id="ytick_14">
     <g id="line2d_57">
      <path d="M 585.095312 34.722655 
L 1065.180313 34.722655 
" clip-path="url(#p4548a60167)" style="fill: none; stroke: #b0b0b0; stroke-width: 0.8; stroke-linecap: square"/>
     </g>
     <g id="line2d_58">
      <g>
       <use xlink:href="#m12cbbb06ca" x="585.095312" y="34.722655" style="stroke: #000000; stroke-width: 0.8"/>
      </g>
     </g>
     <g id="text_33">
      <!-- 1.00 -->
      <g transform="translate(555.829687 38.521874) scale(0.1 -0.1)">
       <use xlink:href="#DejaVuSans-31"/>
       <use xlink:href="#DejaVuSans-2e" x="63.623047"/>
       <use xlink:href="#DejaVuSans-30" x="95.410156"/>
       <use xlink:href="#DejaVuSans-30" x="159.033203"/>
      </g>
     </g>
    </g>
    <g id="text_34">
     <!-- Restoring force -->
     <g transform="translate(541.370312 205.812969) rotate(-90) scale(0.1 -0.1)">
      <defs>
       <path id="DejaVuSans-67" d="M 2906 1791 
Q 2906 2416 2648 2759 
Q 2391 3103 1925 3103 
Q 1463 3103 1205 2759 
Q 947 2416 947 1791 
Q 947 1169 1205 825 
Q 1463 481 1925 481 
Q 2391 481 2648 825 
Q 2906 1169 2906 1791 
z
M 3481 434 
Q 3481 -459 3084 -895 
Q 2688 -1331 1869 -1331 
Q 1566 -1331 1297 -1286 
Q 1028 -1241 775 -1147 
L 775 -588 
Q 1028 -725 1275 -790 
Q 1522 -856 1778 -856 
Q 2344 -856 2625 -561 
Q 2906 -266 2906 331 
L 2906 616 
Q 2728 306 2450 153 
Q 2172 0 1784 0 
Q 1141 0 747 490 
Q 353 981 353 1791 
Q 353 2603 747 3093 
Q 1141 3584 1784 3584 
Q 2172 3584 2450 3431 
Q 2728 3278 2906 2969 
L 2906 3500 
L 3481 3500 
L 3481 434 
z
" transform="scale(0.015625)"/>
       <path id="DejaVuSans-66" d="M 2375 4863 
L 2375 4384 
L 1825 4384 
Q 1516 4384 1395 4259 
Q 1275 4134 1275 3809 
L 1275 3500 
L 2222 3500 
L 2222 3053 
L 1275 3053 
L 1275 0 
L 697 0 
L 697 3053 
L 147 3053 
L 147 3500 
L 697 3500 
L 697 3744 
Q 697 4328 969 4595 
Q 1241 4863 1831 4863 
L 2375 4863 
z
" transform="scale(0.015625)"/>
      </defs>
      <use xlink:href="#DejaVuSans-52"/>
      <use xlink:href="#DejaVuSans-65" x="64.982422"/>
      <use xlink:href="#DejaVuSans-73" x="126.505859"/>
      <use xlink:href="#DejaVuSans-74" x="178.605469"/>
      <use xlink:href="#DejaVuSans-6f" x="217.814453"/>
      <use xlink:href="#DejaVuSans-72" x="278.996094"/>
      <use xlink:href="#DejaVuSans-69" x="320.109375"/>
      <use xlink:href="#DejaVuSans-6e" x="347.892578"/>
      <use xlink:href="#DejaVuSans-67" x="411.271484"/>
      <use xlink:href="#DejaVuSans-20" x="474.748047"/>
      <use xlink:href="#DejaVuSans-66" x="506.535156"/>
      <use xlink:href="#DejaVuSans-6f" x="541.740234"/>
      <use xlink:href="#DejaVuSans-72" x="602.921875"/>
      <use xlink:href="#DejaVuSans-63" x="641.785156"/>
      <use xlink:href="#DejaVuSans-65" x="696.765625"/>
     </g>
    </g>
   </g>
   <g id="line2d_59">
    <path d="M 824.541086 167.891714 
L 829.190625 161.168314 
L 833.969204 154.608142 
L 837.395571 150.113218 
L 836.918771 150.820513 
L 822.212799 172.552511 
L 816.53391 180.43478 
L 812.42223 185.841712 
L 808.135837 191.223759 
L 803.75838 196.464296 
L 799.380894 201.458548 
L 793.027946 208.29231 
L 787.23831 214.118276 
L 781.007742 219.988082 
L 776.481889 223.998345 
L 817.821246 162.780537 
L 822.118959 156.797511 
L 826.53537 150.937387 
L 831.050485 145.233755 
L 835.644026 139.714705 
L 840.295512 134.403046 
L 844.984333 129.31664 
L 849.689808 124.468821 
L 854.391238 119.868853 
L 859.067942 115.522424 
L 863.699296 111.432142 
L 868.264758 107.59802 
L 872.743895 104.017945 
L 877.116404 100.688111 
L 885.461125 94.757853 
L 893.139984 89.757261 
L 899.997676 85.631084 
L 905.883521 82.326527 
L 912.575267 78.816793 
L 916.934582 76.670442 
L 850.838598 174.524503 
L 844.158769 183.573803 
L 837.332212 192.15913 
L 830.391354 200.251542 
L 823.368018 207.835219 
L 816.29336 214.905377 
L 809.197844 221.466246 
L 802.11124 227.529179 
L 795.062634 233.110944 
L 788.080455 238.232231 
L 781.192507 242.916371 
L 774.426002 247.188262 
L 767.807594 251.073499 
L 761.363409 254.597674 
L 755.119069 257.785836 
L 749.099711 260.662072 
L 743.329992 263.249214 
L 737.834099 265.568618 
L 727.758083 269.481487 
L 719.055093 272.53796 
L 708.953719 275.748101 
L 701.292549 277.963663 
L 701.289913 277.885027 
L 772.816314 171.78141 
L 780.839879 160.157458 
L 789.077153 149.211471 
L 797.484617 139.017306 
L 806.020043 129.588443 
L 814.642564 120.919761 
L 823.31268 112.991754 
L 831.992222 105.774304 
L 840.644301 99.229937 
L 849.233221 93.31654 
L 857.724402 87.989561 
L 866.084293 83.203731 
L 874.280288 78.914383 
L 882.280656 75.078404 
L 890.054477 71.654913 
L 897.571595 68.605691 
L 904.802583 65.895437 
L 911.718722 63.491888 
L 918.291992 61.365828 
L 930.301405 57.844159 
L 940.62124 55.154436 
L 952.506596 52.396081 
L 961.302233 50.563248 
L 961.245696 50.715657 
L 878.269032 173.636909 
L 869.198941 185.812155 
L 859.924777 197.065782 
L 850.495946 207.389216 
L 840.960072 216.797554 
L 831.363006 225.323584 
L 821.748885 233.012537 
L 812.160221 239.917697 
L 802.638013 246.096825 
L 793.221864 251.609366 
L 783.950094 256.514341 
L 774.859846 260.868823 
L 765.987183 264.726882 
L 757.36716 268.138926 
L 749.033889 271.151321 
L 741.020575 273.806246 
L 733.359544 276.141701 
L 726.082248 278.191625 
L 712.800217 281.55154 
L 701.40787 284.084514 
L 688.333132 286.646417 
L 678.79686 288.309987 
L 678.902077 288.097633 
L 760.412889 167.193359 
L 769.962436 153.914015 
L 779.765613 141.659771 
L 789.767468 130.447242 
L 799.915057 120.262847 
L 810.157447 111.070461 
L 820.445658 102.818132 
L 830.732562 95.443732 
L 840.972756 88.879522 
L 851.122422 83.055696 
L 861.139194 77.903043 
L 870.982031 73.354835 
L 880.611109 69.348111 
L 889.987722 65.824456 
L 899.074218 62.730423 
L 907.833947 60.017662 
L 916.231232 57.642863 
L 924.231359 55.567565 
L 931.80059 53.757872 
L 945.516465 50.820614 
L 957.129837 48.638726 
L 970.10965 46.48729 
L 978.288212 45.298353 
L 895.107603 168.677193 
L 885.078775 182.567593 
L 874.76634 195.337658 
L 864.228972 206.973059 
L 853.523171 217.493254 
L 842.703261 226.942557 
L 831.82147 235.38236 
L 820.928049 242.884667 
L 810.071424 249.526927 
L 799.298347 255.388082 
L 788.654054 260.545659 
L 778.182402 265.073754 
L 767.925994 269.041708 
L 757.926273 272.513352 
L 748.223602 275.546651 
L 738.857309 278.19366 
L 729.865719 280.50068 
L 721.286152 282.508554 
L 713.154912 284.25304 
L 698.377306 287.071967 
L 685.801249 289.1577 
L 671.602174 291.215951 
L 662.117812 292.437284 
L 747.8517 165.311442 
L 758.344501 151.022821 
L 769.14218 137.944869 
L 780.183166 126.084692 
L 791.408213 115.413504 
L 802.760381 105.876648 
L 814.184933 97.402208 
L 825.629187 89.908072 
L 837.042351 83.307481 
L 848.375342 77.513208 
L 859.580618 72.440552 
L 870.612032 68.009366 
L 881.424699 64.145312 
L 891.974893 60.780534 
L 902.219975 57.85389 
L 912.118346 55.310879 
L 921.629421 53.103369 
L 930.71364 51.18919 
L 939.332485 49.531657 
L 955.0255 46.864216 
L 968.423338 44.898426 
L 983.645623 42.960312 
L 994.167446 41.779407 
L 987.758381 51.294144 
L 905.796239 172.735178 
L 894.877973 187.30213 
L 883.637974 200.577072 
L 872.140237 212.561785 
L 860.446298 223.295241 
L 848.615286 232.842642 
L 836.704047 241.28613 
L 824.767312 248.717271 
L 812.857894 255.231236 
L 801.026874 260.922511 
L 789.323784 265.881885 
L 777.796769 270.194476 
L 766.492717 273.938579 
L 755.457364 277.185114 
L 744.735363 279.997526 
L 734.370332 282.431976 
L 724.404865 284.537742 
L 714.880521 286.357728 
L 705.837791 287.929033 
L 689.35344 290.448441 
L 675.251862 292.298239 
L 659.168185 294.118963 
L 647.82384 295.244442 
L 649.233115 293.129467 
L 727.940305 176.373731 
L 738.843784 160.497235 
L 750.150807 145.752907 
L 761.792841 132.372029 
L 773.703869 120.342962 
L 785.820437 109.616271 
L 798.08158 100.116457 
L 810.428673 91.751789 
L 822.805233 84.422131 
L 835.156717 78.024921 
L 847.430311 72.459492 
L 859.574741 67.630042 
L 871.540105 63.447498 
L 883.277744 59.830549 
L 894.740135 56.706057 
L 905.880825 54.009025 
L 916.654394 51.682276 
L 927.016447 49.675938 
L 936.923638 47.946842 
L 946.333708 46.457862 
L 963.499329 44.078106 
L 978.199963 42.336674 
L 995.001577 40.626047 
L 1006.978029 39.561597 
L 1005.602755 41.640711 
L 924.54494 161.883409 
L 913.296789 178.039719 
L 901.633103 192.878914 
L 889.624224 206.292565 
L 877.337862 218.302768 
L 864.839073 228.969434 
L 852.190369 238.377919 
L 839.451889 246.628817 
L 826.68161 253.829917 
L 813.935575 260.090178 
L 801.268111 265.515435 
L 788.732023 270.205536 
L 776.378766 274.252603 
L 764.258576 277.740151 
L 752.420573 280.742819 
L 740.912819 283.326538 
L 729.782353 285.548978 
L 719.075182 287.460163 
L 708.836259 289.10317 
L 699.109421 290.514857 
L 681.361321 292.764819 
L 666.156057 294.406407 
L 648.766826 296.015428 
L 636.334007 297.017378 
L 636.557645 296.640387 
L 721.147147 171.158718 
L 732.716565 154.846194 
L 744.710477 139.982041 
L 757.05704 126.596939 
L 769.687143 114.657921 
L 782.534391 104.09473 
L 795.534977 94.812649 
L 808.627482 86.702974 
L 821.752647 79.65114 
L 834.853132 73.542729 
L 847.873292 68.267659 
L 860.758973 63.722911 
L 873.457342 59.814108 
L 885.91676 56.45624 
L 898.086681 53.573776 
L 909.917598 51.100371 
L 921.361027 48.978295 
L 932.36951 47.157728 
L 942.896661 45.595971 
L 952.897227 44.256666 
L 971.143797 42.127126 
L 986.773551 40.577386 
L 1004.6403 39.061758 
L 1017.383171 38.121202 
L 1017.142881 38.52069 
L 930.159606 167.547621 
L 918.290993 183.899266 
L 905.991462 198.73423 
L 893.334108 212.044555 
L 880.389211 223.874144 
L 867.224289 234.303261 
L 853.904247 243.435358 
L 840.4916 251.386467 
L 827.046715 258.277065 
L 813.628064 264.226169 
L 800.292458 269.347277 
L 787.095245 273.745825 
L 774.090489 277.517773 
L 761.331089 280.749047 
L 748.868871 283.515574 
L 736.754635 285.883711 
L 725.038172 287.910913 
L 713.768238 289.646538 
L 702.992506 291.132694 
L 683.108465 293.493829 
L 665.742462 295.217148 
L 645.134432 296.93151 
L 626.95016 298.202227 
L 628.504565 295.862747 
L 716.629751 165.207363 
L 728.778997 148.882005 
L 741.363327 134.123332 
L 754.308618 120.927561 
L 767.543619 109.239897 
L 780.999884 98.970478 
L 794.611582 90.007752 
L 808.315268 82.229128 
L 822.04962 75.509025 
L 835.755176 69.724635 
L 849.374103 64.759786 
L 862.849988 60.507308 
L 876.127674 56.87025 
L 889.153135 53.762273 
L 901.873396 51.107474 
L 914.236492 48.839833 
L 926.191466 46.902439 
L 937.688396 45.246615 
L 948.678459 43.831004 
L 968.948694 41.58629 
L 986.637196 39.951448 
L 1007.592876 38.328648 
L 1025.911789 37.135861 
L 1024.223903 39.660599 
L 945.656603 156.208819 
L 933.759916 173.642519 
L 921.348066 189.898721 
L 908.498876 204.544814 
L 895.287322 217.59645 
L 881.785455 229.119045 
L 868.062502 239.211524 
L 854.185075 247.992843 
L 840.21742 255.591388 
L 826.22169 262.137076 
L 812.258216 267.755781 
L 798.385739 272.565681 
L 784.661621 276.675106 
L 771.142003 280.181503 
L 757.881922 283.17121 
L 744.935387 285.719774 
L 732.355409 287.892618 
L 720.193995 289.745899 
L 708.50211 291.327463 
L 697.329606 292.677804 
L 676.736004 294.815561 
L 658.785724 296.369691 
L 637.56735 297.909205 
L 619.25006 299.028759 
L 627.139053 287.317705 
L 701.763841 176.617881 
L 713.90661 159.045706 
L 726.565849 142.897394 
L 739.662951 128.396442 
L 753.12225 115.515289 
L 766.871046 104.17821 
L 780.839468 94.277762 
L 794.960254 85.688264 
L 809.168476 78.276256 
L 823.401262 71.908203 
L 837.597522 66.455832 
L 851.697711 61.799557 
L 865.643623 57.830411 
L 879.37824 54.450889 
L 892.845616 51.575012 
L 905.990816 49.127878 
L 918.759892 47.04489 
L 931.099895 45.270811 
L 942.95893 43.758757 
L 954.286231 42.469186 
L 975.148849 40.430359 
L 993.308576 38.950388 
L 1014.716941 37.487174 
L 1032.918627 36.436477 
L 948.127413 162.21812 
L 935.752029 179.824255 
L 922.860504 195.834333 
L 909.532067 210.165634 
L 895.842939 222.857436 
L 881.86635 233.995306 
L 867.672701 243.694578 
L 853.329804 252.08697 
L 838.903171 259.310313 
L 824.4563 265.501099 
L 810.050953 270.789399 
L 795.74739 275.295689 
L 781.604569 279.129134 
L 767.680301 282.386938 
L 754.031345 285.154432 
L 740.71347 287.505652 
L 727.781467 289.504203 
L 715.289124 291.204279 
L 703.289167 292.65172 
L 691.833175 293.885059 
L 670.752969 295.83285 
L 652.433472 297.244937 
L 630.904538 298.638386 
L 612.929305 299.621893 
L 700.030194 170.414785 
L 712.626898 152.880866 
L 725.737926 137.037081 
L 739.283566 122.898022 
L 753.187166 110.412928 
L 767.37508 99.486859 
L 781.77648 89.997193 
L 796.323098 81.806837 
L 810.948928 74.774242 
L 825.589932 68.760574 
L 840.183761 63.634509 
L 854.669523 59.275154 
L 868.987586 55.573539 
L 883.079436 52.433085 
L 896.887583 49.769357 
L 910.355512 47.509383 
L 923.427682 45.590692 
L 936.049553 43.960239 
L 948.167662 42.573296 
L 959.729714 41.392383 
L 980.983051 39.529031 
L 999.419572 38.1796 
L 1021.009852 36.850467 
L 1038.6666 35.943315 
L 949.24801 168.564104 
L 936.441621 185.946112 
L 923.123982 201.602151 
L 909.375175 215.532618 
L 895.272185 227.799355 
L 880.888985 238.50611 
L 866.296746 247.782145 
L 851.564117 255.769276 
L 836.757524 262.612147 
L 821.941478 268.451381 
L 807.178844 273.41907 
L 792.531079 277.636119 
L 778.058415 281.210976 
L 763.82 284.239343 
L 749.873978 286.804556 
L 736.277532 288.978385 
L 723.086877 290.822064 
L 710.357217 292.387423 
L 698.142671 293.718036 
L 675.469298 295.814514 
L 655.473445 297.334349 
L 631.324164 298.848951 
L 608.026318 300.050899 
L 607.75774 300.013432 
L 699.514895 164.026903 
L 712.521193 146.823745 
L 726.034506 131.375721 
L 739.974489 117.669335 
L 754.263918 105.632068 
L 768.828577 95.151919 
L 783.597028 86.093593 
L 798.500319 78.31117 
L 813.471665 71.657482 
L 828.446154 65.990635 
L 843.360467 61.17821 
L 858.152649 57.099654 
L 872.761933 53.647336 
L 887.128609 50.726665 
L 901.193947 48.255572 
L 914.900169 46.163621 
L 928.190462 44.390902 
L 941.009032 42.886855 
L 953.301187 41.609094 
L 976.093703 39.597183 
L 996.157331 38.139723 
L 1020.30499 36.689257 
L 1043.206806 35.55267 
L 1043.358267 35.649898 
L 961.873862 156.525407 
L 949.26325 174.919193 
L 936.067216 191.9238 
L 922.369377 207.148864 
L 908.250262 220.620635 
L 893.787257 232.421782 
L 879.054753 242.671949 
L 864.124394 251.511837 
L 849.065384 259.090877 
L 833.944803 265.558223 
L 818.827918 271.05658 
L 803.778445 275.718311 
L 788.858781 279.663308 
L 774.130171 282.998145 
L 759.652831 285.816126 
L 745.486012 288.197918 
L 731.688022 290.212542 
L 718.316205 291.918524 
L 705.426876 293.365124 
L 693.075229 294.593529 
L 670.199412 296.52678 
L 650.102828 297.926425 
L 626.005813 299.31744 
L 606.917358 300.24358 
L 606.917358 300.24358 
" clip-path="url(#p4548a60167)" style="fill: none; stroke: #0000ff; stroke-width: 1.5; stroke-linecap: square"/>
   </g>
   <g id="line2d_60">
    <defs>
     <path id="m44d8683f5f" d="M 0 -3 
L -0.673542 -0.927051 
L -2.85317 -0.927051 
L -1.089814 0.354102 
L -1.763356 2.427051 
L -0 1.145898 
L 1.763356 2.427051 
L 1.089814 0.354102 
L 2.85317 -0.927051 
L 0.673542 -0.927051 
z
" style="stroke: #0000ff; stroke-linejoin: bevel"/>
    </defs>
    <g clip-path="url(#p4548a60167)">
     <use xlink:href="#m44d8683f5f" x="824.541086" y="167.891714" style="fill: #0000ff; stroke: #0000ff; stroke-linejoin: bevel"/>
    </g>
   </g>
   <g id="patch_9">
    <path d="M 585.095312 313.478125 
L 585.095312 22.318125 
" style="fill: none; stroke: #000000; stroke-width: 0.8; stroke-linejoin: miter; stroke-linecap: square"/>
   </g>
   <g id="patch_10">
    <path d="M 1065.180313 313.478125 
L 1065.180313 22.318125 
" style="fill: none; stroke: #000000; stroke-width: 0.8; stroke-linejoin: miter; stroke-linecap: square"/>
   </g>
   <g id="patch_11">
    <path d="M 585.095312 313.478125 
L 1065.180313 313.478125 
" style="fill: none; stroke: #000000; stroke-width: 0.8; stroke-linejoin: miter; stroke-linecap: square"/>
   </g>
   <g id="patch_12">
    <path d="M 585.095312 22.318125 
L 1065.180313 22.318125 
" style="fill: none; stroke: #000000; stroke-width: 0.8; stroke-linejoin: miter; stroke-linecap: square"/>
   </g>
   <g id="text_35">
    <!-- Hysteresis Loop -->
    <g transform="translate(777.666563 16.318125) scale(0.12 -0.12)">
     <defs>
      <path id="DejaVuSans-4c" d="M 628 4666 
L 1259 4666 
L 1259 531 
L 3531 531 
L 3531 0 
L 628 0 
L 628 4666 
z
" transform="scale(0.015625)"/>
     </defs>
     <use xlink:href="#DejaVuSans-48"/>
     <use xlink:href="#DejaVuSans-79" x="75.195312"/>
     <use xlink:href="#DejaVuSans-73" x="134.375"/>
     <use xlink:href="#DejaVuSans-74" x="186.474609"/>
     <use xlink:href="#DejaVuSans-65" x="225.683594"/>
     <use xlink:href="#DejaVuSans-72" x="287.207031"/>
     <use xlink:href="#DejaVuSans-65" x="326.070312"/>
     <use xlink:href="#DejaVuSans-73" x="387.59375"/>
     <use xlink:href="#DejaVuSans-69" x="439.693359"/>
     <use xlink:href="#DejaVuSans-73" x="467.476562"/>
     <use xlink:href="#DejaVuSans-20" x="519.576172"/>
     <use xlink:href="#DejaVuSans-4c" x="551.363281"/>
     <use xlink:href="#DejaVuSans-6f" x="605.326172"/>
     <use xlink:href="#DejaVuSans-6f" x="666.507812"/>
     <use xlink:href="#DejaVuSans-70" x="727.689453"/>
    </g>
   </g>
   <g id="legend_2">
    <g id="patch_13">
     <path d="M 592.095312 44.99625 
L 703.214062 44.99625 
Q 705.214062 44.99625 705.214062 42.99625 
L 705.214062 29.318125 
Q 705.214062 27.318125 703.214062 27.318125 
L 592.095312 27.318125 
Q 590.095312 27.318125 590.095312 29.318125 
L 590.095312 42.99625 
Q 590.095312 44.99625 592.095312 44.99625 
z
" style="fill: #ffffff; opacity: 0.8; stroke: #cccccc; stroke-linejoin: miter"/>
    </g>
    <g id="line2d_61">
     <path d="M 594.095312 35.416563 
L 604.095312 35.416563 
L 614.095312 35.416563 
" style="fill: none; stroke: #0000ff; stroke-width: 1.5; stroke-linecap: square"/>
    </g>
    <g id="text_36">
     <!-- Hysteresis Loop -->
     <g transform="translate(622.095312 38.916563) scale(0.1 -0.1)">
      <use xlink:href="#DejaVuSans-48"/>
      <use xlink:href="#DejaVuSans-79" x="75.195312"/>
      <use xlink:href="#DejaVuSans-73" x="134.375"/>
      <use xlink:href="#DejaVuSans-74" x="186.474609"/>
      <use xlink:href="#DejaVuSans-65" x="225.683594"/>
      <use xlink:href="#DejaVuSans-72" x="287.207031"/>
      <use xlink:href="#DejaVuSans-65" x="326.070312"/>
      <use xlink:href="#DejaVuSans-73" x="387.59375"/>
      <use xlink:href="#DejaVuSans-69" x="439.693359"/>
      <use xlink:href="#DejaVuSans-73" x="467.476562"/>
      <use xlink:href="#DejaVuSans-20" x="519.576172"/>
      <use xlink:href="#DejaVuSans-4c" x="551.363281"/>
      <use xlink:href="#DejaVuSans-6f" x="605.326172"/>
      <use xlink:href="#DejaVuSans-6f" x="666.507812"/>
      <use xlink:href="#DejaVuSans-70" x="727.689453"/>
     </g>
    </g>
   </g>
  </g>
 </g>
 <defs>
  <clipPath id="p7b11eb7cf8">
   <rect x="42.620313" y="22.318125" width="480.085" height="291.16"/>
  </clipPath>
  <clipPath id="p4548a60167">
   <rect x="585.095312" y="22.318125" width="480.085" height="291.16"/>
  </clipPath>
 </defs>
</svg>
