<?xml version="1.0" encoding="utf-8" standalone="no"?>
<!DOCTYPE svg PUBLIC "-//W3C//DTD SVG 1.1//EN"
  "http://www.w3.org/Graphics/SVG/1.1/DTD/svg11.dtd">
<svg xmlns:xlink="http://www.w3.org/1999/xlink" width="352.7pt" height="350.54pt" viewBox="0 0 352.7 350.54" xmlns="http://www.w3.org/2000/svg" version="1.1">
 <metadata>
  <rdf:RDF xmlns:dc="http://purl.org/dc/elements/1.1/" xmlns:cc="http://creativecommons.org/ns#" xmlns:rdf="http://www.w3.org/1999/02/22-rdf-syntax-ns#">
   <cc:Work>
    <dc:type rdf:resource="http://purl.org/dc/dcmitype/StillImage"/>
    <dc:date>2025-02-15T22:59:28.611732</dc:date>
    <dc:format>image/svg+xml</dc:format>
    <dc:creator>
     <cc:Agent>
      <dc:title>Matplotlib v3.9.2, https://matplotlib.org/</dc:title>
     </cc:Agent>
    </dc:creator>
   </cc:Work>
  </rdf:RDF>
 </metadata>
 <defs>
  <style type="text/css">*{stroke-linejoin: round; stroke-linecap: butt}</style>
 </defs>
 <g id="figure_1">
  <g id="patch_1">
   <path d="M 0 350.54 
L 352.7 350.54 
L 352.7 0 
L 0 0 
z
" style="fill: #ffffff"/>
  </g>
  <g id="axes_1">
   <g id="patch_2">
    <path d="M 10.7 339.84 
L 345.5 339.84 
L 345.5 7.2 
L 10.7 7.2 
z
" style="fill: #ffffff"/>
   </g>
   <g id="matplotlib.axis_1">
    <g id="xtick_1">
     <g id="line2d_1">
      <path d="M 42.134746 339.84 
L 42.134746 7.2 
" clip-path="url(#p3623a91aa0)" style="fill: none; stroke: #b0b0b0; stroke-opacity: 0.3; stroke-width: 0.8; stroke-linecap: square"/>
     </g>
     <g id="line2d_2">
      <defs>
       <path id="m5110aca521" d="M 0 0 
L 0 3.5 
" style="stroke: #000000; stroke-width: 0.8"/>
      </defs>
      <g>
       <use xlink:href="#m5110aca521" x="42.134746" y="339.84" style="stroke: #000000; stroke-width: 0.8"/>
      </g>
     </g>
    </g>
    <g id="xtick_2">
     <g id="line2d_3">
      <path d="M 109.559034 339.84 
L 109.559034 7.2 
" clip-path="url(#p3623a91aa0)" style="fill: none; stroke: #b0b0b0; stroke-opacity: 0.3; stroke-width: 0.8; stroke-linecap: square"/>
     </g>
     <g id="line2d_4">
      <g>
       <use xlink:href="#m5110aca521" x="109.559034" y="339.84" style="stroke: #000000; stroke-width: 0.8"/>
      </g>
     </g>
    </g>
    <g id="xtick_3">
     <g id="line2d_5">
      <path d="M 176.983321 339.84 
L 176.983321 7.2 
" clip-path="url(#p3623a91aa0)" style="fill: none; stroke: #b0b0b0; stroke-opacity: 0.3; stroke-width: 0.8; stroke-linecap: square"/>
     </g>
     <g id="line2d_6">
      <g>
       <use xlink:href="#m5110aca521" x="176.983321" y="339.84" style="stroke: #000000; stroke-width: 0.8"/>
      </g>
     </g>
    </g>
    <g id="xtick_4">
     <g id="line2d_7">
      <path d="M 244.407609 339.84 
L 244.407609 7.2 
" clip-path="url(#p3623a91aa0)" style="fill: none; stroke: #b0b0b0; stroke-opacity: 0.3; stroke-width: 0.8; stroke-linecap: square"/>
     </g>
     <g id="line2d_8">
      <g>
       <use xlink:href="#m5110aca521" x="244.407609" y="339.84" style="stroke: #000000; stroke-width: 0.8"/>
      </g>
     </g>
    </g>
    <g id="xtick_5">
     <g id="line2d_9">
      <path d="M 311.831896 339.84 
L 311.831896 7.2 
" clip-path="url(#p3623a91aa0)" style="fill: none; stroke: #b0b0b0; stroke-opacity: 0.3; stroke-width: 0.8; stroke-linecap: square"/>
     </g>
     <g id="line2d_10">
      <g>
       <use xlink:href="#m5110aca521" x="311.831896" y="339.84" style="stroke: #000000; stroke-width: 0.8"/>
      </g>
     </g>
    </g>
   </g>
   <g id="matplotlib.axis_2">
    <g id="ytick_1">
     <g id="line2d_11">
      <path d="M 10.7 323.069513 
L 345.5 323.069513 
" clip-path="url(#p3623a91aa0)" style="fill: none; stroke: #b0b0b0; stroke-opacity: 0.3; stroke-width: 0.8; stroke-linecap: square"/>
     </g>
     <g id="line2d_12">
      <defs>
       <path id="md5c3da4f4e" d="M 0 0 
L -3.5 0 
" style="stroke: #000000; stroke-width: 0.8"/>
      </defs>
      <g>
       <use xlink:href="#md5c3da4f4e" x="10.7" y="323.069513" style="stroke: #000000; stroke-width: 0.8"/>
      </g>
     </g>
    </g>
    <g id="ytick_2">
     <g id="line2d_13">
      <path d="M 10.7 273.232977 
L 345.5 273.232977 
" clip-path="url(#p3623a91aa0)" style="fill: none; stroke: #b0b0b0; stroke-opacity: 0.3; stroke-width: 0.8; stroke-linecap: square"/>
     </g>
     <g id="line2d_14">
      <g>
       <use xlink:href="#md5c3da4f4e" x="10.7" y="273.232977" style="stroke: #000000; stroke-width: 0.8"/>
      </g>
     </g>
    </g>
    <g id="ytick_3">
     <g id="line2d_15">
      <path d="M 10.7 223.396442 
L 345.5 223.396442 
" clip-path="url(#p3623a91aa0)" style="fill: none; stroke: #b0b0b0; stroke-opacity: 0.3; stroke-width: 0.8; stroke-linecap: square"/>
     </g>
     <g id="line2d_16">
      <g>
       <use xlink:href="#md5c3da4f4e" x="10.7" y="223.396442" style="stroke: #000000; stroke-width: 0.8"/>
      </g>
     </g>
    </g>
    <g id="ytick_4">
     <g id="line2d_17">
      <path d="M 10.7 173.559906 
L 345.5 173.559906 
" clip-path="url(#p3623a91aa0)" style="fill: none; stroke: #b0b0b0; stroke-opacity: 0.3; stroke-width: 0.8; stroke-linecap: square"/>
     </g>
     <g id="line2d_18">
      <g>
       <use xlink:href="#md5c3da4f4e" x="10.7" y="173.559906" style="stroke: #000000; stroke-width: 0.8"/>
      </g>
     </g>
    </g>
    <g id="ytick_5">
     <g id="line2d_19">
      <path d="M 10.7 123.72337 
L 345.5 123.72337 
" clip-path="url(#p3623a91aa0)" style="fill: none; stroke: #b0b0b0; stroke-opacity: 0.3; stroke-width: 0.8; stroke-linecap: square"/>
     </g>
     <g id="line2d_20">
      <g>
       <use xlink:href="#md5c3da4f4e" x="10.7" y="123.72337" style="stroke: #000000; stroke-width: 0.8"/>
      </g>
     </g>
    </g>
    <g id="ytick_6">
     <g id="line2d_21">
      <path d="M 10.7 73.886834 
L 345.5 73.886834 
" clip-path="url(#p3623a91aa0)" style="fill: none; stroke: #b0b0b0; stroke-opacity: 0.3; stroke-width: 0.8; stroke-linecap: square"/>
     </g>
     <g id="line2d_22">
      <g>
       <use xlink:href="#md5c3da4f4e" x="10.7" y="73.886834" style="stroke: #000000; stroke-width: 0.8"/>
      </g>
     </g>
    </g>
    <g id="ytick_7">
     <g id="line2d_23">
      <path d="M 10.7 24.050299 
L 345.5 24.050299 
" clip-path="url(#p3623a91aa0)" style="fill: none; stroke: #b0b0b0; stroke-opacity: 0.3; stroke-width: 0.8; stroke-linecap: square"/>
     </g>
     <g id="line2d_24">
      <g>
       <use xlink:href="#md5c3da4f4e" x="10.7" y="24.050299" style="stroke: #000000; stroke-width: 0.8"/>
      </g>
     </g>
    </g>
   </g>
   <g id="line2d_25">
    <path d="M 176.983321 173.559906 
L 188.296277 145.842561 
L 188.838203 144.544798 
L 186.48929 150.448252 
L 174.099841 181.208944 
L 165.505025 202.171134 
L 159.907914 215.320497 
L 154.274092 227.946984 
L 148.876504 239.340944 
L 144.001474 248.964154 
L 139.937059 256.470179 
L 135.709299 263.763665 
L 135.100876 264.753186 
L 139.082674 253.367713 
L 143.834446 240.275387 
L 150.381251 222.937326 
L 158.571915 202.056998 
L 171.620197 169.712128 
L 178.833654 152.061312 
L 186.346985 134.263128 
L 190.174623 125.566599 
L 194.026582 117.13313 
L 197.885339 109.045089 
L 201.733315 101.370156 
L 205.552993 94.159594 
L 209.327025 87.448197 
L 213.03826 81.254965 
L 216.669874 75.584822 
L 220.205359 70.430841 
L 223.628593 65.776866 
L 226.923849 61.600021 
L 230.07578 57.872993 
L 233.069488 54.566015 
L 235.890496 51.648553 
L 240.958729 46.863572 
L 245.173756 43.299411 
L 249.682911 39.868182 
L 251.863873 38.348753 
L 247.729824 51.800846 
L 243.870905 63.740462 
L 238.792595 78.683937 
L 232.562069 96.037276 
L 225.272374 115.278463 
L 217.039747 136.025921 
L 208.001479 158.068296 
L 193.282173 193.328226 
L 188.154927 205.281623 
L 182.956968 217.007774 
L 177.712847 228.316657 
L 172.447153 239.045839 
L 167.184288 249.069102 
L 161.948269 258.300991 
L 156.762537 266.696151 
L 151.649875 274.244884 
L 146.632339 280.966918 
L 141.731224 286.90352 
L 136.967075 292.11049 
L 132.359651 296.65183 
L 127.928024 300.594009 
L 123.690573 304.002635 
L 119.664983 306.939852 
L 115.868277 309.462753 
L 112.316824 311.622477 
L 106.011878 315.02633 
L 100.867769 317.44082 
L 95.557053 319.635092 
L 93.398669 320.448932 
L 93.422028 320.261749 
L 97.36998 307.405208 
L 101.647605 294.205301 
L 107.394718 277.481394 
L 110.791085 268.06036 
L 114.516885 258.061589 
L 118.555522 247.567128 
L 122.888725 236.644836 
L 132.357941 213.710935 
L 142.748408 189.493427 
L 159.622873 150.978598 
L 165.481282 138.054488 
L 171.408005 125.491623 
L 177.373454 113.511022 
L 183.348203 102.290882 
L 189.303293 91.957334 
L 195.210463 82.582742 
L 201.042295 74.189966 
L 206.77232 66.760954 
L 212.375067 60.247306 
L 217.826067 54.580581 
L 223.101832 49.681404 
L 228.179842 45.466791 
L 233.038507 41.855399 
L 237.657119 38.770758 
L 242.015861 36.143481 
L 246.095783 33.911981 
L 249.878779 32.022545 
L 256.486148 29.094958 
L 261.711394 27.077023 
L 268.037603 24.93756 
L 268.064711 25.047807 
L 263.846936 38.170347 
L 259.163259 51.952285 
L 252.846011 69.434143 
L 249.108516 79.272604 
L 245.007548 89.703418 
L 240.562457 100.639146 
L 235.794441 112.00892 
L 230.726417 123.759509 
L 219.790129 148.278618 
L 201.798327 187.499944 
L 195.497684 200.942046 
L 189.098699 214.164749 
L 182.634294 226.907311 
L 176.137425 238.946759 
L 169.640728 250.113218 
L 163.17621 260.296716 
L 156.775024 269.445819 
L 150.467317 277.559988 
L 144.282145 284.678433 
L 138.247446 290.867659 
L 132.390044 296.210573 
L 126.735659 300.797023 
L 121.308955 304.71703 
L 116.13355 308.056135 
L 111.23201 310.892538 
L 106.625905 313.295829 
L 102.335805 315.326636 
L 98.381262 317.036899 
L 91.551825 319.663474 
L 84.25134 322.071074 
L 80.571467 323.147528 
L 84.318942 312.013053 
L 89.005251 298.779716 
L 95.485661 281.555621 
L 99.363845 271.754227 
L 103.643857 261.310944 
L 108.305229 250.32204 
L 113.32541 238.866782 
L 118.680024 227.0057 
L 130.285925 202.213602 
L 142.893267 176.057282 
L 156.247587 148.751492 
L 163.119389 135.202736 
L 170.073683 122.099974 
L 177.074726 109.686705 
L 184.087049 98.152442 
L 191.075776 87.622822 
L 198.006892 78.160534 
L 204.847417 69.772446 
L 211.565508 62.421395 
L 218.130516 56.039339 
L 224.512973 50.540022 
L 230.684615 45.828821 
L 236.6183 41.810643 
L 242.288035 38.394977 
L 247.668946 35.498975 
L 252.737256 33.048847 
L 257.47036 30.980947 
L 261.846742 29.240661 
L 269.449053 26.566458 
L 275.395886 24.745989 
L 282.237476 22.905083 
L 281.535003 24.984537 
L 276.676113 38.479954 
L 270.950393 53.476719 
L 267.373668 62.414799 
L 263.342073 72.144297 
L 258.874655 82.548858 
L 253.992849 93.526152 
L 248.72034 104.991083 
L 243.082891 116.877604 
L 237.108204 129.139327 
L 224.266984 154.699542 
L 210.453287 181.657991 
L 203.268936 195.503076 
L 195.948799 209.239299 
L 188.530806 222.576413 
L 181.053136 235.256769 
L 173.553784 247.075327 
L 166.070183 257.891256 
L 158.638949 267.629418 
L 151.295652 276.27386 
L 144.074688 283.856188 
L 137.009218 290.441843 
L 130.131155 296.117045 
L 123.471141 300.978307 
L 117.058584 305.123286 
L 110.921674 308.645414 
L 105.087376 311.63056 
L 99.581457 314.155262 
L 94.428464 316.286083 
L 89.651708 318.079956 
L 81.313759 320.840799 
L 74.727874 322.7302 
L 66.772655 324.72 
L 66.737268 324.602656 
L 69.864476 316.236165 
L 74.629416 304.027045 
L 81.460766 287.509149 
L 85.614567 277.952844 
L 90.235094 267.694074 
L 95.300073 256.839611 
L 100.784842 245.479562 
L 106.662515 233.685285 
L 112.904136 221.508529 
L 126.353768 196.117385 
L 148.427426 155.525646 
L 156.142705 141.733095 
L 163.970917 128.261665 
L 171.871721 115.379015 
L 179.804857 103.305494 
L 187.730506 92.199323 
L 195.609633 82.15321 
L 203.404224 73.198606 
L 211.077436 65.316152 
L 218.593702 58.44886 
L 225.918757 52.515708 
L 233.01968 47.422828 
L 239.864835 43.072915 
L 246.423927 39.371333 
L 252.66796 36.230115 
L 258.569266 33.57033 
L 264.101542 31.323117 
L 269.239797 29.429081 
L 278.241279 26.507884 
L 285.402398 24.498946 
L 293.643522 22.481625 
L 294.511724 22.32 
L 291.573062 29.756558 
L 286.789844 41.385849 
L 279.825096 57.397186 
L 275.562214 66.731409 
L 270.805106 76.78781 
L 265.576758 87.457245 
L 259.902683 98.646268 
L 253.810765 110.279407 
L 247.331076 122.300311 
L 240.495712 134.671837 
L 225.895915 160.410446 
L 210.304719 187.477406 
L 202.236167 201.215011 
L 194.040857 214.715785 
L 185.761019 227.708172 
L 177.438944 239.96168 
L 169.11656 251.302589 
L 160.835092 261.620445 
L 152.634773 270.86698 
L 144.554708 279.046739 
L 136.63269 286.204636 
L 128.905177 292.413205 
L 121.40724 297.760943 
L 114.172539 302.34242 
L 107.233355 306.251375 
L 100.620554 309.576051 
L 94.363576 312.396763 
L 88.490433 314.784392 
L 83.027667 316.800314 
L 78.000314 318.496776 
L 69.344063 321.099361 
L 60.157823 323.476993 
L 55.659377 324.512749 
L 60.54883 312.93148 
L 66.507715 299.529345 
L 70.330109 291.295259 
L 74.691804 282.205941 
L 79.572003 272.381557 
L 84.947033 261.932281 
L 90.790599 250.953412 
L 97.073947 239.52333 
L 103.766032 227.702103 
L 110.833687 215.531252 
L 125.953145 190.217288 
L 142.129177 163.599714 
L 150.511324 150.002279 
L 159.032404 136.558531 
L 167.648573 123.538314 
L 176.315791 111.177878 
L 184.990257 99.662699 
L 193.628788 89.118513 
L 202.189114 79.610881 
L 210.630098 71.151673 
L 218.911889 63.709807 
L 226.996015 57.223584 
L 234.845442 51.612333 
L 242.424603 46.786436 
L 249.699405 42.654814 
L 256.637269 39.129989 
L 263.207165 36.131428 
L 269.379577 33.587146 
L 275.126554 31.434234 
L 280.421759 29.618755 
L 289.560077 26.82529 
L 296.61845 24.928603 
L 304.281127 23.094038 
L 299.491352 33.842708 
L 293.445645 46.758354 
L 289.546331 54.748513 
L 285.085883 63.597987 
L 280.085641 73.188214 
L 274.569892 83.409943 
L 268.565653 94.16727 
L 262.102498 105.380219 
L 255.212369 116.986176 
L 247.92942 128.940195 
L 232.331782 153.798736 
L 215.621672 179.916863 
L 206.954418 193.321473 
L 198.137902 206.644609 
L 189.217351 219.622436 
L 180.23832 232.017626 
L 171.246259 243.637237 
L 162.286081 254.343434 
L 153.401843 264.056034 
L 144.636503 272.748109 
L 136.031757 280.436544 
L 127.62788 287.172089 
L 119.463685 293.026327 
L 111.576468 298.082552 
L 104.001953 302.427964 
L 96.77426 306.147852 
L 89.925936 309.321978 
L 83.487905 312.022472 
L 77.489377 314.313141 
L 71.957757 316.249076 
L 62.396262 319.236783 
L 54.986588 321.27448 
L 46.788915 323.28217 
L 49.38139 317.697091 
L 54.277507 307.515204 
L 61.626417 292.978322 
L 66.18057 284.364004 
L 71.293126 275.007912 
L 76.93921 265.017781 
L 83.091108 254.489191 
L 89.718485 243.502855 
L 96.788573 232.123148 
L 104.266326 220.397652 
L 112.114612 208.35744 
L 128.764521 183.379099 
L 146.404022 157.25671 
L 155.483467 144.101197 
L 164.674375 131.21913 
L 173.929851 118.845375 
L 183.203026 107.176665 
L 192.447468 96.359858 
L 201.617527 86.487537 
L 210.668616 77.600418 
L 219.557406 69.694724 
L 228.241965 62.732411 
L 236.681872 56.651336 
L 244.838289 51.37532 
L 252.674007 46.822401 
L 260.153447 42.910554 
L 267.242716 39.561602 
L 273.909699 36.703941 
L 280.124046 34.273672 
L 285.857244 32.214997 
L 295.775664 29.028167 
L 303.475666 26.846261 
L 312.085285 24.672242 
L 311.030145 26.865337 
L 307.356068 34.268098 
L 301.111801 46.355547 
L 297.057875 53.902768 
L 292.407015 62.300781 
L 287.181592 71.436895 
L 281.407085 81.205603 
L 275.111858 91.512564 
L 268.326957 102.277243 
L 261.085936 113.434444 
L 253.424676 124.934715 
L 245.381189 136.744271 
L 228.309503 161.230952 
L 210.212715 186.839034 
L 200.893734 199.798647 
L 191.45746 212.544771 
L 181.951967 224.847673 
L 172.425371 236.51032 
L 162.925424 247.380304 
L 153.499156 257.355855 
L 144.192574 266.38518 
L 135.050452 274.46013 
L 126.116162 281.607832 
L 117.431542 287.880834 
L 109.036825 293.347525 
L 100.97058 298.084256 
L 93.26965 302.169275 
L 85.969082 305.678238 
L 79.102065 308.681249 
L 72.69992 311.241893 
L 66.792036 313.416116 
L 56.566599 316.791505 
L 48.620166 319.11054 
L 39.68077 321.439599 
L 40.720378 319.373792 
L 44.443822 312.222072 
L 50.800189 300.476441 
L 54.93279 293.123427 
L 59.676804 284.929642 
L 65.009341 276.004328 
L 70.904353 266.450373 
L 77.332874 256.360455 
L 84.263169 245.814472 
L 91.660944 234.877967 
L 99.489562 223.60159 
L 107.710165 212.021148 
L 125.161939 188.021051 
L 143.66757 162.934699 
L 153.199535 150.190551 
L 162.853244 137.607833 
L 172.579605 125.409422 
L 182.329418 113.790582 
L 192.053768 102.906742 
L 201.704403 92.866547 
L 211.234044 83.731741 
L 220.596637 75.520643 
L 229.747534 68.216321 
L 238.643619 61.775732 
L 247.243445 56.138332 
L 255.50729 51.23376 
L 263.397197 46.9883 
L 270.877031 43.329349 
L 277.91264 40.188428 
L 284.471867 37.503023 
L 290.524517 35.217547 
L 300.999639 31.659509 
L 309.139154 29.207951 
L 318.299673 26.738511 
L 317.243018 28.743107 
L 313.444686 35.711795 
L 306.958268 47.173804 
L 302.740989 54.357037 
L 297.899827 62.367846 
L 292.458178 71.100778 
L 286.442652 80.455718 
L 279.882847 90.342115 
L 272.811162 100.681272 
L 265.262561 111.40796 
L 257.274434 122.47095 
L 248.886404 133.83301 
L 231.079202 157.371778 
L 212.196149 181.957685 
L 202.46924 194.480343 
L 192.617573 206.882393 
L 182.691106 218.948789 
L 172.74002 230.487821 
L 162.814239 241.343718 
L 152.963056 251.403586 
L 143.23484 260.598869 
L 133.67676 268.902565 
L 124.334595 276.322348 
L 115.252557 282.893093 
L 106.473173 288.668219 
L 98.037195 293.711926 
L 89.983582 298.093211 
L 82.349345 301.881423 
L 75.169466 305.142742 
L 68.47691 307.93823 
L 62.302535 310.322712 
L 51.621024 314.044584 
L 43.327735 316.61544 
L 34.023602 319.204797 
L 35.117785 317.221843 
L 41.980554 305.292338 
L 49.930945 292.146913 
L 54.868286 284.30368 
L 60.416269 275.749704 
L 66.54772 266.581912 
L 73.23243 256.88862 
L 80.437375 246.747051 
L 88.126904 236.221859 
L 96.262926 225.364488 
L 104.805124 214.213153 
L 122.936508 191.118918 
L 152.061176 154.720736 
L 162.089032 142.509984 
L 172.192662 130.593425 
L 182.321064 119.157801 
L 192.423446 108.357867 
L 202.449576 98.309013 
L 212.35014 89.084885 
L 222.077003 80.719538 
L 231.583421 73.212861 
L 240.824208 66.537823 
L 249.755911 60.648164 
L 258.336858 55.485502 
L 266.527234 50.98554 
L 274.289283 47.082628 
L 281.587304 43.713165 
L 288.387612 40.81788 
L 294.658676 38.343091 
L 305.49856 34.471036 
L 313.90162 31.791106 
L 323.260053 29.102114 
L 322.101416 31.108608 
L 315.057696 42.857958 
L 306.935619 55.759219 
L 301.898594 63.453702 
L 296.242486 71.845681 
L 289.995007 80.841547 
L 283.186927 90.355592 
L 275.851866 100.312407 
L 268.025966 110.648507 
L 259.748002 121.31254 
L 251.05908 132.265549 
L 232.622677 154.942501 
L 203.021894 190.665696 
L 192.833132 202.682044 
L 182.568655 214.437493 
L 172.280209 225.750876 
L 162.01937 236.469875 
L 151.837155 246.478325 
L 141.783698 255.699066 
L 131.90798 264.09272 
L 122.257592 271.652885 
L 112.878543 278.400284 
L 103.815089 284.375066 
L 95.109701 289.629997 
L 86.802844 294.224818 
L 78.932999 298.22153 
L 71.536531 301.680928 
L 64.647599 304.660327 
L 58.298191 307.212057 
L 47.333859 311.213286 
L 38.851451 313.987173 
L 29.495919 316.753751 
L 32.433643 311.925485 
L 37.968836 303.095306 
L 46.262903 290.412449 
L 51.397636 282.854482 
L 57.158549 274.612631 
L 63.517379 265.777464 
L 70.442781 256.432213 
L 77.900538 246.650469 
L 85.853891 236.494617 
L 94.263434 226.015621 
L 103.087417 215.252753 
L 121.801783 192.97602 
L 151.829457 157.906495 
L 162.160701 146.085942 
L 172.566702 134.498173 
L 182.995056 123.31847 
L 193.393516 112.696015 
L 203.710371 102.746731 
L 213.894761 93.550058 
L 223.896989 85.149498 
L 233.668738 77.556791 
L 243.163284 70.757129 
L 252.335665 64.716028 
L 261.142776 59.3859 
L 269.54349 54.711496 
L 277.498781 50.634464 
L 284.971734 47.096887 
L 291.927751 44.043601 
L 298.334439 41.423837 
L 309.382714 37.308039 
L 317.907085 34.451887 
L 327.18245 31.630164 
L 324.078133 36.538513 
L 318.389381 45.281979 
L 309.912355 57.781055 
L 304.67641 65.218696 
L 298.808404 73.326025 
L 292.337172 82.0153 
L 285.294649 91.20573 
L 277.715674 100.825611 
L 269.63776 110.813677 
L 261.100899 121.119717 
L 252.147364 131.704618 
L 233.169611 153.607238 
L 202.745184 188.062552 
L 192.283592 199.690548 
L 181.749133 211.10713 
L 171.194772 222.143164 
L 160.673336 232.653299 
L 150.23714 242.522968 
L 139.937646 251.671817 
L 129.825165 260.053489 
L 119.94863 267.652148 
L 110.355364 274.477808 
L 101.090915 280.56003 
L 92.198963 285.941746 
L 83.721121 290.674091 
L 75.696947 294.811872 
L 68.163696 298.410202 
L 61.156423 301.521969 
L 54.707712 304.196298 
L 43.604208 308.404762 
L 35.063987 311.326931 
L 25.918182 314.18003 
L 31.770738 305.323498 
L 39.042357 294.735568 
L 49.051577 280.822364 
L 55.024195 272.839107 
L 61.604068 264.285793 
L 68.758707 255.240735 
L 76.452726 245.773646 
L 84.648027 235.944434 
L 93.30404 225.802559 
L 102.377928 215.387014 
L 121.597619 193.841019 
L 152.379638 159.973696 
L 162.956891 148.534849 
L 173.604401 137.289917 
L 184.268689 126.401878 
L 194.896416 116.011929 
L 205.434755 106.232804 
L 215.831727 97.145044 
L 226.036486 88.797243 
L 235.999591 81.208574 
L 245.673219 74.372859 
L 255.011334 68.264923 
L 263.969817 62.846179 
L 272.506602 58.069376 
L 280.58177 53.883049 
L 288.157635 50.234636 
L 295.198882 47.074213 
L 301.672682 44.35413 
L 312.799326 40.067788 
L 321.326171 37.091323 
L 330.281818 34.230915 
L 324.136981 43.222452 
L 316.683171 53.719012 
L 306.473277 67.457121 
L 300.394732 75.328701 
L 293.705953 83.758041 
L 286.439991 92.669292 
L 278.632788 101.994742 
L 270.322983 111.675949 
L 261.551678 121.664377 
L 252.362289 131.921385 
L 232.913116 153.133543 
L 201.79857 186.448822 
L 191.115565 197.704802 
L 180.365621 208.779739 
L 169.602649 219.516744 
L 158.88043 229.778899 
L 148.25224 239.455842 
L 137.770498 248.467734 
L 127.486495 256.764752 
L 117.450118 264.325213 
L 107.709598 271.152174 
L 98.311373 277.267029 
L 89.299951 282.704654 
L 80.717763 287.50871 
L 72.605031 291.727598 
L 64.999647 295.411011 
L 57.93713 298.606859 
L 51.450564 301.361031 
L 40.324313 305.705777 
L 40.324313 305.705777 
" clip-path="url(#p3623a91aa0)" style="fill: none; stroke: #0000ff; stroke-linecap: square"/>
   </g>
   <g id="line2d_26">
    <defs>
     <path id="m1de1a10410" d="M 0 -3 
L -0.673542 -0.927051 
L -2.85317 -0.927051 
L -1.089814 0.354102 
L -1.763356 2.427051 
L -0 1.145898 
L 1.763356 2.427051 
L 1.089814 0.354102 
L 2.85317 -0.927051 
L 0.673542 -0.927051 
z
" style="stroke: #0000ff; stroke-linejoin: bevel"/>
    </defs>
    <g clip-path="url(#p3623a91aa0)">
     <use xlink:href="#m1de1a10410" x="176.983321" y="173.559906" style="fill: #0000ff; stroke: #0000ff; stroke-linejoin: bevel"/>
    </g>
   </g>
   <g id="patch_3">
    <path d="M 10.7 339.84 
L 10.7 7.2 
" style="fill: none; stroke: #000000; stroke-width: 0.8; stroke-linejoin: miter; stroke-linecap: square"/>
   </g>
   <g id="patch_4">
    <path d="M 345.5 339.84 
L 345.5 7.2 
" style="fill: none; stroke: #000000; stroke-width: 0.8; stroke-linejoin: miter; stroke-linecap: square"/>
   </g>
   <g id="patch_5">
    <path d="M 10.7 339.84 
L 345.5 339.84 
" style="fill: none; stroke: #000000; stroke-width: 0.8; stroke-linejoin: miter; stroke-linecap: square"/>
   </g>
   <g id="patch_6">
    <path d="M 10.7 7.2 
L 345.5 7.2 
" style="fill: none; stroke: #000000; stroke-width: 0.8; stroke-linejoin: miter; stroke-linecap: square"/>
   </g>
  </g>
 </g>
 <defs>
  <clipPath id="p3623a91aa0">
   <rect x="10.7" y="7.2" width="334.8" height="332.64"/>
  </clipPath>
 </defs>
</svg>
