<?xml version="1.0" encoding="utf-8" standalone="no"?>
<!DOCTYPE svg PUBLIC "-//W3C//DTD SVG 1.1//EN"
  "http://www.w3.org/Graphics/SVG/1.1/DTD/svg11.dtd">
<svg xmlns:xlink="http://www.w3.org/1999/xlink" width="352.7pt" height="350.54pt" viewBox="0 0 352.7 350.54" xmlns="http://www.w3.org/2000/svg" version="1.1">
 <metadata>
  <rdf:RDF xmlns:dc="http://purl.org/dc/elements/1.1/" xmlns:cc="http://creativecommons.org/ns#" xmlns:rdf="http://www.w3.org/1999/02/22-rdf-syntax-ns#">
   <cc:Work>
    <dc:type rdf:resource="http://purl.org/dc/dcmitype/StillImage"/>
    <dc:date>2025-02-18T14:43:21.237562</dc:date>
    <dc:format>image/svg+xml</dc:format>
    <dc:creator>
     <cc:Agent>
      <dc:title>Matplotlib v3.9.2, https://matplotlib.org/</dc:title>
     </cc:Agent>
    </dc:creator>
   </cc:Work>
  </rdf:RDF>
 </metadata>
 <defs>
  <style type="text/css">*{stroke-linejoin: round; stroke-linecap: butt}</style>
 </defs>
 <g id="figure_1">
  <g id="patch_1">
   <path d="M 0 350.54 
L 352.7 350.54 
L 352.7 0 
L 0 0 
z
" style="fill: #ffffff"/>
  </g>
  <g id="axes_1">
   <g id="patch_2">
    <path d="M 10.7 339.84 
L 345.5 339.84 
L 345.5 7.2 
L 10.7 7.2 
z
" style="fill: #ffffff"/>
   </g>
   <g id="matplotlib.axis_1">
    <g id="xtick_1">
     <g id="line2d_1">
      <path d="M 43.350495 339.84 
L 43.350495 7.2 
" clip-path="url(#p55d0fb6a35)" style="fill: none; stroke: #b0b0b0; stroke-opacity: 0.3; stroke-width: 0.8; stroke-linecap: square"/>
     </g>
     <g id="line2d_2">
      <defs>
       <path id="mb443fd098f" d="M 0 0 
L 0 3.5 
" style="stroke: #000000; stroke-width: 0.8"/>
      </defs>
      <g>
       <use xlink:href="#mb443fd098f" x="43.350495" y="339.84" style="stroke: #000000; stroke-width: 0.8"/>
      </g>
     </g>
    </g>
    <g id="xtick_2">
     <g id="line2d_3">
      <path d="M 85.293565 339.84 
L 85.293565 7.2 
" clip-path="url(#p55d0fb6a35)" style="fill: none; stroke: #b0b0b0; stroke-opacity: 0.3; stroke-width: 0.8; stroke-linecap: square"/>
     </g>
     <g id="line2d_4">
      <g>
       <use xlink:href="#mb443fd098f" x="85.293565" y="339.84" style="stroke: #000000; stroke-width: 0.8"/>
      </g>
     </g>
    </g>
    <g id="xtick_3">
     <g id="line2d_5">
      <path d="M 127.236635 339.84 
L 127.236635 7.2 
" clip-path="url(#p55d0fb6a35)" style="fill: none; stroke: #b0b0b0; stroke-opacity: 0.3; stroke-width: 0.8; stroke-linecap: square"/>
     </g>
     <g id="line2d_6">
      <g>
       <use xlink:href="#mb443fd098f" x="127.236635" y="339.84" style="stroke: #000000; stroke-width: 0.8"/>
      </g>
     </g>
    </g>
    <g id="xtick_4">
     <g id="line2d_7">
      <path d="M 169.179705 339.84 
L 169.179705 7.2 
" clip-path="url(#p55d0fb6a35)" style="fill: none; stroke: #b0b0b0; stroke-opacity: 0.3; stroke-width: 0.8; stroke-linecap: square"/>
     </g>
     <g id="line2d_8">
      <g>
       <use xlink:href="#mb443fd098f" x="169.179705" y="339.84" style="stroke: #000000; stroke-width: 0.8"/>
      </g>
     </g>
    </g>
    <g id="xtick_5">
     <g id="line2d_9">
      <path d="M 211.122775 339.84 
L 211.122775 7.2 
" clip-path="url(#p55d0fb6a35)" style="fill: none; stroke: #b0b0b0; stroke-opacity: 0.3; stroke-width: 0.8; stroke-linecap: square"/>
     </g>
     <g id="line2d_10">
      <g>
       <use xlink:href="#mb443fd098f" x="211.122775" y="339.84" style="stroke: #000000; stroke-width: 0.8"/>
      </g>
     </g>
    </g>
    <g id="xtick_6">
     <g id="line2d_11">
      <path d="M 253.065845 339.84 
L 253.065845 7.2 
" clip-path="url(#p55d0fb6a35)" style="fill: none; stroke: #b0b0b0; stroke-opacity: 0.3; stroke-width: 0.8; stroke-linecap: square"/>
     </g>
     <g id="line2d_12">
      <g>
       <use xlink:href="#mb443fd098f" x="253.065845" y="339.84" style="stroke: #000000; stroke-width: 0.8"/>
      </g>
     </g>
    </g>
    <g id="xtick_7">
     <g id="line2d_13">
      <path d="M 295.008915 339.84 
L 295.008915 7.2 
" clip-path="url(#p55d0fb6a35)" style="fill: none; stroke: #b0b0b0; stroke-opacity: 0.3; stroke-width: 0.8; stroke-linecap: square"/>
     </g>
     <g id="line2d_14">
      <g>
       <use xlink:href="#mb443fd098f" x="295.008915" y="339.84" style="stroke: #000000; stroke-width: 0.8"/>
      </g>
     </g>
    </g>
    <g id="xtick_8">
     <g id="line2d_15">
      <path d="M 336.951985 339.84 
L 336.951985 7.2 
" clip-path="url(#p55d0fb6a35)" style="fill: none; stroke: #b0b0b0; stroke-opacity: 0.3; stroke-width: 0.8; stroke-linecap: square"/>
     </g>
     <g id="line2d_16">
      <g>
       <use xlink:href="#mb443fd098f" x="336.951985" y="339.84" style="stroke: #000000; stroke-width: 0.8"/>
      </g>
     </g>
    </g>
   </g>
   <g id="matplotlib.axis_2">
    <g id="ytick_1">
     <g id="line2d_17">
      <path d="M 10.7 329.693009 
L 345.5 329.693009 
" clip-path="url(#p55d0fb6a35)" style="fill: none; stroke: #b0b0b0; stroke-opacity: 0.3; stroke-width: 0.8; stroke-linecap: square"/>
     </g>
     <g id="line2d_18">
      <defs>
       <path id="mb973209943" d="M 0 0 
L -3.5 0 
" style="stroke: #000000; stroke-width: 0.8"/>
      </defs>
      <g>
       <use xlink:href="#mb973209943" x="10.7" y="329.693009" style="stroke: #000000; stroke-width: 0.8"/>
      </g>
     </g>
    </g>
    <g id="ytick_2">
     <g id="line2d_19">
      <path d="M 10.7 291.368018 
L 345.5 291.368018 
" clip-path="url(#p55d0fb6a35)" style="fill: none; stroke: #b0b0b0; stroke-opacity: 0.3; stroke-width: 0.8; stroke-linecap: square"/>
     </g>
     <g id="line2d_20">
      <g>
       <use xlink:href="#mb973209943" x="10.7" y="291.368018" style="stroke: #000000; stroke-width: 0.8"/>
      </g>
     </g>
    </g>
    <g id="ytick_3">
     <g id="line2d_21">
      <path d="M 10.7 253.043026 
L 345.5 253.043026 
" clip-path="url(#p55d0fb6a35)" style="fill: none; stroke: #b0b0b0; stroke-opacity: 0.3; stroke-width: 0.8; stroke-linecap: square"/>
     </g>
     <g id="line2d_22">
      <g>
       <use xlink:href="#mb973209943" x="10.7" y="253.043026" style="stroke: #000000; stroke-width: 0.8"/>
      </g>
     </g>
    </g>
    <g id="ytick_4">
     <g id="line2d_23">
      <path d="M 10.7 214.718035 
L 345.5 214.718035 
" clip-path="url(#p55d0fb6a35)" style="fill: none; stroke: #b0b0b0; stroke-opacity: 0.3; stroke-width: 0.8; stroke-linecap: square"/>
     </g>
     <g id="line2d_24">
      <g>
       <use xlink:href="#mb973209943" x="10.7" y="214.718035" style="stroke: #000000; stroke-width: 0.8"/>
      </g>
     </g>
    </g>
    <g id="ytick_5">
     <g id="line2d_25">
      <path d="M 10.7 176.393043 
L 345.5 176.393043 
" clip-path="url(#p55d0fb6a35)" style="fill: none; stroke: #b0b0b0; stroke-opacity: 0.3; stroke-width: 0.8; stroke-linecap: square"/>
     </g>
     <g id="line2d_26">
      <g>
       <use xlink:href="#mb973209943" x="10.7" y="176.393043" style="stroke: #000000; stroke-width: 0.8"/>
      </g>
     </g>
    </g>
    <g id="ytick_6">
     <g id="line2d_27">
      <path d="M 10.7 138.068052 
L 345.5 138.068052 
" clip-path="url(#p55d0fb6a35)" style="fill: none; stroke: #b0b0b0; stroke-opacity: 0.3; stroke-width: 0.8; stroke-linecap: square"/>
     </g>
     <g id="line2d_28">
      <g>
       <use xlink:href="#mb973209943" x="10.7" y="138.068052" style="stroke: #000000; stroke-width: 0.8"/>
      </g>
     </g>
    </g>
    <g id="ytick_7">
     <g id="line2d_29">
      <path d="M 10.7 99.743061 
L 345.5 99.743061 
" clip-path="url(#p55d0fb6a35)" style="fill: none; stroke: #b0b0b0; stroke-opacity: 0.3; stroke-width: 0.8; stroke-linecap: square"/>
     </g>
     <g id="line2d_30">
      <g>
       <use xlink:href="#mb973209943" x="10.7" y="99.743061" style="stroke: #000000; stroke-width: 0.8"/>
      </g>
     </g>
    </g>
    <g id="ytick_8">
     <g id="line2d_31">
      <path d="M 10.7 61.418069 
L 345.5 61.418069 
" clip-path="url(#p55d0fb6a35)" style="fill: none; stroke: #b0b0b0; stroke-opacity: 0.3; stroke-width: 0.8; stroke-linecap: square"/>
     </g>
     <g id="line2d_32">
      <g>
       <use xlink:href="#mb973209943" x="10.7" y="61.418069" style="stroke: #000000; stroke-width: 0.8"/>
      </g>
     </g>
    </g>
    <g id="ytick_9">
     <g id="line2d_33">
      <path d="M 10.7 23.093078 
L 345.5 23.093078 
" clip-path="url(#p55d0fb6a35)" style="fill: none; stroke: #b0b0b0; stroke-opacity: 0.3; stroke-width: 0.8; stroke-linecap: square"/>
     </g>
     <g id="line2d_34">
      <g>
       <use xlink:href="#mb973209943" x="10.7" y="23.093078" style="stroke: #000000; stroke-width: 0.8"/>
      </g>
     </g>
    </g>
   </g>
   <g id="line2d_35">
    <path d="M 169.179705 176.393043 
L 171.995747 153.816099 
L 160.773389 243.506947 
L 165.114347 208.20687 
L 174.84371 130.302495 
L 179.376478 94.513338 
L 180.130195 91.818589 
L 181.482543 90.600349 
L 181.203492 90.964382 
L 180.234911 92.203158 
L 179.470546 94.52071 
L 169.591159 174.570743 
L 159.683504 253.193189 
L 158.3879 261.242964 
L 153.287365 265.660265 
L 151.755179 266.868107 
L 152.0921 266.358601 
L 157.177482 259.797305 
L 159.200389 253.806843 
L 167.430241 187.389721 
L 177.507597 107.563875 
L 180.884342 89.600705 
L 184.172916 86.855163 
L 190.453037 82.035276 
L 196.45618 77.830899 
L 202.226016 74.149555 
L 207.687383 70.969605 
L 212.68522 68.288262 
L 220.236093 64.568906 
L 222.354951 63.582713 
L 217.758879 70.190897 
L 214.959035 74.120459 
L 211.423032 78.88226 
L 207.124292 84.322438 
L 202.043392 90.283366 
L 196.168056 96.604893 
L 189.489185 103.133243 
L 182.000734 109.700688 
L 173.77948 156.946231 
L 165.007529 223.791125 
L 155.966742 272.90204 
L 146.884519 277.527954 
L 137.809164 281.665784 
L 128.7647 285.470228 
L 110.921586 292.470948 
L 85.481307 301.959911 
L 32.469027 321.38845 
L 34.411901 318.562951 
L 40.975021 309.176108 
L 46.020335 302.43614 
L 52.230323 294.839773 
L 59.582548 286.751102 
L 68.043468 278.511619 
L 77.568914 270.439089 
L 88.108533 262.832401 
L 99.606233 255.912379 
L 112.001198 249.671645 
L 125.228176 243.891954 
L 139.217164 238.317101 
L 153.895128 232.727827 
L 184.514251 75.782281 
L 324.578369 24.565364 
L 329.749979 22.63746 
L 330.281818 22.32 
L 329.428675 23.4016 
L 318.732552 38.436357 
L 312.603464 46.247238 
L 305.306281 54.59729 
L 296.926279 63.074995 
L 287.5576 71.359188 
L 277.299514 79.109951 
L 266.254367 86.119106 
L 254.526599 92.349049 
L 242.219897 97.970049 
L 229.43822 103.248494 
L 216.285099 108.339611 
L 189.280486 118.391273 
L 175.627059 151.450209 
L 162.199527 249.620322 
L 149.447129 278.629805 
L 83.265083 302.81114 
L 83.537938 302.216399 
L 91.565899 290.698902 
L 96.422125 284.186738 
L 102.221964 277.034189 
L 108.861305 269.618741 
L 116.230673 262.245445 
L 124.215801 255.137069 
L 132.699842 248.499063 
L 141.567089 242.488999 
L 150.703812 237.147234 
L 160.006322 223.28105 
L 178.17866 89.116394 
L 186.294512 75.552971 
L 199.61402 70.439055 
L 208.583002 67.151811 
L 213.011919 65.340888 
L 206.152314 75.220752 
L 201.436157 81.608683 
L 195.592021 88.993736 
L 188.698391 96.919429 
L 180.817807 104.967224 
L 172.112988 165.243329 
L 162.895057 236.477116 
L 153.53554 271.955466 
L 144.340674 277.266365 
L 135.427245 281.770242 
L 126.903382 285.646214 
L 118.875704 289.03775 
L 104.728019 294.644543 
L 84.988578 302.093718 
L 84.381348 302.292128 
L 86.988955 298.504013 
L 90.262271 293.794211 
L 94.85544 287.418688 
L 100.749144 279.829291 
L 107.907876 271.515032 
L 116.282747 262.907611 
L 125.81161 254.374222 
L 136.42156 246.267956 
L 148.032085 238.880737 
L 160.556598 219.338868 
L 173.775007 121.592893 
L 187.214098 75.228777 
L 200.568026 70.096665 
L 226.565533 60.434803 
L 290.764494 36.925297 
L 298.294251 34.200434 
L 309.751106 30.260645 
L 313.521163 28.60745 
L 316.833116 26.590396 
L 314.223001 30.264827 
L 310.65442 35.395493 
L 305.599258 42.436693 
L 299.100375 50.80491 
L 291.218377 59.834321 
L 282.028487 69.065847 
L 271.616717 78.065957 
L 260.078721 86.433113 
L 247.516556 93.900642 
L 234.036691 100.544505 
L 219.748704 106.623775 
L 204.766797 112.507652 
L 189.207386 118.353584 
L 173.19969 169.179026 
L 157.117825 275.813851 
L 33.761606 320.930838 
L 33.781784 320.757037 
L 38.378714 314.19749 
L 42.874056 307.871227 
L 48.744589 300.135541 
L 55.900653 291.636228 
L 64.238379 282.880539 
L 73.643867 274.240269 
L 83.996444 266.089339 
L 95.170121 258.720727 
L 107.037243 252.217955 
L 119.469828 246.407595 
L 132.340616 241.053608 
L 145.522399 235.908591 
L 158.889866 229.524014 
L 172.231037 131.929289 
L 185.058832 75.588128 
L 249.796842 51.865961 
L 246.075686 57.172019 
L 242.114957 62.809147 
L 236.838434 69.953693 
L 230.3328 77.996327 
L 222.700439 86.431302 
L 214.053883 94.855556 
L 204.514088 102.942123 
L 194.208194 110.391247 
L 183.265662 117.012447 
L 171.835317 177.239163 
L 160.308755 262.44009 
L 149.151557 278.216018 
L 128.747774 286.044135 
L 94.178551 298.819167 
L 88.899324 300.759141 
L 88.359763 300.859805 
L 95.47767 290.665002 
L 100.735852 283.510464 
L 107.369303 275.253077 
L 115.309374 266.477329 
L 124.472217 257.595907 
L 134.763043 248.987772 
L 146.07773 241.043737 
L 158.30513 233.971074 
L 171.258907 140.448412 
L 184.468702 76.446844 
L 197.541499 71.294183 
L 222.688777 61.871128 
L 287.313529 38.187153 
L 297.678432 34.480171 
L 293.772231 40.059706 
L 289.482657 46.144023 
L 283.66984 53.916359 
L 276.38699 62.705967 
L 267.703806 71.931463 
L 257.704923 81.152585 
L 246.486584 89.897435 
L 234.153265 97.818765 
L 220.81654 104.842644 
L 206.591721 111.190195 
L 191.603168 117.23577 
L 175.964166 148.852069 
L 159.973508 265.838893 
L 144.197254 280.52568 
L 54.320573 313.403002 
L 38.827249 318.726957 
L 33.256947 320.864954 
L 29.22096 322.761016 
L 25.918182 324.72 
L 29.107602 320.168124 
L 33.108874 314.418707 
L 38.649834 306.862457 
L 45.656317 298.087067 
L 54.033534 288.781714 
L 63.674234 279.470317 
L 74.461341 270.605891 
L 86.271248 262.515375 
L 98.975157 255.348131 
L 112.440922 249.005756 
L 126.536268 243.143953 
L 141.121362 237.476688 
L 156.081135 231.879631 
L 171.237413 139.18463 
L 186.067851 75.208568 
L 275.570153 42.488782 
L 275.037533 43.398817 
L 269.348283 51.551991 
L 264.29259 58.518849 
L 257.86646 66.661049 
L 250.170796 75.37385 
L 241.318805 84.177882 
L 231.434018 92.709177 
L 220.647269 100.591866 
L 209.092902 107.596569 
L 196.90797 113.790134 
L 184.228365 119.382831 
L 171.205461 183.376602 
L 158.258794 275.224124 
L 123.586413 288.062327 
L 82.066757 303.277943 
L 81.812342 303.219699 
L 90.231981 291.201512 
L 96.002918 283.519363 
L 103.151582 274.919442 
L 111.588676 265.958384 
L 121.211218 257.05131 
L 131.905345 248.610772 
L 143.550259 240.959893 
L 156.019169 234.190462 
L 169.149958 155.536832 
L 182.488999 77.01897 
L 195.587459 71.938125 
L 220.380291 62.701891 
L 284.497441 39.211967 
L 284.862924 39.223832 
L 276.507933 51.130687 
L 270.616296 58.979022 
L 263.253891 67.81288 
L 254.496867 77.044213 
L 244.436366 86.247763 
L 233.174769 94.968542 
L 220.823837 102.835173 
L 207.501079 109.787836 
L 193.32825 116.072189 
L 178.431133 130.625041 
L 163.078071 243.055927 
L 147.800565 279.179054 
L 69.265905 307.941 
L 31.002099 321.924912 
L 34.117518 317.385019 
L 38.108601 311.682458 
L 43.666981 304.125412 
L 50.723494 295.415016 
L 59.191013 286.173802 
L 68.968459 276.909182 
L 79.942909 268.039184 
L 91.993456 259.987824 
L 104.993686 252.876037 
L 118.81409 246.518867 
L 133.322525 240.578576 
L 148.385244 234.790302 
L 163.855801 193.169303 
L 179.376103 79.678487 
L 194.42839 72.1455 
L 287.527292 38.107183 
L 287.263814 38.624906 
L 281.962062 46.23695 
L 277.008219 53.124529 
L 270.61358 61.32835 
L 262.872541 70.197898 
L 253.894351 79.20833 
L 243.800424 87.960422 
L 232.718318 96.116869 
L 220.780652 103.401206 
L 208.123747 109.781062 
L 194.886675 115.567298 
L 181.198522 121.029976 
L 167.246069 212.57663 
L 153.530034 277.07083 
L 89.72359 300.462184 
L 72.081959 306.829207 
L 79.944099 295.572239 
L 85.565612 288.026852 
L 92.574888 279.488595 
L 100.878956 270.51524 
L 110.369972 261.586471 
L 120.928861 253.085018 
L 132.430336 245.355318 
L 144.744162 238.517295 
L 157.738116 232.433917 
L 171.211934 139.895718 
L 184.673178 75.958476 
L 210.169708 66.439838 
L 276.438741 42.160851 
L 276.995547 42.003287 
L 269.263312 53.087891 
L 263.611626 60.687339 
L 256.510044 69.343309 
L 248.038616 78.481487 
L 238.293577 87.617915 
L 227.381981 96.322559 
L 215.418893 104.23732 
L 202.525849 111.242218 
L 188.828458 117.516423 
L 174.454709 159.575249 
L 159.740029 267.419348 
L 145.208153 280.096979 
L 92.887728 299.304489 
L 40.852401 318.32491 
L 40.978166 317.855231 
L 50.948085 303.762832 
L 57.356085 295.503084 
L 65.194511 286.483268 
L 74.370777 277.247579 
L 84.77943 268.209958 
L 96.305394 259.830431 
L 108.827403 252.373369 
L 122.219145 245.754809 
L 136.352493 239.701952 
L 151.097837 233.899886 
L 166.315701 175.224284 
L 181.601497 76.872328 
L 258.187569 48.83199 
L 290.947755 36.802232 
L 291.038074 36.968411 
L 286.448497 43.598715 
L 281.831786 50.085766 
L 275.747775 58.070981 
L 268.282215 66.857214 
L 259.536861 75.927033 
L 249.624413 84.837719 
L 238.667067 93.202872 
L 226.79269 100.699756 
L 214.132704 107.315096 
L 200.819634 113.263309 
L 186.989693 118.855874 
L 172.778816 172.110872 
L 158.563831 275.228152 
L 89.761364 300.448505 
L 66.339709 309.010718 
L 66.170151 308.880016 
L 74.901319 296.434807 
L 80.757329 288.696914 
L 87.964964 280.092095 
L 96.427617 271.158503 
L 106.034716 262.340613 
L 116.6661 254.01279 
L 128.196223 246.486757 
L 140.495336 239.835936 
L 153.432891 233.891631 
L 166.866138 171.610504 
L 180.389127 77.495324 
L 205.980715 67.959462 
L 271.84339 43.840276 
L 272.388437 43.705336 
L 268.863432 48.776819 
L 264.814886 54.565743 
L 259.297182 62.007331 
L 252.377178 70.492914 
L 244.137049 79.471778 
L 234.674228 88.454519 
L 224.098088 97.048079 
L 212.524756 104.898336 
L 200.075891 111.860838 
L 186.875815 118.055425 
L 173.051756 169.742414 
L 158.954828 273.104541 
L 145.120507 280.114097 
L 95.960184 298.178334 
L 50.643089 314.851496 
L 51.496378 313.748924 
L 57.857271 304.601331 
L 63.301471 297.1916 
L 70.176161 288.663902 
L 78.400165 279.608997 
L 87.87708 270.499162 
L 98.500037 261.778702 
L 110.154869 253.797362 
L 122.721249 246.706222 
L 136.075717 240.394325 
L 150.095029 234.534334 
L 164.635979 187.618845 
L 179.337869 80.029871 
L 193.695257 72.444848 
L 286.115941 38.623072 
L 288.654244 37.722925 
L 287.598487 39.159448 
L 280.881865 48.811646 
L 275.3085 56.305744 
L 268.35081 64.808161 
L 260.098602 73.763725 
L 250.656525 82.70185 
L 240.138066 91.225272 
L 228.663071 98.994037 
L 216.356245 105.879251 
L 203.343992 112.010285 
L 189.754084 117.681081 
L 175.703976 150.673004 
L 161.489441 254.714949 
L 147.668178 279.240581 
L 62.802224 310.303552 
L 65.244979 306.751535 
L 68.713423 301.773525 
L 73.623314 294.967365 
L 79.905822 286.925588 
L 87.475069 278.259052 
L 96.230837 269.447369 
L 106.062206 260.848172 
L 116.851638 252.813273 
L 128.475749 245.638478 
L 140.808727 239.302691 
L 153.726897 233.567682 
L 167.076006 169.971926 
L 180.453426 77.429907 
L 205.65015 68.072087 
L 269.238152 44.792423 
L 269.630326 44.719545 
L 261.896298 55.797195 
L 256.440413 63.143506 
L 249.644512 71.472326 
L 241.592875 80.251666 
L 232.384159 89.044363 
L 222.126531 97.462425 
L 210.93451 105.164498 
L 198.927703 112.020308 
L 186.22837 118.123126 
L 172.97189 170.218624 
L 159.513906 268.968103 
L 146.338317 279.628972 
L 110.458889 292.868359 
L 60.380152 311.178314 
L 61.738685 309.364996 
L 68.89179 299.136701 
L 74.609272 291.515158 
L 81.669357 282.993329 
L 89.988583 274.103345 
L 99.47027 265.240987 
L 110.008427 256.856126 
L 121.491408 249.240166 
L 133.80243 242.465903 
L 146.821181 236.395124 
L 160.427285 218.714377 
L 174.381925 116.37821 
L 188.177392 74.536304 
L 226.051628 60.589295 
L 282.198329 40.011849 
L 283.171858 39.869977 
L 282.658305 40.750235 
L 277.18766 48.6027 
L 272.29101 55.358221 
L 266.030059 63.342624 
L 258.483963 71.934414 
L 249.745209 80.713653 
L 239.916275 89.285661 
L 229.107977 97.280867 
L 217.436301 104.445975 
L 205.020229 110.811816 
L 191.979508 116.560959 
L 178.433232 130.560011 
L 164.600949 231.896383 
L 151.003403 277.987151 
L 94.080011 298.868588 
L 62.862898 310.334012 
L 66.709853 304.832783 
L 70.778973 299.049476 
L 76.212343 291.72348 
L 82.936714 283.476318 
L 90.863212 274.821175 
L 99.89212 266.167788 
L 109.914947 257.871857 
L 120.816597 250.257454 
L 132.478805 243.496826 
L 144.781176 237.47791 
L 157.603512 231.978517 
L 170.758187 142.98622 
L 183.785567 76.185852 
L 219.104829 63.135049 
L 267.472138 45.43825 
L 267.550402 45.589342 
L 259.246223 57.428692 
L 253.741002 64.782245 
L 246.970302 72.987522 
L 239.020513 81.565541 
L 229.988469 90.123039 
L 219.979647 98.306819 
L 209.106148 105.807677 
L 197.483393 112.47202 
L 185.230509 118.418457 
L 172.456085 173.931462 
L 159.526973 268.831061 
L 146.936263 279.392309 
L 112.988818 291.93931 
L 67.836997 308.463779 
L 68.103241 307.941508 
L 77.368346 294.670007 
L 83.165867 287.094816 
L 90.215359 278.775625 
L 98.433828 270.184171 
L 107.726494 261.680745 
L 117.989949 253.628791 
L 129.115834 246.315713 
L 140.991584 239.809513 
L 153.503503 233.973835 
L 166.520033 174.207525 
L 179.654277 77.871286 
L 192.43324 72.99449 
L 236.95821 56.600139 
L 274.622549 42.8248 
L 274.721005 43.048366 
L 266.577721 54.750417 
L 261.147522 62.001024 
L 254.455736 70.138164 
L 246.582808 78.667651 
L 237.619785 87.185263 
L 227.66779 95.367539 
L 216.833668 102.876331 
L 205.228021 109.573944 
L 192.963566 115.550083 
L 180.150446 121.039642 
L 166.971023 214.411621 
L 153.910846 276.853852 
L 118.272507 290.012339 
L 98.553909 297.230792 
L 98.553909 297.230792 
" clip-path="url(#p55d0fb6a35)" style="fill: none; stroke: #0000ff; stroke-linecap: square"/>
   </g>
   <g id="line2d_36">
    <defs>
     <path id="m587d2966b3" d="M 0 -3 
L -0.673542 -0.927051 
L -2.85317 -0.927051 
L -1.089814 0.354102 
L -1.763356 2.427051 
L -0 1.145898 
L 1.763356 2.427051 
L 1.089814 0.354102 
L 2.85317 -0.927051 
L 0.673542 -0.927051 
z
" style="stroke: #0000ff; stroke-linejoin: bevel"/>
    </defs>
    <g clip-path="url(#p55d0fb6a35)">
     <use xlink:href="#m587d2966b3" x="169.179705" y="176.393043" style="fill: #0000ff; stroke: #0000ff; stroke-linejoin: bevel"/>
    </g>
   </g>
   <g id="patch_3">
    <path d="M 10.7 339.84 
L 10.7 7.2 
" style="fill: none; stroke: #000000; stroke-width: 0.8; stroke-linejoin: miter; stroke-linecap: square"/>
   </g>
   <g id="patch_4">
    <path d="M 345.5 339.84 
L 345.5 7.2 
" style="fill: none; stroke: #000000; stroke-width: 0.8; stroke-linejoin: miter; stroke-linecap: square"/>
   </g>
   <g id="patch_5">
    <path d="M 10.7 339.84 
L 345.5 339.84 
" style="fill: none; stroke: #000000; stroke-width: 0.8; stroke-linejoin: miter; stroke-linecap: square"/>
   </g>
   <g id="patch_6">
    <path d="M 10.7 7.2 
L 345.5 7.2 
" style="fill: none; stroke: #000000; stroke-width: 0.8; stroke-linejoin: miter; stroke-linecap: square"/>
   </g>
  </g>
 </g>
 <defs>
  <clipPath id="p55d0fb6a35">
   <rect x="10.7" y="7.2" width="334.8" height="332.64"/>
  </clipPath>
 </defs>
</svg>
