<?xml version="1.0" encoding="utf-8" standalone="no"?>
<!DOCTYPE svg PUBLIC "-//W3C//DTD SVG 1.1//EN"
  "http://www.w3.org/Graphics/SVG/1.1/DTD/svg11.dtd">
<svg xmlns:xlink="http://www.w3.org/1999/xlink" width="352.7pt" height="350.54pt" viewBox="0 0 352.7 350.54" xmlns="http://www.w3.org/2000/svg" version="1.1">
 <metadata>
  <rdf:RDF xmlns:dc="http://purl.org/dc/elements/1.1/" xmlns:cc="http://creativecommons.org/ns#" xmlns:rdf="http://www.w3.org/1999/02/22-rdf-syntax-ns#">
   <cc:Work>
    <dc:type rdf:resource="http://purl.org/dc/dcmitype/StillImage"/>
    <dc:date>2025-02-15T23:12:30.669374</dc:date>
    <dc:format>image/svg+xml</dc:format>
    <dc:creator>
     <cc:Agent>
      <dc:title>Matplotlib v3.9.2, https://matplotlib.org/</dc:title>
     </cc:Agent>
    </dc:creator>
   </cc:Work>
  </rdf:RDF>
 </metadata>
 <defs>
  <style type="text/css">*{stroke-linejoin: round; stroke-linecap: butt}</style>
 </defs>
 <g id="figure_1">
  <g id="patch_1">
   <path d="M 0 350.54 
L 352.7 350.54 
L 352.7 0 
L 0 0 
z
" style="fill: #ffffff"/>
  </g>
  <g id="axes_1">
   <g id="patch_2">
    <path d="M 10.7 339.84 
L 345.5 339.84 
L 345.5 7.2 
L 10.7 7.2 
z
" style="fill: #ffffff"/>
   </g>
   <g id="matplotlib.axis_1">
    <g id="xtick_1">
     <g id="line2d_1">
      <path d="M 29.226482 339.84 
L 29.226482 7.2 
" clip-path="url(#p795faea380)" style="fill: none; stroke: #b0b0b0; stroke-opacity: 0.3; stroke-width: 0.8; stroke-linecap: square"/>
     </g>
     <g id="line2d_2">
      <defs>
       <path id="m5afc275cfe" d="M 0 0 
L 0 3.5 
" style="stroke: #000000; stroke-width: 0.8"/>
      </defs>
      <g>
       <use xlink:href="#m5afc275cfe" x="29.226482" y="339.84" style="stroke: #000000; stroke-width: 0.8"/>
      </g>
     </g>
    </g>
    <g id="xtick_2">
     <g id="line2d_3">
      <path d="M 95.39249 339.84 
L 95.39249 7.2 
" clip-path="url(#p795faea380)" style="fill: none; stroke: #b0b0b0; stroke-opacity: 0.3; stroke-width: 0.8; stroke-linecap: square"/>
     </g>
     <g id="line2d_4">
      <g>
       <use xlink:href="#m5afc275cfe" x="95.39249" y="339.84" style="stroke: #000000; stroke-width: 0.8"/>
      </g>
     </g>
    </g>
    <g id="xtick_3">
     <g id="line2d_5">
      <path d="M 161.558498 339.84 
L 161.558498 7.2 
" clip-path="url(#p795faea380)" style="fill: none; stroke: #b0b0b0; stroke-opacity: 0.3; stroke-width: 0.8; stroke-linecap: square"/>
     </g>
     <g id="line2d_6">
      <g>
       <use xlink:href="#m5afc275cfe" x="161.558498" y="339.84" style="stroke: #000000; stroke-width: 0.8"/>
      </g>
     </g>
    </g>
    <g id="xtick_4">
     <g id="line2d_7">
      <path d="M 227.724506 339.84 
L 227.724506 7.2 
" clip-path="url(#p795faea380)" style="fill: none; stroke: #b0b0b0; stroke-opacity: 0.3; stroke-width: 0.8; stroke-linecap: square"/>
     </g>
     <g id="line2d_8">
      <g>
       <use xlink:href="#m5afc275cfe" x="227.724506" y="339.84" style="stroke: #000000; stroke-width: 0.8"/>
      </g>
     </g>
    </g>
    <g id="xtick_5">
     <g id="line2d_9">
      <path d="M 293.890514 339.84 
L 293.890514 7.2 
" clip-path="url(#p795faea380)" style="fill: none; stroke: #b0b0b0; stroke-opacity: 0.3; stroke-width: 0.8; stroke-linecap: square"/>
     </g>
     <g id="line2d_10">
      <g>
       <use xlink:href="#m5afc275cfe" x="293.890514" y="339.84" style="stroke: #000000; stroke-width: 0.8"/>
      </g>
     </g>
    </g>
   </g>
   <g id="matplotlib.axis_2">
    <g id="ytick_1">
     <g id="line2d_11">
      <path d="M 10.7 324.72 
L 345.5 324.72 
" clip-path="url(#p795faea380)" style="fill: none; stroke: #b0b0b0; stroke-opacity: 0.3; stroke-width: 0.8; stroke-linecap: square"/>
     </g>
     <g id="line2d_12">
      <defs>
       <path id="m8fbf965218" d="M 0 0 
L -3.5 0 
" style="stroke: #000000; stroke-width: 0.8"/>
      </defs>
      <g>
       <use xlink:href="#m8fbf965218" x="10.7" y="324.72" style="stroke: #000000; stroke-width: 0.8"/>
      </g>
     </g>
    </g>
    <g id="ytick_2">
     <g id="line2d_13">
      <path d="M 10.7 286.305247 
L 345.5 286.305247 
" clip-path="url(#p795faea380)" style="fill: none; stroke: #b0b0b0; stroke-opacity: 0.3; stroke-width: 0.8; stroke-linecap: square"/>
     </g>
     <g id="line2d_14">
      <g>
       <use xlink:href="#m8fbf965218" x="10.7" y="286.305247" style="stroke: #000000; stroke-width: 0.8"/>
      </g>
     </g>
    </g>
    <g id="ytick_3">
     <g id="line2d_15">
      <path d="M 10.7 247.890494 
L 345.5 247.890494 
" clip-path="url(#p795faea380)" style="fill: none; stroke: #b0b0b0; stroke-opacity: 0.3; stroke-width: 0.8; stroke-linecap: square"/>
     </g>
     <g id="line2d_16">
      <g>
       <use xlink:href="#m8fbf965218" x="10.7" y="247.890494" style="stroke: #000000; stroke-width: 0.8"/>
      </g>
     </g>
    </g>
    <g id="ytick_4">
     <g id="line2d_17">
      <path d="M 10.7 209.475741 
L 345.5 209.475741 
" clip-path="url(#p795faea380)" style="fill: none; stroke: #b0b0b0; stroke-opacity: 0.3; stroke-width: 0.8; stroke-linecap: square"/>
     </g>
     <g id="line2d_18">
      <g>
       <use xlink:href="#m8fbf965218" x="10.7" y="209.475741" style="stroke: #000000; stroke-width: 0.8"/>
      </g>
     </g>
    </g>
    <g id="ytick_5">
     <g id="line2d_19">
      <path d="M 10.7 171.060989 
L 345.5 171.060989 
" clip-path="url(#p795faea380)" style="fill: none; stroke: #b0b0b0; stroke-opacity: 0.3; stroke-width: 0.8; stroke-linecap: square"/>
     </g>
     <g id="line2d_20">
      <g>
       <use xlink:href="#m8fbf965218" x="10.7" y="171.060989" style="stroke: #000000; stroke-width: 0.8"/>
      </g>
     </g>
    </g>
    <g id="ytick_6">
     <g id="line2d_21">
      <path d="M 10.7 132.646236 
L 345.5 132.646236 
" clip-path="url(#p795faea380)" style="fill: none; stroke: #b0b0b0; stroke-opacity: 0.3; stroke-width: 0.8; stroke-linecap: square"/>
     </g>
     <g id="line2d_22">
      <g>
       <use xlink:href="#m8fbf965218" x="10.7" y="132.646236" style="stroke: #000000; stroke-width: 0.8"/>
      </g>
     </g>
    </g>
    <g id="ytick_7">
     <g id="line2d_23">
      <path d="M 10.7 94.231483 
L 345.5 94.231483 
" clip-path="url(#p795faea380)" style="fill: none; stroke: #b0b0b0; stroke-opacity: 0.3; stroke-width: 0.8; stroke-linecap: square"/>
     </g>
     <g id="line2d_24">
      <g>
       <use xlink:href="#m8fbf965218" x="10.7" y="94.231483" style="stroke: #000000; stroke-width: 0.8"/>
      </g>
     </g>
    </g>
    <g id="ytick_8">
     <g id="line2d_25">
      <path d="M 10.7 55.81673 
L 345.5 55.81673 
" clip-path="url(#p795faea380)" style="fill: none; stroke: #b0b0b0; stroke-opacity: 0.3; stroke-width: 0.8; stroke-linecap: square"/>
     </g>
     <g id="line2d_26">
      <g>
       <use xlink:href="#m8fbf965218" x="10.7" y="55.81673" style="stroke: #000000; stroke-width: 0.8"/>
      </g>
     </g>
    </g>
    <g id="ytick_9">
     <g id="line2d_27">
      <path d="M 10.7 17.401977 
L 345.5 17.401977 
" clip-path="url(#p795faea380)" style="fill: none; stroke: #b0b0b0; stroke-opacity: 0.3; stroke-width: 0.8; stroke-linecap: square"/>
     </g>
     <g id="line2d_28">
      <g>
       <use xlink:href="#m8fbf965218" x="10.7" y="17.401977" style="stroke: #000000; stroke-width: 0.8"/>
      </g>
     </g>
    </g>
   </g>
   <g id="line2d_29">
    <path d="M 29.226482 324.417902 
L 42.459684 318.171461 
L 45.767984 315.776516 
L 55.692885 310.662467 
L 65.617787 305.262795 
L 68.926087 302.489041 
L 75.542688 298.552927 
L 88.775889 290.615721 
L 92.08419 287.366534 
L 108.625692 276.276357 
L 115.242292 271.615228 
L 118.550593 267.930377 
L 121.858893 265.553491 
L 131.783794 257.83006 
L 135.092095 255.082932 
L 138.400395 252.503776 
L 141.708696 248.559504 
L 148.325296 243.202135 
L 151.633597 240.55497 
L 158.250198 234.709398 
L 164.866798 229.190202 
L 168.175099 224.575299 
L 174.7917 218.530217 
L 181.4083 212.396796 
L 184.716601 209.301405 
L 188.024901 206.051731 
L 191.333202 200.984665 
L 197.949802 194.448506 
L 201.258103 190.968509 
L 207.874704 184.277997 
L 211.183004 180.778267 
L 214.491304 175.534406 
L 224.416206 165.318501 
L 231.032806 158.081618 
L 237.649407 150.503384 
L 240.957708 144.631715 
L 247.574308 136.901113 
L 254.190909 128.952543 
L 260.80751 121.034115 
L 264.11581 115.210567 
L 267.424111 111.295867 
L 270.732411 107.054896 
L 274.040711 103.070228 
L 277.349012 98.811818 
L 280.657312 94.743299 
L 283.965613 90.305508 
L 287.273913 83.760402 
L 300.507115 66.067649 
L 303.815415 61.715581 
L 310.432016 52.621369 
L 313.740316 45.937269 
L 326.973518 27.129529 
L 317.048617 27.344452 
L 313.740316 27.45545 
L 293.890514 29.030724 
L 287.273913 29.812657 
L 283.965613 30.512687 
L 264.11581 34.023927 
L 260.80751 35.074239 
L 250.882609 37.359336 
L 240.957708 40.061174 
L 237.649407 41.44066 
L 234.341107 42.470859 
L 214.491304 49.399438 
L 211.183004 51.274043 
L 204.566403 53.956249 
L 197.949802 56.91114 
L 191.333202 59.729014 
L 188.024901 61.988705 
L 181.4083 65.202681 
L 168.175099 71.907013 
L 164.866798 74.608889 
L 151.633597 82.034272 
L 141.708696 87.999493 
L 138.400395 91.095341 
L 128.475494 97.328586 
L 121.858893 102.01245 
L 118.550593 104.290183 
L 115.242292 107.825245 
L 102.009091 117.293548 
L 98.700791 119.828222 
L 95.39249 122.519115 
L 92.08419 124.969261 
L 88.775889 128.82499 
L 85.467589 131.621353 
L 82.159289 134.104607 
L 72.234387 142.350842 
L 68.926087 145.118131 
L 65.617787 149.391227 
L 59.001186 155.221949 
L 52.384585 161.28804 
L 49.076285 164.265023 
L 45.767984 167.423485 
L 42.459684 171.960213 
L 29.226482 184.898986 
L 39.151383 184.754185 
L 42.459684 184.595869 
L 62.309486 182.85467 
L 65.617787 182.474913 
L 68.926087 181.912545 
L 75.542688 180.982556 
L 82.159289 179.894616 
L 88.775889 178.708481 
L 92.08419 177.727408 
L 105.317391 174.796354 
L 115.242292 172.123375 
L 118.550593 170.644215 
L 125.167194 168.594134 
L 138.400395 163.999566 
L 141.708696 162.278906 
L 145.016996 161.129804 
L 154.941897 157.108519 
L 164.866798 152.913498 
L 168.175099 150.556558 
L 171.483399 149.135051 
L 184.716601 142.592885 
L 188.024901 140.842697 
L 191.333202 138.110122 
L 197.949802 134.54294 
L 204.566403 130.676289 
L 211.183004 126.724972 
L 214.491304 123.599791 
L 224.416206 117.418968 
L 231.032806 113.006351 
L 237.649407 108.366874 
L 240.957708 104.749901 
L 247.574308 99.806079 
L 250.882609 97.225303 
L 257.499209 92.365883 
L 260.80751 89.916101 
L 264.11581 86.183606 
L 267.424111 83.622255 
L 274.040711 78.226639 
L 277.349012 75.504153 
L 280.657312 72.935524 
L 283.965613 70.018709 
L 287.273913 65.511219 
L 297.198814 56.687112 
L 307.123715 47.655642 
L 310.432016 44.605831 
L 313.740316 39.986627 
L 326.973518 27.129529 
L 317.048617 27.344452 
L 313.740316 27.45545 
L 293.890514 29.030724 
L 287.273913 29.812657 
L 283.965613 30.512687 
L 264.11581 34.023927 
L 260.80751 35.074239 
L 250.882609 37.359336 
L 240.957708 40.061174 
L 237.649407 41.44066 
L 234.341107 42.470859 
L 214.491304 49.399438 
L 211.183004 51.274043 
L 204.566403 53.956249 
L 197.949802 56.91114 
L 191.333202 59.729014 
L 188.024901 61.988705 
L 181.4083 65.202681 
L 168.175099 71.907013 
L 164.866798 74.608889 
L 151.633597 82.034272 
L 141.708696 87.999493 
L 138.400395 91.095341 
L 128.475494 97.328586 
L 121.858893 102.01245 
L 118.550593 104.290183 
L 115.242292 107.825245 
L 102.009091 117.293548 
L 98.700791 119.828222 
L 95.39249 122.519115 
L 92.08419 124.969261 
L 88.775889 128.82499 
L 85.467589 131.621353 
L 82.159289 134.104607 
L 72.234387 142.350842 
L 68.926087 145.118131 
L 65.617787 149.391227 
L 59.001186 155.221949 
L 52.384585 161.28804 
L 49.076285 164.265023 
L 45.767984 167.423485 
L 42.459684 171.960213 
L 29.226482 184.898986 
L 98.700791 176.218992 
L 105.317391 174.796354 
L 115.242292 172.123375 
L 118.550593 170.644215 
L 125.167194 168.594134 
L 138.400395 163.999566 
L 141.708696 162.278906 
L 145.016996 161.129804 
L 154.941897 157.108519 
L 164.866798 152.913498 
L 168.175099 150.556558 
L 171.483399 149.135051 
L 184.716601 142.592885 
L 188.024901 140.842697 
L 191.333202 138.110122 
L 197.949802 134.54294 
L 204.566403 130.676289 
L 211.183004 126.724972 
L 214.491304 123.599791 
L 224.416206 117.418968 
L 231.032806 113.006351 
L 221.107905 113.171972 
L 214.491304 113.454012 
L 207.874704 114.02584 
L 201.258103 114.678125 
L 191.333202 115.746539 
L 188.024901 116.440538 
L 181.4083 117.475869 
L 168.175099 119.972503 
L 164.866798 121.009712 
L 148.325296 125.168608 
L 141.708696 126.999797 
L 138.400395 128.522533 
L 128.475494 131.643551 
L 121.858893 134.143957 
L 118.550593 135.344079 
L 115.242292 137.206374 
L 102.009091 142.518584 
L 98.700791 143.926174 
L 95.39249 145.538038 
L 92.08419 146.963455 
L 88.775889 149.252947 
L 85.467589 150.909147 
L 78.850988 154.028579 
L 68.926087 159.124695 
L 65.617787 161.83722 
L 59.001186 165.472357 
L 68.926087 165.280632 
L 78.850988 164.796571 
L 88.775889 163.889054 
L 95.39249 162.957317 
L 105.317391 161.672662 
L 115.242292 159.987329 
L 118.550593 159.057341 
L 131.783794 156.044337 
L 138.400395 154.325434 
L 141.708696 153.033289 
L 145.016996 152.209418 
L 161.558498 147.146233 
L 164.866798 146.015088 
L 168.175099 144.139619 
L 171.483399 143.012416 
L 174.7917 141.760087 
L 178.1 140.354783 
L 181.4083 139.120657 
L 188.024901 136.247599 
L 191.333202 133.952914 
L 197.949802 131.06863 
L 201.258103 129.404238 
L 207.874704 126.283289 
L 211.183004 124.569715 
L 214.491304 121.968126 
L 224.416206 116.780391 
L 231.032806 113.006351 
L 237.649407 108.366874 
L 240.957708 104.749901 
L 247.574308 99.806079 
L 250.882609 97.225303 
L 257.499209 92.365883 
L 260.80751 89.916101 
L 264.11581 86.183606 
L 267.424111 83.622255 
L 274.040711 78.226639 
L 277.349012 75.504153 
L 280.657312 72.935524 
L 283.965613 70.018709 
L 287.273913 65.511219 
L 297.198814 56.687112 
L 307.123715 47.655642 
L 310.432016 44.605831 
L 313.740316 39.986627 
L 326.973518 27.129529 
L 330.281818 22.32 
L 320.356917 22.56437 
L 313.740316 22.849351 
L 307.123715 23.400238 
L 300.507115 23.931483 
L 290.582213 25.004956 
L 287.273913 25.451153 
L 283.965613 26.20236 
L 264.11581 29.942442 
L 260.80751 31.051836 
L 250.882609 33.435224 
L 240.957708 36.23781 
L 237.649407 37.684192 
L 231.032806 39.955728 
L 224.416206 42.317799 
L 221.107905 43.373368 
L 214.491304 45.911672 
L 211.183004 47.827712 
L 207.874704 49.135504 
L 201.258103 52.110981 
L 191.333202 56.517153 
L 188.024901 58.842632 
L 181.4083 62.094834 
L 168.175099 68.957475 
L 164.866798 71.733325 
L 151.633597 79.269902 
L 141.708696 85.366716 
L 138.400395 88.495105 
L 128.475494 94.830394 
L 118.550593 101.924333 
L 115.242292 105.516231 
L 102.009091 115.116711 
L 98.700791 117.690701 
L 95.39249 120.416822 
L 92.08419 122.900051 
L 88.775889 126.801927 
L 85.467589 129.622741 
L 82.159289 132.137997 
L 72.234387 140.462157 
L 68.926087 143.28155 
L 65.617787 147.601119 
L 59.001186 153.48063 
L 52.384585 159.604287 
L 49.076285 162.614478 
L 45.767984 165.794429 
L 42.459684 170.382395 
L 25.918182 186.805384 
L 35.843083 186.649988 
L 39.151383 186.556585 
L 45.767984 186.036173 
L 52.384585 185.500332 
L 62.309486 184.368912 
L 65.617787 183.951417 
L 68.926087 183.339967 
L 75.542688 182.324874 
L 82.159289 181.206494 
L 88.775889 179.946461 
L 92.08419 178.900666 
L 105.317391 175.821339 
L 115.242292 173.034876 
L 118.550593 171.505162 
L 125.167194 169.38957 
L 138.400395 164.659574 
L 141.708696 162.874562 
L 145.016996 161.687861 
L 154.941897 157.574771 
L 164.866798 153.281624 
L 168.175099 150.871701 
L 171.483399 149.419654 
L 181.4083 144.479039 
L 188.024901 140.959241 
L 191.333202 138.18926 
L 197.949802 134.579475 
L 204.566403 130.63584 
L 211.183004 126.604189 
L 214.491304 123.428348 
L 224.416206 117.172607 
L 231.032806 112.693773 
L 237.649407 107.998473 
L 240.957708 104.323115 
L 247.574308 99.304513 
L 250.882609 96.698446 
L 257.499209 91.764597 
L 260.80751 89.285917 
L 264.11581 85.49485 
L 267.424111 82.8911 
L 274.040711 77.430827 
L 277.349012 74.684559 
L 280.657312 72.087923 
L 283.965613 69.125938 
L 287.273913 64.556757 
L 297.198814 55.650696 
L 287.273913 55.835117 
L 267.424111 57.314188 
L 264.11581 57.590365 
L 260.80751 58.161453 
L 254.190909 58.97839 
L 247.574308 60.040195 
L 240.957708 61.238436 
L 237.649407 62.133672 
L 231.032806 63.590355 
L 224.416206 65.232196 
L 221.107905 65.982224 
L 214.491304 67.793532 
L 211.183004 69.117233 
L 204.566403 71.177812 
L 197.949802 73.428393 
L 191.333202 75.675409 
L 188.024901 77.426524 
L 181.4083 80.018681 
L 168.175099 85.432657 
L 164.866798 87.617901 
L 158.250198 90.624672 
L 151.633597 93.756925 
L 141.708696 98.72489 
L 138.400395 101.326223 
L 128.475494 106.531185 
L 125.167194 108.593437 
L 135.092095 108.390477 
L 145.016996 107.844324 
L 151.633597 107.337287 
L 164.866798 105.949106 
L 168.175099 105.259493 
L 174.7917 104.296219 
L 188.024901 101.699967 
L 191.333202 100.513699 
L 197.949802 98.952067 
L 197.949802 98.952067 
" clip-path="url(#p795faea380)" style="fill: none; stroke: #0000ff; stroke-linecap: square"/>
   </g>
   <g id="line2d_30">
    <defs>
     <path id="m98e502b0bf" d="M 0 -3 
L -0.673542 -0.927051 
L -2.85317 -0.927051 
L -1.089814 0.354102 
L -1.763356 2.427051 
L -0 1.145898 
L 1.763356 2.427051 
L 1.089814 0.354102 
L 2.85317 -0.927051 
L 0.673542 -0.927051 
z
" style="stroke: #0000ff; stroke-linejoin: bevel"/>
    </defs>
    <g clip-path="url(#p795faea380)">
     <use xlink:href="#m98e502b0bf" x="29.226482" y="324.72" style="fill: #0000ff; stroke: #0000ff; stroke-linejoin: bevel"/>
    </g>
   </g>
   <g id="patch_3">
    <path d="M 10.7 339.84 
L 10.7 7.2 
" style="fill: none; stroke: #000000; stroke-width: 0.8; stroke-linejoin: miter; stroke-linecap: square"/>
   </g>
   <g id="patch_4">
    <path d="M 345.5 339.84 
L 345.5 7.2 
" style="fill: none; stroke: #000000; stroke-width: 0.8; stroke-linejoin: miter; stroke-linecap: square"/>
   </g>
   <g id="patch_5">
    <path d="M 10.7 339.84 
L 345.5 339.84 
" style="fill: none; stroke: #000000; stroke-width: 0.8; stroke-linejoin: miter; stroke-linecap: square"/>
   </g>
   <g id="patch_6">
    <path d="M 10.7 7.2 
L 345.5 7.2 
" style="fill: none; stroke: #000000; stroke-width: 0.8; stroke-linejoin: miter; stroke-linecap: square"/>
   </g>
  </g>
 </g>
 <defs>
  <clipPath id="p795faea380">
   <rect x="10.7" y="7.2" width="334.8" height="332.64"/>
  </clipPath>
 </defs>
</svg>
