<?xml version="1.0" encoding="utf-8" standalone="no"?>
<!DOCTYPE svg PUBLIC "-//W3C//DTD SVG 1.1//EN"
  "http://www.w3.org/Graphics/SVG/1.1/DTD/svg11.dtd">
<svg xmlns:xlink="http://www.w3.org/1999/xlink" width="1072.048652pt" height="351.99625pt" viewBox="0 0 1072.048652 351.99625" xmlns="http://www.w3.org/2000/svg" version="1.1">
 <metadata>
  <rdf:RDF xmlns:dc="http://purl.org/dc/elements/1.1/" xmlns:cc="http://creativecommons.org/ns#" xmlns:rdf="http://www.w3.org/1999/02/22-rdf-syntax-ns#">
   <cc:Work>
    <dc:type rdf:resource="http://purl.org/dc/dcmitype/StillImage"/>
    <dc:date>2025-02-10T12:06:39.103926</dc:date>
    <dc:format>image/svg+xml</dc:format>
    <dc:creator>
     <cc:Agent>
      <dc:title>Matplotlib v3.9.2, https://matplotlib.org/</dc:title>
     </cc:Agent>
    </dc:creator>
   </cc:Work>
  </rdf:RDF>
 </metadata>
 <defs>
  <style type="text/css">*{stroke-linejoin: round; stroke-linecap: butt}</style>
 </defs>
 <g id="figure_1">
  <g id="patch_1">
   <path d="M 0 351.99625 
L 1072.048652 351.99625 
L 1072.048652 0 
L 0 0 
z
" style="fill: #ffffff"/>
  </g>
  <g id="axes_1">
   <g id="patch_2">
    <path d="M 48.982813 314.44 
L 350.211426 314.44 
L 350.211426 7.2 
L 48.982813 7.2 
z
" style="fill: #ffffff"/>
   </g>
   <g id="matplotlib.axis_1">
    <g id="xtick_1">
     <g id="line2d_1">
      <path d="M 62.675022 314.44 
L 62.675022 7.2 
" clip-path="url(#p82f409173a)" style="fill: none; stroke: #b0b0b0; stroke-opacity: 0.5; stroke-width: 0.8; stroke-linecap: square"/>
     </g>
     <g id="line2d_2">
      <defs>
       <path id="mac578bb258" d="M 0 0 
L 0 3.5 
" style="stroke: #000000; stroke-width: 0.8"/>
      </defs>
      <g>
       <use xlink:href="#mac578bb258" x="62.675022" y="314.44" style="stroke: #000000; stroke-width: 0.8"/>
      </g>
     </g>
     <g id="text_1">
      <!-- 0 -->
      <g transform="translate(59.493772 329.038437) scale(0.1 -0.1)">
       <defs>
        <path id="DejaVuSans-30" d="M 2034 4250 
Q 1547 4250 1301 3770 
Q 1056 3291 1056 2328 
Q 1056 1369 1301 889 
Q 1547 409 2034 409 
Q 2525 409 2770 889 
Q 3016 1369 3016 2328 
Q 3016 3291 2770 3770 
Q 2525 4250 2034 4250 
z
M 2034 4750 
Q 2819 4750 3233 4129 
Q 3647 3509 3647 2328 
Q 3647 1150 3233 529 
Q 2819 -91 2034 -91 
Q 1250 -91 836 529 
Q 422 1150 422 2328 
Q 422 3509 836 4129 
Q 1250 4750 2034 4750 
z
" transform="scale(0.015625)"/>
       </defs>
       <use xlink:href="#DejaVuSans-30"/>
      </g>
     </g>
    </g>
    <g id="xtick_2">
     <g id="line2d_3">
      <path d="M 96.905546 314.44 
L 96.905546 7.2 
" clip-path="url(#p82f409173a)" style="fill: none; stroke: #b0b0b0; stroke-opacity: 0.5; stroke-width: 0.8; stroke-linecap: square"/>
     </g>
     <g id="line2d_4">
      <g>
       <use xlink:href="#mac578bb258" x="96.905546" y="314.44" style="stroke: #000000; stroke-width: 0.8"/>
      </g>
     </g>
     <g id="text_2">
      <!-- 5 -->
      <g transform="translate(93.724296 329.038437) scale(0.1 -0.1)">
       <defs>
        <path id="DejaVuSans-35" d="M 691 4666 
L 3169 4666 
L 3169 4134 
L 1269 4134 
L 1269 2991 
Q 1406 3038 1543 3061 
Q 1681 3084 1819 3084 
Q 2600 3084 3056 2656 
Q 3513 2228 3513 1497 
Q 3513 744 3044 326 
Q 2575 -91 1722 -91 
Q 1428 -91 1123 -41 
Q 819 9 494 109 
L 494 744 
Q 775 591 1075 516 
Q 1375 441 1709 441 
Q 2250 441 2565 725 
Q 2881 1009 2881 1497 
Q 2881 1984 2565 2268 
Q 2250 2553 1709 2553 
Q 1456 2553 1204 2497 
Q 953 2441 691 2322 
L 691 4666 
z
" transform="scale(0.015625)"/>
       </defs>
       <use xlink:href="#DejaVuSans-35"/>
      </g>
     </g>
    </g>
    <g id="xtick_3">
     <g id="line2d_5">
      <path d="M 131.136071 314.44 
L 131.136071 7.2 
" clip-path="url(#p82f409173a)" style="fill: none; stroke: #b0b0b0; stroke-opacity: 0.5; stroke-width: 0.8; stroke-linecap: square"/>
     </g>
     <g id="line2d_6">
      <g>
       <use xlink:href="#mac578bb258" x="131.136071" y="314.44" style="stroke: #000000; stroke-width: 0.8"/>
      </g>
     </g>
     <g id="text_3">
      <!-- 10 -->
      <g transform="translate(124.773571 329.038437) scale(0.1 -0.1)">
       <defs>
        <path id="DejaVuSans-31" d="M 794 531 
L 1825 531 
L 1825 4091 
L 703 3866 
L 703 4441 
L 1819 4666 
L 2450 4666 
L 2450 531 
L 3481 531 
L 3481 0 
L 794 0 
L 794 531 
z
" transform="scale(0.015625)"/>
       </defs>
       <use xlink:href="#DejaVuSans-31"/>
       <use xlink:href="#DejaVuSans-30" x="63.623047"/>
      </g>
     </g>
    </g>
    <g id="xtick_4">
     <g id="line2d_7">
      <path d="M 165.366595 314.44 
L 165.366595 7.2 
" clip-path="url(#p82f409173a)" style="fill: none; stroke: #b0b0b0; stroke-opacity: 0.5; stroke-width: 0.8; stroke-linecap: square"/>
     </g>
     <g id="line2d_8">
      <g>
       <use xlink:href="#mac578bb258" x="165.366595" y="314.44" style="stroke: #000000; stroke-width: 0.8"/>
      </g>
     </g>
     <g id="text_4">
      <!-- 15 -->
      <g transform="translate(159.004095 329.038437) scale(0.1 -0.1)">
       <use xlink:href="#DejaVuSans-31"/>
       <use xlink:href="#DejaVuSans-35" x="63.623047"/>
      </g>
     </g>
    </g>
    <g id="xtick_5">
     <g id="line2d_9">
      <path d="M 199.597119 314.44 
L 199.597119 7.2 
" clip-path="url(#p82f409173a)" style="fill: none; stroke: #b0b0b0; stroke-opacity: 0.5; stroke-width: 0.8; stroke-linecap: square"/>
     </g>
     <g id="line2d_10">
      <g>
       <use xlink:href="#mac578bb258" x="199.597119" y="314.44" style="stroke: #000000; stroke-width: 0.8"/>
      </g>
     </g>
     <g id="text_5">
      <!-- 20 -->
      <g transform="translate(193.234619 329.038437) scale(0.1 -0.1)">
       <defs>
        <path id="DejaVuSans-32" d="M 1228 531 
L 3431 531 
L 3431 0 
L 469 0 
L 469 531 
Q 828 903 1448 1529 
Q 2069 2156 2228 2338 
Q 2531 2678 2651 2914 
Q 2772 3150 2772 3378 
Q 2772 3750 2511 3984 
Q 2250 4219 1831 4219 
Q 1534 4219 1204 4116 
Q 875 4013 500 3803 
L 500 4441 
Q 881 4594 1212 4672 
Q 1544 4750 1819 4750 
Q 2544 4750 2975 4387 
Q 3406 4025 3406 3419 
Q 3406 3131 3298 2873 
Q 3191 2616 2906 2266 
Q 2828 2175 2409 1742 
Q 1991 1309 1228 531 
z
" transform="scale(0.015625)"/>
       </defs>
       <use xlink:href="#DejaVuSans-32"/>
       <use xlink:href="#DejaVuSans-30" x="63.623047"/>
      </g>
     </g>
    </g>
    <g id="xtick_6">
     <g id="line2d_11">
      <path d="M 233.827643 314.44 
L 233.827643 7.2 
" clip-path="url(#p82f409173a)" style="fill: none; stroke: #b0b0b0; stroke-opacity: 0.5; stroke-width: 0.8; stroke-linecap: square"/>
     </g>
     <g id="line2d_12">
      <g>
       <use xlink:href="#mac578bb258" x="233.827643" y="314.44" style="stroke: #000000; stroke-width: 0.8"/>
      </g>
     </g>
     <g id="text_6">
      <!-- 25 -->
      <g transform="translate(227.465143 329.038437) scale(0.1 -0.1)">
       <use xlink:href="#DejaVuSans-32"/>
       <use xlink:href="#DejaVuSans-35" x="63.623047"/>
      </g>
     </g>
    </g>
    <g id="xtick_7">
     <g id="line2d_13">
      <path d="M 268.058168 314.44 
L 268.058168 7.2 
" clip-path="url(#p82f409173a)" style="fill: none; stroke: #b0b0b0; stroke-opacity: 0.5; stroke-width: 0.8; stroke-linecap: square"/>
     </g>
     <g id="line2d_14">
      <g>
       <use xlink:href="#mac578bb258" x="268.058168" y="314.44" style="stroke: #000000; stroke-width: 0.8"/>
      </g>
     </g>
     <g id="text_7">
      <!-- 30 -->
      <g transform="translate(261.695668 329.038437) scale(0.1 -0.1)">
       <defs>
        <path id="DejaVuSans-33" d="M 2597 2516 
Q 3050 2419 3304 2112 
Q 3559 1806 3559 1356 
Q 3559 666 3084 287 
Q 2609 -91 1734 -91 
Q 1441 -91 1130 -33 
Q 819 25 488 141 
L 488 750 
Q 750 597 1062 519 
Q 1375 441 1716 441 
Q 2309 441 2620 675 
Q 2931 909 2931 1356 
Q 2931 1769 2642 2001 
Q 2353 2234 1838 2234 
L 1294 2234 
L 1294 2753 
L 1863 2753 
Q 2328 2753 2575 2939 
Q 2822 3125 2822 3475 
Q 2822 3834 2567 4026 
Q 2313 4219 1838 4219 
Q 1578 4219 1281 4162 
Q 984 4106 628 3988 
L 628 4550 
Q 988 4650 1302 4700 
Q 1616 4750 1894 4750 
Q 2613 4750 3031 4423 
Q 3450 4097 3450 3541 
Q 3450 3153 3228 2886 
Q 3006 2619 2597 2516 
z
" transform="scale(0.015625)"/>
       </defs>
       <use xlink:href="#DejaVuSans-33"/>
       <use xlink:href="#DejaVuSans-30" x="63.623047"/>
      </g>
     </g>
    </g>
    <g id="xtick_8">
     <g id="line2d_15">
      <path d="M 302.288692 314.44 
L 302.288692 7.2 
" clip-path="url(#p82f409173a)" style="fill: none; stroke: #b0b0b0; stroke-opacity: 0.5; stroke-width: 0.8; stroke-linecap: square"/>
     </g>
     <g id="line2d_16">
      <g>
       <use xlink:href="#mac578bb258" x="302.288692" y="314.44" style="stroke: #000000; stroke-width: 0.8"/>
      </g>
     </g>
     <g id="text_8">
      <!-- 35 -->
      <g transform="translate(295.926192 329.038437) scale(0.1 -0.1)">
       <use xlink:href="#DejaVuSans-33"/>
       <use xlink:href="#DejaVuSans-35" x="63.623047"/>
      </g>
     </g>
    </g>
    <g id="xtick_9">
     <g id="line2d_17">
      <path d="M 336.519216 314.44 
L 336.519216 7.2 
" clip-path="url(#p82f409173a)" style="fill: none; stroke: #b0b0b0; stroke-opacity: 0.5; stroke-width: 0.8; stroke-linecap: square"/>
     </g>
     <g id="line2d_18">
      <g>
       <use xlink:href="#mac578bb258" x="336.519216" y="314.44" style="stroke: #000000; stroke-width: 0.8"/>
      </g>
     </g>
     <g id="text_9">
      <!-- 40 -->
      <g transform="translate(330.156716 329.038437) scale(0.1 -0.1)">
       <defs>
        <path id="DejaVuSans-34" d="M 2419 4116 
L 825 1625 
L 2419 1625 
L 2419 4116 
z
M 2253 4666 
L 3047 4666 
L 3047 1625 
L 3713 1625 
L 3713 1100 
L 3047 1100 
L 3047 0 
L 2419 0 
L 2419 1100 
L 313 1100 
L 313 1709 
L 2253 4666 
z
" transform="scale(0.015625)"/>
       </defs>
       <use xlink:href="#DejaVuSans-34"/>
       <use xlink:href="#DejaVuSans-30" x="63.623047"/>
      </g>
     </g>
    </g>
    <g id="text_10">
     <!-- Time -->
     <g transform="translate(187.363525 342.716562) scale(0.1 -0.1)">
      <defs>
       <path id="DejaVuSans-54" d="M -19 4666 
L 3928 4666 
L 3928 4134 
L 2272 4134 
L 2272 0 
L 1638 0 
L 1638 4134 
L -19 4134 
L -19 4666 
z
" transform="scale(0.015625)"/>
       <path id="DejaVuSans-69" d="M 603 3500 
L 1178 3500 
L 1178 0 
L 603 0 
L 603 3500 
z
M 603 4863 
L 1178 4863 
L 1178 4134 
L 603 4134 
L 603 4863 
z
" transform="scale(0.015625)"/>
       <path id="DejaVuSans-6d" d="M 3328 2828 
Q 3544 3216 3844 3400 
Q 4144 3584 4550 3584 
Q 5097 3584 5394 3201 
Q 5691 2819 5691 2113 
L 5691 0 
L 5113 0 
L 5113 2094 
Q 5113 2597 4934 2840 
Q 4756 3084 4391 3084 
Q 3944 3084 3684 2787 
Q 3425 2491 3425 1978 
L 3425 0 
L 2847 0 
L 2847 2094 
Q 2847 2600 2669 2842 
Q 2491 3084 2119 3084 
Q 1678 3084 1418 2786 
Q 1159 2488 1159 1978 
L 1159 0 
L 581 0 
L 581 3500 
L 1159 3500 
L 1159 2956 
Q 1356 3278 1631 3431 
Q 1906 3584 2284 3584 
Q 2666 3584 2933 3390 
Q 3200 3197 3328 2828 
z
" transform="scale(0.015625)"/>
       <path id="DejaVuSans-65" d="M 3597 1894 
L 3597 1613 
L 953 1613 
Q 991 1019 1311 708 
Q 1631 397 2203 397 
Q 2534 397 2845 478 
Q 3156 559 3463 722 
L 3463 178 
Q 3153 47 2828 -22 
Q 2503 -91 2169 -91 
Q 1331 -91 842 396 
Q 353 884 353 1716 
Q 353 2575 817 3079 
Q 1281 3584 2069 3584 
Q 2775 3584 3186 3129 
Q 3597 2675 3597 1894 
z
M 3022 2063 
Q 3016 2534 2758 2815 
Q 2500 3097 2075 3097 
Q 1594 3097 1305 2825 
Q 1016 2553 972 2059 
L 3022 2063 
z
" transform="scale(0.015625)"/>
      </defs>
      <use xlink:href="#DejaVuSans-54"/>
      <use xlink:href="#DejaVuSans-69" x="57.958984"/>
      <use xlink:href="#DejaVuSans-6d" x="85.742188"/>
      <use xlink:href="#DejaVuSans-65" x="183.154297"/>
     </g>
    </g>
   </g>
   <g id="matplotlib.axis_2">
    <g id="ytick_1">
     <g id="line2d_19">
      <path d="M 48.982813 302.58484 
L 350.211426 302.58484 
" clip-path="url(#p82f409173a)" style="fill: none; stroke: #b0b0b0; stroke-opacity: 0.5; stroke-width: 0.8; stroke-linecap: square"/>
     </g>
     <g id="line2d_20">
      <defs>
       <path id="m2561514675" d="M 0 0 
L -3.5 0 
" style="stroke: #000000; stroke-width: 0.8"/>
      </defs>
      <g>
       <use xlink:href="#m2561514675" x="48.982813" y="302.58484" style="stroke: #000000; stroke-width: 0.8"/>
      </g>
     </g>
     <g id="text_11">
      <!-- −80 -->
      <g transform="translate(20.878125 306.384059) scale(0.1 -0.1)">
       <defs>
        <path id="DejaVuSans-2212" d="M 678 2272 
L 4684 2272 
L 4684 1741 
L 678 1741 
L 678 2272 
z
" transform="scale(0.015625)"/>
        <path id="DejaVuSans-38" d="M 2034 2216 
Q 1584 2216 1326 1975 
Q 1069 1734 1069 1313 
Q 1069 891 1326 650 
Q 1584 409 2034 409 
Q 2484 409 2743 651 
Q 3003 894 3003 1313 
Q 3003 1734 2745 1975 
Q 2488 2216 2034 2216 
z
M 1403 2484 
Q 997 2584 770 2862 
Q 544 3141 544 3541 
Q 544 4100 942 4425 
Q 1341 4750 2034 4750 
Q 2731 4750 3128 4425 
Q 3525 4100 3525 3541 
Q 3525 3141 3298 2862 
Q 3072 2584 2669 2484 
Q 3125 2378 3379 2068 
Q 3634 1759 3634 1313 
Q 3634 634 3220 271 
Q 2806 -91 2034 -91 
Q 1263 -91 848 271 
Q 434 634 434 1313 
Q 434 1759 690 2068 
Q 947 2378 1403 2484 
z
M 1172 3481 
Q 1172 3119 1398 2916 
Q 1625 2713 2034 2713 
Q 2441 2713 2670 2916 
Q 2900 3119 2900 3481 
Q 2900 3844 2670 4047 
Q 2441 4250 2034 4250 
Q 1625 4250 1398 4047 
Q 1172 3844 1172 3481 
z
" transform="scale(0.015625)"/>
       </defs>
       <use xlink:href="#DejaVuSans-2212"/>
       <use xlink:href="#DejaVuSans-38" x="83.789062"/>
       <use xlink:href="#DejaVuSans-30" x="147.412109"/>
      </g>
     </g>
    </g>
    <g id="ytick_2">
     <g id="line2d_21">
      <path d="M 48.982813 265.421734 
L 350.211426 265.421734 
" clip-path="url(#p82f409173a)" style="fill: none; stroke: #b0b0b0; stroke-opacity: 0.5; stroke-width: 0.8; stroke-linecap: square"/>
     </g>
     <g id="line2d_22">
      <g>
       <use xlink:href="#m2561514675" x="48.982813" y="265.421734" style="stroke: #000000; stroke-width: 0.8"/>
      </g>
     </g>
     <g id="text_12">
      <!-- −60 -->
      <g transform="translate(20.878125 269.220953) scale(0.1 -0.1)">
       <defs>
        <path id="DejaVuSans-36" d="M 2113 2584 
Q 1688 2584 1439 2293 
Q 1191 2003 1191 1497 
Q 1191 994 1439 701 
Q 1688 409 2113 409 
Q 2538 409 2786 701 
Q 3034 994 3034 1497 
Q 3034 2003 2786 2293 
Q 2538 2584 2113 2584 
z
M 3366 4563 
L 3366 3988 
Q 3128 4100 2886 4159 
Q 2644 4219 2406 4219 
Q 1781 4219 1451 3797 
Q 1122 3375 1075 2522 
Q 1259 2794 1537 2939 
Q 1816 3084 2150 3084 
Q 2853 3084 3261 2657 
Q 3669 2231 3669 1497 
Q 3669 778 3244 343 
Q 2819 -91 2113 -91 
Q 1303 -91 875 529 
Q 447 1150 447 2328 
Q 447 3434 972 4092 
Q 1497 4750 2381 4750 
Q 2619 4750 2861 4703 
Q 3103 4656 3366 4563 
z
" transform="scale(0.015625)"/>
       </defs>
       <use xlink:href="#DejaVuSans-2212"/>
       <use xlink:href="#DejaVuSans-36" x="83.789062"/>
       <use xlink:href="#DejaVuSans-30" x="147.412109"/>
      </g>
     </g>
    </g>
    <g id="ytick_3">
     <g id="line2d_23">
      <path d="M 48.982813 228.258629 
L 350.211426 228.258629 
" clip-path="url(#p82f409173a)" style="fill: none; stroke: #b0b0b0; stroke-opacity: 0.5; stroke-width: 0.8; stroke-linecap: square"/>
     </g>
     <g id="line2d_24">
      <g>
       <use xlink:href="#m2561514675" x="48.982813" y="228.258629" style="stroke: #000000; stroke-width: 0.8"/>
      </g>
     </g>
     <g id="text_13">
      <!-- −40 -->
      <g transform="translate(20.878125 232.057847) scale(0.1 -0.1)">
       <use xlink:href="#DejaVuSans-2212"/>
       <use xlink:href="#DejaVuSans-34" x="83.789062"/>
       <use xlink:href="#DejaVuSans-30" x="147.412109"/>
      </g>
     </g>
    </g>
    <g id="ytick_4">
     <g id="line2d_25">
      <path d="M 48.982813 191.095523 
L 350.211426 191.095523 
" clip-path="url(#p82f409173a)" style="fill: none; stroke: #b0b0b0; stroke-opacity: 0.5; stroke-width: 0.8; stroke-linecap: square"/>
     </g>
     <g id="line2d_26">
      <g>
       <use xlink:href="#m2561514675" x="48.982813" y="191.095523" style="stroke: #000000; stroke-width: 0.8"/>
      </g>
     </g>
     <g id="text_14">
      <!-- −20 -->
      <g transform="translate(20.878125 194.894742) scale(0.1 -0.1)">
       <use xlink:href="#DejaVuSans-2212"/>
       <use xlink:href="#DejaVuSans-32" x="83.789062"/>
       <use xlink:href="#DejaVuSans-30" x="147.412109"/>
      </g>
     </g>
    </g>
    <g id="ytick_5">
     <g id="line2d_27">
      <path d="M 48.982813 153.932417 
L 350.211426 153.932417 
" clip-path="url(#p82f409173a)" style="fill: none; stroke: #b0b0b0; stroke-opacity: 0.5; stroke-width: 0.8; stroke-linecap: square"/>
     </g>
     <g id="line2d_28">
      <g>
       <use xlink:href="#m2561514675" x="48.982813" y="153.932417" style="stroke: #000000; stroke-width: 0.8"/>
      </g>
     </g>
     <g id="text_15">
      <!-- 0 -->
      <g transform="translate(35.620313 157.731636) scale(0.1 -0.1)">
       <use xlink:href="#DejaVuSans-30"/>
      </g>
     </g>
    </g>
    <g id="ytick_6">
     <g id="line2d_29">
      <path d="M 48.982813 116.769311 
L 350.211426 116.769311 
" clip-path="url(#p82f409173a)" style="fill: none; stroke: #b0b0b0; stroke-opacity: 0.5; stroke-width: 0.8; stroke-linecap: square"/>
     </g>
     <g id="line2d_30">
      <g>
       <use xlink:href="#m2561514675" x="48.982813" y="116.769311" style="stroke: #000000; stroke-width: 0.8"/>
      </g>
     </g>
     <g id="text_16">
      <!-- 20 -->
      <g transform="translate(29.257813 120.56853) scale(0.1 -0.1)">
       <use xlink:href="#DejaVuSans-32"/>
       <use xlink:href="#DejaVuSans-30" x="63.623047"/>
      </g>
     </g>
    </g>
    <g id="ytick_7">
     <g id="line2d_31">
      <path d="M 48.982813 79.606205 
L 350.211426 79.606205 
" clip-path="url(#p82f409173a)" style="fill: none; stroke: #b0b0b0; stroke-opacity: 0.5; stroke-width: 0.8; stroke-linecap: square"/>
     </g>
     <g id="line2d_32">
      <g>
       <use xlink:href="#m2561514675" x="48.982813" y="79.606205" style="stroke: #000000; stroke-width: 0.8"/>
      </g>
     </g>
     <g id="text_17">
      <!-- 40 -->
      <g transform="translate(29.257813 83.405424) scale(0.1 -0.1)">
       <use xlink:href="#DejaVuSans-34"/>
       <use xlink:href="#DejaVuSans-30" x="63.623047"/>
      </g>
     </g>
    </g>
    <g id="ytick_8">
     <g id="line2d_33">
      <path d="M 48.982813 42.4431 
L 350.211426 42.4431 
" clip-path="url(#p82f409173a)" style="fill: none; stroke: #b0b0b0; stroke-opacity: 0.5; stroke-width: 0.8; stroke-linecap: square"/>
     </g>
     <g id="line2d_34">
      <g>
       <use xlink:href="#m2561514675" x="48.982813" y="42.4431" style="stroke: #000000; stroke-width: 0.8"/>
      </g>
     </g>
     <g id="text_18">
      <!-- 60 -->
      <g transform="translate(29.257813 46.242318) scale(0.1 -0.1)">
       <use xlink:href="#DejaVuSans-36"/>
       <use xlink:href="#DejaVuSans-30" x="63.623047"/>
      </g>
     </g>
    </g>
    <g id="text_19">
     <!-- Amplitud -->
     <g transform="translate(14.798438 183.366094) rotate(-90) scale(0.1 -0.1)">
      <defs>
       <path id="DejaVuSans-41" d="M 2188 4044 
L 1331 1722 
L 3047 1722 
L 2188 4044 
z
M 1831 4666 
L 2547 4666 
L 4325 0 
L 3669 0 
L 3244 1197 
L 1141 1197 
L 716 0 
L 50 0 
L 1831 4666 
z
" transform="scale(0.015625)"/>
       <path id="DejaVuSans-70" d="M 1159 525 
L 1159 -1331 
L 581 -1331 
L 581 3500 
L 1159 3500 
L 1159 2969 
Q 1341 3281 1617 3432 
Q 1894 3584 2278 3584 
Q 2916 3584 3314 3078 
Q 3713 2572 3713 1747 
Q 3713 922 3314 415 
Q 2916 -91 2278 -91 
Q 1894 -91 1617 61 
Q 1341 213 1159 525 
z
M 3116 1747 
Q 3116 2381 2855 2742 
Q 2594 3103 2138 3103 
Q 1681 3103 1420 2742 
Q 1159 2381 1159 1747 
Q 1159 1113 1420 752 
Q 1681 391 2138 391 
Q 2594 391 2855 752 
Q 3116 1113 3116 1747 
z
" transform="scale(0.015625)"/>
       <path id="DejaVuSans-6c" d="M 603 4863 
L 1178 4863 
L 1178 0 
L 603 0 
L 603 4863 
z
" transform="scale(0.015625)"/>
       <path id="DejaVuSans-74" d="M 1172 4494 
L 1172 3500 
L 2356 3500 
L 2356 3053 
L 1172 3053 
L 1172 1153 
Q 1172 725 1289 603 
Q 1406 481 1766 481 
L 2356 481 
L 2356 0 
L 1766 0 
Q 1100 0 847 248 
Q 594 497 594 1153 
L 594 3053 
L 172 3053 
L 172 3500 
L 594 3500 
L 594 4494 
L 1172 4494 
z
" transform="scale(0.015625)"/>
       <path id="DejaVuSans-75" d="M 544 1381 
L 544 3500 
L 1119 3500 
L 1119 1403 
Q 1119 906 1312 657 
Q 1506 409 1894 409 
Q 2359 409 2629 706 
Q 2900 1003 2900 1516 
L 2900 3500 
L 3475 3500 
L 3475 0 
L 2900 0 
L 2900 538 
Q 2691 219 2414 64 
Q 2138 -91 1772 -91 
Q 1169 -91 856 284 
Q 544 659 544 1381 
z
M 1991 3584 
L 1991 3584 
z
" transform="scale(0.015625)"/>
       <path id="DejaVuSans-64" d="M 2906 2969 
L 2906 4863 
L 3481 4863 
L 3481 0 
L 2906 0 
L 2906 525 
Q 2725 213 2448 61 
Q 2172 -91 1784 -91 
Q 1150 -91 751 415 
Q 353 922 353 1747 
Q 353 2572 751 3078 
Q 1150 3584 1784 3584 
Q 2172 3584 2448 3432 
Q 2725 3281 2906 2969 
z
M 947 1747 
Q 947 1113 1208 752 
Q 1469 391 1925 391 
Q 2381 391 2643 752 
Q 2906 1113 2906 1747 
Q 2906 2381 2643 2742 
Q 2381 3103 1925 3103 
Q 1469 3103 1208 2742 
Q 947 2381 947 1747 
z
" transform="scale(0.015625)"/>
      </defs>
      <use xlink:href="#DejaVuSans-41"/>
      <use xlink:href="#DejaVuSans-6d" x="68.408203"/>
      <use xlink:href="#DejaVuSans-70" x="165.820312"/>
      <use xlink:href="#DejaVuSans-6c" x="229.296875"/>
      <use xlink:href="#DejaVuSans-69" x="257.080078"/>
      <use xlink:href="#DejaVuSans-74" x="284.863281"/>
      <use xlink:href="#DejaVuSans-75" x="324.072266"/>
      <use xlink:href="#DejaVuSans-64" x="387.451172"/>
     </g>
    </g>
   </g>
   <g id="line2d_35">
    <path d="M 62.675022 153.932417 
L 67.88327 153.836021 
L 70.076217 153.564354 
L 71.720926 153.16071 
L 73.365636 152.532362 
L 75.010346 151.645742 
L 76.655056 150.485872 
L 78.299766 149.06074 
L 80.218594 147.112099 
L 86.797434 140.087791 
L 88.168025 139.133418 
L 89.264498 138.652867 
L 90.086853 138.490909 
L 90.909208 138.521437 
L 91.731563 138.762072 
L 92.553918 139.225808 
L 93.376273 139.920078 
L 94.472746 141.206072 
L 95.56922 142.895684 
L 96.665693 144.978487 
L 98.036284 148.11445 
L 99.406876 151.801124 
L 101.051586 156.851252 
L 103.244532 164.343307 
L 107.904544 180.482974 
L 109.549254 185.227139 
L 110.645727 187.847557 
L 111.7422 189.932588 
L 112.564555 191.098239 
L 113.38691 191.890853 
L 113.935147 192.199971 
L 114.483383 192.326579 
L 115.03162 192.265767 
L 115.579856 192.014153 
L 116.128093 191.570583 
L 116.950448 190.548594 
L 117.772803 189.111666 
L 118.595158 187.279587 
L 119.691631 184.256885 
L 120.788104 180.62035 
L 122.158696 175.314442 
L 123.803406 168.05843 
L 126.818707 153.440568 
L 129.285772 141.83308 
L 130.930482 135.134061 
L 132.026955 131.401633 
L 133.123428 128.401257 
L 133.945783 126.697421 
L 134.768138 125.506338 
L 135.316375 125.013771 
L 135.864612 124.772048 
L 136.412848 124.787802 
L 136.961085 125.065753 
L 137.509321 125.607665 
L 138.057558 126.412018 
L 138.879913 128.099587 
L 139.702268 130.344038 
L 140.798741 134.16238 
L 141.895214 138.864252 
L 143.265806 145.851248 
L 144.910516 155.565805 
L 147.377581 171.828117 
L 150.667 193.560653 
L 152.31171 203.022461 
L 153.682302 209.595036 
L 154.778775 213.768362 
L 155.60113 216.174519 
L 156.423485 217.905662 
L 156.971722 218.664715 
L 157.519958 219.096383 
L 158.068195 219.193117 
L 158.616431 218.949579 
L 159.164668 218.363896 
L 159.712905 217.438432 
L 160.53526 215.428088 
L 161.357615 212.697375 
L 162.17997 209.276605 
L 163.276443 203.704739 
L 164.647034 195.273801 
L 166.291744 183.383758 
L 168.484691 165.540377 
L 172.596465 131.700262 
L 174.241175 120.250414 
L 175.337649 113.858033 
L 176.434122 108.681589 
L 177.256477 105.695676 
L 178.078832 103.54214 
L 178.627068 102.591957 
L 179.175305 102.042965 
L 179.723542 101.903392 
L 180.271778 102.178752 
L 180.820015 102.870392 
L 181.368251 103.974476 
L 182.190606 106.384512 
L 183.012961 109.668147 
L 183.835316 113.788208 
L 184.931789 120.502494 
L 186.302381 130.65441 
L 187.947091 144.94095 
L 190.140037 166.297968 
L 193.977694 204.002864 
L 195.622404 217.830702 
L 196.992995 227.337803 
L 198.089468 233.30612 
L 198.911823 236.702496 
L 199.734178 239.100799 
L 200.282415 240.119519 
L 200.830652 240.660231 
L 201.10477 240.748524 
L 201.378888 240.714318 
L 201.927125 240.276639 
L 202.475361 239.347434 
L 203.023598 237.933074 
L 203.845953 234.925491 
L 204.668308 230.888883 
L 205.764781 223.984034 
L 206.861254 215.469267 
L 208.231846 202.845501 
L 209.876556 185.395096 
L 212.617739 153.209178 
L 215.358922 121.484096 
L 217.003632 104.805967 
L 218.374224 93.178048 
L 219.470697 85.734503 
L 220.293052 81.382889 
L 221.115407 78.172113 
L 221.663643 76.695916 
L 222.21188 75.76784 
L 222.760117 75.398384 
L 223.034235 75.425471 
L 223.308353 75.594502 
L 223.85659 76.358184 
L 224.404826 77.684523 
L 224.953063 79.56234 
L 225.775418 83.384439 
L 226.597773 88.371031 
L 227.694246 96.728423 
L 228.790719 106.868736 
L 230.161311 121.694194 
L 232.080139 145.455014 
L 238.110742 223.084174 
L 239.481334 236.931589 
L 240.577807 246.014104 
L 241.400162 251.485026 
L 242.222517 255.701014 
L 243.044872 258.585394 
L 243.593108 259.738909 
L 244.141345 260.261675 
L 244.415463 260.283669 
L 244.689582 260.145079 
L 245.237818 259.38572 
L 245.786055 257.987802 
L 246.334291 255.962672 
L 247.156646 251.778719 
L 247.979001 246.263723 
L 249.075474 236.951879 
L 250.171948 225.589171 
L 251.542539 208.898624 
L 253.187249 186.044414 
L 256.202551 140.202318 
L 258.669615 103.998707 
L 260.314325 83.069596 
L 261.684917 68.679772 
L 262.78139 59.620993 
L 263.603745 54.433615 
L 264.4261 50.723321 
L 264.974337 49.104837 
L 265.522573 48.18836 
L 265.796692 47.996828 
L 266.07081 47.984386 
L 266.344928 48.1516 
L 266.893165 49.024686 
L 267.441401 50.609812 
L 267.989638 52.893342 
L 268.811993 57.594415 
L 269.634348 63.774427 
L 270.730821 74.182782 
L 271.827294 86.85067 
L 273.197886 105.406196 
L 274.842596 130.72661 
L 278.680252 194.888438 
L 280.59908 224.798959 
L 281.969672 243.409523 
L 283.066145 256.028252 
L 284.162618 266.244585 
L 284.984973 272.150457 
L 285.807328 276.437167 
L 286.355565 278.355861 
L 286.903802 279.502315 
L 287.17792 279.78184 
L 287.452038 279.863982 
L 287.726157 279.747961 
L 288.000275 279.433484 
L 288.548511 278.211094 
L 289.096748 276.206669 
L 289.644985 273.435566 
L 290.46734 267.877024 
L 291.289695 260.695614 
L 292.386168 248.749734 
L 293.482641 234.34581 
L 294.853233 213.403286 
L 296.772061 180.041104 
L 302.528545 76.467671 
L 303.899137 56.728147 
L 304.99561 43.602538 
L 306.092083 33.243549 
L 306.914438 27.470627 
L 307.736793 23.519307 
L 308.28503 21.933757 
L 308.833267 21.205199 
L 309.107385 21.165455 
L 309.381503 21.343031 
L 309.655621 21.737968 
L 310.203858 23.176666 
L 310.752095 25.468864 
L 311.300331 28.59746 
L 312.122686 34.818451 
L 312.945041 42.804274 
L 314.041514 56.020221 
L 315.137988 71.885766 
L 316.508579 94.860495 
L 318.427407 131.287663 
L 323.635655 233.750074 
L 325.006247 256.171116 
L 326.10272 271.391817 
L 327.199193 283.74115 
L 328.021548 290.906077 
L 328.843903 296.139588 
L 329.39214 298.509222 
L 329.940377 299.959009 
L 330.214495 300.33423 
L 330.488613 300.474545 
L 330.762732 300.379087 
L 331.03685 300.04752 
L 331.585086 298.67838 
L 332.133323 296.378745 
L 332.68156 293.166069 
L 333.503915 286.676378 
L 334.32627 278.253219 
L 335.422743 264.200547 
L 336.519216 247.22529 
L 336.519216 247.22529 
" clip-path="url(#p82f409173a)" style="fill: none; stroke: #0000ff; stroke-width: 1.5; stroke-linecap: square"/>
   </g>
   <g id="line2d_36">
    <path d="M 62.675022 153.932417 
L 67.88327 153.838479 
L 70.350335 153.555215 
L 73.639755 152.890214 
L 76.655056 152.365028 
L 79.396239 152.149731 
L 84.056251 152.078877 
L 90.909208 152.117432 
L 91.731563 152.358067 
L 92.553918 152.821803 
L 93.376273 153.516074 
L 94.746865 154.844667 
L 95.56922 155.321843 
L 96.665693 155.637773 
L 98.036284 155.762312 
L 102.148059 155.790537 
L 115.03162 155.726751 
L 115.579856 155.475137 
L 116.128093 155.031566 
L 116.950448 154.009578 
L 117.772803 152.968128 
L 118.595158 152.407744 
L 119.417513 152.175931 
L 120.788104 152.083523 
L 129.285772 152.074262 
L 136.412848 152.115141 
L 136.961085 152.393092 
L 137.509321 152.935004 
L 138.331676 154.21468 
L 138.879913 154.959229 
L 139.42815 155.406696 
L 140.250505 155.695985 
L 141.621096 155.785596 
L 154.504657 155.790572 
L 158.342313 155.703777 
L 158.89055 155.289138 
L 159.438786 154.533001 
L 160.53526 152.737369 
L 161.083496 152.333906 
L 161.905851 152.120798 
L 163.824679 152.074479 
L 179.99766 152.16532 
L 180.545896 152.648972 
L 181.094133 153.54764 
L 181.916488 155.056718 
L 182.464725 155.526805 
L 183.012961 155.713429 
L 184.109435 155.786928 
L 198.637705 155.790572 
L 201.378888 155.753357 
L 201.927125 155.315678 
L 202.475361 154.386474 
L 203.023598 153.182509 
L 203.571835 152.475297 
L 204.120071 152.187364 
L 204.942426 152.085027 
L 210.150674 152.074262 
L 223.034235 152.108111 
L 223.308353 152.277143 
L 223.85659 153.040824 
L 224.953063 155.255292 
L 225.5013 155.644739 
L 226.323655 155.778333 
L 230.709548 155.790572 
L 244.415463 155.780018 
L 244.689582 155.641428 
L 245.237818 154.882069 
L 246.334291 152.56516 
L 246.882528 152.192907 
L 247.704883 152.08198 
L 254.009604 152.074262 
L 266.07081 152.090905 
L 266.344928 152.258119 
L 266.893165 153.131205 
L 267.71552 155.100038 
L 268.263756 155.622616 
L 268.811993 155.762167 
L 270.730821 155.790569 
L 287.452038 155.789857 
L 287.726157 155.673836 
L 288.000275 155.359359 
L 288.548511 154.136969 
L 289.096748 152.77962 
L 289.644985 152.233021 
L 290.193221 152.098119 
L 292.386168 152.074262 
L 309.107385 152.085169 
L 309.381503 152.262745 
L 309.655621 152.657682 
L 310.203858 154.089354 
L 310.752095 155.2951 
L 311.300331 155.698571 
L 312.122686 155.787338 
L 325.280365 155.790572 
L 330.762732 155.694037 
L 331.03685 155.36247 
L 331.585086 153.99333 
L 332.133323 152.631243 
L 332.68156 152.173108 
L 333.503915 152.077269 
L 336.519216 152.074262 
L 336.519216 152.074262 
" clip-path="url(#p82f409173a)" style="fill: none; stroke-dasharray: 5.55,2.4; stroke-dashoffset: 0; stroke: #ff0000; stroke-width: 1.5"/>
   </g>
   <g id="patch_3">
    <path d="M 48.982813 314.44 
L 48.982813 7.2 
" style="fill: none; stroke: #000000; stroke-width: 0.8; stroke-linejoin: miter; stroke-linecap: square"/>
   </g>
   <g id="patch_4">
    <path d="M 350.211426 314.44 
L 350.211426 7.2 
" style="fill: none; stroke: #000000; stroke-width: 0.8; stroke-linejoin: miter; stroke-linecap: square"/>
   </g>
   <g id="patch_5">
    <path d="M 48.982813 314.44 
L 350.211426 314.44 
" style="fill: none; stroke: #000000; stroke-width: 0.8; stroke-linejoin: miter; stroke-linecap: square"/>
   </g>
   <g id="patch_6">
    <path d="M 48.982813 7.2 
L 350.211426 7.2 
" style="fill: none; stroke: #000000; stroke-width: 0.8; stroke-linejoin: miter; stroke-linecap: square"/>
   </g>
   <g id="legend_1">
    <g id="patch_7">
     <path d="M 55.982813 44.55625 
L 182.609375 44.55625 
Q 184.609375 44.55625 184.609375 42.55625 
L 184.609375 14.2 
Q 184.609375 12.2 182.609375 12.2 
L 55.982813 12.2 
Q 53.982813 12.2 53.982813 14.2 
L 53.982813 42.55625 
Q 53.982813 44.55625 55.982813 44.55625 
z
" style="fill: #ffffff; opacity: 0.8; stroke: #cccccc; stroke-linejoin: miter"/>
    </g>
    <g id="line2d_37">
     <path d="M 57.982813 20.298438 
L 67.982813 20.298438 
L 77.982813 20.298438 
" style="fill: none; stroke: #0000ff; stroke-width: 1.5; stroke-linecap: square"/>
    </g>
    <g id="text_20">
     <!-- Displacement -->
     <g transform="translate(85.982813 23.798438) scale(0.1 -0.1)">
      <defs>
       <path id="DejaVuSans-44" d="M 1259 4147 
L 1259 519 
L 2022 519 
Q 2988 519 3436 956 
Q 3884 1394 3884 2338 
Q 3884 3275 3436 3711 
Q 2988 4147 2022 4147 
L 1259 4147 
z
M 628 4666 
L 1925 4666 
Q 3281 4666 3915 4102 
Q 4550 3538 4550 2338 
Q 4550 1131 3912 565 
Q 3275 0 1925 0 
L 628 0 
L 628 4666 
z
" transform="scale(0.015625)"/>
       <path id="DejaVuSans-73" d="M 2834 3397 
L 2834 2853 
Q 2591 2978 2328 3040 
Q 2066 3103 1784 3103 
Q 1356 3103 1142 2972 
Q 928 2841 928 2578 
Q 928 2378 1081 2264 
Q 1234 2150 1697 2047 
L 1894 2003 
Q 2506 1872 2764 1633 
Q 3022 1394 3022 966 
Q 3022 478 2636 193 
Q 2250 -91 1575 -91 
Q 1294 -91 989 -36 
Q 684 19 347 128 
L 347 722 
Q 666 556 975 473 
Q 1284 391 1588 391 
Q 1994 391 2212 530 
Q 2431 669 2431 922 
Q 2431 1156 2273 1281 
Q 2116 1406 1581 1522 
L 1381 1569 
Q 847 1681 609 1914 
Q 372 2147 372 2553 
Q 372 3047 722 3315 
Q 1072 3584 1716 3584 
Q 2034 3584 2315 3537 
Q 2597 3491 2834 3397 
z
" transform="scale(0.015625)"/>
       <path id="DejaVuSans-61" d="M 2194 1759 
Q 1497 1759 1228 1600 
Q 959 1441 959 1056 
Q 959 750 1161 570 
Q 1363 391 1709 391 
Q 2188 391 2477 730 
Q 2766 1069 2766 1631 
L 2766 1759 
L 2194 1759 
z
M 3341 1997 
L 3341 0 
L 2766 0 
L 2766 531 
Q 2569 213 2275 61 
Q 1981 -91 1556 -91 
Q 1019 -91 701 211 
Q 384 513 384 1019 
Q 384 1609 779 1909 
Q 1175 2209 1959 2209 
L 2766 2209 
L 2766 2266 
Q 2766 2663 2505 2880 
Q 2244 3097 1772 3097 
Q 1472 3097 1187 3025 
Q 903 2953 641 2809 
L 641 3341 
Q 956 3463 1253 3523 
Q 1550 3584 1831 3584 
Q 2591 3584 2966 3190 
Q 3341 2797 3341 1997 
z
" transform="scale(0.015625)"/>
       <path id="DejaVuSans-63" d="M 3122 3366 
L 3122 2828 
Q 2878 2963 2633 3030 
Q 2388 3097 2138 3097 
Q 1578 3097 1268 2742 
Q 959 2388 959 1747 
Q 959 1106 1268 751 
Q 1578 397 2138 397 
Q 2388 397 2633 464 
Q 2878 531 3122 666 
L 3122 134 
Q 2881 22 2623 -34 
Q 2366 -91 2075 -91 
Q 1284 -91 818 406 
Q 353 903 353 1747 
Q 353 2603 823 3093 
Q 1294 3584 2113 3584 
Q 2378 3584 2631 3529 
Q 2884 3475 3122 3366 
z
" transform="scale(0.015625)"/>
       <path id="DejaVuSans-6e" d="M 3513 2113 
L 3513 0 
L 2938 0 
L 2938 2094 
Q 2938 2591 2744 2837 
Q 2550 3084 2163 3084 
Q 1697 3084 1428 2787 
Q 1159 2491 1159 1978 
L 1159 0 
L 581 0 
L 581 3500 
L 1159 3500 
L 1159 2956 
Q 1366 3272 1645 3428 
Q 1925 3584 2291 3584 
Q 2894 3584 3203 3211 
Q 3513 2838 3513 2113 
z
" transform="scale(0.015625)"/>
      </defs>
      <use xlink:href="#DejaVuSans-44"/>
      <use xlink:href="#DejaVuSans-69" x="77.001953"/>
      <use xlink:href="#DejaVuSans-73" x="104.785156"/>
      <use xlink:href="#DejaVuSans-70" x="156.884766"/>
      <use xlink:href="#DejaVuSans-6c" x="220.361328"/>
      <use xlink:href="#DejaVuSans-61" x="248.144531"/>
      <use xlink:href="#DejaVuSans-63" x="309.423828"/>
      <use xlink:href="#DejaVuSans-65" x="364.404297"/>
      <use xlink:href="#DejaVuSans-6d" x="425.927734"/>
      <use xlink:href="#DejaVuSans-65" x="523.339844"/>
      <use xlink:href="#DejaVuSans-6e" x="584.863281"/>
      <use xlink:href="#DejaVuSans-74" x="648.242188"/>
     </g>
    </g>
    <g id="line2d_38">
     <path d="M 57.982813 34.976563 
L 67.982813 34.976563 
L 77.982813 34.976563 
" style="fill: none; stroke-dasharray: 5.55,2.4; stroke-dashoffset: 0; stroke: #ff0000; stroke-width: 1.5"/>
    </g>
    <g id="text_21">
     <!-- Hysteretic Variable -->
     <g transform="translate(85.982813 38.476563) scale(0.1 -0.1)">
      <defs>
       <path id="DejaVuSans-48" d="M 628 4666 
L 1259 4666 
L 1259 2753 
L 3553 2753 
L 3553 4666 
L 4184 4666 
L 4184 0 
L 3553 0 
L 3553 2222 
L 1259 2222 
L 1259 0 
L 628 0 
L 628 4666 
z
" transform="scale(0.015625)"/>
       <path id="DejaVuSans-79" d="M 2059 -325 
Q 1816 -950 1584 -1140 
Q 1353 -1331 966 -1331 
L 506 -1331 
L 506 -850 
L 844 -850 
Q 1081 -850 1212 -737 
Q 1344 -625 1503 -206 
L 1606 56 
L 191 3500 
L 800 3500 
L 1894 763 
L 2988 3500 
L 3597 3500 
L 2059 -325 
z
" transform="scale(0.015625)"/>
       <path id="DejaVuSans-72" d="M 2631 2963 
Q 2534 3019 2420 3045 
Q 2306 3072 2169 3072 
Q 1681 3072 1420 2755 
Q 1159 2438 1159 1844 
L 1159 0 
L 581 0 
L 581 3500 
L 1159 3500 
L 1159 2956 
Q 1341 3275 1631 3429 
Q 1922 3584 2338 3584 
Q 2397 3584 2469 3576 
Q 2541 3569 2628 3553 
L 2631 2963 
z
" transform="scale(0.015625)"/>
       <path id="DejaVuSans-20" transform="scale(0.015625)"/>
       <path id="DejaVuSans-56" d="M 1831 0 
L 50 4666 
L 709 4666 
L 2188 738 
L 3669 4666 
L 4325 4666 
L 2547 0 
L 1831 0 
z
" transform="scale(0.015625)"/>
       <path id="DejaVuSans-62" d="M 3116 1747 
Q 3116 2381 2855 2742 
Q 2594 3103 2138 3103 
Q 1681 3103 1420 2742 
Q 1159 2381 1159 1747 
Q 1159 1113 1420 752 
Q 1681 391 2138 391 
Q 2594 391 2855 752 
Q 3116 1113 3116 1747 
z
M 1159 2969 
Q 1341 3281 1617 3432 
Q 1894 3584 2278 3584 
Q 2916 3584 3314 3078 
Q 3713 2572 3713 1747 
Q 3713 922 3314 415 
Q 2916 -91 2278 -91 
Q 1894 -91 1617 61 
Q 1341 213 1159 525 
L 1159 0 
L 581 0 
L 581 4863 
L 1159 4863 
L 1159 2969 
z
" transform="scale(0.015625)"/>
      </defs>
      <use xlink:href="#DejaVuSans-48"/>
      <use xlink:href="#DejaVuSans-79" x="75.195312"/>
      <use xlink:href="#DejaVuSans-73" x="134.375"/>
      <use xlink:href="#DejaVuSans-74" x="186.474609"/>
      <use xlink:href="#DejaVuSans-65" x="225.683594"/>
      <use xlink:href="#DejaVuSans-72" x="287.207031"/>
      <use xlink:href="#DejaVuSans-65" x="326.070312"/>
      <use xlink:href="#DejaVuSans-74" x="387.59375"/>
      <use xlink:href="#DejaVuSans-69" x="426.802734"/>
      <use xlink:href="#DejaVuSans-63" x="454.585938"/>
      <use xlink:href="#DejaVuSans-20" x="509.566406"/>
      <use xlink:href="#DejaVuSans-56" x="541.353516"/>
      <use xlink:href="#DejaVuSans-61" x="602.011719"/>
      <use xlink:href="#DejaVuSans-72" x="663.291016"/>
      <use xlink:href="#DejaVuSans-69" x="704.404297"/>
      <use xlink:href="#DejaVuSans-61" x="732.1875"/>
      <use xlink:href="#DejaVuSans-62" x="793.466797"/>
      <use xlink:href="#DejaVuSans-6c" x="856.943359"/>
      <use xlink:href="#DejaVuSans-65" x="884.726562"/>
     </g>
    </g>
   </g>
  </g>
  <g id="axes_2">
   <g id="patch_8">
    <path d="M 406.301426 314.44 
L 707.530039 314.44 
L 707.530039 7.2 
L 406.301426 7.2 
z
" style="fill: #ffffff"/>
   </g>
   <g id="matplotlib.axis_3">
    <g id="xtick_10">
     <g id="line2d_39">
      <path d="M 419.993635 314.44 
L 419.993635 7.2 
" clip-path="url(#peb1c697c9d)" style="fill: none; stroke: #b0b0b0; stroke-opacity: 0.5; stroke-width: 0.8; stroke-linecap: square"/>
     </g>
     <g id="line2d_40">
      <g>
       <use xlink:href="#mac578bb258" x="419.993635" y="314.44" style="stroke: #000000; stroke-width: 0.8"/>
      </g>
     </g>
     <g id="text_22">
      <!-- 0 -->
      <g transform="translate(416.812385 329.038437) scale(0.1 -0.1)">
       <use xlink:href="#DejaVuSans-30"/>
      </g>
     </g>
    </g>
    <g id="xtick_11">
     <g id="line2d_41">
      <path d="M 454.22416 314.44 
L 454.22416 7.2 
" clip-path="url(#peb1c697c9d)" style="fill: none; stroke: #b0b0b0; stroke-opacity: 0.5; stroke-width: 0.8; stroke-linecap: square"/>
     </g>
     <g id="line2d_42">
      <g>
       <use xlink:href="#mac578bb258" x="454.22416" y="314.44" style="stroke: #000000; stroke-width: 0.8"/>
      </g>
     </g>
     <g id="text_23">
      <!-- 5 -->
      <g transform="translate(451.04291 329.038437) scale(0.1 -0.1)">
       <use xlink:href="#DejaVuSans-35"/>
      </g>
     </g>
    </g>
    <g id="xtick_12">
     <g id="line2d_43">
      <path d="M 488.454684 314.44 
L 488.454684 7.2 
" clip-path="url(#peb1c697c9d)" style="fill: none; stroke: #b0b0b0; stroke-opacity: 0.5; stroke-width: 0.8; stroke-linecap: square"/>
     </g>
     <g id="line2d_44">
      <g>
       <use xlink:href="#mac578bb258" x="488.454684" y="314.44" style="stroke: #000000; stroke-width: 0.8"/>
      </g>
     </g>
     <g id="text_24">
      <!-- 10 -->
      <g transform="translate(482.092184 329.038437) scale(0.1 -0.1)">
       <use xlink:href="#DejaVuSans-31"/>
       <use xlink:href="#DejaVuSans-30" x="63.623047"/>
      </g>
     </g>
    </g>
    <g id="xtick_13">
     <g id="line2d_45">
      <path d="M 522.685208 314.44 
L 522.685208 7.2 
" clip-path="url(#peb1c697c9d)" style="fill: none; stroke: #b0b0b0; stroke-opacity: 0.5; stroke-width: 0.8; stroke-linecap: square"/>
     </g>
     <g id="line2d_46">
      <g>
       <use xlink:href="#mac578bb258" x="522.685208" y="314.44" style="stroke: #000000; stroke-width: 0.8"/>
      </g>
     </g>
     <g id="text_25">
      <!-- 15 -->
      <g transform="translate(516.322708 329.038437) scale(0.1 -0.1)">
       <use xlink:href="#DejaVuSans-31"/>
       <use xlink:href="#DejaVuSans-35" x="63.623047"/>
      </g>
     </g>
    </g>
    <g id="xtick_14">
     <g id="line2d_47">
      <path d="M 556.915732 314.44 
L 556.915732 7.2 
" clip-path="url(#peb1c697c9d)" style="fill: none; stroke: #b0b0b0; stroke-opacity: 0.5; stroke-width: 0.8; stroke-linecap: square"/>
     </g>
     <g id="line2d_48">
      <g>
       <use xlink:href="#mac578bb258" x="556.915732" y="314.44" style="stroke: #000000; stroke-width: 0.8"/>
      </g>
     </g>
     <g id="text_26">
      <!-- 20 -->
      <g transform="translate(550.553232 329.038437) scale(0.1 -0.1)">
       <use xlink:href="#DejaVuSans-32"/>
       <use xlink:href="#DejaVuSans-30" x="63.623047"/>
      </g>
     </g>
    </g>
    <g id="xtick_15">
     <g id="line2d_49">
      <path d="M 591.146257 314.44 
L 591.146257 7.2 
" clip-path="url(#peb1c697c9d)" style="fill: none; stroke: #b0b0b0; stroke-opacity: 0.5; stroke-width: 0.8; stroke-linecap: square"/>
     </g>
     <g id="line2d_50">
      <g>
       <use xlink:href="#mac578bb258" x="591.146257" y="314.44" style="stroke: #000000; stroke-width: 0.8"/>
      </g>
     </g>
     <g id="text_27">
      <!-- 25 -->
      <g transform="translate(584.783757 329.038437) scale(0.1 -0.1)">
       <use xlink:href="#DejaVuSans-32"/>
       <use xlink:href="#DejaVuSans-35" x="63.623047"/>
      </g>
     </g>
    </g>
    <g id="xtick_16">
     <g id="line2d_51">
      <path d="M 625.376781 314.44 
L 625.376781 7.2 
" clip-path="url(#peb1c697c9d)" style="fill: none; stroke: #b0b0b0; stroke-opacity: 0.5; stroke-width: 0.8; stroke-linecap: square"/>
     </g>
     <g id="line2d_52">
      <g>
       <use xlink:href="#mac578bb258" x="625.376781" y="314.44" style="stroke: #000000; stroke-width: 0.8"/>
      </g>
     </g>
     <g id="text_28">
      <!-- 30 -->
      <g transform="translate(619.014281 329.038437) scale(0.1 -0.1)">
       <use xlink:href="#DejaVuSans-33"/>
       <use xlink:href="#DejaVuSans-30" x="63.623047"/>
      </g>
     </g>
    </g>
    <g id="xtick_17">
     <g id="line2d_53">
      <path d="M 659.607305 314.44 
L 659.607305 7.2 
" clip-path="url(#peb1c697c9d)" style="fill: none; stroke: #b0b0b0; stroke-opacity: 0.5; stroke-width: 0.8; stroke-linecap: square"/>
     </g>
     <g id="line2d_54">
      <g>
       <use xlink:href="#mac578bb258" x="659.607305" y="314.44" style="stroke: #000000; stroke-width: 0.8"/>
      </g>
     </g>
     <g id="text_29">
      <!-- 35 -->
      <g transform="translate(653.244805 329.038437) scale(0.1 -0.1)">
       <use xlink:href="#DejaVuSans-33"/>
       <use xlink:href="#DejaVuSans-35" x="63.623047"/>
      </g>
     </g>
    </g>
    <g id="xtick_18">
     <g id="line2d_55">
      <path d="M 693.837829 314.44 
L 693.837829 7.2 
" clip-path="url(#peb1c697c9d)" style="fill: none; stroke: #b0b0b0; stroke-opacity: 0.5; stroke-width: 0.8; stroke-linecap: square"/>
     </g>
     <g id="line2d_56">
      <g>
       <use xlink:href="#mac578bb258" x="693.837829" y="314.44" style="stroke: #000000; stroke-width: 0.8"/>
      </g>
     </g>
     <g id="text_30">
      <!-- 40 -->
      <g transform="translate(687.475329 329.038437) scale(0.1 -0.1)">
       <use xlink:href="#DejaVuSans-34"/>
       <use xlink:href="#DejaVuSans-30" x="63.623047"/>
      </g>
     </g>
    </g>
    <g id="text_31">
     <!-- Time -->
     <g transform="translate(544.682139 342.716562) scale(0.1 -0.1)">
      <use xlink:href="#DejaVuSans-54"/>
      <use xlink:href="#DejaVuSans-69" x="57.958984"/>
      <use xlink:href="#DejaVuSans-6d" x="85.742188"/>
      <use xlink:href="#DejaVuSans-65" x="183.154297"/>
     </g>
    </g>
   </g>
   <g id="matplotlib.axis_4">
    <g id="ytick_9">
     <g id="line2d_57">
      <path d="M 406.301426 278.129179 
L 707.530039 278.129179 
" clip-path="url(#peb1c697c9d)" style="fill: none; stroke: #b0b0b0; stroke-opacity: 0.5; stroke-width: 0.8; stroke-linecap: square"/>
     </g>
     <g id="line2d_58">
      <g>
       <use xlink:href="#m2561514675" x="406.301426" y="278.129179" style="stroke: #000000; stroke-width: 0.8"/>
      </g>
     </g>
     <g id="text_32">
      <!-- −1.5 -->
      <g transform="translate(375.018613 281.928398) scale(0.1 -0.1)">
       <defs>
        <path id="DejaVuSans-2e" d="M 684 794 
L 1344 794 
L 1344 0 
L 684 0 
L 684 794 
z
" transform="scale(0.015625)"/>
       </defs>
       <use xlink:href="#DejaVuSans-2212"/>
       <use xlink:href="#DejaVuSans-31" x="83.789062"/>
       <use xlink:href="#DejaVuSans-2e" x="147.412109"/>
       <use xlink:href="#DejaVuSans-35" x="179.199219"/>
      </g>
     </g>
    </g>
    <g id="ytick_10">
     <g id="line2d_59">
      <path d="M 406.301426 238.032422 
L 707.530039 238.032422 
" clip-path="url(#peb1c697c9d)" style="fill: none; stroke: #b0b0b0; stroke-opacity: 0.5; stroke-width: 0.8; stroke-linecap: square"/>
     </g>
     <g id="line2d_60">
      <g>
       <use xlink:href="#m2561514675" x="406.301426" y="238.032422" style="stroke: #000000; stroke-width: 0.8"/>
      </g>
     </g>
     <g id="text_33">
      <!-- −1.0 -->
      <g transform="translate(375.018613 241.831641) scale(0.1 -0.1)">
       <use xlink:href="#DejaVuSans-2212"/>
       <use xlink:href="#DejaVuSans-31" x="83.789062"/>
       <use xlink:href="#DejaVuSans-2e" x="147.412109"/>
       <use xlink:href="#DejaVuSans-30" x="179.199219"/>
      </g>
     </g>
    </g>
    <g id="ytick_11">
     <g id="line2d_61">
      <path d="M 406.301426 197.935665 
L 707.530039 197.935665 
" clip-path="url(#peb1c697c9d)" style="fill: none; stroke: #b0b0b0; stroke-opacity: 0.5; stroke-width: 0.8; stroke-linecap: square"/>
     </g>
     <g id="line2d_62">
      <g>
       <use xlink:href="#m2561514675" x="406.301426" y="197.935665" style="stroke: #000000; stroke-width: 0.8"/>
      </g>
     </g>
     <g id="text_34">
      <!-- −0.5 -->
      <g transform="translate(375.018613 201.734884) scale(0.1 -0.1)">
       <use xlink:href="#DejaVuSans-2212"/>
       <use xlink:href="#DejaVuSans-30" x="83.789062"/>
       <use xlink:href="#DejaVuSans-2e" x="147.412109"/>
       <use xlink:href="#DejaVuSans-35" x="179.199219"/>
      </g>
     </g>
    </g>
    <g id="ytick_12">
     <g id="line2d_63">
      <path d="M 406.301426 157.838909 
L 707.530039 157.838909 
" clip-path="url(#peb1c697c9d)" style="fill: none; stroke: #b0b0b0; stroke-opacity: 0.5; stroke-width: 0.8; stroke-linecap: square"/>
     </g>
     <g id="line2d_64">
      <g>
       <use xlink:href="#m2561514675" x="406.301426" y="157.838909" style="stroke: #000000; stroke-width: 0.8"/>
      </g>
     </g>
     <g id="text_35">
      <!-- 0.0 -->
      <g transform="translate(383.398301 161.638127) scale(0.1 -0.1)">
       <use xlink:href="#DejaVuSans-30"/>
       <use xlink:href="#DejaVuSans-2e" x="63.623047"/>
       <use xlink:href="#DejaVuSans-30" x="95.410156"/>
      </g>
     </g>
    </g>
    <g id="ytick_13">
     <g id="line2d_65">
      <path d="M 406.301426 117.742152 
L 707.530039 117.742152 
" clip-path="url(#peb1c697c9d)" style="fill: none; stroke: #b0b0b0; stroke-opacity: 0.5; stroke-width: 0.8; stroke-linecap: square"/>
     </g>
     <g id="line2d_66">
      <g>
       <use xlink:href="#m2561514675" x="406.301426" y="117.742152" style="stroke: #000000; stroke-width: 0.8"/>
      </g>
     </g>
     <g id="text_36">
      <!-- 0.5 -->
      <g transform="translate(383.398301 121.54137) scale(0.1 -0.1)">
       <use xlink:href="#DejaVuSans-30"/>
       <use xlink:href="#DejaVuSans-2e" x="63.623047"/>
       <use xlink:href="#DejaVuSans-35" x="95.410156"/>
      </g>
     </g>
    </g>
    <g id="ytick_14">
     <g id="line2d_67">
      <path d="M 406.301426 77.645395 
L 707.530039 77.645395 
" clip-path="url(#peb1c697c9d)" style="fill: none; stroke: #b0b0b0; stroke-opacity: 0.5; stroke-width: 0.8; stroke-linecap: square"/>
     </g>
     <g id="line2d_68">
      <g>
       <use xlink:href="#m2561514675" x="406.301426" y="77.645395" style="stroke: #000000; stroke-width: 0.8"/>
      </g>
     </g>
     <g id="text_37">
      <!-- 1.0 -->
      <g transform="translate(383.398301 81.444614) scale(0.1 -0.1)">
       <use xlink:href="#DejaVuSans-31"/>
       <use xlink:href="#DejaVuSans-2e" x="63.623047"/>
       <use xlink:href="#DejaVuSans-30" x="95.410156"/>
      </g>
     </g>
    </g>
    <g id="ytick_15">
     <g id="line2d_69">
      <path d="M 406.301426 37.548638 
L 707.530039 37.548638 
" clip-path="url(#peb1c697c9d)" style="fill: none; stroke: #b0b0b0; stroke-opacity: 0.5; stroke-width: 0.8; stroke-linecap: square"/>
     </g>
     <g id="line2d_70">
      <g>
       <use xlink:href="#m2561514675" x="406.301426" y="37.548638" style="stroke: #000000; stroke-width: 0.8"/>
      </g>
     </g>
     <g id="text_38">
      <!-- 1.5 -->
      <g transform="translate(383.398301 41.347857) scale(0.1 -0.1)">
       <use xlink:href="#DejaVuSans-31"/>
       <use xlink:href="#DejaVuSans-2e" x="63.623047"/>
       <use xlink:href="#DejaVuSans-35" x="95.410156"/>
      </g>
     </g>
    </g>
    <g id="text_39">
     <!-- Restoring force -->
     <g transform="translate(368.938926 198.734844) rotate(-90) scale(0.1 -0.1)">
      <defs>
       <path id="DejaVuSans-52" d="M 2841 2188 
Q 3044 2119 3236 1894 
Q 3428 1669 3622 1275 
L 4263 0 
L 3584 0 
L 2988 1197 
Q 2756 1666 2539 1819 
Q 2322 1972 1947 1972 
L 1259 1972 
L 1259 0 
L 628 0 
L 628 4666 
L 2053 4666 
Q 2853 4666 3247 4331 
Q 3641 3997 3641 3322 
Q 3641 2881 3436 2590 
Q 3231 2300 2841 2188 
z
M 1259 4147 
L 1259 2491 
L 2053 2491 
Q 2509 2491 2742 2702 
Q 2975 2913 2975 3322 
Q 2975 3731 2742 3939 
Q 2509 4147 2053 4147 
L 1259 4147 
z
" transform="scale(0.015625)"/>
       <path id="DejaVuSans-6f" d="M 1959 3097 
Q 1497 3097 1228 2736 
Q 959 2375 959 1747 
Q 959 1119 1226 758 
Q 1494 397 1959 397 
Q 2419 397 2687 759 
Q 2956 1122 2956 1747 
Q 2956 2369 2687 2733 
Q 2419 3097 1959 3097 
z
M 1959 3584 
Q 2709 3584 3137 3096 
Q 3566 2609 3566 1747 
Q 3566 888 3137 398 
Q 2709 -91 1959 -91 
Q 1206 -91 779 398 
Q 353 888 353 1747 
Q 353 2609 779 3096 
Q 1206 3584 1959 3584 
z
" transform="scale(0.015625)"/>
       <path id="DejaVuSans-67" d="M 2906 1791 
Q 2906 2416 2648 2759 
Q 2391 3103 1925 3103 
Q 1463 3103 1205 2759 
Q 947 2416 947 1791 
Q 947 1169 1205 825 
Q 1463 481 1925 481 
Q 2391 481 2648 825 
Q 2906 1169 2906 1791 
z
M 3481 434 
Q 3481 -459 3084 -895 
Q 2688 -1331 1869 -1331 
Q 1566 -1331 1297 -1286 
Q 1028 -1241 775 -1147 
L 775 -588 
Q 1028 -725 1275 -790 
Q 1522 -856 1778 -856 
Q 2344 -856 2625 -561 
Q 2906 -266 2906 331 
L 2906 616 
Q 2728 306 2450 153 
Q 2172 0 1784 0 
Q 1141 0 747 490 
Q 353 981 353 1791 
Q 353 2603 747 3093 
Q 1141 3584 1784 3584 
Q 2172 3584 2450 3431 
Q 2728 3278 2906 2969 
L 2906 3500 
L 3481 3500 
L 3481 434 
z
" transform="scale(0.015625)"/>
       <path id="DejaVuSans-66" d="M 2375 4863 
L 2375 4384 
L 1825 4384 
Q 1516 4384 1395 4259 
Q 1275 4134 1275 3809 
L 1275 3500 
L 2222 3500 
L 2222 3053 
L 1275 3053 
L 1275 0 
L 697 0 
L 697 3053 
L 147 3053 
L 147 3500 
L 697 3500 
L 697 3744 
Q 697 4328 969 4595 
Q 1241 4863 1831 4863 
L 2375 4863 
z
" transform="scale(0.015625)"/>
      </defs>
      <use xlink:href="#DejaVuSans-52"/>
      <use xlink:href="#DejaVuSans-65" x="64.982422"/>
      <use xlink:href="#DejaVuSans-73" x="126.505859"/>
      <use xlink:href="#DejaVuSans-74" x="178.605469"/>
      <use xlink:href="#DejaVuSans-6f" x="217.814453"/>
      <use xlink:href="#DejaVuSans-72" x="278.996094"/>
      <use xlink:href="#DejaVuSans-69" x="320.109375"/>
      <use xlink:href="#DejaVuSans-6e" x="347.892578"/>
      <use xlink:href="#DejaVuSans-67" x="411.271484"/>
      <use xlink:href="#DejaVuSans-20" x="474.748047"/>
      <use xlink:href="#DejaVuSans-66" x="506.535156"/>
      <use xlink:href="#DejaVuSans-6f" x="541.740234"/>
      <use xlink:href="#DejaVuSans-72" x="602.921875"/>
      <use xlink:href="#DejaVuSans-63" x="641.785156"/>
      <use xlink:href="#DejaVuSans-65" x="696.765625"/>
     </g>
    </g>
   </g>
   <g id="line2d_71">
    <path d="M 419.993635 157.838909 
L 421.912464 157.75757 
L 422.734819 157.504237 
L 423.283055 157.152433 
L 423.831292 156.584213 
L 424.379528 155.733746 
L 424.927765 154.534279 
L 425.476002 152.922896 
L 426.298357 149.620018 
L 427.120712 145.160743 
L 427.943067 139.546491 
L 429.03954 130.523576 
L 433.151314 94.514569 
L 434.247788 87.903007 
L 435.070143 84.124947 
L 435.892498 81.244961 
L 436.714853 79.10275 
L 437.537207 77.525495 
L 438.359562 76.355445 
L 439.456036 75.212691 
L 440.826627 74.175763 
L 442.471337 73.237121 
L 444.390165 72.41928 
L 446.034875 71.965342 
L 447.405467 71.802678 
L 447.679585 71.797305 
L 447.953703 72.228297 
L 448.227822 73.640828 
L 448.50194 76.062657 
L 449.050177 84.02604 
L 449.598413 96.273722 
L 450.14665 112.913461 
L 450.969005 146.219811 
L 451.79136 182.019733 
L 452.613715 206.620973 
L 453.161951 217.243989 
L 453.710188 224.315628 
L 454.258425 228.840629 
L 454.806661 231.687056 
L 455.354898 233.512149 
L 456.177253 235.267683 
L 457.273726 236.937659 
L 460.563146 241.723382 
L 465.223157 248.689069 
L 466.867867 250.736536 
L 468.238458 252.115445 
L 469.334932 252.952154 
L 470.431405 253.516979 
L 471.527878 253.783153 
L 471.801996 253.800484 
L 472.076115 253.381899 
L 472.350233 251.047388 
L 472.624351 246.652678 
L 473.172588 231.651331 
L 473.720825 208.378771 
L 475.365535 121.520889 
L 475.913771 107.087536 
L 476.462008 98.817683 
L 477.010244 94.335483 
L 477.558481 91.876291 
L 478.106718 90.360881 
L 479.203191 88.201192 
L 481.396137 83.991213 
L 487.974977 70.780373 
L 489.345568 68.723585 
L 490.442042 67.428695 
L 491.538515 66.496661 
L 492.36087 66.0597 
L 493.183225 65.862416 
L 493.457343 65.871613 
L 493.731461 67.615812 
L 494.00558 72.191124 
L 494.553816 89.882096 
L 495.102053 118.949994 
L 496.198526 190.561687 
L 496.746763 210.299834 
L 497.295 220.77161 
L 497.843236 225.869219 
L 498.391473 228.417001 
L 499.213828 230.619157 
L 501.406774 235.771354 
L 503.325602 240.983321 
L 509.082087 257.126978 
L 510.452679 260.190431 
L 511.549152 262.210291 
L 512.645625 263.777944 
L 513.46798 264.624271 
L 514.290335 265.16739 
L 515.11269 265.3928 
L 515.386808 265.063208 
L 515.660926 261.652905 
L 515.935045 254.552727 
L 516.483281 229.276032 
L 517.031518 189.335219 
L 517.579755 147.768374 
L 518.127991 122.73771 
L 518.676228 110.32582 
L 519.224464 104.845165 
L 519.772701 102.293895 
L 520.595056 99.97942 
L 522.239766 95.486667 
L 523.884476 90.237835 
L 526.351541 81.454368 
L 529.64096 69.751485 
L 531.28567 64.673365 
L 532.656262 61.15219 
L 533.752735 58.918161 
L 534.57509 57.629512 
L 535.397445 56.700098 
L 536.2198 56.149666 
L 536.768036 56.000706 
L 537.042155 56.225629 
L 537.316273 59.920358 
L 537.590391 68.109519 
L 538.138628 97.959024 
L 539.50922 197.414606 
L 540.057456 211.362201 
L 540.605693 217.027639 
L 541.153929 219.546261 
L 544.717468 231.201743 
L 546.636296 239.024158 
L 551.844544 260.93545 
L 553.215135 265.698896 
L 554.311608 268.910486 
L 555.408082 271.486268 
L 556.230437 272.952063 
L 557.052792 273.987113 
L 557.601028 274.426768 
L 558.149265 274.660126 
L 558.423383 274.698231 
L 558.697501 273.093413 
L 558.97162 266.307329 
L 559.245738 254.204248 
L 559.793975 214.102023 
L 560.342211 162.050984 
L 560.890448 131.019457 
L 561.438685 117.702195 
L 561.986921 112.728788 
L 562.535158 110.447751 
L 564.453986 103.986854 
L 565.824578 98.368457 
L 567.469287 90.690642 
L 570.758707 73.904976 
L 572.951654 63.171082 
L 574.596364 56.161748 
L 575.966955 51.352407 
L 577.063428 48.335917 
L 577.885783 46.618664 
L 578.708138 45.403231 
L 579.256375 44.883759 
L 579.804611 44.603293 
L 580.07873 44.55393 
L 580.352848 46.011875 
L 580.626966 53.306873 
L 580.901085 66.730366 
L 581.449321 111.876223 
L 581.997558 165.377313 
L 582.545795 193.254537 
L 582.819913 199.946069 
L 583.094031 203.859795 
L 583.642268 207.641047 
L 584.464623 210.613657 
L 585.561096 214.640198 
L 586.931688 220.646751 
L 588.576397 229.030375 
L 591.043462 243.038107 
L 594.332882 261.595604 
L 595.977592 269.594746 
L 597.348183 275.115442 
L 598.444657 278.603134 
L 599.267012 280.607237 
L 600.089367 282.04683 
L 600.637603 282.678837 
L 601.18584 283.041132 
L 601.459958 283.119638 
L 601.734076 282.678174 
L 602.008195 276.696974 
L 602.282313 263.775293 
L 602.83055 217.179348 
L 603.378786 160.662669 
L 603.927023 132.685407 
L 604.201141 126.41153 
L 604.47526 122.882408 
L 605.023496 119.480752 
L 607.216443 110.67594 
L 608.587034 103.69472 
L 610.231744 94.022354 
L 612.972927 76.15778 
L 615.71411 58.53559 
L 617.35882 49.262224 
L 618.729412 42.785397 
L 619.825885 38.626351 
L 620.64824 36.183166 
L 621.470595 34.365696 
L 622.018832 33.518003 
L 622.567068 32.970304 
L 623.115305 32.728077 
L 623.389423 33.433811 
L 623.663541 40.650371 
L 623.93766 55.623214 
L 624.485896 108.726515 
L 625.034133 163.590661 
L 625.308251 178.38951 
L 625.58237 187.052076 
L 625.856488 191.818196 
L 626.404725 196.036086 
L 629.145908 208.279618 
L 630.516499 216.287737 
L 632.435327 229.137971 
L 638.46593 271.172406 
L 639.836522 278.69026 
L 640.932995 283.635337 
L 642.029468 287.476632 
L 642.851823 289.563843 
L 643.40006 290.555862 
L 643.948297 291.218092 
L 644.496533 291.544071 
L 644.770651 291.548948 
L 645.04477 286.541758 
L 645.318888 272.969698 
L 645.867125 220.214291 
L 646.415361 161.355095 
L 646.68948 145.707438 
L 646.963598 136.805145 
L 647.237716 132.066208 
L 647.785953 127.963701 
L 649.704781 119.368215 
L 650.801254 113.151817 
L 652.171846 104.113527 
L 654.090674 89.715211 
L 659.847159 45.015408 
L 661.21775 36.496305 
L 662.314223 30.831607 
L 663.410697 26.360917 
L 664.233052 23.869463 
L 665.055407 22.164168 
L 665.603643 21.479883 
L 666.15188 21.165455 
L 666.425998 21.614307 
L 666.700116 29.278059 
L 666.974235 46.32261 
L 667.522471 108.113176 
L 668.070708 160.619142 
L 668.344826 172.774604 
L 668.618945 179.208092 
L 668.893063 182.512018 
L 669.4413 185.685568 
L 670.811891 191.970053 
L 671.908364 198.264123 
L 673.278956 207.609667 
L 674.923666 220.517805 
L 677.664849 244.231156 
L 680.406032 267.433884 
L 682.050742 279.538958 
L 683.421334 287.923139 
L 684.517807 293.252814 
L 685.340162 296.345025 
L 686.162517 298.603682 
L 686.710753 299.626359 
L 687.25899 300.252052 
L 687.807227 300.474545 
L 688.081345 296.308759 
L 688.355463 281.999145 
L 688.629581 257.516617 
L 689.451936 163.721313 
L 689.726055 149.933171 
L 690.000173 142.760553 
L 690.274291 139.182933 
L 690.822528 135.864919 
L 691.919001 130.711769 
L 693.015474 124.316873 
L 693.837829 118.710291 
L 693.837829 118.710291 
" clip-path="url(#peb1c697c9d)" style="fill: none; stroke: #0000ff; stroke-width: 1.5; stroke-linecap: square"/>
   </g>
   <g id="patch_9">
    <path d="M 406.301426 314.44 
L 406.301426 7.2 
" style="fill: none; stroke: #000000; stroke-width: 0.8; stroke-linejoin: miter; stroke-linecap: square"/>
   </g>
   <g id="patch_10">
    <path d="M 707.530039 314.44 
L 707.530039 7.2 
" style="fill: none; stroke: #000000; stroke-width: 0.8; stroke-linejoin: miter; stroke-linecap: square"/>
   </g>
   <g id="patch_11">
    <path d="M 406.301426 314.44 
L 707.530039 314.44 
" style="fill: none; stroke: #000000; stroke-width: 0.8; stroke-linejoin: miter; stroke-linecap: square"/>
   </g>
   <g id="patch_12">
    <path d="M 406.301426 7.2 
L 707.530039 7.2 
" style="fill: none; stroke: #000000; stroke-width: 0.8; stroke-linejoin: miter; stroke-linecap: square"/>
   </g>
  </g>
  <g id="axes_3">
   <g id="patch_13">
    <path d="M 763.620039 314.44 
L 1064.848652 314.44 
L 1064.848652 7.2 
L 763.620039 7.2 
z
" style="fill: #ffffff"/>
   </g>
   <g id="matplotlib.axis_5">
    <g id="xtick_19">
     <g id="line2d_72">
      <path d="M 775.243244 314.44 
L 775.243244 7.2 
" clip-path="url(#p2759e82c6f)" style="fill: none; stroke: #b0b0b0; stroke-opacity: 0.5; stroke-width: 0.8; stroke-linecap: square"/>
     </g>
     <g id="line2d_73">
      <g>
       <use xlink:href="#mac578bb258" x="775.243244" y="314.44" style="stroke: #000000; stroke-width: 0.8"/>
      </g>
     </g>
     <g id="text_40">
      <!-- −80 -->
      <g transform="translate(764.6909 329.038437) scale(0.1 -0.1)">
       <use xlink:href="#DejaVuSans-2212"/>
       <use xlink:href="#DejaVuSans-38" x="83.789062"/>
       <use xlink:href="#DejaVuSans-30" x="147.412109"/>
      </g>
     </g>
    </g>
    <g id="xtick_20">
     <g id="line2d_74">
      <path d="M 811.679225 314.44 
L 811.679225 7.2 
" clip-path="url(#p2759e82c6f)" style="fill: none; stroke: #b0b0b0; stroke-opacity: 0.5; stroke-width: 0.8; stroke-linecap: square"/>
     </g>
     <g id="line2d_75">
      <g>
       <use xlink:href="#mac578bb258" x="811.679225" y="314.44" style="stroke: #000000; stroke-width: 0.8"/>
      </g>
     </g>
     <g id="text_41">
      <!-- −60 -->
      <g transform="translate(801.126881 329.038437) scale(0.1 -0.1)">
       <use xlink:href="#DejaVuSans-2212"/>
       <use xlink:href="#DejaVuSans-36" x="83.789062"/>
       <use xlink:href="#DejaVuSans-30" x="147.412109"/>
      </g>
     </g>
    </g>
    <g id="xtick_21">
     <g id="line2d_76">
      <path d="M 848.115206 314.44 
L 848.115206 7.2 
" clip-path="url(#p2759e82c6f)" style="fill: none; stroke: #b0b0b0; stroke-opacity: 0.5; stroke-width: 0.8; stroke-linecap: square"/>
     </g>
     <g id="line2d_77">
      <g>
       <use xlink:href="#mac578bb258" x="848.115206" y="314.44" style="stroke: #000000; stroke-width: 0.8"/>
      </g>
     </g>
     <g id="text_42">
      <!-- −40 -->
      <g transform="translate(837.562862 329.038437) scale(0.1 -0.1)">
       <use xlink:href="#DejaVuSans-2212"/>
       <use xlink:href="#DejaVuSans-34" x="83.789062"/>
       <use xlink:href="#DejaVuSans-30" x="147.412109"/>
      </g>
     </g>
    </g>
    <g id="xtick_22">
     <g id="line2d_78">
      <path d="M 884.551187 314.44 
L 884.551187 7.2 
" clip-path="url(#p2759e82c6f)" style="fill: none; stroke: #b0b0b0; stroke-opacity: 0.5; stroke-width: 0.8; stroke-linecap: square"/>
     </g>
     <g id="line2d_79">
      <g>
       <use xlink:href="#mac578bb258" x="884.551187" y="314.44" style="stroke: #000000; stroke-width: 0.8"/>
      </g>
     </g>
     <g id="text_43">
      <!-- −20 -->
      <g transform="translate(873.998843 329.038437) scale(0.1 -0.1)">
       <use xlink:href="#DejaVuSans-2212"/>
       <use xlink:href="#DejaVuSans-32" x="83.789062"/>
       <use xlink:href="#DejaVuSans-30" x="147.412109"/>
      </g>
     </g>
    </g>
    <g id="xtick_23">
     <g id="line2d_80">
      <path d="M 920.987168 314.44 
L 920.987168 7.2 
" clip-path="url(#p2759e82c6f)" style="fill: none; stroke: #b0b0b0; stroke-opacity: 0.5; stroke-width: 0.8; stroke-linecap: square"/>
     </g>
     <g id="line2d_81">
      <g>
       <use xlink:href="#mac578bb258" x="920.987168" y="314.44" style="stroke: #000000; stroke-width: 0.8"/>
      </g>
     </g>
     <g id="text_44">
      <!-- 0 -->
      <g transform="translate(917.805918 329.038437) scale(0.1 -0.1)">
       <use xlink:href="#DejaVuSans-30"/>
      </g>
     </g>
    </g>
    <g id="xtick_24">
     <g id="line2d_82">
      <path d="M 957.423149 314.44 
L 957.423149 7.2 
" clip-path="url(#p2759e82c6f)" style="fill: none; stroke: #b0b0b0; stroke-opacity: 0.5; stroke-width: 0.8; stroke-linecap: square"/>
     </g>
     <g id="line2d_83">
      <g>
       <use xlink:href="#mac578bb258" x="957.423149" y="314.44" style="stroke: #000000; stroke-width: 0.8"/>
      </g>
     </g>
     <g id="text_45">
      <!-- 20 -->
      <g transform="translate(951.060649 329.038437) scale(0.1 -0.1)">
       <use xlink:href="#DejaVuSans-32"/>
       <use xlink:href="#DejaVuSans-30" x="63.623047"/>
      </g>
     </g>
    </g>
    <g id="xtick_25">
     <g id="line2d_84">
      <path d="M 993.85913 314.44 
L 993.85913 7.2 
" clip-path="url(#p2759e82c6f)" style="fill: none; stroke: #b0b0b0; stroke-opacity: 0.5; stroke-width: 0.8; stroke-linecap: square"/>
     </g>
     <g id="line2d_85">
      <g>
       <use xlink:href="#mac578bb258" x="993.85913" y="314.44" style="stroke: #000000; stroke-width: 0.8"/>
      </g>
     </g>
     <g id="text_46">
      <!-- 40 -->
      <g transform="translate(987.49663 329.038437) scale(0.1 -0.1)">
       <use xlink:href="#DejaVuSans-34"/>
       <use xlink:href="#DejaVuSans-30" x="63.623047"/>
      </g>
     </g>
    </g>
    <g id="xtick_26">
     <g id="line2d_86">
      <path d="M 1030.295111 314.44 
L 1030.295111 7.2 
" clip-path="url(#p2759e82c6f)" style="fill: none; stroke: #b0b0b0; stroke-opacity: 0.5; stroke-width: 0.8; stroke-linecap: square"/>
     </g>
     <g id="line2d_87">
      <g>
       <use xlink:href="#mac578bb258" x="1030.295111" y="314.44" style="stroke: #000000; stroke-width: 0.8"/>
      </g>
     </g>
     <g id="text_47">
      <!-- 60 -->
      <g transform="translate(1023.932611 329.038437) scale(0.1 -0.1)">
       <use xlink:href="#DejaVuSans-36"/>
       <use xlink:href="#DejaVuSans-30" x="63.623047"/>
      </g>
     </g>
    </g>
    <g id="text_48">
     <!-- Displacement -->
     <g transform="translate(879.861689 342.716562) scale(0.1 -0.1)">
      <use xlink:href="#DejaVuSans-44"/>
      <use xlink:href="#DejaVuSans-69" x="77.001953"/>
      <use xlink:href="#DejaVuSans-73" x="104.785156"/>
      <use xlink:href="#DejaVuSans-70" x="156.884766"/>
      <use xlink:href="#DejaVuSans-6c" x="220.361328"/>
      <use xlink:href="#DejaVuSans-61" x="248.144531"/>
      <use xlink:href="#DejaVuSans-63" x="309.423828"/>
      <use xlink:href="#DejaVuSans-65" x="364.404297"/>
      <use xlink:href="#DejaVuSans-6d" x="425.927734"/>
      <use xlink:href="#DejaVuSans-65" x="523.339844"/>
      <use xlink:href="#DejaVuSans-6e" x="584.863281"/>
      <use xlink:href="#DejaVuSans-74" x="648.242188"/>
     </g>
    </g>
   </g>
   <g id="matplotlib.axis_6">
    <g id="ytick_16">
     <g id="line2d_88">
      <path d="M 763.620039 278.129179 
L 1064.848652 278.129179 
" clip-path="url(#p2759e82c6f)" style="fill: none; stroke: #b0b0b0; stroke-opacity: 0.5; stroke-width: 0.8; stroke-linecap: square"/>
     </g>
     <g id="line2d_89">
      <g>
       <use xlink:href="#m2561514675" x="763.620039" y="278.129179" style="stroke: #000000; stroke-width: 0.8"/>
      </g>
     </g>
     <g id="text_49">
      <!-- −1.5 -->
      <g transform="translate(732.337227 281.928398) scale(0.1 -0.1)">
       <use xlink:href="#DejaVuSans-2212"/>
       <use xlink:href="#DejaVuSans-31" x="83.789062"/>
       <use xlink:href="#DejaVuSans-2e" x="147.412109"/>
       <use xlink:href="#DejaVuSans-35" x="179.199219"/>
      </g>
     </g>
    </g>
    <g id="ytick_17">
     <g id="line2d_90">
      <path d="M 763.620039 238.032422 
L 1064.848652 238.032422 
" clip-path="url(#p2759e82c6f)" style="fill: none; stroke: #b0b0b0; stroke-opacity: 0.5; stroke-width: 0.8; stroke-linecap: square"/>
     </g>
     <g id="line2d_91">
      <g>
       <use xlink:href="#m2561514675" x="763.620039" y="238.032422" style="stroke: #000000; stroke-width: 0.8"/>
      </g>
     </g>
     <g id="text_50">
      <!-- −1.0 -->
      <g transform="translate(732.337227 241.831641) scale(0.1 -0.1)">
       <use xlink:href="#DejaVuSans-2212"/>
       <use xlink:href="#DejaVuSans-31" x="83.789062"/>
       <use xlink:href="#DejaVuSans-2e" x="147.412109"/>
       <use xlink:href="#DejaVuSans-30" x="179.199219"/>
      </g>
     </g>
    </g>
    <g id="ytick_18">
     <g id="line2d_92">
      <path d="M 763.620039 197.935665 
L 1064.848652 197.935665 
" clip-path="url(#p2759e82c6f)" style="fill: none; stroke: #b0b0b0; stroke-opacity: 0.5; stroke-width: 0.8; stroke-linecap: square"/>
     </g>
     <g id="line2d_93">
      <g>
       <use xlink:href="#m2561514675" x="763.620039" y="197.935665" style="stroke: #000000; stroke-width: 0.8"/>
      </g>
     </g>
     <g id="text_51">
      <!-- −0.5 -->
      <g transform="translate(732.337227 201.734884) scale(0.1 -0.1)">
       <use xlink:href="#DejaVuSans-2212"/>
       <use xlink:href="#DejaVuSans-30" x="83.789062"/>
       <use xlink:href="#DejaVuSans-2e" x="147.412109"/>
       <use xlink:href="#DejaVuSans-35" x="179.199219"/>
      </g>
     </g>
    </g>
    <g id="ytick_19">
     <g id="line2d_94">
      <path d="M 763.620039 157.838909 
L 1064.848652 157.838909 
" clip-path="url(#p2759e82c6f)" style="fill: none; stroke: #b0b0b0; stroke-opacity: 0.5; stroke-width: 0.8; stroke-linecap: square"/>
     </g>
     <g id="line2d_95">
      <g>
       <use xlink:href="#m2561514675" x="763.620039" y="157.838909" style="stroke: #000000; stroke-width: 0.8"/>
      </g>
     </g>
     <g id="text_52">
      <!-- 0.0 -->
      <g transform="translate(740.716914 161.638127) scale(0.1 -0.1)">
       <use xlink:href="#DejaVuSans-30"/>
       <use xlink:href="#DejaVuSans-2e" x="63.623047"/>
       <use xlink:href="#DejaVuSans-30" x="95.410156"/>
      </g>
     </g>
    </g>
    <g id="ytick_20">
     <g id="line2d_96">
      <path d="M 763.620039 117.742152 
L 1064.848652 117.742152 
" clip-path="url(#p2759e82c6f)" style="fill: none; stroke: #b0b0b0; stroke-opacity: 0.5; stroke-width: 0.8; stroke-linecap: square"/>
     </g>
     <g id="line2d_97">
      <g>
       <use xlink:href="#m2561514675" x="763.620039" y="117.742152" style="stroke: #000000; stroke-width: 0.8"/>
      </g>
     </g>
     <g id="text_53">
      <!-- 0.5 -->
      <g transform="translate(740.716914 121.54137) scale(0.1 -0.1)">
       <use xlink:href="#DejaVuSans-30"/>
       <use xlink:href="#DejaVuSans-2e" x="63.623047"/>
       <use xlink:href="#DejaVuSans-35" x="95.410156"/>
      </g>
     </g>
    </g>
    <g id="ytick_21">
     <g id="line2d_98">
      <path d="M 763.620039 77.645395 
L 1064.848652 77.645395 
" clip-path="url(#p2759e82c6f)" style="fill: none; stroke: #b0b0b0; stroke-opacity: 0.5; stroke-width: 0.8; stroke-linecap: square"/>
     </g>
     <g id="line2d_99">
      <g>
       <use xlink:href="#m2561514675" x="763.620039" y="77.645395" style="stroke: #000000; stroke-width: 0.8"/>
      </g>
     </g>
     <g id="text_54">
      <!-- 1.0 -->
      <g transform="translate(740.716914 81.444614) scale(0.1 -0.1)">
       <use xlink:href="#DejaVuSans-31"/>
       <use xlink:href="#DejaVuSans-2e" x="63.623047"/>
       <use xlink:href="#DejaVuSans-30" x="95.410156"/>
      </g>
     </g>
    </g>
    <g id="ytick_22">
     <g id="line2d_100">
      <path d="M 763.620039 37.548638 
L 1064.848652 37.548638 
" clip-path="url(#p2759e82c6f)" style="fill: none; stroke: #b0b0b0; stroke-opacity: 0.5; stroke-width: 0.8; stroke-linecap: square"/>
     </g>
     <g id="line2d_101">
      <g>
       <use xlink:href="#m2561514675" x="763.620039" y="37.548638" style="stroke: #000000; stroke-width: 0.8"/>
      </g>
     </g>
     <g id="text_55">
      <!-- 1.5 -->
      <g transform="translate(740.716914 41.347857) scale(0.1 -0.1)">
       <use xlink:href="#DejaVuSans-31"/>
       <use xlink:href="#DejaVuSans-2e" x="63.623047"/>
       <use xlink:href="#DejaVuSans-35" x="95.410156"/>
      </g>
     </g>
    </g>
    <g id="text_56">
     <!-- Restoring force -->
     <g transform="translate(726.257539 198.734844) rotate(-90) scale(0.1 -0.1)">
      <use xlink:href="#DejaVuSans-52"/>
      <use xlink:href="#DejaVuSans-65" x="64.982422"/>
      <use xlink:href="#DejaVuSans-73" x="126.505859"/>
      <use xlink:href="#DejaVuSans-74" x="178.605469"/>
      <use xlink:href="#DejaVuSans-6f" x="217.814453"/>
      <use xlink:href="#DejaVuSans-72" x="278.996094"/>
      <use xlink:href="#DejaVuSans-69" x="320.109375"/>
      <use xlink:href="#DejaVuSans-6e" x="347.892578"/>
      <use xlink:href="#DejaVuSans-67" x="411.271484"/>
      <use xlink:href="#DejaVuSans-20" x="474.748047"/>
      <use xlink:href="#DejaVuSans-66" x="506.535156"/>
      <use xlink:href="#DejaVuSans-6f" x="541.740234"/>
      <use xlink:href="#DejaVuSans-72" x="602.921875"/>
      <use xlink:href="#DejaVuSans-63" x="641.785156"/>
      <use xlink:href="#DejaVuSans-65" x="696.765625"/>
     </g>
    </g>
   </g>
   <g id="line2d_102">
    <path d="M 920.987168 157.838909 
L 921.663635 132.91581 
L 922.35983 115.215302 
L 923.065761 102.89903 
L 923.764111 94.514569 
L 924.366278 89.383159 
L 925.033888 85.277653 
L 925.763527 82.114477 
L 926.549939 79.745613 
L 927.385911 77.998737 
L 928.262189 76.708807 
L 929.167458 75.737083 
L 930.396235 74.759266 
L 932.208902 73.675396 
L 935.163777 72.240081 
L 936.138468 71.797305 
L 933.817224 171.243719 
L 933.087074 191.489476 
L 932.258643 206.620973 
L 931.333169 217.243989 
L 930.834441 221.15929 
L 930.311953 224.315628 
L 929.765907 226.837665 
L 929.196527 228.840629 
L 928.604069 230.427393 
L 927.988821 231.687056 
L 927.351109 232.694723 
L 926.009807 234.18895 
L 924.583625 235.267683 
L 922.294591 236.546894 
L 918.125443 238.479224 
L 891.019314 250.421994 
L 883.344217 253.800484 
L 883.65053 240.188354 
L 885.512753 159.588709 
L 885.982605 144.485744 
L 886.496228 131.821196 
L 887.05289 121.520889 
L 887.651873 113.3734 
L 888.29246 107.087536 
L 888.973929 102.341119 
L 889.695535 98.817683 
L 890.456504 96.230518 
L 891.256022 94.335483 
L 892.093222 92.935043 
L 892.967185 91.876291 
L 893.876928 91.045451 
L 895.799502 89.765954 
L 898.923386 88.201192 
L 908.393354 83.991213 
L 949.60117 65.871613 
L 947.479662 158.237201 
L 946.927859 176.075123 
L 946.314558 190.561687 
L 945.640601 201.842002 
L 944.906813 210.299834 
L 944.114022 216.436001 
L 943.263072 220.77161 
L 942.354846 223.783333 
L 941.390284 225.869219 
L 940.370389 227.338475 
L 939.296247 228.417001 
L 938.169031 229.261084 
L 935.760513 230.619157 
L 931.784273 232.465517 
L 903.441611 244.953841 
L 857.009331 265.3928 
L 857.003344 265.063208 
L 859.300433 166.506227 
L 859.957801 147.768374 
L 860.694707 133.319303 
L 861.510083 122.73771 
L 862.40287 115.329031 
L 863.371992 110.32582 
L 864.416332 107.02272 
L 865.534703 104.845165 
L 866.725831 103.366573 
L 867.988341 102.293895 
L 869.320742 101.439149 
L 872.18868 99.97942 
L 880.454659 96.289829 
L 971.980368 56.000706 
L 971.998205 56.225629 
L 969.967644 145.081217 
L 969.277293 167.649633 
L 968.489243 184.965956 
L 967.604761 197.414606 
L 966.625103 205.871445 
L 965.551534 211.362201 
L 964.385373 214.83107 
L 963.128022 217.027639 
L 961.780993 218.484401 
L 960.345924 219.546261 
L 957.21893 221.217174 
L 949.996453 224.459707 
L 835.869685 274.698231 
L 837.243361 214.102023 
L 837.87786 186.586351 
L 838.630048 162.050984 
L 839.498515 143.714303 
L 840.481883 131.019457 
L 841.578785 122.785957 
L 842.787834 117.702195 
L 844.107568 114.630683 
L 845.536414 112.728788 
L 847.072656 111.443609 
L 848.714421 110.447751 
L 852.306164 108.705932 
L 867.844585 101.840093 
L 997.984623 44.55393 
L 997.487392 66.730366 
L 995.743213 141.494193 
L 994.889454 165.377313 
L 993.902137 182.263734 
L 992.782854 193.254537 
L 991.533198 199.946069 
L 990.15482 203.859795 
L 988.649486 206.166612 
L 987.019111 207.641047 
L 985.265795 208.736024 
L 981.399697 210.613657 
L 964.397009 218.121969 
L 816.738323 283.119638 
L 816.71676 282.678174 
L 818.967706 185.729213 
L 819.884429 160.662669 
L 820.953213 143.455259 
L 822.172408 132.685407 
L 823.540353 126.41153 
L 825.055304 122.882408 
L 826.715376 120.831964 
L 828.518501 119.480752 
L 830.462395 118.408753 
L 834.762224 116.413275 
L 874.279543 99.007493 
L 1024.850046 32.728077 
L 1024.862244 33.433811 
L 1023.151779 108.726515 
L 1022.288186 140.572813 
L 1021.253411 163.590661 
L 1020.049336 178.38951 
L 1018.677821 187.052076 
L 1017.140777 191.818196 
L 1015.440243 194.439683 
L 1013.578446 196.036086 
L 1011.557846 197.218239 
L 1007.051312 199.333892 
L 972.411587 214.594045 
L 797.519551 291.548948 
L 799.140099 220.214291 
L 800.027775 186.139014 
L 801.105305 161.355095 
L 802.370748 145.707438 
L 803.82219 136.805145 
L 805.457657 132.066208 
L 807.275031 129.521445 
L 809.271975 127.963701 
L 811.445894 126.769432 
L 816.312875 124.5309 
L 876.241915 98.143679 
L 1051.117476 21.165455 
L 1051.156443 21.614307 
L 1049.184582 108.113176 
L 1048.164465 139.727376 
L 1046.937232 160.619142 
L 1045.504988 172.774604 
L 1043.86985 179.208092 
L 1042.034057 182.512018 
L 1040.000059 184.372504 
L 1037.770578 185.685568 
L 1032.737559 188.030518 
L 983.647 209.648344 
L 777.312249 300.474545 
L 779.073271 222.910333 
L 780.087606 187.481445 
L 781.327911 163.721313 
L 782.792012 149.933171 
L 784.477729 142.760553 
L 786.382768 139.182933 
L 788.504611 137.227761 
L 790.840445 135.864919 
L 796.14119 133.410106 
L 829.519641 118.710291 
L 829.519641 118.710291 
" clip-path="url(#p2759e82c6f)" style="fill: none; stroke: #0000ff; stroke-width: 1.5; stroke-linecap: square"/>
   </g>
   <g id="line2d_103">
    <defs>
     <path id="m1c49adc372" d="M 0 -3 
L -0.673542 -0.927051 
L -2.85317 -0.927051 
L -1.089814 0.354102 
L -1.763356 2.427051 
L -0 1.145898 
L 1.763356 2.427051 
L 1.089814 0.354102 
L 2.85317 -0.927051 
L 0.673542 -0.927051 
z
" style="stroke: #0000ff; stroke-linejoin: bevel"/>
    </defs>
    <g clip-path="url(#p2759e82c6f)">
     <use xlink:href="#m1c49adc372" x="920.987168" y="157.838909" style="fill: #0000ff; stroke: #0000ff; stroke-linejoin: bevel"/>
    </g>
   </g>
   <g id="patch_14">
    <path d="M 763.620039 314.44 
L 763.620039 7.2 
" style="fill: none; stroke: #000000; stroke-width: 0.8; stroke-linejoin: miter; stroke-linecap: square"/>
   </g>
   <g id="patch_15">
    <path d="M 1064.848652 314.44 
L 1064.848652 7.2 
" style="fill: none; stroke: #000000; stroke-width: 0.8; stroke-linejoin: miter; stroke-linecap: square"/>
   </g>
   <g id="patch_16">
    <path d="M 763.620039 314.44 
L 1064.848652 314.44 
" style="fill: none; stroke: #000000; stroke-width: 0.8; stroke-linejoin: miter; stroke-linecap: square"/>
   </g>
   <g id="patch_17">
    <path d="M 763.620039 7.2 
L 1064.848652 7.2 
" style="fill: none; stroke: #000000; stroke-width: 0.8; stroke-linejoin: miter; stroke-linecap: square"/>
   </g>
  </g>
 </g>
 <defs>
  <clipPath id="p82f409173a">
   <rect x="48.982813" y="7.2" width="301.228613" height="307.24"/>
  </clipPath>
  <clipPath id="peb1c697c9d">
   <rect x="406.301426" y="7.2" width="301.228613" height="307.24"/>
  </clipPath>
  <clipPath id="p2759e82c6f">
   <rect x="763.620039" y="7.2" width="301.228613" height="307.24"/>
  </clipPath>
 </defs>
</svg>
