<?xml version="1.0" encoding="utf-8" standalone="no"?>
<!DOCTYPE svg PUBLIC "-//W3C//DTD SVG 1.1//EN"
  "http://www.w3.org/Graphics/SVG/1.1/DTD/svg11.dtd">
<svg xmlns:xlink="http://www.w3.org/1999/xlink" width="352.7pt" height="350.54pt" viewBox="0 0 352.7 350.54" xmlns="http://www.w3.org/2000/svg" version="1.1">
 <metadata>
  <rdf:RDF xmlns:dc="http://purl.org/dc/elements/1.1/" xmlns:cc="http://creativecommons.org/ns#" xmlns:rdf="http://www.w3.org/1999/02/22-rdf-syntax-ns#">
   <cc:Work>
    <dc:type rdf:resource="http://purl.org/dc/dcmitype/StillImage"/>
    <dc:date>2025-02-15T22:59:27.991300</dc:date>
    <dc:format>image/svg+xml</dc:format>
    <dc:creator>
     <cc:Agent>
      <dc:title>Matplotlib v3.9.2, https://matplotlib.org/</dc:title>
     </cc:Agent>
    </dc:creator>
   </cc:Work>
  </rdf:RDF>
 </metadata>
 <defs>
  <style type="text/css">*{stroke-linejoin: round; stroke-linecap: butt}</style>
 </defs>
 <g id="figure_1">
  <g id="patch_1">
   <path d="M 0 350.54 
L 352.7 350.54 
L 352.7 0 
L 0 0 
z
" style="fill: #ffffff"/>
  </g>
  <g id="axes_1">
   <g id="patch_2">
    <path d="M 10.7 339.84 
L 345.5 339.84 
L 345.5 7.2 
L 10.7 7.2 
z
" style="fill: #ffffff"/>
   </g>
   <g id="matplotlib.axis_1">
    <g id="xtick_1">
     <g id="line2d_1">
      <path d="M 15.350507 339.84 
L 15.350507 7.2 
" clip-path="url(#p62428dac53)" style="fill: none; stroke: #b0b0b0; stroke-opacity: 0.3; stroke-width: 0.8; stroke-linecap: square"/>
     </g>
     <g id="line2d_2">
      <defs>
       <path id="m93640581b1" d="M 0 0 
L 0 3.5 
" style="stroke: #000000; stroke-width: 0.8"/>
      </defs>
      <g>
       <use xlink:href="#m93640581b1" x="15.350507" y="339.84" style="stroke: #000000; stroke-width: 0.8"/>
      </g>
     </g>
    </g>
    <g id="xtick_2">
     <g id="line2d_3">
      <path d="M 55.795072 339.84 
L 55.795072 7.2 
" clip-path="url(#p62428dac53)" style="fill: none; stroke: #b0b0b0; stroke-opacity: 0.3; stroke-width: 0.8; stroke-linecap: square"/>
     </g>
     <g id="line2d_4">
      <g>
       <use xlink:href="#m93640581b1" x="55.795072" y="339.84" style="stroke: #000000; stroke-width: 0.8"/>
      </g>
     </g>
    </g>
    <g id="xtick_3">
     <g id="line2d_5">
      <path d="M 96.239637 339.84 
L 96.239637 7.2 
" clip-path="url(#p62428dac53)" style="fill: none; stroke: #b0b0b0; stroke-opacity: 0.3; stroke-width: 0.8; stroke-linecap: square"/>
     </g>
     <g id="line2d_6">
      <g>
       <use xlink:href="#m93640581b1" x="96.239637" y="339.84" style="stroke: #000000; stroke-width: 0.8"/>
      </g>
     </g>
    </g>
    <g id="xtick_4">
     <g id="line2d_7">
      <path d="M 136.684203 339.84 
L 136.684203 7.2 
" clip-path="url(#p62428dac53)" style="fill: none; stroke: #b0b0b0; stroke-opacity: 0.3; stroke-width: 0.8; stroke-linecap: square"/>
     </g>
     <g id="line2d_8">
      <g>
       <use xlink:href="#m93640581b1" x="136.684203" y="339.84" style="stroke: #000000; stroke-width: 0.8"/>
      </g>
     </g>
    </g>
    <g id="xtick_5">
     <g id="line2d_9">
      <path d="M 177.128768 339.84 
L 177.128768 7.2 
" clip-path="url(#p62428dac53)" style="fill: none; stroke: #b0b0b0; stroke-opacity: 0.3; stroke-width: 0.8; stroke-linecap: square"/>
     </g>
     <g id="line2d_10">
      <g>
       <use xlink:href="#m93640581b1" x="177.128768" y="339.84" style="stroke: #000000; stroke-width: 0.8"/>
      </g>
     </g>
    </g>
    <g id="xtick_6">
     <g id="line2d_11">
      <path d="M 217.573333 339.84 
L 217.573333 7.2 
" clip-path="url(#p62428dac53)" style="fill: none; stroke: #b0b0b0; stroke-opacity: 0.3; stroke-width: 0.8; stroke-linecap: square"/>
     </g>
     <g id="line2d_12">
      <g>
       <use xlink:href="#m93640581b1" x="217.573333" y="339.84" style="stroke: #000000; stroke-width: 0.8"/>
      </g>
     </g>
    </g>
    <g id="xtick_7">
     <g id="line2d_13">
      <path d="M 258.017898 339.84 
L 258.017898 7.2 
" clip-path="url(#p62428dac53)" style="fill: none; stroke: #b0b0b0; stroke-opacity: 0.3; stroke-width: 0.8; stroke-linecap: square"/>
     </g>
     <g id="line2d_14">
      <g>
       <use xlink:href="#m93640581b1" x="258.017898" y="339.84" style="stroke: #000000; stroke-width: 0.8"/>
      </g>
     </g>
    </g>
    <g id="xtick_8">
     <g id="line2d_15">
      <path d="M 298.462464 339.84 
L 298.462464 7.2 
" clip-path="url(#p62428dac53)" style="fill: none; stroke: #b0b0b0; stroke-opacity: 0.3; stroke-width: 0.8; stroke-linecap: square"/>
     </g>
     <g id="line2d_16">
      <g>
       <use xlink:href="#m93640581b1" x="298.462464" y="339.84" style="stroke: #000000; stroke-width: 0.8"/>
      </g>
     </g>
    </g>
    <g id="xtick_9">
     <g id="line2d_17">
      <path d="M 338.907029 339.84 
L 338.907029 7.2 
" clip-path="url(#p62428dac53)" style="fill: none; stroke: #b0b0b0; stroke-opacity: 0.3; stroke-width: 0.8; stroke-linecap: square"/>
     </g>
     <g id="line2d_18">
      <g>
       <use xlink:href="#m93640581b1" x="338.907029" y="339.84" style="stroke: #000000; stroke-width: 0.8"/>
      </g>
     </g>
    </g>
   </g>
   <g id="matplotlib.axis_2">
    <g id="ytick_1">
     <g id="line2d_19">
      <path d="M 10.7 302.146797 
L 345.5 302.146797 
" clip-path="url(#p62428dac53)" style="fill: none; stroke: #b0b0b0; stroke-opacity: 0.3; stroke-width: 0.8; stroke-linecap: square"/>
     </g>
     <g id="line2d_20">
      <defs>
       <path id="m0fc2003956" d="M 0 0 
L -3.5 0 
" style="stroke: #000000; stroke-width: 0.8"/>
      </defs>
      <g>
       <use xlink:href="#m0fc2003956" x="10.7" y="302.146797" style="stroke: #000000; stroke-width: 0.8"/>
      </g>
     </g>
    </g>
    <g id="ytick_2">
     <g id="line2d_21">
      <path d="M 10.7 237.580777 
L 345.5 237.580777 
" clip-path="url(#p62428dac53)" style="fill: none; stroke: #b0b0b0; stroke-opacity: 0.3; stroke-width: 0.8; stroke-linecap: square"/>
     </g>
     <g id="line2d_22">
      <g>
       <use xlink:href="#m0fc2003956" x="10.7" y="237.580777" style="stroke: #000000; stroke-width: 0.8"/>
      </g>
     </g>
    </g>
    <g id="ytick_3">
     <g id="line2d_23">
      <path d="M 10.7 173.014756 
L 345.5 173.014756 
" clip-path="url(#p62428dac53)" style="fill: none; stroke: #b0b0b0; stroke-opacity: 0.3; stroke-width: 0.8; stroke-linecap: square"/>
     </g>
     <g id="line2d_24">
      <g>
       <use xlink:href="#m0fc2003956" x="10.7" y="173.014756" style="stroke: #000000; stroke-width: 0.8"/>
      </g>
     </g>
    </g>
    <g id="ytick_4">
     <g id="line2d_25">
      <path d="M 10.7 108.448736 
L 345.5 108.448736 
" clip-path="url(#p62428dac53)" style="fill: none; stroke: #b0b0b0; stroke-opacity: 0.3; stroke-width: 0.8; stroke-linecap: square"/>
     </g>
     <g id="line2d_26">
      <g>
       <use xlink:href="#m0fc2003956" x="10.7" y="108.448736" style="stroke: #000000; stroke-width: 0.8"/>
      </g>
     </g>
    </g>
    <g id="ytick_5">
     <g id="line2d_27">
      <path d="M 10.7 43.882716 
L 345.5 43.882716 
" clip-path="url(#p62428dac53)" style="fill: none; stroke: #b0b0b0; stroke-opacity: 0.3; stroke-width: 0.8; stroke-linecap: square"/>
     </g>
     <g id="line2d_28">
      <g>
       <use xlink:href="#m0fc2003956" x="10.7" y="43.882716" style="stroke: #000000; stroke-width: 0.8"/>
      </g>
     </g>
    </g>
   </g>
   <g id="line2d_29">
    <path d="M 177.128768 173.014756 
L 180.115493 161.519889 
L 183.196813 150.509004 
L 186.153334 140.696023 
L 189.006779 131.874725 
L 188.876512 132.396144 
L 176.056365 183.223641 
L 172.789294 194.965895 
L 169.256219 206.651785 
L 165.513795 217.977512 
L 161.625114 228.698758 
L 157.658781 238.633659 
L 153.687849 247.660488 
L 149.789456 255.709971 
L 146.043906 262.753829 
L 142.533707 268.794291 
L 139.343158 273.852176 
L 135.342837 279.65999 
L 131.467835 284.768095 
L 131.127565 285.189739 
L 158.972841 174.058695 
L 162.354033 161.083749 
L 165.863912 148.706247 
L 169.486553 137.000567 
L 173.206119 126.015779 
L 177.006896 115.779105 
L 180.873343 106.299154 
L 184.790097 97.569266 
L 188.741975 89.570853 
L 192.713919 82.276101 
L 196.691037 75.650494 
L 200.658574 69.655151 
L 204.601798 64.248532 
L 208.506023 59.387977 
L 212.356618 55.030967 
L 216.138971 51.135528 
L 219.838518 47.661744 
L 223.4407 44.571034 
L 226.930962 41.828082 
L 230.294722 39.399893 
L 233.517461 37.256197 
L 239.482139 33.714443 
L 244.710423 31.01442 
L 249.090035 29.009218 
L 254.875259 26.676482 
L 256.225282 26.180933 
L 219.694179 171.975329 
L 215.074294 189.321256 
L 210.288693 205.30777 
L 205.362002 219.895875 
L 200.318123 233.09246 
L 195.180165 244.93936 
L 189.970505 255.50355 
L 184.710846 264.86868 
L 179.422277 273.128253 
L 174.125386 280.380095 
L 168.840316 286.722275 
L 163.58684 292.250071 
L 158.384438 297.053908 
L 153.252342 301.218051 
L 148.209604 304.819776 
L 143.275086 307.929151 
L 138.467524 310.609037 
L 133.80549 312.915201 
L 129.30742 314.896997 
L 124.991562 316.597695 
L 120.875963 318.054899 
L 113.316539 320.364997 
L 106.767998 322.035754 
L 99.128486 323.661202 
L 93.19824 324.72 
L 93.146082 324.624957 
L 133.310143 164.675195 
L 138.559501 146.332292 
L 143.993386 129.74937 
L 149.58219 114.916604 
L 155.297362 101.771777 
L 161.111369 90.216601 
L 166.997626 80.129918 
L 172.930399 71.378586 
L 178.884626 63.825445 
L 184.835895 57.33578 
L 190.760321 51.781224 
L 196.634358 47.042491 
L 202.43486 43.010681 
L 208.138993 39.587984 
L 213.724174 36.687662 
L 219.16807 34.23356 
L 224.448597 32.15945 
L 229.543927 30.408304 
L 234.432504 28.931218 
L 239.093087 27.686363 
L 247.647226 25.757943 
L 255.045094 24.402531 
L 263.643997 23.122282 
L 270.217474 22.32 
L 270.245154 22.484759 
L 230.730665 179.904911 
L 225.161151 199.370158 
L 219.368777 216.83983 
L 213.386294 232.328429 
L 207.245284 245.915695 
L 200.976188 257.72562 
L 194.608434 267.908808 
L 188.170525 276.628688 
L 181.690233 284.051046 
L 175.194697 290.33677 
L 168.710522 295.636968 
L 162.263909 300.09007 
L 155.88076 303.82041 
L 149.586667 306.93794 
L 143.407037 309.538585 
L 137.366999 311.705136 
L 131.491452 313.508388 
L 125.805075 315.008373 
L 120.332253 316.25566 
L 115.097001 317.292579 
L 105.433153 318.870315 
L 96.99612 319.956643 
L 87.014212 320.967761 
L 78.483599 321.646695 
L 113.111992 183.443774 
L 118.71315 161.761712 
L 124.601194 142.010271 
L 130.740109 124.464331 
L 137.095121 109.082464 
L 143.632727 95.752012 
L 150.320596 84.31442 
L 157.127438 74.585823 
L 164.022843 66.37289 
L 170.977138 59.4841 
L 177.961202 53.737748 
L 184.946345 48.966316 
L 191.904267 45.019335 
L 198.806826 41.764246 
L 205.626107 39.085849 
L 212.334418 36.885508 
L 218.90418 35.079787 
L 225.308002 33.598525 
L 231.518755 32.38303 
L 237.509587 31.385408 
L 248.725902 29.892831 
L 258.750719 28.882974 
L 271.128148 27.94789 
L 284.668274 27.209431 
L 284.603156 27.620634 
L 249.630305 167.197968 
L 243.776636 189.191093 
L 237.610304 208.865777 
L 231.168895 226.158093 
L 224.488668 241.143168 
L 217.604576 253.97005 
L 210.55039 264.832655 
L 203.358879 273.946708 
L 196.061985 281.532582 
L 188.691005 287.803334 
L 181.276751 292.957046 
L 173.849699 297.172402 
L 166.440112 300.607206 
L 159.078069 303.398008 
L 151.793564 305.660959 
L 144.616459 307.49365 
L 137.576549 308.977404 
L 130.703439 310.179152 
L 124.026568 311.153559 
L 117.575074 311.944972 
L 105.462869 313.114799 
L 94.590834 313.897255 
L 81.07034 314.619386 
L 65.700136 315.207463 
L 65.618503 315.070197 
L 101.078289 173.572537 
L 107.148917 151.708192 
L 113.554437 132.367799 
L 120.256064 115.552142 
L 127.216407 101.148833 
L 134.399398 88.97152 
L 141.77013 78.792201 
L 149.294618 70.366234 
L 156.939625 63.450231 
L 164.672486 57.814068 
L 172.460873 53.248162 
L 180.272681 49.566994 
L 188.075931 46.609931 
L 195.838728 44.240466 
L 203.52916 42.34444 
L 211.115363 40.82778 
L 218.565516 39.613618 
L 225.847916 38.639837 
L 232.931024 37.856649 
L 246.374719 36.711569 
L 258.65185 35.952305 
L 274.37033 35.247616 
L 295.676728 34.591141 
L 295.873001 34.621198 
L 259.819398 178.228422 
L 253.547065 199.658648 
L 246.921025 218.414709 
L 239.980838 234.537103 
L 232.76467 248.179763 
L 225.309392 259.567321 
L 217.650778 268.960367 
L 209.823751 276.629288 
L 201.862605 282.836091 
L 193.801219 287.822965 
L 185.673235 291.806046 
L 177.512197 294.972923 
L 169.351645 297.482955 
L 161.225151 299.468974 
L 153.166402 301.039939 
L 145.209107 302.283941 
L 137.386972 303.271782 
L 129.733633 304.059342 
L 115.066973 305.200358 
L 101.472839 305.953523 
L 83.647271 306.660887 
L 60.055928 307.313398 
L 55.264941 307.420707 
L 85.809221 185.517853 
L 91.846648 162.258813 
L 98.295845 141.404095 
L 105.115237 123.346754 
L 112.264678 108.002792 
L 119.705431 95.176118 
L 127.399999 84.605317 
L 135.311887 76.000413 
L 143.405359 69.069488 
L 151.645149 63.536549 
L 159.996263 59.151709 
L 168.423869 55.69629 
L 176.893032 52.984031 
L 185.368753 50.859985 
L 193.815849 49.197176 
L 202.199007 47.893623 
L 210.482796 46.867833 
L 218.631762 46.056584 
L 234.383573 44.890921 
L 249.173736 44.122798 
L 268.959898 43.390308 
L 296.814853 42.662568 
L 304.834866 42.488664 
L 293.485852 87.791303 
L 273.790217 166.396967 
L 267.597429 189.334743 
L 260.978437 209.442219 
L 253.975186 226.65521 
L 246.628168 241.106458 
L 238.976478 253.035057 
L 231.058069 262.737554 
L 222.910012 270.52984 
L 214.568718 276.720909 
L 206.070278 281.596413 
L 197.450646 285.408931 
L 188.74583 288.375165 
L 179.991996 290.676051 
L 171.225542 292.459432 
L 162.483094 293.843936 
L 153.801511 294.923246 
L 145.217839 295.77026 
L 136.769193 296.441026 
L 120.42513 297.414615 
L 105.063134 298.0737 
L 84.48515 298.734075 
L 48.400928 299.599602 
L 46.88589 299.631841 
L 49.598287 288.77597 
L 78.402134 173.859411 
L 84.734063 151.579776 
L 91.504737 132.283683 
L 98.672002 115.953399 
L 106.195158 102.4079 
L 114.034835 91.366886 
L 122.152713 82.502293 
L 130.511244 75.476564 
L 139.073359 69.968118 
L 147.802157 65.686733 
L 156.660753 62.380526 
L 165.612048 59.837798 
L 174.618705 57.885146 
L 183.642989 56.383595 
L 192.646881 55.223783 
L 201.592079 54.321013 
L 210.44004 53.610674 
L 227.689637 52.5846 
L 244.087793 51.887545 
L 266.429374 51.174075 
L 306.261788 50.19585 
L 312.103294 50.066223 
L 310.984745 54.578458 
L 279.988259 177.920991 
L 273.518234 199.384754 
L 266.598905 217.763669 
L 259.272498 233.132576 
L 251.579765 245.722115 
L 243.560222 255.852069 
L 235.252448 263.878356 
L 226.694413 270.15547 
L 217.923769 275.012563 
L 208.97811 278.740179 
L 199.895235 281.58516 
L 190.713227 283.750929 
L 181.470607 285.400772 
L 172.20631 286.663076 
L 162.959675 287.637003 
L 153.770383 288.397601 
L 135.723644 289.489394 
L 118.386066 290.232014 
L 94.400502 291.005961 
L 49.235293 292.149017 
L 40.022053 292.363347 
L 41.134394 287.861357 
L 66.620217 186.146935 
L 72.713632 162.820117 
L 79.309161 142.2126 
L 86.363177 124.766914 
L 93.833474 110.351954 
L 101.679254 98.68973 
L 109.860906 89.425188 
L 118.339595 82.179134 
L 127.076943 76.585001 
L 136.034743 72.310438 
L 145.174666 69.068272 
L 154.458064 66.61936 
L 163.84585 64.770445 
L 173.29844 63.369319 
L 182.775727 62.298724 
L 192.237136 61.469975 
L 201.641707 60.81712 
L 220.115297 59.859031 
L 246.368079 58.901183 
L 283.565348 57.866378 
L 318.044076 57.011383 
L 316.89738 61.648698 
L 290.863572 165.550133 
L 284.650712 188.355312 
L 277.928274 208.018173 
L 270.739789 224.466459 
L 263.127326 237.889773 
L 255.131591 248.611777 
L 246.792256 257.019308 
L 238.148349 263.509791 
L 229.238595 268.457061 
L 220.101725 272.191928 
L 210.776755 274.994214 
L 201.303152 277.092244 
L 191.720924 278.666819 
L 182.070687 279.857556 
L 172.393635 280.769916 
L 162.73153 281.482088 
L 143.621021 282.517707 
L 125.078813 283.250841 
L 91.047471 284.295285 
L 34.349221 285.780954 
L 35.536814 280.988107 
L 62.092211 175.037038 
L 68.414718 153.043819 
L 75.253158 134.328576 
L 82.564204 118.857704 
L 90.305972 106.386246 
L 98.437798 96.549109 
L 106.919935 88.932964 
L 115.713152 83.127136 
L 124.778371 78.755116 
L 134.076333 75.491067 
L 143.567344 73.064934 
L 153.211173 71.260867 
L 162.966861 69.911226 
L 172.792791 68.889015 
L 182.646686 68.100208 
L 192.485709 67.476474 
L 211.94585 66.543207 
L 239.937427 65.557311 
L 287.394793 64.203901 
L 322.919682 63.253438 
L 319.90329 75.328495 
L 294.511268 176.341994 
L 288.076138 197.408089 
L 281.120033 215.122477 
L 273.68603 229.587239 
L 265.815795 241.101646 
L 257.549855 250.06849 
L 248.927971 256.92273 
L 239.989564 262.083022 
L 230.77408 265.923965 
L 221.321269 268.762496 
L 211.671489 270.85561 
L 201.865762 272.405062 
L 191.945889 273.564394 
L 181.954438 274.447545 
L 171.934671 275.137241 
L 151.986043 276.154058 
L 122.95797 277.217847 
L 72.47353 278.706253 
L 29.69409 279.893367 
L 35.414443 257.04432 
L 52.79164 187.691587 
L 58.763081 164.772662 
L 65.303946 144.645725 
L 72.369976 127.920561 
L 79.918384 114.429083 
L 87.907707 103.822301 
L 96.297533 95.665276 
L 105.04805 89.506869 
L 114.11963 84.92497 
L 123.472454 81.551097 
L 133.066216 79.079819 
L 142.859926 77.268179 
L 152.811794 75.929423 
L 162.879175 74.924126 
L 173.018606 74.150803 
L 193.336212 73.033048 
L 213.40466 72.226468 
L 251.339589 71.003404 
L 326.95747 68.818156 
L 303.237967 163.488119 
L 297.162842 185.916046 
L 290.515477 205.065317 
L 283.339773 220.78598 
L 275.678174 233.311026 
L 267.571881 243.035112 
L 259.061184 250.420273 
L 250.185978 255.928247 
L 240.986079 259.979959 
L 231.501673 262.934249 
L 221.773589 265.082236 
L 211.843464 266.651248 
L 201.753841 267.812368 
L 191.548176 268.690881 
L 181.270785 269.376198 
L 160.681741 270.396815 
L 130.403512 271.504384 
L 68.989646 273.380023 
L 25.918182 274.646759 
L 50.276104 177.436205 
L 56.451672 155.802498 
L 63.201578 137.634785 
L 70.482288 122.900243 
L 78.25167 111.305264 
L 86.468762 102.414507 
L 95.093347 95.744568 
L 104.085502 90.827828 
L 113.405129 87.249173 
L 123.011643 84.662212 
L 132.863719 82.791498 
L 142.919073 81.426499 
L 153.134447 80.411579 
L 163.465616 79.634988 
L 184.294057 78.508784 
L 205.035019 77.67899 
L 244.749256 76.368556 
L 330.281818 73.781987 
L 305.23647 173.559032 
L 298.95926 194.256246 
L 292.106408 211.42654 
L 284.721073 225.181097 
L 276.844991 235.871075 
L 268.518902 243.966914 
L 259.782929 249.96751 
L 250.677095 254.341183 
L 241.241738 257.493606 
L 231.517853 259.75602 
L 221.547317 261.386517 
L 211.373022 262.578533 
L 201.038916 263.472293 
L 190.589975 264.166555 
L 169.531935 265.205037 
L 138.252822 266.360536 
L 65.664685 268.655248 
L 35.839145 269.576776 
L 35.839145 269.576776 
" clip-path="url(#p62428dac53)" style="fill: none; stroke: #0000ff; stroke-linecap: square"/>
   </g>
   <g id="line2d_30">
    <defs>
     <path id="m85874dc9fa" d="M 0 -3 
L -0.673542 -0.927051 
L -2.85317 -0.927051 
L -1.089814 0.354102 
L -1.763356 2.427051 
L -0 1.145898 
L 1.763356 2.427051 
L 1.089814 0.354102 
L 2.85317 -0.927051 
L 0.673542 -0.927051 
z
" style="stroke: #0000ff; stroke-linejoin: bevel"/>
    </defs>
    <g clip-path="url(#p62428dac53)">
     <use xlink:href="#m85874dc9fa" x="177.128768" y="173.014756" style="fill: #0000ff; stroke: #0000ff; stroke-linejoin: bevel"/>
    </g>
   </g>
   <g id="patch_3">
    <path d="M 10.7 339.84 
L 10.7 7.2 
" style="fill: none; stroke: #000000; stroke-width: 0.8; stroke-linejoin: miter; stroke-linecap: square"/>
   </g>
   <g id="patch_4">
    <path d="M 345.5 339.84 
L 345.5 7.2 
" style="fill: none; stroke: #000000; stroke-width: 0.8; stroke-linejoin: miter; stroke-linecap: square"/>
   </g>
   <g id="patch_5">
    <path d="M 10.7 339.84 
L 345.5 339.84 
" style="fill: none; stroke: #000000; stroke-width: 0.8; stroke-linejoin: miter; stroke-linecap: square"/>
   </g>
   <g id="patch_6">
    <path d="M 10.7 7.2 
L 345.5 7.2 
" style="fill: none; stroke: #000000; stroke-width: 0.8; stroke-linejoin: miter; stroke-linecap: square"/>
   </g>
  </g>
 </g>
 <defs>
  <clipPath id="p62428dac53">
   <rect x="10.7" y="7.2" width="334.8" height="332.64"/>
  </clipPath>
 </defs>
</svg>
