<?xml version="1.0" encoding="utf-8" standalone="no"?>
<!DOCTYPE svg PUBLIC "-//W3C//DTD SVG 1.1//EN"
  "http://www.w3.org/Graphics/SVG/1.1/DTD/svg11.dtd">
<svg xmlns:xlink="http://www.w3.org/1999/xlink" width="352.7pt" height="350.54pt" viewBox="0 0 352.7 350.54" xmlns="http://www.w3.org/2000/svg" version="1.1">
 <metadata>
  <rdf:RDF xmlns:dc="http://purl.org/dc/elements/1.1/" xmlns:cc="http://creativecommons.org/ns#" xmlns:rdf="http://www.w3.org/1999/02/22-rdf-syntax-ns#">
   <cc:Work>
    <dc:type rdf:resource="http://purl.org/dc/dcmitype/StillImage"/>
    <dc:date>2025-02-15T23:06:58.467736</dc:date>
    <dc:format>image/svg+xml</dc:format>
    <dc:creator>
     <cc:Agent>
      <dc:title>Matplotlib v3.9.2, https://matplotlib.org/</dc:title>
     </cc:Agent>
    </dc:creator>
   </cc:Work>
  </rdf:RDF>
 </metadata>
 <defs>
  <style type="text/css">*{stroke-linejoin: round; stroke-linecap: butt}</style>
 </defs>
 <g id="figure_1">
  <g id="patch_1">
   <path d="M 0 350.54 
L 352.7 350.54 
L 352.7 0 
L 0 0 
z
" style="fill: #ffffff"/>
  </g>
  <g id="axes_1">
   <g id="patch_2">
    <path d="M 10.7 339.84 
L 345.5 339.84 
L 345.5 7.2 
L 10.7 7.2 
z
" style="fill: #ffffff"/>
   </g>
   <g id="matplotlib.axis_1">
    <g id="xtick_1">
     <g id="line2d_1">
      <path d="M 25.918182 339.84 
L 25.918182 7.2 
" clip-path="url(#pe96a574ef0)" style="fill: none; stroke: #b0b0b0; stroke-opacity: 0.3; stroke-width: 0.8; stroke-linecap: square"/>
     </g>
     <g id="line2d_2">
      <defs>
       <path id="m425e391b96" d="M 0 0 
L 0 3.5 
" style="stroke: #000000; stroke-width: 0.8"/>
      </defs>
      <g>
       <use xlink:href="#m425e391b96" x="25.918182" y="339.84" style="stroke: #000000; stroke-width: 0.8"/>
      </g>
     </g>
    </g>
    <g id="xtick_2">
     <g id="line2d_3">
      <path d="M 63.963636 339.84 
L 63.963636 7.2 
" clip-path="url(#pe96a574ef0)" style="fill: none; stroke: #b0b0b0; stroke-opacity: 0.3; stroke-width: 0.8; stroke-linecap: square"/>
     </g>
     <g id="line2d_4">
      <g>
       <use xlink:href="#m425e391b96" x="63.963636" y="339.84" style="stroke: #000000; stroke-width: 0.8"/>
      </g>
     </g>
    </g>
    <g id="xtick_3">
     <g id="line2d_5">
      <path d="M 102.009091 339.84 
L 102.009091 7.2 
" clip-path="url(#pe96a574ef0)" style="fill: none; stroke: #b0b0b0; stroke-opacity: 0.3; stroke-width: 0.8; stroke-linecap: square"/>
     </g>
     <g id="line2d_6">
      <g>
       <use xlink:href="#m425e391b96" x="102.009091" y="339.84" style="stroke: #000000; stroke-width: 0.8"/>
      </g>
     </g>
    </g>
    <g id="xtick_4">
     <g id="line2d_7">
      <path d="M 140.054545 339.84 
L 140.054545 7.2 
" clip-path="url(#pe96a574ef0)" style="fill: none; stroke: #b0b0b0; stroke-opacity: 0.3; stroke-width: 0.8; stroke-linecap: square"/>
     </g>
     <g id="line2d_8">
      <g>
       <use xlink:href="#m425e391b96" x="140.054545" y="339.84" style="stroke: #000000; stroke-width: 0.8"/>
      </g>
     </g>
    </g>
    <g id="xtick_5">
     <g id="line2d_9">
      <path d="M 178.1 339.84 
L 178.1 7.2 
" clip-path="url(#pe96a574ef0)" style="fill: none; stroke: #b0b0b0; stroke-opacity: 0.3; stroke-width: 0.8; stroke-linecap: square"/>
     </g>
     <g id="line2d_10">
      <g>
       <use xlink:href="#m425e391b96" x="178.1" y="339.84" style="stroke: #000000; stroke-width: 0.8"/>
      </g>
     </g>
    </g>
    <g id="xtick_6">
     <g id="line2d_11">
      <path d="M 216.145455 339.84 
L 216.145455 7.2 
" clip-path="url(#pe96a574ef0)" style="fill: none; stroke: #b0b0b0; stroke-opacity: 0.3; stroke-width: 0.8; stroke-linecap: square"/>
     </g>
     <g id="line2d_12">
      <g>
       <use xlink:href="#m425e391b96" x="216.145455" y="339.84" style="stroke: #000000; stroke-width: 0.8"/>
      </g>
     </g>
    </g>
    <g id="xtick_7">
     <g id="line2d_13">
      <path d="M 254.190909 339.84 
L 254.190909 7.2 
" clip-path="url(#pe96a574ef0)" style="fill: none; stroke: #b0b0b0; stroke-opacity: 0.3; stroke-width: 0.8; stroke-linecap: square"/>
     </g>
     <g id="line2d_14">
      <g>
       <use xlink:href="#m425e391b96" x="254.190909" y="339.84" style="stroke: #000000; stroke-width: 0.8"/>
      </g>
     </g>
    </g>
    <g id="xtick_8">
     <g id="line2d_15">
      <path d="M 292.236364 339.84 
L 292.236364 7.2 
" clip-path="url(#pe96a574ef0)" style="fill: none; stroke: #b0b0b0; stroke-opacity: 0.3; stroke-width: 0.8; stroke-linecap: square"/>
     </g>
     <g id="line2d_16">
      <g>
       <use xlink:href="#m425e391b96" x="292.236364" y="339.84" style="stroke: #000000; stroke-width: 0.8"/>
      </g>
     </g>
    </g>
    <g id="xtick_9">
     <g id="line2d_17">
      <path d="M 330.281818 339.84 
L 330.281818 7.2 
" clip-path="url(#pe96a574ef0)" style="fill: none; stroke: #b0b0b0; stroke-opacity: 0.3; stroke-width: 0.8; stroke-linecap: square"/>
     </g>
     <g id="line2d_18">
      <g>
       <use xlink:href="#m425e391b96" x="330.281818" y="339.84" style="stroke: #000000; stroke-width: 0.8"/>
      </g>
     </g>
    </g>
   </g>
   <g id="matplotlib.axis_2">
    <g id="ytick_1">
     <g id="line2d_19">
      <path d="M 10.7 326.847129 
L 345.5 326.847129 
" clip-path="url(#pe96a574ef0)" style="fill: none; stroke: #b0b0b0; stroke-opacity: 0.3; stroke-width: 0.8; stroke-linecap: square"/>
     </g>
     <g id="line2d_20">
      <defs>
       <path id="mfda80fa971" d="M 0 0 
L -3.5 0 
" style="stroke: #000000; stroke-width: 0.8"/>
      </defs>
      <g>
       <use xlink:href="#mfda80fa971" x="10.7" y="326.847129" style="stroke: #000000; stroke-width: 0.8"/>
      </g>
     </g>
    </g>
    <g id="ytick_2">
     <g id="line2d_21">
      <path d="M 10.7 288.514123 
L 345.5 288.514123 
" clip-path="url(#pe96a574ef0)" style="fill: none; stroke: #b0b0b0; stroke-opacity: 0.3; stroke-width: 0.8; stroke-linecap: square"/>
     </g>
     <g id="line2d_22">
      <g>
       <use xlink:href="#mfda80fa971" x="10.7" y="288.514123" style="stroke: #000000; stroke-width: 0.8"/>
      </g>
     </g>
    </g>
    <g id="ytick_3">
     <g id="line2d_23">
      <path d="M 10.7 250.181116 
L 345.5 250.181116 
" clip-path="url(#pe96a574ef0)" style="fill: none; stroke: #b0b0b0; stroke-opacity: 0.3; stroke-width: 0.8; stroke-linecap: square"/>
     </g>
     <g id="line2d_24">
      <g>
       <use xlink:href="#mfda80fa971" x="10.7" y="250.181116" style="stroke: #000000; stroke-width: 0.8"/>
      </g>
     </g>
    </g>
    <g id="ytick_4">
     <g id="line2d_25">
      <path d="M 10.7 211.84811 
L 345.5 211.84811 
" clip-path="url(#pe96a574ef0)" style="fill: none; stroke: #b0b0b0; stroke-opacity: 0.3; stroke-width: 0.8; stroke-linecap: square"/>
     </g>
     <g id="line2d_26">
      <g>
       <use xlink:href="#mfda80fa971" x="10.7" y="211.84811" style="stroke: #000000; stroke-width: 0.8"/>
      </g>
     </g>
    </g>
    <g id="ytick_5">
     <g id="line2d_27">
      <path d="M 10.7 173.515103 
L 345.5 173.515103 
" clip-path="url(#pe96a574ef0)" style="fill: none; stroke: #b0b0b0; stroke-opacity: 0.3; stroke-width: 0.8; stroke-linecap: square"/>
     </g>
     <g id="line2d_28">
      <g>
       <use xlink:href="#mfda80fa971" x="10.7" y="173.515103" style="stroke: #000000; stroke-width: 0.8"/>
      </g>
     </g>
    </g>
    <g id="ytick_6">
     <g id="line2d_29">
      <path d="M 10.7 135.182096 
L 345.5 135.182096 
" clip-path="url(#pe96a574ef0)" style="fill: none; stroke: #b0b0b0; stroke-opacity: 0.3; stroke-width: 0.8; stroke-linecap: square"/>
     </g>
     <g id="line2d_30">
      <g>
       <use xlink:href="#mfda80fa971" x="10.7" y="135.182096" style="stroke: #000000; stroke-width: 0.8"/>
      </g>
     </g>
    </g>
    <g id="ytick_7">
     <g id="line2d_31">
      <path d="M 10.7 96.84909 
L 345.5 96.84909 
" clip-path="url(#pe96a574ef0)" style="fill: none; stroke: #b0b0b0; stroke-opacity: 0.3; stroke-width: 0.8; stroke-linecap: square"/>
     </g>
     <g id="line2d_32">
      <g>
       <use xlink:href="#mfda80fa971" x="10.7" y="96.84909" style="stroke: #000000; stroke-width: 0.8"/>
      </g>
     </g>
    </g>
    <g id="ytick_8">
     <g id="line2d_33">
      <path d="M 10.7 58.516083 
L 345.5 58.516083 
" clip-path="url(#pe96a574ef0)" style="fill: none; stroke: #b0b0b0; stroke-opacity: 0.3; stroke-width: 0.8; stroke-linecap: square"/>
     </g>
     <g id="line2d_34">
      <g>
       <use xlink:href="#mfda80fa971" x="10.7" y="58.516083" style="stroke: #000000; stroke-width: 0.8"/>
      </g>
     </g>
    </g>
    <g id="ytick_9">
     <g id="line2d_35">
      <path d="M 10.7 20.183076 
L 345.5 20.183076 
" clip-path="url(#pe96a574ef0)" style="fill: none; stroke: #b0b0b0; stroke-opacity: 0.3; stroke-width: 0.8; stroke-linecap: square"/>
     </g>
     <g id="line2d_36">
      <g>
       <use xlink:href="#mfda80fa971" x="10.7" y="20.183076" style="stroke: #000000; stroke-width: 0.8"/>
      </g>
     </g>
    </g>
   </g>
   <g id="line2d_37">
    <path d="M 178.101522 173.515103 
L 176.578182 255.143013 
L 179.744733 90.232918 
L 180.039215 81.296618 
L 179.414163 105.998122 
L 178.459114 157.980944 
L 176.94113 237.740373 
L 176.257843 263.193584 
L 176.160785 265.775775 
L 176.606672 250.333542 
L 177.286539 217.837785 
L 179.82059 90.478066 
L 180.354772 76.562461 
L 180.571093 72.486522 
L 179.987331 86.849769 
L 179.487671 106.100497 
L 178.552663 153.339616 
L 176.643069 247.889249 
L 176.034572 266.368454 
L 175.628907 274.520193 
L 176.34898 256.130549 
L 176.945291 231.975481 
L 178.059153 175.625837 
L 179.516176 104.816144 
L 180.151866 84.086946 
L 180.742551 72.110658 
L 181.248852 65.097413 
L 180.542803 76.883419 
L 180.01957 90.263937 
L 179.477426 110.641996 
L 178.538129 156.456985 
L 176.867566 236.322721 
L 176.21195 258.908724 
L 175.613069 272.293642 
L 174.963756 281.757827 
L 174.951148 281.913162 
L 175.409934 274.89556 
L 175.940404 263.762565 
L 176.456538 248.145518 
L 177.216402 216.152843 
L 179.883092 95.38088 
L 180.485248 79.884686 
L 181.187764 68.345057 
L 181.861605 60.95321 
L 182.112503 58.766926 
L 181.477893 65.715107 
L 180.762953 76.847142 
L 180.184574 90.329235 
L 179.638327 108.786426 
L 178.770759 147.079989 
L 176.344781 251.496257 
L 175.742303 266.718986 
L 175.107693 277.416461 
L 174.561446 283.9086 
L 174.087497 288.25741 
L 174.800001 280.314791 
L 175.338947 272.055587 
L 175.887027 260.456843 
L 176.489915 242.200127 
L 177.202419 213.19151 
L 179.66878 106.9906 
L 180.335611 87.235976 
L 180.956769 74.978077 
L 181.696677 65.211868 
L 182.619279 57.118085 
L 183.213033 53.324609 
L 182.506728 58.703897 
L 181.646878 67.693169 
L 180.961046 78.066703 
L 180.28545 93.18966 
L 179.691745 112.409284 
L 178.43268 163.971673 
L 176.528728 241.400337 
L 175.842896 260.624197 
L 175.146827 273.653389 
L 174.317687 283.75091 
L 173.621618 289.619838 
L 172.986967 293.688564 
L 173.592252 289.175669 
L 174.232456 283.110368 
L 174.930861 274.169506 
L 175.524505 263.516326 
L 176.059949 250.335291 
L 176.700154 229.096078 
L 178.725528 147.873431 
L 179.866256 105.633515 
L 180.576301 86.655844 
L 181.228146 74.844537 
L 181.83343 67.062823 
L 182.648236 59.559046 
L 184.312767 49.909124 
L 184.615409 48.645996 
L 184.263225 50.429663 
L 183.024058 58.392671 
L 182.150119 66.454771 
L 181.458795 75.31998 
L 180.780514 87.583645 
L 180.141365 104.043349 
L 179.202206 135.40652 
L 177.506504 201.557281 
L 176.384732 240.940084 
L 175.641232 260.329812 
L 175.002083 271.878241 
L 174.336846 280.353786 
L 173.502038 287.841974 
L 172.849845 292.19935 
L 171.871555 297.169233 
L 171.584591 298.372373 
L 172.563546 292.957679 
L 173.587 285.204789 
L 174.313801 277.594765 
L 175.070267 266.496864 
L 175.708072 253.178441 
L 176.538701 229.734892 
L 177.651151 190.473228 
L 179.965047 108.626686 
L 180.884672 85.930261 
L 181.552142 74.896431 
L 182.249277 66.676785 
L 183.079906 59.615314 
L 184.014364 53.827199 
L 185.304806 48.126264 
L 186.402423 44.60045 
L 185.654457 47.429907 
L 184.407847 53.438033 
L 183.377316 60.193034 
L 182.562864 67.350776 
L 181.731791 77.439661 
L 181.050311 89.094908 
L 180.13613 110.252445 
L 179.205328 139.218037 
L 175.714819 252.918352 
L 175.000096 267.009938 
L 174.285373 276.818098 
L 173.520786 284.314188 
L 172.55674 291.098911 
L 171.492966 296.499182 
L 169.94717 301.996264 
L 169.797577 302.422102 
L 170.062189 301.465012 
L 170.553612 299.549425 
L 171.876675 293.092356 
L 172.746116 287.40447 
L 173.521053 280.849107 
L 174.144782 274.021156 
L 174.806314 264.496594 
L 175.56235 249.887414 
L 176.280584 231.843882 
L 177.244529 202.298564 
L 179.985159 113.646571 
L 180.797897 94.36333 
L 181.724041 78.182129 
L 182.442275 69.538476 
L 183.17941 62.925288 
L 184.143356 56.472865 
L 185.145103 51.479003 
L 186.487067 46.544728 
L 188.67957 41.062912 
L 188.02298 42.847073 
L 187.32403 45.004093 
L 187.069866 45.844452 
L 185.947309 50.153901 
L 184.782391 55.948933 
L 183.892818 61.668881 
L 183.151507 67.715323 
L 182.346654 76.26629 
L 181.457081 88.512744 
L 180.75813 101.758776 
L 179.974458 120.798036 
L 178.936623 151.511785 
L 176.416164 229.342285 
L 175.399509 253.244918 
L 174.488755 268.841977 
L 173.747444 277.657472 
L 172.857871 285.354545 
L 171.841215 291.746106 
L 170.84574 296.4247 
L 169.617281 300.762827 
L 169.087773 302.285197 
L 167.732233 305.521237 
L 167.52043 305.956433 
L 167.785364 305.259692 
L 168.387487 303.538544 
L 168.724676 302.498781 
L 169.977093 298.010131 
L 171.012746 293.268692 
L 171.903888 288.128022 
L 172.650521 282.734864 
L 173.710258 272.533852 
L 174.553231 261.698646 
L 175.275779 249.220307 
L 176.118752 230.304092 
L 177.106235 203.323473 
L 180.502211 106.989979 
L 181.369269 90.190251 
L 182.164071 79.099201 
L 182.958874 70.283219 
L 183.874102 62.74046 
L 184.620735 57.991539 
L 185.391453 54.002692 
L 186.282596 50.277475 
L 187.535012 46.162621 
L 189.509977 41.467247 
L 190.232525 40.1274 
L 190.641969 39.42488 
L 191.581282 37.994573 
L 191.176439 38.77703 
L 190.663637 39.858614 
L 190.258794 40.745883 
L 188.315546 45.922603 
L 187.208974 49.716652 
L 186.102403 54.407404 
L 185.184758 59.233452 
L 184.078186 66.713271 
L 182.917635 76.693511 
L 182.161928 85.354278 
L 181.352241 97.324245 
L 180.515565 113.896269 
L 179.570931 136.997979 
L 178.086505 178.498658 
L 176.251216 228.272442 
L 175.171633 251.418137 
L 174.442916 262.885322 
L 173.444302 274.788558 
L 172.580636 282.415106 
L 171.77095 287.916311 
L 170.772336 293.180936 
L 169.36888 298.680273 
L 168.019402 302.571988 
L 167.452621 303.932391 
L 166.076154 306.701043 
L 165.455394 307.750561 
L 164.996572 308.473422 
L 164.618718 309.021763 
L 165.017699 308.252268 
L 165.907733 306.344268 
L 167.104676 303.366287 
L 168.547145 298.908662 
L 169.559942 295.025058 
L 170.449976 290.870906 
L 171.217247 286.556261 
L 171.923136 281.811046 
L 172.905243 273.905192 
L 173.672514 266.257475 
L 174.531857 255.155564 
L 175.299128 242.080712 
L 176.189162 222.826121 
L 177.60094 186.864737 
L 180.209661 119.762275 
L 181.191768 100.004241 
L 181.959039 88.300806 
L 182.910455 77.345257 
L 183.800489 69.61737 
L 184.659832 63.263125 
L 185.519175 58.231759 
L 186.286446 54.543859 
L 187.14579 51.078695 
L 188.711022 46.179019 
L 189.38622 44.488805 
L 190.000037 43.100836 
L 191.534579 40.186537 
L 194.941261 35.640773 
L 195.27886 35.298873 
L 194.969331 35.752669 
L 194.315881 36.749136 
L 191.117415 42.898089 
L 190.463965 44.494805 
L 188.916319 48.942646 
L 187.95334 52.330849 
L 186.955969 56.496416 
L 186.16495 60.430786 
L 184.067032 73.463785 
L 182.8977 83.942409 
L 182.141073 92.706606 
L 181.350055 104.463229 
L 180.45586 121.535174 
L 179.286528 148.246189 
L 175.365827 241.427372 
L 174.506024 255.447923 
L 173.543045 267.212766 
L 172.683242 275.106071 
L 171.169989 286.05512 
L 170.310186 290.666535 
L 169.312815 294.962543 
L 167.042936 301.986489 
L 165.736035 304.881313 
L 163.328588 308.879418 
L 160.92114 311.725233 
L 161.664202 310.625628 
L 162.602808 309.078076 
L 162.876568 308.607291 
L 163.971607 306.540477 
L 165.887927 302.139749 
L 166.748315 299.744155 
L 167.804246 296.321084 
L 169.290372 290.316094 
L 170.268086 285.34222 
L 171.754211 276.430815 
L 172.810142 267.977003 
L 173.631422 259.651916 
L 174.49181 248.678129 
L 175.273982 235.948948 
L 176.329913 214.512104 
L 178.402666 166.219702 
L 180.47542 119.852191 
L 181.492243 101.819082 
L 182.430848 89.360478 
L 183.486779 78.742735 
L 184.620928 69.989581 
L 185.520424 64.590099 
L 187.28031 55.758932 
L 188.218915 52.143994 
L 189.157521 49.095623 
L 190.25256 46.121141 
L 191.738686 42.830875 
L 193.928765 39.136333 
L 196.979233 35.463922 
L 197.565861 34.920199 
L 198.269815 34.279914 
L 199.599506 33.219026 
L 199.990592 32.924639 
L 199.114092 33.893564 
L 198.675842 34.415862 
L 197.536391 35.874629 
L 194.687766 40.272696 
L 193.942741 41.678121 
L 193.460666 42.621338 
L 192.233565 45.330594 
L 190.87499 48.847678 
L 189.867015 51.921802 
L 188.59609 56.324981 
L 187.325164 61.322234 
L 186.404839 65.722689 
L 184.958614 74.033735 
L 183.775339 82.899824 
L 182.767363 92.558553 
L 181.803213 104.452446 
L 180.926713 118.514901 
L 179.743438 141.769071 
L 177.070112 200.794638 
L 175.536237 232.255215 
L 174.528262 248.344291 
L 173.520287 260.611728 
L 172.599961 269.324895 
L 171.460511 277.827121 
L 170.408711 283.895697 
L 169.356911 289.329688 
L 168.12981 294.337612 
L 166.28916 300.014976 
L 165.14971 302.731771 
L 164.53616 304.020917 
L 163.440535 306.055299 
L 161.556059 308.864648 
L 160.372784 310.300366 
L 159.890709 310.837289 
L 158.225358 312.478108 
L 157.524158 313.074156 
L 156.910608 313.570772 
L 156.691483 313.727701 
L 156.209408 314.099582 
L 156.508418 313.764343 
L 157.156274 313.003489 
L 157.70446 312.352686 
L 160.594893 308.295754 
L 161.591595 306.601457 
L 162.837471 304.192248 
L 164.332523 300.799781 
L 165.279389 298.304734 
L 168.020317 289.176985 
L 169.316029 283.700913 
L 170.561906 277.220323 
L 171.309431 272.531467 
L 172.256298 265.632061 
L 173.252999 256.590551 
L 174.15003 246.342397 
L 175.096896 232.7776 
L 176.193267 212.943605 
L 178.136835 172.74212 
L 180.678423 121.710834 
L 181.724959 105.316477 
L 182.72166 93.269058 
L 183.668527 84.226414 
L 184.665228 76.576373 
L 185.711764 69.987754 
L 187.356321 61.817886 
L 188.951043 55.707972 
L 190.147084 51.651316 
L 191.044116 49.057294 
L 193.685374 43.124612 
L 195.03092 40.810679 
L 197.622344 37.302818 
L 201.160633 33.906558 
L 201.957994 33.314884 
L 202.655685 32.811702 
L 205.994634 30.82504 
L 205.268647 31.445134 
L 203.928365 32.664926 
L 200.019207 36.988829 
L 198.288008 39.408162 
L 197.562022 40.534744 
L 195.774978 43.657365 
L 194.602231 46.030268 
L 193.261948 49.126829 
L 190.916453 55.081271 
L 189.520326 59.525946 
L 188.347578 63.801596 
L 186.95145 69.885023 
L 185.611168 77.079827 
L 184.661801 83.299132 
L 183.824124 89.796447 
L 182.874757 98.661463 
L 181.92539 109.741741 
L 180.920178 124.573771 
L 179.579895 148.806681 
L 174.888906 236.731287 
L 173.939539 249.000582 
L 172.822637 260.439 
L 171.594044 270.111787 
L 170.532987 276.820339 
L 169.527775 282.111956 
L 168.075802 288.27732 
L 165.953688 295.678667 
L 163.496503 301.948094 
L 160.815938 306.735509 
L 158.861359 309.362357 
L 155.398962 312.789852 
L 154.39375 313.577223 
L 153.611918 314.146885 
L 150.205366 316.177731 
L 150.522884 315.917423 
L 151.538941 315.021914 
L 154.523609 312.007253 
L 155.285652 311.11959 
L 158.905356 306.042267 
L 160.683456 302.865547 
L 161.445498 301.304128 
L 162.652066 298.597036 
L 163.858634 295.711073 
L 164.430166 294.282953 
L 165.128706 292.383249 
L 166.843302 286.956768 
L 168.303884 281.385682 
L 169.446948 276.225164 
L 170.463006 270.749242 
L 171.479063 264.267613 
L 172.368113 257.521254 
L 173.38417 248.119561 
L 174.400227 236.386531 
L 175.352781 222.974158 
L 176.559348 202.447806 
L 181.258613 118.095925 
L 182.27467 105.089702 
L 183.417734 93.485463 
L 184.433791 85.257284 
L 185.640359 77.32438 
L 187.164445 69.376817 
L 189.006048 61.856279 
L 190.593638 56.596409 
L 191.990716 52.805629 
L 193.705313 48.530795 
L 195.165895 45.389736 
L 196.562973 42.858112 
L 198.150563 40.397834 
L 200.690705 37.231996 
L 203.992891 34.156205 
L 205.326466 33.182535 
L 206.215516 32.589152 
L 206.977559 32.091769 
L 207.35858 31.87113 
L 208.05712 31.472245 
L 208.501645 31.244534 
L 209.073177 30.926028 
L 209.708213 30.630504 
L 210.216241 30.384467 
L 210.851277 30.107116 
L 211.295802 29.8989 
L 212.184852 29.553739 
L 212.565873 29.397074 
L 213.39142 29.089146 
L 213.645434 28.993932 
L 210.300819 31.314069 
L 209.66036 31.827982 
L 208.308282 32.952849 
L 205.390639 35.740238 
L 204.323208 36.926889 
L 203.753912 37.566946 
L 202.259509 39.43583 
L 201.405565 40.625468 
L 200.693945 41.656771 
L 198.914894 44.497879 
L 196.708871 48.178005 
L 194.645172 52.297516 
L 192.154501 58.235817 
L 190.802422 62.07733 
L 189.165696 67.588166 
L 188.311751 70.891452 
L 186.746187 77.997663 
L 185.678756 83.859266 
L 184.611326 90.850491 
L 183.686219 98.079154 
L 182.761113 106.777016 
L 181.764845 118.247706 
L 180.768576 132.205022 
L 179.48766 153.490817 
L 175.573748 221.353798 
L 174.292831 238.332752 
L 173.154239 250.439158 
L 172.15797 259.033779 
L 170.948216 267.446306 
L 169.809624 273.936414 
L 168.671031 279.331362 
L 167.24779 285.005835 
L 165.82455 289.782456 
L 164.685957 293.045944 
L 163.120393 296.957991 
L 162.266448 299.025312 
L 160.416236 302.79532 
L 159.135319 304.992839 
L 157.498592 307.389061 
L 155.292569 309.999699 
L 151.80563 313.14444 
L 150.524713 314.062086 
L 149.599607 314.670757 
L 146.824288 316.231604 
L 146.112668 316.551595 
L 145.543371 316.824072 
L 143.693158 317.598959 
L 142.554566 318.032562 
L 143.040092 317.720562 
L 143.606539 317.319855 
L 144.092065 317.014646 
L 144.982196 316.357456 
L 145.629564 315.883174 
L 149.837457 312.234705 
L 152.912456 308.882467 
L 155.421007 305.510591 
L 159.952584 298.022649 
L 162.299293 293.101126 
L 163.755871 289.577252 
L 165.212449 285.498795 
L 166.426265 281.582578 
L 167.963764 275.872663 
L 169.663105 268.036693 
L 170.795999 261.638369 
L 172.009815 253.308601 
L 173.142709 243.600085 
L 174.275603 231.666301 
L 175.489418 215.952799 
L 176.865075 194.569218 
L 181.153889 125.018218 
L 182.367704 110.543615 
L 183.419677 100.373143 
L 184.552571 91.469894 
L 185.604545 84.619951 
L 186.899281 77.618578 
L 188.113096 72.164736 
L 189.326911 67.502902 
L 190.86441 62.404589 
L 192.078226 58.928696 
L 193.292041 55.862809 
L 195.63875 50.673731 
L 199.442038 43.96404 
L 201.707826 40.636655 
L 203.164404 38.822467 
L 205.834798 36.050924 
L 209.395322 33.230254 
L 210.366374 32.612539 
L 211.661111 31.825383 
L 211.984795 31.649469 
L 213.360452 30.924184 
L 219.024923 28.629956 
L 219.59137 28.460027 
L 220.319659 28.218734 
L 221.128869 27.990977 
L 221.695316 27.828378 
L 222.585447 27.592089 
L 223.394657 27.379456 
L 223.303977 27.419676 
L 221.309018 28.46672 
L 219.132698 29.70622 
L 218.407258 30.168223 
L 216.049578 31.734867 
L 213.419858 33.700009 
L 212.331698 34.62189 
L 211.696938 35.174784 
L 208.976538 37.787364 
L 203.263699 44.398045 
L 199.273779 50.200467 
L 196.553379 55.012935 
L 195.193179 57.79013 
L 193.288899 62.148409 
L 191.838019 65.987411 
L 190.659179 69.552768 
L 189.389659 73.842304 
L 187.848099 79.96895 
L 186.66926 85.580622 
L 185.49042 92.227895 
L 184.49294 98.900928 
L 183.49546 106.831787 
L 182.4073 117.322017 
L 181.22846 131.083279 
L 179.95894 149.046263 
L 178.23602 176.7188 
L 176.0597 210.120417 
L 174.6995 227.634888 
L 173.3393 241.978313 
L 172.16046 252.040282 
L 170.98162 260.194174 
L 169.62142 267.832303 
L 168.351901 273.760129 
L 167.173061 278.474978 
L 165.722181 283.455183 
L 164.180621 287.967912 
L 162.548381 292.016307 
L 160.281381 296.901747 
L 158.286421 300.428537 
L 156.563501 303.390581 
L 154.840581 305.936782 
L 153.208341 308.008948 
L 151.304062 310.063478 
L 148.492982 312.55359 
L 147.042102 313.619963 
L 145.681902 314.527623 
L 145.047142 314.893913 
L 144.231022 315.376537 
L 143.596262 315.7087 
L 141.147902 316.893606 
L 139.787702 317.437247 
L 139.152942 317.700314 
L 137.883422 318.14433 
L 137.248662 318.378542 
L 135.707102 318.848505 
L 135.072342 319.053541 
L 133.440103 319.478662 
L 132.805343 319.641026 
L 133.114689 319.503184 
L 133.836499 319.121639 
L 136.311274 317.770094 
L 137.033083 317.345344 
L 138.682933 316.303756 
L 139.507858 315.748875 
L 140.951477 314.721185 
L 142.704442 313.39351 
L 144.044945 312.237911 
L 144.766755 311.622133 
L 146.725952 309.718437 
L 147.860223 308.538193 
L 150.025651 306.06194 
L 151.778617 304.06102 
L 152.809773 302.800208 
L 156.006358 298.27132 
L 158.687364 293.771519 
L 161.574601 287.984202 
L 162.915104 284.869964 
L 164.874301 279.543228 
L 166.31792 274.956827 
L 168.070885 268.323993 
L 169.720735 260.549502 
L 170.855007 254.103492 
L 171.989279 246.340388 
L 173.123551 236.971974 
L 174.464054 223.34763 
L 175.701441 208.201036 
L 177.248176 186.356741 
L 180.754107 135.269404 
L 182.197726 118.71178 
L 183.228882 108.853061 
L 184.363154 99.827886 
L 185.600541 91.711031 
L 186.734813 85.522804 
L 187.869085 80.239401 
L 189.106472 75.302692 
L 190.34386 70.993823 
L 192.406172 64.921144 
L 193.746675 61.510146 
L 196.118334 56.346411 
L 198.799341 51.397622 
L 200.964769 47.988761 
L 202.408387 45.940872 
L 203.74889 44.231667 
L 207.976631 39.085554 
L 210.451406 36.624199 
L 211.0701 36.09012 
L 213.132412 34.444419 
L 218.391309 31.220979 
L 222.515934 29.42027 
L 225.918749 28.267977 
L 229.630912 27.234523 
L 232.311918 26.626907 
L 232.930611 26.513112 
L 235.817849 25.967916 
L 235.586746 26.058054 
L 232.351311 27.439961 
L 230.040286 28.520743 
L 224.609378 31.465088 
L 223.684968 32.053614 
L 221.836148 33.274326 
L 220.333982 34.356288 
L 217.214098 36.827808 
L 215.480829 38.275053 
L 213.169804 40.18784 
L 209.934369 43.307841 
L 204.850114 49.005092 
L 202.770192 51.708051 
L 200.228064 55.445298 
L 197.685937 59.772646 
L 195.490463 64.095552 
L 193.872745 67.763921 
L 192.255028 71.96086 
L 190.752862 76.401003 
L 188.904042 82.897259 
L 187.864081 87.24242 
L 186.361914 94.596421 
L 185.437504 99.9857 
L 184.166441 108.791322 
L 182.895377 119.542545 
L 181.508762 133.880341 
L 180.006596 152.32819 
L 174.691238 222.088963 
L 173.420174 234.718338 
L 172.264662 244.345927 
L 171.109149 252.361126 
L 169.953637 259.041482 
L 168.451471 266.257038 
L 167.180407 271.377401 
L 165.909343 275.836062 
L 163.944972 281.693629 
L 162.558357 285.258208 
L 161.171742 288.436439 
L 158.860717 293.046066 
L 156.896346 296.44759 
L 155.278628 298.990924 
L 154.007565 300.827085 
L 152.852052 302.348082 
L 149.269963 306.799963 
L 146.496733 309.713038 
L 143.607952 312.199747 
L 142.336888 313.153683 
L 141.52803 313.68444 
L 140.60362 314.281612 
L 138.408146 315.538124 
L 132.052827 318.240352 
L 124.310894 320.327189 
L 123.733137 320.434071 
L 120.382151 321.061751 
L 121.039139 320.79286 
L 121.696128 320.532153 
L 128.791601 317.204209 
L 131.025361 315.92333 
L 133.390519 314.462523 
L 139.434811 309.861367 
L 140.61739 308.874815 
L 144.033729 305.965292 
L 149.683829 300.095121 
L 150.73501 298.80551 
L 155.333928 292.563607 
L 156.779302 290.255654 
L 160.195641 283.98691 
L 161.772413 280.542299 
L 164.400366 273.753798 
L 165.845741 269.310681 
L 167.422513 263.63394 
L 168.736489 258.000684 
L 169.919068 252.093141 
L 171.101647 245.091043 
L 172.284226 236.700455 
L 173.466805 226.722642 
L 174.780781 213.562949 
L 176.357553 195.324331 
L 181.876255 128.489642 
L 183.190231 116.218816 
L 184.635606 105.144212 
L 185.949582 96.986265 
L 187.263559 90.228094 
L 188.708933 83.982254 
L 190.154307 78.720538 
L 191.599682 74.204022 
L 193.570646 68.958032 
L 195.541611 64.434537 
L 197.643974 60.282367 
L 200.534722 55.388838 
L 202.505687 52.412895 
L 205.002243 49.071203 
L 207.104605 46.561316 
L 211.834921 41.617933 
L 219.324587 35.10796 
L 221.689745 33.475444 
L 226.682856 30.743556 
L 227.734037 30.282895 
L 229.048014 29.73035 
L 229.967798 29.377642 
L 231.807365 28.714981 
L 232.464353 28.503909 
L 234.698113 27.82986 
L 235.617897 27.580503 
L 237.720259 27.048936 
L 238.508645 26.872012 
L 242.056382 26.150674 
L 248.88906 25.099108 
L 251.648411 24.757266 
L 251.059435 24.943452 
L 242.961011 27.871872 
L 235.598808 31.300236 
L 228.972825 35.234723 
L 227.500384 36.078557 
L 224.555503 37.946846 
L 217.1933 43.366905 
L 216.015347 44.381665 
L 209.831096 50.135208 
L 205.413774 55.168704 
L 203.352357 57.866339 
L 200.849208 61.5186 
L 199.229524 64.162073 
L 196.726374 68.773534 
L 194.370469 73.89884 
L 192.750785 77.989419 
L 191.1311 82.720877 
L 189.805903 87.246259 
L 188.480707 92.444729 
L 187.15551 98.508282 
L 185.977558 104.879911 
L 184.799605 112.308777 
L 183.327164 123.497118 
L 182.149212 134.13939 
L 180.382283 152.406688 
L 177.584646 184.299479 
L 175.081497 212.309857 
L 173.461812 227.701047 
L 172.136615 238.195754 
L 170.664175 247.834802 
L 169.338978 254.945245 
L 167.866537 261.500805 
L 166.394097 267.038786 
L 164.774412 272.224351 
L 162.712995 277.819936 
L 160.798822 282.260363 
L 158.442917 286.916281 
L 156.234256 290.749769 
L 153.731107 294.546722 
L 150.786226 298.466513 
L 148.577565 301.037346 
L 144.012999 305.761223 
L 138.123236 311.014412 
L 135.914575 312.653836 
L 132.380717 314.854204 
L 130.466545 315.866425 
L 128.552372 316.737505 
L 126.196467 317.676758 
L 122.368121 318.943792 
L 116.772846 320.349759 
L 112.061036 321.230167 
L 108.527179 321.760964 
L 107.054738 321.967526 
L 104.551589 322.264334 
L 105.221336 322.05652 
L 106.895703 321.513004 
L 110.244438 320.329897 
L 111.583932 319.805763 
L 117.779092 317.170651 
L 120.45808 315.819797 
L 122.467321 314.747135 
L 123.639378 314.04448 
L 124.476562 313.557409 
L 129.499664 310.493196 
L 131.006595 309.556114 
L 132.346089 308.645431 
L 135.527387 306.346442 
L 139.210996 303.507078 
L 145.406156 297.862932 
L 147.415396 295.76049 
L 149.089764 293.854592 
L 150.261821 292.50294 
L 155.787234 284.776628 
L 158.298785 280.471806 
L 160.308026 276.48572 
L 162.14983 272.262145 
L 164.159071 266.925484 
L 165.498565 262.81431 
L 167.34037 256.137533 
L 168.679864 250.336421 
L 169.851921 244.460241 
L 171.023978 237.560588 
L 172.028598 230.739587 
L 173.368092 220.281535 
L 174.707586 208.016477 
L 176.549391 189.362458 
L 181.23762 141.075425 
L 183.079424 124.485962 
L 184.753791 112.153004 
L 186.093285 104.027538 
L 187.265343 97.940512 
L 189.107147 90.048004 
L 190.614078 84.645323 
L 192.288445 79.567 
L 193.627939 76.03784 
L 195.804617 71.04508 
L 198.651041 65.546441 
L 201.162593 61.456895 
L 203.171834 58.532875 
L 205.181075 55.853215 
L 207.190316 53.394971 
L 212.380855 47.841211 
L 217.236521 43.473419 
L 220.250382 41.072323 
L 222.092186 39.686217 
L 228.287346 35.376811 
L 230.296587 34.042503 
L 236.994057 30.534912 
L 238.668424 29.845047 
L 240.007918 29.310862 
L 248.379756 26.870237 
L 253.570295 25.844934 
L 263.281626 24.518178 
L 264.955994 24.34956 
L 271.151153 23.806138 
L 271.8209 23.769934 
L 271.258012 23.899486 
L 258.68684 27.698334 
L 256.060028 28.689565 
L 255.309511 28.969942 
L 252.495069 30.115158 
L 250.618775 30.935651 
L 248.554851 31.889372 
L 240.111527 35.814956 
L 232.981608 39.633362 
L 227.540355 42.920704 
L 220.785695 47.620696 
L 217.408366 50.238513 
L 215.344442 52.030082 
L 213.468148 53.726303 
L 208.589782 58.731148 
L 205.212453 62.783334 
L 201.835123 67.485402 
L 199.58357 71.131153 
L 197.332017 75.287319 
L 195.268093 79.706427 
L 193.391799 84.360543 
L 191.890763 88.638264 
L 190.577357 92.962189 
L 189.263951 97.811407 
L 187.950545 103.361859 
L 186.44951 110.854545 
L 185.323733 117.426361 
L 183.635068 128.932411 
L 181.946403 142.460156 
L 179.507221 164.315684 
L 172.940191 224.874438 
L 171.251526 236.593545 
L 169.562861 246.175436 
L 168.061825 253.124708 
L 166.56079 258.984015 
L 164.872125 264.565491 
L 163.37109 268.830516 
L 161.307166 273.936721 
L 159.618501 277.530259 
L 157.366948 281.737337 
L 155.678283 284.54428 
L 151.362806 290.739428 
L 147.985476 294.817496 
L 144.608147 298.42423 
L 143.107111 299.879083 
L 138.228746 304.153777 
L 132.787493 308.338843 
L 129.785422 310.370738 
L 127.346239 312.118244 
L 125.845204 313.066578 
L 124.907056 313.638094 
L 120.40395 316.005339 
L 118.152397 316.976881 
L 114.587438 318.309654 
L 111.772996 319.1465 
L 110.45959 319.519081 
L 108.958555 319.890783 
L 107.082261 320.323645 
L 102.016266 321.288101 
L 94.323459 322.346301 
L 89.820353 322.799272 
L 88.882206 322.906614 
L 86.067764 323.128167 
L 84.754358 323.246949 
L 84.3791 323.281611 
L 84.80582 323.1434 
L 85.872623 322.878966 
L 87.579506 322.412487 
L 88.859669 322.078206 
L 91.206634 321.375668 
L 92.273437 321.059615 
L 94.407041 320.392714 
L 96.754006 319.595652 
L 101.447936 317.846747 
L 103.15482 317.154107 
L 115.956448 311.353758 
L 117.449971 310.572737 
L 125.344308 306.161358 
L 132.598563 301.473701 
L 135.79897 299.131809 
L 139.212738 296.428832 
L 143.693307 292.377584 
L 149.45404 286.156911 
L 152.227726 282.608246 
L 154.788051 278.819995 
L 156.708295 275.672426 
L 159.055261 271.264717 
L 160.975505 267.065142 
L 162.895749 262.272245 
L 164.175912 258.654044 
L 165.456074 254.587159 
L 167.162958 248.376671 
L 168.656481 241.908105 
L 169.723284 236.609065 
L 171.003446 229.313218 
L 172.71033 217.923517 
L 174.203853 206.632741 
L 176.124097 190.568224 
L 182.09819 139.378955 
L 183.805074 126.724937 
L 185.725318 114.567703 
L 187.005481 107.738647 
L 188.499004 100.927861 
L 189.992527 95.115244 
L 191.912771 88.752072 
L 194.046376 82.876261 
L 195.539899 79.344512 
L 197.886864 74.464147 
L 201.087271 68.911614 
L 203.007515 66.016206 
L 205.14112 63.118741 
L 207.274725 60.501927 
L 209.62169 57.832484 
L 212.822096 54.581487 
L 216.662585 51.042201 
L 220.076352 48.230947 
L 221.783236 46.959557 
L 225.623724 44.161456 
L 228.18405 42.46083 
L 230.531015 40.924173 
L 233.304701 39.297256 
L 235.651666 37.879292 
L 237.998631 36.614508 
L 239.065433 36.054222 
L 242.05248 34.513163 
L 246.319689 32.198783 
L 249.946817 30.544558 
L 256.560991 28.179582 
L 258.267874 27.698168 
L 260.401479 27.131195 
L 262.748444 26.59682 
L 274.269909 24.715044 
L 277.043595 24.386356 
L 278.110397 24.286304 
L 281.524165 23.964337 
L 284.724572 23.700674 
L 294.112432 23.118691 
L 297.526199 22.953931 
L 296.569833 23.14936 
L 295.613467 23.356074 
L 293.461644 23.798143 
L 292.027095 24.127016 
L 285.093442 25.849759 
L 282.463435 26.593369 
L 279.833429 27.370268 
L 269.313403 30.967975 
L 266.444305 31.92306 
L 263.814299 32.82144 
L 262.140659 33.441984 
L 255.92428 35.86775 
L 245.404254 40.441643 
L 242.296065 41.950415 
L 237.992418 44.149569 
L 234.645137 45.949578 
L 224.842386 52.01919 
L 222.21238 53.92641 
L 217.669642 57.545767 
L 210.735988 64.106218 
L 208.345073 66.796257 
L 204.997793 71.044051 
L 203.085061 73.745093 
L 200.455054 77.969328 
L 198.542322 81.40448 
L 195.673224 87.427627 
L 193.521401 92.877821 
L 191.847761 97.777582 
L 189.695937 105.219437 
L 188.261388 111.071388 
L 186.826839 117.664679 
L 184.914107 128.017788 
L 183.479559 136.809173 
L 181.566827 150.446791 
L 179.415003 167.193798 
L 174.633173 205.598896 
L 172.48135 220.902025 
L 170.568618 232.664791 
L 169.134069 240.066546 
L 167.69952 246.373335 
L 166.02588 252.68158 
L 164.113148 258.753701 
L 162.678599 262.721587 
L 160.287684 268.398353 
L 158.853135 271.447995 
L 156.940403 274.994812 
L 154.549488 278.907371 
L 152.875848 281.39193 
L 149.767658 285.47245 
L 145.464012 290.305339 
L 142.594914 293.155096 
L 137.334901 297.788302 
L 134.465803 300.000677 
L 133.031254 301.051815 
L 129.923065 303.238214 
L 123.228503 307.487573 
L 119.881222 309.517503 
L 117.729399 310.654561 
L 116.29485 311.388009 
L 114.143026 312.522557 
L 111.273929 314.116735 
L 106.73119 316.249657 
L 102.666635 317.84885 
L 100.753903 318.475548 
L 98.60208 319.123031 
L 95.732982 319.87945 
L 89.03842 321.277403 
L 83.539316 322.104938 
L 81.865675 322.312685 
L 79.713852 322.576072 
L 78.040212 322.73332 
L 75.649297 322.968393 
L 70.628375 323.372138 
L 63.694722 323.807106 
L 58.673801 324.082389 
L 59.217561 323.966721 
L 61.12072 323.558461 
L 65.470798 322.576104 
L 76.345994 319.657325 
L 83.686751 317.228303 
L 87.22119 315.930135 
L 88.03683 315.676782 
L 92.115028 314.301002 
L 94.018188 313.606246 
L 97.280746 312.314243 
L 99.727665 311.387686 
L 109.515342 307.196611 
L 120.390538 301.679083 
L 129.634454 296.126917 
L 132.081373 294.4935 
L 133.984532 293.101764 
L 139.42213 288.675269 
L 143.228449 285.144716 
L 147.850407 280.171863 
L 150.025446 277.470531 
L 152.200486 274.529754 
L 154.919284 270.364072 
L 157.094324 266.546992 
L 159.269363 262.198031 
L 161.444402 257.237635 
L 163.347561 252.225922 
L 164.978841 247.211226 
L 166.61012 241.496839 
L 168.241399 234.968946 
L 169.872679 227.405297 
L 171.232078 220.274907 
L 173.135238 208.933516 
L 175.310277 194.140914 
L 179.116595 165.733918 
L 182.107274 144.269648 
L 184.010433 132.26128 
L 186.185473 120.389477 
L 188.088632 111.628431 
L 189.719911 105.127703 
L 191.623071 98.620199 
L 192.98247 94.522467 
L 194.34187 90.852518 
L 196.245029 86.319387 
L 198.691948 81.312195 
L 201.138867 76.957481 
L 204.129546 72.368474 
L 208.751504 66.456236 
L 210.654663 64.331375 
L 216.092261 59.012221 
L 219.08294 56.498112 
L 223.704898 52.927974 
L 227.783097 50.104605 
L 237.027013 44.503173 
L 246.27093 39.686052 
L 248.445969 38.648679 
L 250.077249 37.881925 
L 251.708528 37.184163 
L 256.058606 35.20727 
L 258.777405 34.094647 
L 262.583724 32.534731 
L 265.302523 31.313507 
L 270.196361 29.442671 
L 272.09952 28.821971 
L 276.449599 27.522487 
L 279.440277 26.793138 
L 287.324794 25.274268 
L 289.771713 24.919429 
L 296.296831 24.164199 
L 302.006309 23.65923 
L 321.309782 22.606023 
L 323.212941 22.5471 
L 330.009938 22.32 
L 330.281818 22.325763 
L 329.97715 22.373528 
L 319.618428 24.282326 
L 316.571744 24.961124 
L 314.439066 25.406632 
L 312.915725 25.779485 
L 309.564373 26.584246 
L 304.080344 28.041089 
L 298.900983 29.511075 
L 297.072973 29.986251 
L 285.190909 33.35483 
L 280.011548 34.902363 
L 277.87887 35.596207 
L 276.355528 36.117235 
L 272.699509 37.291712 
L 266.910811 39.323536 
L 253.505405 44.500092 
L 251.677396 45.277361 
L 250.154054 45.917641 
L 245.888698 47.909402 
L 244.670025 48.454322 
L 236.139312 52.867956 
L 230.655283 56.115781 
L 221.819902 62.369553 
L 219.077887 64.615348 
L 215.117199 68.168685 
L 209.63317 73.890242 
L 205.672482 78.866579 
L 203.539803 81.929011 
L 201.102457 85.882749 
L 199.274447 89.160507 
L 197.141769 93.433548 
L 195.618428 96.86078 
L 194.095086 100.637729 
L 191.962408 106.540599 
L 190.134398 112.292927 
L 188.00172 120.271645 
L 186.478378 126.968323 
L 184.650369 136.119824 
L 183.127027 144.734247 
L 181.299017 156.247869 
L 177.642998 181.25537 
L 173.986978 205.519609 
L 171.8543 217.964608 
L 170.02629 227.36136 
L 168.502948 234.294172 
L 166.37027 242.601668 
L 164.846929 247.733111 
L 163.323587 252.313578 
L 160.886241 258.500395 
L 158.753563 263.200143 
L 156.620885 267.351432 
L 154.488206 270.955468 
L 152.05086 274.639518 
L 148.699509 279.038373 
L 142.606143 285.665197 
L 137.73145 290.026999 
L 131.333415 294.967987 
L 128.896069 296.628962 
L 121.584029 301.137268 
L 117.318673 303.499443 
L 110.311302 307.150691 
L 104.827273 309.714195 
L 103.303931 310.412382 
L 101.171253 311.401188 
L 96.601229 313.26823 
L 89.898526 316.10745 
L 86.851843 317.283274 
L 83.195823 318.521481 
L 74.360442 320.760741 
L 70.399754 321.512477 
L 55.775676 323.240363 
L 50.900983 323.594873 
L 48.768305 323.752858 
L 46.330958 323.888328 
L 40.54226 324.175957 
L 35.362899 324.407228 
L 32.620885 324.500934 
L 25.918182 324.72 
L 25.918182 324.72 
L 27.289189 324.482721 
L 37.190909 322.594724 
L 39.78059 322.028401 
L 40.54226 321.880965 
L 42.827273 321.366763 
L 46.330958 320.542164 
L 47.397297 320.260304 
L 48.463636 320.004626 
L 49.529975 319.711903 
L 50.596314 319.429448 
L 57.908354 317.391045 
L 59.127027 317.095074 
L 69.638084 314.111569 
L 70.856757 313.739203 
L 72.532432 313.270366 
L 73.598771 312.937659 
L 75.883784 312.230569 
L 76.645455 312.009455 
L 79.844472 310.938352 
L 82.129484 310.232001 
L 84.109828 309.569813 
L 90.05086 307.472886 
L 102.694595 302.550684 
L 105.436609 301.399562 
L 107.721622 300.381396 
L 110.158968 299.211466 
L 115.795332 296.476419 
L 116.709337 295.984477 
L 119.908354 294.288331 
L 126.00172 290.680071 
L 128.439066 289.019363 
L 130.114742 287.893336 
L 138.036118 281.648968 
L 140.930467 279.013546 
L 144.434152 275.494383 
L 147.176167 272.403553 
L 150.679853 267.956973 
L 153.117199 264.420566 
L 155.859214 259.811446 
L 158.601229 254.534654 
L 160.886241 249.512265 
L 162.561916 245.353285 
L 164.389926 240.283553 
L 166.217936 234.585756 
L 167.893612 228.571389 
L 169.416953 222.371556 
L 170.787961 216.090612 
L 173.225307 203.422914 
L 175.205651 191.815135 
L 177.490663 177.469885 
L 178.1 173.566559 
L 178.1 173.566559 
" clip-path="url(#pe96a574ef0)" style="fill: none; stroke: #0000ff; stroke-linecap: square"/>
   </g>
   <g id="line2d_38">
    <defs>
     <path id="m4b360d2ff4" d="M 0 -3 
L -0.673542 -0.927051 
L -2.85317 -0.927051 
L -1.089814 0.354102 
L -1.763356 2.427051 
L -0 1.145898 
L 1.763356 2.427051 
L 1.089814 0.354102 
L 2.85317 -0.927051 
L 0.673542 -0.927051 
z
" style="stroke: #0000ff; stroke-linejoin: bevel"/>
    </defs>
    <g clip-path="url(#pe96a574ef0)">
     <use xlink:href="#m4b360d2ff4" x="178.1" y="173.515103" style="fill: #0000ff; stroke: #0000ff; stroke-linejoin: bevel"/>
    </g>
   </g>
   <g id="patch_3">
    <path d="M 10.7 339.84 
L 10.7 7.2 
" style="fill: none; stroke: #000000; stroke-width: 0.8; stroke-linejoin: miter; stroke-linecap: square"/>
   </g>
   <g id="patch_4">
    <path d="M 345.5 339.84 
L 345.5 7.2 
" style="fill: none; stroke: #000000; stroke-width: 0.8; stroke-linejoin: miter; stroke-linecap: square"/>
   </g>
   <g id="patch_5">
    <path d="M 10.7 339.84 
L 345.5 339.84 
" style="fill: none; stroke: #000000; stroke-width: 0.8; stroke-linejoin: miter; stroke-linecap: square"/>
   </g>
   <g id="patch_6">
    <path d="M 10.7 7.2 
L 345.5 7.2 
" style="fill: none; stroke: #000000; stroke-width: 0.8; stroke-linejoin: miter; stroke-linecap: square"/>
   </g>
  </g>
 </g>
 <defs>
  <clipPath id="pe96a574ef0">
   <rect x="10.7" y="7.2" width="334.8" height="332.64"/>
  </clipPath>
 </defs>
</svg>
