<?xml version="1.0" encoding="utf-8" standalone="no"?>
<!DOCTYPE svg PUBLIC "-//W3C//DTD SVG 1.1//EN"
  "http://www.w3.org/Graphics/SVG/1.1/DTD/svg11.dtd">
<svg xmlns:xlink="http://www.w3.org/1999/xlink" width="352.7pt" height="350.54pt" viewBox="0 0 352.7 350.54" xmlns="http://www.w3.org/2000/svg" version="1.1">
 <metadata>
  <rdf:RDF xmlns:dc="http://purl.org/dc/elements/1.1/" xmlns:cc="http://creativecommons.org/ns#" xmlns:rdf="http://www.w3.org/1999/02/22-rdf-syntax-ns#">
   <cc:Work>
    <dc:type rdf:resource="http://purl.org/dc/dcmitype/StillImage"/>
    <dc:date>2025-02-15T22:59:29.441089</dc:date>
    <dc:format>image/svg+xml</dc:format>
    <dc:creator>
     <cc:Agent>
      <dc:title>Matplotlib v3.9.2, https://matplotlib.org/</dc:title>
     </cc:Agent>
    </dc:creator>
   </cc:Work>
  </rdf:RDF>
 </metadata>
 <defs>
  <style type="text/css">*{stroke-linejoin: round; stroke-linecap: butt}</style>
 </defs>
 <g id="figure_1">
  <g id="patch_1">
   <path d="M 0 350.54 
L 352.7 350.54 
L 352.7 0 
L 0 0 
z
" style="fill: #ffffff"/>
  </g>
  <g id="axes_1">
   <g id="patch_2">
    <path d="M 10.7 339.84 
L 345.5 339.84 
L 345.5 7.2 
L 10.7 7.2 
z
" style="fill: #ffffff"/>
   </g>
   <g id="matplotlib.axis_1">
    <g id="xtick_1">
     <g id="line2d_1">
      <path d="M 33.394561 339.84 
L 33.394561 7.2 
" clip-path="url(#pe97dbd7394)" style="fill: none; stroke: #b0b0b0; stroke-opacity: 0.3; stroke-width: 0.8; stroke-linecap: square"/>
     </g>
     <g id="line2d_2">
      <defs>
       <path id="mdae0050520" d="M 0 0 
L 0 3.5 
" style="stroke: #000000; stroke-width: 0.8"/>
      </defs>
      <g>
       <use xlink:href="#mdae0050520" x="33.394561" y="339.84" style="stroke: #000000; stroke-width: 0.8"/>
      </g>
     </g>
    </g>
    <g id="xtick_2">
     <g id="line2d_3">
      <path d="M 105.497274 339.84 
L 105.497274 7.2 
" clip-path="url(#pe97dbd7394)" style="fill: none; stroke: #b0b0b0; stroke-opacity: 0.3; stroke-width: 0.8; stroke-linecap: square"/>
     </g>
     <g id="line2d_4">
      <g>
       <use xlink:href="#mdae0050520" x="105.497274" y="339.84" style="stroke: #000000; stroke-width: 0.8"/>
      </g>
     </g>
    </g>
    <g id="xtick_3">
     <g id="line2d_5">
      <path d="M 177.599988 339.84 
L 177.599988 7.2 
" clip-path="url(#pe97dbd7394)" style="fill: none; stroke: #b0b0b0; stroke-opacity: 0.3; stroke-width: 0.8; stroke-linecap: square"/>
     </g>
     <g id="line2d_6">
      <g>
       <use xlink:href="#mdae0050520" x="177.599988" y="339.84" style="stroke: #000000; stroke-width: 0.8"/>
      </g>
     </g>
    </g>
    <g id="xtick_4">
     <g id="line2d_7">
      <path d="M 249.702701 339.84 
L 249.702701 7.2 
" clip-path="url(#pe97dbd7394)" style="fill: none; stroke: #b0b0b0; stroke-opacity: 0.3; stroke-width: 0.8; stroke-linecap: square"/>
     </g>
     <g id="line2d_8">
      <g>
       <use xlink:href="#mdae0050520" x="249.702701" y="339.84" style="stroke: #000000; stroke-width: 0.8"/>
      </g>
     </g>
    </g>
    <g id="xtick_5">
     <g id="line2d_9">
      <path d="M 321.805415 339.84 
L 321.805415 7.2 
" clip-path="url(#pe97dbd7394)" style="fill: none; stroke: #b0b0b0; stroke-opacity: 0.3; stroke-width: 0.8; stroke-linecap: square"/>
     </g>
     <g id="line2d_10">
      <g>
       <use xlink:href="#mdae0050520" x="321.805415" y="339.84" style="stroke: #000000; stroke-width: 0.8"/>
      </g>
     </g>
    </g>
   </g>
   <g id="matplotlib.axis_2">
    <g id="ytick_1">
     <g id="line2d_11">
      <path d="M 10.7 331.409073 
L 345.5 331.409073 
" clip-path="url(#pe97dbd7394)" style="fill: none; stroke: #b0b0b0; stroke-opacity: 0.3; stroke-width: 0.8; stroke-linecap: square"/>
     </g>
     <g id="line2d_12">
      <defs>
       <path id="m0a747ed9fa" d="M 0 0 
L -3.5 0 
" style="stroke: #000000; stroke-width: 0.8"/>
      </defs>
      <g>
       <use xlink:href="#m0a747ed9fa" x="10.7" y="331.409073" style="stroke: #000000; stroke-width: 0.8"/>
      </g>
     </g>
    </g>
    <g id="ytick_2">
     <g id="line2d_13">
      <path d="M 10.7 291.778804 
L 345.5 291.778804 
" clip-path="url(#pe97dbd7394)" style="fill: none; stroke: #b0b0b0; stroke-opacity: 0.3; stroke-width: 0.8; stroke-linecap: square"/>
     </g>
     <g id="line2d_14">
      <g>
       <use xlink:href="#m0a747ed9fa" x="10.7" y="291.778804" style="stroke: #000000; stroke-width: 0.8"/>
      </g>
     </g>
    </g>
    <g id="ytick_3">
     <g id="line2d_15">
      <path d="M 10.7 252.148536 
L 345.5 252.148536 
" clip-path="url(#pe97dbd7394)" style="fill: none; stroke: #b0b0b0; stroke-opacity: 0.3; stroke-width: 0.8; stroke-linecap: square"/>
     </g>
     <g id="line2d_16">
      <g>
       <use xlink:href="#m0a747ed9fa" x="10.7" y="252.148536" style="stroke: #000000; stroke-width: 0.8"/>
      </g>
     </g>
    </g>
    <g id="ytick_4">
     <g id="line2d_17">
      <path d="M 10.7 212.518268 
L 345.5 212.518268 
" clip-path="url(#pe97dbd7394)" style="fill: none; stroke: #b0b0b0; stroke-opacity: 0.3; stroke-width: 0.8; stroke-linecap: square"/>
     </g>
     <g id="line2d_18">
      <g>
       <use xlink:href="#m0a747ed9fa" x="10.7" y="212.518268" style="stroke: #000000; stroke-width: 0.8"/>
      </g>
     </g>
    </g>
    <g id="ytick_5">
     <g id="line2d_19">
      <path d="M 10.7 172.888 
L 345.5 172.888 
" clip-path="url(#pe97dbd7394)" style="fill: none; stroke: #b0b0b0; stroke-opacity: 0.3; stroke-width: 0.8; stroke-linecap: square"/>
     </g>
     <g id="line2d_20">
      <g>
       <use xlink:href="#m0a747ed9fa" x="10.7" y="172.888" style="stroke: #000000; stroke-width: 0.8"/>
      </g>
     </g>
    </g>
    <g id="ytick_6">
     <g id="line2d_21">
      <path d="M 10.7 133.257732 
L 345.5 133.257732 
" clip-path="url(#pe97dbd7394)" style="fill: none; stroke: #b0b0b0; stroke-opacity: 0.3; stroke-width: 0.8; stroke-linecap: square"/>
     </g>
     <g id="line2d_22">
      <g>
       <use xlink:href="#m0a747ed9fa" x="10.7" y="133.257732" style="stroke: #000000; stroke-width: 0.8"/>
      </g>
     </g>
    </g>
    <g id="ytick_7">
     <g id="line2d_23">
      <path d="M 10.7 93.627464 
L 345.5 93.627464 
" clip-path="url(#pe97dbd7394)" style="fill: none; stroke: #b0b0b0; stroke-opacity: 0.3; stroke-width: 0.8; stroke-linecap: square"/>
     </g>
     <g id="line2d_24">
      <g>
       <use xlink:href="#m0a747ed9fa" x="10.7" y="93.627464" style="stroke: #000000; stroke-width: 0.8"/>
      </g>
     </g>
    </g>
    <g id="ytick_8">
     <g id="line2d_25">
      <path d="M 10.7 53.997195 
L 345.5 53.997195 
" clip-path="url(#pe97dbd7394)" style="fill: none; stroke: #b0b0b0; stroke-opacity: 0.3; stroke-width: 0.8; stroke-linecap: square"/>
     </g>
     <g id="line2d_26">
      <g>
       <use xlink:href="#m0a747ed9fa" x="10.7" y="53.997195" style="stroke: #000000; stroke-width: 0.8"/>
      </g>
     </g>
    </g>
    <g id="ytick_9">
     <g id="line2d_27">
      <path d="M 10.7 14.366927 
L 345.5 14.366927 
" clip-path="url(#pe97dbd7394)" style="fill: none; stroke: #b0b0b0; stroke-opacity: 0.3; stroke-width: 0.8; stroke-linecap: square"/>
     </g>
     <g id="line2d_28">
      <g>
       <use xlink:href="#m0a747ed9fa" x="10.7" y="14.366927" style="stroke: #000000; stroke-width: 0.8"/>
      </g>
     </g>
    </g>
   </g>
   <g id="line2d_29">
    <path d="M 177.599988 172.888 
L 181.730494 161.85359 
L 185.980531 151.141109 
L 187.922201 146.456235 
L 187.258792 148.276125 
L 174.272813 183.643279 
L 169.542383 195.541591 
L 166.162607 203.572239 
L 162.675048 211.466222 
L 159.149773 219.056561 
L 155.662192 226.196866 
L 150.676078 235.798405 
L 146.233 243.784105 
L 141.643048 251.501945 
L 138.922043 255.826047 
L 154.077444 214.890139 
L 171.913956 166.411421 
L 175.364788 157.527214 
L 178.912959 148.825575 
L 182.542414 140.360762 
L 186.23689 132.17843 
L 189.979976 124.315827 
L 193.755175 116.802164 
L 197.545958 109.659158 
L 201.335813 102.901684 
L 205.108274 96.538523 
L 208.84694 90.573141 
L 212.535505 85.004502 
L 216.15779 79.827806 
L 219.697739 75.035247 
L 223.139433 70.616677 
L 226.467132 66.560222 
L 232.718311 59.481188 
L 238.328899 53.689289 
L 243.180037 49.078238 
L 248.784005 44.177228 
L 252.791729 40.933919 
L 248.963104 50.558363 
L 236.690132 81.741555 
L 221.188872 121.743391 
L 201.645806 172.658968 
L 196.291823 186.113433 
L 190.802011 198.948865 
L 185.202632 211.081421 
L 179.51953 222.467704 
L 173.778042 233.084148 
L 168.002921 242.924282 
L 162.218328 251.995677 
L 156.447825 260.317186 
L 150.714394 267.916422 
L 145.040427 274.827347 
L 139.447798 281.088204 
L 133.957848 286.739867 
L 128.591442 291.824363 
L 123.368961 296.383792 
L 118.310408 300.45936 
L 113.435349 304.090798 
L 108.762925 307.315875 
L 104.311868 310.170018 
L 100.100522 312.686146 
L 92.468271 316.822246 
L 86.004321 319.932136 
L 78.781673 323.020721 
L 74.294163 324.713377 
L 85.967983 298.241318 
L 97.459777 271.752775 
L 112.41328 236.781755 
L 143.325481 164.121636 
L 150.134344 149.450599 
L 157.073148 135.782372 
L 164.108352 123.146684 
L 171.207415 111.546737 
L 178.338785 100.964359 
L 185.471919 91.364812 
L 192.577265 82.701226 
L 199.626213 74.918407 
L 206.591058 67.956113 
L 213.44495 61.751684 
L 220.161864 56.242127 
L 226.716531 51.365689 
L 233.084407 47.063046 
L 239.241679 43.278137 
L 245.165179 39.95847 
L 250.832392 37.055665 
L 256.221476 34.525455 
L 261.311237 32.327524 
L 266.081225 30.425966 
L 274.583603 27.387021 
L 281.579592 25.194567 
L 288.955973 23.154939 
L 292.379279 22.32 
L 279.228628 49.010776 
L 266.28058 75.719356 
L 249.528997 110.768956 
L 222.554342 167.902266 
L 215.210743 182.178712 
L 207.703173 196.505804 
L 200.070516 209.769877 
L 192.350664 221.956584 
L 184.581011 233.076995 
L 176.79746 243.162174 
L 169.034812 252.258066 
L 161.326739 260.421003 
L 153.705842 267.713826 
L 146.203658 274.202763 
L 138.850633 279.954982 
L 131.676286 285.036603 
L 124.709144 289.511356 
L 117.976786 293.439659 
L 111.50584 296.877904 
L 105.321951 299.877966 
L 99.449839 302.487236 
L 93.913293 304.748672 
L 88.735091 306.700745 
L 79.539692 309.809622 
L 72.024952 312.039972 
L 64.211511 314.091797 
L 60.838215 314.83155 
L 75.564275 287.57223 
L 89.585085 261.225573 
L 107.519764 227.097141 
L 128.552469 186.697065 
L 143.802038 159.99366 
L 151.675144 146.738173 
L 159.658693 134.502013 
L 167.712074 123.28851 
L 175.795763 113.079001 
L 183.871311 103.837938 
L 191.901452 95.517441 
L 199.850002 88.061384 
L 207.681997 81.40863 
L 215.36353 75.495933 
L 222.861805 70.259971 
L 230.145145 65.638859 
L 237.183036 61.573483 
L 243.946062 58.008269 
L 250.405917 54.891613 
L 256.535439 52.176188 
L 262.308646 49.819037 
L 267.700764 47.781524 
L 277.248806 44.531968 
L 285.006884 42.200035 
L 292.9649 40.067934 
L 296.156903 39.281327 
L 296.11101 39.431637 
L 283.946676 60.246581 
L 265.102797 92.949201 
L 246.227394 126.125523 
L 224.241165 165.069319 
L 216.402015 175.539493 
L 208.374698 188.828324 
L 200.201529 201.177784 
L 191.925956 212.558344 
L 183.590138 222.972903 
L 175.235296 232.443634 
L 166.901593 241.007441 
L 158.628074 248.71166 
L 150.452698 255.610658 
L 142.412255 261.762739 
L 134.542407 267.227737 
L 126.877648 272.065144 
L 119.451292 276.332677 
L 112.295441 280.085214 
L 105.441029 283.37434 
L 98.917727 286.247708 
L 92.753917 288.748863 
L 86.97671 290.917341 
L 76.683493 294.39322 
L 68.22628 296.909942 
L 59.333833 299.259382 
L 55.204705 300.236066 
L 70.475122 275.831181 
L 91.316162 242.053377 
L 119.152676 196.373459 
L 126.943253 183.528132 
L 134.98422 173.511473 
L 143.235864 162.271712 
L 151.656423 150.036342 
L 160.201297 138.732124 
L 168.825897 128.363771 
L 177.486973 118.915488 
L 186.142189 110.35587 
L 194.750267 102.642177 
L 203.270994 95.723889 
L 211.665334 89.545691 
L 219.895358 84.050171 
L 227.924341 79.179636 
L 235.716742 74.877653 
L 243.238317 71.090228 
L 250.456075 67.766536 
L 257.338326 64.859362 
L 263.854746 62.325402 
L 269.976432 60.125363 
L 275.675951 58.223949 
L 285.70629 55.195263 
L 293.757712 53.032618 
L 303.310791 50.746712 
L 304.581583 50.464083 
L 285.385246 79.254954 
L 262.330105 114.320745 
L 232.459725 160.235821 
L 224.212726 170.958955 
L 215.737472 178.52328 
L 207.073335 190.68704 
L 198.266085 201.946471 
L 189.362232 212.290817 
L 180.407001 221.731232 
L 171.444749 230.295186 
L 162.518806 238.022141 
L 153.671452 244.959976 
L 144.943774 251.161949 
L 136.375753 256.683861 
L 128.006138 261.582205 
L 119.872452 265.912552 
L 112.010882 269.728306 
L 104.456271 273.07989 
L 97.242106 276.014266 
L 90.400441 278.574608 
L 83.96183 280.80016 
L 77.955248 282.726249 
L 67.346078 285.802088 
L 58.771261 288.009962 
L 48.369492 290.388087 
L 46.78425 290.723612 
L 47.712526 289.394431 
L 65.51432 264.255616 
L 88.81548 230.940906 
L 119.227127 187.024435 
L 127.651086 175.964328 
L 136.317547 171.566876 
L 145.189525 160.175434 
L 154.221523 148.932209 
L 163.365564 138.586034 
L 172.57447 129.130242 
L 181.80198 120.541052 
L 191.002832 112.782049 
L 200.132841 105.807677 
L 209.14897 99.56663 
L 218.009363 94.004466 
L 226.673415 89.065761 
L 235.101806 84.69575 
L 243.256593 80.841633 
L 251.101153 77.453229 
L 258.600359 74.483768 
L 265.720596 71.890168 
L 272.429767 69.633031 
L 278.69752 67.677115 
L 289.796025 64.546779 
L 298.808775 62.290662 
L 309.904141 59.828584 
L 311.736396 59.452971 
L 311.68685 59.584939 
L 293.29809 84.145262 
L 269.734657 115.983504 
L 238.821758 158.143349 
L 230.239565 168.992753 
L 221.403595 172.63045 
L 212.35012 180.836303 
L 203.121905 192.071146 
L 193.768272 202.424719 
L 184.338136 211.899329 
L 174.879532 220.515533 
L 165.43949 228.307259 
L 156.063964 235.317954 
L 146.797739 241.59735 
L 137.684416 247.198565 
L 128.766294 252.176149 
L 120.084387 256.584235 
L 111.678238 260.475269 
L 103.585965 263.899047 
L 95.844182 266.902146 
L 88.487905 269.527539 
L 81.550468 271.814401 
L 75.063481 273.798084 
L 63.558058 276.978532 
L 54.186671 279.278152 
L 44.521053 281.403501 
L 40.506876 282.139104 
L 58.849259 258.850421 
L 82.703316 228.239089 
L 114.101226 187.595445 
L 122.830218 177.219858 
L 131.821788 173.830826 
L 141.03935 169.295395 
L 150.443445 158.305595 
L 159.984696 147.918794 
L 169.612529 138.403552 
L 179.277266 129.742012 
L 188.930215 121.902497 
L 198.523763 114.842977 
L 208.011505 108.514977 
L 217.348256 102.866194 
L 226.490152 97.842718 
L 235.394719 93.390827 
L 244.02092 89.458357 
L 252.329265 85.995625 
L 260.281856 82.956093 
L 267.84244 80.29677 
L 274.976503 77.978435 
L 281.651352 75.965683 
L 293.502245 72.734022 
L 303.173035 70.391841 
L 313.19079 68.217067 
L 317.479416 67.414049 
L 299.083175 89.715812 
L 274.925044 119.293433 
L 243.066326 158.615846 
L 234.202373 168.374764 
L 225.069045 171.51285 
L 215.703535 174.052691 
L 206.143114 182.818106 
L 196.43505 193.279456 
L 186.631298 202.872639 
L 176.783171 211.61262 
L 166.940959 219.529434 
L 157.153833 226.663624 
L 147.469754 233.062804 
L 137.935392 238.778762 
L 128.596063 243.865089 
L 119.495609 248.375339 
L 110.676451 252.361729 
L 102.179375 255.874059 
L 94.043507 258.959038 
L 86.306323 261.660033 
L 79.00327 264.01629 
L 72.167955 266.063403 
L 60.025153 269.353857 
L 50.106357 271.742688 
L 39.807849 273.967355 
L 35.325156 274.816245 
L 59.118699 247.126418 
L 85.763088 215.803959 
L 110.621044 186.403016 
L 119.6084 177.404251 
L 128.870218 174.5621 
L 138.368759 172.713335 
L 148.067312 167.548096 
L 157.922129 157.1504 
L 167.880869 147.438621 
L 177.89068 138.583585 
L 187.899754 130.556985 
L 197.8574 123.319292 
L 207.714193 116.823473 
L 217.422059 111.017977 
L 226.934306 105.849245 
L 236.205753 101.263502 
L 245.192783 97.208231 
L 253.85343 93.633257 
L 262.147525 90.491545 
L 270.03666 87.739541 
L 277.484306 85.337434 
L 284.455922 83.24927 
L 296.843418 79.889872 
L 306.965939 77.447835 
L 317.485576 75.169438 
L 322.097638 74.285811 
L 298.039726 101.23051 
L 271.057135 131.737853 
L 245.886281 160.354373 
L 236.78675 168.455271 
L 227.409076 170.993717 
L 217.791466 172.531358 
L 207.971026 175.206878 
L 197.988661 183.815206 
L 187.894817 193.687656 
L 177.743714 202.697821 
L 167.588683 210.870402 
L 157.481862 218.244076 
L 147.474083 224.865492 
L 137.614782 230.786184 
L 127.951952 236.059962 
L 118.532004 240.741039 
L 109.39967 244.882419 
L 100.597998 248.534868 
L 92.168207 251.746084 
L 84.149656 254.560298 
L 76.579751 257.017931 
L 69.493761 259.155366 
L 56.903685 262.59609 
L 46.616871 265.099305 
L 35.929005 267.436633 
L 31.243716 268.34631 
L 55.616638 241.980104 
L 91.008724 203.316011 
L 108.385771 184.265112 
L 117.586378 177.189491 
L 127.067597 174.937651 
L 136.790804 173.582186 
L 146.718191 171.856846 
L 156.809938 166.695453 
L 167.019213 156.865398 
L 177.291508 147.661782 
L 187.572035 139.308449 
L 197.807238 131.767495 
L 207.944915 124.992472 
L 217.934312 118.931685 
L 227.726223 113.530792 
L 237.27311 108.734961 
L 246.529067 104.490396 
L 255.450054 100.74553 
L 263.993903 97.451822 
L 272.120329 94.56418 
L 279.791265 92.041657 
L 286.970743 89.847141 
L 299.722804 86.312831 
L 310.135147 83.740507 
L 320.938003 81.339152 
L 325.638934 80.412501 
L 300.892176 106.357339 
L 265.087686 144.243316 
L 247.528766 162.796825 
L 238.23583 168.746252 
L 228.660863 170.733231 
L 208.8205 173.287585 
L 198.633591 175.992542 
L 188.326015 184.04368 
L 177.950267 193.464908 
L 167.562358 202.029145 
L 157.217233 209.764534 
L 146.968411 216.717442 
L 136.867886 222.939952 
L 126.966038 228.487067 
L 117.311542 233.414513 
L 107.951258 237.777053 
L 98.930222 241.627236 
L 90.291435 245.014584 
L 82.075822 247.985033 
L 74.32226 250.580587 
L 67.067363 252.839211 
L 54.188092 256.477621 
L 43.682435 259.125842 
L 32.806942 261.59567 
L 28.134818 262.533034 
L 53.293378 236.890399 
L 89.495833 199.668809 
L 98.171535 190.715502 
L 107.221646 181.71626 
L 116.597844 176.869026 
L 126.256613 175.110076 
L 146.264132 172.864011 
L 156.533128 171.159537 
L 166.922864 166.322293 
L 177.384414 157.046187 
L 187.861776 148.242726 
L 198.298682 140.286954 
L 208.640333 133.132782 
L 218.833525 126.727637 
L 228.826762 121.015731 
L 238.570331 115.9403 
L 248.016371 111.44545 
L 257.118976 107.477453 
L 265.834347 103.985616 
L 274.120851 100.922883 
L 281.939059 98.246192 
L 289.251854 95.916603 
L 302.224823 92.16348 
L 312.79248 89.432316 
L 323.699104 86.889325 
L 328.299872 85.947076 
L 302.69406 111.392668 
L 266.109029 148.048943 
L 257.356098 156.84643 
L 248.229938 165.189287 
L 238.778572 169.064517 
L 229.044888 170.629128 
L 198.55072 173.940185 
L 188.092276 176.589767 
L 177.56118 183.988348 
L 167.01123 193.021498 
L 156.499675 201.216646 
L 146.082518 208.589375 
L 135.814123 215.19263 
L 125.74708 221.083097 
L 115.932074 226.31864 
L 106.417884 230.956406 
L 97.251183 235.051454 
L 88.476524 238.655796 
L 80.136317 241.817811 
L 72.270534 244.581544 
L 64.91683 246.986921 
L 51.883541 250.861665 
L 41.286099 253.679378 
L 30.394269 256.295704 
L 25.928854 257.292739 
L 25.918182 257.228772 
L 52.033456 231.85898 
L 97.83096 187.013437 
L 107.029139 179.619662 
L 116.550958 176.545551 
L 126.354093 175.150412 
L 157.044977 172.217111 
L 167.563213 170.499995 
L 178.152122 165.933082 
L 188.761202 157.186889 
L 199.333508 148.74428 
L 209.811884 141.14479 
L 220.140883 134.33615 
L 230.266931 128.26072 
L 240.138421 122.85944 
L 249.705732 118.073857 
L 258.921474 113.84759 
L 267.740458 110.127303 
L 276.119742 106.863417 
L 284.018785 104.010537 
L 291.399433 101.527429 
L 304.466729 97.528384 
L 315.070692 94.622723 
L 325.920134 91.932901 
L 330.281818 90.926069 
L 330.2455 91.016326 
L 303.606982 116.37386 
L 257.375443 160.635542 
L 248.112144 166.887456 
L 238.527147 169.374089 
L 228.662447 170.631619 
L 208.258059 172.385201 
L 197.802136 173.30673 
L 187.234499 174.590686 
L 176.599845 177.257984 
L 165.946136 184.199826 
L 155.328128 192.844617 
L 144.803709 200.682842 
L 134.429362 207.707795 
L 124.259625 213.978006 
L 114.346994 219.553749 
L 104.741823 224.494859 
L 95.492235 228.859073 
L 86.644141 232.701171 
L 78.240949 236.07207 
L 70.32362 239.018469 
L 62.930658 241.582755 
L 56.097728 243.802419 
L 44.241309 247.337217 
L 44.241309 247.337217 
" clip-path="url(#pe97dbd7394)" style="fill: none; stroke: #0000ff; stroke-linecap: square"/>
   </g>
   <g id="line2d_30">
    <defs>
     <path id="ma7ba7e912d" d="M 0 -3 
L -0.673542 -0.927051 
L -2.85317 -0.927051 
L -1.089814 0.354102 
L -1.763356 2.427051 
L -0 1.145898 
L 1.763356 2.427051 
L 1.089814 0.354102 
L 2.85317 -0.927051 
L 0.673542 -0.927051 
z
" style="stroke: #0000ff; stroke-linejoin: bevel"/>
    </defs>
    <g clip-path="url(#pe97dbd7394)">
     <use xlink:href="#ma7ba7e912d" x="177.599988" y="172.888" style="fill: #0000ff; stroke: #0000ff; stroke-linejoin: bevel"/>
    </g>
   </g>
   <g id="patch_3">
    <path d="M 10.7 339.84 
L 10.7 7.2 
" style="fill: none; stroke: #000000; stroke-width: 0.8; stroke-linejoin: miter; stroke-linecap: square"/>
   </g>
   <g id="patch_4">
    <path d="M 345.5 339.84 
L 345.5 7.2 
" style="fill: none; stroke: #000000; stroke-width: 0.8; stroke-linejoin: miter; stroke-linecap: square"/>
   </g>
   <g id="patch_5">
    <path d="M 10.7 339.84 
L 345.5 339.84 
" style="fill: none; stroke: #000000; stroke-width: 0.8; stroke-linejoin: miter; stroke-linecap: square"/>
   </g>
   <g id="patch_6">
    <path d="M 10.7 7.2 
L 345.5 7.2 
" style="fill: none; stroke: #000000; stroke-width: 0.8; stroke-linejoin: miter; stroke-linecap: square"/>
   </g>
  </g>
 </g>
 <defs>
  <clipPath id="pe97dbd7394">
   <rect x="10.7" y="7.2" width="334.8" height="332.64"/>
  </clipPath>
 </defs>
</svg>
