<?xml version="1.0" encoding="utf-8" standalone="no"?>
<!DOCTYPE svg PUBLIC "-//W3C//DTD SVG 1.1//EN"
  "http://www.w3.org/Graphics/SVG/1.1/DTD/svg11.dtd">
<svg xmlns:xlink="http://www.w3.org/1999/xlink" width="1072.380312pt" height="351.99625pt" viewBox="0 0 1072.380312 351.99625" xmlns="http://www.w3.org/2000/svg" version="1.1">
 <metadata>
  <rdf:RDF xmlns:dc="http://purl.org/dc/elements/1.1/" xmlns:cc="http://creativecommons.org/ns#" xmlns:rdf="http://www.w3.org/1999/02/22-rdf-syntax-ns#">
   <cc:Work>
    <dc:type rdf:resource="http://purl.org/dc/dcmitype/StillImage"/>
    <dc:date>2025-02-15T20:37:22.227684</dc:date>
    <dc:format>image/svg+xml</dc:format>
    <dc:creator>
     <cc:Agent>
      <dc:title>Matplotlib v3.9.2, https://matplotlib.org/</dc:title>
     </cc:Agent>
    </dc:creator>
   </cc:Work>
  </rdf:RDF>
 </metadata>
 <defs>
  <style type="text/css">*{stroke-linejoin: round; stroke-linecap: butt}</style>
 </defs>
 <g id="figure_1">
  <g id="patch_1">
   <path d="M 0 351.99625 
L 1072.380312 351.99625 
L 1072.380312 0 
L 0 0 
z
" style="fill: #ffffff"/>
  </g>
  <g id="axes_1">
   <g id="patch_2">
    <path d="M 42.620313 314.44 
L 341.880313 314.44 
L 341.880313 7.2 
L 42.620313 7.2 
z
" style="fill: #ffffff"/>
   </g>
   <g id="matplotlib.axis_1">
    <g id="xtick_1">
     <g id="line2d_1">
      <path d="M 56.22304 314.44 
L 56.22304 7.2 
" clip-path="url(#p663645ee75)" style="fill: none; stroke: #b0b0b0; stroke-opacity: 0.5; stroke-width: 0.8; stroke-linecap: square"/>
     </g>
     <g id="line2d_2">
      <defs>
       <path id="m2b267e228b" d="M 0 0 
L 0 3.5 
" style="stroke: #000000; stroke-width: 0.8"/>
      </defs>
      <g>
       <use xlink:href="#m2b267e228b" x="56.22304" y="314.44" style="stroke: #000000; stroke-width: 0.8"/>
      </g>
     </g>
     <g id="text_1">
      <!-- 0 -->
      <g transform="translate(53.04179 329.038437) scale(0.1 -0.1)">
       <defs>
        <path id="DejaVuSans-30" d="M 2034 4250 
Q 1547 4250 1301 3770 
Q 1056 3291 1056 2328 
Q 1056 1369 1301 889 
Q 1547 409 2034 409 
Q 2525 409 2770 889 
Q 3016 1369 3016 2328 
Q 3016 3291 2770 3770 
Q 2525 4250 2034 4250 
z
M 2034 4750 
Q 2819 4750 3233 4129 
Q 3647 3509 3647 2328 
Q 3647 1150 3233 529 
Q 2819 -91 2034 -91 
Q 1250 -91 836 529 
Q 422 1150 422 2328 
Q 422 3509 836 4129 
Q 1250 4750 2034 4750 
z
" transform="scale(0.015625)"/>
       </defs>
       <use xlink:href="#DejaVuSans-30"/>
      </g>
     </g>
    </g>
    <g id="xtick_2">
     <g id="line2d_3">
      <path d="M 90.229858 314.44 
L 90.229858 7.2 
" clip-path="url(#p663645ee75)" style="fill: none; stroke: #b0b0b0; stroke-opacity: 0.5; stroke-width: 0.8; stroke-linecap: square"/>
     </g>
     <g id="line2d_4">
      <g>
       <use xlink:href="#m2b267e228b" x="90.229858" y="314.44" style="stroke: #000000; stroke-width: 0.8"/>
      </g>
     </g>
     <g id="text_2">
      <!-- 5 -->
      <g transform="translate(87.048608 329.038437) scale(0.1 -0.1)">
       <defs>
        <path id="DejaVuSans-35" d="M 691 4666 
L 3169 4666 
L 3169 4134 
L 1269 4134 
L 1269 2991 
Q 1406 3038 1543 3061 
Q 1681 3084 1819 3084 
Q 2600 3084 3056 2656 
Q 3513 2228 3513 1497 
Q 3513 744 3044 326 
Q 2575 -91 1722 -91 
Q 1428 -91 1123 -41 
Q 819 9 494 109 
L 494 744 
Q 775 591 1075 516 
Q 1375 441 1709 441 
Q 2250 441 2565 725 
Q 2881 1009 2881 1497 
Q 2881 1984 2565 2268 
Q 2250 2553 1709 2553 
Q 1456 2553 1204 2497 
Q 953 2441 691 2322 
L 691 4666 
z
" transform="scale(0.015625)"/>
       </defs>
       <use xlink:href="#DejaVuSans-35"/>
      </g>
     </g>
    </g>
    <g id="xtick_3">
     <g id="line2d_5">
      <path d="M 124.236676 314.44 
L 124.236676 7.2 
" clip-path="url(#p663645ee75)" style="fill: none; stroke: #b0b0b0; stroke-opacity: 0.5; stroke-width: 0.8; stroke-linecap: square"/>
     </g>
     <g id="line2d_6">
      <g>
       <use xlink:href="#m2b267e228b" x="124.236676" y="314.44" style="stroke: #000000; stroke-width: 0.8"/>
      </g>
     </g>
     <g id="text_3">
      <!-- 10 -->
      <g transform="translate(117.874176 329.038437) scale(0.1 -0.1)">
       <defs>
        <path id="DejaVuSans-31" d="M 794 531 
L 1825 531 
L 1825 4091 
L 703 3866 
L 703 4441 
L 1819 4666 
L 2450 4666 
L 2450 531 
L 3481 531 
L 3481 0 
L 794 0 
L 794 531 
z
" transform="scale(0.015625)"/>
       </defs>
       <use xlink:href="#DejaVuSans-31"/>
       <use xlink:href="#DejaVuSans-30" x="63.623047"/>
      </g>
     </g>
    </g>
    <g id="xtick_4">
     <g id="line2d_7">
      <path d="M 158.243494 314.44 
L 158.243494 7.2 
" clip-path="url(#p663645ee75)" style="fill: none; stroke: #b0b0b0; stroke-opacity: 0.5; stroke-width: 0.8; stroke-linecap: square"/>
     </g>
     <g id="line2d_8">
      <g>
       <use xlink:href="#m2b267e228b" x="158.243494" y="314.44" style="stroke: #000000; stroke-width: 0.8"/>
      </g>
     </g>
     <g id="text_4">
      <!-- 15 -->
      <g transform="translate(151.880994 329.038437) scale(0.1 -0.1)">
       <use xlink:href="#DejaVuSans-31"/>
       <use xlink:href="#DejaVuSans-35" x="63.623047"/>
      </g>
     </g>
    </g>
    <g id="xtick_5">
     <g id="line2d_9">
      <path d="M 192.250313 314.44 
L 192.250313 7.2 
" clip-path="url(#p663645ee75)" style="fill: none; stroke: #b0b0b0; stroke-opacity: 0.5; stroke-width: 0.8; stroke-linecap: square"/>
     </g>
     <g id="line2d_10">
      <g>
       <use xlink:href="#m2b267e228b" x="192.250313" y="314.44" style="stroke: #000000; stroke-width: 0.8"/>
      </g>
     </g>
     <g id="text_5">
      <!-- 20 -->
      <g transform="translate(185.887812 329.038437) scale(0.1 -0.1)">
       <defs>
        <path id="DejaVuSans-32" d="M 1228 531 
L 3431 531 
L 3431 0 
L 469 0 
L 469 531 
Q 828 903 1448 1529 
Q 2069 2156 2228 2338 
Q 2531 2678 2651 2914 
Q 2772 3150 2772 3378 
Q 2772 3750 2511 3984 
Q 2250 4219 1831 4219 
Q 1534 4219 1204 4116 
Q 875 4013 500 3803 
L 500 4441 
Q 881 4594 1212 4672 
Q 1544 4750 1819 4750 
Q 2544 4750 2975 4387 
Q 3406 4025 3406 3419 
Q 3406 3131 3298 2873 
Q 3191 2616 2906 2266 
Q 2828 2175 2409 1742 
Q 1991 1309 1228 531 
z
" transform="scale(0.015625)"/>
       </defs>
       <use xlink:href="#DejaVuSans-32"/>
       <use xlink:href="#DejaVuSans-30" x="63.623047"/>
      </g>
     </g>
    </g>
    <g id="xtick_6">
     <g id="line2d_11">
      <path d="M 226.257131 314.44 
L 226.257131 7.2 
" clip-path="url(#p663645ee75)" style="fill: none; stroke: #b0b0b0; stroke-opacity: 0.5; stroke-width: 0.8; stroke-linecap: square"/>
     </g>
     <g id="line2d_12">
      <g>
       <use xlink:href="#m2b267e228b" x="226.257131" y="314.44" style="stroke: #000000; stroke-width: 0.8"/>
      </g>
     </g>
     <g id="text_6">
      <!-- 25 -->
      <g transform="translate(219.894631 329.038437) scale(0.1 -0.1)">
       <use xlink:href="#DejaVuSans-32"/>
       <use xlink:href="#DejaVuSans-35" x="63.623047"/>
      </g>
     </g>
    </g>
    <g id="xtick_7">
     <g id="line2d_13">
      <path d="M 260.263949 314.44 
L 260.263949 7.2 
" clip-path="url(#p663645ee75)" style="fill: none; stroke: #b0b0b0; stroke-opacity: 0.5; stroke-width: 0.8; stroke-linecap: square"/>
     </g>
     <g id="line2d_14">
      <g>
       <use xlink:href="#m2b267e228b" x="260.263949" y="314.44" style="stroke: #000000; stroke-width: 0.8"/>
      </g>
     </g>
     <g id="text_7">
      <!-- 30 -->
      <g transform="translate(253.901449 329.038437) scale(0.1 -0.1)">
       <defs>
        <path id="DejaVuSans-33" d="M 2597 2516 
Q 3050 2419 3304 2112 
Q 3559 1806 3559 1356 
Q 3559 666 3084 287 
Q 2609 -91 1734 -91 
Q 1441 -91 1130 -33 
Q 819 25 488 141 
L 488 750 
Q 750 597 1062 519 
Q 1375 441 1716 441 
Q 2309 441 2620 675 
Q 2931 909 2931 1356 
Q 2931 1769 2642 2001 
Q 2353 2234 1838 2234 
L 1294 2234 
L 1294 2753 
L 1863 2753 
Q 2328 2753 2575 2939 
Q 2822 3125 2822 3475 
Q 2822 3834 2567 4026 
Q 2313 4219 1838 4219 
Q 1578 4219 1281 4162 
Q 984 4106 628 3988 
L 628 4550 
Q 988 4650 1302 4700 
Q 1616 4750 1894 4750 
Q 2613 4750 3031 4423 
Q 3450 4097 3450 3541 
Q 3450 3153 3228 2886 
Q 3006 2619 2597 2516 
z
" transform="scale(0.015625)"/>
       </defs>
       <use xlink:href="#DejaVuSans-33"/>
       <use xlink:href="#DejaVuSans-30" x="63.623047"/>
      </g>
     </g>
    </g>
    <g id="xtick_8">
     <g id="line2d_15">
      <path d="M 294.270767 314.44 
L 294.270767 7.2 
" clip-path="url(#p663645ee75)" style="fill: none; stroke: #b0b0b0; stroke-opacity: 0.5; stroke-width: 0.8; stroke-linecap: square"/>
     </g>
     <g id="line2d_16">
      <g>
       <use xlink:href="#m2b267e228b" x="294.270767" y="314.44" style="stroke: #000000; stroke-width: 0.8"/>
      </g>
     </g>
     <g id="text_8">
      <!-- 35 -->
      <g transform="translate(287.908267 329.038437) scale(0.1 -0.1)">
       <use xlink:href="#DejaVuSans-33"/>
       <use xlink:href="#DejaVuSans-35" x="63.623047"/>
      </g>
     </g>
    </g>
    <g id="xtick_9">
     <g id="line2d_17">
      <path d="M 328.277585 314.44 
L 328.277585 7.2 
" clip-path="url(#p663645ee75)" style="fill: none; stroke: #b0b0b0; stroke-opacity: 0.5; stroke-width: 0.8; stroke-linecap: square"/>
     </g>
     <g id="line2d_18">
      <g>
       <use xlink:href="#m2b267e228b" x="328.277585" y="314.44" style="stroke: #000000; stroke-width: 0.8"/>
      </g>
     </g>
     <g id="text_9">
      <!-- 40 -->
      <g transform="translate(321.915085 329.038437) scale(0.1 -0.1)">
       <defs>
        <path id="DejaVuSans-34" d="M 2419 4116 
L 825 1625 
L 2419 1625 
L 2419 4116 
z
M 2253 4666 
L 3047 4666 
L 3047 1625 
L 3713 1625 
L 3713 1100 
L 3047 1100 
L 3047 0 
L 2419 0 
L 2419 1100 
L 313 1100 
L 313 1709 
L 2253 4666 
z
" transform="scale(0.015625)"/>
       </defs>
       <use xlink:href="#DejaVuSans-34"/>
       <use xlink:href="#DejaVuSans-30" x="63.623047"/>
      </g>
     </g>
    </g>
    <g id="text_10">
     <!-- Time -->
     <g transform="translate(180.016719 342.716562) scale(0.1 -0.1)">
      <defs>
       <path id="DejaVuSans-54" d="M -19 4666 
L 3928 4666 
L 3928 4134 
L 2272 4134 
L 2272 0 
L 1638 0 
L 1638 4134 
L -19 4134 
L -19 4666 
z
" transform="scale(0.015625)"/>
       <path id="DejaVuSans-69" d="M 603 3500 
L 1178 3500 
L 1178 0 
L 603 0 
L 603 3500 
z
M 603 4863 
L 1178 4863 
L 1178 4134 
L 603 4134 
L 603 4863 
z
" transform="scale(0.015625)"/>
       <path id="DejaVuSans-6d" d="M 3328 2828 
Q 3544 3216 3844 3400 
Q 4144 3584 4550 3584 
Q 5097 3584 5394 3201 
Q 5691 2819 5691 2113 
L 5691 0 
L 5113 0 
L 5113 2094 
Q 5113 2597 4934 2840 
Q 4756 3084 4391 3084 
Q 3944 3084 3684 2787 
Q 3425 2491 3425 1978 
L 3425 0 
L 2847 0 
L 2847 2094 
Q 2847 2600 2669 2842 
Q 2491 3084 2119 3084 
Q 1678 3084 1418 2786 
Q 1159 2488 1159 1978 
L 1159 0 
L 581 0 
L 581 3500 
L 1159 3500 
L 1159 2956 
Q 1356 3278 1631 3431 
Q 1906 3584 2284 3584 
Q 2666 3584 2933 3390 
Q 3200 3197 3328 2828 
z
" transform="scale(0.015625)"/>
       <path id="DejaVuSans-65" d="M 3597 1894 
L 3597 1613 
L 953 1613 
Q 991 1019 1311 708 
Q 1631 397 2203 397 
Q 2534 397 2845 478 
Q 3156 559 3463 722 
L 3463 178 
Q 3153 47 2828 -22 
Q 2503 -91 2169 -91 
Q 1331 -91 842 396 
Q 353 884 353 1716 
Q 353 2575 817 3079 
Q 1281 3584 2069 3584 
Q 2775 3584 3186 3129 
Q 3597 2675 3597 1894 
z
M 3022 2063 
Q 3016 2534 2758 2815 
Q 2500 3097 2075 3097 
Q 1594 3097 1305 2825 
Q 1016 2553 972 2059 
L 3022 2063 
z
" transform="scale(0.015625)"/>
      </defs>
      <use xlink:href="#DejaVuSans-54"/>
      <use xlink:href="#DejaVuSans-69" x="57.958984"/>
      <use xlink:href="#DejaVuSans-6d" x="85.742188"/>
      <use xlink:href="#DejaVuSans-65" x="183.154297"/>
     </g>
    </g>
   </g>
   <g id="matplotlib.axis_2">
    <g id="ytick_1">
     <g id="line2d_19">
      <path d="M 42.620313 293.94604 
L 341.880313 293.94604 
" clip-path="url(#p663645ee75)" style="fill: none; stroke: #b0b0b0; stroke-opacity: 0.5; stroke-width: 0.8; stroke-linecap: square"/>
     </g>
     <g id="line2d_20">
      <defs>
       <path id="m0e46d3b368" d="M 0 0 
L -3.5 0 
" style="stroke: #000000; stroke-width: 0.8"/>
      </defs>
      <g>
       <use xlink:href="#m0e46d3b368" x="42.620313" y="293.94604" style="stroke: #000000; stroke-width: 0.8"/>
      </g>
     </g>
     <g id="text_11">
      <!-- −2 -->
      <g transform="translate(20.878125 297.745259) scale(0.1 -0.1)">
       <defs>
        <path id="DejaVuSans-2212" d="M 678 2272 
L 4684 2272 
L 4684 1741 
L 678 1741 
L 678 2272 
z
" transform="scale(0.015625)"/>
       </defs>
       <use xlink:href="#DejaVuSans-2212"/>
       <use xlink:href="#DejaVuSans-32" x="83.789062"/>
      </g>
     </g>
    </g>
    <g id="ytick_2">
     <g id="line2d_21">
      <path d="M 42.620313 226.298466 
L 341.880313 226.298466 
" clip-path="url(#p663645ee75)" style="fill: none; stroke: #b0b0b0; stroke-opacity: 0.5; stroke-width: 0.8; stroke-linecap: square"/>
     </g>
     <g id="line2d_22">
      <g>
       <use xlink:href="#m0e46d3b368" x="42.620313" y="226.298466" style="stroke: #000000; stroke-width: 0.8"/>
      </g>
     </g>
     <g id="text_12">
      <!-- −1 -->
      <g transform="translate(20.878125 230.097685) scale(0.1 -0.1)">
       <use xlink:href="#DejaVuSans-2212"/>
       <use xlink:href="#DejaVuSans-31" x="83.789062"/>
      </g>
     </g>
    </g>
    <g id="ytick_3">
     <g id="line2d_23">
      <path d="M 42.620313 158.650893 
L 341.880313 158.650893 
" clip-path="url(#p663645ee75)" style="fill: none; stroke: #b0b0b0; stroke-opacity: 0.5; stroke-width: 0.8; stroke-linecap: square"/>
     </g>
     <g id="line2d_24">
      <g>
       <use xlink:href="#m0e46d3b368" x="42.620313" y="158.650893" style="stroke: #000000; stroke-width: 0.8"/>
      </g>
     </g>
     <g id="text_13">
      <!-- 0 -->
      <g transform="translate(29.257813 162.450111) scale(0.1 -0.1)">
       <use xlink:href="#DejaVuSans-30"/>
      </g>
     </g>
    </g>
    <g id="ytick_4">
     <g id="line2d_25">
      <path d="M 42.620313 91.003319 
L 341.880313 91.003319 
" clip-path="url(#p663645ee75)" style="fill: none; stroke: #b0b0b0; stroke-opacity: 0.5; stroke-width: 0.8; stroke-linecap: square"/>
     </g>
     <g id="line2d_26">
      <g>
       <use xlink:href="#m0e46d3b368" x="42.620313" y="91.003319" style="stroke: #000000; stroke-width: 0.8"/>
      </g>
     </g>
     <g id="text_14">
      <!-- 1 -->
      <g transform="translate(29.257813 94.802537) scale(0.1 -0.1)">
       <use xlink:href="#DejaVuSans-31"/>
      </g>
     </g>
    </g>
    <g id="ytick_5">
     <g id="line2d_27">
      <path d="M 42.620313 23.355745 
L 341.880313 23.355745 
" clip-path="url(#p663645ee75)" style="fill: none; stroke: #b0b0b0; stroke-opacity: 0.5; stroke-width: 0.8; stroke-linecap: square"/>
     </g>
     <g id="line2d_28">
      <g>
       <use xlink:href="#m0e46d3b368" x="42.620313" y="23.355745" style="stroke: #000000; stroke-width: 0.8"/>
      </g>
     </g>
     <g id="text_15">
      <!-- 2 -->
      <g transform="translate(29.257813 27.154963) scale(0.1 -0.1)">
       <use xlink:href="#DejaVuSans-32"/>
      </g>
     </g>
    </g>
    <g id="text_16">
     <!-- Amplitud -->
     <g transform="translate(14.798438 183.366094) rotate(-90) scale(0.1 -0.1)">
      <defs>
       <path id="DejaVuSans-41" d="M 2188 4044 
L 1331 1722 
L 3047 1722 
L 2188 4044 
z
M 1831 4666 
L 2547 4666 
L 4325 0 
L 3669 0 
L 3244 1197 
L 1141 1197 
L 716 0 
L 50 0 
L 1831 4666 
z
" transform="scale(0.015625)"/>
       <path id="DejaVuSans-70" d="M 1159 525 
L 1159 -1331 
L 581 -1331 
L 581 3500 
L 1159 3500 
L 1159 2969 
Q 1341 3281 1617 3432 
Q 1894 3584 2278 3584 
Q 2916 3584 3314 3078 
Q 3713 2572 3713 1747 
Q 3713 922 3314 415 
Q 2916 -91 2278 -91 
Q 1894 -91 1617 61 
Q 1341 213 1159 525 
z
M 3116 1747 
Q 3116 2381 2855 2742 
Q 2594 3103 2138 3103 
Q 1681 3103 1420 2742 
Q 1159 2381 1159 1747 
Q 1159 1113 1420 752 
Q 1681 391 2138 391 
Q 2594 391 2855 752 
Q 3116 1113 3116 1747 
z
" transform="scale(0.015625)"/>
       <path id="DejaVuSans-6c" d="M 603 4863 
L 1178 4863 
L 1178 0 
L 603 0 
L 603 4863 
z
" transform="scale(0.015625)"/>
       <path id="DejaVuSans-74" d="M 1172 4494 
L 1172 3500 
L 2356 3500 
L 2356 3053 
L 1172 3053 
L 1172 1153 
Q 1172 725 1289 603 
Q 1406 481 1766 481 
L 2356 481 
L 2356 0 
L 1766 0 
Q 1100 0 847 248 
Q 594 497 594 1153 
L 594 3053 
L 172 3053 
L 172 3500 
L 594 3500 
L 594 4494 
L 1172 4494 
z
" transform="scale(0.015625)"/>
       <path id="DejaVuSans-75" d="M 544 1381 
L 544 3500 
L 1119 3500 
L 1119 1403 
Q 1119 906 1312 657 
Q 1506 409 1894 409 
Q 2359 409 2629 706 
Q 2900 1003 2900 1516 
L 2900 3500 
L 3475 3500 
L 3475 0 
L 2900 0 
L 2900 538 
Q 2691 219 2414 64 
Q 2138 -91 1772 -91 
Q 1169 -91 856 284 
Q 544 659 544 1381 
z
M 1991 3584 
L 1991 3584 
z
" transform="scale(0.015625)"/>
       <path id="DejaVuSans-64" d="M 2906 2969 
L 2906 4863 
L 3481 4863 
L 3481 0 
L 2906 0 
L 2906 525 
Q 2725 213 2448 61 
Q 2172 -91 1784 -91 
Q 1150 -91 751 415 
Q 353 922 353 1747 
Q 353 2572 751 3078 
Q 1150 3584 1784 3584 
Q 2172 3584 2448 3432 
Q 2725 3281 2906 2969 
z
M 947 1747 
Q 947 1113 1208 752 
Q 1469 391 1925 391 
Q 2381 391 2643 752 
Q 2906 1113 2906 1747 
Q 2906 2381 2643 2742 
Q 2381 3103 1925 3103 
Q 1469 3103 1208 2742 
Q 947 2381 947 1747 
z
" transform="scale(0.015625)"/>
      </defs>
      <use xlink:href="#DejaVuSans-41"/>
      <use xlink:href="#DejaVuSans-6d" x="68.408203"/>
      <use xlink:href="#DejaVuSans-70" x="165.820312"/>
      <use xlink:href="#DejaVuSans-6c" x="229.296875"/>
      <use xlink:href="#DejaVuSans-69" x="257.080078"/>
      <use xlink:href="#DejaVuSans-74" x="284.863281"/>
      <use xlink:href="#DejaVuSans-75" x="324.072266"/>
      <use xlink:href="#DejaVuSans-64" x="387.451172"/>
     </g>
    </g>
   </g>
   <g id="line2d_29">
    <path d="M 56.22304 158.650893 
L 61.39725 158.546347 
L 63.575865 158.253293 
L 65.209827 157.821279 
L 66.843788 157.157863 
L 68.477749 156.244135 
L 70.384037 154.88416 
L 73.107306 152.59074 
L 75.558248 150.584529 
L 76.919882 149.704458 
L 78.00919 149.214337 
L 79.098497 148.975689 
L 79.915478 148.994566 
L 80.732458 149.206703 
L 81.549439 149.630765 
L 82.36642 150.282215 
L 83.1834 151.172689 
L 84.272708 152.743599 
L 85.362015 154.755077 
L 86.451323 157.19325 
L 87.812957 160.790154 
L 89.446918 165.772454 
L 91.89786 174.075265 
L 94.893456 184.124148 
L 96.527417 188.78665 
L 97.616724 191.316102 
L 98.706032 193.24674 
L 99.523012 194.234817 
L 100.067666 194.649904 
L 100.61232 194.855764 
L 101.156974 194.840982 
L 101.701627 194.595176 
L 102.246281 194.109478 
L 102.790935 193.376769 
L 103.607916 191.803613 
L 104.424896 189.654041 
L 105.241877 186.929419 
L 106.331184 182.42534 
L 107.420492 176.983868 
L 108.782126 169.015975 
L 110.416087 158.107205 
L 113.411683 136.157277 
L 116.134952 116.736805 
L 117.768913 106.567114 
L 119.130547 99.474374 
L 120.219855 94.941657 
L 121.036835 92.312638 
L 121.853816 90.414223 
L 122.39847 89.583672 
L 122.943123 89.120199 
L 123.487777 89.038895 
L 124.032431 89.353433 
L 124.577085 90.074956 
L 125.121738 91.211399 
L 125.938719 93.703115 
L 126.7557 97.138618 
L 127.57268 101.500497 
L 128.661988 108.692799 
L 129.751295 117.330709 
L 131.11293 129.864387 
L 133.019218 149.754601 
L 138.738082 211.622732 
L 140.372043 226.256043 
L 141.733678 236.379599 
L 142.822985 242.837931 
L 143.639966 246.600853 
L 144.456946 249.355449 
L 145.0016 250.598011 
L 145.546254 251.343772 
L 146.090908 251.575678 
L 146.363235 251.494034 
L 146.907888 250.927253 
L 147.452542 249.81461 
L 147.997196 248.150765 
L 148.814176 244.621621 
L 149.631157 239.870906 
L 150.448138 233.942188 
L 151.537445 224.326064 
L 152.899079 209.888041 
L 154.533041 189.823479 
L 157.528636 149.306211 
L 160.251905 113.449045 
L 161.885866 94.421685 
L 163.247501 80.79237 
L 164.336808 71.688587 
L 165.426116 64.427634 
L 166.243096 60.315265 
L 167.060077 57.433654 
L 167.604731 56.231623 
L 168.149384 55.62707 
L 168.421711 55.554235 
L 168.694038 55.636982 
L 168.966365 55.877001 
L 169.511019 56.833892 
L 170.055672 58.431412 
L 170.600326 60.670269 
L 171.417307 65.21816 
L 172.234287 71.153796 
L 173.323595 81.09845 
L 174.412902 93.130379 
L 175.774537 110.590722 
L 177.680825 138.071803 
L 182.582709 210.180777 
L 184.21667 230.531353 
L 185.578304 244.818579 
L 186.667612 254.127349 
L 187.484592 259.713079 
L 188.301573 263.999454 
L 188.846227 266.093609 
L 189.39088 267.550618 
L 189.935534 268.350111 
L 190.207861 268.497508 
L 190.480188 268.473874 
L 190.752515 268.277359 
L 191.297168 267.360148 
L 191.841822 265.738846 
L 192.386476 263.412982 
L 193.203457 258.618422 
L 194.020437 252.302771 
L 195.109745 241.661939 
L 196.199052 228.748188 
L 197.560687 209.989722 
L 199.739301 176.108766 
L 204.096531 107.353653 
L 205.730493 85.219572 
L 207.092127 69.577351 
L 208.181435 59.307254 
L 209.270742 51.317115 
L 210.087723 46.963263 
L 210.632376 44.890798 
L 211.17703 43.509983 
L 211.721684 42.841865 
L 211.994011 42.780977 
L 212.266338 42.905015 
L 212.538664 43.215709 
L 213.083318 44.401812 
L 213.627972 46.3443 
L 214.172626 49.040971 
L 214.989606 54.47738 
L 215.806587 61.525279 
L 216.895894 73.254318 
L 218.257529 91.184581 
L 219.89149 116.339502 
L 222.887086 167.221993 
L 225.610354 212.011195 
L 227.244316 235.555225 
L 228.60595 252.227945 
L 229.695257 263.19845 
L 230.784565 271.758265 
L 231.601546 276.443542 
L 232.146199 278.687924 
L 232.690853 280.199614 
L 233.235507 280.956237 
L 233.507834 281.045131 
L 233.780161 280.938097 
L 234.052487 280.63328 
L 234.597141 279.425213 
L 235.141795 277.415574 
L 235.686449 274.606778 
L 236.503429 268.919664 
L 237.32041 261.526536 
L 238.409717 249.20339 
L 239.771352 230.350956 
L 241.405313 203.90903 
L 244.400909 150.45633 
L 247.124177 103.394352 
L 248.758139 78.644447 
L 250.119773 61.113998 
L 251.20908 49.578666 
L 252.298388 40.579251 
L 253.115368 35.654823 
L 253.660022 33.296903 
L 254.204676 31.709834 
L 254.74933 30.917014 
L 255.021657 30.824982 
L 255.293983 30.938964 
L 255.56631 31.260876 
L 256.110964 32.533652 
L 256.655618 34.64851 
L 257.200272 37.602379 
L 258.017252 43.579185 
L 258.834233 51.343088 
L 259.92354 64.27226 
L 261.285175 84.025174 
L 262.919136 111.676499 
L 265.914731 167.454775 
L 268.638 216.506159 
L 270.271961 242.282104 
L 271.633596 260.521693 
L 272.722903 272.506976 
L 273.812211 281.837106 
L 274.629191 286.924295 
L 275.173845 289.34785 
L 275.718499 290.965126 
L 276.263153 291.75196 
L 276.535479 291.827241 
L 276.807806 291.687267 
L 277.080133 291.33012 
L 277.624787 289.959281 
L 278.169441 287.710094 
L 278.714094 284.586649 
L 279.531075 278.292713 
L 280.348056 270.142498 
L 281.437363 256.606012 
L 282.798998 235.982743 
L 284.432959 207.201718 
L 287.700881 144.036937 
L 290.151823 98.540392 
L 291.785784 71.899309 
L 293.147419 53.083196 
L 294.236726 40.750311 
L 295.326034 31.186318 
L 296.143014 26.0042 
L 296.687668 23.55748 
L 297.232322 21.949991 
L 297.776976 21.206428 
L 298.049302 21.165455 
L 298.321629 21.348206 
L 298.593956 21.756553 
L 299.13861 23.25472 
L 299.683264 25.663653 
L 300.227917 28.977917 
L 301.044898 35.612433 
L 301.861879 44.161685 
L 302.951186 58.305003 
L 304.31282 79.769624 
L 305.946782 109.607421 
L 309.214704 174.829758 
L 311.665646 221.669065 
L 313.299607 249.030826 
L 314.661242 268.303829 
L 315.750549 280.891611 
L 316.56753 288.460563 
L 317.38451 294.283512 
L 318.201491 298.247583 
L 318.746145 299.808582 
L 319.018472 300.254875 
L 319.290798 300.474545 
L 319.563125 300.465 
L 319.835452 300.223949 
L 320.107779 299.749617 
L 320.652433 298.09694 
L 321.197087 295.50454 
L 321.74174 291.979489 
L 322.558721 284.982023 
L 323.375702 276.021034 
L 324.465009 261.269693 
L 325.826643 238.987857 
L 327.460605 208.15583 
L 328.277585 191.696268 
L 328.277585 191.696268 
" clip-path="url(#p663645ee75)" style="fill: none; stroke: #0000ff; stroke-width: 1.5; stroke-linecap: square"/>
   </g>
   <g id="line2d_30">
    <path d="M 56.22304 158.650893 
L 61.39725 158.546427 
L 63.575865 158.254459 
L 65.209827 157.826346 
L 66.843788 157.174219 
L 68.477749 156.286445 
L 70.384037 154.98711 
L 76.647555 150.40694 
L 78.00919 149.842951 
L 79.098497 149.635742 
L 79.915478 149.65653 
L 80.732458 149.868666 
L 81.549439 150.292728 
L 82.36642 150.944179 
L 83.1834 151.834652 
L 84.272708 153.405562 
L 85.362015 155.41704 
L 86.451323 157.855213 
L 88.085284 162.143643 
L 94.076475 178.518562 
L 95.438109 181.437266 
L 96.799744 183.82161 
L 97.889051 185.296408 
L 98.978359 186.35139 
L 99.795339 186.847317 
L 100.61232 187.072943 
L 101.156974 187.0492 
L 101.701627 186.803394 
L 102.246281 186.317696 
L 102.790935 185.584987 
L 103.607916 184.01183 
L 104.424896 181.862258 
L 105.241877 179.137637 
L 106.331184 174.633558 
L 107.420492 169.192085 
L 108.782126 161.224193 
L 111.777722 142.726485 
L 113.411683 134.236908 
L 114.773317 128.314278 
L 116.134952 123.447939 
L 117.224259 120.277727 
L 118.313567 117.704728 
L 119.402874 115.685524 
L 120.492182 114.182387 
L 121.309162 113.377012 
L 122.126143 112.840601 
L 122.943123 112.573077 
L 123.487777 112.558486 
L 124.032431 112.873025 
L 124.577085 113.594547 
L 125.121738 114.730991 
L 125.938719 117.222706 
L 126.7557 120.65821 
L 127.57268 125.020089 
L 128.661988 132.21239 
L 129.751295 140.850301 
L 131.11293 153.383979 
L 133.291545 174.154883 
L 134.653179 184.636013 
L 135.742486 191.504616 
L 136.831794 197.135492 
L 137.921101 201.676499 
L 139.010409 205.285285 
L 140.099716 208.110279 
L 141.189024 210.280682 
L 142.278331 211.902168 
L 143.367639 213.055709 
L 144.18462 213.648596 
L 145.0016 214.025177 
L 145.818581 214.192207 
L 146.363235 214.118922 
L 146.907888 213.552141 
L 147.452542 212.439498 
L 147.997196 210.775653 
L 148.814176 207.246509 
L 149.631157 202.495794 
L 150.448138 196.567076 
L 151.537445 186.950951 
L 152.899079 172.512929 
L 156.167002 135.686316 
L 157.256309 126.834307 
L 158.345617 119.781197 
L 159.434924 114.260924 
L 160.524232 109.999535 
L 161.613539 106.748334 
L 162.702847 104.297844 
L 163.792154 102.480693 
L 164.881462 101.169079 
L 165.970769 100.27037 
L 167.060077 99.722895 
L 168.149384 99.493113 
L 168.694038 99.566784 
L 168.966365 99.806803 
L 169.511019 100.763694 
L 170.055672 102.361214 
L 170.600326 104.600071 
L 171.417307 109.147962 
L 172.234287 115.083598 
L 173.323595 125.028252 
L 174.412902 137.060181 
L 175.774537 154.520524 
L 177.136171 172.309083 
L 178.225479 183.870129 
L 179.314786 193.075241 
L 180.404094 200.227467 
L 181.493401 205.687396 
L 182.582709 209.801458 
L 183.672016 212.868631 
L 184.761324 215.130459 
L 185.850631 216.773102 
L 186.939938 217.93425 
L 188.029246 218.710886 
L 189.118553 219.165824 
L 190.207861 219.331972 
L 190.480188 219.298204 
L 190.752515 219.101689 
L 191.297168 218.184479 
L 191.841822 216.563176 
L 192.386476 214.237313 
L 193.203457 209.442752 
L 194.020437 203.127101 
L 195.109745 192.486269 
L 196.199052 179.572518 
L 197.560687 160.814052 
L 198.922321 142.351516 
L 200.011628 130.660447 
L 201.100936 121.52396 
L 202.190243 114.555576 
L 203.279551 109.33146 
L 204.368858 105.463037 
L 205.458166 102.626385 
L 206.547473 100.567203 
L 207.636781 99.094338 
L 208.726088 98.069556 
L 209.815396 97.397548 
L 210.904703 97.018039 
L 211.994011 96.903214 
L 212.266338 97.027251 
L 212.538664 97.337946 
L 213.083318 98.524049 
L 213.627972 100.466537 
L 214.172626 103.163208 
L 214.989606 108.599617 
L 215.806587 115.647516 
L 216.895894 127.376555 
L 218.257529 145.306818 
L 220.708471 179.80036 
L 221.797778 190.970804 
L 222.887086 199.521355 
L 223.976393 205.919752 
L 224.793374 209.589182 
L 225.610354 212.487661 
L 226.427335 214.765464 
L 227.244316 216.547058 
L 228.333623 218.321324 
L 229.422931 219.57144 
L 230.512238 220.425722 
L 231.601546 220.970443 
L 232.690853 221.258214 
L 233.507834 221.320638 
L 233.780161 221.213604 
L 234.052487 220.908788 
L 234.597141 219.70072 
L 235.141795 217.691081 
L 235.686449 214.882285 
L 236.503429 209.195172 
L 237.32041 201.802044 
L 238.409717 189.478897 
L 239.771352 170.626463 
L 241.949967 138.512881 
L 243.039274 126.664319 
L 244.128582 117.657064 
L 244.945562 112.457851 
L 245.762543 108.345047 
L 246.579524 105.115442 
L 247.396504 102.593311 
L 248.213485 100.632385 
L 249.030465 99.114274 
L 250.119773 97.620011 
L 251.20908 96.582682 
L 252.298388 95.887691 
L 253.387695 95.460053 
L 254.477003 95.256134 
L 255.021657 95.232081 
L 255.293983 95.346064 
L 255.56631 95.667975 
L 256.110964 96.940752 
L 256.655618 99.05561 
L 257.200272 102.009479 
L 258.017252 107.986284 
L 258.834233 115.750187 
L 259.92354 128.679359 
L 261.285175 148.432274 
L 263.191463 177.671192 
L 264.28077 190.172484 
L 265.370078 199.623539 
L 266.187058 205.042893 
L 267.004039 209.302001 
L 267.82102 212.62316 
L 268.638 215.198206 
L 269.454981 217.186203 
L 270.271961 218.715263 
L 271.088942 219.886302 
L 272.17825 221.022864 
L 273.267557 221.794309 
L 274.356865 222.290548 
L 275.446172 222.567305 
L 276.535479 222.650567 
L 276.807806 222.510593 
L 277.080133 222.153445 
L 277.624787 220.782606 
L 278.169441 218.533419 
L 278.714094 215.409974 
L 279.531075 209.116038 
L 280.348056 200.965824 
L 281.437363 187.429338 
L 282.798998 166.806068 
L 284.432959 140.872837 
L 285.522266 127.733637 
L 286.339247 120.040985 
L 287.156228 113.931114 
L 287.973208 109.139573 
L 288.790189 105.416862 
L 289.607169 102.543933 
L 290.42415 100.337391 
L 291.241131 98.648763 
L 292.058111 97.360804 
L 293.147419 96.113084 
L 294.236726 95.261502 
L 295.326034 94.700102 
L 296.415341 94.360991 
L 297.776976 94.193045 
L 298.049302 94.201717 
L 298.321629 94.384469 
L 298.593956 94.792816 
L 299.13861 96.290983 
L 299.683264 98.699916 
L 300.227917 102.01418 
L 301.044898 108.648696 
L 301.861879 117.197948 
L 302.951186 131.341266 
L 304.31282 152.805887 
L 305.674455 175.059256 
L 306.763762 188.828969 
L 307.580743 196.87127 
L 308.397724 203.236536 
L 309.214704 208.206116 
L 310.031685 212.047217 
L 310.848665 214.994843 
L 311.665646 217.245547 
L 312.482627 218.958041 
L 313.299607 220.257209 
L 314.388915 221.509512 
L 315.478222 222.36176 
L 316.56753 222.92567 
L 317.656837 223.273191 
L 319.018472 223.465306 
L 319.563125 223.441732 
L 319.835452 223.200681 
L 320.107779 222.726349 
L 320.652433 221.073671 
L 321.197087 218.481271 
L 321.74174 214.956221 
L 322.558721 207.958754 
L 323.375702 198.997766 
L 324.465009 184.246425 
L 325.826643 161.964588 
L 326.915951 143.722413 
L 328.005258 129.327462 
L 328.277585 126.31481 
L 328.277585 126.31481 
" clip-path="url(#p663645ee75)" style="fill: none; stroke-dasharray: 5.55,2.4; stroke-dashoffset: 0; stroke: #ff0000; stroke-width: 1.5"/>
   </g>
   <g id="patch_3">
    <path d="M 42.620313 314.44 
L 42.620313 7.2 
" style="fill: none; stroke: #000000; stroke-width: 0.8; stroke-linejoin: miter; stroke-linecap: square"/>
   </g>
   <g id="patch_4">
    <path d="M 341.880313 314.44 
L 341.880313 7.2 
" style="fill: none; stroke: #000000; stroke-width: 0.8; stroke-linejoin: miter; stroke-linecap: square"/>
   </g>
   <g id="patch_5">
    <path d="M 42.620313 314.44 
L 341.880313 314.44 
" style="fill: none; stroke: #000000; stroke-width: 0.8; stroke-linejoin: miter; stroke-linecap: square"/>
   </g>
   <g id="patch_6">
    <path d="M 42.620313 7.2 
L 341.880313 7.2 
" style="fill: none; stroke: #000000; stroke-width: 0.8; stroke-linejoin: miter; stroke-linecap: square"/>
   </g>
   <g id="legend_1">
    <g id="patch_7">
     <path d="M 49.620313 44.55625 
L 176.246875 44.55625 
Q 178.246875 44.55625 178.246875 42.55625 
L 178.246875 14.2 
Q 178.246875 12.2 176.246875 12.2 
L 49.620313 12.2 
Q 47.620313 12.2 47.620313 14.2 
L 47.620313 42.55625 
Q 47.620313 44.55625 49.620313 44.55625 
z
" style="fill: #ffffff; opacity: 0.8; stroke: #cccccc; stroke-linejoin: miter"/>
    </g>
    <g id="line2d_31">
     <path d="M 51.620313 20.298437 
L 61.620313 20.298437 
L 71.620313 20.298437 
" style="fill: none; stroke: #0000ff; stroke-width: 1.5; stroke-linecap: square"/>
    </g>
    <g id="text_17">
     <!-- Displacement -->
     <g transform="translate(79.620313 23.798437) scale(0.1 -0.1)">
      <defs>
       <path id="DejaVuSans-44" d="M 1259 4147 
L 1259 519 
L 2022 519 
Q 2988 519 3436 956 
Q 3884 1394 3884 2338 
Q 3884 3275 3436 3711 
Q 2988 4147 2022 4147 
L 1259 4147 
z
M 628 4666 
L 1925 4666 
Q 3281 4666 3915 4102 
Q 4550 3538 4550 2338 
Q 4550 1131 3912 565 
Q 3275 0 1925 0 
L 628 0 
L 628 4666 
z
" transform="scale(0.015625)"/>
       <path id="DejaVuSans-73" d="M 2834 3397 
L 2834 2853 
Q 2591 2978 2328 3040 
Q 2066 3103 1784 3103 
Q 1356 3103 1142 2972 
Q 928 2841 928 2578 
Q 928 2378 1081 2264 
Q 1234 2150 1697 2047 
L 1894 2003 
Q 2506 1872 2764 1633 
Q 3022 1394 3022 966 
Q 3022 478 2636 193 
Q 2250 -91 1575 -91 
Q 1294 -91 989 -36 
Q 684 19 347 128 
L 347 722 
Q 666 556 975 473 
Q 1284 391 1588 391 
Q 1994 391 2212 530 
Q 2431 669 2431 922 
Q 2431 1156 2273 1281 
Q 2116 1406 1581 1522 
L 1381 1569 
Q 847 1681 609 1914 
Q 372 2147 372 2553 
Q 372 3047 722 3315 
Q 1072 3584 1716 3584 
Q 2034 3584 2315 3537 
Q 2597 3491 2834 3397 
z
" transform="scale(0.015625)"/>
       <path id="DejaVuSans-61" d="M 2194 1759 
Q 1497 1759 1228 1600 
Q 959 1441 959 1056 
Q 959 750 1161 570 
Q 1363 391 1709 391 
Q 2188 391 2477 730 
Q 2766 1069 2766 1631 
L 2766 1759 
L 2194 1759 
z
M 3341 1997 
L 3341 0 
L 2766 0 
L 2766 531 
Q 2569 213 2275 61 
Q 1981 -91 1556 -91 
Q 1019 -91 701 211 
Q 384 513 384 1019 
Q 384 1609 779 1909 
Q 1175 2209 1959 2209 
L 2766 2209 
L 2766 2266 
Q 2766 2663 2505 2880 
Q 2244 3097 1772 3097 
Q 1472 3097 1187 3025 
Q 903 2953 641 2809 
L 641 3341 
Q 956 3463 1253 3523 
Q 1550 3584 1831 3584 
Q 2591 3584 2966 3190 
Q 3341 2797 3341 1997 
z
" transform="scale(0.015625)"/>
       <path id="DejaVuSans-63" d="M 3122 3366 
L 3122 2828 
Q 2878 2963 2633 3030 
Q 2388 3097 2138 3097 
Q 1578 3097 1268 2742 
Q 959 2388 959 1747 
Q 959 1106 1268 751 
Q 1578 397 2138 397 
Q 2388 397 2633 464 
Q 2878 531 3122 666 
L 3122 134 
Q 2881 22 2623 -34 
Q 2366 -91 2075 -91 
Q 1284 -91 818 406 
Q 353 903 353 1747 
Q 353 2603 823 3093 
Q 1294 3584 2113 3584 
Q 2378 3584 2631 3529 
Q 2884 3475 3122 3366 
z
" transform="scale(0.015625)"/>
       <path id="DejaVuSans-6e" d="M 3513 2113 
L 3513 0 
L 2938 0 
L 2938 2094 
Q 2938 2591 2744 2837 
Q 2550 3084 2163 3084 
Q 1697 3084 1428 2787 
Q 1159 2491 1159 1978 
L 1159 0 
L 581 0 
L 581 3500 
L 1159 3500 
L 1159 2956 
Q 1366 3272 1645 3428 
Q 1925 3584 2291 3584 
Q 2894 3584 3203 3211 
Q 3513 2838 3513 2113 
z
" transform="scale(0.015625)"/>
      </defs>
      <use xlink:href="#DejaVuSans-44"/>
      <use xlink:href="#DejaVuSans-69" x="77.001953"/>
      <use xlink:href="#DejaVuSans-73" x="104.785156"/>
      <use xlink:href="#DejaVuSans-70" x="156.884766"/>
      <use xlink:href="#DejaVuSans-6c" x="220.361328"/>
      <use xlink:href="#DejaVuSans-61" x="248.144531"/>
      <use xlink:href="#DejaVuSans-63" x="309.423828"/>
      <use xlink:href="#DejaVuSans-65" x="364.404297"/>
      <use xlink:href="#DejaVuSans-6d" x="425.927734"/>
      <use xlink:href="#DejaVuSans-65" x="523.339844"/>
      <use xlink:href="#DejaVuSans-6e" x="584.863281"/>
      <use xlink:href="#DejaVuSans-74" x="648.242188"/>
     </g>
    </g>
    <g id="line2d_32">
     <path d="M 51.620313 34.976562 
L 61.620313 34.976562 
L 71.620313 34.976562 
" style="fill: none; stroke-dasharray: 5.55,2.4; stroke-dashoffset: 0; stroke: #ff0000; stroke-width: 1.5"/>
    </g>
    <g id="text_18">
     <!-- Hysteretic Variable -->
     <g transform="translate(79.620313 38.476562) scale(0.1 -0.1)">
      <defs>
       <path id="DejaVuSans-48" d="M 628 4666 
L 1259 4666 
L 1259 2753 
L 3553 2753 
L 3553 4666 
L 4184 4666 
L 4184 0 
L 3553 0 
L 3553 2222 
L 1259 2222 
L 1259 0 
L 628 0 
L 628 4666 
z
" transform="scale(0.015625)"/>
       <path id="DejaVuSans-79" d="M 2059 -325 
Q 1816 -950 1584 -1140 
Q 1353 -1331 966 -1331 
L 506 -1331 
L 506 -850 
L 844 -850 
Q 1081 -850 1212 -737 
Q 1344 -625 1503 -206 
L 1606 56 
L 191 3500 
L 800 3500 
L 1894 763 
L 2988 3500 
L 3597 3500 
L 2059 -325 
z
" transform="scale(0.015625)"/>
       <path id="DejaVuSans-72" d="M 2631 2963 
Q 2534 3019 2420 3045 
Q 2306 3072 2169 3072 
Q 1681 3072 1420 2755 
Q 1159 2438 1159 1844 
L 1159 0 
L 581 0 
L 581 3500 
L 1159 3500 
L 1159 2956 
Q 1341 3275 1631 3429 
Q 1922 3584 2338 3584 
Q 2397 3584 2469 3576 
Q 2541 3569 2628 3553 
L 2631 2963 
z
" transform="scale(0.015625)"/>
       <path id="DejaVuSans-20" transform="scale(0.015625)"/>
       <path id="DejaVuSans-56" d="M 1831 0 
L 50 4666 
L 709 4666 
L 2188 738 
L 3669 4666 
L 4325 4666 
L 2547 0 
L 1831 0 
z
" transform="scale(0.015625)"/>
       <path id="DejaVuSans-62" d="M 3116 1747 
Q 3116 2381 2855 2742 
Q 2594 3103 2138 3103 
Q 1681 3103 1420 2742 
Q 1159 2381 1159 1747 
Q 1159 1113 1420 752 
Q 1681 391 2138 391 
Q 2594 391 2855 752 
Q 3116 1113 3116 1747 
z
M 1159 2969 
Q 1341 3281 1617 3432 
Q 1894 3584 2278 3584 
Q 2916 3584 3314 3078 
Q 3713 2572 3713 1747 
Q 3713 922 3314 415 
Q 2916 -91 2278 -91 
Q 1894 -91 1617 61 
Q 1341 213 1159 525 
L 1159 0 
L 581 0 
L 581 4863 
L 1159 4863 
L 1159 2969 
z
" transform="scale(0.015625)"/>
      </defs>
      <use xlink:href="#DejaVuSans-48"/>
      <use xlink:href="#DejaVuSans-79" x="75.195312"/>
      <use xlink:href="#DejaVuSans-73" x="134.375"/>
      <use xlink:href="#DejaVuSans-74" x="186.474609"/>
      <use xlink:href="#DejaVuSans-65" x="225.683594"/>
      <use xlink:href="#DejaVuSans-72" x="287.207031"/>
      <use xlink:href="#DejaVuSans-65" x="326.070312"/>
      <use xlink:href="#DejaVuSans-74" x="387.59375"/>
      <use xlink:href="#DejaVuSans-69" x="426.802734"/>
      <use xlink:href="#DejaVuSans-63" x="454.585938"/>
      <use xlink:href="#DejaVuSans-20" x="509.566406"/>
      <use xlink:href="#DejaVuSans-56" x="541.353516"/>
      <use xlink:href="#DejaVuSans-61" x="602.011719"/>
      <use xlink:href="#DejaVuSans-72" x="663.291016"/>
      <use xlink:href="#DejaVuSans-69" x="704.404297"/>
      <use xlink:href="#DejaVuSans-61" x="732.1875"/>
      <use xlink:href="#DejaVuSans-62" x="793.466797"/>
      <use xlink:href="#DejaVuSans-6c" x="856.943359"/>
      <use xlink:href="#DejaVuSans-65" x="884.726562"/>
     </g>
    </g>
   </g>
  </g>
  <g id="axes_2">
   <g id="patch_8">
    <path d="M 404.270312 314.44 
L 703.530313 314.44 
L 703.530313 7.2 
L 404.270312 7.2 
z
" style="fill: #ffffff"/>
   </g>
   <g id="matplotlib.axis_3">
    <g id="xtick_10">
     <g id="line2d_33">
      <path d="M 417.87304 314.44 
L 417.87304 7.2 
" clip-path="url(#p49337bcf22)" style="fill: none; stroke: #b0b0b0; stroke-opacity: 0.5; stroke-width: 0.8; stroke-linecap: square"/>
     </g>
     <g id="line2d_34">
      <g>
       <use xlink:href="#m2b267e228b" x="417.87304" y="314.44" style="stroke: #000000; stroke-width: 0.8"/>
      </g>
     </g>
     <g id="text_19">
      <!-- 0 -->
      <g transform="translate(414.69179 329.038437) scale(0.1 -0.1)">
       <use xlink:href="#DejaVuSans-30"/>
      </g>
     </g>
    </g>
    <g id="xtick_11">
     <g id="line2d_35">
      <path d="M 451.879858 314.44 
L 451.879858 7.2 
" clip-path="url(#p49337bcf22)" style="fill: none; stroke: #b0b0b0; stroke-opacity: 0.5; stroke-width: 0.8; stroke-linecap: square"/>
     </g>
     <g id="line2d_36">
      <g>
       <use xlink:href="#m2b267e228b" x="451.879858" y="314.44" style="stroke: #000000; stroke-width: 0.8"/>
      </g>
     </g>
     <g id="text_20">
      <!-- 5 -->
      <g transform="translate(448.698608 329.038437) scale(0.1 -0.1)">
       <use xlink:href="#DejaVuSans-35"/>
      </g>
     </g>
    </g>
    <g id="xtick_12">
     <g id="line2d_37">
      <path d="M 485.886676 314.44 
L 485.886676 7.2 
" clip-path="url(#p49337bcf22)" style="fill: none; stroke: #b0b0b0; stroke-opacity: 0.5; stroke-width: 0.8; stroke-linecap: square"/>
     </g>
     <g id="line2d_38">
      <g>
       <use xlink:href="#m2b267e228b" x="485.886676" y="314.44" style="stroke: #000000; stroke-width: 0.8"/>
      </g>
     </g>
     <g id="text_21">
      <!-- 10 -->
      <g transform="translate(479.524176 329.038437) scale(0.1 -0.1)">
       <use xlink:href="#DejaVuSans-31"/>
       <use xlink:href="#DejaVuSans-30" x="63.623047"/>
      </g>
     </g>
    </g>
    <g id="xtick_13">
     <g id="line2d_39">
      <path d="M 519.893494 314.44 
L 519.893494 7.2 
" clip-path="url(#p49337bcf22)" style="fill: none; stroke: #b0b0b0; stroke-opacity: 0.5; stroke-width: 0.8; stroke-linecap: square"/>
     </g>
     <g id="line2d_40">
      <g>
       <use xlink:href="#m2b267e228b" x="519.893494" y="314.44" style="stroke: #000000; stroke-width: 0.8"/>
      </g>
     </g>
     <g id="text_22">
      <!-- 15 -->
      <g transform="translate(513.530994 329.038437) scale(0.1 -0.1)">
       <use xlink:href="#DejaVuSans-31"/>
       <use xlink:href="#DejaVuSans-35" x="63.623047"/>
      </g>
     </g>
    </g>
    <g id="xtick_14">
     <g id="line2d_41">
      <path d="M 553.900313 314.44 
L 553.900313 7.2 
" clip-path="url(#p49337bcf22)" style="fill: none; stroke: #b0b0b0; stroke-opacity: 0.5; stroke-width: 0.8; stroke-linecap: square"/>
     </g>
     <g id="line2d_42">
      <g>
       <use xlink:href="#m2b267e228b" x="553.900313" y="314.44" style="stroke: #000000; stroke-width: 0.8"/>
      </g>
     </g>
     <g id="text_23">
      <!-- 20 -->
      <g transform="translate(547.537813 329.038437) scale(0.1 -0.1)">
       <use xlink:href="#DejaVuSans-32"/>
       <use xlink:href="#DejaVuSans-30" x="63.623047"/>
      </g>
     </g>
    </g>
    <g id="xtick_15">
     <g id="line2d_43">
      <path d="M 587.907131 314.44 
L 587.907131 7.2 
" clip-path="url(#p49337bcf22)" style="fill: none; stroke: #b0b0b0; stroke-opacity: 0.5; stroke-width: 0.8; stroke-linecap: square"/>
     </g>
     <g id="line2d_44">
      <g>
       <use xlink:href="#m2b267e228b" x="587.907131" y="314.44" style="stroke: #000000; stroke-width: 0.8"/>
      </g>
     </g>
     <g id="text_24">
      <!-- 25 -->
      <g transform="translate(581.544631 329.038437) scale(0.1 -0.1)">
       <use xlink:href="#DejaVuSans-32"/>
       <use xlink:href="#DejaVuSans-35" x="63.623047"/>
      </g>
     </g>
    </g>
    <g id="xtick_16">
     <g id="line2d_45">
      <path d="M 621.913949 314.44 
L 621.913949 7.2 
" clip-path="url(#p49337bcf22)" style="fill: none; stroke: #b0b0b0; stroke-opacity: 0.5; stroke-width: 0.8; stroke-linecap: square"/>
     </g>
     <g id="line2d_46">
      <g>
       <use xlink:href="#m2b267e228b" x="621.913949" y="314.44" style="stroke: #000000; stroke-width: 0.8"/>
      </g>
     </g>
     <g id="text_25">
      <!-- 30 -->
      <g transform="translate(615.551449 329.038437) scale(0.1 -0.1)">
       <use xlink:href="#DejaVuSans-33"/>
       <use xlink:href="#DejaVuSans-30" x="63.623047"/>
      </g>
     </g>
    </g>
    <g id="xtick_17">
     <g id="line2d_47">
      <path d="M 655.920767 314.44 
L 655.920767 7.2 
" clip-path="url(#p49337bcf22)" style="fill: none; stroke: #b0b0b0; stroke-opacity: 0.5; stroke-width: 0.8; stroke-linecap: square"/>
     </g>
     <g id="line2d_48">
      <g>
       <use xlink:href="#m2b267e228b" x="655.920767" y="314.44" style="stroke: #000000; stroke-width: 0.8"/>
      </g>
     </g>
     <g id="text_26">
      <!-- 35 -->
      <g transform="translate(649.558267 329.038437) scale(0.1 -0.1)">
       <use xlink:href="#DejaVuSans-33"/>
       <use xlink:href="#DejaVuSans-35" x="63.623047"/>
      </g>
     </g>
    </g>
    <g id="xtick_18">
     <g id="line2d_49">
      <path d="M 689.927585 314.44 
L 689.927585 7.2 
" clip-path="url(#p49337bcf22)" style="fill: none; stroke: #b0b0b0; stroke-opacity: 0.5; stroke-width: 0.8; stroke-linecap: square"/>
     </g>
     <g id="line2d_50">
      <g>
       <use xlink:href="#m2b267e228b" x="689.927585" y="314.44" style="stroke: #000000; stroke-width: 0.8"/>
      </g>
     </g>
     <g id="text_27">
      <!-- 40 -->
      <g transform="translate(683.565085 329.038437) scale(0.1 -0.1)">
       <use xlink:href="#DejaVuSans-34"/>
       <use xlink:href="#DejaVuSans-30" x="63.623047"/>
      </g>
     </g>
    </g>
    <g id="text_28">
     <!-- Time -->
     <g transform="translate(541.666719 342.716562) scale(0.1 -0.1)">
      <use xlink:href="#DejaVuSans-54"/>
      <use xlink:href="#DejaVuSans-69" x="57.958984"/>
      <use xlink:href="#DejaVuSans-6d" x="85.742188"/>
      <use xlink:href="#DejaVuSans-65" x="183.154297"/>
     </g>
    </g>
   </g>
   <g id="matplotlib.axis_4">
    <g id="ytick_6">
     <g id="line2d_51">
      <path d="M 404.270312 304.861211 
L 703.530313 304.861211 
" clip-path="url(#p49337bcf22)" style="fill: none; stroke: #b0b0b0; stroke-opacity: 0.5; stroke-width: 0.8; stroke-linecap: square"/>
     </g>
     <g id="line2d_52">
      <g>
       <use xlink:href="#m0e46d3b368" x="404.270312" y="304.861211" style="stroke: #000000; stroke-width: 0.8"/>
      </g>
     </g>
     <g id="text_29">
      <!-- −1.00 -->
      <g transform="translate(366.625 308.66043) scale(0.1 -0.1)">
       <defs>
        <path id="DejaVuSans-2e" d="M 684 794 
L 1344 794 
L 1344 0 
L 684 0 
L 684 794 
z
" transform="scale(0.015625)"/>
       </defs>
       <use xlink:href="#DejaVuSans-2212"/>
       <use xlink:href="#DejaVuSans-31" x="83.789062"/>
       <use xlink:href="#DejaVuSans-2e" x="147.412109"/>
       <use xlink:href="#DejaVuSans-30" x="179.199219"/>
       <use xlink:href="#DejaVuSans-30" x="242.822266"/>
      </g>
     </g>
    </g>
    <g id="ytick_7">
     <g id="line2d_53">
      <path d="M 404.270312 268.742552 
L 703.530313 268.742552 
" clip-path="url(#p49337bcf22)" style="fill: none; stroke: #b0b0b0; stroke-opacity: 0.5; stroke-width: 0.8; stroke-linecap: square"/>
     </g>
     <g id="line2d_54">
      <g>
       <use xlink:href="#m0e46d3b368" x="404.270312" y="268.742552" style="stroke: #000000; stroke-width: 0.8"/>
      </g>
     </g>
     <g id="text_30">
      <!-- −0.75 -->
      <g transform="translate(366.625 272.541771) scale(0.1 -0.1)">
       <defs>
        <path id="DejaVuSans-37" d="M 525 4666 
L 3525 4666 
L 3525 4397 
L 1831 0 
L 1172 0 
L 2766 4134 
L 525 4134 
L 525 4666 
z
" transform="scale(0.015625)"/>
       </defs>
       <use xlink:href="#DejaVuSans-2212"/>
       <use xlink:href="#DejaVuSans-30" x="83.789062"/>
       <use xlink:href="#DejaVuSans-2e" x="147.412109"/>
       <use xlink:href="#DejaVuSans-37" x="179.199219"/>
       <use xlink:href="#DejaVuSans-35" x="242.822266"/>
      </g>
     </g>
    </g>
    <g id="ytick_8">
     <g id="line2d_55">
      <path d="M 404.270312 232.623893 
L 703.530313 232.623893 
" clip-path="url(#p49337bcf22)" style="fill: none; stroke: #b0b0b0; stroke-opacity: 0.5; stroke-width: 0.8; stroke-linecap: square"/>
     </g>
     <g id="line2d_56">
      <g>
       <use xlink:href="#m0e46d3b368" x="404.270312" y="232.623893" style="stroke: #000000; stroke-width: 0.8"/>
      </g>
     </g>
     <g id="text_31">
      <!-- −0.50 -->
      <g transform="translate(366.625 236.423112) scale(0.1 -0.1)">
       <use xlink:href="#DejaVuSans-2212"/>
       <use xlink:href="#DejaVuSans-30" x="83.789062"/>
       <use xlink:href="#DejaVuSans-2e" x="147.412109"/>
       <use xlink:href="#DejaVuSans-35" x="179.199219"/>
       <use xlink:href="#DejaVuSans-30" x="242.822266"/>
      </g>
     </g>
    </g>
    <g id="ytick_9">
     <g id="line2d_57">
      <path d="M 404.270312 196.505234 
L 703.530313 196.505234 
" clip-path="url(#p49337bcf22)" style="fill: none; stroke: #b0b0b0; stroke-opacity: 0.5; stroke-width: 0.8; stroke-linecap: square"/>
     </g>
     <g id="line2d_58">
      <g>
       <use xlink:href="#m0e46d3b368" x="404.270312" y="196.505234" style="stroke: #000000; stroke-width: 0.8"/>
      </g>
     </g>
     <g id="text_32">
      <!-- −0.25 -->
      <g transform="translate(366.625 200.304453) scale(0.1 -0.1)">
       <use xlink:href="#DejaVuSans-2212"/>
       <use xlink:href="#DejaVuSans-30" x="83.789062"/>
       <use xlink:href="#DejaVuSans-2e" x="147.412109"/>
       <use xlink:href="#DejaVuSans-32" x="179.199219"/>
       <use xlink:href="#DejaVuSans-35" x="242.822266"/>
      </g>
     </g>
    </g>
    <g id="ytick_10">
     <g id="line2d_59">
      <path d="M 404.270312 160.386576 
L 703.530313 160.386576 
" clip-path="url(#p49337bcf22)" style="fill: none; stroke: #b0b0b0; stroke-opacity: 0.5; stroke-width: 0.8; stroke-linecap: square"/>
     </g>
     <g id="line2d_60">
      <g>
       <use xlink:href="#m0e46d3b368" x="404.270312" y="160.386576" style="stroke: #000000; stroke-width: 0.8"/>
      </g>
     </g>
     <g id="text_33">
      <!-- 0.00 -->
      <g transform="translate(375.004687 164.185794) scale(0.1 -0.1)">
       <use xlink:href="#DejaVuSans-30"/>
       <use xlink:href="#DejaVuSans-2e" x="63.623047"/>
       <use xlink:href="#DejaVuSans-30" x="95.410156"/>
       <use xlink:href="#DejaVuSans-30" x="159.033203"/>
      </g>
     </g>
    </g>
    <g id="ytick_11">
     <g id="line2d_61">
      <path d="M 404.270312 124.267917 
L 703.530313 124.267917 
" clip-path="url(#p49337bcf22)" style="fill: none; stroke: #b0b0b0; stroke-opacity: 0.5; stroke-width: 0.8; stroke-linecap: square"/>
     </g>
     <g id="line2d_62">
      <g>
       <use xlink:href="#m0e46d3b368" x="404.270312" y="124.267917" style="stroke: #000000; stroke-width: 0.8"/>
      </g>
     </g>
     <g id="text_34">
      <!-- 0.25 -->
      <g transform="translate(375.004687 128.067136) scale(0.1 -0.1)">
       <use xlink:href="#DejaVuSans-30"/>
       <use xlink:href="#DejaVuSans-2e" x="63.623047"/>
       <use xlink:href="#DejaVuSans-32" x="95.410156"/>
       <use xlink:href="#DejaVuSans-35" x="159.033203"/>
      </g>
     </g>
    </g>
    <g id="ytick_12">
     <g id="line2d_63">
      <path d="M 404.270312 88.149258 
L 703.530313 88.149258 
" clip-path="url(#p49337bcf22)" style="fill: none; stroke: #b0b0b0; stroke-opacity: 0.5; stroke-width: 0.8; stroke-linecap: square"/>
     </g>
     <g id="line2d_64">
      <g>
       <use xlink:href="#m0e46d3b368" x="404.270312" y="88.149258" style="stroke: #000000; stroke-width: 0.8"/>
      </g>
     </g>
     <g id="text_35">
      <!-- 0.50 -->
      <g transform="translate(375.004687 91.948477) scale(0.1 -0.1)">
       <use xlink:href="#DejaVuSans-30"/>
       <use xlink:href="#DejaVuSans-2e" x="63.623047"/>
       <use xlink:href="#DejaVuSans-35" x="95.410156"/>
       <use xlink:href="#DejaVuSans-30" x="159.033203"/>
      </g>
     </g>
    </g>
    <g id="ytick_13">
     <g id="line2d_65">
      <path d="M 404.270312 52.030599 
L 703.530313 52.030599 
" clip-path="url(#p49337bcf22)" style="fill: none; stroke: #b0b0b0; stroke-opacity: 0.5; stroke-width: 0.8; stroke-linecap: square"/>
     </g>
     <g id="line2d_66">
      <g>
       <use xlink:href="#m0e46d3b368" x="404.270312" y="52.030599" style="stroke: #000000; stroke-width: 0.8"/>
      </g>
     </g>
     <g id="text_36">
      <!-- 0.75 -->
      <g transform="translate(375.004687 55.829818) scale(0.1 -0.1)">
       <use xlink:href="#DejaVuSans-30"/>
       <use xlink:href="#DejaVuSans-2e" x="63.623047"/>
       <use xlink:href="#DejaVuSans-37" x="95.410156"/>
       <use xlink:href="#DejaVuSans-35" x="159.033203"/>
      </g>
     </g>
    </g>
    <g id="ytick_14">
     <g id="line2d_67">
      <path d="M 404.270312 15.911941 
L 703.530313 15.911941 
" clip-path="url(#p49337bcf22)" style="fill: none; stroke: #b0b0b0; stroke-opacity: 0.5; stroke-width: 0.8; stroke-linecap: square"/>
     </g>
     <g id="line2d_68">
      <g>
       <use xlink:href="#m0e46d3b368" x="404.270312" y="15.911941" style="stroke: #000000; stroke-width: 0.8"/>
      </g>
     </g>
     <g id="text_37">
      <!-- 1.00 -->
      <g transform="translate(375.004687 19.711159) scale(0.1 -0.1)">
       <use xlink:href="#DejaVuSans-31"/>
       <use xlink:href="#DejaVuSans-2e" x="63.623047"/>
       <use xlink:href="#DejaVuSans-30" x="95.410156"/>
       <use xlink:href="#DejaVuSans-30" x="159.033203"/>
      </g>
     </g>
    </g>
    <g id="text_38">
     <!-- Restoring force -->
     <g transform="translate(360.545313 198.734844) rotate(-90) scale(0.1 -0.1)">
      <defs>
       <path id="DejaVuSans-52" d="M 2841 2188 
Q 3044 2119 3236 1894 
Q 3428 1669 3622 1275 
L 4263 0 
L 3584 0 
L 2988 1197 
Q 2756 1666 2539 1819 
Q 2322 1972 1947 1972 
L 1259 1972 
L 1259 0 
L 628 0 
L 628 4666 
L 2053 4666 
Q 2853 4666 3247 4331 
Q 3641 3997 3641 3322 
Q 3641 2881 3436 2590 
Q 3231 2300 2841 2188 
z
M 1259 4147 
L 1259 2491 
L 2053 2491 
Q 2509 2491 2742 2702 
Q 2975 2913 2975 3322 
Q 2975 3731 2742 3939 
Q 2509 4147 2053 4147 
L 1259 4147 
z
" transform="scale(0.015625)"/>
       <path id="DejaVuSans-6f" d="M 1959 3097 
Q 1497 3097 1228 2736 
Q 959 2375 959 1747 
Q 959 1119 1226 758 
Q 1494 397 1959 397 
Q 2419 397 2687 759 
Q 2956 1122 2956 1747 
Q 2956 2369 2687 2733 
Q 2419 3097 1959 3097 
z
M 1959 3584 
Q 2709 3584 3137 3096 
Q 3566 2609 3566 1747 
Q 3566 888 3137 398 
Q 2709 -91 1959 -91 
Q 1206 -91 779 398 
Q 353 888 353 1747 
Q 353 2609 779 3096 
Q 1206 3584 1959 3584 
z
" transform="scale(0.015625)"/>
       <path id="DejaVuSans-67" d="M 2906 1791 
Q 2906 2416 2648 2759 
Q 2391 3103 1925 3103 
Q 1463 3103 1205 2759 
Q 947 2416 947 1791 
Q 947 1169 1205 825 
Q 1463 481 1925 481 
Q 2391 481 2648 825 
Q 2906 1169 2906 1791 
z
M 3481 434 
Q 3481 -459 3084 -895 
Q 2688 -1331 1869 -1331 
Q 1566 -1331 1297 -1286 
Q 1028 -1241 775 -1147 
L 775 -588 
Q 1028 -725 1275 -790 
Q 1522 -856 1778 -856 
Q 2344 -856 2625 -561 
Q 2906 -266 2906 331 
L 2906 616 
Q 2728 306 2450 153 
Q 2172 0 1784 0 
Q 1141 0 747 490 
Q 353 981 353 1791 
Q 353 2603 747 3093 
Q 1141 3584 1784 3584 
Q 2172 3584 2450 3431 
Q 2728 3278 2906 2969 
L 2906 3500 
L 3481 3500 
L 3481 434 
z
" transform="scale(0.015625)"/>
       <path id="DejaVuSans-66" d="M 2375 4863 
L 2375 4384 
L 1825 4384 
Q 1516 4384 1395 4259 
Q 1275 4134 1275 3809 
L 1275 3500 
L 2222 3500 
L 2222 3053 
L 1275 3053 
L 1275 0 
L 697 0 
L 697 3053 
L 147 3053 
L 147 3500 
L 697 3500 
L 697 3744 
Q 697 4328 969 4595 
Q 1241 4863 1831 4863 
L 2375 4863 
z
" transform="scale(0.015625)"/>
      </defs>
      <use xlink:href="#DejaVuSans-52"/>
      <use xlink:href="#DejaVuSans-65" x="64.982422"/>
      <use xlink:href="#DejaVuSans-73" x="126.505859"/>
      <use xlink:href="#DejaVuSans-74" x="178.605469"/>
      <use xlink:href="#DejaVuSans-6f" x="217.814453"/>
      <use xlink:href="#DejaVuSans-72" x="278.996094"/>
      <use xlink:href="#DejaVuSans-69" x="320.109375"/>
      <use xlink:href="#DejaVuSans-6e" x="347.892578"/>
      <use xlink:href="#DejaVuSans-67" x="411.271484"/>
      <use xlink:href="#DejaVuSans-20" x="474.748047"/>
      <use xlink:href="#DejaVuSans-66" x="506.535156"/>
      <use xlink:href="#DejaVuSans-6f" x="541.740234"/>
      <use xlink:href="#DejaVuSans-72" x="602.921875"/>
      <use xlink:href="#DejaVuSans-63" x="641.785156"/>
      <use xlink:href="#DejaVuSans-65" x="696.765625"/>
     </g>
    </g>
   </g>
   <g id="line2d_69">
    <path d="M 417.87304 160.386576 
L 421.957943 160.297518 
L 423.591904 160.058827 
L 424.953538 159.650974 
L 426.315173 158.980328 
L 427.40448 158.216982 
L 428.766115 156.951005 
L 430.127749 155.335932 
L 431.76171 152.98694 
L 433.940325 149.393076 
L 436.663594 144.922349 
L 438.025228 143.081377 
L 439.114536 141.966674 
L 439.931516 141.403255 
L 440.748497 141.11886 
L 441.293151 141.106055 
L 441.837805 141.266281 
L 442.382458 141.616275 
L 442.927112 142.167569 
L 443.744093 143.3938 
L 444.561073 145.123216 
L 445.378054 147.374524 
L 446.467361 151.201301 
L 447.556669 155.958967 
L 448.918303 163.110601 
L 451.096918 176.084198 
L 454.364841 195.669743 
L 455.998802 204.217037 
L 457.360436 210.264728 
L 458.449744 214.264177 
L 459.539051 217.433453 
L 460.356032 219.222967 
L 461.173012 220.475597 
L 461.717666 220.996479 
L 462.26232 221.253644 
L 462.806974 221.203128 
L 463.351627 220.678161 
L 463.896281 219.640858 
L 464.440935 218.076015 
L 465.257916 214.716231 
L 466.074896 210.125399 
L 466.891877 204.306436 
L 467.981184 194.687094 
L 469.070492 183.065765 
L 470.432126 166.048771 
L 473.700049 123.251171 
L 475.33401 105.558284 
L 476.695644 93.276042 
L 478.057279 83.22285 
L 479.146586 76.699402 
L 480.235894 71.431861 
L 481.325201 67.333893 
L 482.142182 64.984087 
L 482.959162 63.230158 
L 483.776143 62.060943 
L 484.320797 61.60626 
L 484.86545 61.415416 
L 485.137777 61.444913 
L 485.410104 61.673475 
L 485.682431 62.116672 
L 486.227085 63.657624 
L 486.771738 66.084722 
L 487.316392 69.407747 
L 488.133373 76.075257 
L 488.950353 84.737973 
L 490.039661 99.276699 
L 491.128968 116.986567 
L 492.490603 142.994204 
L 495.213872 197.901103 
L 496.575506 219.481764 
L 497.664813 233.583603 
L 498.754121 245.13498 
L 499.843428 254.453561 
L 500.932736 261.865701 
L 502.022043 267.671697 
L 503.111351 272.12824 
L 503.928331 274.711019 
L 504.745312 276.719466 
L 505.562293 278.20493 
L 506.379273 279.20249 
L 506.923927 279.606341 
L 507.468581 279.803239 
L 507.740908 279.821995 
L 508.013235 279.647629 
L 508.285561 279.18701 
L 508.830215 277.395697 
L 509.374869 274.431622 
L 509.919523 270.288468 
L 510.736503 261.874592 
L 511.553484 250.87694 
L 512.642791 232.393006 
L 513.732099 209.924166 
L 515.093733 177.104005 
L 517.272348 123.113781 
L 518.361656 102.006469 
L 519.450963 84.938368 
L 520.540271 71.406782 
L 521.629578 60.835235 
L 522.718886 52.671524 
L 523.808193 46.435148 
L 524.897501 41.73332 
L 525.714481 39.026932 
L 526.531462 36.910559 
L 527.348442 35.307333 
L 528.165423 34.160892 
L 528.982404 33.433799 
L 529.527057 33.171749 
L 530.071711 33.085969 
L 530.344038 33.262691 
L 530.616365 33.775298 
L 531.161019 35.818926 
L 531.705672 39.230742 
L 532.250326 44.012261 
L 533.067307 53.725172 
L 533.884287 66.401884 
L 534.973595 87.64064 
L 536.062902 113.337177 
L 537.424537 150.627157 
L 538.786171 188.652235 
L 539.875479 213.444346 
L 540.964786 233.260409 
L 542.054094 248.732881 
L 543.143401 260.616528 
L 544.232709 269.636722 
L 545.322016 276.418949 
L 546.411324 281.467668 
L 547.228304 284.353842 
L 548.045285 286.610242 
L 548.862265 288.333686 
L 549.679246 289.596357 
L 550.496227 290.44875 
L 551.313207 290.921693 
L 551.857861 291.032924 
L 552.130188 290.961023 
L 552.402515 290.541327 
L 552.674842 289.749239 
L 553.219495 287.039499 
L 553.764149 282.823769 
L 554.308803 277.108112 
L 555.125783 265.770431 
L 555.942764 251.234683 
L 557.032072 227.23095 
L 558.393706 190.752137 
L 561.116975 113.314942 
L 562.206282 91.007495 
L 563.29559 73.716516 
L 564.384897 60.567264 
L 565.474205 50.696408 
L 566.291185 44.988367 
L 567.108166 40.437368 
L 567.925146 36.82728 
L 568.742127 33.984239 
L 569.559108 31.771417 
L 570.376088 30.083691 
L 571.193069 28.84288 
L 572.01005 27.993896 
L 572.82703 27.502008 
L 573.371684 27.363865 
L 573.644011 27.356436 
L 573.916338 27.621342 
L 574.188664 28.284891 
L 574.733318 30.818045 
L 575.277972 34.966609 
L 575.822626 40.725877 
L 576.639606 52.336394 
L 577.456587 67.388562 
L 578.545894 92.438219 
L 579.907529 130.731805 
L 582.358471 204.489464 
L 583.447778 228.504503 
L 584.537086 246.983632 
L 585.626393 260.906509 
L 586.443374 268.951748 
L 587.260354 275.355357 
L 588.077335 280.431802 
L 588.894316 284.441126 
L 589.711296 287.59292 
L 590.528277 290.052506 
L 591.345257 291.947609 
L 592.162238 293.374553 
L 592.979219 294.403495 
L 593.796199 295.082465 
L 594.61318 295.440105 
L 595.157834 295.505618 
L 595.430161 295.277026 
L 595.702487 294.62603 
L 596.247141 292.045966 
L 596.791795 287.753988 
L 597.336449 281.755255 
L 598.153429 269.609311 
L 598.97041 253.819839 
L 600.059717 227.501347 
L 601.149025 195.86733 
L 603.872294 111.593063 
L 604.961601 87.717404 
L 606.050909 69.588691 
L 606.867889 59.100359 
L 607.68487 50.767402 
L 608.50185 44.18204 
L 609.318831 38.996989 
L 610.135812 34.926587 
L 610.952792 31.741942 
L 611.769773 29.263525 
L 612.586753 27.353241 
L 613.403734 25.907087 
L 614.220715 24.848945 
L 615.037695 24.125709 
L 615.854676 23.703816 
L 616.671657 23.567751 
L 616.943983 23.811183 
L 617.21631 24.498688 
L 617.760964 27.216951 
L 618.305618 31.733644 
L 618.850272 38.04221 
L 619.667252 50.806849 
L 620.484233 67.388183 
L 621.57354 95.000959 
L 622.935175 137.187175 
L 624.841463 199.703341 
L 625.93077 226.564647 
L 627.020078 246.985554 
L 627.837058 258.772014 
L 628.654039 268.100277 
L 629.47102 275.436439 
L 630.288 281.182366 
L 631.104981 285.670781 
L 631.921961 289.169112 
L 632.738942 291.887426 
L 633.555923 293.987567 
L 634.372903 295.591921 
L 635.189884 296.791027 
L 636.006865 297.649738 
L 636.823845 298.211856 
L 637.640826 298.503271 
L 638.185479 298.54781 
L 638.457806 298.248868 
L 638.730133 297.48611 
L 639.274787 294.558415 
L 639.819441 289.754835 
L 640.364094 283.084108 
L 641.181075 269.642175 
L 641.998056 252.235797 
L 643.087363 223.325982 
L 644.448998 179.280952 
L 646.082959 123.834642 
L 647.172266 95.612108 
L 648.261574 74.24367 
L 649.078554 61.975099 
L 649.895535 52.316405 
L 650.712516 44.763283 
L 651.529496 38.881201 
L 652.346477 34.311372 
L 653.163457 30.766554 
L 653.980438 28.022139 
L 654.797419 25.905857 
L 655.614399 24.287913 
L 656.43138 23.072415 
L 657.248361 22.190428 
L 658.065341 21.594681 
L 658.882322 21.255874 
L 659.699302 21.182915 
L 659.971629 21.573216 
L 660.243956 22.445321 
L 660.78861 25.644949 
L 661.333264 30.789697 
L 661.877917 37.867957 
L 662.694898 52.037266 
L 663.511879 70.295866 
L 664.601186 100.50169 
L 665.96282 146.34359 
L 667.324455 193.920942 
L 668.413762 223.486954 
L 669.50307 245.808176 
L 670.32005 258.569221 
L 671.137031 268.570516 
L 671.954012 276.352813 
L 672.770992 282.382361 
L 673.587973 287.043515 
L 674.404954 290.643061 
L 675.221934 293.419984 
L 676.038915 295.556847 
L 676.855895 297.190718 
L 677.672876 298.42266 
L 678.489857 299.325441 
L 679.306837 299.949449 
L 680.123818 300.326912 
L 680.940798 300.474545 
L 681.213125 300.405077 
L 681.485452 299.890265 
L 681.757779 298.877237 
L 682.302433 295.347621 
L 682.847087 289.811043 
L 683.39174 282.282608 
L 684.208721 267.338148 
L 685.025702 248.200204 
L 686.115009 216.695828 
L 687.476643 169.108604 
L 688.565951 130.107471 
L 689.655258 99.210942 
L 689.927585 92.722892 
L 689.927585 92.722892 
" clip-path="url(#p49337bcf22)" style="fill: none; stroke: #0000ff; stroke-width: 1.5; stroke-linecap: square"/>
   </g>
   <g id="patch_9">
    <path d="M 404.270312 314.44 
L 404.270312 7.2 
" style="fill: none; stroke: #000000; stroke-width: 0.8; stroke-linejoin: miter; stroke-linecap: square"/>
   </g>
   <g id="patch_10">
    <path d="M 703.530313 314.44 
L 703.530313 7.2 
" style="fill: none; stroke: #000000; stroke-width: 0.8; stroke-linejoin: miter; stroke-linecap: square"/>
   </g>
   <g id="patch_11">
    <path d="M 404.270312 314.44 
L 703.530313 314.44 
" style="fill: none; stroke: #000000; stroke-width: 0.8; stroke-linejoin: miter; stroke-linecap: square"/>
   </g>
   <g id="patch_12">
    <path d="M 404.270312 7.2 
L 703.530313 7.2 
" style="fill: none; stroke: #000000; stroke-width: 0.8; stroke-linejoin: miter; stroke-linecap: square"/>
   </g>
  </g>
  <g id="axes_3">
   <g id="patch_13">
    <path d="M 765.920313 314.44 
L 1065.180313 314.44 
L 1065.180313 7.2 
L 765.920313 7.2 
z
" style="fill: #ffffff"/>
   </g>
   <g id="matplotlib.axis_5">
    <g id="xtick_19">
     <g id="line2d_70">
      <path d="M 785.881979 314.44 
L 785.881979 7.2 
" clip-path="url(#p308b63fc88)" style="fill: none; stroke: #b0b0b0; stroke-opacity: 0.5; stroke-width: 0.8; stroke-linecap: square"/>
     </g>
     <g id="line2d_71">
      <g>
       <use xlink:href="#m2b267e228b" x="785.881979" y="314.44" style="stroke: #000000; stroke-width: 0.8"/>
      </g>
     </g>
     <g id="text_39">
      <!-- −2 -->
      <g transform="translate(778.510885 329.038437) scale(0.1 -0.1)">
       <use xlink:href="#DejaVuSans-2212"/>
       <use xlink:href="#DejaVuSans-32" x="83.789062"/>
      </g>
     </g>
    </g>
    <g id="xtick_20">
     <g id="line2d_72">
      <path d="M 851.77253 314.44 
L 851.77253 7.2 
" clip-path="url(#p308b63fc88)" style="fill: none; stroke: #b0b0b0; stroke-opacity: 0.5; stroke-width: 0.8; stroke-linecap: square"/>
     </g>
     <g id="line2d_73">
      <g>
       <use xlink:href="#m2b267e228b" x="851.77253" y="314.44" style="stroke: #000000; stroke-width: 0.8"/>
      </g>
     </g>
     <g id="text_40">
      <!-- −1 -->
      <g transform="translate(844.401436 329.038437) scale(0.1 -0.1)">
       <use xlink:href="#DejaVuSans-2212"/>
       <use xlink:href="#DejaVuSans-31" x="83.789062"/>
      </g>
     </g>
    </g>
    <g id="xtick_21">
     <g id="line2d_74">
      <path d="M 917.663081 314.44 
L 917.663081 7.2 
" clip-path="url(#p308b63fc88)" style="fill: none; stroke: #b0b0b0; stroke-opacity: 0.5; stroke-width: 0.8; stroke-linecap: square"/>
     </g>
     <g id="line2d_75">
      <g>
       <use xlink:href="#m2b267e228b" x="917.663081" y="314.44" style="stroke: #000000; stroke-width: 0.8"/>
      </g>
     </g>
     <g id="text_41">
      <!-- 0 -->
      <g transform="translate(914.481831 329.038437) scale(0.1 -0.1)">
       <use xlink:href="#DejaVuSans-30"/>
      </g>
     </g>
    </g>
    <g id="xtick_22">
     <g id="line2d_76">
      <path d="M 983.553633 314.44 
L 983.553633 7.2 
" clip-path="url(#p308b63fc88)" style="fill: none; stroke: #b0b0b0; stroke-opacity: 0.5; stroke-width: 0.8; stroke-linecap: square"/>
     </g>
     <g id="line2d_77">
      <g>
       <use xlink:href="#m2b267e228b" x="983.553633" y="314.44" style="stroke: #000000; stroke-width: 0.8"/>
      </g>
     </g>
     <g id="text_42">
      <!-- 1 -->
      <g transform="translate(980.372383 329.038437) scale(0.1 -0.1)">
       <use xlink:href="#DejaVuSans-31"/>
      </g>
     </g>
    </g>
    <g id="xtick_23">
     <g id="line2d_78">
      <path d="M 1049.444184 314.44 
L 1049.444184 7.2 
" clip-path="url(#p308b63fc88)" style="fill: none; stroke: #b0b0b0; stroke-opacity: 0.5; stroke-width: 0.8; stroke-linecap: square"/>
     </g>
     <g id="line2d_79">
      <g>
       <use xlink:href="#m2b267e228b" x="1049.444184" y="314.44" style="stroke: #000000; stroke-width: 0.8"/>
      </g>
     </g>
     <g id="text_43">
      <!-- 2 -->
      <g transform="translate(1046.262934 329.038437) scale(0.1 -0.1)">
       <use xlink:href="#DejaVuSans-32"/>
      </g>
     </g>
    </g>
    <g id="text_44">
     <!-- Displacement -->
     <g transform="translate(881.177656 342.716562) scale(0.1 -0.1)">
      <use xlink:href="#DejaVuSans-44"/>
      <use xlink:href="#DejaVuSans-69" x="77.001953"/>
      <use xlink:href="#DejaVuSans-73" x="104.785156"/>
      <use xlink:href="#DejaVuSans-70" x="156.884766"/>
      <use xlink:href="#DejaVuSans-6c" x="220.361328"/>
      <use xlink:href="#DejaVuSans-61" x="248.144531"/>
      <use xlink:href="#DejaVuSans-63" x="309.423828"/>
      <use xlink:href="#DejaVuSans-65" x="364.404297"/>
      <use xlink:href="#DejaVuSans-6d" x="425.927734"/>
      <use xlink:href="#DejaVuSans-65" x="523.339844"/>
      <use xlink:href="#DejaVuSans-6e" x="584.863281"/>
      <use xlink:href="#DejaVuSans-74" x="648.242188"/>
     </g>
    </g>
   </g>
   <g id="matplotlib.axis_6">
    <g id="ytick_15">
     <g id="line2d_80">
      <path d="M 765.920313 304.861211 
L 1065.180313 304.861211 
" clip-path="url(#p308b63fc88)" style="fill: none; stroke: #b0b0b0; stroke-opacity: 0.5; stroke-width: 0.8; stroke-linecap: square"/>
     </g>
     <g id="line2d_81">
      <g>
       <use xlink:href="#m0e46d3b368" x="765.920313" y="304.861211" style="stroke: #000000; stroke-width: 0.8"/>
      </g>
     </g>
     <g id="text_45">
      <!-- −1.00 -->
      <g transform="translate(728.275 308.66043) scale(0.1 -0.1)">
       <use xlink:href="#DejaVuSans-2212"/>
       <use xlink:href="#DejaVuSans-31" x="83.789062"/>
       <use xlink:href="#DejaVuSans-2e" x="147.412109"/>
       <use xlink:href="#DejaVuSans-30" x="179.199219"/>
       <use xlink:href="#DejaVuSans-30" x="242.822266"/>
      </g>
     </g>
    </g>
    <g id="ytick_16">
     <g id="line2d_82">
      <path d="M 765.920313 268.742552 
L 1065.180313 268.742552 
" clip-path="url(#p308b63fc88)" style="fill: none; stroke: #b0b0b0; stroke-opacity: 0.5; stroke-width: 0.8; stroke-linecap: square"/>
     </g>
     <g id="line2d_83">
      <g>
       <use xlink:href="#m0e46d3b368" x="765.920313" y="268.742552" style="stroke: #000000; stroke-width: 0.8"/>
      </g>
     </g>
     <g id="text_46">
      <!-- −0.75 -->
      <g transform="translate(728.275 272.541771) scale(0.1 -0.1)">
       <use xlink:href="#DejaVuSans-2212"/>
       <use xlink:href="#DejaVuSans-30" x="83.789062"/>
       <use xlink:href="#DejaVuSans-2e" x="147.412109"/>
       <use xlink:href="#DejaVuSans-37" x="179.199219"/>
       <use xlink:href="#DejaVuSans-35" x="242.822266"/>
      </g>
     </g>
    </g>
    <g id="ytick_17">
     <g id="line2d_84">
      <path d="M 765.920313 232.623893 
L 1065.180313 232.623893 
" clip-path="url(#p308b63fc88)" style="fill: none; stroke: #b0b0b0; stroke-opacity: 0.5; stroke-width: 0.8; stroke-linecap: square"/>
     </g>
     <g id="line2d_85">
      <g>
       <use xlink:href="#m0e46d3b368" x="765.920313" y="232.623893" style="stroke: #000000; stroke-width: 0.8"/>
      </g>
     </g>
     <g id="text_47">
      <!-- −0.50 -->
      <g transform="translate(728.275 236.423112) scale(0.1 -0.1)">
       <use xlink:href="#DejaVuSans-2212"/>
       <use xlink:href="#DejaVuSans-30" x="83.789062"/>
       <use xlink:href="#DejaVuSans-2e" x="147.412109"/>
       <use xlink:href="#DejaVuSans-35" x="179.199219"/>
       <use xlink:href="#DejaVuSans-30" x="242.822266"/>
      </g>
     </g>
    </g>
    <g id="ytick_18">
     <g id="line2d_86">
      <path d="M 765.920313 196.505234 
L 1065.180313 196.505234 
" clip-path="url(#p308b63fc88)" style="fill: none; stroke: #b0b0b0; stroke-opacity: 0.5; stroke-width: 0.8; stroke-linecap: square"/>
     </g>
     <g id="line2d_87">
      <g>
       <use xlink:href="#m0e46d3b368" x="765.920313" y="196.505234" style="stroke: #000000; stroke-width: 0.8"/>
      </g>
     </g>
     <g id="text_48">
      <!-- −0.25 -->
      <g transform="translate(728.275 200.304453) scale(0.1 -0.1)">
       <use xlink:href="#DejaVuSans-2212"/>
       <use xlink:href="#DejaVuSans-30" x="83.789062"/>
       <use xlink:href="#DejaVuSans-2e" x="147.412109"/>
       <use xlink:href="#DejaVuSans-32" x="179.199219"/>
       <use xlink:href="#DejaVuSans-35" x="242.822266"/>
      </g>
     </g>
    </g>
    <g id="ytick_19">
     <g id="line2d_88">
      <path d="M 765.920313 160.386576 
L 1065.180313 160.386576 
" clip-path="url(#p308b63fc88)" style="fill: none; stroke: #b0b0b0; stroke-opacity: 0.5; stroke-width: 0.8; stroke-linecap: square"/>
     </g>
     <g id="line2d_89">
      <g>
       <use xlink:href="#m0e46d3b368" x="765.920313" y="160.386576" style="stroke: #000000; stroke-width: 0.8"/>
      </g>
     </g>
     <g id="text_49">
      <!-- 0.00 -->
      <g transform="translate(736.654688 164.185794) scale(0.1 -0.1)">
       <use xlink:href="#DejaVuSans-30"/>
       <use xlink:href="#DejaVuSans-2e" x="63.623047"/>
       <use xlink:href="#DejaVuSans-30" x="95.410156"/>
       <use xlink:href="#DejaVuSans-30" x="159.033203"/>
      </g>
     </g>
    </g>
    <g id="ytick_20">
     <g id="line2d_90">
      <path d="M 765.920313 124.267917 
L 1065.180313 124.267917 
" clip-path="url(#p308b63fc88)" style="fill: none; stroke: #b0b0b0; stroke-opacity: 0.5; stroke-width: 0.8; stroke-linecap: square"/>
     </g>
     <g id="line2d_91">
      <g>
       <use xlink:href="#m0e46d3b368" x="765.920313" y="124.267917" style="stroke: #000000; stroke-width: 0.8"/>
      </g>
     </g>
     <g id="text_50">
      <!-- 0.25 -->
      <g transform="translate(736.654688 128.067136) scale(0.1 -0.1)">
       <use xlink:href="#DejaVuSans-30"/>
       <use xlink:href="#DejaVuSans-2e" x="63.623047"/>
       <use xlink:href="#DejaVuSans-32" x="95.410156"/>
       <use xlink:href="#DejaVuSans-35" x="159.033203"/>
      </g>
     </g>
    </g>
    <g id="ytick_21">
     <g id="line2d_92">
      <path d="M 765.920313 88.149258 
L 1065.180313 88.149258 
" clip-path="url(#p308b63fc88)" style="fill: none; stroke: #b0b0b0; stroke-opacity: 0.5; stroke-width: 0.8; stroke-linecap: square"/>
     </g>
     <g id="line2d_93">
      <g>
       <use xlink:href="#m0e46d3b368" x="765.920313" y="88.149258" style="stroke: #000000; stroke-width: 0.8"/>
      </g>
     </g>
     <g id="text_51">
      <!-- 0.50 -->
      <g transform="translate(736.654688 91.948477) scale(0.1 -0.1)">
       <use xlink:href="#DejaVuSans-30"/>
       <use xlink:href="#DejaVuSans-2e" x="63.623047"/>
       <use xlink:href="#DejaVuSans-35" x="95.410156"/>
       <use xlink:href="#DejaVuSans-30" x="159.033203"/>
      </g>
     </g>
    </g>
    <g id="ytick_22">
     <g id="line2d_94">
      <path d="M 765.920313 52.030599 
L 1065.180313 52.030599 
" clip-path="url(#p308b63fc88)" style="fill: none; stroke: #b0b0b0; stroke-opacity: 0.5; stroke-width: 0.8; stroke-linecap: square"/>
     </g>
     <g id="line2d_95">
      <g>
       <use xlink:href="#m0e46d3b368" x="765.920313" y="52.030599" style="stroke: #000000; stroke-width: 0.8"/>
      </g>
     </g>
     <g id="text_52">
      <!-- 0.75 -->
      <g transform="translate(736.654688 55.829818) scale(0.1 -0.1)">
       <use xlink:href="#DejaVuSans-30"/>
       <use xlink:href="#DejaVuSans-2e" x="63.623047"/>
       <use xlink:href="#DejaVuSans-37" x="95.410156"/>
       <use xlink:href="#DejaVuSans-35" x="159.033203"/>
      </g>
     </g>
    </g>
    <g id="ytick_23">
     <g id="line2d_96">
      <path d="M 765.920313 15.911941 
L 1065.180313 15.911941 
" clip-path="url(#p308b63fc88)" style="fill: none; stroke: #b0b0b0; stroke-opacity: 0.5; stroke-width: 0.8; stroke-linecap: square"/>
     </g>
     <g id="line2d_97">
      <g>
       <use xlink:href="#m0e46d3b368" x="765.920313" y="15.911941" style="stroke: #000000; stroke-width: 0.8"/>
      </g>
     </g>
     <g id="text_53">
      <!-- 1.00 -->
      <g transform="translate(736.654688 19.711159) scale(0.1 -0.1)">
       <use xlink:href="#DejaVuSans-31"/>
       <use xlink:href="#DejaVuSans-2e" x="63.623047"/>
       <use xlink:href="#DejaVuSans-30" x="95.410156"/>
       <use xlink:href="#DejaVuSans-30" x="159.033203"/>
      </g>
     </g>
    </g>
    <g id="text_54">
     <!-- Restoring force -->
     <g transform="translate(722.195312 198.734844) rotate(-90) scale(0.1 -0.1)">
      <use xlink:href="#DejaVuSans-52"/>
      <use xlink:href="#DejaVuSans-65" x="64.982422"/>
      <use xlink:href="#DejaVuSans-73" x="126.505859"/>
      <use xlink:href="#DejaVuSans-74" x="178.605469"/>
      <use xlink:href="#DejaVuSans-6f" x="217.814453"/>
      <use xlink:href="#DejaVuSans-72" x="278.996094"/>
      <use xlink:href="#DejaVuSans-69" x="320.109375"/>
      <use xlink:href="#DejaVuSans-6e" x="347.892578"/>
      <use xlink:href="#DejaVuSans-67" x="411.271484"/>
      <use xlink:href="#DejaVuSans-20" x="474.748047"/>
      <use xlink:href="#DejaVuSans-66" x="506.535156"/>
      <use xlink:href="#DejaVuSans-6f" x="541.740234"/>
      <use xlink:href="#DejaVuSans-72" x="602.921875"/>
      <use xlink:href="#DejaVuSans-63" x="641.785156"/>
      <use xlink:href="#DejaVuSans-65" x="696.765625"/>
     </g>
    </g>
   </g>
   <g id="line2d_98">
    <path d="M 917.663081 160.386576 
L 921.542175 152.124167 
L 925.709928 143.767168 
L 927.100544 141.093061 
L 926.262669 142.930342 
L 914.814847 167.833886 
L 910.72649 176.084198 
L 906.303951 184.45701 
L 901.718152 192.572015 
L 897.163486 200.098503 
L 892.851448 206.766411 
L 888.310045 213.339293 
L 883.965798 219.222967 
L 882.378239 221.279266 
L 882.503968 221.003587 
L 912.73086 154.841478 
L 916.343376 147.433203 
L 920.066956 140.206162 
L 923.879624 133.212833 
L 927.759077 126.495613 
L 931.682799 120.087384 
L 935.628154 114.012302 
L 939.572466 108.286746 
L 943.493076 102.920345 
L 947.367393 97.917027 
L 951.172936 93.276042 
L 954.887368 88.992937 
L 960.23976 83.22285 
L 965.263456 78.208997 
L 969.885888 73.91425 
L 975.302597 69.241627 
L 980.646531 64.984087 
L 985.474842 61.415416 
L 985.467034 61.444913 
L 937.655113 166.141433 
L 932.062049 177.400018 
L 926.328308 188.001696 
L 920.489372 197.901103 
L 914.57995 207.076601 
L 908.633908 215.525901 
L 902.684244 223.261873 
L 896.763089 230.30874 
L 890.901744 236.698751 
L 885.130721 242.469376 
L 879.479791 247.661008 
L 873.978029 252.315142 
L 868.653862 256.472965 
L 863.535094 260.174315 
L 858.648929 263.456922 
L 854.021975 266.355899 
L 847.624275 270.054549 
L 841.953236 273.056823 
L 835.662648 276.110293 
L 829.31441 278.92269 
L 827.151848 279.821995 
L 883.88728 155.533607 
L 887.300146 148.521341 
L 890.761205 141.767606 
L 894.264506 135.279366 
L 897.804201 129.060834 
L 901.374547 123.113781 
L 904.969905 117.437828 
L 908.584746 112.030737 
L 912.213648 106.888675 
L 915.851293 102.006469 
L 919.492467 97.377841 
L 923.132059 92.995619 
L 926.765052 88.85193 
L 930.386525 84.938368 
L 933.991647 81.246154 
L 937.575671 77.766259 
L 941.133936 74.48953 
L 944.661856 71.406782 
L 951.608697 65.786838 
L 958.380955 60.835235 
L 964.944441 56.484412 
L 971.26594 52.671524 
L 977.313153 49.339069 
L 983.054669 46.435148 
L 988.459955 43.913493 
L 995.872865 40.759983 
L 1002.366699 38.260156 
L 1009.439062 35.788606 
L 1017.422197 33.280762 
L 1018.08199 33.085969 
L 957.098265 166.619517 
L 953.31462 174.288259 
L 949.476885 181.634297 
L 945.591982 188.652235 
L 941.666694 195.340058 
L 937.707667 201.698695 
L 933.721404 207.731597 
L 929.714272 213.444346 
L 925.692497 218.844291 
L 921.662173 223.940206 
L 917.629262 228.741993 
L 913.599599 233.260409 
L 909.578901 237.506827 
L 905.572768 241.493029 
L 901.586686 245.23102 
L 897.626041 248.732881 
L 893.696114 252.010637 
L 889.802095 255.076145 
L 885.949079 257.941014 
L 882.142077 260.616528 
L 874.685747 265.442702 
L 867.471592 269.636722 
L 860.536914 273.273187 
L 853.917887 276.418949 
L 847.649585 279.133175 
L 841.765984 281.467668 
L 833.733444 284.353842 
L 826.745987 286.610242 
L 819.225801 288.802857 
L 810.669532 291.032924 
L 810.883963 290.541327 
L 871.582677 157.504498 
L 875.580085 149.226694 
L 879.642102 141.308793 
L 883.761068 133.757693 
L 887.929476 126.576125 
L 892.139976 119.763202 
L 896.385377 113.314942 
L 900.658644 107.224773 
L 904.952901 101.483981 
L 909.261421 96.082143 
L 913.577628 91.007495 
L 917.895085 86.247276 
L 922.207495 81.788019 
L 926.508688 77.615813 
L 930.792621 73.716516 
L 935.053367 70.075948 
L 939.285111 66.680043 
L 943.482147 63.514975 
L 947.638867 60.567264 
L 951.749759 57.823854 
L 955.809406 55.272174 
L 959.812474 52.900184 
L 967.627969 48.649951 
L 975.155227 44.988367 
L 982.354477 41.840065 
L 989.187157 39.138867 
L 995.61592 36.82728 
L 1004.4231 33.984239 
L 1012.124254 31.771417 
L 1020.484609 29.623594 
L 1029.813415 27.502008 
L 1030.523486 27.356436 
L 967.378108 165.665713 
L 963.161806 174.22909 
L 958.875511 182.396595 
L 954.527363 190.162582 
L 950.125335 197.525942 
L 945.67723 204.489464 
L 941.190679 211.059228 
L 936.67314 217.244033 
L 932.131907 223.054882 
L 927.574112 228.504503 
L 923.00673 233.606935 
L 918.436585 238.377152 
L 913.87036 242.830742 
L 909.314599 246.983632 
L 904.775721 250.851852 
L 900.260019 254.451342 
L 895.773673 257.79779 
L 891.322754 260.906509 
L 886.913228 263.792327 
L 882.550964 266.46952 
L 878.241738 268.951748 
L 873.991235 271.252021 
L 865.688715 275.355357 
L 857.687221 278.869974 
L 850.029288 281.875478 
L 842.756199 284.441126 
L 835.90797 286.626561 
L 826.516523 289.30097 
L 818.292449 291.372098 
L 809.343776 293.374553 
L 799.271367 295.355574 
L 798.447811 295.505618 
L 860.295449 159.906308 
L 864.644956 150.78529 
L 869.076179 142.085574 
L 873.580441 133.815671 
L 878.149241 125.978672 
L 882.774259 118.572986 
L 887.447359 111.593063 
L 892.160587 105.030059 
L 896.906168 98.872462 
L 901.676502 93.106652 
L 906.464156 87.717404 
L 911.261859 82.688333 
L 916.062493 78.002284 
L 920.859087 73.641656 
L 925.644805 69.588691 
L 930.412945 65.8257 
L 935.156924 62.335258 
L 939.870276 59.100359 
L 944.546642 56.104529 
L 949.179768 53.331927 
L 953.763496 50.767402 
L 958.291761 48.396545 
L 962.758585 46.205713 
L 971.484434 42.313445 
L 979.894898 38.996989 
L 987.945117 36.174759 
L 995.591505 33.776425 
L 1002.791782 31.741942 
L 1012.666633 29.263525 
L 1021.314185 27.353241 
L 1030.72288 25.514318 
L 1041.307077 23.703816 
L 1042.168947 23.567751 
L 977.302657 165.641232 
L 972.755073 174.841884 
L 968.123661 183.588575 
L 963.4174 191.875747 
L 958.64508 199.703341 
L 953.815294 207.075979 
L 948.936448 214.002184 
L 944.016753 220.493663 
L 939.064237 226.564647 
L 934.086748 232.231305 
L 929.091963 237.511219 
L 924.087396 242.422931 
L 919.080405 246.985554 
L 914.078203 251.218442 
L 909.087864 255.140909 
L 904.116336 258.772014 
L 899.170443 262.13037 
L 894.256897 265.23401 
L 889.382302 268.100277 
L 884.553164 270.745744 
L 879.77589 273.186164 
L 875.056799 275.436439 
L 870.402119 277.510598 
L 861.3105 281.182366 
L 852.549225 284.296592 
L 844.165199 286.935433 
L 836.204038 289.169112 
L 828.710014 291.057107 
L 818.43819 293.347929 
L 809.451539 295.106054 
L 799.690542 296.791027 
L 788.019072 298.542374 
L 787.945746 298.54781 
L 851.293975 159.664332 
L 855.931709 149.989543 
L 860.663746 140.788333 
L 865.480674 132.06929 
L 870.373275 123.834642 
L 875.332532 116.081172 
L 880.349632 108.801105 
L 885.415959 101.98292 
L 890.523095 95.612108 
L 895.662809 89.671851 
L 900.827052 84.143621 
L 906.007948 79.007707 
L 911.197784 74.24367 
L 916.389002 69.830724 
L 921.574186 65.748058 
L 926.746059 61.975099 
L 931.897466 58.491721 
L 937.021373 55.278413 
L 942.110857 52.316405 
L 947.159098 49.587755 
L 952.159374 47.075419 
L 957.105056 44.763283 
L 961.989606 42.636184 
L 966.806567 40.679912 
L 976.212321 37.227702 
L 985.272314 34.311372 
L 993.937826 31.849311 
L 1002.161451 29.772301 
L 1009.897158 28.022139 
L 1020.48885 25.905857 
L 1029.739405 24.287913 
L 1039.756845 22.7441 
L 1051.537676 21.165455 
L 1051.577585 21.182915 
L 985.20016 166.515194 
L 980.39076 176.152967 
L 975.486683 185.289861 
L 970.497542 193.920942 
L 965.432738 202.04752 
L 960.301466 209.676178 
L 955.112712 216.817846 
L 949.875257 223.486954 
L 944.597685 229.700665 
L 939.288389 235.478186 
L 933.95558 240.840165 
L 928.607297 245.808176 
L 923.25142 250.404275 
L 917.895674 254.650632 
L 912.547646 258.569221 
L 907.214788 262.181586 
L 901.904432 265.508638 
L 896.623794 268.570516 
L 891.379982 271.386474 
L 886.180005 273.974808 
L 881.030775 276.352813 
L 875.939117 278.536754 
L 870.911767 280.541865 
L 865.955378 282.382361 
L 856.281691 285.621402 
L 846.969671 288.348231 
L 838.069645 290.643061 
L 829.630602 292.57344 
L 821.700116 294.195783 
L 810.85818 296.151709 
L 798.597343 298.05167 
L 787.247807 299.562485 
L 779.52304 300.474545 
L 779.532337 300.405077 
L 844.165361 158.725769 
L 849.032381 148.667878 
L 854.003616 139.125721 
L 859.069092 130.107471 
L 864.21905 121.614213 
L 869.443945 113.641008 
L 874.734445 106.177917 
L 880.081433 99.210942 
L 885.476 92.722892 
L 885.476 92.722892 
" clip-path="url(#p308b63fc88)" style="fill: none; stroke: #0000ff; stroke-width: 1.5; stroke-linecap: square"/>
   </g>
   <g id="line2d_99">
    <defs>
     <path id="mf6a9934c2e" d="M 0 -3 
L -0.673542 -0.927051 
L -2.85317 -0.927051 
L -1.089814 0.354102 
L -1.763356 2.427051 
L -0 1.145898 
L 1.763356 2.427051 
L 1.089814 0.354102 
L 2.85317 -0.927051 
L 0.673542 -0.927051 
z
" style="stroke: #0000ff; stroke-linejoin: bevel"/>
    </defs>
    <g clip-path="url(#p308b63fc88)">
     <use xlink:href="#mf6a9934c2e" x="917.663081" y="160.386576" style="fill: #0000ff; stroke: #0000ff; stroke-linejoin: bevel"/>
    </g>
   </g>
   <g id="patch_14">
    <path d="M 765.920313 314.44 
L 765.920313 7.2 
" style="fill: none; stroke: #000000; stroke-width: 0.8; stroke-linejoin: miter; stroke-linecap: square"/>
   </g>
   <g id="patch_15">
    <path d="M 1065.180313 314.44 
L 1065.180313 7.2 
" style="fill: none; stroke: #000000; stroke-width: 0.8; stroke-linejoin: miter; stroke-linecap: square"/>
   </g>
   <g id="patch_16">
    <path d="M 765.920313 314.44 
L 1065.180313 314.44 
" style="fill: none; stroke: #000000; stroke-width: 0.8; stroke-linejoin: miter; stroke-linecap: square"/>
   </g>
   <g id="patch_17">
    <path d="M 765.920313 7.2 
L 1065.180313 7.2 
" style="fill: none; stroke: #000000; stroke-width: 0.8; stroke-linejoin: miter; stroke-linecap: square"/>
   </g>
  </g>
 </g>
 <defs>
  <clipPath id="p663645ee75">
   <rect x="42.620313" y="7.2" width="299.26" height="307.24"/>
  </clipPath>
  <clipPath id="p49337bcf22">
   <rect x="404.270312" y="7.2" width="299.26" height="307.24"/>
  </clipPath>
  <clipPath id="p308b63fc88">
   <rect x="765.920313" y="7.2" width="299.26" height="307.24"/>
  </clipPath>
 </defs>
</svg>
