<?xml version="1.0" encoding="utf-8" standalone="no"?>
<!DOCTYPE svg PUBLIC "-//W3C//DTD SVG 1.1//EN"
  "http://www.w3.org/Graphics/SVG/1.1/DTD/svg11.dtd">
<svg xmlns:xlink="http://www.w3.org/1999/xlink" width="352.7pt" height="350.54pt" viewBox="0 0 352.7 350.54" xmlns="http://www.w3.org/2000/svg" version="1.1">
 <metadata>
  <rdf:RDF xmlns:dc="http://purl.org/dc/elements/1.1/" xmlns:cc="http://creativecommons.org/ns#" xmlns:rdf="http://www.w3.org/1999/02/22-rdf-syntax-ns#">
   <cc:Work>
    <dc:type rdf:resource="http://purl.org/dc/dcmitype/StillImage"/>
    <dc:date>2025-02-15T23:06:41.042657</dc:date>
    <dc:format>image/svg+xml</dc:format>
    <dc:creator>
     <cc:Agent>
      <dc:title>Matplotlib v3.9.2, https://matplotlib.org/</dc:title>
     </cc:Agent>
    </dc:creator>
   </cc:Work>
  </rdf:RDF>
 </metadata>
 <defs>
  <style type="text/css">*{stroke-linejoin: round; stroke-linecap: butt}</style>
 </defs>
 <g id="figure_1">
  <g id="patch_1">
   <path d="M 0 350.54 
L 352.7 350.54 
L 352.7 0 
L 0 0 
z
" style="fill: #ffffff"/>
  </g>
  <g id="axes_1">
   <g id="patch_2">
    <path d="M 10.7 339.84 
L 345.5 339.84 
L 345.5 7.2 
L 10.7 7.2 
z
" style="fill: #ffffff"/>
   </g>
   <g id="matplotlib.axis_1">
    <g id="xtick_1">
     <g id="line2d_1">
      <path d="M 29.209443 339.84 
L 29.209443 7.2 
" clip-path="url(#p9e1e42b4d9)" style="fill: none; stroke: #b0b0b0; stroke-opacity: 0.3; stroke-width: 0.8; stroke-linecap: square"/>
     </g>
     <g id="line2d_2">
      <defs>
       <path id="maa6d12c8f9" d="M 0 0 
L 0 3.5 
" style="stroke: #000000; stroke-width: 0.8"/>
      </defs>
      <g>
       <use xlink:href="#maa6d12c8f9" x="29.209443" y="339.84" style="stroke: #000000; stroke-width: 0.8"/>
      </g>
     </g>
    </g>
    <g id="xtick_2">
     <g id="line2d_3">
      <path d="M 71.427572 339.84 
L 71.427572 7.2 
" clip-path="url(#p9e1e42b4d9)" style="fill: none; stroke: #b0b0b0; stroke-opacity: 0.3; stroke-width: 0.8; stroke-linecap: square"/>
     </g>
     <g id="line2d_4">
      <g>
       <use xlink:href="#maa6d12c8f9" x="71.427572" y="339.84" style="stroke: #000000; stroke-width: 0.8"/>
      </g>
     </g>
    </g>
    <g id="xtick_3">
     <g id="line2d_5">
      <path d="M 113.645701 339.84 
L 113.645701 7.2 
" clip-path="url(#p9e1e42b4d9)" style="fill: none; stroke: #b0b0b0; stroke-opacity: 0.3; stroke-width: 0.8; stroke-linecap: square"/>
     </g>
     <g id="line2d_6">
      <g>
       <use xlink:href="#maa6d12c8f9" x="113.645701" y="339.84" style="stroke: #000000; stroke-width: 0.8"/>
      </g>
     </g>
    </g>
    <g id="xtick_4">
     <g id="line2d_7">
      <path d="M 155.86383 339.84 
L 155.86383 7.2 
" clip-path="url(#p9e1e42b4d9)" style="fill: none; stroke: #b0b0b0; stroke-opacity: 0.3; stroke-width: 0.8; stroke-linecap: square"/>
     </g>
     <g id="line2d_8">
      <g>
       <use xlink:href="#maa6d12c8f9" x="155.86383" y="339.84" style="stroke: #000000; stroke-width: 0.8"/>
      </g>
     </g>
    </g>
    <g id="xtick_5">
     <g id="line2d_9">
      <path d="M 198.081959 339.84 
L 198.081959 7.2 
" clip-path="url(#p9e1e42b4d9)" style="fill: none; stroke: #b0b0b0; stroke-opacity: 0.3; stroke-width: 0.8; stroke-linecap: square"/>
     </g>
     <g id="line2d_10">
      <g>
       <use xlink:href="#maa6d12c8f9" x="198.081959" y="339.84" style="stroke: #000000; stroke-width: 0.8"/>
      </g>
     </g>
    </g>
    <g id="xtick_6">
     <g id="line2d_11">
      <path d="M 240.300088 339.84 
L 240.300088 7.2 
" clip-path="url(#p9e1e42b4d9)" style="fill: none; stroke: #b0b0b0; stroke-opacity: 0.3; stroke-width: 0.8; stroke-linecap: square"/>
     </g>
     <g id="line2d_12">
      <g>
       <use xlink:href="#maa6d12c8f9" x="240.300088" y="339.84" style="stroke: #000000; stroke-width: 0.8"/>
      </g>
     </g>
    </g>
    <g id="xtick_7">
     <g id="line2d_13">
      <path d="M 282.518217 339.84 
L 282.518217 7.2 
" clip-path="url(#p9e1e42b4d9)" style="fill: none; stroke: #b0b0b0; stroke-opacity: 0.3; stroke-width: 0.8; stroke-linecap: square"/>
     </g>
     <g id="line2d_14">
      <g>
       <use xlink:href="#maa6d12c8f9" x="282.518217" y="339.84" style="stroke: #000000; stroke-width: 0.8"/>
      </g>
     </g>
    </g>
    <g id="xtick_8">
     <g id="line2d_15">
      <path d="M 324.736347 339.84 
L 324.736347 7.2 
" clip-path="url(#p9e1e42b4d9)" style="fill: none; stroke: #b0b0b0; stroke-opacity: 0.3; stroke-width: 0.8; stroke-linecap: square"/>
     </g>
     <g id="line2d_16">
      <g>
       <use xlink:href="#maa6d12c8f9" x="324.736347" y="339.84" style="stroke: #000000; stroke-width: 0.8"/>
      </g>
     </g>
    </g>
   </g>
   <g id="matplotlib.axis_2">
    <g id="ytick_1">
     <g id="line2d_17">
      <path d="M 10.7 331.062573 
L 345.5 331.062573 
" clip-path="url(#p9e1e42b4d9)" style="fill: none; stroke: #b0b0b0; stroke-opacity: 0.3; stroke-width: 0.8; stroke-linecap: square"/>
     </g>
     <g id="line2d_18">
      <defs>
       <path id="m2a35998dc9" d="M 0 0 
L -3.5 0 
" style="stroke: #000000; stroke-width: 0.8"/>
      </defs>
      <g>
       <use xlink:href="#m2a35998dc9" x="10.7" y="331.062573" style="stroke: #000000; stroke-width: 0.8"/>
      </g>
     </g>
    </g>
    <g id="ytick_2">
     <g id="line2d_19">
      <path d="M 10.7 263.871644 
L 345.5 263.871644 
" clip-path="url(#p9e1e42b4d9)" style="fill: none; stroke: #b0b0b0; stroke-opacity: 0.3; stroke-width: 0.8; stroke-linecap: square"/>
     </g>
     <g id="line2d_20">
      <g>
       <use xlink:href="#m2a35998dc9" x="10.7" y="263.871644" style="stroke: #000000; stroke-width: 0.8"/>
      </g>
     </g>
    </g>
    <g id="ytick_3">
     <g id="line2d_21">
      <path d="M 10.7 196.680715 
L 345.5 196.680715 
" clip-path="url(#p9e1e42b4d9)" style="fill: none; stroke: #b0b0b0; stroke-opacity: 0.3; stroke-width: 0.8; stroke-linecap: square"/>
     </g>
     <g id="line2d_22">
      <g>
       <use xlink:href="#m2a35998dc9" x="10.7" y="196.680715" style="stroke: #000000; stroke-width: 0.8"/>
      </g>
     </g>
    </g>
    <g id="ytick_4">
     <g id="line2d_23">
      <path d="M 10.7 129.489786 
L 345.5 129.489786 
" clip-path="url(#p9e1e42b4d9)" style="fill: none; stroke: #b0b0b0; stroke-opacity: 0.3; stroke-width: 0.8; stroke-linecap: square"/>
     </g>
     <g id="line2d_24">
      <g>
       <use xlink:href="#m2a35998dc9" x="10.7" y="129.489786" style="stroke: #000000; stroke-width: 0.8"/>
      </g>
     </g>
    </g>
    <g id="ytick_5">
     <g id="line2d_25">
      <path d="M 10.7 62.298857 
L 345.5 62.298857 
" clip-path="url(#p9e1e42b4d9)" style="fill: none; stroke: #b0b0b0; stroke-opacity: 0.3; stroke-width: 0.8; stroke-linecap: square"/>
     </g>
     <g id="line2d_26">
      <g>
       <use xlink:href="#m2a35998dc9" x="10.7" y="62.298857" style="stroke: #000000; stroke-width: 0.8"/>
      </g>
     </g>
    </g>
   </g>
   <g id="line2d_27">
    <path d="M 198.081959 196.680715 
L 204.57073 186.557593 
L 211.199673 176.625574 
L 216.89756 168.413277 
L 216.814838 168.582066 
L 213.436099 175.272113 
L 209.10992 183.334558 
L 204.716205 190.979381 
L 201.272375 196.615092 
L 197.450788 202.57556 
L 193.289683 208.75827 
L 188.834965 215.050789 
L 184.139594 221.338227 
L 179.262694 227.513928 
L 174.268892 233.483863 
L 169.227576 239.168213 
L 164.211932 244.501855 
L 159.298495 249.433521 
L 154.566103 253.924338 
L 147.983599 259.774343 
L 142.265158 264.506104 
L 136.456764 269.001984 
L 132.881886 271.624848 
L 132.997509 271.440975 
L 152.782774 240.63779 
L 174.910625 205.761742 
L 183.685251 191.943155 
L 188.272291 185.243628 
L 192.9718 178.858879 
L 197.768459 172.806191 
L 207.589692 159.112972 
L 212.579233 152.438044 
L 217.597398 145.928419 
L 222.626033 139.603737 
L 227.646878 133.480997 
L 232.641621 127.574682 
L 242.479843 116.457923 
L 251.995523 106.325885 
L 261.045448 97.223222 
L 269.489741 89.173211 
L 277.192518 82.1843 
L 284.023237 76.256359 
L 292.363765 69.345726 
L 301.015351 62.540606 
L 298.04702 73.263834 
L 294.281729 86.158985 
L 289.056576 102.827953 
L 285.925712 112.175751 
L 282.468867 121.973428 
L 278.702669 132.055802 
L 274.644731 142.268629 
L 270.313433 152.471028 
L 265.727693 162.539038 
L 260.906608 172.36716 
L 255.869226 181.868622 
L 250.634456 190.975134 
L 245.220884 199.660292 
L 239.646771 208.057076 
L 233.930295 216.168193 
L 228.089606 223.962865 
L 222.142761 231.418687 
L 216.107684 238.520057 
L 210.002133 245.257475 
L 203.843681 251.626785 
L 197.649703 257.598565 
L 191.437178 262.822781 
L 185.222282 267.685867 
L 179.02084 272.202159 
L 172.848498 276.387266 
L 166.720768 280.257562 
L 160.653033 283.830139 
L 154.660532 287.122251 
L 148.758363 290.151049 
L 142.961555 292.933212 
L 137.28507 295.484881 
L 131.743797 297.821619 
L 126.352515 299.958211 
L 116.078597 303.6859 
L 106.579885 306.768633 
L 97.971266 309.292596 
L 86.972367 312.184524 
L 76.443886 314.64183 
L 71.038278 315.797413 
L 71.100109 315.664042 
L 86.402837 292.266562 
L 108.982083 257.355071 
L 133.073686 219.592202 
L 146.668277 198.046681 
L 153.761102 187.308038 
L 161.013337 177.482419 
L 168.398007 168.553755 
L 175.889547 160.483855 
L 183.463657 153.224467 
L 191.097222 146.720102 
L 198.768241 140.548056 
L 206.45368 131.225504 
L 214.125122 122.348826 
L 221.753507 113.92707 
L 229.310351 105.964241 
L 236.767755 98.459892 
L 244.098403 91.409805 
L 251.275647 84.807156 
L 258.273517 78.64291 
L 265.066732 72.906065 
L 271.630682 67.58448 
L 277.941466 62.665204 
L 283.975928 58.135171 
L 295.127018 50.190294 
L 304.913768 43.648121 
L 313.178656 38.418279 
L 322.411267 32.87825 
L 328.357813 29.492356 
L 325.765029 40.201194 
L 321.424304 57.175142 
L 318.500384 67.968622 
L 315.097481 79.917743 
L 311.237384 92.715684 
L 306.944436 106.060474 
L 302.244722 119.66816 
L 297.165693 133.280913 
L 291.735504 146.676278 
L 285.982398 159.669629 
L 279.934491 172.115103 
L 273.619376 183.904274 
L 267.063871 194.958964 
L 260.293931 205.407206 
L 253.334882 215.384176 
L 246.211705 224.861633 
L 238.949009 233.815633 
L 231.570969 242.23385 
L 224.101286 250.113047 
L 216.56319 257.458581 
L 208.979416 264.282228 
L 201.372228 270.600698 
L 193.76339 276.07381 
L 186.173495 280.826279 
L 178.622124 285.160191 
L 171.12853 289.10516 
L 163.711686 292.690337 
L 156.390257 295.9439 
L 149.18269 298.89271 
L 142.107256 301.562218 
L 135.182011 303.976319 
L 128.424783 306.157201 
L 121.853233 308.125389 
L 109.336992 311.497488 
L 97.770794 314.224303 
L 87.288496 316.413809 
L 78.019816 318.15252 
L 66.662598 320.059746 
L 53.985026 321.933804 
L 53.929807 321.905902 
L 74.813531 289.99342 
L 95.858963 257.437311 
L 115.546933 226.615421 
L 137.805504 191.537452 
L 145.65133 180.495586 
L 153.656435 170.534371 
L 161.79059 161.605052 
L 170.025249 153.64281 
L 178.333321 146.574701 
L 186.689132 140.323823 
L 195.068226 134.813164 
L 203.446695 126.692683 
L 211.795113 117.284822 
L 220.080337 108.412871 
L 228.269908 100.075329 
L 236.33223 92.26633 
L 244.236567 84.975801 
L 251.953037 78.190771 
L 259.452639 71.896004 
L 266.707298 66.075166 
L 273.689867 60.711011 
L 280.374127 55.785664 
L 286.734783 51.281386 
L 298.388894 43.467307 
L 308.469282 37.140838 
L 316.808997 32.191603 
L 325.730779 27.166348 
L 330.281818 24.691838 
L 327.790438 35.194848 
L 323.2875 53.124326 
L 320.21705 64.637233 
L 316.626799 77.409018 
L 312.54113 91.087022 
L 307.987173 105.32672 
L 302.993984 119.805735 
L 297.592059 134.235249 
L 291.812514 148.369392 
L 285.686533 162.007622 
L 279.245049 174.995628 
L 272.5183 187.221929 
L 265.535622 198.63373 
L 258.325409 209.457332 
L 250.915484 219.7485 
L 243.333279 229.474529 
L 235.605766 238.615031 
L 227.759382 247.162544 
L 219.820015 255.119215 
L 211.813006 262.496111 
L 203.763121 269.311016 
L 195.694577 275.369397 
L 187.630526 280.466448 
L 179.592756 285.09735 
L 171.602578 289.296242 
L 163.680955 293.096809 
L 155.848468 296.531613 
L 148.125421 299.631687 
L 140.531881 302.426416 
L 133.087632 304.94329 
L 125.81218 307.207763 
L 118.724828 309.243314 
L 111.844667 311.071451 
L 98.780938 314.181888 
L 86.768334 316.674098 
L 75.949656 318.656736 
L 62.258282 320.8577 
L 49.40216 322.653747 
L 43.248978 323.432001 
L 55.277507 305.104817 
L 72.99382 277.881545 
L 90.87715 250.113433 
L 112.025736 216.897403 
L 127.548731 192.411289 
L 135.636846 180.962296 
L 143.897237 170.665814 
L 152.297962 161.46551 
L 160.808782 153.289936 
L 169.401136 146.058821 
L 178.047898 139.688335 
L 186.723243 134.094167 
L 195.402524 129.194884 
L 204.061341 120.98747 
L 212.668666 111.592726 
L 221.189767 102.768242 
L 229.590778 94.508075 
L 237.838772 86.801621 
L 245.901782 79.634644 
L 253.748848 72.990871 
L 261.350028 66.852128 
L 268.676388 61.198928 
L 275.700003 56.011326 
L 282.393992 51.26941 
L 288.732532 46.953942 
L 300.24527 39.52891 
L 310.05297 33.60025 
L 317.988095 29.054708 
L 327.663767 23.799658 
L 329.165148 23.011418 
L 329.039821 23.652452 
L 325.097615 40.118115 
L 322.61134 49.986244 
L 319.561675 61.572387 
L 315.969674 74.52063 
L 311.860283 88.45879 
L 307.261376 103.020225 
L 302.203154 117.859228 
L 296.717209 132.667274 
L 290.835869 147.180042 
L 284.591692 161.182603 
L 278.016871 174.50928 
L 271.142952 187.041564 
L 264.000543 198.718046 
L 256.619244 209.782042 
L 249.028068 220.29156 
L 241.255631 230.210814 
L 233.330039 239.518712 
L 225.278866 248.207876 
L 217.129093 256.282239 
L 208.907085 263.754404 
L 200.638648 270.643436 
L 192.34892 276.472013 
L 184.061533 281.605697 
L 175.799137 286.259244 
L 167.583973 290.468975 
L 159.437867 294.270555 
L 151.382275 297.698293 
L 143.438377 300.784882 
L 135.627059 303.56118 
L 127.968878 306.05586 
L 120.484149 308.295465 
L 113.192962 310.304405 
L 106.115136 312.104949 
L 92.677355 315.159632 
L 80.323663 317.598329 
L 69.201768 319.532025 
L 55.136132 321.671191 
L 41.950138 323.409198 
L 35.683405 324.155384 
L 61.074236 285.333693 
L 84.677055 248.725353 
L 106.329339 214.693995 
L 114.142661 202.307202 
L 122.197173 189.838 
L 130.457125 178.485374 
L 138.88826 168.307936 
L 147.458221 159.24221 
L 156.136408 151.210252 
L 164.893912 144.126962 
L 173.703229 137.904186 
L 182.538208 132.454706 
L 191.373805 127.694661 
L 200.185935 122.070816 
L 208.947128 112.458357 
L 217.622374 103.436015 
L 226.176659 94.997286 
L 234.575984 87.130927 
L 242.787365 79.821611 
L 250.778878 73.051766 
L 258.51968 66.802205 
L 265.980005 61.052244 
L 273.131161 55.780818 
L 279.945543 50.966726 
L 286.396667 46.589524 
L 298.108794 39.068585 
L 308.078181 33.07495 
L 316.133963 28.489217 
L 325.91908 23.211629 
L 327.406863 22.436177 
L 326.502359 26.379798 
L 323.177667 40.195305 
L 320.625518 50.317813 
L 317.501202 62.166029 
L 313.82658 75.371805 
L 309.627465 89.551454 
L 304.932562 104.329724 
L 299.772874 119.35426 
L 294.180787 134.312473 
L 288.189342 148.938524 
L 281.831763 163.0179 
L 275.140852 176.38697 
L 268.148711 188.930466 
L 260.886453 200.615661 
L 253.384207 211.711103 
L 245.671571 222.232905 
L 237.777717 232.147242 
L 229.731297 241.435652 
L 221.560387 250.092493 
L 213.292474 258.123876 
L 204.954417 265.544374 
L 196.572479 272.252719 
L 188.17192 277.846705 
L 179.776472 282.920577 
L 171.409236 287.512976 
L 163.092901 291.6613 
L 154.849714 295.402037 
L 146.701568 298.770162 
L 138.670071 301.798949 
L 130.776501 304.519631 
L 123.041813 306.961167 
L 115.486719 309.150308 
L 108.131689 311.111585 
L 100.996879 312.867292 
L 87.467065 315.840759 
L 75.052669 318.209006 
L 63.903491 320.082131 
L 49.863343 322.146475 
L 36.84079 323.808552 
L 30.988624 324.476194 
L 48.333296 298.02288 
L 69.050384 266.071699 
L 89.047 234.861569 
L 112.057815 198.491288 
L 120.243801 186.207729 
L 128.628068 175.148108 
L 137.176533 165.262336 
L 145.857005 156.480089 
L 154.639036 148.718526 
L 163.493836 141.889299 
L 172.393984 135.902258 
L 181.313383 130.669326 
L 190.226997 126.106464 
L 199.110753 121.389374 
L 207.93812 111.743635 
L 216.674196 102.698421 
L 225.283477 94.246156 
L 233.73152 86.374568 
L 241.984938 79.067388 
L 250.011439 72.306025 
L 257.779851 66.070468 
L 265.260117 60.33933 
L 272.423296 55.090857 
L 279.241564 50.303273 
L 285.688254 45.955581 
L 297.36601 38.501182 
L 307.266472 32.582401 
L 315.218594 28.078718 
L 325.634804 22.498036 
L 325.978867 22.32 
L 323.356543 33.447663 
L 318.583984 52.5434 
L 315.328724 64.764812 
L 311.523228 78.276546 
L 307.194332 92.688826 
L 302.371598 107.625717 
L 297.086669 122.737695 
L 291.372542 137.717765 
L 285.262666 152.308315 
L 278.790539 166.303693 
L 271.989215 179.550131 
L 264.890915 191.940169 
L 257.526843 203.508148 
L 249.927296 214.519022 
L 242.122121 224.940776 
L 234.140716 234.743037 
L 226.011925 243.910304 
L 217.764018 252.440702 
L 209.424643 260.342676 
L 201.020826 267.633128 
L 192.578912 273.890117 
L 184.123797 279.367915 
L 175.679263 284.331675 
L 167.268577 288.819463 
L 158.914618 292.868988 
L 150.639861 296.517043 
L 142.466364 299.79869 
L 134.415893 302.747066 
L 126.509935 305.393272 
L 118.769639 307.766071 
L 111.215862 309.891912 
L 103.869212 311.795003 
L 96.75003 313.497339 
L 83.273756 316.377061 
L 70.943219 318.666675 
L 59.908924 320.47366 
L 46.099675 322.457062 
L 31.476098 324.268708 
L 28.322371 324.561272 
L 47.010437 296.047857 
L 68.400502 263.026806 
L 88.850736 231.067193 
L 112.242172 194.114186 
L 120.534844 182.215275 
L 129.015615 171.535113 
L 137.650852 162.014427 
L 146.408769 153.576449 
L 155.259358 146.135135 
L 164.174102 139.599873 
L 173.125927 133.880097 
L 182.088931 128.888046 
L 191.038277 124.540667 
L 199.950022 119.427705 
L 208.796859 109.865732 
L 217.54334 100.908888 
L 226.153879 92.548168 
L 234.593973 84.770077 
L 242.830199 77.557254 
L 250.830263 70.890381 
L 258.563007 64.74878 
L 265.998413 59.110504 
L 273.107596 53.953464 
L 279.862818 49.255643 
L 286.237516 44.995967 
L 297.744985 37.712308 
L 307.441191 31.957975 
L 318.224419 25.942876 
L 325.035945 22.37892 
L 321.901523 35.619712 
L 316.785545 55.866774 
L 313.362922 68.525524 
L 309.394848 82.368075 
L 304.9091 97.005581 
L 299.936122 112.064234 
L 294.508253 127.203994 
L 288.65879 142.129896 
L 282.421487 156.597627 
L 275.829941 170.415979 
L 268.917155 183.444857 
L 261.715266 195.585437 
L 254.255341 207.008159 
L 246.567705 217.868566 
L 238.682266 228.125591 
L 230.628447 237.753866 
L 222.435099 246.742305 
L 214.13048 255.092164 
L 205.742225 262.81519 
L 197.29734 269.888895 
L 188.821917 275.748699 
L 180.340465 281.071189 
L 171.876761 285.889212 
L 163.454138 290.241193 
L 155.095464 294.164934 
L 146.823208 297.696865 
L 138.659531 300.871772 
L 130.626253 303.722462 
L 122.744839 306.27942 
L 115.036493 308.570862 
L 107.522165 310.622723 
L 100.222479 312.458602 
L 93.157749 314.099883 
L 79.812968 316.873947 
L 67.644095 319.076246 
L 56.801165 320.810763 
L 43.333645 322.706081 
L 29.415705 324.405371 
L 26.78799 324.699925 
L 27.604648 323.432048 
L 47.101953 293.664579 
L 69.17755 259.547042 
L 90.06514 226.85656 
L 105.62848 202.237346 
L 113.800185 189.634013 
L 122.183389 178.159751 
L 130.743158 167.8949 
L 139.44642 158.766926 
L 148.261957 150.694456 
L 157.160231 143.588819 
L 166.113163 137.35836 
L 175.094056 131.91291 
L 184.077315 127.165742 
L 193.038375 123.035613 
L 201.953324 116.632995 
L 210.792633 107.226953 
L 219.520224 98.426905 
L 228.100667 90.22225 
L 236.499628 82.598053 
L 244.683877 75.535991 
L 252.621326 69.016168 
L 260.281041 63.017287 
L 267.633234 57.51702 
L 274.649261 52.493116 
L 281.301648 47.923604 
L 287.56411 43.787602 
L 298.820054 36.738212 
L 308.230738 31.203016 
L 318.528038 25.496745 
L 324.419279 22.388474 
L 324.402617 22.719365 
L 320.661212 38.429143 
L 318.198512 48.273323 
L 315.150788 59.936313 
L 311.539506 73.047535 
L 307.39037 87.214497 
L 302.732221 102.050529 
L 297.596276 117.190185 
L 292.015401 132.306271 
L 286.023195 147.119539 
L 279.653508 161.402791 
L 272.939884 174.9819 
L 265.915152 187.732813 
L 258.611193 199.601953 
L 251.058859 210.849924 
L 243.288422 221.519183 
L 235.32974 231.573237 
L 227.212133 240.991325 
L 218.964353 249.76717 
L 210.614533 257.906098 
L 202.19018 265.422534 
L 193.718142 271.984145 
L 185.223916 277.666394 
L 176.731753 282.817617 
L 168.265333 287.476324 
L 159.847924 291.68084 
L 151.502383 295.468846 
L 143.251125 298.876406 
L 135.116243 301.937706 
L 127.119546 304.684919 
L 119.282501 307.147907 
L 111.626259 309.354152 
L 104.171714 311.328856 
L 96.939492 313.094953 
L 83.222835 316.08207 
L 70.634674 318.457239 
L 59.327726 320.333062 
L 45.086227 322.397245 
L 31.871743 324.056875 
L 25.918182 324.72 
L 39.408491 304.165201 
L 58.449193 274.881947 
L 77.463733 245.310989 
L 99.786689 210.17164 
L 107.815971 197.418865 
L 116.080149 185.165582 
L 124.543018 174.147269 
L 133.170288 164.311783 
L 141.929548 155.585823 
L 150.790174 147.884076 
L 159.723167 141.116182 
L 168.70092 135.190302 
L 177.697142 130.017191 
L 186.686592 125.511791 
L 195.645001 121.595006 
L 204.547978 113.534691 
L 213.363156 104.317162 
L 222.05432 95.704071 
L 230.586298 87.683135 
L 238.925049 80.238614 
L 247.03767 73.351438 
L 254.892374 67.000756 
L 262.458526 61.164462 
L 269.70666 55.820379 
L 276.608483 50.94648 
L 283.136875 46.520972 
L 294.970791 38.933162 
L 305.015368 32.906755 
L 305.015368 32.906755 
" clip-path="url(#p9e1e42b4d9)" style="fill: none; stroke: #0000ff; stroke-linecap: square"/>
   </g>
   <g id="line2d_28">
    <defs>
     <path id="m645c51d25a" d="M 0 -3 
L -0.673542 -0.927051 
L -2.85317 -0.927051 
L -1.089814 0.354102 
L -1.763356 2.427051 
L -0 1.145898 
L 1.763356 2.427051 
L 1.089814 0.354102 
L 2.85317 -0.927051 
L 0.673542 -0.927051 
z
" style="stroke: #0000ff; stroke-linejoin: bevel"/>
    </defs>
    <g clip-path="url(#p9e1e42b4d9)">
     <use xlink:href="#m645c51d25a" x="198.081959" y="196.680715" style="fill: #0000ff; stroke: #0000ff; stroke-linejoin: bevel"/>
    </g>
   </g>
   <g id="patch_3">
    <path d="M 10.7 339.84 
L 10.7 7.2 
" style="fill: none; stroke: #000000; stroke-width: 0.8; stroke-linejoin: miter; stroke-linecap: square"/>
   </g>
   <g id="patch_4">
    <path d="M 345.5 339.84 
L 345.5 7.2 
" style="fill: none; stroke: #000000; stroke-width: 0.8; stroke-linejoin: miter; stroke-linecap: square"/>
   </g>
   <g id="patch_5">
    <path d="M 10.7 339.84 
L 345.5 339.84 
" style="fill: none; stroke: #000000; stroke-width: 0.8; stroke-linejoin: miter; stroke-linecap: square"/>
   </g>
   <g id="patch_6">
    <path d="M 10.7 7.2 
L 345.5 7.2 
" style="fill: none; stroke: #000000; stroke-width: 0.8; stroke-linejoin: miter; stroke-linecap: square"/>
   </g>
  </g>
 </g>
 <defs>
  <clipPath id="p9e1e42b4d9">
   <rect x="10.7" y="7.2" width="334.8" height="332.64"/>
  </clipPath>
 </defs>
</svg>
