<?xml version="1.0" encoding="utf-8" standalone="no"?>
<!DOCTYPE svg PUBLIC "-//W3C//DTD SVG 1.1//EN"
  "http://www.w3.org/Graphics/SVG/1.1/DTD/svg11.dtd">
<svg xmlns:xlink="http://www.w3.org/1999/xlink" width="352.7pt" height="350.54pt" viewBox="0 0 352.7 350.54" xmlns="http://www.w3.org/2000/svg" version="1.1">
 <metadata>
  <rdf:RDF xmlns:dc="http://purl.org/dc/elements/1.1/" xmlns:cc="http://creativecommons.org/ns#" xmlns:rdf="http://www.w3.org/1999/02/22-rdf-syntax-ns#">
   <cc:Work>
    <dc:type rdf:resource="http://purl.org/dc/dcmitype/StillImage"/>
    <dc:date>2025-02-15T22:59:27.295768</dc:date>
    <dc:format>image/svg+xml</dc:format>
    <dc:creator>
     <cc:Agent>
      <dc:title>Matplotlib v3.9.2, https://matplotlib.org/</dc:title>
     </cc:Agent>
    </dc:creator>
   </cc:Work>
  </rdf:RDF>
 </metadata>
 <defs>
  <style type="text/css">*{stroke-linejoin: round; stroke-linecap: butt}</style>
 </defs>
 <g id="figure_1">
  <g id="patch_1">
   <path d="M 0 350.54 
L 352.7 350.54 
L 352.7 0 
L 0 0 
z
" style="fill: #ffffff"/>
  </g>
  <g id="axes_1">
   <g id="patch_2">
    <path d="M 10.7 339.84 
L 345.5 339.84 
L 345.5 7.2 
L 10.7 7.2 
z
" style="fill: #ffffff"/>
   </g>
   <g id="matplotlib.axis_1">
    <g id="xtick_1">
     <g id="line2d_1">
      <path d="M 52.437285 339.84 
L 52.437285 7.2 
" clip-path="url(#pe0d02a6132)" style="fill: none; stroke: #b0b0b0; stroke-opacity: 0.3; stroke-width: 0.8; stroke-linecap: square"/>
     </g>
     <g id="line2d_2">
      <defs>
       <path id="m91f74adf1e" d="M 0 0 
L 0 3.5 
" style="stroke: #000000; stroke-width: 0.8"/>
      </defs>
      <g>
       <use xlink:href="#m91f74adf1e" x="52.437285" y="339.84" style="stroke: #000000; stroke-width: 0.8"/>
      </g>
     </g>
    </g>
    <g id="xtick_2">
     <g id="line2d_3">
      <path d="M 115.058821 339.84 
L 115.058821 7.2 
" clip-path="url(#pe0d02a6132)" style="fill: none; stroke: #b0b0b0; stroke-opacity: 0.3; stroke-width: 0.8; stroke-linecap: square"/>
     </g>
     <g id="line2d_4">
      <g>
       <use xlink:href="#m91f74adf1e" x="115.058821" y="339.84" style="stroke: #000000; stroke-width: 0.8"/>
      </g>
     </g>
    </g>
    <g id="xtick_3">
     <g id="line2d_5">
      <path d="M 177.680357 339.84 
L 177.680357 7.2 
" clip-path="url(#pe0d02a6132)" style="fill: none; stroke: #b0b0b0; stroke-opacity: 0.3; stroke-width: 0.8; stroke-linecap: square"/>
     </g>
     <g id="line2d_6">
      <g>
       <use xlink:href="#m91f74adf1e" x="177.680357" y="339.84" style="stroke: #000000; stroke-width: 0.8"/>
      </g>
     </g>
    </g>
    <g id="xtick_4">
     <g id="line2d_7">
      <path d="M 240.301893 339.84 
L 240.301893 7.2 
" clip-path="url(#pe0d02a6132)" style="fill: none; stroke: #b0b0b0; stroke-opacity: 0.3; stroke-width: 0.8; stroke-linecap: square"/>
     </g>
     <g id="line2d_8">
      <g>
       <use xlink:href="#m91f74adf1e" x="240.301893" y="339.84" style="stroke: #000000; stroke-width: 0.8"/>
      </g>
     </g>
    </g>
    <g id="xtick_5">
     <g id="line2d_9">
      <path d="M 302.923429 339.84 
L 302.923429 7.2 
" clip-path="url(#pe0d02a6132)" style="fill: none; stroke: #b0b0b0; stroke-opacity: 0.3; stroke-width: 0.8; stroke-linecap: square"/>
     </g>
     <g id="line2d_10">
      <g>
       <use xlink:href="#m91f74adf1e" x="302.923429" y="339.84" style="stroke: #000000; stroke-width: 0.8"/>
      </g>
     </g>
    </g>
   </g>
   <g id="matplotlib.axis_2">
    <g id="ytick_1">
     <g id="line2d_11">
      <path d="M 10.7 325.658844 
L 345.5 325.658844 
" clip-path="url(#pe0d02a6132)" style="fill: none; stroke: #b0b0b0; stroke-opacity: 0.3; stroke-width: 0.8; stroke-linecap: square"/>
     </g>
     <g id="line2d_12">
      <defs>
       <path id="me0b6be3c67" d="M 0 0 
L -3.5 0 
" style="stroke: #000000; stroke-width: 0.8"/>
      </defs>
      <g>
       <use xlink:href="#me0b6be3c67" x="10.7" y="325.658844" style="stroke: #000000; stroke-width: 0.8"/>
      </g>
     </g>
    </g>
    <g id="ytick_2">
     <g id="line2d_13">
      <path d="M 10.7 287.622329 
L 345.5 287.622329 
" clip-path="url(#pe0d02a6132)" style="fill: none; stroke: #b0b0b0; stroke-opacity: 0.3; stroke-width: 0.8; stroke-linecap: square"/>
     </g>
     <g id="line2d_14">
      <g>
       <use xlink:href="#me0b6be3c67" x="10.7" y="287.622329" style="stroke: #000000; stroke-width: 0.8"/>
      </g>
     </g>
    </g>
    <g id="ytick_3">
     <g id="line2d_15">
      <path d="M 10.7 249.585814 
L 345.5 249.585814 
" clip-path="url(#pe0d02a6132)" style="fill: none; stroke: #b0b0b0; stroke-opacity: 0.3; stroke-width: 0.8; stroke-linecap: square"/>
     </g>
     <g id="line2d_16">
      <g>
       <use xlink:href="#me0b6be3c67" x="10.7" y="249.585814" style="stroke: #000000; stroke-width: 0.8"/>
      </g>
     </g>
    </g>
    <g id="ytick_4">
     <g id="line2d_17">
      <path d="M 10.7 211.549298 
L 345.5 211.549298 
" clip-path="url(#pe0d02a6132)" style="fill: none; stroke: #b0b0b0; stroke-opacity: 0.3; stroke-width: 0.8; stroke-linecap: square"/>
     </g>
     <g id="line2d_18">
      <g>
       <use xlink:href="#me0b6be3c67" x="10.7" y="211.549298" style="stroke: #000000; stroke-width: 0.8"/>
      </g>
     </g>
    </g>
    <g id="ytick_5">
     <g id="line2d_19">
      <path d="M 10.7 173.512783 
L 345.5 173.512783 
" clip-path="url(#pe0d02a6132)" style="fill: none; stroke: #b0b0b0; stroke-opacity: 0.3; stroke-width: 0.8; stroke-linecap: square"/>
     </g>
     <g id="line2d_20">
      <g>
       <use xlink:href="#me0b6be3c67" x="10.7" y="173.512783" style="stroke: #000000; stroke-width: 0.8"/>
      </g>
     </g>
    </g>
    <g id="ytick_6">
     <g id="line2d_21">
      <path d="M 10.7 135.476268 
L 345.5 135.476268 
" clip-path="url(#pe0d02a6132)" style="fill: none; stroke: #b0b0b0; stroke-opacity: 0.3; stroke-width: 0.8; stroke-linecap: square"/>
     </g>
     <g id="line2d_22">
      <g>
       <use xlink:href="#me0b6be3c67" x="10.7" y="135.476268" style="stroke: #000000; stroke-width: 0.8"/>
      </g>
     </g>
    </g>
    <g id="ytick_7">
     <g id="line2d_23">
      <path d="M 10.7 97.439753 
L 345.5 97.439753 
" clip-path="url(#pe0d02a6132)" style="fill: none; stroke: #b0b0b0; stroke-opacity: 0.3; stroke-width: 0.8; stroke-linecap: square"/>
     </g>
     <g id="line2d_24">
      <g>
       <use xlink:href="#me0b6be3c67" x="10.7" y="97.439753" style="stroke: #000000; stroke-width: 0.8"/>
      </g>
     </g>
    </g>
    <g id="ytick_8">
     <g id="line2d_25">
      <path d="M 10.7 59.403238 
L 345.5 59.403238 
" clip-path="url(#pe0d02a6132)" style="fill: none; stroke: #b0b0b0; stroke-opacity: 0.3; stroke-width: 0.8; stroke-linecap: square"/>
     </g>
     <g id="line2d_26">
      <g>
       <use xlink:href="#me0b6be3c67" x="10.7" y="59.403238" style="stroke: #000000; stroke-width: 0.8"/>
      </g>
     </g>
    </g>
    <g id="ytick_9">
     <g id="line2d_27">
      <path d="M 10.7 21.366722 
L 345.5 21.366722 
" clip-path="url(#pe0d02a6132)" style="fill: none; stroke: #b0b0b0; stroke-opacity: 0.3; stroke-width: 0.8; stroke-linecap: square"/>
     </g>
     <g id="line2d_28">
      <g>
       <use xlink:href="#me0b6be3c67" x="10.7" y="21.366722" style="stroke: #000000; stroke-width: 0.8"/>
      </g>
     </g>
    </g>
   </g>
   <g id="line2d_29">
    <path d="M 177.680357 173.512783 
L 181.267704 165.039406 
L 185.2822 156.109487 
L 186.643568 153.208466 
L 186.066347 154.610884 
L 174.785374 181.787405 
L 170.67729 190.930455 
L 166.236197 200.169956 
L 161.65344 209.049291 
L 157.146709 217.177571 
L 152.951763 224.242138 
L 148.268747 231.59717 
L 144.16861 237.596264 
L 173.003242 167.660985 
L 176.000347 160.827696 
L 179.080161 154.134859 
L 182.228765 147.620745 
L 185.432016 141.317429 
L 188.675632 135.250954 
L 191.945239 129.44172 
L 195.226415 123.904954 
L 198.504725 118.651237 
L 201.765748 113.687068 
L 204.995103 109.01542 
L 208.178469 104.636309 
L 211.301603 100.547329 
L 217.310624 93.220945 
L 222.910312 86.986285 
L 227.990986 81.782127 
L 232.445872 77.545849 
L 237.730511 72.886492 
L 242.105755 69.316347 
L 196.000461 181.111149 
L 191.342001 191.446119 
L 186.581282 201.251244 
L 181.740927 210.493467 
L 176.843126 219.154731 
L 171.909603 227.229586 
L 166.961591 234.722876 
L 162.019847 241.647566 
L 157.104656 248.022788 
L 152.235854 253.872149 
L 147.432828 259.222281 
L 142.714569 264.101591 
L 138.099672 268.539304 
L 133.606348 272.564652 
L 129.252455 276.206239 
L 125.05551 279.491552 
L 121.032704 282.446676 
L 117.200903 285.096003 
L 110.176087 289.565492 
L 104.108944 293.056722 
L 97.067892 296.723228 
L 91.731508 299.252153 
L 91.731331 299.160229 
L 141.629089 177.928017 
L 147.224916 164.651963 
L 152.969766 152.150605 
L 158.833164 140.507926 
L 164.785708 129.739216 
L 170.7989 119.838643 
L 176.845199 110.783884 
L 182.898016 102.540568 
L 188.931597 95.065925 
L 194.921061 88.31185 
L 200.842299 82.227469 
L 206.671904 76.761099 
L 212.387154 71.861749 
L 217.965897 67.480197 
L 223.386584 63.569734 
L 228.628223 60.08678 
L 233.67028 56.990958 
L 238.492719 54.245441 
L 243.075997 51.816859 
L 251.449344 47.793699 
L 258.644248 44.721003 
L 264.523518 42.445344 
L 271.83877 39.878695 
L 273.057435 39.477598 
L 273.016585 39.654421 
L 215.132378 180.097617 
L 208.806545 194.003618 
L 202.338485 206.857025 
L 195.762646 218.648065 
L 189.112241 229.394052 
L 182.41925 239.13239 
L 175.71445 247.914717 
L 169.027474 255.801803 
L 162.386927 262.859742 
L 155.820442 269.156394 
L 149.3547 274.759185 
L 143.015582 279.733263 
L 136.82824 284.140396 
L 130.817119 288.038127 
L 125.006007 291.479398 
L 119.41806 294.512369 
L 114.075829 297.180445 
L 109.001251 299.522357 
L 104.215649 301.572482 
L 95.593463 304.914144 
L 88.36656 307.402443 
L 80.456932 309.837925 
L 76.034421 311.081497 
L 76.108785 310.836743 
L 132.966101 172.7078 
L 139.626339 157.539284 
L 146.463381 143.54159 
L 153.438913 130.733704 
L 160.51601 119.100108 
L 167.65916 108.599578 
L 174.834194 99.172724 
L 182.008259 90.748584 
L 189.149697 83.249823 
L 196.227923 76.596775 
L 203.213416 70.710375 
L 210.077534 65.514411 
L 216.792536 60.937003 
L 223.331402 56.91142 
L 229.667875 53.376594 
L 235.776406 50.277171 
L 241.632134 47.563784 
L 247.210838 45.19259 
L 252.488988 43.124879 
L 262.053058 39.768782 
L 270.150668 37.275742 
L 279.200224 34.817595 
L 284.898615 33.46065 
L 226.875526 174.419449 
L 219.881011 190.285769 
L 212.688791 204.872568 
L 205.339759 218.16342 
L 197.873339 230.180547 
L 190.327425 240.974544 
L 182.738437 250.615509 
L 175.141417 259.185701 
L 167.570132 266.773516 
L 160.057176 273.469115 
L 152.634122 279.361025 
L 145.331524 284.533938 
L 138.179071 289.067062 
L 131.205717 293.033431 
L 124.439586 296.499026 
L 117.908097 299.523304 
L 111.637983 302.159188 
L 105.655265 304.453326 
L 99.985251 306.44664 
L 94.65252 308.1745 
L 85.093331 310.952348 
L 77.158078 312.982245 
L 68.657509 314.914774 
L 64.402577 315.797086 
L 124.203508 170.565298 
L 131.521393 154.243536 
L 139.051881 139.304375 
L 146.752009 125.755997 
L 154.580449 113.565646 
L 162.497473 102.670935 
L 170.464917 92.98969 
L 178.446043 84.428194 
L 186.405417 76.887385 
L 194.308815 70.267628 
L 202.123095 64.472162 
L 209.816061 59.409465 
L 217.356425 54.994632 
L 224.713678 51.150147 
L 231.8581 47.80624 
L 238.760669 44.900636 
L 245.393094 42.378287 
L 251.72779 40.191035 
L 257.737874 38.296866 
L 263.397278 36.659781 
L 273.563715 34.036947 
L 282.03534 32.125576 
L 291.184888 30.303009 
L 295.969323 29.438532 
L 288.892364 46.641191 
L 234.329333 179.044751 
L 226.714696 195.684652 
L 218.875745 210.84896 
L 210.857114 224.539649 
L 202.70172 236.801198 
L 194.450797 247.70806 
L 186.143991 257.354033 
L 177.819473 265.843678 
L 169.514068 273.285683 
L 161.263395 279.787955 
L 153.102001 285.454141 
L 145.063466 290.381466 
L 137.180487 294.659359 
L 129.484945 298.368956 
L 122.007973 301.582591 
L 114.780017 304.364371 
L 107.830772 306.770623 
L 101.189209 308.850399 
L 94.883557 310.646047 
L 88.941266 312.193985 
L 78.252359 314.666233 
L 69.324259 316.462728 
L 59.633495 318.176037 
L 54.43521 319.005684 
L 55.420425 316.585465 
L 110.31907 183.203035 
L 117.923405 165.067857 
L 125.809132 148.225181 
L 133.928444 132.939659 
L 142.235285 119.198113 
L 150.685395 106.944123 
L 159.236276 96.091471 
L 167.847048 86.53539 
L 176.478303 78.161551 
L 185.091999 70.852833 
L 193.651304 64.494269 
L 202.120471 58.976435 
L 210.46471 54.197585 
L 218.650074 50.064858 
L 226.643419 46.494732 
L 234.41236 43.413057 
L 241.925209 40.754395 
L 249.151024 38.461758 
L 256.059564 36.485692 
L 262.621363 34.783967 
L 274.59102 32.064356 
L 284.841539 30.074178 
L 296.556344 28.119153 
L 304.904244 26.903012 
L 303.943164 29.282485 
L 247.405241 166.647725 
L 239.560541 185.102901 
L 231.426079 202.054029 
L 223.050947 217.37701 
L 214.482353 231.097128 
L 205.765679 243.28268 
L 196.944532 254.031113 
L 188.060824 263.457333 
L 179.155012 271.684412 
L 170.266178 278.836789 
L 161.432198 285.035338 
L 152.68991 290.394084 
L 144.075182 295.018226 
L 135.623051 299.003176 
L 127.367776 302.434182 
L 119.342872 305.386538 
L 111.581142 307.926101 
L 104.114663 310.110047 
L 96.974777 311.987521 
L 90.192061 313.600711 
L 77.816194 316.171951 
L 67.213779 318.048228 
L 55.089244 319.887134 
L 46.423981 321.031846 
L 47.397783 318.614838 
L 105.583195 177.246841 
L 113.652002 158.613106 
L 122.016789 141.633299 
L 130.627448 126.342781 
L 139.435777 112.703903 
L 148.395479 100.636457 
L 157.462039 90.032324 
L 166.592626 80.767376 
L 175.745926 72.71076 
L 184.881966 65.731794 
L 193.961929 59.704767 
L 202.948039 54.512031 
L 211.803452 50.045812 
L 220.492157 46.209001 
L 228.978915 42.915314 
L 237.229199 40.088961 
L 245.209198 37.664037 
L 252.885822 35.58362 
L 260.226716 33.798885 
L 267.20032 32.26823 
L 279.923826 29.834451 
L 290.822203 28.063296 
L 303.279186 26.331206 
L 312.159356 25.25677 
L 311.143045 27.775094 
L 251.316732 173.123183 
L 243.039254 191.801284 
L 234.461352 208.747075 
L 225.633992 223.951566 
L 216.606184 237.464904 
L 207.424992 249.378751 
L 198.135698 259.8112 
L 188.781899 268.894755 
L 179.405673 276.766984 
L 170.04782 283.563771 
L 160.747967 289.414727 
L 151.544711 294.440295 
L 142.475759 298.750143 
L 133.578002 302.442296 
L 124.887549 305.6035 
L 116.439822 308.309561 
L 108.26957 310.626098 
L 100.410781 312.609485 
L 92.896692 314.307829 
L 85.759739 315.761916 
L 72.742563 318.069432 
L 61.599883 319.744626 
L 48.880781 321.379423 
L 39.878671 322.386361 
L 40.965007 319.709083 
L 102.43293 170.447167 
L 110.90614 151.798506 
L 119.682721 134.939096 
L 128.710951 119.864897 
L 137.941161 106.513191 
L 147.325622 94.781343 
L 156.818411 84.541984 
L 166.375271 75.655182 
L 175.953416 67.977585 
L 185.511402 61.368861 
L 195.008919 55.696353 
L 204.406579 50.83765 
L 213.66595 46.681933 
L 222.749368 43.130675 
L 231.619864 40.097151 
L 240.24122 37.505895 
L 248.577908 35.291983 
L 256.595093 33.399619 
L 264.258743 31.781688 
L 271.535646 30.398424 
L 284.800817 28.207104 
L 296.144296 26.618935 
L 309.065109 25.07279 
L 318.107558 24.130145 
L 315.265839 31.057791 
L 253.828158 180.082749 
L 245.171804 198.652354 
L 236.210528 215.383055 
L 226.996628 230.292648 
L 217.580337 243.455783 
L 208.009944 254.985439 
L 198.331879 265.017469 
L 188.590952 273.698534 
L 178.830521 281.176958 
L 169.092667 287.596485 
L 159.418355 293.092071 
L 149.847584 297.787447 
L 140.419497 301.793919 
L 131.172476 305.210113 
L 122.144186 308.122319 
L 113.371589 310.605226 
L 104.890949 312.723003 
L 96.737808 314.530345 
L 88.946914 316.073417 
L 81.552193 317.391243 
L 68.082342 319.476157 
L 56.579502 320.984679 
L 43.5138 322.44999 
L 34.505131 323.331399 
L 43.200762 302.19495 
L 92.054073 183.500339 
L 100.522465 163.42725 
L 109.350999 144.978913 
L 118.484847 128.41207 
L 127.87126 113.695372 
L 137.459508 100.742479 
L 147.200856 89.43062 
L 157.048409 79.616268 
L 166.956881 71.147037 
L 176.882426 63.870473 
L 186.782431 57.64006 
L 196.615372 52.31921 
L 206.340669 47.783222 
L 215.918622 43.920895 
L 225.310157 40.63413 
L 234.476945 37.837278 
L 243.381361 35.456535 
L 251.98649 33.428742 
L 260.256155 31.70042 
L 268.154958 30.22641 
L 282.702752 27.895906 
L 295.365381 26.204247 
L 310.29273 24.531786 
L 322.981712 23.331026 
L 263.842035 167.018937 
L 255.211346 187.131078 
L 246.220752 205.420781 
L 236.92549 221.793196 
L 227.378743 236.293019 
L 217.63158 249.017964 
L 207.733096 260.099674 
L 197.730601 269.688508 
L 187.669786 277.941861 
L 177.594938 285.015618 
L 167.549125 291.058307 
L 157.574348 296.207614 
L 147.711746 300.588208 
L 138.00162 304.311098 
L 128.483561 307.473809 
L 119.196455 310.160862 
L 110.178506 312.445106 
L 101.467219 314.388225 
L 93.09937 316.042602 
L 85.110924 317.452293 
L 70.411634 319.678657 
L 57.637819 321.292701 
L 42.627077 322.885403 
L 30.098136 324.007438 
L 90.851481 176.400358 
L 99.636642 156.371081 
L 108.780403 138.271897 
L 118.227177 122.119745 
L 127.923527 107.856691 
L 137.818088 95.374295 
L 147.861459 84.532634 
L 158.006033 75.17514 
L 168.20578 67.140151 
L 178.416042 60.269107 
L 188.593341 54.412022 
L 198.695214 49.43082 
L 208.680076 45.201042 
L 218.507123 41.612373 
L 228.136264 38.568374 
L 237.528088 35.985688 
L 246.643862 33.792956 
L 255.445556 31.929617 
L 263.895884 30.344536 
L 271.958382 28.994907 
L 286.778605 26.865372 
L 299.634309 25.323062 
L 314.688634 23.803754 
L 326.998537 22.768833 
L 264.6354 174.259572 
L 255.704454 194.116784 
L 246.416873 212.003088 
L 236.828667 227.918515 
L 226.993511 241.93361 
L 216.962989 254.166776 
L 206.786729 264.765596 
L 196.51262 273.892025 
L 186.186992 281.711195 
L 175.854857 288.383669 
L 165.56 294.060449 
L 155.345316 298.879554 
L 145.252832 302.96495 
L 135.323746 306.42601 
L 125.598654 309.358072 
L 116.117424 311.842747 
L 106.919239 313.950103 
L 98.042589 315.739377 
L 89.525215 317.260369 
L 81.404037 318.554593 
L 66.493121 320.59538 
L 53.584843 322.071975 
L 38.528561 323.523538 
L 26.507247 324.45535 
L 90.507931 169.104207 
L 99.578737 149.452303 
L 109.003056 131.804917 
L 118.724848 116.146899 
L 128.690259 102.395247 
L 138.847544 90.422078 
L 149.146894 80.07296 
L 159.540209 71.181279 
L 169.980907 63.578961 
L 180.423713 57.103961 
L 190.82448 51.605044 
L 201.14 46.944524 
L 211.327895 42.99947 
L 221.346534 39.661833 
L 231.154957 36.837919 
L 240.712874 34.447233 
L 249.980673 32.421394 
L 258.919446 30.702525 
L 267.491063 29.242251 
L 275.658215 28.000036 
L 290.634772 26.042419 
L 303.571698 24.627128 
L 318.59763 23.238523 
L 330.17732 22.32 
L 330.281818 22.432315 
L 273.445355 160.522892 
L 264.650407 181.534181 
L 255.447256 200.959414 
L 245.894233 218.352133 
L 236.047502 233.742234 
L 225.961026 247.224213 
L 215.686668 258.934677 
L 205.274412 269.034259 
L 194.772512 277.693609 
L 184.227739 285.083014 
L 173.685618 291.365474 
L 163.190594 296.692172 
L 152.786181 301.200031 
L 142.515088 305.010706 
L 132.419292 308.230932 
L 122.540116 310.952767 
L 112.918215 313.255118 
L 103.593575 315.204749 
L 94.605469 316.858031 
L 85.992377 318.261956 
L 77.791935 319.4558 
L 62.774583 321.33641 
L 49.833052 322.695057 
L 34.87134 324.025288 
L 25.918182 324.72 
L 25.918182 324.72 
" clip-path="url(#pe0d02a6132)" style="fill: none; stroke: #0000ff; stroke-linecap: square"/>
   </g>
   <g id="line2d_30">
    <defs>
     <path id="m2d2dbf63f7" d="M 0 -3 
L -0.673542 -0.927051 
L -2.85317 -0.927051 
L -1.089814 0.354102 
L -1.763356 2.427051 
L -0 1.145898 
L 1.763356 2.427051 
L 1.089814 0.354102 
L 2.85317 -0.927051 
L 0.673542 -0.927051 
z
" style="stroke: #0000ff; stroke-linejoin: bevel"/>
    </defs>
    <g clip-path="url(#pe0d02a6132)">
     <use xlink:href="#m2d2dbf63f7" x="177.680357" y="173.512783" style="fill: #0000ff; stroke: #0000ff; stroke-linejoin: bevel"/>
    </g>
   </g>
   <g id="patch_3">
    <path d="M 10.7 339.84 
L 10.7 7.2 
" style="fill: none; stroke: #000000; stroke-width: 0.8; stroke-linejoin: miter; stroke-linecap: square"/>
   </g>
   <g id="patch_4">
    <path d="M 345.5 339.84 
L 345.5 7.2 
" style="fill: none; stroke: #000000; stroke-width: 0.8; stroke-linejoin: miter; stroke-linecap: square"/>
   </g>
   <g id="patch_5">
    <path d="M 10.7 339.84 
L 345.5 339.84 
" style="fill: none; stroke: #000000; stroke-width: 0.8; stroke-linejoin: miter; stroke-linecap: square"/>
   </g>
   <g id="patch_6">
    <path d="M 10.7 7.2 
L 345.5 7.2 
" style="fill: none; stroke: #000000; stroke-width: 0.8; stroke-linejoin: miter; stroke-linecap: square"/>
   </g>
  </g>
 </g>
 <defs>
  <clipPath id="pe0d02a6132">
   <rect x="10.7" y="7.2" width="334.8" height="332.64"/>
  </clipPath>
 </defs>
</svg>
