<?xml version="1.0" encoding="utf-8" standalone="no"?>
<!DOCTYPE svg PUBLIC "-//W3C//DTD SVG 1.1//EN"
  "http://www.w3.org/Graphics/SVG/1.1/DTD/svg11.dtd">
<svg xmlns:xlink="http://www.w3.org/1999/xlink" width="352.7pt" height="350.54pt" viewBox="0 0 352.7 350.54" xmlns="http://www.w3.org/2000/svg" version="1.1">
 <metadata>
  <rdf:RDF xmlns:dc="http://purl.org/dc/elements/1.1/" xmlns:cc="http://creativecommons.org/ns#" xmlns:rdf="http://www.w3.org/1999/02/22-rdf-syntax-ns#">
   <cc:Work>
    <dc:type rdf:resource="http://purl.org/dc/dcmitype/StillImage"/>
    <dc:date>2025-02-15T23:13:32.578752</dc:date>
    <dc:format>image/svg+xml</dc:format>
    <dc:creator>
     <cc:Agent>
      <dc:title>Matplotlib v3.9.2, https://matplotlib.org/</dc:title>
     </cc:Agent>
    </dc:creator>
   </cc:Work>
  </rdf:RDF>
 </metadata>
 <defs>
  <style type="text/css">*{stroke-linejoin: round; stroke-linecap: butt}</style>
 </defs>
 <g id="figure_1">
  <g id="patch_1">
   <path d="M 0 350.54 
L 352.7 350.54 
L 352.7 0 
L 0 0 
z
" style="fill: #ffffff"/>
  </g>
  <g id="axes_1">
   <g id="patch_2">
    <path d="M 10.7 339.84 
L 345.5 339.84 
L 345.5 7.2 
L 10.7 7.2 
z
" style="fill: #ffffff"/>
   </g>
   <g id="matplotlib.axis_1">
    <g id="xtick_1">
     <g id="line2d_1">
      <path d="M 25.917994 339.84 
L 25.917994 7.2 
" clip-path="url(#pb326499a71)" style="fill: none; stroke: #b0b0b0; stroke-opacity: 0.3; stroke-width: 0.8; stroke-linecap: square"/>
     </g>
     <g id="line2d_2">
      <defs>
       <path id="m35bb3fb42d" d="M 0 0 
L 0 3.5 
" style="stroke: #000000; stroke-width: 0.8"/>
      </defs>
      <g>
       <use xlink:href="#m35bb3fb42d" x="25.917994" y="339.84" style="stroke: #000000; stroke-width: 0.8"/>
      </g>
     </g>
    </g>
    <g id="xtick_2">
     <g id="line2d_3">
      <path d="M 63.963495 339.84 
L 63.963495 7.2 
" clip-path="url(#pb326499a71)" style="fill: none; stroke: #b0b0b0; stroke-opacity: 0.3; stroke-width: 0.8; stroke-linecap: square"/>
     </g>
     <g id="line2d_4">
      <g>
       <use xlink:href="#m35bb3fb42d" x="63.963495" y="339.84" style="stroke: #000000; stroke-width: 0.8"/>
      </g>
     </g>
    </g>
    <g id="xtick_3">
     <g id="line2d_5">
      <path d="M 102.008997 339.84 
L 102.008997 7.2 
" clip-path="url(#pb326499a71)" style="fill: none; stroke: #b0b0b0; stroke-opacity: 0.3; stroke-width: 0.8; stroke-linecap: square"/>
     </g>
     <g id="line2d_6">
      <g>
       <use xlink:href="#m35bb3fb42d" x="102.008997" y="339.84" style="stroke: #000000; stroke-width: 0.8"/>
      </g>
     </g>
    </g>
    <g id="xtick_4">
     <g id="line2d_7">
      <path d="M 140.054498 339.84 
L 140.054498 7.2 
" clip-path="url(#pb326499a71)" style="fill: none; stroke: #b0b0b0; stroke-opacity: 0.3; stroke-width: 0.8; stroke-linecap: square"/>
     </g>
     <g id="line2d_8">
      <g>
       <use xlink:href="#m35bb3fb42d" x="140.054498" y="339.84" style="stroke: #000000; stroke-width: 0.8"/>
      </g>
     </g>
    </g>
    <g id="xtick_5">
     <g id="line2d_9">
      <path d="M 178.1 339.84 
L 178.1 7.2 
" clip-path="url(#pb326499a71)" style="fill: none; stroke: #b0b0b0; stroke-opacity: 0.3; stroke-width: 0.8; stroke-linecap: square"/>
     </g>
     <g id="line2d_10">
      <g>
       <use xlink:href="#m35bb3fb42d" x="178.1" y="339.84" style="stroke: #000000; stroke-width: 0.8"/>
      </g>
     </g>
    </g>
    <g id="xtick_6">
     <g id="line2d_11">
      <path d="M 216.145502 339.84 
L 216.145502 7.2 
" clip-path="url(#pb326499a71)" style="fill: none; stroke: #b0b0b0; stroke-opacity: 0.3; stroke-width: 0.8; stroke-linecap: square"/>
     </g>
     <g id="line2d_12">
      <g>
       <use xlink:href="#m35bb3fb42d" x="216.145502" y="339.84" style="stroke: #000000; stroke-width: 0.8"/>
      </g>
     </g>
    </g>
    <g id="xtick_7">
     <g id="line2d_13">
      <path d="M 254.191003 339.84 
L 254.191003 7.2 
" clip-path="url(#pb326499a71)" style="fill: none; stroke: #b0b0b0; stroke-opacity: 0.3; stroke-width: 0.8; stroke-linecap: square"/>
     </g>
     <g id="line2d_14">
      <g>
       <use xlink:href="#m35bb3fb42d" x="254.191003" y="339.84" style="stroke: #000000; stroke-width: 0.8"/>
      </g>
     </g>
    </g>
    <g id="xtick_8">
     <g id="line2d_15">
      <path d="M 292.236505 339.84 
L 292.236505 7.2 
" clip-path="url(#pb326499a71)" style="fill: none; stroke: #b0b0b0; stroke-opacity: 0.3; stroke-width: 0.8; stroke-linecap: square"/>
     </g>
     <g id="line2d_16">
      <g>
       <use xlink:href="#m35bb3fb42d" x="292.236505" y="339.84" style="stroke: #000000; stroke-width: 0.8"/>
      </g>
     </g>
    </g>
    <g id="xtick_9">
     <g id="line2d_17">
      <path d="M 330.282006 339.84 
L 330.282006 7.2 
" clip-path="url(#pb326499a71)" style="fill: none; stroke: #b0b0b0; stroke-opacity: 0.3; stroke-width: 0.8; stroke-linecap: square"/>
     </g>
     <g id="line2d_18">
      <g>
       <use xlink:href="#m35bb3fb42d" x="330.282006" y="339.84" style="stroke: #000000; stroke-width: 0.8"/>
      </g>
     </g>
    </g>
   </g>
   <g id="matplotlib.axis_2">
    <g id="ytick_1">
     <g id="line2d_19">
      <path d="M 10.7 324.72 
L 345.5 324.72 
" clip-path="url(#pb326499a71)" style="fill: none; stroke: #b0b0b0; stroke-opacity: 0.3; stroke-width: 0.8; stroke-linecap: square"/>
     </g>
     <g id="line2d_20">
      <defs>
       <path id="m8d61ddd3d3" d="M 0 0 
L -3.5 0 
" style="stroke: #000000; stroke-width: 0.8"/>
      </defs>
      <g>
       <use xlink:href="#m8d61ddd3d3" x="10.7" y="324.72" style="stroke: #000000; stroke-width: 0.8"/>
      </g>
     </g>
    </g>
    <g id="ytick_2">
     <g id="line2d_21">
      <path d="M 10.7 264.071868 
L 345.5 264.071868 
" clip-path="url(#pb326499a71)" style="fill: none; stroke: #b0b0b0; stroke-opacity: 0.3; stroke-width: 0.8; stroke-linecap: square"/>
     </g>
     <g id="line2d_22">
      <g>
       <use xlink:href="#m8d61ddd3d3" x="10.7" y="264.071868" style="stroke: #000000; stroke-width: 0.8"/>
      </g>
     </g>
    </g>
    <g id="ytick_3">
     <g id="line2d_23">
      <path d="M 10.7 203.423736 
L 345.5 203.423736 
" clip-path="url(#pb326499a71)" style="fill: none; stroke: #b0b0b0; stroke-opacity: 0.3; stroke-width: 0.8; stroke-linecap: square"/>
     </g>
     <g id="line2d_24">
      <g>
       <use xlink:href="#m8d61ddd3d3" x="10.7" y="203.423736" style="stroke: #000000; stroke-width: 0.8"/>
      </g>
     </g>
    </g>
    <g id="ytick_4">
     <g id="line2d_25">
      <path d="M 10.7 142.775604 
L 345.5 142.775604 
" clip-path="url(#pb326499a71)" style="fill: none; stroke: #b0b0b0; stroke-opacity: 0.3; stroke-width: 0.8; stroke-linecap: square"/>
     </g>
     <g id="line2d_26">
      <g>
       <use xlink:href="#m8d61ddd3d3" x="10.7" y="142.775604" style="stroke: #000000; stroke-width: 0.8"/>
      </g>
     </g>
    </g>
    <g id="ytick_5">
     <g id="line2d_27">
      <path d="M 10.7 82.127472 
L 345.5 82.127472 
" clip-path="url(#pb326499a71)" style="fill: none; stroke: #b0b0b0; stroke-opacity: 0.3; stroke-width: 0.8; stroke-linecap: square"/>
     </g>
     <g id="line2d_28">
      <g>
       <use xlink:href="#m8d61ddd3d3" x="10.7" y="82.127472" style="stroke: #000000; stroke-width: 0.8"/>
      </g>
     </g>
    </g>
    <g id="ytick_6">
     <g id="line2d_29">
      <path d="M 10.7 21.47934 
L 345.5 21.47934 
" clip-path="url(#pb326499a71)" style="fill: none; stroke: #b0b0b0; stroke-opacity: 0.3; stroke-width: 0.8; stroke-linecap: square"/>
     </g>
     <g id="line2d_30">
      <g>
       <use xlink:href="#m8d61ddd3d3" x="10.7" y="21.47934" style="stroke: #000000; stroke-width: 0.8"/>
      </g>
     </g>
    </g>
   </g>
   <g id="line2d_31">
    <path d="M 178.1 324.72 
L 182.884936 324.632166 
L 187.66514 324.325073 
L 192.435885 323.735798 
L 197.192455 322.806086 
L 201.930144 321.483664 
L 206.64427 319.723108 
L 211.330169 317.486358 
L 215.983208 314.742948 
L 220.598786 311.47003 
L 225.172339 307.652215 
L 229.699344 303.281308 
L 234.175325 298.355949 
L 238.595855 292.881195 
L 242.956564 286.868069 
L 247.253139 280.33309 
L 251.481332 273.297791 
L 255.636961 265.788246 
L 259.715917 257.834603 
L 263.714166 249.470627 
L 267.627756 240.733267 
L 271.452816 231.662239 
L 275.185563 222.299621 
L 278.822306 212.689474 
L 282.35945 202.877477 
L 285.793496 192.910581 
L 289.121049 182.836676 
L 295.443621 162.562243 
L 301.302164 142.444542 
L 306.673511 122.870325 
L 311.536421 104.214591 
L 315.871664 86.833192 
L 321.348239 63.863892 
L 326.661726 40.497919 
L 330.281818 23.967686 
L 329.049398 23.295426 
L 327.535995 22.710225 
L 326.557226 22.469293 
L 325.431654 22.322424 
L 324.160393 22.32 
L 322.744699 22.515645 
L 321.185972 22.965014 
L 319.485754 23.724602 
L 317.645726 24.850399 
L 315.667707 26.396582 
L 313.553654 28.414232 
L 311.305656 30.950079 
L 308.925937 34.045373 
L 306.41685 37.734851 
L 303.780877 42.045852 
L 301.020623 46.997622 
L 298.138818 52.600794 
L 295.138312 58.85706 
L 292.022072 65.759046 
L 288.79318 73.290403 
L 285.454828 81.426052 
L 278.463055 99.369042 
L 271.074402 119.232699 
L 246.826489 185.483027 
L 238.156423 207.930014 
L 233.730149 218.900559 
L 229.248866 229.61143 
L 224.717004 239.997625 
L 220.139044 249.997348 
L 215.519514 259.55241 
L 210.862981 268.608553 
L 206.174051 277.115714 
L 201.457359 285.02823 
L 196.71757 292.304984 
L 191.959371 298.909506 
L 187.187467 304.81003 
L 182.406577 309.979512 
L 177.621428 314.395615 
L 172.836753 318.040672 
L 168.057282 320.901615 
L 163.287742 322.969894 
L 158.532849 324.24137 
L 153.797305 324.7162 
L 149.085794 324.398705 
L 144.402973 323.29723 
L 139.753473 321.423996 
L 135.141893 318.794937 
L 130.572792 315.429542 
L 126.050688 311.350677 
L 121.580054 306.584413 
L 117.16531 301.159839 
L 112.810822 295.108881 
L 108.520895 288.466103 
L 104.299772 281.268517 
L 100.151626 273.55538 
L 96.080561 265.367991 
L 92.090601 256.749484 
L 88.185691 247.744622 
L 84.369694 238.399578 
L 80.646383 228.761725 
L 77.019439 218.879423 
L 73.492449 208.801795 
L 70.068902 198.578516 
L 66.752181 188.259594 
L 60.452231 167.535206 
L 54.617513 147.027135 
L 49.2711 127.125533 
L 44.434134 108.20563 
L 40.125742 90.621482 
L 34.690912 67.456368 
L 29.435243 44.011221 
L 25.919687 27.746662 
L 27.212135 26.943523 
L 28.755248 26.239486 
L 29.748742 25.929326 
L 30.888935 25.708072 
L 32.174699 25.627094 
L 33.604762 25.741005 
L 35.177709 26.106436 
L 36.891986 26.780773 
L 38.745898 27.820854 
L 40.73761 29.2816 
L 42.865154 31.214757 
L 45.126426 33.667659 
L 47.51919 36.682028 
L 50.041079 40.292969 
L 52.6896 44.528105 
L 55.462134 49.406838 
L 58.355939 54.939854 
L 61.368154 61.128806 
L 64.495799 67.966195 
L 67.735783 75.435465 
L 71.084901 83.511261 
L 78.097188 101.339842 
L 85.504931 121.093576 
L 109.80084 187.009117 
L 118.483604 209.334009 
L 122.915576 220.240534 
L 127.402118 230.885262 
L 131.938792 241.203142 
L 136.521113 251.132378 
L 141.14455 260.614824 
L 145.80453 269.596305 
L 150.496446 278.026882 
L 155.215658 285.861046 
L 159.957499 293.057867 
L 164.71728 299.581089 
L 169.490296 305.399183 
L 174.271824 310.485361 
L 179.057139 314.817562 
L 183.841506 318.378404 
L 188.620197 321.155117 
L 193.388484 323.139456 
L 198.141653 324.32759 
L 202.875004 324.719989 
L 207.583856 324.321283 
L 212.263553 323.140128 
L 216.909467 321.189047 
L 221.517004 318.484275 
L 226.081608 315.045586 
L 230.598764 310.89613 
L 235.064008 306.062245 
L 239.472922 300.573277 
L 243.821147 294.461395 
L 248.104383 287.761391 
L 252.318395 280.510489 
L 256.459016 272.748143 
L 260.522151 264.515827 
L 264.503782 255.85684 
L 268.399973 246.816078 
L 272.206869 237.439841 
L 275.920708 227.775603 
L 279.537816 217.871801 
L 283.054617 207.777623 
L 286.467633 197.54278 
L 289.773488 187.2173 
L 296.050753 166.494782 
L 301.861588 146.008305 
L 307.183015 126.147421 
L 311.99399 107.286446 
L 318.212309 81.634319 
L 323.184492 60.089291 
L 328.58735 35.636819 
L 330.277303 27.740309 
L 328.924839 26.90526 
L 327.352034 26.201867 
L 326.343822 25.898485 
L 325.189019 25.688983 
L 323.888766 25.625102 
L 322.444349 25.761711 
L 320.857196 26.155576 
L 319.128877 26.864084 
L 317.261101 27.943949 
L 315.255714 29.449827 
L 313.1147 31.433059 
L 310.840176 33.940476 
L 308.434392 37.013189 
L 305.899725 40.685594 
L 303.238683 44.984508 
L 300.453896 49.928499 
L 297.54812 55.527353 
L 294.524226 61.781765 
L 291.385206 68.683373 
L 288.134162 76.214718 
L 284.774311 84.349566 
L 277.741579 102.284086 
L 270.31482 122.122983 
L 245.971155 188.134639 
L 237.27578 210.434184 
L 232.838153 221.317587 
L 228.346397 231.932548 
L 223.804956 242.214325 
L 219.218318 252.101469 
L 214.591021 261.536217 
L 209.927639 270.46481 
L 205.232784 278.837742 
L 200.511099 286.609957 
L 195.767253 293.740988 
L 191.005936 300.195052 
L 186.231857 305.941094 
L 181.449737 310.9528 
L 176.664304 315.208579 
L 171.880291 318.691514 
L 167.102429 321.389293 
L 162.335441 323.294117 
L 157.584042 324.402591 
L 152.852931 324.715606 
L 148.146786 324.238204 
L 143.470259 322.979433 
L 138.827977 320.952194 
L 134.224529 318.173084 
L 129.664468 314.662224 
L 125.152302 310.44309 
L 120.692494 305.542328 
L 116.289453 299.989578 
L 111.947535 293.817277 
L 107.671031 287.06047 
L 103.464172 279.756614 
L 99.331117 271.945373 
L 95.275953 263.668415 
L 91.30269 254.969205 
L 87.415257 245.892792 
L 83.617498 236.485601 
L 79.913168 226.795213 
L 76.305932 216.870151 
L 72.799355 206.759662 
L 69.396905 196.513502 
L 66.101947 186.181715 
L 59.847429 165.461586 
L 54.060534 144.997237 
L 48.764147 125.177612 
L 43.979211 106.376098 
L 37.801599 80.844521 
L 32.871778 59.452847 
L 27.542173 35.310687 
L 25.927212 27.737195 
L 27.339678 26.870808 
L 28.942161 26.168708 
L 29.965079 25.872501 
L 31.134481 25.675169 
L 32.449211 25.628826 
L 33.907968 25.788586 
L 35.50931 26.211334 
L 37.251654 26.954448 
L 39.133277 28.074485 
L 41.152318 29.625839 
L 43.30678 31.659476 
L 45.594534 34.221687 
L 48.013316 37.352941 
L 50.560735 41.086927 
L 53.234272 45.449658 
L 56.031283 50.458832 
L 58.949003 56.123348 
L 61.984546 62.443028 
L 65.13491 69.408548 
L 68.39698 77.001564 
L 71.767531 85.195 
L 78.820639 103.234295 
L 86.266341 123.156984 
L 106.40147 177.988 
L 114.980263 200.465405 
L 119.365422 211.532701 
L 123.80866 222.392258 
L 128.305585 232.976762 
L 132.851749 243.221782 
L 137.442657 253.066222 
L 142.073769 262.452706 
L 146.740507 271.327887 
L 151.438254 279.642699 
L 156.162366 287.352539 
L 160.90817 294.417407 
L 165.670976 300.801988 
L 170.446071 306.475702 
L 175.228736 311.412709 
L 180.014239 315.591889 
L 184.79785 318.996787 
L 189.574837 321.615549 
L 194.340478 323.440818 
L 199.090059 324.469637 
L 203.818884 324.703316 
L 208.522277 324.147305 
L 213.195586 322.811044 
L 217.834191 320.707812 
L 222.433504 317.854565 
L 226.988978 314.271768 
L 231.496108 309.983221 
L 235.950437 305.015879 
L 240.34756 299.399669 
L 244.68313 293.167299 
L 248.952858 286.354064 
L 253.152523 278.997651 
L 257.277971 271.137931 
L 261.325124 262.816764 
L 265.28998 254.077782 
L 269.168617 244.966182 
L 272.957201 235.528513 
L 276.651984 225.81246 
L 280.249314 215.866629 
L 283.745632 205.740327 
L 287.137483 195.48335 
L 290.421511 185.145757 
L 296.65322 164.429014 
L 302.416117 143.987767 
L 307.687413 124.210335 
L 312.446262 105.469163 
L 318.583106 80.059325 
L 323.470516 58.821996 
L 329.334662 32.169232 
L 330.266769 27.733016 
L 328.794314 26.836058 
L 327.162169 26.136052 
L 326.124554 25.847497 
L 324.940565 25.662859 
L 323.611372 25.634607 
L 322.138289 25.818088 
L 320.522773 26.270293 
L 318.766421 27.04858 
L 316.870971 28.209345 
L 314.838296 29.806703 
L 312.670406 31.891201 
L 310.369446 34.508599 
L 307.93769 37.698731 
L 305.377544 41.494553 
L 302.691539 45.921274 
L 299.88233 50.99573 
L 296.952696 56.72592 
L 293.905534 63.110754 
L 290.743857 70.139996 
L 287.470792 77.794412 
L 284.089575 86.046078 
L 277.016162 104.189229 
L 269.55159 124.19454 
L 249.376046 179.116145 
L 240.783958 201.579514 
L 236.392796 212.629136 
L 231.94399 223.464173 
L 227.441941 234.017577 
L 222.891099 244.22523 
L 218.295966 254.026392 
L 213.661084 263.364077 
L 208.991038 272.185357 
L 204.290445 280.441604 
L 199.563953 288.08867 
L 194.816236 295.08702 
L 190.05199 301.401812 
L 185.275925 307.00294 
L 180.492764 311.865037 
L 175.707236 315.967453 
L 170.924075 319.294196 
L 166.14801 321.833866 
L 161.383764 323.579552 
L 156.636047 324.528728 
L 151.909555 324.683126 
L 147.208962 324.048601 
L 142.538916 322.634983 
L 137.904034 320.455928 
L 133.308901 317.528748 
L 128.758059 313.874251 
L 124.25601 309.516561 
L 119.807204 304.482939 
L 115.416042 298.803597 
L 111.086865 292.511511 
L 106.823954 285.642225 
L 102.631525 278.233652 
L 98.513723 270.325873 
L 94.474621 261.960933 
L 90.518213 253.182631 
L 86.64841 244.036309 
L 82.869039 234.568639 
L 79.183838 224.827408 
L 75.596451 214.861301 
L 72.110425 204.719685 
L 68.729208 194.452391 
L 65.456143 184.109494 
L 59.247304 163.397132 
L 53.508461 142.979959 
L 48.26231 123.245654 
L 43.529594 104.565701 
L 37.433579 79.27878 
L 32.588628 58.196776 
L 26.812769 31.92453 
L 25.940756 27.727802 
L 27.473185 26.801069 
L 29.134976 26.103969 
L 30.187276 25.823545 
L 31.38584 25.65213 
L 32.729484 25.642523 
L 34.216878 25.850294 
L 35.846552 26.332531 
L 37.616894 27.146554 
L 39.526154 28.348611 
L 41.572443 29.992478 
L 43.753738 32.128288 
L 46.067882 34.801262 
L 48.512587 38.050599 
L 51.085436 41.908503 
L 53.783883 46.399379 
L 56.605261 51.539211 
L 59.54678 57.335065 
L 62.605531 63.784928 
L 65.778489 70.877702 
L 69.062517 78.593233 
L 72.454368 86.90277 
L 79.548016 105.148839 
L 87.031383 125.235593 
L 107.247142 180.244272 
L 115.85244 202.692169 
L 120.249563 213.723423 
L 124.703892 224.53327 
L 129.211022 235.054932 
L 133.766496 245.224609 
L 138.365809 254.981923 
L 143.004414 264.27028 
L 147.677723 273.037173 
L 152.381116 281.234414 
L 157.109941 288.818311 
L 161.859522 295.749794 
L 166.625163 301.994496 
L 171.40215 307.522785 
L 176.185761 312.309766 
L 180.971264 316.335257 
L 185.753929 319.583731 
L 190.529024 322.044239 
L 195.29183 323.710317 
L 200.037634 324.579868 
L 204.761746 324.655044 
L 209.459493 323.942102 
L 214.126231 322.451265 
L 218.757343 320.196558 
L 223.348251 317.195655 
L 227.894415 313.4697 
L 232.39134 309.043139 
L 236.834578 303.943538 
L 241.219737 298.201394 
L 245.542479 291.849948 
L 249.79853 284.92499 
L 253.983681 277.464658 
L 258.093795 269.509241 
L 262.124806 261.100967 
L 266.072729 252.283799 
L 269.933659 243.103222 
L 273.70378 233.606029 
L 277.379361 223.840106 
L 280.95677 213.854218 
L 284.432469 203.697786 
L 287.80302 193.420675 
L 291.06509 183.072975 
L 297.250997 162.365989 
L 302.965728 141.973861 
L 308.186684 122.283612 
L 312.89322 103.665752 
L 318.948346 78.502922 
L 323.750789 57.577212 
L 329.438303 31.686683 
L 330.250215 27.72148 
L 328.657827 26.76574 
L 326.966407 26.072371 
L 325.899431 25.800582 
L 324.686303 25.642914 
L 323.328222 25.652511 
L 321.826531 25.885148 
L 320.182716 26.397994 
L 318.398401 27.248319 
L 316.475351 28.492171 
L 314.415468 30.183051 
L 312.220789 32.370651 
L 309.893483 35.099611 
L 307.435853 38.408486 
L 304.850328 42.328732 
L 302.139466 46.883933 
L 299.305946 52.089188 
L 296.352571 57.950691 
L 293.282262 64.465518 
L 290.098053 71.621619 
L 286.803095 79.397992 
L 283.400645 87.76502 
L 276.286832 106.113051 
L 268.784743 126.280058 
L 248.528969 181.372308 
L 239.910547 203.803297 
L 235.507506 214.81549 
L 231.047698 225.599479 
L 226.535532 236.08876 
L 221.975471 246.219859 
L 217.372023 255.932758 
L 212.729741 265.171263 
L 208.053214 273.883286 
L 203.347069 282.021082 
L 198.615958 289.541419 
L 193.864559 296.405694 
L 189.097571 302.58001 
L 184.319709 308.03521 
L 179.535696 312.746873 
L 174.750263 316.695285 
L 169.968143 319.865381 
L 165.194064 322.246665 
L 160.432747 323.833113 
L 155.688901 324.623061 
L 150.967216 324.619077 
L 146.272361 323.827822 
L 141.608979 322.259905 
L 136.981682 319.929725 
L 132.395044 316.855309 
L 127.853603 313.058141 
L 123.361847 308.562986 
L 118.92422 303.397711 
L 114.54511 297.593097 
L 110.228845 291.182649 
L 105.979696 284.2024 
L 101.801863 276.690714 
L 97.699478 268.68808 
L 93.676598 260.236912 
L 89.7372 251.381333 
L 85.88518 242.166969 
L 82.124347 232.640732 
L 78.458421 222.850606 
L 74.891025 212.84543 
L 71.425689 202.674681 
L 68.065838 192.388255 
L 64.814794 182.036253 
L 58.65188 161.335636 
L 52.961317 140.969522 
L 47.765608 121.324257 
L 43.0853 102.769361 
L 37.071123 77.731792 
L 31.010981 51.143677 
L 25.922697 27.765688 
L 26.148386 27.586011 
L 27.61265 26.730383 
L 29.333682 26.041571 
L 30.415323 25.778903 
L 31.643003 25.635515 
L 33.015508 25.664872 
L 34.53148 25.922943 
L 36.189421 26.466966 
L 37.987691 27.354155 
L 39.924512 28.640353 
L 41.997969 30.378739 
L 44.20601 32.618551 
L 46.546454 35.40388 
L 49.016985 38.772594 
L 51.615161 42.755408 
L 54.338412 47.375077 
L 57.184045 52.645823 
L 60.149247 58.572936 
L 63.231085 65.152579 
L 66.426512 72.371794 
L 69.732367 80.208701 
L 76.662184 97.605839 
L 83.993131 117.008576 
L 112.378853 193.754218 
L 116.727078 204.912842 
L 121.135992 215.905283 
L 125.601236 226.662746 
L 130.118392 237.119011 
L 134.682996 247.21093 
L 139.290533 256.878852 
L 143.936447 266.066982 
L 148.616144 274.723657 
L 153.324996 282.801577 
L 158.058347 290.257967 
L 162.811516 297.054693 
L 167.579803 303.158331 
L 172.358494 308.540198 
L 177.142861 313.176346 
L 181.928176 317.047528 
L 186.709704 320.13914 
L 191.48272 322.441138 
L 196.242501 323.947941 
L 200.984342 324.658311 
L 205.703554 324.575234 
L 210.39547 323.705772 
L 215.05545 322.060919 
L 219.678887 319.655446 
L 224.261208 316.507732 
L 228.797882 312.639598 
L 233.284424 308.076128 
L 237.716396 302.845487 
L 242.089416 296.978739 
L 246.39916 290.509649 
L 250.641365 283.474493 
L 254.811838 275.911856 
L 258.906454 267.86243 
L 262.921164 259.368808 
L 266.851998 250.475274 
L 270.695069 241.227592 
L 274.446577 231.67279 
L 278.102812 221.858949 
L 281.660158 211.834979 
L 285.115099 201.650408 
L 288.464217 191.355168 
L 294.831846 170.633069 
L 300.737866 150.067841 
L 306.158921 130.051308 
L 311.073574 110.961346 
L 315.46239 93.155565 
L 321.022291 69.571191 
L 326.451258 45.434051 
L 330.227642 27.705863 
L 329.167986 27.039544 
L 327.714044 26.33871 
L 326.764757 26.011364 
L 325.668461 25.758313 
L 324.426242 25.629746 
L 323.039327 25.679425 
L 321.509088 25.963507 
L 319.837038 26.539284 
L 318.024831 27.463899 
L 316.074258 28.793 
L 313.987249 30.579384 
L 311.765866 32.87185 
L 309.412307 35.713919 
L 306.9289 39.142786 
L 304.318099 43.188393 
L 301.582487 47.872676 
L 298.724768 53.208989 
L 295.747769 59.20167 
L 292.654433 65.845988 
L 289.447819 73.128108 
L 286.131098 81.025239 
L 279.180561 98.531611 
L 271.830306 118.023835 
L 247.679105 183.627836 
L 239.03469 206.020713 
L 234.619946 216.992714 
L 230.149312 227.722991 
L 225.627208 238.145609 
L 221.058107 248.197751 
L 216.446527 257.82014 
L 211.797027 266.957378 
L 207.114206 275.558234 
L 202.402695 283.575852 
L 197.667151 290.967914 
L 192.912258 297.696757 
L 188.142718 303.72943 
L 183.363247 309.037725 
L 178.578572 313.598165 
L 173.793423 317.391971 
L 169.012533 320.404999 
L 164.240629 322.627657 
L 159.48243 324.054801 
L 154.742641 324.685624 
L 150.025949 324.523524 
L 145.337019 323.575964 
L 140.680486 321.854324 
L 136.060956 319.373742 
L 131.482996 316.152949 
L 126.951134 312.2141 
L 122.469851 307.582596 
L 118.043577 302.286901 
L 113.676691 296.358356 
L 109.373511 289.830988 
L 105.138291 282.741311 
L 100.975219 275.128131 
L 96.888413 267.03234 
L 92.881914 258.496709 
L 88.959682 249.565679 
L 85.125598 240.285149 
L 81.383452 230.702265 
L 77.736945 220.865198 
L 74.189682 210.822933 
L 70.745172 200.625048 
L 67.40682 190.321496 
L 61.061688 169.597797 
L 55.179377 149.050792 
L 49.78315 129.071761 
L 44.894344 110.037713 
L 40.532293 92.305089 
L 35.014028 68.85951 
L 29.642774 44.95204 
L 25.918182 27.744515 
L 27.090561 27.006556 
L 28.574241 26.303949 
L 29.538274 25.981897 
L 30.649213 25.738971 
L 31.90596 25.62576 
L 33.307271 25.696324 
L 34.851761 26.00699 
L 36.537904 26.615095 
L 38.364031 27.577688 
L 40.328336 28.950177 
L 42.428878 30.785059 
L 44.663579 33.130636 
L 47.03023 36.029829 
L 49.526489 39.519153 
L 52.149889 43.627784 
L 54.897836 48.376813 
L 57.767612 53.778703 
L 60.756379 59.836925 
L 63.861183 66.54581 
L 67.078951 73.890595 
L 70.406504 81.847654 
L 77.377694 99.462371 
L 84.747184 119.042965 
L 108.946861 184.755168 
L 117.604145 207.126845 
L 122.024675 218.07772 
L 126.500656 228.780149 
L 131.027661 239.16849 
L 135.601214 249.180264 
L 140.216792 258.756564 
L 144.869831 267.842399 
L 149.55573 276.386965 
L 154.269856 284.343855 
L 159.007545 291.671213 
L 163.764115 298.331846 
L 168.53486 304.293277 
L 173.315064 309.527766 
L 178.1 314.01231 
L 178.1 314.01231 
" clip-path="url(#pb326499a71)" style="fill: none; stroke: #0000ff; stroke-linecap: square"/>
   </g>
   <g id="line2d_32">
    <defs>
     <path id="mfd7c96807a" d="M 0 -3 
L -0.673542 -0.927051 
L -2.85317 -0.927051 
L -1.089814 0.354102 
L -1.763356 2.427051 
L -0 1.145898 
L 1.763356 2.427051 
L 1.089814 0.354102 
L 2.85317 -0.927051 
L 0.673542 -0.927051 
z
" style="stroke: #0000ff; stroke-linejoin: bevel"/>
    </defs>
    <g clip-path="url(#pb326499a71)">
     <use xlink:href="#mfd7c96807a" x="178.1" y="324.72" style="fill: #0000ff; stroke: #0000ff; stroke-linejoin: bevel"/>
    </g>
   </g>
   <g id="patch_3">
    <path d="M 10.7 339.84 
L 10.7 7.2 
" style="fill: none; stroke: #000000; stroke-width: 0.8; stroke-linejoin: miter; stroke-linecap: square"/>
   </g>
   <g id="patch_4">
    <path d="M 345.5 339.84 
L 345.5 7.2 
" style="fill: none; stroke: #000000; stroke-width: 0.8; stroke-linejoin: miter; stroke-linecap: square"/>
   </g>
   <g id="patch_5">
    <path d="M 10.7 339.84 
L 345.5 339.84 
" style="fill: none; stroke: #000000; stroke-width: 0.8; stroke-linejoin: miter; stroke-linecap: square"/>
   </g>
   <g id="patch_6">
    <path d="M 10.7 7.2 
L 345.5 7.2 
" style="fill: none; stroke: #000000; stroke-width: 0.8; stroke-linejoin: miter; stroke-linecap: square"/>
   </g>
  </g>
 </g>
 <defs>
  <clipPath id="pb326499a71">
   <rect x="10.7" y="7.2" width="334.8" height="332.64"/>
  </clipPath>
 </defs>
</svg>
