<?xml version="1.0" encoding="utf-8" standalone="no"?>
<!DOCTYPE svg PUBLIC "-//W3C//DTD SVG 1.1//EN"
  "http://www.w3.org/Graphics/SVG/1.1/DTD/svg11.dtd">
<svg xmlns:xlink="http://www.w3.org/1999/xlink" width="1072.563957pt" height="355.59625pt" viewBox="0 0 1072.563957 355.59625" xmlns="http://www.w3.org/2000/svg" version="1.1">
 <metadata>
  <rdf:RDF xmlns:dc="http://purl.org/dc/elements/1.1/" xmlns:cc="http://creativecommons.org/ns#" xmlns:rdf="http://www.w3.org/1999/02/22-rdf-syntax-ns#">
   <cc:Work>
    <dc:type rdf:resource="http://purl.org/dc/dcmitype/StillImage"/>
    <dc:date>2025-02-10T00:06:57.314291</dc:date>
    <dc:format>image/svg+xml</dc:format>
    <dc:creator>
     <cc:Agent>
      <dc:title>Matplotlib v3.9.2, https://matplotlib.org/</dc:title>
     </cc:Agent>
    </dc:creator>
   </cc:Work>
  </rdf:RDF>
 </metadata>
 <defs>
  <style type="text/css">*{stroke-linejoin: round; stroke-linecap: butt}</style>
 </defs>
 <g id="figure_1">
  <g id="patch_1">
   <path d="M 0 355.59625 
L 1072.563957 355.59625 
L 1072.563957 0 
L 0 0 
z
" style="fill: #ffffff"/>
  </g>
  <g id="axes_1">
   <g id="patch_2">
    <path d="M 48.982813 318.04 
L 350.342812 318.04 
L 350.342812 36.72 
L 48.982813 36.72 
z
" style="fill: #ffffff"/>
   </g>
   <g id="matplotlib.axis_1">
    <g id="xtick_1">
     <g id="line2d_1">
      <path d="M 62.680994 318.04 
L 62.680994 36.72 
" clip-path="url(#pc599bb2ef2)" style="fill: none; stroke: #b0b0b0; stroke-width: 0.8; stroke-linecap: square"/>
     </g>
     <g id="line2d_2">
      <defs>
       <path id="ma016288f8d" d="M 0 0 
L 0 3.5 
" style="stroke: #000000; stroke-width: 0.8"/>
      </defs>
      <g>
       <use xlink:href="#ma016288f8d" x="62.680994" y="318.04" style="stroke: #000000; stroke-width: 0.8"/>
      </g>
     </g>
     <g id="text_1">
      <!-- 0.0 -->
      <g transform="translate(54.729432 332.638437) scale(0.1 -0.1)">
       <defs>
        <path id="DejaVuSans-30" d="M 2034 4250 
Q 1547 4250 1301 3770 
Q 1056 3291 1056 2328 
Q 1056 1369 1301 889 
Q 1547 409 2034 409 
Q 2525 409 2770 889 
Q 3016 1369 3016 2328 
Q 3016 3291 2770 3770 
Q 2525 4250 2034 4250 
z
M 2034 4750 
Q 2819 4750 3233 4129 
Q 3647 3509 3647 2328 
Q 3647 1150 3233 529 
Q 2819 -91 2034 -91 
Q 1250 -91 836 529 
Q 422 1150 422 2328 
Q 422 3509 836 4129 
Q 1250 4750 2034 4750 
z
" transform="scale(0.015625)"/>
        <path id="DejaVuSans-2e" d="M 684 794 
L 1344 794 
L 1344 0 
L 684 0 
L 684 794 
z
" transform="scale(0.015625)"/>
       </defs>
       <use xlink:href="#DejaVuSans-30"/>
       <use xlink:href="#DejaVuSans-2e" x="63.623047"/>
       <use xlink:href="#DejaVuSans-30" x="95.410156"/>
      </g>
     </g>
    </g>
    <g id="xtick_2">
     <g id="line2d_3">
      <path d="M 96.960763 318.04 
L 96.960763 36.72 
" clip-path="url(#pc599bb2ef2)" style="fill: none; stroke: #b0b0b0; stroke-width: 0.8; stroke-linecap: square"/>
     </g>
     <g id="line2d_4">
      <g>
       <use xlink:href="#ma016288f8d" x="96.960763" y="318.04" style="stroke: #000000; stroke-width: 0.8"/>
      </g>
     </g>
     <g id="text_2">
      <!-- 2.5 -->
      <g transform="translate(89.0092 332.638437) scale(0.1 -0.1)">
       <defs>
        <path id="DejaVuSans-32" d="M 1228 531 
L 3431 531 
L 3431 0 
L 469 0 
L 469 531 
Q 828 903 1448 1529 
Q 2069 2156 2228 2338 
Q 2531 2678 2651 2914 
Q 2772 3150 2772 3378 
Q 2772 3750 2511 3984 
Q 2250 4219 1831 4219 
Q 1534 4219 1204 4116 
Q 875 4013 500 3803 
L 500 4441 
Q 881 4594 1212 4672 
Q 1544 4750 1819 4750 
Q 2544 4750 2975 4387 
Q 3406 4025 3406 3419 
Q 3406 3131 3298 2873 
Q 3191 2616 2906 2266 
Q 2828 2175 2409 1742 
Q 1991 1309 1228 531 
z
" transform="scale(0.015625)"/>
        <path id="DejaVuSans-35" d="M 691 4666 
L 3169 4666 
L 3169 4134 
L 1269 4134 
L 1269 2991 
Q 1406 3038 1543 3061 
Q 1681 3084 1819 3084 
Q 2600 3084 3056 2656 
Q 3513 2228 3513 1497 
Q 3513 744 3044 326 
Q 2575 -91 1722 -91 
Q 1428 -91 1123 -41 
Q 819 9 494 109 
L 494 744 
Q 775 591 1075 516 
Q 1375 441 1709 441 
Q 2250 441 2565 725 
Q 2881 1009 2881 1497 
Q 2881 1984 2565 2268 
Q 2250 2553 1709 2553 
Q 1456 2553 1204 2497 
Q 953 2441 691 2322 
L 691 4666 
z
" transform="scale(0.015625)"/>
       </defs>
       <use xlink:href="#DejaVuSans-32"/>
       <use xlink:href="#DejaVuSans-2e" x="63.623047"/>
       <use xlink:href="#DejaVuSans-35" x="95.410156"/>
      </g>
     </g>
    </g>
    <g id="xtick_3">
     <g id="line2d_5">
      <path d="M 131.240532 318.04 
L 131.240532 36.72 
" clip-path="url(#pc599bb2ef2)" style="fill: none; stroke: #b0b0b0; stroke-width: 0.8; stroke-linecap: square"/>
     </g>
     <g id="line2d_6">
      <g>
       <use xlink:href="#ma016288f8d" x="131.240532" y="318.04" style="stroke: #000000; stroke-width: 0.8"/>
      </g>
     </g>
     <g id="text_3">
      <!-- 5.0 -->
      <g transform="translate(123.288969 332.638437) scale(0.1 -0.1)">
       <use xlink:href="#DejaVuSans-35"/>
       <use xlink:href="#DejaVuSans-2e" x="63.623047"/>
       <use xlink:href="#DejaVuSans-30" x="95.410156"/>
      </g>
     </g>
    </g>
    <g id="xtick_4">
     <g id="line2d_7">
      <path d="M 165.5203 318.04 
L 165.5203 36.72 
" clip-path="url(#pc599bb2ef2)" style="fill: none; stroke: #b0b0b0; stroke-width: 0.8; stroke-linecap: square"/>
     </g>
     <g id="line2d_8">
      <g>
       <use xlink:href="#ma016288f8d" x="165.5203" y="318.04" style="stroke: #000000; stroke-width: 0.8"/>
      </g>
     </g>
     <g id="text_4">
      <!-- 7.5 -->
      <g transform="translate(157.568738 332.638437) scale(0.1 -0.1)">
       <defs>
        <path id="DejaVuSans-37" d="M 525 4666 
L 3525 4666 
L 3525 4397 
L 1831 0 
L 1172 0 
L 2766 4134 
L 525 4134 
L 525 4666 
z
" transform="scale(0.015625)"/>
       </defs>
       <use xlink:href="#DejaVuSans-37"/>
       <use xlink:href="#DejaVuSans-2e" x="63.623047"/>
       <use xlink:href="#DejaVuSans-35" x="95.410156"/>
      </g>
     </g>
    </g>
    <g id="xtick_5">
     <g id="line2d_9">
      <path d="M 199.800069 318.04 
L 199.800069 36.72 
" clip-path="url(#pc599bb2ef2)" style="fill: none; stroke: #b0b0b0; stroke-width: 0.8; stroke-linecap: square"/>
     </g>
     <g id="line2d_10">
      <g>
       <use xlink:href="#ma016288f8d" x="199.800069" y="318.04" style="stroke: #000000; stroke-width: 0.8"/>
      </g>
     </g>
     <g id="text_5">
      <!-- 10.0 -->
      <g transform="translate(188.667256 332.638437) scale(0.1 -0.1)">
       <defs>
        <path id="DejaVuSans-31" d="M 794 531 
L 1825 531 
L 1825 4091 
L 703 3866 
L 703 4441 
L 1819 4666 
L 2450 4666 
L 2450 531 
L 3481 531 
L 3481 0 
L 794 0 
L 794 531 
z
" transform="scale(0.015625)"/>
       </defs>
       <use xlink:href="#DejaVuSans-31"/>
       <use xlink:href="#DejaVuSans-30" x="63.623047"/>
       <use xlink:href="#DejaVuSans-2e" x="127.246094"/>
       <use xlink:href="#DejaVuSans-30" x="159.033203"/>
      </g>
     </g>
    </g>
    <g id="xtick_6">
     <g id="line2d_11">
      <path d="M 234.079837 318.04 
L 234.079837 36.72 
" clip-path="url(#pc599bb2ef2)" style="fill: none; stroke: #b0b0b0; stroke-width: 0.8; stroke-linecap: square"/>
     </g>
     <g id="line2d_12">
      <g>
       <use xlink:href="#ma016288f8d" x="234.079837" y="318.04" style="stroke: #000000; stroke-width: 0.8"/>
      </g>
     </g>
     <g id="text_6">
      <!-- 12.5 -->
      <g transform="translate(222.947025 332.638437) scale(0.1 -0.1)">
       <use xlink:href="#DejaVuSans-31"/>
       <use xlink:href="#DejaVuSans-32" x="63.623047"/>
       <use xlink:href="#DejaVuSans-2e" x="127.246094"/>
       <use xlink:href="#DejaVuSans-35" x="159.033203"/>
      </g>
     </g>
    </g>
    <g id="xtick_7">
     <g id="line2d_13">
      <path d="M 268.359606 318.04 
L 268.359606 36.72 
" clip-path="url(#pc599bb2ef2)" style="fill: none; stroke: #b0b0b0; stroke-width: 0.8; stroke-linecap: square"/>
     </g>
     <g id="line2d_14">
      <g>
       <use xlink:href="#ma016288f8d" x="268.359606" y="318.04" style="stroke: #000000; stroke-width: 0.8"/>
      </g>
     </g>
     <g id="text_7">
      <!-- 15.0 -->
      <g transform="translate(257.226794 332.638437) scale(0.1 -0.1)">
       <use xlink:href="#DejaVuSans-31"/>
       <use xlink:href="#DejaVuSans-35" x="63.623047"/>
       <use xlink:href="#DejaVuSans-2e" x="127.246094"/>
       <use xlink:href="#DejaVuSans-30" x="159.033203"/>
      </g>
     </g>
    </g>
    <g id="xtick_8">
     <g id="line2d_15">
      <path d="M 302.639375 318.04 
L 302.639375 36.72 
" clip-path="url(#pc599bb2ef2)" style="fill: none; stroke: #b0b0b0; stroke-width: 0.8; stroke-linecap: square"/>
     </g>
     <g id="line2d_16">
      <g>
       <use xlink:href="#ma016288f8d" x="302.639375" y="318.04" style="stroke: #000000; stroke-width: 0.8"/>
      </g>
     </g>
     <g id="text_8">
      <!-- 17.5 -->
      <g transform="translate(291.506562 332.638437) scale(0.1 -0.1)">
       <use xlink:href="#DejaVuSans-31"/>
       <use xlink:href="#DejaVuSans-37" x="63.623047"/>
       <use xlink:href="#DejaVuSans-2e" x="127.246094"/>
       <use xlink:href="#DejaVuSans-35" x="159.033203"/>
      </g>
     </g>
    </g>
    <g id="xtick_9">
     <g id="line2d_17">
      <path d="M 336.919143 318.04 
L 336.919143 36.72 
" clip-path="url(#pc599bb2ef2)" style="fill: none; stroke: #b0b0b0; stroke-width: 0.8; stroke-linecap: square"/>
     </g>
     <g id="line2d_18">
      <g>
       <use xlink:href="#ma016288f8d" x="336.919143" y="318.04" style="stroke: #000000; stroke-width: 0.8"/>
      </g>
     </g>
     <g id="text_9">
      <!-- 20.0 -->
      <g transform="translate(325.786331 332.638437) scale(0.1 -0.1)">
       <use xlink:href="#DejaVuSans-32"/>
       <use xlink:href="#DejaVuSans-30" x="63.623047"/>
       <use xlink:href="#DejaVuSans-2e" x="127.246094"/>
       <use xlink:href="#DejaVuSans-30" x="159.033203"/>
      </g>
     </g>
    </g>
    <g id="text_10">
     <!-- t -->
     <g transform="translate(197.702656 346.316562) scale(0.1 -0.1)">
      <defs>
       <path id="DejaVuSans-74" d="M 1172 4494 
L 1172 3500 
L 2356 3500 
L 2356 3053 
L 1172 3053 
L 1172 1153 
Q 1172 725 1289 603 
Q 1406 481 1766 481 
L 2356 481 
L 2356 0 
L 1766 0 
Q 1100 0 847 248 
Q 594 497 594 1153 
L 594 3053 
L 172 3053 
L 172 3500 
L 594 3500 
L 594 4494 
L 1172 4494 
z
" transform="scale(0.015625)"/>
      </defs>
      <use xlink:href="#DejaVuSans-74"/>
     </g>
    </g>
   </g>
   <g id="matplotlib.axis_2">
    <g id="ytick_1">
     <g id="line2d_19">
      <path d="M 48.982813 286.224253 
L 350.342812 286.224253 
" clip-path="url(#pc599bb2ef2)" style="fill: none; stroke: #b0b0b0; stroke-width: 0.8; stroke-linecap: square"/>
     </g>
     <g id="line2d_20">
      <defs>
       <path id="m41748d56c8" d="M 0 0 
L -3.5 0 
" style="stroke: #000000; stroke-width: 0.8"/>
      </defs>
      <g>
       <use xlink:href="#m41748d56c8" x="48.982813" y="286.224253" style="stroke: #000000; stroke-width: 0.8"/>
      </g>
     </g>
     <g id="text_11">
      <!-- −40 -->
      <g transform="translate(20.878125 290.023471) scale(0.1 -0.1)">
       <defs>
        <path id="DejaVuSans-2212" d="M 678 2272 
L 4684 2272 
L 4684 1741 
L 678 1741 
L 678 2272 
z
" transform="scale(0.015625)"/>
        <path id="DejaVuSans-34" d="M 2419 4116 
L 825 1625 
L 2419 1625 
L 2419 4116 
z
M 2253 4666 
L 3047 4666 
L 3047 1625 
L 3713 1625 
L 3713 1100 
L 3047 1100 
L 3047 0 
L 2419 0 
L 2419 1100 
L 313 1100 
L 313 1709 
L 2253 4666 
z
" transform="scale(0.015625)"/>
       </defs>
       <use xlink:href="#DejaVuSans-2212"/>
       <use xlink:href="#DejaVuSans-34" x="83.789062"/>
       <use xlink:href="#DejaVuSans-30" x="147.412109"/>
      </g>
     </g>
    </g>
    <g id="ytick_2">
     <g id="line2d_21">
      <path d="M 48.982813 251.413119 
L 350.342812 251.413119 
" clip-path="url(#pc599bb2ef2)" style="fill: none; stroke: #b0b0b0; stroke-width: 0.8; stroke-linecap: square"/>
     </g>
     <g id="line2d_22">
      <g>
       <use xlink:href="#m41748d56c8" x="48.982813" y="251.413119" style="stroke: #000000; stroke-width: 0.8"/>
      </g>
     </g>
     <g id="text_12">
      <!-- −30 -->
      <g transform="translate(20.878125 255.212337) scale(0.1 -0.1)">
       <defs>
        <path id="DejaVuSans-33" d="M 2597 2516 
Q 3050 2419 3304 2112 
Q 3559 1806 3559 1356 
Q 3559 666 3084 287 
Q 2609 -91 1734 -91 
Q 1441 -91 1130 -33 
Q 819 25 488 141 
L 488 750 
Q 750 597 1062 519 
Q 1375 441 1716 441 
Q 2309 441 2620 675 
Q 2931 909 2931 1356 
Q 2931 1769 2642 2001 
Q 2353 2234 1838 2234 
L 1294 2234 
L 1294 2753 
L 1863 2753 
Q 2328 2753 2575 2939 
Q 2822 3125 2822 3475 
Q 2822 3834 2567 4026 
Q 2313 4219 1838 4219 
Q 1578 4219 1281 4162 
Q 984 4106 628 3988 
L 628 4550 
Q 988 4650 1302 4700 
Q 1616 4750 1894 4750 
Q 2613 4750 3031 4423 
Q 3450 4097 3450 3541 
Q 3450 3153 3228 2886 
Q 3006 2619 2597 2516 
z
" transform="scale(0.015625)"/>
       </defs>
       <use xlink:href="#DejaVuSans-2212"/>
       <use xlink:href="#DejaVuSans-33" x="83.789062"/>
       <use xlink:href="#DejaVuSans-30" x="147.412109"/>
      </g>
     </g>
    </g>
    <g id="ytick_3">
     <g id="line2d_23">
      <path d="M 48.982813 216.601985 
L 350.342812 216.601985 
" clip-path="url(#pc599bb2ef2)" style="fill: none; stroke: #b0b0b0; stroke-width: 0.8; stroke-linecap: square"/>
     </g>
     <g id="line2d_24">
      <g>
       <use xlink:href="#m41748d56c8" x="48.982813" y="216.601985" style="stroke: #000000; stroke-width: 0.8"/>
      </g>
     </g>
     <g id="text_13">
      <!-- −20 -->
      <g transform="translate(20.878125 220.401203) scale(0.1 -0.1)">
       <use xlink:href="#DejaVuSans-2212"/>
       <use xlink:href="#DejaVuSans-32" x="83.789062"/>
       <use xlink:href="#DejaVuSans-30" x="147.412109"/>
      </g>
     </g>
    </g>
    <g id="ytick_4">
     <g id="line2d_25">
      <path d="M 48.982813 181.79085 
L 350.342812 181.79085 
" clip-path="url(#pc599bb2ef2)" style="fill: none; stroke: #b0b0b0; stroke-width: 0.8; stroke-linecap: square"/>
     </g>
     <g id="line2d_26">
      <g>
       <use xlink:href="#m41748d56c8" x="48.982813" y="181.79085" style="stroke: #000000; stroke-width: 0.8"/>
      </g>
     </g>
     <g id="text_14">
      <!-- −10 -->
      <g transform="translate(20.878125 185.590069) scale(0.1 -0.1)">
       <use xlink:href="#DejaVuSans-2212"/>
       <use xlink:href="#DejaVuSans-31" x="83.789062"/>
       <use xlink:href="#DejaVuSans-30" x="147.412109"/>
      </g>
     </g>
    </g>
    <g id="ytick_5">
     <g id="line2d_27">
      <path d="M 48.982813 146.979716 
L 350.342812 146.979716 
" clip-path="url(#pc599bb2ef2)" style="fill: none; stroke: #b0b0b0; stroke-width: 0.8; stroke-linecap: square"/>
     </g>
     <g id="line2d_28">
      <g>
       <use xlink:href="#m41748d56c8" x="48.982813" y="146.979716" style="stroke: #000000; stroke-width: 0.8"/>
      </g>
     </g>
     <g id="text_15">
      <!-- 0 -->
      <g transform="translate(35.620312 150.778935) scale(0.1 -0.1)">
       <use xlink:href="#DejaVuSans-30"/>
      </g>
     </g>
    </g>
    <g id="ytick_6">
     <g id="line2d_29">
      <path d="M 48.982813 112.168582 
L 350.342812 112.168582 
" clip-path="url(#pc599bb2ef2)" style="fill: none; stroke: #b0b0b0; stroke-width: 0.8; stroke-linecap: square"/>
     </g>
     <g id="line2d_30">
      <g>
       <use xlink:href="#m41748d56c8" x="48.982813" y="112.168582" style="stroke: #000000; stroke-width: 0.8"/>
      </g>
     </g>
     <g id="text_16">
      <!-- 10 -->
      <g transform="translate(29.257812 115.967801) scale(0.1 -0.1)">
       <use xlink:href="#DejaVuSans-31"/>
       <use xlink:href="#DejaVuSans-30" x="63.623047"/>
      </g>
     </g>
    </g>
    <g id="ytick_7">
     <g id="line2d_31">
      <path d="M 48.982813 77.357448 
L 350.342812 77.357448 
" clip-path="url(#pc599bb2ef2)" style="fill: none; stroke: #b0b0b0; stroke-width: 0.8; stroke-linecap: square"/>
     </g>
     <g id="line2d_32">
      <g>
       <use xlink:href="#m41748d56c8" x="48.982813" y="77.357448" style="stroke: #000000; stroke-width: 0.8"/>
      </g>
     </g>
     <g id="text_17">
      <!-- 20 -->
      <g transform="translate(29.257812 81.156667) scale(0.1 -0.1)">
       <use xlink:href="#DejaVuSans-32"/>
       <use xlink:href="#DejaVuSans-30" x="63.623047"/>
      </g>
     </g>
    </g>
    <g id="ytick_8">
     <g id="line2d_33">
      <path d="M 48.982813 42.546314 
L 350.342812 42.546314 
" clip-path="url(#pc599bb2ef2)" style="fill: none; stroke: #b0b0b0; stroke-width: 0.8; stroke-linecap: square"/>
     </g>
     <g id="line2d_34">
      <g>
       <use xlink:href="#m41748d56c8" x="48.982813" y="42.546314" style="stroke: #000000; stroke-width: 0.8"/>
      </g>
     </g>
     <g id="text_18">
      <!-- 30 -->
      <g transform="translate(29.257812 46.345533) scale(0.1 -0.1)">
       <use xlink:href="#DejaVuSans-33"/>
       <use xlink:href="#DejaVuSans-30" x="63.623047"/>
      </g>
     </g>
    </g>
    <g id="text_19">
     <!-- x(t) -->
     <g transform="translate(14.798438 186.201094) rotate(-90) scale(0.1 -0.1)">
      <defs>
       <path id="DejaVuSans-78" d="M 3513 3500 
L 2247 1797 
L 3578 0 
L 2900 0 
L 1881 1375 
L 863 0 
L 184 0 
L 1544 1831 
L 300 3500 
L 978 3500 
L 1906 2253 
L 2834 3500 
L 3513 3500 
z
" transform="scale(0.015625)"/>
       <path id="DejaVuSans-28" d="M 1984 4856 
Q 1566 4138 1362 3434 
Q 1159 2731 1159 2009 
Q 1159 1288 1364 580 
Q 1569 -128 1984 -844 
L 1484 -844 
Q 1016 -109 783 600 
Q 550 1309 550 2009 
Q 550 2706 781 3412 
Q 1013 4119 1484 4856 
L 1984 4856 
z
" transform="scale(0.015625)"/>
       <path id="DejaVuSans-29" d="M 513 4856 
L 1013 4856 
Q 1481 4119 1714 3412 
Q 1947 2706 1947 2009 
Q 1947 1309 1714 600 
Q 1481 -109 1013 -844 
L 513 -844 
Q 928 -128 1133 580 
Q 1338 1288 1338 2009 
Q 1338 2731 1133 3434 
Q 928 4138 513 4856 
z
" transform="scale(0.015625)"/>
      </defs>
      <use xlink:href="#DejaVuSans-78"/>
      <use xlink:href="#DejaVuSans-28" x="59.179688"/>
      <use xlink:href="#DejaVuSans-74" x="98.193359"/>
      <use xlink:href="#DejaVuSans-29" x="137.402344"/>
     </g>
    </g>
   </g>
   <g id="line2d_35">
    <path d="M 62.680994 146.979716 
L 71.465399 146.887125 
L 75.308577 146.603526 
L 78.053703 146.189858 
L 80.79883 145.533981 
L 82.994931 144.800502 
L 85.191033 143.859088 
L 87.387134 142.695804 
L 89.583235 141.304121 
L 91.779336 139.685986 
L 94.524463 137.363554 
L 97.26959 134.752929 
L 101.112767 130.764118 
L 107.152046 124.439064 
L 109.897172 121.924795 
L 112.093273 120.25003 
L 113.740349 119.25491 
L 115.387425 118.529493 
L 117.034501 118.114088 
L 118.132552 118.028448 
L 119.230603 118.108411 
L 120.328653 118.363508 
L 121.426704 118.801462 
L 122.524755 119.427996 
L 123.622805 120.246714 
L 125.269881 121.837502 
L 126.916957 123.859085 
L 128.564033 126.303232 
L 130.211109 129.161815 
L 131.858185 132.425259 
L 134.054286 137.382402 
L 136.250388 142.9869 
L 138.446489 149.168734 
L 141.191616 157.563867 
L 145.034793 170.137805 
L 151.074071 190.034394 
L 153.819198 198.308231 
L 156.015299 204.242618 
L 157.662375 208.178216 
L 159.309451 211.593706 
L 160.956527 214.423314 
L 162.054578 215.954342 
L 163.152628 217.182088 
L 164.250679 218.091976 
L 165.34873 218.671085 
L 166.44678 218.908275 
L 167.544831 218.794348 
L 168.642882 218.322969 
L 169.740932 217.491973 
L 170.838983 216.303618 
L 171.937034 214.764614 
L 173.035084 212.88538 
L 174.68216 209.453118 
L 176.329236 205.31804 
L 177.976312 200.520603 
L 179.623388 195.108581 
L 181.819489 187.037323 
L 184.015591 178.141263 
L 187.309743 163.684229 
L 195.545123 126.594279 
L 197.741224 117.768872 
L 199.937325 109.897951 
L 201.584401 104.769996 
L 203.231477 100.414031 
L 204.329528 97.982615 
L 205.427578 95.957012 
L 206.525629 94.358588 
L 207.62368 93.206357 
L 208.72173 92.51681 
L 209.270756 92.349971 
L 209.819781 92.30377 
L 210.368806 92.379484 
L 210.917832 92.578093 
L 212.015882 93.346039 
L 213.113933 94.607845 
L 214.211984 96.357572 
L 215.310034 98.583863 
L 216.408085 101.273798 
L 217.506136 104.414677 
L 219.153211 109.942047 
L 220.800287 116.40133 
L 222.447363 123.727267 
L 224.643465 134.703688 
L 226.839566 146.850608 
L 229.584693 163.270363 
L 240.016174 227.425589 
L 242.212275 238.946201 
L 243.859351 246.646342 
L 245.506427 253.396287 
L 247.153503 259.077835 
L 248.251554 262.219348 
L 249.349604 264.811182 
L 250.447655 266.828753 
L 251.545706 268.250782 
L 252.094731 268.732768 
L 252.643756 269.059479 
L 253.192782 269.229262 
L 253.741807 269.240702 
L 254.290832 269.092664 
L 254.839857 268.784453 
L 255.388883 268.315871 
L 256.486933 266.899304 
L 257.584984 264.851398 
L 258.683035 262.187205 
L 259.781085 258.923229 
L 260.879136 255.075884 
L 262.526212 248.25045 
L 264.173288 240.224397 
L 265.820364 231.086757 
L 268.016465 217.361926 
L 270.212567 202.154576 
L 272.957693 181.595627 
L 283.389174 101.509694 
L 285.585276 87.18843 
L 287.232352 77.627483 
L 288.879428 69.25264 
L 290.526504 62.205712 
L 291.624554 58.308035 
L 292.722605 55.08906 
L 293.820655 52.577342 
L 294.918706 50.797248 
L 295.467731 50.187978 
L 296.016757 49.768753 
L 296.565782 49.541355 
L 297.114807 49.507273 
L 297.663833 49.667657 
L 298.212858 50.02314 
L 298.761883 50.573742 
L 299.310909 51.318874 
L 300.408959 53.387292 
L 301.50701 56.212236 
L 302.605061 59.774255 
L 303.703111 64.053954 
L 304.801162 69.030433 
L 306.448238 77.747673 
L 308.095314 87.878032 
L 309.74239 99.299932 
L 311.938491 116.288418 
L 314.683618 139.790738 
L 318.526795 175.324963 
L 324.017048 226.445009 
L 326.762175 249.880388 
L 328.958276 266.688321 
L 330.605352 277.849265 
L 332.252428 287.567935 
L 333.899504 295.680346 
L 334.997555 300.124565 
L 336.095605 303.75387 
L 336.644631 305.252727 
L 336.644631 305.252727 
" clip-path="url(#pc599bb2ef2)" style="fill: none; stroke: #0000ff; stroke-width: 1.5; stroke-linecap: square"/>
   </g>
   <g id="line2d_36">
    <path d="M 62.680994 146.979716 
L 64.32807 147.553131 
L 65.975146 147.891954 
L 68.171248 148.059925 
L 70.367349 147.997709 
L 74.210526 147.616417 
L 79.700779 147.084868 
L 84.092982 146.900939 
L 90.13226 146.89628 
L 109.897172 147.001213 
L 212.564908 146.992677 
L 336.644631 146.992677 
L 336.644631 146.992677 
" clip-path="url(#pc599bb2ef2)" style="fill: none; stroke-dasharray: 5.55,2.4; stroke-dashoffset: 0; stroke: #ff0000; stroke-width: 1.5"/>
   </g>
   <g id="patch_3">
    <path d="M 48.982813 318.04 
L 48.982813 36.72 
" style="fill: none; stroke: #000000; stroke-width: 0.8; stroke-linejoin: miter; stroke-linecap: square"/>
   </g>
   <g id="patch_4">
    <path d="M 350.342812 318.04 
L 350.342812 36.72 
" style="fill: none; stroke: #000000; stroke-width: 0.8; stroke-linejoin: miter; stroke-linecap: square"/>
   </g>
   <g id="patch_5">
    <path d="M 48.982813 318.04 
L 350.342812 318.04 
" style="fill: none; stroke: #000000; stroke-width: 0.8; stroke-linejoin: miter; stroke-linecap: square"/>
   </g>
   <g id="patch_6">
    <path d="M 48.982813 36.72 
L 350.342812 36.72 
" style="fill: none; stroke: #000000; stroke-width: 0.8; stroke-linejoin: miter; stroke-linecap: square"/>
   </g>
   <g id="legend_1">
    <g id="patch_7">
     <path d="M 55.982813 74.07625 
L 114.575 74.07625 
Q 116.575 74.07625 116.575 72.07625 
L 116.575 43.72 
Q 116.575 41.72 114.575 41.72 
L 55.982813 41.72 
Q 53.982813 41.72 53.982813 43.72 
L 53.982813 72.07625 
Q 53.982813 74.07625 55.982813 74.07625 
z
" style="fill: #ffffff; opacity: 0.8; stroke: #cccccc; stroke-linejoin: miter"/>
    </g>
    <g id="line2d_37">
     <path d="M 57.982813 49.818437 
L 67.982812 49.818437 
L 77.982812 49.818437 
" style="fill: none; stroke: #0000ff; stroke-width: 1.5; stroke-linecap: square"/>
    </g>
    <g id="text_20">
     <!-- data -->
     <g transform="translate(85.982812 53.318437) scale(0.1 -0.1)">
      <defs>
       <path id="DejaVuSans-64" d="M 2906 2969 
L 2906 4863 
L 3481 4863 
L 3481 0 
L 2906 0 
L 2906 525 
Q 2725 213 2448 61 
Q 2172 -91 1784 -91 
Q 1150 -91 751 415 
Q 353 922 353 1747 
Q 353 2572 751 3078 
Q 1150 3584 1784 3584 
Q 2172 3584 2448 3432 
Q 2725 3281 2906 2969 
z
M 947 1747 
Q 947 1113 1208 752 
Q 1469 391 1925 391 
Q 2381 391 2643 752 
Q 2906 1113 2906 1747 
Q 2906 2381 2643 2742 
Q 2381 3103 1925 3103 
Q 1469 3103 1208 2742 
Q 947 2381 947 1747 
z
" transform="scale(0.015625)"/>
       <path id="DejaVuSans-61" d="M 2194 1759 
Q 1497 1759 1228 1600 
Q 959 1441 959 1056 
Q 959 750 1161 570 
Q 1363 391 1709 391 
Q 2188 391 2477 730 
Q 2766 1069 2766 1631 
L 2766 1759 
L 2194 1759 
z
M 3341 1997 
L 3341 0 
L 2766 0 
L 2766 531 
Q 2569 213 2275 61 
Q 1981 -91 1556 -91 
Q 1019 -91 701 211 
Q 384 513 384 1019 
Q 384 1609 779 1909 
Q 1175 2209 1959 2209 
L 2766 2209 
L 2766 2266 
Q 2766 2663 2505 2880 
Q 2244 3097 1772 3097 
Q 1472 3097 1187 3025 
Q 903 2953 641 2809 
L 641 3341 
Q 956 3463 1253 3523 
Q 1550 3584 1831 3584 
Q 2591 3584 2966 3190 
Q 3341 2797 3341 1997 
z
" transform="scale(0.015625)"/>
      </defs>
      <use xlink:href="#DejaVuSans-64"/>
      <use xlink:href="#DejaVuSans-61" x="63.476562"/>
      <use xlink:href="#DejaVuSans-74" x="124.755859"/>
      <use xlink:href="#DejaVuSans-61" x="163.964844"/>
     </g>
    </g>
    <g id="line2d_38">
     <path d="M 57.982813 64.496562 
L 67.982812 64.496562 
L 77.982812 64.496562 
" style="fill: none; stroke-dasharray: 5.55,2.4; stroke-dashoffset: 0; stroke: #ff0000; stroke-width: 1.5"/>
    </g>
    <g id="text_21">
     <!-- sindy -->
     <g transform="translate(85.982812 67.996562) scale(0.1 -0.1)">
      <defs>
       <path id="DejaVuSans-73" d="M 2834 3397 
L 2834 2853 
Q 2591 2978 2328 3040 
Q 2066 3103 1784 3103 
Q 1356 3103 1142 2972 
Q 928 2841 928 2578 
Q 928 2378 1081 2264 
Q 1234 2150 1697 2047 
L 1894 2003 
Q 2506 1872 2764 1633 
Q 3022 1394 3022 966 
Q 3022 478 2636 193 
Q 2250 -91 1575 -91 
Q 1294 -91 989 -36 
Q 684 19 347 128 
L 347 722 
Q 666 556 975 473 
Q 1284 391 1588 391 
Q 1994 391 2212 530 
Q 2431 669 2431 922 
Q 2431 1156 2273 1281 
Q 2116 1406 1581 1522 
L 1381 1569 
Q 847 1681 609 1914 
Q 372 2147 372 2553 
Q 372 3047 722 3315 
Q 1072 3584 1716 3584 
Q 2034 3584 2315 3537 
Q 2597 3491 2834 3397 
z
" transform="scale(0.015625)"/>
       <path id="DejaVuSans-69" d="M 603 3500 
L 1178 3500 
L 1178 0 
L 603 0 
L 603 3500 
z
M 603 4863 
L 1178 4863 
L 1178 4134 
L 603 4134 
L 603 4863 
z
" transform="scale(0.015625)"/>
       <path id="DejaVuSans-6e" d="M 3513 2113 
L 3513 0 
L 2938 0 
L 2938 2094 
Q 2938 2591 2744 2837 
Q 2550 3084 2163 3084 
Q 1697 3084 1428 2787 
Q 1159 2491 1159 1978 
L 1159 0 
L 581 0 
L 581 3500 
L 1159 3500 
L 1159 2956 
Q 1366 3272 1645 3428 
Q 1925 3584 2291 3584 
Q 2894 3584 3203 3211 
Q 3513 2838 3513 2113 
z
" transform="scale(0.015625)"/>
       <path id="DejaVuSans-79" d="M 2059 -325 
Q 1816 -950 1584 -1140 
Q 1353 -1331 966 -1331 
L 506 -1331 
L 506 -850 
L 844 -850 
Q 1081 -850 1212 -737 
Q 1344 -625 1503 -206 
L 1606 56 
L 191 3500 
L 800 3500 
L 1894 763 
L 2988 3500 
L 3597 3500 
L 2059 -325 
z
" transform="scale(0.015625)"/>
      </defs>
      <use xlink:href="#DejaVuSans-73"/>
      <use xlink:href="#DejaVuSans-69" x="52.099609"/>
      <use xlink:href="#DejaVuSans-6e" x="79.882812"/>
      <use xlink:href="#DejaVuSans-64" x="143.261719"/>
      <use xlink:href="#DejaVuSans-79" x="206.738281"/>
     </g>
    </g>
   </g>
  </g>
  <g id="axes_2">
   <g id="patch_8">
    <path d="M 406.432813 318.04 
L 707.792812 318.04 
L 707.792812 36.72 
L 406.432813 36.72 
z
" style="fill: #ffffff"/>
   </g>
   <g id="matplotlib.axis_3">
    <g id="xtick_10">
     <g id="line2d_39">
      <path d="M 420.130994 318.04 
L 420.130994 36.72 
" clip-path="url(#p99dd182df7)" style="fill: none; stroke: #b0b0b0; stroke-width: 0.8; stroke-linecap: square"/>
     </g>
     <g id="line2d_40">
      <g>
       <use xlink:href="#ma016288f8d" x="420.130994" y="318.04" style="stroke: #000000; stroke-width: 0.8"/>
      </g>
     </g>
     <g id="text_22">
      <!-- 0.0 -->
      <g transform="translate(412.179432 332.638437) scale(0.1 -0.1)">
       <use xlink:href="#DejaVuSans-30"/>
       <use xlink:href="#DejaVuSans-2e" x="63.623047"/>
       <use xlink:href="#DejaVuSans-30" x="95.410156"/>
      </g>
     </g>
    </g>
    <g id="xtick_11">
     <g id="line2d_41">
      <path d="M 454.410763 318.04 
L 454.410763 36.72 
" clip-path="url(#p99dd182df7)" style="fill: none; stroke: #b0b0b0; stroke-width: 0.8; stroke-linecap: square"/>
     </g>
     <g id="line2d_42">
      <g>
       <use xlink:href="#ma016288f8d" x="454.410763" y="318.04" style="stroke: #000000; stroke-width: 0.8"/>
      </g>
     </g>
     <g id="text_23">
      <!-- 2.5 -->
      <g transform="translate(446.4592 332.638437) scale(0.1 -0.1)">
       <use xlink:href="#DejaVuSans-32"/>
       <use xlink:href="#DejaVuSans-2e" x="63.623047"/>
       <use xlink:href="#DejaVuSans-35" x="95.410156"/>
      </g>
     </g>
    </g>
    <g id="xtick_12">
     <g id="line2d_43">
      <path d="M 488.690532 318.04 
L 488.690532 36.72 
" clip-path="url(#p99dd182df7)" style="fill: none; stroke: #b0b0b0; stroke-width: 0.8; stroke-linecap: square"/>
     </g>
     <g id="line2d_44">
      <g>
       <use xlink:href="#ma016288f8d" x="488.690532" y="318.04" style="stroke: #000000; stroke-width: 0.8"/>
      </g>
     </g>
     <g id="text_24">
      <!-- 5.0 -->
      <g transform="translate(480.738969 332.638437) scale(0.1 -0.1)">
       <use xlink:href="#DejaVuSans-35"/>
       <use xlink:href="#DejaVuSans-2e" x="63.623047"/>
       <use xlink:href="#DejaVuSans-30" x="95.410156"/>
      </g>
     </g>
    </g>
    <g id="xtick_13">
     <g id="line2d_45">
      <path d="M 522.9703 318.04 
L 522.9703 36.72 
" clip-path="url(#p99dd182df7)" style="fill: none; stroke: #b0b0b0; stroke-width: 0.8; stroke-linecap: square"/>
     </g>
     <g id="line2d_46">
      <g>
       <use xlink:href="#ma016288f8d" x="522.9703" y="318.04" style="stroke: #000000; stroke-width: 0.8"/>
      </g>
     </g>
     <g id="text_25">
      <!-- 7.5 -->
      <g transform="translate(515.018738 332.638437) scale(0.1 -0.1)">
       <use xlink:href="#DejaVuSans-37"/>
       <use xlink:href="#DejaVuSans-2e" x="63.623047"/>
       <use xlink:href="#DejaVuSans-35" x="95.410156"/>
      </g>
     </g>
    </g>
    <g id="xtick_14">
     <g id="line2d_47">
      <path d="M 557.250069 318.04 
L 557.250069 36.72 
" clip-path="url(#p99dd182df7)" style="fill: none; stroke: #b0b0b0; stroke-width: 0.8; stroke-linecap: square"/>
     </g>
     <g id="line2d_48">
      <g>
       <use xlink:href="#ma016288f8d" x="557.250069" y="318.04" style="stroke: #000000; stroke-width: 0.8"/>
      </g>
     </g>
     <g id="text_26">
      <!-- 10.0 -->
      <g transform="translate(546.117256 332.638437) scale(0.1 -0.1)">
       <use xlink:href="#DejaVuSans-31"/>
       <use xlink:href="#DejaVuSans-30" x="63.623047"/>
       <use xlink:href="#DejaVuSans-2e" x="127.246094"/>
       <use xlink:href="#DejaVuSans-30" x="159.033203"/>
      </g>
     </g>
    </g>
    <g id="xtick_15">
     <g id="line2d_49">
      <path d="M 591.529837 318.04 
L 591.529837 36.72 
" clip-path="url(#p99dd182df7)" style="fill: none; stroke: #b0b0b0; stroke-width: 0.8; stroke-linecap: square"/>
     </g>
     <g id="line2d_50">
      <g>
       <use xlink:href="#ma016288f8d" x="591.529837" y="318.04" style="stroke: #000000; stroke-width: 0.8"/>
      </g>
     </g>
     <g id="text_27">
      <!-- 12.5 -->
      <g transform="translate(580.397025 332.638437) scale(0.1 -0.1)">
       <use xlink:href="#DejaVuSans-31"/>
       <use xlink:href="#DejaVuSans-32" x="63.623047"/>
       <use xlink:href="#DejaVuSans-2e" x="127.246094"/>
       <use xlink:href="#DejaVuSans-35" x="159.033203"/>
      </g>
     </g>
    </g>
    <g id="xtick_16">
     <g id="line2d_51">
      <path d="M 625.809606 318.04 
L 625.809606 36.72 
" clip-path="url(#p99dd182df7)" style="fill: none; stroke: #b0b0b0; stroke-width: 0.8; stroke-linecap: square"/>
     </g>
     <g id="line2d_52">
      <g>
       <use xlink:href="#ma016288f8d" x="625.809606" y="318.04" style="stroke: #000000; stroke-width: 0.8"/>
      </g>
     </g>
     <g id="text_28">
      <!-- 15.0 -->
      <g transform="translate(614.676794 332.638437) scale(0.1 -0.1)">
       <use xlink:href="#DejaVuSans-31"/>
       <use xlink:href="#DejaVuSans-35" x="63.623047"/>
       <use xlink:href="#DejaVuSans-2e" x="127.246094"/>
       <use xlink:href="#DejaVuSans-30" x="159.033203"/>
      </g>
     </g>
    </g>
    <g id="xtick_17">
     <g id="line2d_53">
      <path d="M 660.089375 318.04 
L 660.089375 36.72 
" clip-path="url(#p99dd182df7)" style="fill: none; stroke: #b0b0b0; stroke-width: 0.8; stroke-linecap: square"/>
     </g>
     <g id="line2d_54">
      <g>
       <use xlink:href="#ma016288f8d" x="660.089375" y="318.04" style="stroke: #000000; stroke-width: 0.8"/>
      </g>
     </g>
     <g id="text_29">
      <!-- 17.5 -->
      <g transform="translate(648.956562 332.638437) scale(0.1 -0.1)">
       <use xlink:href="#DejaVuSans-31"/>
       <use xlink:href="#DejaVuSans-37" x="63.623047"/>
       <use xlink:href="#DejaVuSans-2e" x="127.246094"/>
       <use xlink:href="#DejaVuSans-35" x="159.033203"/>
      </g>
     </g>
    </g>
    <g id="xtick_18">
     <g id="line2d_55">
      <path d="M 694.369143 318.04 
L 694.369143 36.72 
" clip-path="url(#p99dd182df7)" style="fill: none; stroke: #b0b0b0; stroke-width: 0.8; stroke-linecap: square"/>
     </g>
     <g id="line2d_56">
      <g>
       <use xlink:href="#ma016288f8d" x="694.369143" y="318.04" style="stroke: #000000; stroke-width: 0.8"/>
      </g>
     </g>
     <g id="text_30">
      <!-- 20.0 -->
      <g transform="translate(683.236331 332.638437) scale(0.1 -0.1)">
       <use xlink:href="#DejaVuSans-32"/>
       <use xlink:href="#DejaVuSans-30" x="63.623047"/>
       <use xlink:href="#DejaVuSans-2e" x="127.246094"/>
       <use xlink:href="#DejaVuSans-30" x="159.033203"/>
      </g>
     </g>
    </g>
    <g id="text_31">
     <!-- t -->
     <g transform="translate(555.152656 346.316562) scale(0.1 -0.1)">
      <use xlink:href="#DejaVuSans-74"/>
     </g>
    </g>
   </g>
   <g id="matplotlib.axis_4">
    <g id="ytick_9">
     <g id="line2d_57">
      <path d="M 406.432813 310.46624 
L 707.792812 310.46624 
" clip-path="url(#p99dd182df7)" style="fill: none; stroke: #b0b0b0; stroke-width: 0.8; stroke-linecap: square"/>
     </g>
     <g id="line2d_58">
      <g>
       <use xlink:href="#m41748d56c8" x="406.432813" y="310.46624" style="stroke: #000000; stroke-width: 0.8"/>
      </g>
     </g>
     <g id="text_32">
      <!-- −1.5 -->
      <g transform="translate(375.15 314.265458) scale(0.1 -0.1)">
       <use xlink:href="#DejaVuSans-2212"/>
       <use xlink:href="#DejaVuSans-31" x="83.789062"/>
       <use xlink:href="#DejaVuSans-2e" x="147.412109"/>
       <use xlink:href="#DejaVuSans-35" x="179.199219"/>
      </g>
     </g>
    </g>
    <g id="ytick_10">
     <g id="line2d_59">
      <path d="M 406.432813 263.36013 
L 707.792812 263.36013 
" clip-path="url(#p99dd182df7)" style="fill: none; stroke: #b0b0b0; stroke-width: 0.8; stroke-linecap: square"/>
     </g>
     <g id="line2d_60">
      <g>
       <use xlink:href="#m41748d56c8" x="406.432813" y="263.36013" style="stroke: #000000; stroke-width: 0.8"/>
      </g>
     </g>
     <g id="text_33">
      <!-- −1.0 -->
      <g transform="translate(375.15 267.159349) scale(0.1 -0.1)">
       <use xlink:href="#DejaVuSans-2212"/>
       <use xlink:href="#DejaVuSans-31" x="83.789062"/>
       <use xlink:href="#DejaVuSans-2e" x="147.412109"/>
       <use xlink:href="#DejaVuSans-30" x="179.199219"/>
      </g>
     </g>
    </g>
    <g id="ytick_11">
     <g id="line2d_61">
      <path d="M 406.432813 216.25402 
L 707.792812 216.25402 
" clip-path="url(#p99dd182df7)" style="fill: none; stroke: #b0b0b0; stroke-width: 0.8; stroke-linecap: square"/>
     </g>
     <g id="line2d_62">
      <g>
       <use xlink:href="#m41748d56c8" x="406.432813" y="216.25402" style="stroke: #000000; stroke-width: 0.8"/>
      </g>
     </g>
     <g id="text_34">
      <!-- −0.5 -->
      <g transform="translate(375.15 220.053239) scale(0.1 -0.1)">
       <use xlink:href="#DejaVuSans-2212"/>
       <use xlink:href="#DejaVuSans-30" x="83.789062"/>
       <use xlink:href="#DejaVuSans-2e" x="147.412109"/>
       <use xlink:href="#DejaVuSans-35" x="179.199219"/>
      </g>
     </g>
    </g>
    <g id="ytick_12">
     <g id="line2d_63">
      <path d="M 406.432813 169.147911 
L 707.792812 169.147911 
" clip-path="url(#p99dd182df7)" style="fill: none; stroke: #b0b0b0; stroke-width: 0.8; stroke-linecap: square"/>
     </g>
     <g id="line2d_64">
      <g>
       <use xlink:href="#m41748d56c8" x="406.432813" y="169.147911" style="stroke: #000000; stroke-width: 0.8"/>
      </g>
     </g>
     <g id="text_35">
      <!-- 0.0 -->
      <g transform="translate(383.529688 172.947129) scale(0.1 -0.1)">
       <use xlink:href="#DejaVuSans-30"/>
       <use xlink:href="#DejaVuSans-2e" x="63.623047"/>
       <use xlink:href="#DejaVuSans-30" x="95.410156"/>
      </g>
     </g>
    </g>
    <g id="ytick_13">
     <g id="line2d_65">
      <path d="M 406.432813 122.041801 
L 707.792812 122.041801 
" clip-path="url(#p99dd182df7)" style="fill: none; stroke: #b0b0b0; stroke-width: 0.8; stroke-linecap: square"/>
     </g>
     <g id="line2d_66">
      <g>
       <use xlink:href="#m41748d56c8" x="406.432813" y="122.041801" style="stroke: #000000; stroke-width: 0.8"/>
      </g>
     </g>
     <g id="text_36">
      <!-- 0.5 -->
      <g transform="translate(383.529688 125.84102) scale(0.1 -0.1)">
       <use xlink:href="#DejaVuSans-30"/>
       <use xlink:href="#DejaVuSans-2e" x="63.623047"/>
       <use xlink:href="#DejaVuSans-35" x="95.410156"/>
      </g>
     </g>
    </g>
    <g id="ytick_14">
     <g id="line2d_67">
      <path d="M 406.432813 74.935691 
L 707.792812 74.935691 
" clip-path="url(#p99dd182df7)" style="fill: none; stroke: #b0b0b0; stroke-width: 0.8; stroke-linecap: square"/>
     </g>
     <g id="line2d_68">
      <g>
       <use xlink:href="#m41748d56c8" x="406.432813" y="74.935691" style="stroke: #000000; stroke-width: 0.8"/>
      </g>
     </g>
     <g id="text_37">
      <!-- 1.0 -->
      <g transform="translate(383.529688 78.73491) scale(0.1 -0.1)">
       <use xlink:href="#DejaVuSans-31"/>
       <use xlink:href="#DejaVuSans-2e" x="63.623047"/>
       <use xlink:href="#DejaVuSans-30" x="95.410156"/>
      </g>
     </g>
    </g>
    <g id="text_38">
     <!-- fr(t) -->
     <g transform="translate(369.070313 187.057344) rotate(-90) scale(0.1 -0.1)">
      <defs>
       <path id="DejaVuSans-66" d="M 2375 4863 
L 2375 4384 
L 1825 4384 
Q 1516 4384 1395 4259 
Q 1275 4134 1275 3809 
L 1275 3500 
L 2222 3500 
L 2222 3053 
L 1275 3053 
L 1275 0 
L 697 0 
L 697 3053 
L 147 3053 
L 147 3500 
L 697 3500 
L 697 3744 
Q 697 4328 969 4595 
Q 1241 4863 1831 4863 
L 2375 4863 
z
" transform="scale(0.015625)"/>
       <path id="DejaVuSans-72" d="M 2631 2963 
Q 2534 3019 2420 3045 
Q 2306 3072 2169 3072 
Q 1681 3072 1420 2755 
Q 1159 2438 1159 1844 
L 1159 0 
L 581 0 
L 581 3500 
L 1159 3500 
L 1159 2956 
Q 1341 3275 1631 3429 
Q 1922 3584 2338 3584 
Q 2397 3584 2469 3576 
Q 2541 3569 2628 3553 
L 2631 2963 
z
" transform="scale(0.015625)"/>
      </defs>
      <use xlink:href="#DejaVuSans-66"/>
      <use xlink:href="#DejaVuSans-72" x="35.205078"/>
      <use xlink:href="#DejaVuSans-28" x="76.318359"/>
      <use xlink:href="#DejaVuSans-74" x="115.332031"/>
      <use xlink:href="#DejaVuSans-29" x="154.541016"/>
     </g>
    </g>
   </g>
   <g id="line2d_69">
    <path d="M 420.130994 169.147911 
L 423.974172 169.052354 
L 425.621248 168.754735 
L 426.719298 168.341432 
L 427.817349 167.673881 
L 428.915399 166.674743 
L 430.01345 165.265596 
L 431.111501 163.372525 
L 432.209551 160.932483 
L 433.307602 157.899984 
L 434.405653 154.253462 
L 435.503703 150.000493 
L 437.150779 142.580417 
L 439.346881 131.205588 
L 444.288109 104.603939 
L 445.935185 97.03123 
L 447.58226 90.59918 
L 448.680311 86.986446 
L 449.778362 83.902152 
L 450.876412 81.311442 
L 451.974463 79.164501 
L 453.072514 77.403051 
L 454.170564 75.966149 
L 455.268615 74.794832 
L 456.915691 73.420244 
L 458.562767 72.373813 
L 460.758868 71.30338 
L 463.503995 70.271693 
L 466.798147 69.30426 
L 470.092299 68.585469 
L 472.837425 68.204422 
L 475.582552 68.065291 
L 476.131577 68.571625 
L 476.680603 70.231082 
L 477.229628 73.076273 
L 477.778653 77.134986 
L 478.327679 82.431743 
L 479.425729 96.820454 
L 480.52378 116.369003 
L 481.621831 141.145012 
L 483.817932 197.555808 
L 484.915982 218.290551 
L 486.014033 233.294282 
L 487.112084 243.53739 
L 488.210134 250.208406 
L 489.308185 254.425658 
L 490.406236 257.089342 
L 491.504286 258.844776 
L 492.602337 260.112084 
L 494.249413 261.614916 
L 501.386742 267.696311 
L 509.622122 274.991481 
L 512.367249 277.136616 
L 515.112375 278.980658 
L 517.308477 280.178742 
L 519.504578 281.085175 
L 521.151654 281.551558 
L 522.79873 281.820429 
L 523.89678 281.884622 
L 524.445806 281.392864 
L 524.994831 278.650255 
L 525.543856 273.487301 
L 526.092882 265.892942 
L 526.641907 255.863554 
L 527.739958 228.522695 
L 528.838008 191.586129 
L 529.936059 153.460467 
L 531.03411 126.481103 
L 531.583135 116.909344 
L 532.13216 109.524641 
L 532.681186 103.948499 
L 533.230211 99.809128 
L 533.779236 96.769698 
L 534.328262 94.54339 
L 534.877287 92.898138 
L 535.975338 90.678224 
L 537.073388 89.175058 
L 539.818515 86.150433 
L 543.112667 82.390828 
L 548.053895 76.31078 
L 552.446097 70.990009 
L 555.191224 67.972244 
L 557.387325 65.842072 
L 559.583426 64.036851 
L 561.230502 62.933001 
L 562.877578 62.069122 
L 564.524654 61.465218 
L 566.17173 61.138072 
L 567.269781 61.103723 
L 567.818806 63.152827 
L 568.367832 68.527954 
L 568.916857 77.245502 
L 569.465882 89.311502 
L 570.014908 104.721551 
L 571.112958 145.503872 
L 572.211009 190.572015 
L 572.760034 207.59099 
L 573.30906 220.843228 
L 573.858085 230.779582 
L 574.40711 237.988418 
L 574.956136 243.081939 
L 575.505161 246.620144 
L 576.054186 249.070665 
L 576.603211 250.796764 
L 577.701262 253.055466 
L 579.348338 255.37625 
L 582.093465 259.094345 
L 584.838591 263.246153 
L 588.132743 268.67584 
L 596.368123 282.510322 
L 599.11325 286.561815 
L 601.309351 289.391602 
L 602.956427 291.218395 
L 604.603503 292.756038 
L 606.250579 293.976008 
L 607.897655 294.853733 
L 608.995706 295.238588 
L 610.093756 295.457453 
L 610.642782 295.503402 
L 611.191807 295.116194 
L 611.740832 291.109732 
L 612.289857 282.768366 
L 612.838883 270.08673 
L 613.387908 253.073026 
L 614.485959 206.150122 
L 615.584009 157.316936 
L 616.133035 140.342009 
L 616.68206 127.910638 
L 617.231085 119.206841 
L 617.780111 113.329013 
L 618.329136 109.448495 
L 618.878161 106.89028 
L 619.427187 105.153214 
L 620.525237 102.888855 
L 626.015491 93.931167 
L 628.760617 88.630974 
L 632.603794 80.588768 
L 638.643073 67.834161 
L 641.3882 62.562301 
L 643.584301 58.800359 
L 645.231377 56.315285 
L 646.878453 54.164474 
L 648.525529 52.384866 
L 650.172605 51.008693 
L 651.270655 50.328927 
L 652.368706 49.847165 
L 653.466757 49.568815 
L 654.015782 49.507273 
L 654.564807 49.771515 
L 655.113833 54.112123 
L 655.662858 63.73284 
L 656.211883 78.634258 
L 656.760909 98.800365 
L 657.858959 154.160035 
L 658.407985 180.673657 
L 658.95701 201.017064 
L 659.506035 215.641874 
L 660.055061 225.577062 
L 660.604086 232.027661 
L 661.153111 236.102927 
L 661.702137 238.683481 
L 662.251162 240.3949 
L 663.349213 242.66787 
L 666.643365 248.446591 
L 668.839466 252.916111 
L 671.584592 259.155563 
L 674.878744 267.291542 
L 682.565099 286.534068 
L 685.310226 292.609306 
L 687.506327 296.870476 
L 689.153403 299.636018 
L 690.800479 301.981051 
L 692.447555 303.864851 
L 693.545605 304.847079 
L 694.094631 305.252727 
L 694.094631 305.252727 
" clip-path="url(#p99dd182df7)" style="fill: none; stroke: #0000ff; stroke-width: 1.5; stroke-linecap: square"/>
   </g>
   <g id="line2d_70">
    <path d="M 420.130994 169.147911 
L 421.229045 169.053309 
L 422.327096 168.583719 
L 423.425146 167.850678 
L 425.072222 166.455444 
L 429.464425 162.502858 
L 431.111501 161.318174 
L 432.758577 160.396626 
L 434.405653 159.744647 
L 436.052729 159.339592 
L 437.699805 159.140898 
L 439.895906 159.11341 
L 443.190058 159.359327 
L 450.876412 160.047565 
L 455.81764 160.20344 
L 463.503995 160.172455 
L 480.52378 160.105626 
L 599.662275 160.113341 
L 694.094631 160.113341 
L 694.094631 160.113341 
" clip-path="url(#p99dd182df7)" style="fill: none; stroke-dasharray: 5.55,2.4; stroke-dashoffset: 0; stroke: #ff0000; stroke-width: 1.5"/>
   </g>
   <g id="patch_9">
    <path d="M 406.432813 318.04 
L 406.432813 36.72 
" style="fill: none; stroke: #000000; stroke-width: 0.8; stroke-linejoin: miter; stroke-linecap: square"/>
   </g>
   <g id="patch_10">
    <path d="M 707.792812 318.04 
L 707.792812 36.72 
" style="fill: none; stroke: #000000; stroke-width: 0.8; stroke-linejoin: miter; stroke-linecap: square"/>
   </g>
   <g id="patch_11">
    <path d="M 406.432813 318.04 
L 707.792812 318.04 
" style="fill: none; stroke: #000000; stroke-width: 0.8; stroke-linejoin: miter; stroke-linecap: square"/>
   </g>
   <g id="patch_12">
    <path d="M 406.432813 36.72 
L 707.792812 36.72 
" style="fill: none; stroke: #000000; stroke-width: 0.8; stroke-linejoin: miter; stroke-linecap: square"/>
   </g>
   <g id="legend_2">
    <g id="patch_13">
     <path d="M 413.432813 313.04 
L 472.025 313.04 
Q 474.025 313.04 474.025 311.04 
L 474.025 282.68375 
Q 474.025 280.68375 472.025 280.68375 
L 413.432813 280.68375 
Q 411.432813 280.68375 411.432813 282.68375 
L 411.432813 311.04 
Q 411.432813 313.04 413.432813 313.04 
z
" style="fill: #ffffff; opacity: 0.8; stroke: #cccccc; stroke-linejoin: miter"/>
    </g>
    <g id="line2d_71">
     <path d="M 415.432813 288.782187 
L 425.432813 288.782187 
L 435.432813 288.782187 
" style="fill: none; stroke: #0000ff; stroke-width: 1.5; stroke-linecap: square"/>
    </g>
    <g id="text_39">
     <!-- data -->
     <g transform="translate(443.432813 292.282187) scale(0.1 -0.1)">
      <use xlink:href="#DejaVuSans-64"/>
      <use xlink:href="#DejaVuSans-61" x="63.476562"/>
      <use xlink:href="#DejaVuSans-74" x="124.755859"/>
      <use xlink:href="#DejaVuSans-61" x="163.964844"/>
     </g>
    </g>
    <g id="line2d_72">
     <path d="M 415.432813 303.460312 
L 425.432813 303.460312 
L 435.432813 303.460312 
" style="fill: none; stroke-dasharray: 5.55,2.4; stroke-dashoffset: 0; stroke: #ff0000; stroke-width: 1.5"/>
    </g>
    <g id="text_40">
     <!-- sindy -->
     <g transform="translate(443.432813 306.960312) scale(0.1 -0.1)">
      <use xlink:href="#DejaVuSans-73"/>
      <use xlink:href="#DejaVuSans-69" x="52.099609"/>
      <use xlink:href="#DejaVuSans-6e" x="79.882812"/>
      <use xlink:href="#DejaVuSans-64" x="143.261719"/>
      <use xlink:href="#DejaVuSans-79" x="206.738281"/>
     </g>
    </g>
   </g>
  </g>
  <g id="axes_3">
   <g id="patch_14">
    <path d="M 763.882812 318.04 
L 1065.242813 318.04 
L 1065.242813 36.72 
L 763.882812 36.72 
z
" style="fill: #ffffff"/>
   </g>
   <g id="matplotlib.axis_5">
    <g id="xtick_19">
     <g id="line2d_73">
      <path d="M 797.964974 318.04 
L 797.964974 36.72 
" clip-path="url(#p0c8bdd6cf4)" style="fill: none; stroke: #b0b0b0; stroke-width: 0.8; stroke-linecap: square"/>
     </g>
     <g id="line2d_74">
      <g>
       <use xlink:href="#ma016288f8d" x="797.964974" y="318.04" style="stroke: #000000; stroke-width: 0.8"/>
      </g>
     </g>
     <g id="text_41">
      <!-- −40 -->
      <g transform="translate(787.41263 332.638437) scale(0.1 -0.1)">
       <use xlink:href="#DejaVuSans-2212"/>
       <use xlink:href="#DejaVuSans-34" x="83.789062"/>
       <use xlink:href="#DejaVuSans-30" x="147.412109"/>
      </g>
     </g>
    </g>
    <g id="xtick_20">
     <g id="line2d_75">
      <path d="M 835.2559 318.04 
L 835.2559 36.72 
" clip-path="url(#p0c8bdd6cf4)" style="fill: none; stroke: #b0b0b0; stroke-width: 0.8; stroke-linecap: square"/>
     </g>
     <g id="line2d_76">
      <g>
       <use xlink:href="#ma016288f8d" x="835.2559" y="318.04" style="stroke: #000000; stroke-width: 0.8"/>
      </g>
     </g>
     <g id="text_42">
      <!-- −30 -->
      <g transform="translate(824.703556 332.638437) scale(0.1 -0.1)">
       <use xlink:href="#DejaVuSans-2212"/>
       <use xlink:href="#DejaVuSans-33" x="83.789062"/>
       <use xlink:href="#DejaVuSans-30" x="147.412109"/>
      </g>
     </g>
    </g>
    <g id="xtick_21">
     <g id="line2d_77">
      <path d="M 872.546826 318.04 
L 872.546826 36.72 
" clip-path="url(#p0c8bdd6cf4)" style="fill: none; stroke: #b0b0b0; stroke-width: 0.8; stroke-linecap: square"/>
     </g>
     <g id="line2d_78">
      <g>
       <use xlink:href="#ma016288f8d" x="872.546826" y="318.04" style="stroke: #000000; stroke-width: 0.8"/>
      </g>
     </g>
     <g id="text_43">
      <!-- −20 -->
      <g transform="translate(861.994482 332.638437) scale(0.1 -0.1)">
       <use xlink:href="#DejaVuSans-2212"/>
       <use xlink:href="#DejaVuSans-32" x="83.789062"/>
       <use xlink:href="#DejaVuSans-30" x="147.412109"/>
      </g>
     </g>
    </g>
    <g id="xtick_22">
     <g id="line2d_79">
      <path d="M 909.837752 318.04 
L 909.837752 36.72 
" clip-path="url(#p0c8bdd6cf4)" style="fill: none; stroke: #b0b0b0; stroke-width: 0.8; stroke-linecap: square"/>
     </g>
     <g id="line2d_80">
      <g>
       <use xlink:href="#ma016288f8d" x="909.837752" y="318.04" style="stroke: #000000; stroke-width: 0.8"/>
      </g>
     </g>
     <g id="text_44">
      <!-- −10 -->
      <g transform="translate(899.285409 332.638437) scale(0.1 -0.1)">
       <use xlink:href="#DejaVuSans-2212"/>
       <use xlink:href="#DejaVuSans-31" x="83.789062"/>
       <use xlink:href="#DejaVuSans-30" x="147.412109"/>
      </g>
     </g>
    </g>
    <g id="xtick_23">
     <g id="line2d_81">
      <path d="M 947.128679 318.04 
L 947.128679 36.72 
" clip-path="url(#p0c8bdd6cf4)" style="fill: none; stroke: #b0b0b0; stroke-width: 0.8; stroke-linecap: square"/>
     </g>
     <g id="line2d_82">
      <g>
       <use xlink:href="#ma016288f8d" x="947.128679" y="318.04" style="stroke: #000000; stroke-width: 0.8"/>
      </g>
     </g>
     <g id="text_45">
      <!-- 0 -->
      <g transform="translate(943.947429 332.638437) scale(0.1 -0.1)">
       <use xlink:href="#DejaVuSans-30"/>
      </g>
     </g>
    </g>
    <g id="xtick_24">
     <g id="line2d_83">
      <path d="M 984.419605 318.04 
L 984.419605 36.72 
" clip-path="url(#p0c8bdd6cf4)" style="fill: none; stroke: #b0b0b0; stroke-width: 0.8; stroke-linecap: square"/>
     </g>
     <g id="line2d_84">
      <g>
       <use xlink:href="#ma016288f8d" x="984.419605" y="318.04" style="stroke: #000000; stroke-width: 0.8"/>
      </g>
     </g>
     <g id="text_46">
      <!-- 10 -->
      <g transform="translate(978.057105 332.638437) scale(0.1 -0.1)">
       <use xlink:href="#DejaVuSans-31"/>
       <use xlink:href="#DejaVuSans-30" x="63.623047"/>
      </g>
     </g>
    </g>
    <g id="xtick_25">
     <g id="line2d_85">
      <path d="M 1021.710531 318.04 
L 1021.710531 36.72 
" clip-path="url(#p0c8bdd6cf4)" style="fill: none; stroke: #b0b0b0; stroke-width: 0.8; stroke-linecap: square"/>
     </g>
     <g id="line2d_86">
      <g>
       <use xlink:href="#ma016288f8d" x="1021.710531" y="318.04" style="stroke: #000000; stroke-width: 0.8"/>
      </g>
     </g>
     <g id="text_47">
      <!-- 20 -->
      <g transform="translate(1015.348031 332.638437) scale(0.1 -0.1)">
       <use xlink:href="#DejaVuSans-32"/>
       <use xlink:href="#DejaVuSans-30" x="63.623047"/>
      </g>
     </g>
    </g>
    <g id="xtick_26">
     <g id="line2d_87">
      <path d="M 1059.001457 318.04 
L 1059.001457 36.72 
" clip-path="url(#p0c8bdd6cf4)" style="fill: none; stroke: #b0b0b0; stroke-width: 0.8; stroke-linecap: square"/>
     </g>
     <g id="line2d_88">
      <g>
       <use xlink:href="#ma016288f8d" x="1059.001457" y="318.04" style="stroke: #000000; stroke-width: 0.8"/>
      </g>
     </g>
     <g id="text_48">
      <!-- 30 -->
      <g transform="translate(1052.638957 332.638437) scale(0.1 -0.1)">
       <use xlink:href="#DejaVuSans-33"/>
       <use xlink:href="#DejaVuSans-30" x="63.623047"/>
      </g>
     </g>
    </g>
    <g id="text_49">
     <!-- x(t) -->
     <g transform="translate(905.741719 346.316562) scale(0.1 -0.1)">
      <use xlink:href="#DejaVuSans-78"/>
      <use xlink:href="#DejaVuSans-28" x="59.179688"/>
      <use xlink:href="#DejaVuSans-74" x="98.193359"/>
      <use xlink:href="#DejaVuSans-29" x="137.402344"/>
     </g>
    </g>
   </g>
   <g id="matplotlib.axis_6">
    <g id="ytick_15">
     <g id="line2d_89">
      <path d="M 763.882812 310.46624 
L 1065.242813 310.46624 
" clip-path="url(#p0c8bdd6cf4)" style="fill: none; stroke: #b0b0b0; stroke-width: 0.8; stroke-linecap: square"/>
     </g>
     <g id="line2d_90">
      <g>
       <use xlink:href="#m41748d56c8" x="763.882812" y="310.46624" style="stroke: #000000; stroke-width: 0.8"/>
      </g>
     </g>
     <g id="text_50">
      <!-- −1.5 -->
      <g transform="translate(732.6 314.265458) scale(0.1 -0.1)">
       <use xlink:href="#DejaVuSans-2212"/>
       <use xlink:href="#DejaVuSans-31" x="83.789062"/>
       <use xlink:href="#DejaVuSans-2e" x="147.412109"/>
       <use xlink:href="#DejaVuSans-35" x="179.199219"/>
      </g>
     </g>
    </g>
    <g id="ytick_16">
     <g id="line2d_91">
      <path d="M 763.882812 263.36013 
L 1065.242813 263.36013 
" clip-path="url(#p0c8bdd6cf4)" style="fill: none; stroke: #b0b0b0; stroke-width: 0.8; stroke-linecap: square"/>
     </g>
     <g id="line2d_92">
      <g>
       <use xlink:href="#m41748d56c8" x="763.882812" y="263.36013" style="stroke: #000000; stroke-width: 0.8"/>
      </g>
     </g>
     <g id="text_51">
      <!-- −1.0 -->
      <g transform="translate(732.6 267.159349) scale(0.1 -0.1)">
       <use xlink:href="#DejaVuSans-2212"/>
       <use xlink:href="#DejaVuSans-31" x="83.789062"/>
       <use xlink:href="#DejaVuSans-2e" x="147.412109"/>
       <use xlink:href="#DejaVuSans-30" x="179.199219"/>
      </g>
     </g>
    </g>
    <g id="ytick_17">
     <g id="line2d_93">
      <path d="M 763.882812 216.25402 
L 1065.242813 216.25402 
" clip-path="url(#p0c8bdd6cf4)" style="fill: none; stroke: #b0b0b0; stroke-width: 0.8; stroke-linecap: square"/>
     </g>
     <g id="line2d_94">
      <g>
       <use xlink:href="#m41748d56c8" x="763.882812" y="216.25402" style="stroke: #000000; stroke-width: 0.8"/>
      </g>
     </g>
     <g id="text_52">
      <!-- −0.5 -->
      <g transform="translate(732.6 220.053239) scale(0.1 -0.1)">
       <use xlink:href="#DejaVuSans-2212"/>
       <use xlink:href="#DejaVuSans-30" x="83.789062"/>
       <use xlink:href="#DejaVuSans-2e" x="147.412109"/>
       <use xlink:href="#DejaVuSans-35" x="179.199219"/>
      </g>
     </g>
    </g>
    <g id="ytick_18">
     <g id="line2d_95">
      <path d="M 763.882812 169.147911 
L 1065.242813 169.147911 
" clip-path="url(#p0c8bdd6cf4)" style="fill: none; stroke: #b0b0b0; stroke-width: 0.8; stroke-linecap: square"/>
     </g>
     <g id="line2d_96">
      <g>
       <use xlink:href="#m41748d56c8" x="763.882812" y="169.147911" style="stroke: #000000; stroke-width: 0.8"/>
      </g>
     </g>
     <g id="text_53">
      <!-- 0.0 -->
      <g transform="translate(740.979687 172.947129) scale(0.1 -0.1)">
       <use xlink:href="#DejaVuSans-30"/>
       <use xlink:href="#DejaVuSans-2e" x="63.623047"/>
       <use xlink:href="#DejaVuSans-30" x="95.410156"/>
      </g>
     </g>
    </g>
    <g id="ytick_19">
     <g id="line2d_97">
      <path d="M 763.882812 122.041801 
L 1065.242813 122.041801 
" clip-path="url(#p0c8bdd6cf4)" style="fill: none; stroke: #b0b0b0; stroke-width: 0.8; stroke-linecap: square"/>
     </g>
     <g id="line2d_98">
      <g>
       <use xlink:href="#m41748d56c8" x="763.882812" y="122.041801" style="stroke: #000000; stroke-width: 0.8"/>
      </g>
     </g>
     <g id="text_54">
      <!-- 0.5 -->
      <g transform="translate(740.979687 125.84102) scale(0.1 -0.1)">
       <use xlink:href="#DejaVuSans-30"/>
       <use xlink:href="#DejaVuSans-2e" x="63.623047"/>
       <use xlink:href="#DejaVuSans-35" x="95.410156"/>
      </g>
     </g>
    </g>
    <g id="ytick_20">
     <g id="line2d_99">
      <path d="M 763.882812 74.935691 
L 1065.242813 74.935691 
" clip-path="url(#p0c8bdd6cf4)" style="fill: none; stroke: #b0b0b0; stroke-width: 0.8; stroke-linecap: square"/>
     </g>
     <g id="line2d_100">
      <g>
       <use xlink:href="#m41748d56c8" x="763.882812" y="74.935691" style="stroke: #000000; stroke-width: 0.8"/>
      </g>
     </g>
     <g id="text_55">
      <!-- 1.0 -->
      <g transform="translate(740.979687 78.73491) scale(0.1 -0.1)">
       <use xlink:href="#DejaVuSans-31"/>
       <use xlink:href="#DejaVuSans-2e" x="63.623047"/>
       <use xlink:href="#DejaVuSans-30" x="95.410156"/>
      </g>
     </g>
    </g>
    <g id="text_56">
     <!-- fr(t) -->
     <g transform="translate(726.520313 187.057344) rotate(-90) scale(0.1 -0.1)">
      <use xlink:href="#DejaVuSans-66"/>
      <use xlink:href="#DejaVuSans-72" x="35.205078"/>
      <use xlink:href="#DejaVuSans-28" x="76.318359"/>
      <use xlink:href="#DejaVuSans-74" x="115.332031"/>
      <use xlink:href="#DejaVuSans-29" x="154.541016"/>
     </g>
    </g>
   </g>
   <g id="line2d_101">
    <path d="M 947.128679 169.147911 
L 947.974803 150.000493 
L 948.854035 134.164531 
L 949.693659 122.113483 
L 950.760446 110.179733 
L 951.717758 101.963807 
L 952.812883 94.753783 
L 953.619486 90.59918 
L 954.48638 86.986446 
L 955.412027 83.902152 
L 956.394182 81.311442 
L 957.429854 79.164501 
L 958.515275 77.403051 
L 959.645868 75.966149 
L 960.816231 74.794832 
L 962.020127 73.835377 
L 963.873149 72.693785 
L 965.758197 71.802372 
L 968.266832 70.85953 
L 972.401092 69.599251 
L 978.142309 68.065291 
L 974.061913 170.751155 
L 973.390888 184.896029 
L 972.668913 197.555808 
L 971.896322 208.680966 
L 971.073441 218.290551 
L 970.200584 226.457615 
L 969.278065 233.294282 
L 968.306205 238.937651 
L 967.285343 243.53739 
L 966.215849 247.24549 
L 965.098131 250.208406 
L 963.932652 252.561511 
L 962.719932 254.425658 
L 961.460562 255.905524 
L 960.155213 257.089342 
L 958.804633 258.049664 
L 957.409663 258.844776 
L 954.490371 260.112084 
L 951.405925 261.142337 
L 946.492219 262.526574 
L 932.020289 266.233931 
L 870.076246 281.884622 
L 870.402647 273.487301 
L 874.515083 171.203596 
L 875.476837 153.460467 
L 876.528186 138.582016 
L 877.667634 126.481103 
L 878.893709 116.909344 
L 880.204946 109.524641 
L 881.599864 103.948499 
L 883.07694 99.809128 
L 884.63459 96.769698 
L 886.271145 94.54339 
L 887.984835 92.898138 
L 889.773774 91.654304 
L 891.635953 90.678224 
L 893.569229 89.873984 
L 897.639825 88.536777 
L 904.217544 86.745673 
L 929.23421 80.398725 
L 1005.699499 61.103723 
L 1001.356923 169.615829 
L 1000.227421 190.572015 
L 998.972039 207.59099 
L 997.592497 220.843228 
L 996.090486 230.779582 
L 994.467698 237.988418 
L 992.725864 243.081939 
L 990.866792 246.620144 
L 988.8924 249.070665 
L 986.804749 250.796764 
L 984.606058 252.063827 
L 982.298725 253.055466 
L 977.368662 254.650944 
L 969.229583 256.820069 
L 922.35903 268.67584 
L 816.170612 295.503402 
L 816.158358 295.116194 
L 819.679799 206.150122 
L 820.860336 179.330372 
L 822.205921 157.316936 
L 823.714315 140.342009 
L 825.383331 127.910638 
L 827.210802 119.206841 
L 829.194526 113.329013 
L 831.332215 109.448495 
L 833.621441 106.89028 
L 836.059596 105.153214 
L 838.643863 103.89302 
L 841.371194 102.888855 
L 847.241657 101.173949 
L 860.538386 97.755796 
L 1051.50812 49.507273 
L 1051.544631 49.771515 
L 1047.388216 154.160035 
L 1045.975119 180.673657 
L 1044.362035 201.017064 
L 1042.551565 215.641874 
L 1040.546274 225.577062 
L 1038.348755 232.027661 
L 1035.961708 236.102927 
L 1033.388 238.683481 
L 1030.630727 240.3949 
L 1027.693244 241.642385 
L 1024.579193 242.66787 
L 1017.837428 244.524065 
L 993.84482 250.615541 
L 777.580994 305.252727 
L 777.580994 305.252727 
" clip-path="url(#p0c8bdd6cf4)" style="fill: none; stroke: #0000ff; stroke-width: 1.5; stroke-linecap: square"/>
   </g>
   <g id="line2d_102">
    <path d="M 947.128679 169.147911 
L 946.688622 169.053309 
L 946.368097 168.583719 
L 946.151457 167.850678 
L 945.989199 166.455444 
L 946.004164 164.406739 
L 946.248686 162.080637 
L 946.70851 159.932944 
L 947.053755 159.140898 
L 947.165735 159.11341 
L 947.184686 159.13702 
L 947.239154 159.473039 
L 947.121771 160.208505 
L 947.110303 160.212692 
L 947.1154 160.103563 
L 947.114794 160.113341 
" clip-path="url(#p0c8bdd6cf4)" style="fill: none; stroke-dasharray: 5.55,2.4; stroke-dashoffset: 0; stroke: #ff0000; stroke-width: 1.5"/>
   </g>
   <g id="patch_15">
    <path d="M 763.882812 318.04 
L 763.882812 36.72 
" style="fill: none; stroke: #000000; stroke-width: 0.8; stroke-linejoin: miter; stroke-linecap: square"/>
   </g>
   <g id="patch_16">
    <path d="M 1065.242813 318.04 
L 1065.242813 36.72 
" style="fill: none; stroke: #000000; stroke-width: 0.8; stroke-linejoin: miter; stroke-linecap: square"/>
   </g>
   <g id="patch_17">
    <path d="M 763.882812 318.04 
L 1065.242813 318.04 
" style="fill: none; stroke: #000000; stroke-width: 0.8; stroke-linejoin: miter; stroke-linecap: square"/>
   </g>
   <g id="patch_18">
    <path d="M 763.882812 36.72 
L 1065.242813 36.72 
" style="fill: none; stroke: #000000; stroke-width: 0.8; stroke-linejoin: miter; stroke-linecap: square"/>
   </g>
   <g id="legend_3">
    <g id="patch_19">
     <path d="M 770.882812 74.07625 
L 829.475 74.07625 
Q 831.475 74.07625 831.475 72.07625 
L 831.475 43.72 
Q 831.475 41.72 829.475 41.72 
L 770.882812 41.72 
Q 768.882812 41.72 768.882812 43.72 
L 768.882812 72.07625 
Q 768.882812 74.07625 770.882812 74.07625 
z
" style="fill: #ffffff; opacity: 0.8; stroke: #cccccc; stroke-linejoin: miter"/>
    </g>
    <g id="line2d_103">
     <path d="M 772.882812 49.818437 
L 782.882812 49.818437 
L 792.882812 49.818437 
" style="fill: none; stroke: #0000ff; stroke-width: 1.5; stroke-linecap: square"/>
    </g>
    <g id="text_57">
     <!-- data -->
     <g transform="translate(800.882812 53.318437) scale(0.1 -0.1)">
      <use xlink:href="#DejaVuSans-64"/>
      <use xlink:href="#DejaVuSans-61" x="63.476562"/>
      <use xlink:href="#DejaVuSans-74" x="124.755859"/>
      <use xlink:href="#DejaVuSans-61" x="163.964844"/>
     </g>
    </g>
    <g id="line2d_104">
     <path d="M 772.882812 64.496562 
L 782.882812 64.496562 
L 792.882812 64.496562 
" style="fill: none; stroke-dasharray: 5.55,2.4; stroke-dashoffset: 0; stroke: #ff0000; stroke-width: 1.5"/>
    </g>
    <g id="text_58">
     <!-- sindy -->
     <g transform="translate(800.882812 67.996562) scale(0.1 -0.1)">
      <use xlink:href="#DejaVuSans-73"/>
      <use xlink:href="#DejaVuSans-69" x="52.099609"/>
      <use xlink:href="#DejaVuSans-6e" x="79.882812"/>
      <use xlink:href="#DejaVuSans-64" x="143.261719"/>
      <use xlink:href="#DejaVuSans-79" x="206.738281"/>
     </g>
    </g>
   </g>
  </g>
  <g id="text_59">
   <!-- FL_fr_n1 -->
   <g transform="translate(502.719062 19.3575) scale(0.16 -0.16)">
    <defs>
     <path id="DejaVuSans-46" d="M 628 4666 
L 3309 4666 
L 3309 4134 
L 1259 4134 
L 1259 2759 
L 3109 2759 
L 3109 2228 
L 1259 2228 
L 1259 0 
L 628 0 
L 628 4666 
z
" transform="scale(0.015625)"/>
     <path id="DejaVuSans-4c" d="M 628 4666 
L 1259 4666 
L 1259 531 
L 3531 531 
L 3531 0 
L 628 0 
L 628 4666 
z
" transform="scale(0.015625)"/>
     <path id="DejaVuSans-5f" d="M 3263 -1063 
L 3263 -1509 
L -63 -1509 
L -63 -1063 
L 3263 -1063 
z
" transform="scale(0.015625)"/>
    </defs>
    <use xlink:href="#DejaVuSans-46"/>
    <use xlink:href="#DejaVuSans-4c" x="57.519531"/>
    <use xlink:href="#DejaVuSans-5f" x="113.232422"/>
    <use xlink:href="#DejaVuSans-66" x="163.232422"/>
    <use xlink:href="#DejaVuSans-72" x="198.4375"/>
    <use xlink:href="#DejaVuSans-5f" x="239.550781"/>
    <use xlink:href="#DejaVuSans-6e" x="289.550781"/>
    <use xlink:href="#DejaVuSans-31" x="352.929688"/>
   </g>
  </g>
 </g>
 <defs>
  <clipPath id="pc599bb2ef2">
   <rect x="48.982813" y="36.72" width="301.36" height="281.32"/>
  </clipPath>
  <clipPath id="p99dd182df7">
   <rect x="406.432813" y="36.72" width="301.36" height="281.32"/>
  </clipPath>
  <clipPath id="p0c8bdd6cf4">
   <rect x="763.882812" y="36.72" width="301.36" height="281.32"/>
  </clipPath>
 </defs>
</svg>
