<?xml version="1.0" encoding="utf-8" standalone="no"?>
<!DOCTYPE svg PUBLIC "-//W3C//DTD SVG 1.1//EN"
  "http://www.w3.org/Graphics/SVG/1.1/DTD/svg11.dtd">
<svg xmlns:xlink="http://www.w3.org/1999/xlink" width="1072.505312pt" height="355.59625pt" viewBox="0 0 1072.505312 355.59625" xmlns="http://www.w3.org/2000/svg" version="1.1">
 <metadata>
  <rdf:RDF xmlns:dc="http://purl.org/dc/elements/1.1/" xmlns:cc="http://creativecommons.org/ns#" xmlns:rdf="http://www.w3.org/1999/02/22-rdf-syntax-ns#">
   <cc:Work>
    <dc:type rdf:resource="http://purl.org/dc/dcmitype/StillImage"/>
    <dc:date>2025-02-10T00:07:13.878404</dc:date>
    <dc:format>image/svg+xml</dc:format>
    <dc:creator>
     <cc:Agent>
      <dc:title>Matplotlib v3.9.2, https://matplotlib.org/</dc:title>
     </cc:Agent>
    </dc:creator>
   </cc:Work>
  </rdf:RDF>
 </metadata>
 <defs>
  <style type="text/css">*{stroke-linejoin: round; stroke-linecap: butt}</style>
 </defs>
 <g id="figure_1">
  <g id="patch_1">
   <path d="M 0 355.59625 
L 1072.505312 355.59625 
L 1072.505312 0 
L 0 0 
z
" style="fill: #ffffff"/>
  </g>
  <g id="axes_1">
   <g id="patch_2">
    <path d="M 55.345313 318.04 
L 354.605312 318.04 
L 354.605312 36.72 
L 55.345313 36.72 
z
" style="fill: #ffffff"/>
   </g>
   <g id="matplotlib.axis_1">
    <g id="xtick_1">
     <g id="line2d_1">
      <path d="M 68.94804 318.04 
L 68.94804 36.72 
" clip-path="url(#p0d5ec8143e)" style="fill: none; stroke: #b0b0b0; stroke-width: 0.8; stroke-linecap: square"/>
     </g>
     <g id="line2d_2">
      <defs>
       <path id="m46c30b193c" d="M 0 0 
L 0 3.5 
" style="stroke: #000000; stroke-width: 0.8"/>
      </defs>
      <g>
       <use xlink:href="#m46c30b193c" x="68.94804" y="318.04" style="stroke: #000000; stroke-width: 0.8"/>
      </g>
     </g>
     <g id="text_1">
      <!-- 0.0 -->
      <g transform="translate(60.996477 332.638437) scale(0.1 -0.1)">
       <defs>
        <path id="DejaVuSans-30" d="M 2034 4250 
Q 1547 4250 1301 3770 
Q 1056 3291 1056 2328 
Q 1056 1369 1301 889 
Q 1547 409 2034 409 
Q 2525 409 2770 889 
Q 3016 1369 3016 2328 
Q 3016 3291 2770 3770 
Q 2525 4250 2034 4250 
z
M 2034 4750 
Q 2819 4750 3233 4129 
Q 3647 3509 3647 2328 
Q 3647 1150 3233 529 
Q 2819 -91 2034 -91 
Q 1250 -91 836 529 
Q 422 1150 422 2328 
Q 422 3509 836 4129 
Q 1250 4750 2034 4750 
z
" transform="scale(0.015625)"/>
        <path id="DejaVuSans-2e" d="M 684 794 
L 1344 794 
L 1344 0 
L 684 0 
L 684 794 
z
" transform="scale(0.015625)"/>
       </defs>
       <use xlink:href="#DejaVuSans-30"/>
       <use xlink:href="#DejaVuSans-2e" x="63.623047"/>
       <use xlink:href="#DejaVuSans-30" x="95.410156"/>
      </g>
     </g>
    </g>
    <g id="xtick_2">
     <g id="line2d_3">
      <path d="M 102.988933 318.04 
L 102.988933 36.72 
" clip-path="url(#p0d5ec8143e)" style="fill: none; stroke: #b0b0b0; stroke-width: 0.8; stroke-linecap: square"/>
     </g>
     <g id="line2d_4">
      <g>
       <use xlink:href="#m46c30b193c" x="102.988933" y="318.04" style="stroke: #000000; stroke-width: 0.8"/>
      </g>
     </g>
     <g id="text_2">
      <!-- 2.5 -->
      <g transform="translate(95.03737 332.638437) scale(0.1 -0.1)">
       <defs>
        <path id="DejaVuSans-32" d="M 1228 531 
L 3431 531 
L 3431 0 
L 469 0 
L 469 531 
Q 828 903 1448 1529 
Q 2069 2156 2228 2338 
Q 2531 2678 2651 2914 
Q 2772 3150 2772 3378 
Q 2772 3750 2511 3984 
Q 2250 4219 1831 4219 
Q 1534 4219 1204 4116 
Q 875 4013 500 3803 
L 500 4441 
Q 881 4594 1212 4672 
Q 1544 4750 1819 4750 
Q 2544 4750 2975 4387 
Q 3406 4025 3406 3419 
Q 3406 3131 3298 2873 
Q 3191 2616 2906 2266 
Q 2828 2175 2409 1742 
Q 1991 1309 1228 531 
z
" transform="scale(0.015625)"/>
        <path id="DejaVuSans-35" d="M 691 4666 
L 3169 4666 
L 3169 4134 
L 1269 4134 
L 1269 2991 
Q 1406 3038 1543 3061 
Q 1681 3084 1819 3084 
Q 2600 3084 3056 2656 
Q 3513 2228 3513 1497 
Q 3513 744 3044 326 
Q 2575 -91 1722 -91 
Q 1428 -91 1123 -41 
Q 819 9 494 109 
L 494 744 
Q 775 591 1075 516 
Q 1375 441 1709 441 
Q 2250 441 2565 725 
Q 2881 1009 2881 1497 
Q 2881 1984 2565 2268 
Q 2250 2553 1709 2553 
Q 1456 2553 1204 2497 
Q 953 2441 691 2322 
L 691 4666 
z
" transform="scale(0.015625)"/>
       </defs>
       <use xlink:href="#DejaVuSans-32"/>
       <use xlink:href="#DejaVuSans-2e" x="63.623047"/>
       <use xlink:href="#DejaVuSans-35" x="95.410156"/>
      </g>
     </g>
    </g>
    <g id="xtick_3">
     <g id="line2d_5">
      <path d="M 137.029826 318.04 
L 137.029826 36.72 
" clip-path="url(#p0d5ec8143e)" style="fill: none; stroke: #b0b0b0; stroke-width: 0.8; stroke-linecap: square"/>
     </g>
     <g id="line2d_6">
      <g>
       <use xlink:href="#m46c30b193c" x="137.029826" y="318.04" style="stroke: #000000; stroke-width: 0.8"/>
      </g>
     </g>
     <g id="text_3">
      <!-- 5.0 -->
      <g transform="translate(129.078264 332.638437) scale(0.1 -0.1)">
       <use xlink:href="#DejaVuSans-35"/>
       <use xlink:href="#DejaVuSans-2e" x="63.623047"/>
       <use xlink:href="#DejaVuSans-30" x="95.410156"/>
      </g>
     </g>
    </g>
    <g id="xtick_4">
     <g id="line2d_7">
      <path d="M 171.070719 318.04 
L 171.070719 36.72 
" clip-path="url(#p0d5ec8143e)" style="fill: none; stroke: #b0b0b0; stroke-width: 0.8; stroke-linecap: square"/>
     </g>
     <g id="line2d_8">
      <g>
       <use xlink:href="#m46c30b193c" x="171.070719" y="318.04" style="stroke: #000000; stroke-width: 0.8"/>
      </g>
     </g>
     <g id="text_4">
      <!-- 7.5 -->
      <g transform="translate(163.119157 332.638437) scale(0.1 -0.1)">
       <defs>
        <path id="DejaVuSans-37" d="M 525 4666 
L 3525 4666 
L 3525 4397 
L 1831 0 
L 1172 0 
L 2766 4134 
L 525 4134 
L 525 4666 
z
" transform="scale(0.015625)"/>
       </defs>
       <use xlink:href="#DejaVuSans-37"/>
       <use xlink:href="#DejaVuSans-2e" x="63.623047"/>
       <use xlink:href="#DejaVuSans-35" x="95.410156"/>
      </g>
     </g>
    </g>
    <g id="xtick_5">
     <g id="line2d_9">
      <path d="M 205.111612 318.04 
L 205.111612 36.72 
" clip-path="url(#p0d5ec8143e)" style="fill: none; stroke: #b0b0b0; stroke-width: 0.8; stroke-linecap: square"/>
     </g>
     <g id="line2d_10">
      <g>
       <use xlink:href="#m46c30b193c" x="205.111612" y="318.04" style="stroke: #000000; stroke-width: 0.8"/>
      </g>
     </g>
     <g id="text_5">
      <!-- 10.0 -->
      <g transform="translate(193.9788 332.638437) scale(0.1 -0.1)">
       <defs>
        <path id="DejaVuSans-31" d="M 794 531 
L 1825 531 
L 1825 4091 
L 703 3866 
L 703 4441 
L 1819 4666 
L 2450 4666 
L 2450 531 
L 3481 531 
L 3481 0 
L 794 0 
L 794 531 
z
" transform="scale(0.015625)"/>
       </defs>
       <use xlink:href="#DejaVuSans-31"/>
       <use xlink:href="#DejaVuSans-30" x="63.623047"/>
       <use xlink:href="#DejaVuSans-2e" x="127.246094"/>
       <use xlink:href="#DejaVuSans-30" x="159.033203"/>
      </g>
     </g>
    </g>
    <g id="xtick_6">
     <g id="line2d_11">
      <path d="M 239.152506 318.04 
L 239.152506 36.72 
" clip-path="url(#p0d5ec8143e)" style="fill: none; stroke: #b0b0b0; stroke-width: 0.8; stroke-linecap: square"/>
     </g>
     <g id="line2d_12">
      <g>
       <use xlink:href="#m46c30b193c" x="239.152506" y="318.04" style="stroke: #000000; stroke-width: 0.8"/>
      </g>
     </g>
     <g id="text_6">
      <!-- 12.5 -->
      <g transform="translate(228.019693 332.638437) scale(0.1 -0.1)">
       <use xlink:href="#DejaVuSans-31"/>
       <use xlink:href="#DejaVuSans-32" x="63.623047"/>
       <use xlink:href="#DejaVuSans-2e" x="127.246094"/>
       <use xlink:href="#DejaVuSans-35" x="159.033203"/>
      </g>
     </g>
    </g>
    <g id="xtick_7">
     <g id="line2d_13">
      <path d="M 273.193399 318.04 
L 273.193399 36.72 
" clip-path="url(#p0d5ec8143e)" style="fill: none; stroke: #b0b0b0; stroke-width: 0.8; stroke-linecap: square"/>
     </g>
     <g id="line2d_14">
      <g>
       <use xlink:href="#m46c30b193c" x="273.193399" y="318.04" style="stroke: #000000; stroke-width: 0.8"/>
      </g>
     </g>
     <g id="text_7">
      <!-- 15.0 -->
      <g transform="translate(262.060586 332.638437) scale(0.1 -0.1)">
       <use xlink:href="#DejaVuSans-31"/>
       <use xlink:href="#DejaVuSans-35" x="63.623047"/>
       <use xlink:href="#DejaVuSans-2e" x="127.246094"/>
       <use xlink:href="#DejaVuSans-30" x="159.033203"/>
      </g>
     </g>
    </g>
    <g id="xtick_8">
     <g id="line2d_15">
      <path d="M 307.234292 318.04 
L 307.234292 36.72 
" clip-path="url(#p0d5ec8143e)" style="fill: none; stroke: #b0b0b0; stroke-width: 0.8; stroke-linecap: square"/>
     </g>
     <g id="line2d_16">
      <g>
       <use xlink:href="#m46c30b193c" x="307.234292" y="318.04" style="stroke: #000000; stroke-width: 0.8"/>
      </g>
     </g>
     <g id="text_8">
      <!-- 17.5 -->
      <g transform="translate(296.101479 332.638437) scale(0.1 -0.1)">
       <use xlink:href="#DejaVuSans-31"/>
       <use xlink:href="#DejaVuSans-37" x="63.623047"/>
       <use xlink:href="#DejaVuSans-2e" x="127.246094"/>
       <use xlink:href="#DejaVuSans-35" x="159.033203"/>
      </g>
     </g>
    </g>
    <g id="xtick_9">
     <g id="line2d_17">
      <path d="M 341.275185 318.04 
L 341.275185 36.72 
" clip-path="url(#p0d5ec8143e)" style="fill: none; stroke: #b0b0b0; stroke-width: 0.8; stroke-linecap: square"/>
     </g>
     <g id="line2d_18">
      <g>
       <use xlink:href="#m46c30b193c" x="341.275185" y="318.04" style="stroke: #000000; stroke-width: 0.8"/>
      </g>
     </g>
     <g id="text_9">
      <!-- 20.0 -->
      <g transform="translate(330.142372 332.638437) scale(0.1 -0.1)">
       <use xlink:href="#DejaVuSans-32"/>
       <use xlink:href="#DejaVuSans-30" x="63.623047"/>
       <use xlink:href="#DejaVuSans-2e" x="127.246094"/>
       <use xlink:href="#DejaVuSans-30" x="159.033203"/>
      </g>
     </g>
    </g>
    <g id="text_10">
     <!-- t -->
     <g transform="translate(203.015156 346.316562) scale(0.1 -0.1)">
      <defs>
       <path id="DejaVuSans-74" d="M 1172 4494 
L 1172 3500 
L 2356 3500 
L 2356 3053 
L 1172 3053 
L 1172 1153 
Q 1172 725 1289 603 
Q 1406 481 1766 481 
L 2356 481 
L 2356 0 
L 1766 0 
Q 1100 0 847 248 
Q 594 497 594 1153 
L 594 3053 
L 172 3053 
L 172 3500 
L 594 3500 
L 594 4494 
L 1172 4494 
z
" transform="scale(0.015625)"/>
      </defs>
      <use xlink:href="#DejaVuSans-74"/>
     </g>
    </g>
   </g>
   <g id="matplotlib.axis_2">
    <g id="ytick_1">
     <g id="line2d_19">
      <path d="M 55.345313 312.521292 
L 354.605312 312.521292 
" clip-path="url(#p0d5ec8143e)" style="fill: none; stroke: #b0b0b0; stroke-width: 0.8; stroke-linecap: square"/>
     </g>
     <g id="line2d_20">
      <defs>
       <path id="m3fea0e588d" d="M 0 0 
L -3.5 0 
" style="stroke: #000000; stroke-width: 0.8"/>
      </defs>
      <g>
       <use xlink:href="#m3fea0e588d" x="55.345313" y="312.521292" style="stroke: #000000; stroke-width: 0.8"/>
      </g>
     </g>
     <g id="text_11">
      <!-- −350 -->
      <g transform="translate(20.878125 316.320511) scale(0.1 -0.1)">
       <defs>
        <path id="DejaVuSans-2212" d="M 678 2272 
L 4684 2272 
L 4684 1741 
L 678 1741 
L 678 2272 
z
" transform="scale(0.015625)"/>
        <path id="DejaVuSans-33" d="M 2597 2516 
Q 3050 2419 3304 2112 
Q 3559 1806 3559 1356 
Q 3559 666 3084 287 
Q 2609 -91 1734 -91 
Q 1441 -91 1130 -33 
Q 819 25 488 141 
L 488 750 
Q 750 597 1062 519 
Q 1375 441 1716 441 
Q 2309 441 2620 675 
Q 2931 909 2931 1356 
Q 2931 1769 2642 2001 
Q 2353 2234 1838 2234 
L 1294 2234 
L 1294 2753 
L 1863 2753 
Q 2328 2753 2575 2939 
Q 2822 3125 2822 3475 
Q 2822 3834 2567 4026 
Q 2313 4219 1838 4219 
Q 1578 4219 1281 4162 
Q 984 4106 628 3988 
L 628 4550 
Q 988 4650 1302 4700 
Q 1616 4750 1894 4750 
Q 2613 4750 3031 4423 
Q 3450 4097 3450 3541 
Q 3450 3153 3228 2886 
Q 3006 2619 2597 2516 
z
" transform="scale(0.015625)"/>
       </defs>
       <use xlink:href="#DejaVuSans-2212"/>
       <use xlink:href="#DejaVuSans-33" x="83.789062"/>
       <use xlink:href="#DejaVuSans-35" x="147.412109"/>
       <use xlink:href="#DejaVuSans-30" x="211.035156"/>
      </g>
     </g>
    </g>
    <g id="ytick_2">
     <g id="line2d_21">
      <path d="M 55.345313 277.731111 
L 354.605312 277.731111 
" clip-path="url(#p0d5ec8143e)" style="fill: none; stroke: #b0b0b0; stroke-width: 0.8; stroke-linecap: square"/>
     </g>
     <g id="line2d_22">
      <g>
       <use xlink:href="#m3fea0e588d" x="55.345313" y="277.731111" style="stroke: #000000; stroke-width: 0.8"/>
      </g>
     </g>
     <g id="text_12">
      <!-- −300 -->
      <g transform="translate(20.878125 281.53033) scale(0.1 -0.1)">
       <use xlink:href="#DejaVuSans-2212"/>
       <use xlink:href="#DejaVuSans-33" x="83.789062"/>
       <use xlink:href="#DejaVuSans-30" x="147.412109"/>
       <use xlink:href="#DejaVuSans-30" x="211.035156"/>
      </g>
     </g>
    </g>
    <g id="ytick_3">
     <g id="line2d_23">
      <path d="M 55.345313 242.940931 
L 354.605312 242.940931 
" clip-path="url(#p0d5ec8143e)" style="fill: none; stroke: #b0b0b0; stroke-width: 0.8; stroke-linecap: square"/>
     </g>
     <g id="line2d_24">
      <g>
       <use xlink:href="#m3fea0e588d" x="55.345313" y="242.940931" style="stroke: #000000; stroke-width: 0.8"/>
      </g>
     </g>
     <g id="text_13">
      <!-- −250 -->
      <g transform="translate(20.878125 246.740149) scale(0.1 -0.1)">
       <use xlink:href="#DejaVuSans-2212"/>
       <use xlink:href="#DejaVuSans-32" x="83.789062"/>
       <use xlink:href="#DejaVuSans-35" x="147.412109"/>
       <use xlink:href="#DejaVuSans-30" x="211.035156"/>
      </g>
     </g>
    </g>
    <g id="ytick_4">
     <g id="line2d_25">
      <path d="M 55.345313 208.15075 
L 354.605312 208.15075 
" clip-path="url(#p0d5ec8143e)" style="fill: none; stroke: #b0b0b0; stroke-width: 0.8; stroke-linecap: square"/>
     </g>
     <g id="line2d_26">
      <g>
       <use xlink:href="#m3fea0e588d" x="55.345313" y="208.15075" style="stroke: #000000; stroke-width: 0.8"/>
      </g>
     </g>
     <g id="text_14">
      <!-- −200 -->
      <g transform="translate(20.878125 211.949969) scale(0.1 -0.1)">
       <use xlink:href="#DejaVuSans-2212"/>
       <use xlink:href="#DejaVuSans-32" x="83.789062"/>
       <use xlink:href="#DejaVuSans-30" x="147.412109"/>
       <use xlink:href="#DejaVuSans-30" x="211.035156"/>
      </g>
     </g>
    </g>
    <g id="ytick_5">
     <g id="line2d_27">
      <path d="M 55.345313 173.360569 
L 354.605312 173.360569 
" clip-path="url(#p0d5ec8143e)" style="fill: none; stroke: #b0b0b0; stroke-width: 0.8; stroke-linecap: square"/>
     </g>
     <g id="line2d_28">
      <g>
       <use xlink:href="#m3fea0e588d" x="55.345313" y="173.360569" style="stroke: #000000; stroke-width: 0.8"/>
      </g>
     </g>
     <g id="text_15">
      <!-- −150 -->
      <g transform="translate(20.878125 177.159788) scale(0.1 -0.1)">
       <use xlink:href="#DejaVuSans-2212"/>
       <use xlink:href="#DejaVuSans-31" x="83.789062"/>
       <use xlink:href="#DejaVuSans-35" x="147.412109"/>
       <use xlink:href="#DejaVuSans-30" x="211.035156"/>
      </g>
     </g>
    </g>
    <g id="ytick_6">
     <g id="line2d_29">
      <path d="M 55.345313 138.570389 
L 354.605312 138.570389 
" clip-path="url(#p0d5ec8143e)" style="fill: none; stroke: #b0b0b0; stroke-width: 0.8; stroke-linecap: square"/>
     </g>
     <g id="line2d_30">
      <g>
       <use xlink:href="#m3fea0e588d" x="55.345313" y="138.570389" style="stroke: #000000; stroke-width: 0.8"/>
      </g>
     </g>
     <g id="text_16">
      <!-- −100 -->
      <g transform="translate(20.878125 142.369607) scale(0.1 -0.1)">
       <use xlink:href="#DejaVuSans-2212"/>
       <use xlink:href="#DejaVuSans-31" x="83.789062"/>
       <use xlink:href="#DejaVuSans-30" x="147.412109"/>
       <use xlink:href="#DejaVuSans-30" x="211.035156"/>
      </g>
     </g>
    </g>
    <g id="ytick_7">
     <g id="line2d_31">
      <path d="M 55.345313 103.780208 
L 354.605312 103.780208 
" clip-path="url(#p0d5ec8143e)" style="fill: none; stroke: #b0b0b0; stroke-width: 0.8; stroke-linecap: square"/>
     </g>
     <g id="line2d_32">
      <g>
       <use xlink:href="#m3fea0e588d" x="55.345313" y="103.780208" style="stroke: #000000; stroke-width: 0.8"/>
      </g>
     </g>
     <g id="text_17">
      <!-- −50 -->
      <g transform="translate(27.240625 107.579427) scale(0.1 -0.1)">
       <use xlink:href="#DejaVuSans-2212"/>
       <use xlink:href="#DejaVuSans-35" x="83.789062"/>
       <use xlink:href="#DejaVuSans-30" x="147.412109"/>
      </g>
     </g>
    </g>
    <g id="ytick_8">
     <g id="line2d_33">
      <path d="M 55.345313 68.990027 
L 354.605312 68.990027 
" clip-path="url(#p0d5ec8143e)" style="fill: none; stroke: #b0b0b0; stroke-width: 0.8; stroke-linecap: square"/>
     </g>
     <g id="line2d_34">
      <g>
       <use xlink:href="#m3fea0e588d" x="55.345313" y="68.990027" style="stroke: #000000; stroke-width: 0.8"/>
      </g>
     </g>
     <g id="text_18">
      <!-- 0 -->
      <g transform="translate(41.982813 72.789246) scale(0.1 -0.1)">
       <use xlink:href="#DejaVuSans-30"/>
      </g>
     </g>
    </g>
    <g id="text_19">
     <!-- x(t) -->
     <g transform="translate(14.798438 186.201094) rotate(-90) scale(0.1 -0.1)">
      <defs>
       <path id="DejaVuSans-78" d="M 3513 3500 
L 2247 1797 
L 3578 0 
L 2900 0 
L 1881 1375 
L 863 0 
L 184 0 
L 1544 1831 
L 300 3500 
L 978 3500 
L 1906 2253 
L 2834 3500 
L 3513 3500 
z
" transform="scale(0.015625)"/>
       <path id="DejaVuSans-28" d="M 1984 4856 
Q 1566 4138 1362 3434 
Q 1159 2731 1159 2009 
Q 1159 1288 1364 580 
Q 1569 -128 1984 -844 
L 1484 -844 
Q 1016 -109 783 600 
Q 550 1309 550 2009 
Q 550 2706 781 3412 
Q 1013 4119 1484 4856 
L 1984 4856 
z
" transform="scale(0.015625)"/>
       <path id="DejaVuSans-29" d="M 513 4856 
L 1013 4856 
Q 1481 4119 1714 3412 
Q 1947 2706 1947 2009 
Q 1947 1309 1714 600 
Q 1481 -109 1013 -844 
L 513 -844 
Q 928 -128 1133 580 
Q 1338 1288 1338 2009 
Q 1338 2731 1133 3434 
Q 928 4138 513 4856 
z
" transform="scale(0.015625)"/>
      </defs>
      <use xlink:href="#DejaVuSans-78"/>
      <use xlink:href="#DejaVuSans-28" x="59.179688"/>
      <use xlink:href="#DejaVuSans-74" x="98.193359"/>
      <use xlink:href="#DejaVuSans-29" x="137.402344"/>
     </g>
    </g>
   </g>
   <g id="line2d_35">
    <path d="M 68.94804 68.990027 
L 82.578027 68.886846 
L 88.575221 68.594857 
L 93.482017 68.133761 
L 98.388812 67.444455 
L 103.840807 66.436096 
L 118.015994 63.647308 
L 121.287191 63.303408 
L 124.013188 63.203259 
L 126.739186 63.30935 
L 129.465183 63.646645 
L 132.191181 64.224528 
L 134.917178 65.038557 
L 137.643175 66.080888 
L 140.369173 67.340113 
L 143.64037 69.108783 
L 147.456766 71.455422 
L 154.54436 76.179992 
L 158.905956 78.932132 
L 162.177153 80.708628 
L 164.90315 81.905047 
L 167.083948 82.631022 
L 169.264746 83.121096 
L 171.445544 83.352043 
L 173.626342 83.306178 
L 175.80714 82.974092 
L 177.987938 82.359395 
L 180.168736 81.477187 
L 182.349534 80.345308 
L 184.530332 78.983573 
L 187.256329 76.996727 
L 190.527526 74.279645 
L 194.889122 70.320271 
L 200.341117 65.380144 
L 203.067114 63.151375 
L 205.793112 61.22049 
L 207.97391 59.954454 
L 210.154708 58.98365 
L 211.790306 58.472136 
L 213.425905 58.16117 
L 215.061503 58.06142 
L 216.697102 58.180635 
L 218.3327 58.521958 
L 219.968298 59.082444 
L 221.603897 59.854346 
L 223.239495 60.829024 
L 225.420293 62.427722 
L 227.601091 64.342337 
L 229.781889 66.5363 
L 232.507887 69.601665 
L 236.324283 74.301803 
L 243.411877 83.190518 
L 246.137874 86.253332 
L 248.318672 88.41819 
L 250.49947 90.260531 
L 252.135068 91.396156 
L 253.770667 92.297164 
L 255.406265 92.945407 
L 257.041864 93.325981 
L 258.677462 93.427506 
L 260.313061 93.242651 
L 261.948659 92.770448 
L 263.584258 92.017656 
L 265.219856 90.995115 
L 266.855455 89.714176 
L 268.491053 88.188128 
L 270.671851 85.80131 
L 272.852649 83.057996 
L 275.578646 79.220126 
L 278.849843 74.200061 
L 287.027836 61.445028 
L 289.753833 57.723342 
L 291.934631 55.12793 
L 293.57023 53.453969 
L 295.205828 52.045432 
L 296.841427 50.927329 
L 298.477025 50.120917 
L 300.112623 49.643332 
L 301.203022 49.514085 
L 302.293421 49.53933 
L 303.38382 49.720438 
L 304.474219 50.056953 
L 306.109818 50.847458 
L 307.745416 51.969464 
L 309.381015 53.409554 
L 311.016613 55.151953 
L 312.652212 57.176805 
L 314.83301 60.27336 
L 317.013808 63.759154 
L 319.739805 68.539249 
L 324.101401 76.732147 
L 329.008196 85.8451 
L 331.734194 90.434595 
L 333.914992 93.690806 
L 335.55059 95.829433 
L 337.186189 97.668426 
L 338.821787 99.176329 
L 340.457386 100.325985 
L 341.002585 100.625576 
L 341.002585 100.625576 
" clip-path="url(#p0d5ec8143e)" style="fill: none; stroke: #0000ff; stroke-width: 1.5; stroke-linecap: square"/>
   </g>
   <g id="line2d_36">
    <path d="M 68.94804 68.990027 
L 76.580833 68.832354 
L 80.397229 68.829993 
L 82.578027 69.074349 
L 84.758825 69.589165 
L 88.575221 70.66792 
L 90.21082 71.681361 
L 92.391618 73.631079 
L 94.027216 74.748728 
L 95.117615 75.628112 
L 96.208014 76.755393 
L 97.843613 78.315294 
L 100.024411 80.106714 
L 102.750408 82.880946 
L 104.386007 84.249097 
L 105.476406 85.451412 
L 106.566805 86.585272 
L 109.838002 89.619974 
L 110.9284 90.801623 
L 112.563999 92.184163 
L 113.654398 93.205869 
L 115.835196 95.537697 
L 118.561193 97.993511 
L 119.651592 99.24289 
L 121.287191 100.688362 
L 122.37759 101.633203 
L 125.648787 104.930935 
L 126.739186 105.831648 
L 127.829585 106.9888 
L 128.919984 108.185347 
L 130.555582 109.573848 
L 131.645981 110.564077 
L 134.371979 113.370512 
L 136.007577 114.737504 
L 139.278774 118.016052 
L 140.369173 118.899918 
L 142.004771 120.687628 
L 143.64037 122.214565 
L 145.275968 123.593381 
L 148.547165 126.831425 
L 149.637564 127.731721 
L 150.727963 128.889495 
L 151.818362 130.061538 
L 153.453961 131.425849 
L 154.54436 132.40318 
L 157.270357 135.183226 
L 158.905956 136.521461 
L 162.722352 140.191513 
L 163.812751 141.172743 
L 166.538748 143.939789 
L 168.174347 145.273563 
L 171.990743 148.930765 
L 173.081142 149.907188 
L 175.80714 152.667658 
L 177.442738 153.992625 
L 181.259135 157.647017 
L 182.349534 158.610776 
L 185.620731 161.8004 
L 186.71113 162.682844 
L 190.527526 166.343333 
L 191.617925 167.286946 
L 194.889122 170.486805 
L 195.979521 171.348383 
L 197.615119 173.106896 
L 199.250718 174.609501 
L 200.886316 175.938494 
L 204.157513 179.154174 
L 205.247912 179.994017 
L 206.883511 181.731906 
L 208.519109 183.261391 
L 210.154708 184.568336 
L 213.971104 188.205136 
L 215.061503 189.143765 
L 218.3327 192.330169 
L 219.423099 193.180889 
L 221.058697 194.928178 
L 222.694296 196.431903 
L 224.329894 197.743782 
L 228.146291 201.356042 
L 229.23669 202.304971 
L 232.507887 205.473079 
L 233.598286 206.3284 
L 235.233884 208.076659 
L 236.869483 209.567818 
L 238.505081 210.879127 
L 241.776278 214.08295 
L 242.866677 214.905675 
L 244.502276 216.616353 
L 245.592674 217.68958 
L 248.863871 220.549117 
L 249.95427 221.727083 
L 251.589869 223.084229 
L 252.680268 223.978641 
L 256.496664 227.575963 
L 257.587063 228.515708 
L 260.85826 231.677126 
L 261.948659 232.519176 
L 263.584258 234.254967 
L 265.219856 235.752345 
L 266.855455 237.04592 
L 270.671851 240.65062 
L 271.76225 241.57244 
L 275.033447 244.74294 
L 276.123846 245.570331 
L 277.759444 247.290294 
L 278.849843 248.341798 
L 282.12104 251.198566 
L 283.211439 252.361903 
L 284.847038 253.704546 
L 285.937437 254.600211 
L 289.208634 257.785731 
L 290.299033 258.598133 
L 291.934631 260.290281 
L 293.02503 261.367199 
L 296.296227 264.186537 
L 297.386626 265.373761 
L 299.022225 266.738548 
L 300.112623 267.601742 
L 303.92902 271.20721 
L 305.019419 272.106099 
L 308.290616 275.281631 
L 309.381015 276.09245 
L 311.016613 277.783382 
L 312.107012 278.856523 
L 315.378209 281.66716 
L 316.468608 282.853419 
L 318.104207 284.216767 
L 319.194606 285.074063 
L 323.011002 288.677366 
L 324.101401 289.566954 
L 327.917797 293.135183 
L 329.008196 294.057965 
L 332.279393 297.205384 
L 333.369792 298.024501 
L 335.005391 299.732398 
L 336.09579 300.781306 
L 339.366987 303.601989 
L 340.457386 304.771361 
L 341.002585 305.252727 
L 341.002585 305.252727 
" clip-path="url(#p0d5ec8143e)" style="fill: none; stroke-dasharray: 5.55,2.4; stroke-dashoffset: 0; stroke: #ff0000; stroke-width: 1.5"/>
   </g>
   <g id="patch_3">
    <path d="M 55.345313 318.04 
L 55.345313 36.72 
" style="fill: none; stroke: #000000; stroke-width: 0.8; stroke-linejoin: miter; stroke-linecap: square"/>
   </g>
   <g id="patch_4">
    <path d="M 354.605312 318.04 
L 354.605312 36.72 
" style="fill: none; stroke: #000000; stroke-width: 0.8; stroke-linejoin: miter; stroke-linecap: square"/>
   </g>
   <g id="patch_5">
    <path d="M 55.345313 318.04 
L 354.605312 318.04 
" style="fill: none; stroke: #000000; stroke-width: 0.8; stroke-linejoin: miter; stroke-linecap: square"/>
   </g>
   <g id="patch_6">
    <path d="M 55.345313 36.72 
L 354.605312 36.72 
" style="fill: none; stroke: #000000; stroke-width: 0.8; stroke-linejoin: miter; stroke-linecap: square"/>
   </g>
   <g id="legend_1">
    <g id="patch_7">
     <path d="M 62.345313 313.04 
L 120.9375 313.04 
Q 122.9375 313.04 122.9375 311.04 
L 122.9375 282.68375 
Q 122.9375 280.68375 120.9375 280.68375 
L 62.345313 280.68375 
Q 60.345313 280.68375 60.345313 282.68375 
L 60.345313 311.04 
Q 60.345313 313.04 62.345313 313.04 
z
" style="fill: #ffffff; opacity: 0.8; stroke: #cccccc; stroke-linejoin: miter"/>
    </g>
    <g id="line2d_37">
     <path d="M 64.345313 288.782187 
L 74.345313 288.782187 
L 84.345313 288.782187 
" style="fill: none; stroke: #0000ff; stroke-width: 1.5; stroke-linecap: square"/>
    </g>
    <g id="text_20">
     <!-- data -->
     <g transform="translate(92.345313 292.282187) scale(0.1 -0.1)">
      <defs>
       <path id="DejaVuSans-64" d="M 2906 2969 
L 2906 4863 
L 3481 4863 
L 3481 0 
L 2906 0 
L 2906 525 
Q 2725 213 2448 61 
Q 2172 -91 1784 -91 
Q 1150 -91 751 415 
Q 353 922 353 1747 
Q 353 2572 751 3078 
Q 1150 3584 1784 3584 
Q 2172 3584 2448 3432 
Q 2725 3281 2906 2969 
z
M 947 1747 
Q 947 1113 1208 752 
Q 1469 391 1925 391 
Q 2381 391 2643 752 
Q 2906 1113 2906 1747 
Q 2906 2381 2643 2742 
Q 2381 3103 1925 3103 
Q 1469 3103 1208 2742 
Q 947 2381 947 1747 
z
" transform="scale(0.015625)"/>
       <path id="DejaVuSans-61" d="M 2194 1759 
Q 1497 1759 1228 1600 
Q 959 1441 959 1056 
Q 959 750 1161 570 
Q 1363 391 1709 391 
Q 2188 391 2477 730 
Q 2766 1069 2766 1631 
L 2766 1759 
L 2194 1759 
z
M 3341 1997 
L 3341 0 
L 2766 0 
L 2766 531 
Q 2569 213 2275 61 
Q 1981 -91 1556 -91 
Q 1019 -91 701 211 
Q 384 513 384 1019 
Q 384 1609 779 1909 
Q 1175 2209 1959 2209 
L 2766 2209 
L 2766 2266 
Q 2766 2663 2505 2880 
Q 2244 3097 1772 3097 
Q 1472 3097 1187 3025 
Q 903 2953 641 2809 
L 641 3341 
Q 956 3463 1253 3523 
Q 1550 3584 1831 3584 
Q 2591 3584 2966 3190 
Q 3341 2797 3341 1997 
z
" transform="scale(0.015625)"/>
      </defs>
      <use xlink:href="#DejaVuSans-64"/>
      <use xlink:href="#DejaVuSans-61" x="63.476562"/>
      <use xlink:href="#DejaVuSans-74" x="124.755859"/>
      <use xlink:href="#DejaVuSans-61" x="163.964844"/>
     </g>
    </g>
    <g id="line2d_38">
     <path d="M 64.345313 303.460312 
L 74.345313 303.460312 
L 84.345313 303.460312 
" style="fill: none; stroke-dasharray: 5.55,2.4; stroke-dashoffset: 0; stroke: #ff0000; stroke-width: 1.5"/>
    </g>
    <g id="text_21">
     <!-- sindy -->
     <g transform="translate(92.345313 306.960312) scale(0.1 -0.1)">
      <defs>
       <path id="DejaVuSans-73" d="M 2834 3397 
L 2834 2853 
Q 2591 2978 2328 3040 
Q 2066 3103 1784 3103 
Q 1356 3103 1142 2972 
Q 928 2841 928 2578 
Q 928 2378 1081 2264 
Q 1234 2150 1697 2047 
L 1894 2003 
Q 2506 1872 2764 1633 
Q 3022 1394 3022 966 
Q 3022 478 2636 193 
Q 2250 -91 1575 -91 
Q 1294 -91 989 -36 
Q 684 19 347 128 
L 347 722 
Q 666 556 975 473 
Q 1284 391 1588 391 
Q 1994 391 2212 530 
Q 2431 669 2431 922 
Q 2431 1156 2273 1281 
Q 2116 1406 1581 1522 
L 1381 1569 
Q 847 1681 609 1914 
Q 372 2147 372 2553 
Q 372 3047 722 3315 
Q 1072 3584 1716 3584 
Q 2034 3584 2315 3537 
Q 2597 3491 2834 3397 
z
" transform="scale(0.015625)"/>
       <path id="DejaVuSans-69" d="M 603 3500 
L 1178 3500 
L 1178 0 
L 603 0 
L 603 3500 
z
M 603 4863 
L 1178 4863 
L 1178 4134 
L 603 4134 
L 603 4863 
z
" transform="scale(0.015625)"/>
       <path id="DejaVuSans-6e" d="M 3513 2113 
L 3513 0 
L 2938 0 
L 2938 2094 
Q 2938 2591 2744 2837 
Q 2550 3084 2163 3084 
Q 1697 3084 1428 2787 
Q 1159 2491 1159 1978 
L 1159 0 
L 581 0 
L 581 3500 
L 1159 3500 
L 1159 2956 
Q 1366 3272 1645 3428 
Q 1925 3584 2291 3584 
Q 2894 3584 3203 3211 
Q 3513 2838 3513 2113 
z
" transform="scale(0.015625)"/>
       <path id="DejaVuSans-79" d="M 2059 -325 
Q 1816 -950 1584 -1140 
Q 1353 -1331 966 -1331 
L 506 -1331 
L 506 -850 
L 844 -850 
Q 1081 -850 1212 -737 
Q 1344 -625 1503 -206 
L 1606 56 
L 191 3500 
L 800 3500 
L 1894 763 
L 2988 3500 
L 3597 3500 
L 2059 -325 
z
" transform="scale(0.015625)"/>
      </defs>
      <use xlink:href="#DejaVuSans-73"/>
      <use xlink:href="#DejaVuSans-69" x="52.099609"/>
      <use xlink:href="#DejaVuSans-6e" x="79.882812"/>
      <use xlink:href="#DejaVuSans-64" x="143.261719"/>
      <use xlink:href="#DejaVuSans-79" x="206.738281"/>
     </g>
    </g>
   </g>
  </g>
  <g id="axes_2">
   <g id="patch_8">
    <path d="M 410.695313 318.04 
L 709.955312 318.04 
L 709.955312 36.72 
L 410.695313 36.72 
z
" style="fill: #ffffff"/>
   </g>
   <g id="matplotlib.axis_3">
    <g id="xtick_10">
     <g id="line2d_39">
      <path d="M 424.29804 318.04 
L 424.29804 36.72 
" clip-path="url(#pfdee9d8d47)" style="fill: none; stroke: #b0b0b0; stroke-width: 0.8; stroke-linecap: square"/>
     </g>
     <g id="line2d_40">
      <g>
       <use xlink:href="#m46c30b193c" x="424.29804" y="318.04" style="stroke: #000000; stroke-width: 0.8"/>
      </g>
     </g>
     <g id="text_22">
      <!-- 0.0 -->
      <g transform="translate(416.346477 332.638437) scale(0.1 -0.1)">
       <use xlink:href="#DejaVuSans-30"/>
       <use xlink:href="#DejaVuSans-2e" x="63.623047"/>
       <use xlink:href="#DejaVuSans-30" x="95.410156"/>
      </g>
     </g>
    </g>
    <g id="xtick_11">
     <g id="line2d_41">
      <path d="M 458.338933 318.04 
L 458.338933 36.72 
" clip-path="url(#pfdee9d8d47)" style="fill: none; stroke: #b0b0b0; stroke-width: 0.8; stroke-linecap: square"/>
     </g>
     <g id="line2d_42">
      <g>
       <use xlink:href="#m46c30b193c" x="458.338933" y="318.04" style="stroke: #000000; stroke-width: 0.8"/>
      </g>
     </g>
     <g id="text_23">
      <!-- 2.5 -->
      <g transform="translate(450.38737 332.638437) scale(0.1 -0.1)">
       <use xlink:href="#DejaVuSans-32"/>
       <use xlink:href="#DejaVuSans-2e" x="63.623047"/>
       <use xlink:href="#DejaVuSans-35" x="95.410156"/>
      </g>
     </g>
    </g>
    <g id="xtick_12">
     <g id="line2d_43">
      <path d="M 492.379826 318.04 
L 492.379826 36.72 
" clip-path="url(#pfdee9d8d47)" style="fill: none; stroke: #b0b0b0; stroke-width: 0.8; stroke-linecap: square"/>
     </g>
     <g id="line2d_44">
      <g>
       <use xlink:href="#m46c30b193c" x="492.379826" y="318.04" style="stroke: #000000; stroke-width: 0.8"/>
      </g>
     </g>
     <g id="text_24">
      <!-- 5.0 -->
      <g transform="translate(484.428264 332.638437) scale(0.1 -0.1)">
       <use xlink:href="#DejaVuSans-35"/>
       <use xlink:href="#DejaVuSans-2e" x="63.623047"/>
       <use xlink:href="#DejaVuSans-30" x="95.410156"/>
      </g>
     </g>
    </g>
    <g id="xtick_13">
     <g id="line2d_45">
      <path d="M 526.420719 318.04 
L 526.420719 36.72 
" clip-path="url(#pfdee9d8d47)" style="fill: none; stroke: #b0b0b0; stroke-width: 0.8; stroke-linecap: square"/>
     </g>
     <g id="line2d_46">
      <g>
       <use xlink:href="#m46c30b193c" x="526.420719" y="318.04" style="stroke: #000000; stroke-width: 0.8"/>
      </g>
     </g>
     <g id="text_25">
      <!-- 7.5 -->
      <g transform="translate(518.469157 332.638437) scale(0.1 -0.1)">
       <use xlink:href="#DejaVuSans-37"/>
       <use xlink:href="#DejaVuSans-2e" x="63.623047"/>
       <use xlink:href="#DejaVuSans-35" x="95.410156"/>
      </g>
     </g>
    </g>
    <g id="xtick_14">
     <g id="line2d_47">
      <path d="M 560.461612 318.04 
L 560.461612 36.72 
" clip-path="url(#pfdee9d8d47)" style="fill: none; stroke: #b0b0b0; stroke-width: 0.8; stroke-linecap: square"/>
     </g>
     <g id="line2d_48">
      <g>
       <use xlink:href="#m46c30b193c" x="560.461612" y="318.04" style="stroke: #000000; stroke-width: 0.8"/>
      </g>
     </g>
     <g id="text_26">
      <!-- 10.0 -->
      <g transform="translate(549.3288 332.638437) scale(0.1 -0.1)">
       <use xlink:href="#DejaVuSans-31"/>
       <use xlink:href="#DejaVuSans-30" x="63.623047"/>
       <use xlink:href="#DejaVuSans-2e" x="127.246094"/>
       <use xlink:href="#DejaVuSans-30" x="159.033203"/>
      </g>
     </g>
    </g>
    <g id="xtick_15">
     <g id="line2d_49">
      <path d="M 594.502506 318.04 
L 594.502506 36.72 
" clip-path="url(#pfdee9d8d47)" style="fill: none; stroke: #b0b0b0; stroke-width: 0.8; stroke-linecap: square"/>
     </g>
     <g id="line2d_50">
      <g>
       <use xlink:href="#m46c30b193c" x="594.502506" y="318.04" style="stroke: #000000; stroke-width: 0.8"/>
      </g>
     </g>
     <g id="text_27">
      <!-- 12.5 -->
      <g transform="translate(583.369693 332.638437) scale(0.1 -0.1)">
       <use xlink:href="#DejaVuSans-31"/>
       <use xlink:href="#DejaVuSans-32" x="63.623047"/>
       <use xlink:href="#DejaVuSans-2e" x="127.246094"/>
       <use xlink:href="#DejaVuSans-35" x="159.033203"/>
      </g>
     </g>
    </g>
    <g id="xtick_16">
     <g id="line2d_51">
      <path d="M 628.543399 318.04 
L 628.543399 36.72 
" clip-path="url(#pfdee9d8d47)" style="fill: none; stroke: #b0b0b0; stroke-width: 0.8; stroke-linecap: square"/>
     </g>
     <g id="line2d_52">
      <g>
       <use xlink:href="#m46c30b193c" x="628.543399" y="318.04" style="stroke: #000000; stroke-width: 0.8"/>
      </g>
     </g>
     <g id="text_28">
      <!-- 15.0 -->
      <g transform="translate(617.410586 332.638437) scale(0.1 -0.1)">
       <use xlink:href="#DejaVuSans-31"/>
       <use xlink:href="#DejaVuSans-35" x="63.623047"/>
       <use xlink:href="#DejaVuSans-2e" x="127.246094"/>
       <use xlink:href="#DejaVuSans-30" x="159.033203"/>
      </g>
     </g>
    </g>
    <g id="xtick_17">
     <g id="line2d_53">
      <path d="M 662.584292 318.04 
L 662.584292 36.72 
" clip-path="url(#pfdee9d8d47)" style="fill: none; stroke: #b0b0b0; stroke-width: 0.8; stroke-linecap: square"/>
     </g>
     <g id="line2d_54">
      <g>
       <use xlink:href="#m46c30b193c" x="662.584292" y="318.04" style="stroke: #000000; stroke-width: 0.8"/>
      </g>
     </g>
     <g id="text_29">
      <!-- 17.5 -->
      <g transform="translate(651.451479 332.638437) scale(0.1 -0.1)">
       <use xlink:href="#DejaVuSans-31"/>
       <use xlink:href="#DejaVuSans-37" x="63.623047"/>
       <use xlink:href="#DejaVuSans-2e" x="127.246094"/>
       <use xlink:href="#DejaVuSans-35" x="159.033203"/>
      </g>
     </g>
    </g>
    <g id="xtick_18">
     <g id="line2d_55">
      <path d="M 696.625185 318.04 
L 696.625185 36.72 
" clip-path="url(#pfdee9d8d47)" style="fill: none; stroke: #b0b0b0; stroke-width: 0.8; stroke-linecap: square"/>
     </g>
     <g id="line2d_56">
      <g>
       <use xlink:href="#m46c30b193c" x="696.625185" y="318.04" style="stroke: #000000; stroke-width: 0.8"/>
      </g>
     </g>
     <g id="text_30">
      <!-- 20.0 -->
      <g transform="translate(685.492372 332.638437) scale(0.1 -0.1)">
       <use xlink:href="#DejaVuSans-32"/>
       <use xlink:href="#DejaVuSans-30" x="63.623047"/>
       <use xlink:href="#DejaVuSans-2e" x="127.246094"/>
       <use xlink:href="#DejaVuSans-30" x="159.033203"/>
      </g>
     </g>
    </g>
    <g id="text_31">
     <!-- t -->
     <g transform="translate(558.365156 346.316562) scale(0.1 -0.1)">
      <use xlink:href="#DejaVuSans-74"/>
     </g>
    </g>
   </g>
   <g id="matplotlib.axis_4">
    <g id="ytick_9">
     <g id="line2d_57">
      <path d="M 410.695313 310.46624 
L 709.955312 310.46624 
" clip-path="url(#pfdee9d8d47)" style="fill: none; stroke: #b0b0b0; stroke-width: 0.8; stroke-linecap: square"/>
     </g>
     <g id="line2d_58">
      <g>
       <use xlink:href="#m3fea0e588d" x="410.695313" y="310.46624" style="stroke: #000000; stroke-width: 0.8"/>
      </g>
     </g>
     <g id="text_32">
      <!-- −1.5 -->
      <g transform="translate(379.4125 314.265458) scale(0.1 -0.1)">
       <use xlink:href="#DejaVuSans-2212"/>
       <use xlink:href="#DejaVuSans-31" x="83.789062"/>
       <use xlink:href="#DejaVuSans-2e" x="147.412109"/>
       <use xlink:href="#DejaVuSans-35" x="179.199219"/>
      </g>
     </g>
    </g>
    <g id="ytick_10">
     <g id="line2d_59">
      <path d="M 410.695313 263.36013 
L 709.955312 263.36013 
" clip-path="url(#pfdee9d8d47)" style="fill: none; stroke: #b0b0b0; stroke-width: 0.8; stroke-linecap: square"/>
     </g>
     <g id="line2d_60">
      <g>
       <use xlink:href="#m3fea0e588d" x="410.695313" y="263.36013" style="stroke: #000000; stroke-width: 0.8"/>
      </g>
     </g>
     <g id="text_33">
      <!-- −1.0 -->
      <g transform="translate(379.4125 267.159349) scale(0.1 -0.1)">
       <use xlink:href="#DejaVuSans-2212"/>
       <use xlink:href="#DejaVuSans-31" x="83.789062"/>
       <use xlink:href="#DejaVuSans-2e" x="147.412109"/>
       <use xlink:href="#DejaVuSans-30" x="179.199219"/>
      </g>
     </g>
    </g>
    <g id="ytick_11">
     <g id="line2d_61">
      <path d="M 410.695313 216.25402 
L 709.955312 216.25402 
" clip-path="url(#pfdee9d8d47)" style="fill: none; stroke: #b0b0b0; stroke-width: 0.8; stroke-linecap: square"/>
     </g>
     <g id="line2d_62">
      <g>
       <use xlink:href="#m3fea0e588d" x="410.695313" y="216.25402" style="stroke: #000000; stroke-width: 0.8"/>
      </g>
     </g>
     <g id="text_34">
      <!-- −0.5 -->
      <g transform="translate(379.4125 220.053239) scale(0.1 -0.1)">
       <use xlink:href="#DejaVuSans-2212"/>
       <use xlink:href="#DejaVuSans-30" x="83.789062"/>
       <use xlink:href="#DejaVuSans-2e" x="147.412109"/>
       <use xlink:href="#DejaVuSans-35" x="179.199219"/>
      </g>
     </g>
    </g>
    <g id="ytick_12">
     <g id="line2d_63">
      <path d="M 410.695313 169.147911 
L 709.955312 169.147911 
" clip-path="url(#pfdee9d8d47)" style="fill: none; stroke: #b0b0b0; stroke-width: 0.8; stroke-linecap: square"/>
     </g>
     <g id="line2d_64">
      <g>
       <use xlink:href="#m3fea0e588d" x="410.695313" y="169.147911" style="stroke: #000000; stroke-width: 0.8"/>
      </g>
     </g>
     <g id="text_35">
      <!-- 0.0 -->
      <g transform="translate(387.792188 172.947129) scale(0.1 -0.1)">
       <use xlink:href="#DejaVuSans-30"/>
       <use xlink:href="#DejaVuSans-2e" x="63.623047"/>
       <use xlink:href="#DejaVuSans-30" x="95.410156"/>
      </g>
     </g>
    </g>
    <g id="ytick_13">
     <g id="line2d_65">
      <path d="M 410.695313 122.041801 
L 709.955312 122.041801 
" clip-path="url(#pfdee9d8d47)" style="fill: none; stroke: #b0b0b0; stroke-width: 0.8; stroke-linecap: square"/>
     </g>
     <g id="line2d_66">
      <g>
       <use xlink:href="#m3fea0e588d" x="410.695313" y="122.041801" style="stroke: #000000; stroke-width: 0.8"/>
      </g>
     </g>
     <g id="text_36">
      <!-- 0.5 -->
      <g transform="translate(387.792188 125.84102) scale(0.1 -0.1)">
       <use xlink:href="#DejaVuSans-30"/>
       <use xlink:href="#DejaVuSans-2e" x="63.623047"/>
       <use xlink:href="#DejaVuSans-35" x="95.410156"/>
      </g>
     </g>
    </g>
    <g id="ytick_14">
     <g id="line2d_67">
      <path d="M 410.695313 74.935691 
L 709.955312 74.935691 
" clip-path="url(#pfdee9d8d47)" style="fill: none; stroke: #b0b0b0; stroke-width: 0.8; stroke-linecap: square"/>
     </g>
     <g id="line2d_68">
      <g>
       <use xlink:href="#m3fea0e588d" x="410.695313" y="74.935691" style="stroke: #000000; stroke-width: 0.8"/>
      </g>
     </g>
     <g id="text_37">
      <!-- 1.0 -->
      <g transform="translate(387.792188 78.73491) scale(0.1 -0.1)">
       <use xlink:href="#DejaVuSans-31"/>
       <use xlink:href="#DejaVuSans-2e" x="63.623047"/>
       <use xlink:href="#DejaVuSans-30" x="95.410156"/>
      </g>
     </g>
    </g>
    <g id="text_38">
     <!-- fr(t) -->
     <g transform="translate(373.332813 187.057344) rotate(-90) scale(0.1 -0.1)">
      <defs>
       <path id="DejaVuSans-66" d="M 2375 4863 
L 2375 4384 
L 1825 4384 
Q 1516 4384 1395 4259 
Q 1275 4134 1275 3809 
L 1275 3500 
L 2222 3500 
L 2222 3053 
L 1275 3053 
L 1275 0 
L 697 0 
L 697 3053 
L 147 3053 
L 147 3500 
L 697 3500 
L 697 3744 
Q 697 4328 969 4595 
Q 1241 4863 1831 4863 
L 2375 4863 
z
" transform="scale(0.015625)"/>
       <path id="DejaVuSans-72" d="M 2631 2963 
Q 2534 3019 2420 3045 
Q 2306 3072 2169 3072 
Q 1681 3072 1420 2755 
Q 1159 2438 1159 1844 
L 1159 0 
L 581 0 
L 581 3500 
L 1159 3500 
L 1159 2956 
Q 1341 3275 1631 3429 
Q 1922 3584 2338 3584 
Q 2397 3584 2469 3576 
Q 2541 3569 2628 3553 
L 2631 2963 
z
" transform="scale(0.015625)"/>
      </defs>
      <use xlink:href="#DejaVuSans-66"/>
      <use xlink:href="#DejaVuSans-72" x="35.205078"/>
      <use xlink:href="#DejaVuSans-28" x="76.318359"/>
      <use xlink:href="#DejaVuSans-74" x="115.332031"/>
      <use xlink:href="#DejaVuSans-29" x="154.541016"/>
     </g>
    </g>
   </g>
   <g id="line2d_69">
    <path d="M 424.29804 169.147911 
L 428.114436 169.052354 
L 429.750035 168.754735 
L 430.840434 168.341432 
L 431.930833 167.673881 
L 433.021232 166.674743 
L 434.111631 165.265596 
L 435.20203 163.372525 
L 436.292429 160.932483 
L 437.382828 157.899984 
L 438.473227 154.253462 
L 439.563625 150.000493 
L 441.199224 142.580417 
L 443.380022 131.205588 
L 448.286817 104.603939 
L 449.922416 97.03123 
L 451.558014 90.59918 
L 452.648413 86.986446 
L 453.738812 83.902152 
L 454.829211 81.311442 
L 455.91961 79.164501 
L 457.010009 77.403051 
L 458.100408 75.966149 
L 459.190807 74.794832 
L 460.826406 73.420244 
L 462.462004 72.373813 
L 464.642802 71.30338 
L 467.368799 70.271693 
L 470.639996 69.30426 
L 473.911193 68.585469 
L 476.637191 68.204422 
L 479.363188 68.065291 
L 479.908388 68.571625 
L 480.453587 70.231082 
L 480.998787 73.076273 
L 481.543986 77.134986 
L 482.089186 82.431743 
L 483.179585 96.820454 
L 484.269984 116.369003 
L 485.360383 141.145012 
L 487.541181 197.555808 
L 488.63158 218.290551 
L 489.721979 233.294282 
L 490.812378 243.53739 
L 491.902777 250.208406 
L 492.993175 254.425658 
L 494.083574 257.089342 
L 495.173973 258.844776 
L 496.264372 260.112084 
L 497.899971 261.614916 
L 504.987564 267.696311 
L 513.165557 274.991481 
L 515.891554 277.136616 
L 518.617552 278.980658 
L 520.798349 280.178742 
L 522.979147 281.085175 
L 524.614746 281.551558 
L 526.250344 281.820429 
L 527.340743 281.884622 
L 527.885943 281.392864 
L 528.431142 278.650255 
L 528.976342 273.487301 
L 529.521541 265.892942 
L 530.066741 255.863554 
L 531.15714 228.522695 
L 532.247539 191.586129 
L 533.337938 153.460467 
L 534.428337 126.481103 
L 534.973536 116.909344 
L 535.518736 109.524641 
L 536.063935 103.948499 
L 536.609135 99.809128 
L 537.154334 96.769698 
L 537.699534 94.54339 
L 538.244733 92.898138 
L 539.335132 90.678224 
L 540.425531 89.175058 
L 543.151529 86.150433 
L 546.422726 82.390828 
L 551.329521 76.31078 
L 555.691117 70.990009 
L 558.417114 67.972244 
L 560.597912 65.842072 
L 562.77871 64.036851 
L 564.414309 62.933001 
L 566.049907 62.069122 
L 567.685506 61.465218 
L 569.321104 61.138072 
L 570.411503 61.103723 
L 570.956703 63.152827 
L 571.501902 68.527954 
L 572.047102 77.245502 
L 572.592301 89.311502 
L 573.137501 104.721551 
L 574.227899 145.503872 
L 575.318298 190.572015 
L 575.863498 207.59099 
L 576.408697 220.843228 
L 576.953897 230.779582 
L 577.499096 237.988418 
L 578.044296 243.081939 
L 578.589495 246.620144 
L 579.134695 249.070665 
L 579.679894 250.796764 
L 580.770293 253.055466 
L 582.405892 255.37625 
L 585.131889 259.094345 
L 587.857887 263.246153 
L 591.129084 268.67584 
L 599.307076 282.510322 
L 602.033073 286.561815 
L 604.213871 289.391602 
L 605.84947 291.218395 
L 607.485068 292.756038 
L 609.120667 293.976008 
L 610.756265 294.853733 
L 611.846664 295.238588 
L 612.937063 295.457453 
L 613.482263 295.503402 
L 614.027462 295.116194 
L 614.572662 291.109732 
L 615.117861 282.768366 
L 615.663061 270.08673 
L 616.20826 253.073026 
L 617.298659 206.150122 
L 618.389058 157.316936 
L 618.934258 140.342009 
L 619.479457 127.910638 
L 620.024657 119.206841 
L 620.569856 113.329013 
L 621.115056 109.448495 
L 621.660255 106.89028 
L 622.205455 105.153214 
L 623.295854 102.888855 
L 628.747848 93.931167 
L 631.473846 88.630974 
L 635.290242 80.588768 
L 641.287437 67.834161 
L 644.013434 62.562301 
L 646.194232 58.800359 
L 647.829831 56.315285 
L 649.465429 54.164474 
L 651.101028 52.384866 
L 652.736626 51.008693 
L 653.827025 50.328927 
L 654.917424 49.847165 
L 656.007823 49.568815 
L 656.553022 49.507273 
L 657.098222 49.771515 
L 657.643421 54.112123 
L 658.188621 63.73284 
L 658.73382 78.634258 
L 659.27902 98.800365 
L 660.369419 154.160035 
L 660.914618 180.673657 
L 661.459818 201.017064 
L 662.005017 215.641874 
L 662.550217 225.577062 
L 663.095416 232.027661 
L 663.640616 236.102927 
L 664.185815 238.683481 
L 664.731015 240.3949 
L 665.821414 242.66787 
L 669.092611 248.446591 
L 671.273409 252.916111 
L 673.999406 259.155563 
L 677.270603 267.291542 
L 684.903396 286.534068 
L 687.629393 292.609306 
L 689.810191 296.870476 
L 691.44579 299.636018 
L 693.081388 301.981051 
L 694.716987 303.864851 
L 695.807386 304.847079 
L 696.352585 305.252727 
L 696.352585 305.252727 
" clip-path="url(#pfdee9d8d47)" style="fill: none; stroke: #0000ff; stroke-width: 1.5; stroke-linecap: square"/>
   </g>
   <g id="line2d_70">
    <path d="M 424.29804 169.147911 
L 425.388439 170.502609 
L 426.478838 172.121984 
L 427.569237 174.058452 
L 428.659636 176.373467 
L 429.750035 179.137111 
L 430.840434 182.424063 
L 431.930833 186.300553 
L 433.566431 193.256678 
L 439.018426 218.914266 
L 440.108825 222.485778 
L 441.199224 224.586631 
L 442.289623 226.587012 
L 443.925221 230.6427 
L 444.470421 231.354282 
L 445.01562 232.595068 
L 445.56082 235.828655 
L 446.651219 243.375197 
L 447.196418 244.920706 
L 447.741618 245.51944 
L 448.286817 245.616428 
L 448.832017 245.171412 
L 450.467615 245.357073 
L 451.012815 247.776078 
L 451.558014 251.136362 
L 452.103214 253.191412 
L 452.648413 253.511557 
L 453.193613 253.358684 
L 453.738812 252.487806 
L 454.829211 251.766173 
L 455.374411 251.64552 
L 456.46481 257.092727 
L 457.010009 258.179204 
L 457.555209 258.06131 
L 458.100408 257.349588 
L 458.645608 256.355558 
L 459.190807 255.986766 
L 459.736007 255.185651 
L 460.281206 256.485946 
L 460.826406 259.414649 
L 461.371605 261.183111 
L 461.916805 261.174169 
L 462.462004 260.662728 
L 463.007204 259.455907 
L 463.552403 258.827933 
L 464.097603 258.027402 
L 464.642802 258.198275 
L 465.733201 263.142334 
L 466.2784 263.44985 
L 466.8236 263.035994 
L 467.913999 260.936603 
L 469.004398 259.65143 
L 470.094797 264.397633 
L 470.639996 265.182301 
L 471.185196 264.822362 
L 473.365994 261.012645 
L 473.911193 262.455658 
L 474.456393 265.139993 
L 475.001592 266.485611 
L 475.546792 266.231929 
L 476.091991 265.48446 
L 476.637191 264.129247 
L 477.18239 263.410678 
L 477.72759 262.372463 
L 478.272789 262.807374 
L 478.817989 265.492998 
L 479.363188 267.376503 
L 479.908388 267.398558 
L 480.453587 266.839404 
L 480.998787 265.513208 
L 482.089186 263.701598 
L 482.634385 263.19019 
L 483.724784 267.842628 
L 484.269984 268.382483 
L 484.815183 267.934928 
L 485.905582 265.58716 
L 486.450782 264.880888 
L 486.995981 263.816223 
L 487.541181 265.313766 
L 488.08638 267.913373 
L 488.63158 269.146105 
L 489.176779 268.834052 
L 489.721979 268.035237 
L 490.267178 266.624609 
L 490.812378 265.841447 
L 491.357577 264.748902 
L 491.902777 265.046986 
L 492.447976 267.670491 
L 492.993175 269.570414 
L 493.538375 269.61747 
L 494.083574 269.053917 
L 495.173973 266.658869 
L 496.264372 265.058617 
L 497.354771 269.561877 
L 497.899971 270.291433 
L 498.44517 269.859207 
L 498.99037 268.84578 
L 499.535569 267.486093 
L 500.080769 266.75051 
L 500.625968 265.581528 
L 501.171168 266.530592 
L 501.716367 269.164653 
L 502.261567 270.716182 
L 502.806766 270.528413 
L 503.351966 269.855513 
L 503.897165 268.434934 
L 504.987564 266.512231 
L 505.532764 266.106863 
L 506.623163 270.697698 
L 507.168362 271.127225 
L 507.713562 270.641715 
L 509.89436 266.301596 
L 510.439559 267.621707 
L 510.984759 270.208277 
L 511.529958 271.537473 
L 512.075158 271.251697 
L 512.620357 270.502217 
L 513.165557 269.054375 
L 514.255956 267.109164 
L 514.801155 266.920864 
L 515.891554 271.499662 
L 516.436754 271.79416 
L 516.981953 271.283357 
L 518.072352 268.810785 
L 518.617552 268.040845 
L 519.162751 266.915592 
L 519.707951 268.366692 
L 520.25315 270.924643 
L 520.798349 272.171044 
L 521.343549 271.856271 
L 521.888748 271.080135 
L 522.433948 269.623774 
L 523.524347 267.663334 
L 524.069546 267.505738 
L 525.159945 272.074363 
L 525.705145 272.357224 
L 526.250344 271.843731 
L 527.340743 269.357867 
L 527.885943 268.58451 
L 528.431142 267.437389 
L 528.976342 268.825331 
L 529.521541 271.389051 
L 530.066741 272.680571 
L 530.61194 272.382599 
L 531.15714 271.628862 
L 531.702339 270.170542 
L 532.792738 268.202948 
L 533.337938 267.902506 
L 534.428337 272.472802 
L 534.973536 272.849367 
L 535.518736 272.352272 
L 537.699534 267.905673 
L 538.244733 269.052108 
L 538.789933 271.643617 
L 539.335132 273.088265 
L 539.880332 272.855258 
L 540.425531 272.161405 
L 540.970731 270.718203 
L 542.06113 268.746559 
L 542.606329 268.175637 
L 543.696728 272.709884 
L 544.241928 273.285303 
L 544.787127 272.820409 
L 545.332327 271.765107 
L 545.877526 270.368804 
L 546.422726 269.593323 
L 546.967925 268.373752 
L 547.513124 269.102716 
L 548.058324 271.710567 
L 548.603523 273.38847 
L 549.148723 273.289791 
L 549.693922 272.674108 
L 550.784321 270.180221 
L 551.87472 268.408316 
L 552.41992 270.367472 
L 552.965119 272.781606 
L 553.510319 273.662347 
L 554.055518 273.25276 
L 554.600718 272.343182 
L 555.145917 270.886335 
L 555.691117 270.055831 
L 556.236316 268.888723 
L 556.781516 269.050354 
L 557.326715 271.601979 
L 557.871915 273.55451 
L 558.417114 273.694417 
L 558.962314 273.154105 
L 560.052713 270.634264 
L 560.597912 269.838389 
L 561.143112 268.693701 
L 561.688311 270.134491 
L 562.233511 272.681132 
L 562.77871 273.955265 
L 563.32391 273.655825 
L 563.869109 272.910582 
L 564.414309 271.446806 
L 565.504708 269.464038 
L 566.049907 268.998594 
L 567.140306 273.549643 
L 567.685506 274.063271 
L 568.230705 273.590172 
L 568.775905 272.516758 
L 569.321104 271.119706 
L 569.866304 270.338998 
L 570.411503 269.109618 
L 570.956703 269.807088 
L 571.501902 272.409733 
L 572.047102 274.113252 
L 572.592301 274.038888 
L 573.137501 273.437218 
L 574.227899 270.920972 
L 575.318298 269.073746 
L 575.863498 270.887097 
L 576.408697 273.34721 
L 576.953897 274.361659 
L 577.499096 273.985076 
L 578.044296 273.143425 
L 578.589495 271.67074 
L 579.134695 270.787501 
L 579.679894 269.67456 
L 580.225094 269.512301 
L 581.315493 274.072139 
L 581.860692 274.399678 
L 582.405892 273.897964 
L 584.58669 269.382814 
L 585.131889 270.352325 
L 585.677089 272.94887 
L 586.222288 274.515765 
L 586.767488 274.356337 
L 587.312687 273.718291 
L 587.857887 272.308978 
L 588.948286 270.314059 
L 589.493485 269.421504 
L 590.038685 271.373909 
L 590.583884 273.788747 
L 591.129084 274.695772 
L 591.674283 274.295531 
L 592.219483 273.413985 
L 592.764682 271.943867 
L 593.309882 271.081444 
L 593.855081 269.940095 
L 594.400281 269.881406 
L 595.49068 274.431672 
L 596.035879 274.709785 
L 596.581079 274.200997 
L 598.761877 269.673442 
L 599.307076 270.679503 
L 599.852276 273.273073 
L 600.397475 274.825998 
L 600.942674 274.661186 
L 601.487874 274.022582 
L 602.033073 272.612739 
L 603.123472 270.615733 
L 603.668672 269.703841 
L 604.213871 271.629634 
L 604.759071 274.054052 
L 605.30427 274.991057 
L 605.84947 274.599034 
L 606.394669 273.73548 
L 606.939869 272.261551 
L 607.485068 271.383457 
L 608.030268 270.259047 
L 608.575467 270.104286 
L 609.665866 274.6659 
L 610.211066 275.00716 
L 610.756265 274.510613 
L 612.937063 269.979738 
L 613.482263 270.813178 
L 614.027462 273.412356 
L 614.572662 275.063112 
L 615.117861 274.961274 
L 615.663061 274.354784 
L 616.75346 271.82509 
L 617.843859 269.939873 
L 618.389058 271.682925 
L 618.934258 274.162619 
L 619.479457 275.252825 
L 620.024657 274.901446 
L 620.569856 274.105438 
L 621.115056 272.629633 
L 622.205455 270.635789 
L 622.750654 270.220017 
L 623.841053 274.778166 
L 624.386253 275.293892 
L 624.931452 274.826453 
L 625.476652 273.775573 
L 626.021851 272.355571 
L 626.567051 271.559431 
L 627.11225 270.328971 
L 627.65745 270.794942 
L 628.202649 273.37991 
L 628.747848 275.215791 
L 629.293048 275.260618 
L 629.838247 274.705486 
L 630.928646 272.161402 
L 631.473846 271.356097 
L 632.019045 270.185196 
L 632.564245 271.560451 
L 633.109444 274.115057 
L 633.654644 275.464974 
L 634.199843 275.205537 
L 634.745043 274.509474 
L 635.290242 273.060612 
L 636.380641 271.070856 
L 636.925841 270.300752 
L 638.01624 274.750483 
L 638.561439 275.559186 
L 639.106639 275.143433 
L 639.651838 274.23476 
L 640.197038 272.765433 
L 640.742237 271.907693 
L 641.287437 270.754804 
L 641.832636 270.692816 
L 642.923035 275.249936 
L 643.468235 275.557053 
L 644.013434 275.058169 
L 646.194232 270.512196 
L 646.739432 271.306606 
L 647.284631 273.905047 
L 647.829831 275.587781 
L 648.37503 275.513569 
L 648.92023 274.922569 
L 650.010629 272.380623 
L 650.555828 271.543127 
L 651.101028 270.446606 
L 651.646227 272.043785 
L 652.191427 274.559002 
L 652.736626 275.769884 
L 653.281826 275.460039 
L 653.827025 274.719347 
L 654.372225 273.253044 
L 655.462623 271.263834 
L 656.007823 270.614669 
L 657.098222 275.119977 
L 657.643421 275.831752 
L 658.188621 275.399812 
L 658.73382 274.452782 
L 659.27902 272.991449 
L 659.824219 272.151197 
L 660.369419 270.974604 
L 660.914618 271.013484 
L 662.005017 275.559216 
L 662.550217 275.821484 
L 663.095416 275.316789 
L 665.276214 270.760889 
L 665.821414 271.591295 
L 666.366613 274.18929 
L 666.911813 275.860164 
L 667.457012 275.780598 
L 668.002212 275.189883 
L 669.092611 272.645121 
L 669.63781 271.809773 
L 670.18301 270.701088 
L 670.728209 272.268689 
L 671.273409 274.790764 
L 671.818608 276.029968 
L 672.363808 275.73226 
L 672.909007 275.006538 
L 673.454207 273.545108 
L 674.544606 271.556693 
L 675.089805 270.837709 
L 676.180204 275.314642 
L 676.725404 276.096689 
L 677.270603 275.679516 
L 677.815803 274.769796 
L 678.361002 273.299151 
L 678.906202 272.436243 
L 679.451401 271.288819 
L 679.996601 271.170401 
L 681.087 275.73905 
L 681.632199 276.097729 
L 682.177398 275.61113 
L 682.722598 274.49699 
L 683.267797 273.104721 
L 683.812997 272.317235 
L 684.358196 271.069782 
L 684.903396 271.66325 
L 685.448595 274.255699 
L 685.993795 276.04931 
L 686.538994 276.067037 
L 687.084194 275.510979 
L 688.174593 272.959179 
L 688.719792 272.155918 
L 689.264992 270.962663 
L 689.810191 272.258177 
L 690.355391 274.825039 
L 690.90059 276.24668 
L 691.44579 276.026618 
L 691.990989 275.367153 
L 692.536189 273.940993 
L 693.626588 271.946383 
L 694.171787 271.008783 
L 694.716987 272.892293 
L 695.262186 275.335771 
L 695.807386 276.348281 
L 696.352585 275.984117 
L 696.352585 275.984117 
" clip-path="url(#pfdee9d8d47)" style="fill: none; stroke-dasharray: 5.55,2.4; stroke-dashoffset: 0; stroke: #ff0000; stroke-width: 1.5"/>
   </g>
   <g id="patch_9">
    <path d="M 410.695313 318.04 
L 410.695313 36.72 
" style="fill: none; stroke: #000000; stroke-width: 0.8; stroke-linejoin: miter; stroke-linecap: square"/>
   </g>
   <g id="patch_10">
    <path d="M 709.955312 318.04 
L 709.955312 36.72 
" style="fill: none; stroke: #000000; stroke-width: 0.8; stroke-linejoin: miter; stroke-linecap: square"/>
   </g>
   <g id="patch_11">
    <path d="M 410.695312 318.04 
L 709.955312 318.04 
" style="fill: none; stroke: #000000; stroke-width: 0.8; stroke-linejoin: miter; stroke-linecap: square"/>
   </g>
   <g id="patch_12">
    <path d="M 410.695312 36.72 
L 709.955312 36.72 
" style="fill: none; stroke: #000000; stroke-width: 0.8; stroke-linejoin: miter; stroke-linecap: square"/>
   </g>
   <g id="legend_2">
    <g id="patch_13">
     <path d="M 417.695313 313.04 
L 476.2875 313.04 
Q 478.2875 313.04 478.2875 311.04 
L 478.2875 282.68375 
Q 478.2875 280.68375 476.2875 280.68375 
L 417.695313 280.68375 
Q 415.695313 280.68375 415.695313 282.68375 
L 415.695313 311.04 
Q 415.695313 313.04 417.695313 313.04 
z
" style="fill: #ffffff; opacity: 0.8; stroke: #cccccc; stroke-linejoin: miter"/>
    </g>
    <g id="line2d_71">
     <path d="M 419.695313 288.782187 
L 429.695313 288.782187 
L 439.695313 288.782187 
" style="fill: none; stroke: #0000ff; stroke-width: 1.5; stroke-linecap: square"/>
    </g>
    <g id="text_39">
     <!-- data -->
     <g transform="translate(447.695313 292.282187) scale(0.1 -0.1)">
      <use xlink:href="#DejaVuSans-64"/>
      <use xlink:href="#DejaVuSans-61" x="63.476562"/>
      <use xlink:href="#DejaVuSans-74" x="124.755859"/>
      <use xlink:href="#DejaVuSans-61" x="163.964844"/>
     </g>
    </g>
    <g id="line2d_72">
     <path d="M 419.695313 303.460312 
L 429.695313 303.460312 
L 439.695313 303.460312 
" style="fill: none; stroke-dasharray: 5.55,2.4; stroke-dashoffset: 0; stroke: #ff0000; stroke-width: 1.5"/>
    </g>
    <g id="text_40">
     <!-- sindy -->
     <g transform="translate(447.695313 306.960312) scale(0.1 -0.1)">
      <use xlink:href="#DejaVuSans-73"/>
      <use xlink:href="#DejaVuSans-69" x="52.099609"/>
      <use xlink:href="#DejaVuSans-6e" x="79.882812"/>
      <use xlink:href="#DejaVuSans-64" x="143.261719"/>
      <use xlink:href="#DejaVuSans-79" x="206.738281"/>
     </g>
    </g>
   </g>
  </g>
  <g id="axes_3">
   <g id="patch_14">
    <path d="M 766.045313 318.04 
L 1065.305313 318.04 
L 1065.305313 36.72 
L 766.045313 36.72 
z
" style="fill: #ffffff"/>
   </g>
   <g id="matplotlib.axis_5">
    <g id="xtick_19">
     <g id="line2d_73">
      <path d="M 771.915953 318.04 
L 771.915953 36.72 
" clip-path="url(#p9d94ab82c9)" style="fill: none; stroke: #b0b0b0; stroke-width: 0.8; stroke-linecap: square"/>
     </g>
     <g id="line2d_74">
      <g>
       <use xlink:href="#m46c30b193c" x="771.915953" y="318.04" style="stroke: #000000; stroke-width: 0.8"/>
      </g>
     </g>
     <g id="text_41">
      <!-- −350 -->
      <g transform="translate(758.182359 332.638437) scale(0.1 -0.1)">
       <use xlink:href="#DejaVuSans-2212"/>
       <use xlink:href="#DejaVuSans-33" x="83.789062"/>
       <use xlink:href="#DejaVuSans-35" x="147.412109"/>
       <use xlink:href="#DejaVuSans-30" x="211.035156"/>
      </g>
     </g>
    </g>
    <g id="xtick_20">
     <g id="line2d_75">
      <path d="M 808.924731 318.04 
L 808.924731 36.72 
" clip-path="url(#p9d94ab82c9)" style="fill: none; stroke: #b0b0b0; stroke-width: 0.8; stroke-linecap: square"/>
     </g>
     <g id="line2d_76">
      <g>
       <use xlink:href="#m46c30b193c" x="808.924731" y="318.04" style="stroke: #000000; stroke-width: 0.8"/>
      </g>
     </g>
     <g id="text_42">
      <!-- −300 -->
      <g transform="translate(795.191137 332.638437) scale(0.1 -0.1)">
       <use xlink:href="#DejaVuSans-2212"/>
       <use xlink:href="#DejaVuSans-33" x="83.789062"/>
       <use xlink:href="#DejaVuSans-30" x="147.412109"/>
       <use xlink:href="#DejaVuSans-30" x="211.035156"/>
      </g>
     </g>
    </g>
    <g id="xtick_21">
     <g id="line2d_77">
      <path d="M 845.933509 318.04 
L 845.933509 36.72 
" clip-path="url(#p9d94ab82c9)" style="fill: none; stroke: #b0b0b0; stroke-width: 0.8; stroke-linecap: square"/>
     </g>
     <g id="line2d_78">
      <g>
       <use xlink:href="#m46c30b193c" x="845.933509" y="318.04" style="stroke: #000000; stroke-width: 0.8"/>
      </g>
     </g>
     <g id="text_43">
      <!-- −250 -->
      <g transform="translate(832.199915 332.638437) scale(0.1 -0.1)">
       <use xlink:href="#DejaVuSans-2212"/>
       <use xlink:href="#DejaVuSans-32" x="83.789062"/>
       <use xlink:href="#DejaVuSans-35" x="147.412109"/>
       <use xlink:href="#DejaVuSans-30" x="211.035156"/>
      </g>
     </g>
    </g>
    <g id="xtick_22">
     <g id="line2d_79">
      <path d="M 882.942287 318.04 
L 882.942287 36.72 
" clip-path="url(#p9d94ab82c9)" style="fill: none; stroke: #b0b0b0; stroke-width: 0.8; stroke-linecap: square"/>
     </g>
     <g id="line2d_80">
      <g>
       <use xlink:href="#m46c30b193c" x="882.942287" y="318.04" style="stroke: #000000; stroke-width: 0.8"/>
      </g>
     </g>
     <g id="text_44">
      <!-- −200 -->
      <g transform="translate(869.208694 332.638437) scale(0.1 -0.1)">
       <use xlink:href="#DejaVuSans-2212"/>
       <use xlink:href="#DejaVuSans-32" x="83.789062"/>
       <use xlink:href="#DejaVuSans-30" x="147.412109"/>
       <use xlink:href="#DejaVuSans-30" x="211.035156"/>
      </g>
     </g>
    </g>
    <g id="xtick_23">
     <g id="line2d_81">
      <path d="M 919.951065 318.04 
L 919.951065 36.72 
" clip-path="url(#p9d94ab82c9)" style="fill: none; stroke: #b0b0b0; stroke-width: 0.8; stroke-linecap: square"/>
     </g>
     <g id="line2d_82">
      <g>
       <use xlink:href="#m46c30b193c" x="919.951065" y="318.04" style="stroke: #000000; stroke-width: 0.8"/>
      </g>
     </g>
     <g id="text_45">
      <!-- −150 -->
      <g transform="translate(906.217472 332.638437) scale(0.1 -0.1)">
       <use xlink:href="#DejaVuSans-2212"/>
       <use xlink:href="#DejaVuSans-31" x="83.789062"/>
       <use xlink:href="#DejaVuSans-35" x="147.412109"/>
       <use xlink:href="#DejaVuSans-30" x="211.035156"/>
      </g>
     </g>
    </g>
    <g id="xtick_24">
     <g id="line2d_83">
      <path d="M 956.959844 318.04 
L 956.959844 36.72 
" clip-path="url(#p9d94ab82c9)" style="fill: none; stroke: #b0b0b0; stroke-width: 0.8; stroke-linecap: square"/>
     </g>
     <g id="line2d_84">
      <g>
       <use xlink:href="#m46c30b193c" x="956.959844" y="318.04" style="stroke: #000000; stroke-width: 0.8"/>
      </g>
     </g>
     <g id="text_46">
      <!-- −100 -->
      <g transform="translate(943.22625 332.638437) scale(0.1 -0.1)">
       <use xlink:href="#DejaVuSans-2212"/>
       <use xlink:href="#DejaVuSans-31" x="83.789062"/>
       <use xlink:href="#DejaVuSans-30" x="147.412109"/>
       <use xlink:href="#DejaVuSans-30" x="211.035156"/>
      </g>
     </g>
    </g>
    <g id="xtick_25">
     <g id="line2d_85">
      <path d="M 993.968622 318.04 
L 993.968622 36.72 
" clip-path="url(#p9d94ab82c9)" style="fill: none; stroke: #b0b0b0; stroke-width: 0.8; stroke-linecap: square"/>
     </g>
     <g id="line2d_86">
      <g>
       <use xlink:href="#m46c30b193c" x="993.968622" y="318.04" style="stroke: #000000; stroke-width: 0.8"/>
      </g>
     </g>
     <g id="text_47">
      <!-- −50 -->
      <g transform="translate(983.416278 332.638437) scale(0.1 -0.1)">
       <use xlink:href="#DejaVuSans-2212"/>
       <use xlink:href="#DejaVuSans-35" x="83.789062"/>
       <use xlink:href="#DejaVuSans-30" x="147.412109"/>
      </g>
     </g>
    </g>
    <g id="xtick_26">
     <g id="line2d_87">
      <path d="M 1030.9774 318.04 
L 1030.9774 36.72 
" clip-path="url(#p9d94ab82c9)" style="fill: none; stroke: #b0b0b0; stroke-width: 0.8; stroke-linecap: square"/>
     </g>
     <g id="line2d_88">
      <g>
       <use xlink:href="#m46c30b193c" x="1030.9774" y="318.04" style="stroke: #000000; stroke-width: 0.8"/>
      </g>
     </g>
     <g id="text_48">
      <!-- 0 -->
      <g transform="translate(1027.79615 332.638437) scale(0.1 -0.1)">
       <use xlink:href="#DejaVuSans-30"/>
      </g>
     </g>
    </g>
    <g id="text_49">
     <!-- x(t) -->
     <g transform="translate(906.854219 346.316562) scale(0.1 -0.1)">
      <use xlink:href="#DejaVuSans-78"/>
      <use xlink:href="#DejaVuSans-28" x="59.179688"/>
      <use xlink:href="#DejaVuSans-74" x="98.193359"/>
      <use xlink:href="#DejaVuSans-29" x="137.402344"/>
     </g>
    </g>
   </g>
   <g id="matplotlib.axis_6">
    <g id="ytick_15">
     <g id="line2d_89">
      <path d="M 766.045313 310.46624 
L 1065.305313 310.46624 
" clip-path="url(#p9d94ab82c9)" style="fill: none; stroke: #b0b0b0; stroke-width: 0.8; stroke-linecap: square"/>
     </g>
     <g id="line2d_90">
      <g>
       <use xlink:href="#m3fea0e588d" x="766.045313" y="310.46624" style="stroke: #000000; stroke-width: 0.8"/>
      </g>
     </g>
     <g id="text_50">
      <!-- −1.5 -->
      <g transform="translate(734.7625 314.265458) scale(0.1 -0.1)">
       <use xlink:href="#DejaVuSans-2212"/>
       <use xlink:href="#DejaVuSans-31" x="83.789062"/>
       <use xlink:href="#DejaVuSans-2e" x="147.412109"/>
       <use xlink:href="#DejaVuSans-35" x="179.199219"/>
      </g>
     </g>
    </g>
    <g id="ytick_16">
     <g id="line2d_91">
      <path d="M 766.045313 263.36013 
L 1065.305313 263.36013 
" clip-path="url(#p9d94ab82c9)" style="fill: none; stroke: #b0b0b0; stroke-width: 0.8; stroke-linecap: square"/>
     </g>
     <g id="line2d_92">
      <g>
       <use xlink:href="#m3fea0e588d" x="766.045313" y="263.36013" style="stroke: #000000; stroke-width: 0.8"/>
      </g>
     </g>
     <g id="text_51">
      <!-- −1.0 -->
      <g transform="translate(734.7625 267.159349) scale(0.1 -0.1)">
       <use xlink:href="#DejaVuSans-2212"/>
       <use xlink:href="#DejaVuSans-31" x="83.789062"/>
       <use xlink:href="#DejaVuSans-2e" x="147.412109"/>
       <use xlink:href="#DejaVuSans-30" x="179.199219"/>
      </g>
     </g>
    </g>
    <g id="ytick_17">
     <g id="line2d_93">
      <path d="M 766.045313 216.25402 
L 1065.305313 216.25402 
" clip-path="url(#p9d94ab82c9)" style="fill: none; stroke: #b0b0b0; stroke-width: 0.8; stroke-linecap: square"/>
     </g>
     <g id="line2d_94">
      <g>
       <use xlink:href="#m3fea0e588d" x="766.045313" y="216.25402" style="stroke: #000000; stroke-width: 0.8"/>
      </g>
     </g>
     <g id="text_52">
      <!-- −0.5 -->
      <g transform="translate(734.7625 220.053239) scale(0.1 -0.1)">
       <use xlink:href="#DejaVuSans-2212"/>
       <use xlink:href="#DejaVuSans-30" x="83.789062"/>
       <use xlink:href="#DejaVuSans-2e" x="147.412109"/>
       <use xlink:href="#DejaVuSans-35" x="179.199219"/>
      </g>
     </g>
    </g>
    <g id="ytick_18">
     <g id="line2d_95">
      <path d="M 766.045313 169.147911 
L 1065.305313 169.147911 
" clip-path="url(#p9d94ab82c9)" style="fill: none; stroke: #b0b0b0; stroke-width: 0.8; stroke-linecap: square"/>
     </g>
     <g id="line2d_96">
      <g>
       <use xlink:href="#m3fea0e588d" x="766.045313" y="169.147911" style="stroke: #000000; stroke-width: 0.8"/>
      </g>
     </g>
     <g id="text_53">
      <!-- 0.0 -->
      <g transform="translate(743.142187 172.947129) scale(0.1 -0.1)">
       <use xlink:href="#DejaVuSans-30"/>
       <use xlink:href="#DejaVuSans-2e" x="63.623047"/>
       <use xlink:href="#DejaVuSans-30" x="95.410156"/>
      </g>
     </g>
    </g>
    <g id="ytick_19">
     <g id="line2d_97">
      <path d="M 766.045313 122.041801 
L 1065.305313 122.041801 
" clip-path="url(#p9d94ab82c9)" style="fill: none; stroke: #b0b0b0; stroke-width: 0.8; stroke-linecap: square"/>
     </g>
     <g id="line2d_98">
      <g>
       <use xlink:href="#m3fea0e588d" x="766.045313" y="122.041801" style="stroke: #000000; stroke-width: 0.8"/>
      </g>
     </g>
     <g id="text_54">
      <!-- 0.5 -->
      <g transform="translate(743.142187 125.84102) scale(0.1 -0.1)">
       <use xlink:href="#DejaVuSans-30"/>
       <use xlink:href="#DejaVuSans-2e" x="63.623047"/>
       <use xlink:href="#DejaVuSans-35" x="95.410156"/>
      </g>
     </g>
    </g>
    <g id="ytick_20">
     <g id="line2d_99">
      <path d="M 766.045313 74.935691 
L 1065.305313 74.935691 
" clip-path="url(#p9d94ab82c9)" style="fill: none; stroke: #b0b0b0; stroke-width: 0.8; stroke-linecap: square"/>
     </g>
     <g id="line2d_100">
      <g>
       <use xlink:href="#m3fea0e588d" x="766.045313" y="74.935691" style="stroke: #000000; stroke-width: 0.8"/>
      </g>
     </g>
     <g id="text_55">
      <!-- 1.0 -->
      <g transform="translate(743.142187 78.73491) scale(0.1 -0.1)">
       <use xlink:href="#DejaVuSans-31"/>
       <use xlink:href="#DejaVuSans-2e" x="63.623047"/>
       <use xlink:href="#DejaVuSans-30" x="95.410156"/>
      </g>
     </g>
    </g>
    <g id="text_56">
     <!-- fr(t) -->
     <g transform="translate(728.682813 187.057344) rotate(-90) scale(0.1 -0.1)">
      <use xlink:href="#DejaVuSans-66"/>
      <use xlink:href="#DejaVuSans-72" x="35.205078"/>
      <use xlink:href="#DejaVuSans-28" x="76.318359"/>
      <use xlink:href="#DejaVuSans-74" x="115.332031"/>
      <use xlink:href="#DejaVuSans-29" x="154.541016"/>
     </g>
    </g>
   </g>
   <g id="line2d_101">
    <path d="M 1030.9774 169.147911 
L 1031.397771 128.198435 
L 1031.821908 104.603939 
L 1032.265739 90.59918 
L 1032.717639 82.54794 
L 1033.237489 77.403051 
L 1033.694198 74.794832 
L 1034.300956 72.693785 
L 1034.925048 71.30338 
L 1035.883285 69.756803 
L 1037.133195 68.065291 
L 1036.046798 197.555808 
L 1035.556868 226.457615 
L 1035.180859 238.937651 
L 1034.765951 247.24549 
L 1034.312766 252.561511 
L 1033.822089 255.905524 
L 1033.294922 258.049664 
L 1032.73253 259.520495 
L 1031.826377 261.142337 
L 1030.166386 263.429585 
L 1021.099087 274.991481 
L 1015.683511 281.884622 
L 1015.984654 243.403006 
L 1016.755457 153.460467 
L 1017.190301 126.481103 
L 1017.693924 109.524641 
L 1018.263977 99.809128 
L 1018.897984 94.54339 
L 1019.59321 91.654304 
L 1020.346557 89.873984 
L 1021.577761 87.9301 
L 1024.351642 84.313394 
L 1042.593109 61.092919 
L 1042.602933 61.103723 
L 1041.516798 190.572015 
L 1040.9938 220.843228 
L 1040.373569 237.988418 
L 1040.027838 243.081939 
L 1039.658837 246.620144 
L 1039.266946 249.070665 
L 1038.852575 250.796764 
L 1037.958189 253.055466 
L 1036.979636 254.650944 
L 1034.78888 257.560026 
L 1004.983956 295.503402 
L 1005.013 291.109732 
L 1005.914804 179.330372 
L 1006.481281 140.342009 
L 1006.812559 127.910638 
L 1007.175287 119.206841 
L 1007.56903 113.329013 
L 1007.993333 109.448495 
L 1008.447714 106.89028 
L 1008.931656 105.153214 
L 1009.444599 103.89302 
L 1010.555021 102.007673 
L 1013.094048 98.644777 
L 1051.695338 49.507273 
L 1051.702585 49.771515 
L 1050.597111 180.673657 
L 1050.276935 201.017064 
L 1049.917581 215.641874 
L 1049.519557 225.577062 
L 1049.083378 232.027661 
L 1048.609581 236.102927 
L 1048.098734 238.683481 
L 1047.551452 240.3949 
L 1046.9684 241.642385 
L 1045.697939 243.605391 
L 1041.953625 248.446591 
L 997.324427 305.252727 
L 997.324427 305.252727 
" clip-path="url(#p9d94ab82c9)" style="fill: none; stroke: #0000ff; stroke-width: 1.5; stroke-linecap: square"/>
   </g>
   <g id="line2d_102">
    <path d="M 1030.9774 169.147911 
L 1031.14764 203.959576 
L 1030.887701 214.293496 
L 1030.499262 220.899199 
L 1030.037925 224.586631 
L 1029.192507 230.6427 
L 1028.865494 231.354282 
L 1028.514827 232.595068 
L 1027.573829 240.03011 
L 1027.01239 243.375197 
L 1026.507689 244.920706 
L 1026.040385 245.51944 
L 1025.596698 245.616428 
L 1025.21067 245.171412 
L 1024.416196 245.399418 
L 1023.915999 245.357073 
L 1022.108146 253.191412 
L 1021.565595 253.511557 
L 1021.057454 253.358684 
L 1020.605041 252.487806 
L 1019.700554 251.766173 
L 1019.151793 251.64552 
L 1017.851934 257.092727 
L 1017.251916 258.179204 
L 1016.708424 258.06131 
L 1016.200647 257.349588 
L 1015.759815 256.355558 
L 1015.301374 255.986766 
L 1014.745247 255.185651 
L 1014.161412 256.485946 
L 1013.46626 259.414649 
L 1012.825146 261.183111 
L 1012.260092 261.174169 
L 1011.731721 260.662728 
L 1011.261285 259.455907 
L 1010.280934 258.027402 
L 1009.702304 258.198275 
L 1009.031865 260.934851 
L 1008.357639 263.142334 
L 1007.774862 263.44985 
L 1007.237119 263.035994 
L 1006.304156 260.936603 
L 1005.217294 259.65143 
L 1003.883329 264.397633 
L 1003.281894 265.182301 
L 1002.736765 264.822362 
L 1002.226723 263.842092 
L 1001.779977 262.640406 
L 1001.303337 262.020723 
L 1000.730352 261.012645 
L 1000.124341 262.455658 
L 999.420116 265.139993 
L 998.795289 266.485611 
L 998.240737 266.231929 
L 997.719602 265.48446 
L 997.257637 264.129247 
L 996.252543 262.372463 
L 995.664558 262.807374 
L 994.977438 265.492998 
L 994.3227 267.376503 
L 993.754673 267.398558 
L 993.22625 266.839404 
L 992.30623 264.554668 
L 991.78636 263.701598 
L 991.204954 263.19019 
L 989.869723 267.842628 
L 989.282563 268.382483 
L 988.747056 267.934928 
L 987.326072 264.880888 
L 986.75214 263.816223 
L 986.142854 265.313766 
L 985.442391 267.913373 
L 984.827675 269.146105 
L 984.281239 268.834052 
L 983.766737 268.035237 
L 983.309435 266.624609 
L 982.31257 264.748902 
L 981.726773 265.046986 
L 981.045323 267.670491 
L 980.393001 269.570414 
L 979.82931 269.61747 
L 979.305828 269.053917 
L 978.39134 266.658869 
L 977.306436 265.058617 
L 975.983002 269.561877 
L 975.393751 270.291433 
L 974.860521 269.859207 
L 974.358691 268.84578 
L 973.916564 267.486093 
L 973.45577 266.75051 
L 972.891947 265.581528 
L 972.297883 266.530592 
L 971.604708 269.164653 
L 970.977784 270.716182 
L 970.428494 270.528413 
L 969.913452 269.855513 
L 969.44741 268.434934 
L 968.489702 266.512231 
L 967.910959 266.106863 
L 966.58554 270.697698 
L 966.011311 271.127225 
L 965.486125 270.641715 
L 963.52034 266.301596 
L 962.918832 267.621707 
L 962.224868 270.208277 
L 961.612961 271.537473 
L 961.072146 271.251697 
L 960.563009 270.502217 
L 960.105916 269.054375 
L 959.139433 267.109164 
L 958.56092 266.920864 
L 957.238119 271.499662 
L 956.671937 271.79416 
L 956.151559 271.283357 
L 954.760409 268.040845 
L 954.191535 266.915592 
L 953.587421 268.366692 
L 952.895415 270.924643 
L 952.290197 272.171044 
L 951.753712 271.856271 
L 951.248032 271.080135 
L 950.794822 269.623774 
L 949.829202 267.663334 
L 949.251814 267.505738 
L 947.932507 272.074363 
L 947.369182 272.357224 
L 946.851268 271.843731 
L 945.466989 268.58451 
L 944.900088 267.437389 
L 944.299042 268.825331 
L 943.608778 271.389051 
L 943.003451 272.680571 
L 942.46803 272.382599 
L 941.963581 271.628862 
L 941.510006 270.170542 
L 940.554119 268.202948 
L 939.978787 267.902506 
L 938.663166 272.472802 
L 938.098264 272.849367 
L 937.580836 272.352272 
L 937.095486 271.194683 
L 936.666684 269.868346 
L 936.203925 269.101191 
L 935.641465 267.905673 
L 935.047926 269.052108 
L 934.360107 271.643617 
L 933.748454 273.088265 
L 933.211092 272.855258 
L 932.70614 272.161405 
L 931.82302 269.726587 
L 931.309718 268.746559 
L 930.736887 268.175637 
L 929.426576 272.709884 
L 928.855728 273.285303 
L 928.336826 272.820409 
L 927.847708 271.765107 
L 927.415796 270.368804 
L 926.966096 269.593323 
L 926.412008 268.373752 
L 925.827834 269.102716 
L 925.146515 271.710567 
L 924.522352 273.38847 
L 923.97988 273.289791 
L 923.473184 272.674108 
L 922.586212 270.180221 
L 921.521785 268.408316 
L 920.220916 272.781606 
L 919.639219 273.662347 
L 919.116537 273.25276 
L 918.622488 272.343182 
L 918.183641 270.886335 
L 917.208745 268.888723 
L 916.632669 269.050354 
L 915.966 271.601979 
L 915.32353 273.55451 
L 914.772287 273.694417 
L 914.262689 273.154105 
L 913.365902 270.634264 
L 912.330476 268.693701 
L 911.731297 270.134491 
L 911.045882 272.681132 
L 910.447337 273.955265 
L 909.917905 273.655825 
L 909.41886 272.910582 
L 908.968934 271.446806 
L 908.02857 269.464038 
L 907.457583 268.998594 
L 906.151686 273.549643 
L 905.587103 274.063271 
L 905.072806 273.590172 
L 904.588051 272.516758 
L 904.159849 271.119706 
L 903.712819 270.338998 
L 903.161363 269.109618 
L 902.579924 269.807088 
L 901.902001 272.409733 
L 901.279603 274.113252 
L 900.739617 274.038888 
L 900.235782 273.437218 
L 899.352936 270.920972 
L 898.300226 269.073746 
L 897.688623 270.887097 
L 897.008073 273.34721 
L 896.423954 274.361659 
L 895.901925 273.985076 
L 895.408455 273.143425 
L 894.967636 271.67074 
L 894.012916 269.67456 
L 893.441432 269.512301 
L 892.136704 274.072139 
L 891.581292 274.399678 
L 891.07175 273.897964 
L 890.593293 272.737318 
L 890.170299 271.388962 
L 889.716381 270.611898 
L 889.160856 269.382814 
L 888.57561 270.352325 
L 887.895116 272.94887 
L 887.283256 274.515765 
L 886.749145 274.356337 
L 886.248815 273.718291 
L 885.373162 271.213434 
L 884.314346 269.421504 
L 883.021104 273.788747 
L 882.44346 274.695772 
L 881.925123 274.295531 
L 881.434852 273.413985 
L 880.998124 271.943867 
L 880.03992 269.940095 
L 879.468807 269.881406 
L 878.166563 274.431672 
L 877.614759 274.709785 
L 877.10756 274.200997 
L 875.201409 269.673442 
L 874.616436 270.679503 
L 873.936827 273.273073 
L 873.327397 274.825998 
L 872.795159 274.661186 
L 872.296432 274.022582 
L 871.423538 271.512677 
L 870.367895 269.703841 
L 869.077581 274.054052 
L 868.500181 274.991057 
L 867.982707 274.599034 
L 867.493213 273.73548 
L 867.056489 272.261551 
L 866.105039 270.259047 
L 865.535568 270.104286 
L 864.235615 274.6659 
L 863.682828 275.00716 
L 863.176015 274.510613 
L 862.699515 273.367022 
L 862.278314 272.000657 
L 861.829952 271.22059 
L 861.27864 269.979738 
L 860.69801 270.813178 
L 860.021751 273.412356 
L 859.407569 275.063112 
L 858.873712 274.961274 
L 858.374927 274.354784 
L 857.500841 271.82509 
L 856.456852 269.939873 
L 855.851233 271.682925 
L 855.173384 274.162619 
L 854.590461 275.252825 
L 854.071223 274.901446 
L 853.580516 274.105438 
L 853.140008 272.629633 
L 852.204449 270.635789 
L 851.637382 270.220017 
L 850.340681 274.778166 
L 849.782429 275.293892 
L 849.274072 274.826453 
L 848.794193 273.775573 
L 848.369875 272.355571 
L 847.93212 271.559431 
L 847.38927 270.328971 
L 846.815172 270.794942 
L 846.146957 273.37991 
L 845.521175 275.215791 
L 844.98212 275.260618 
L 844.48181 274.705486 
L 843.60178 272.161402 
L 842.577969 270.185196 
L 841.985883 271.560451 
L 841.306783 274.115057 
L 840.712147 275.464974 
L 840.188225 275.205537 
L 839.694997 274.509474 
L 838.83224 272.025732 
L 838.334564 271.070856 
L 837.770207 270.300752 
L 836.480566 274.750483 
L 835.911754 275.559186 
L 835.399538 275.143433 
L 834.914772 274.23476 
L 834.483489 272.765433 
L 833.530707 270.754804 
L 832.962614 270.692816 
L 831.667213 275.249936 
L 831.118781 275.557053 
L 830.615317 275.058169 
L 830.142044 273.906836 
L 829.723567 272.540578 
L 829.277835 271.758724 
L 828.729015 270.512196 
L 828.151052 271.306606 
L 827.477777 273.905047 
L 826.864381 275.587781 
L 826.332183 275.513569 
L 825.835559 274.922569 
L 824.964424 272.380623 
L 823.9312 270.446606 
L 823.333054 272.043785 
L 822.655984 274.559002 
L 822.07012 275.769884 
L 821.550915 275.460039 
L 821.060935 274.719347 
L 820.203397 272.262505 
L 819.700058 271.263834 
L 819.136062 270.614669 
L 817.846415 275.119977 
L 817.283152 275.831752 
L 816.774092 275.399812 
L 816.292355 274.452782 
L 815.864667 272.991449 
L 814.908454 270.974604 
L 814.340621 271.013484 
L 813.047718 275.559216 
L 812.502572 275.821484 
L 812.001234 275.316789 
L 811.530417 274.14687 
L 811.113907 272.79087 
L 810.667891 272.008906 
L 810.119314 270.760889 
L 809.54173 271.591295 
L 808.869127 274.18929 
L 808.258004 275.860164 
L 807.727551 275.780598 
L 807.232415 275.189883 
L 806.36386 272.645121 
L 805.333772 270.701088 
L 804.737678 272.268689 
L 804.061579 274.790764 
L 803.475769 276.029968 
L 802.957272 275.73226 
L 802.468169 275.006538 
L 801.612492 272.535809 
L 801.113513 271.556693 
L 800.550881 270.837709 
L 799.264701 275.314642 
L 798.700003 276.096689 
L 798.191036 275.679516 
L 797.709193 274.769796 
L 797.280425 273.299151 
L 796.334107 271.288819 
L 795.768419 271.170401 
L 794.477485 275.73905 
L 793.929982 276.097729 
L 793.428428 275.61113 
L 792.955979 274.49699 
L 792.53833 273.104721 
L 792.09973 272.317235 
L 791.5567 271.069782 
L 790.983939 271.66325 
L 790.316678 274.255699 
L 789.698434 276.04931 
L 789.165061 276.067037 
L 788.669415 275.510979 
L 787.797567 272.959179 
L 787.337216 272.155918 
L 786.782581 270.962663 
L 786.195803 272.258177 
L 785.520405 274.825039 
L 784.926274 276.24668 
L 784.404607 276.026618 
L 783.914311 275.367153 
L 783.056587 272.851021 
L 782.011521 271.008783 
L 781.404047 272.892293 
L 780.733366 275.335771 
L 780.160103 276.348281 
L 779.64804 275.984117 
L 779.64804 275.984117 
" clip-path="url(#p9d94ab82c9)" style="fill: none; stroke-dasharray: 5.55,2.4; stroke-dashoffset: 0; stroke: #ff0000; stroke-width: 1.5"/>
   </g>
   <g id="patch_15">
    <path d="M 766.045313 318.04 
L 766.045313 36.72 
" style="fill: none; stroke: #000000; stroke-width: 0.8; stroke-linejoin: miter; stroke-linecap: square"/>
   </g>
   <g id="patch_16">
    <path d="M 1065.305313 318.04 
L 1065.305313 36.72 
" style="fill: none; stroke: #000000; stroke-width: 0.8; stroke-linejoin: miter; stroke-linecap: square"/>
   </g>
   <g id="patch_17">
    <path d="M 766.045312 318.04 
L 1065.305313 318.04 
" style="fill: none; stroke: #000000; stroke-width: 0.8; stroke-linejoin: miter; stroke-linecap: square"/>
   </g>
   <g id="patch_18">
    <path d="M 766.045312 36.72 
L 1065.305313 36.72 
" style="fill: none; stroke: #000000; stroke-width: 0.8; stroke-linejoin: miter; stroke-linecap: square"/>
   </g>
   <g id="legend_3">
    <g id="patch_19">
     <path d="M 773.045313 74.07625 
L 831.6375 74.07625 
Q 833.6375 74.07625 833.6375 72.07625 
L 833.6375 43.72 
Q 833.6375 41.72 831.6375 41.72 
L 773.045313 41.72 
Q 771.045313 41.72 771.045313 43.72 
L 771.045313 72.07625 
Q 771.045313 74.07625 773.045313 74.07625 
z
" style="fill: #ffffff; opacity: 0.8; stroke: #cccccc; stroke-linejoin: miter"/>
    </g>
    <g id="line2d_103">
     <path d="M 775.045313 49.818437 
L 785.045313 49.818437 
L 795.045313 49.818437 
" style="fill: none; stroke: #0000ff; stroke-width: 1.5; stroke-linecap: square"/>
    </g>
    <g id="text_57">
     <!-- data -->
     <g transform="translate(803.045313 53.318437) scale(0.1 -0.1)">
      <use xlink:href="#DejaVuSans-64"/>
      <use xlink:href="#DejaVuSans-61" x="63.476562"/>
      <use xlink:href="#DejaVuSans-74" x="124.755859"/>
      <use xlink:href="#DejaVuSans-61" x="163.964844"/>
     </g>
    </g>
    <g id="line2d_104">
     <path d="M 775.045313 64.496562 
L 785.045313 64.496562 
L 795.045313 64.496562 
" style="fill: none; stroke-dasharray: 5.55,2.4; stroke-dashoffset: 0; stroke: #ff0000; stroke-width: 1.5"/>
    </g>
    <g id="text_58">
     <!-- sindy -->
     <g transform="translate(803.045313 67.996562) scale(0.1 -0.1)">
      <use xlink:href="#DejaVuSans-73"/>
      <use xlink:href="#DejaVuSans-69" x="52.099609"/>
      <use xlink:href="#DejaVuSans-6e" x="79.882812"/>
      <use xlink:href="#DejaVuSans-64" x="143.261719"/>
      <use xlink:href="#DejaVuSans-79" x="206.738281"/>
     </g>
    </g>
   </g>
  </g>
  <g id="text_59">
   <!-- FL_fr_n4 -->
   <g transform="translate(502.781562 19.3575) scale(0.16 -0.16)">
    <defs>
     <path id="DejaVuSans-46" d="M 628 4666 
L 3309 4666 
L 3309 4134 
L 1259 4134 
L 1259 2759 
L 3109 2759 
L 3109 2228 
L 1259 2228 
L 1259 0 
L 628 0 
L 628 4666 
z
" transform="scale(0.015625)"/>
     <path id="DejaVuSans-4c" d="M 628 4666 
L 1259 4666 
L 1259 531 
L 3531 531 
L 3531 0 
L 628 0 
L 628 4666 
z
" transform="scale(0.015625)"/>
     <path id="DejaVuSans-5f" d="M 3263 -1063 
L 3263 -1509 
L -63 -1509 
L -63 -1063 
L 3263 -1063 
z
" transform="scale(0.015625)"/>
     <path id="DejaVuSans-34" d="M 2419 4116 
L 825 1625 
L 2419 1625 
L 2419 4116 
z
M 2253 4666 
L 3047 4666 
L 3047 1625 
L 3713 1625 
L 3713 1100 
L 3047 1100 
L 3047 0 
L 2419 0 
L 2419 1100 
L 313 1100 
L 313 1709 
L 2253 4666 
z
" transform="scale(0.015625)"/>
    </defs>
    <use xlink:href="#DejaVuSans-46"/>
    <use xlink:href="#DejaVuSans-4c" x="57.519531"/>
    <use xlink:href="#DejaVuSans-5f" x="113.232422"/>
    <use xlink:href="#DejaVuSans-66" x="163.232422"/>
    <use xlink:href="#DejaVuSans-72" x="198.4375"/>
    <use xlink:href="#DejaVuSans-5f" x="239.550781"/>
    <use xlink:href="#DejaVuSans-6e" x="289.550781"/>
    <use xlink:href="#DejaVuSans-34" x="352.929688"/>
   </g>
  </g>
 </g>
 <defs>
  <clipPath id="p0d5ec8143e">
   <rect x="55.345313" y="36.72" width="299.26" height="281.32"/>
  </clipPath>
  <clipPath id="pfdee9d8d47">
   <rect x="410.695313" y="36.72" width="299.26" height="281.32"/>
  </clipPath>
  <clipPath id="p9d94ab82c9">
   <rect x="766.045313" y="36.72" width="299.26" height="281.32"/>
  </clipPath>
 </defs>
</svg>
