<?xml version="1.0" encoding="utf-8" standalone="no"?>
<!DOCTYPE svg PUBLIC "-//W3C//DTD SVG 1.1//EN"
  "http://www.w3.org/Graphics/SVG/1.1/DTD/svg11.dtd">
<svg xmlns:xlink="http://www.w3.org/1999/xlink" width="1072.505312pt" height="355.59625pt" viewBox="0 0 1072.505312 355.59625" xmlns="http://www.w3.org/2000/svg" version="1.1">
 <metadata>
  <rdf:RDF xmlns:dc="http://purl.org/dc/elements/1.1/" xmlns:cc="http://creativecommons.org/ns#" xmlns:rdf="http://www.w3.org/1999/02/22-rdf-syntax-ns#">
   <cc:Work>
    <dc:type rdf:resource="http://purl.org/dc/dcmitype/StillImage"/>
    <dc:date>2025-02-10T00:07:04.441753</dc:date>
    <dc:format>image/svg+xml</dc:format>
    <dc:creator>
     <cc:Agent>
      <dc:title>Matplotlib v3.9.2, https://matplotlib.org/</dc:title>
     </cc:Agent>
    </dc:creator>
   </cc:Work>
  </rdf:RDF>
 </metadata>
 <defs>
  <style type="text/css">*{stroke-linejoin: round; stroke-linecap: butt}</style>
 </defs>
 <g id="figure_1">
  <g id="patch_1">
   <path d="M 0 355.59625 
L 1072.505312 355.59625 
L 1072.505312 0 
L 0 0 
z
" style="fill: #ffffff"/>
  </g>
  <g id="axes_1">
   <g id="patch_2">
    <path d="M 55.345313 318.04 
L 354.605312 318.04 
L 354.605312 36.72 
L 55.345313 36.72 
z
" style="fill: #ffffff"/>
   </g>
   <g id="matplotlib.axis_1">
    <g id="xtick_1">
     <g id="line2d_1">
      <path d="M 68.94804 318.04 
L 68.94804 36.72 
" clip-path="url(#pd9ae5a8d85)" style="fill: none; stroke: #b0b0b0; stroke-width: 0.8; stroke-linecap: square"/>
     </g>
     <g id="line2d_2">
      <defs>
       <path id="m53c744c290" d="M 0 0 
L 0 3.5 
" style="stroke: #000000; stroke-width: 0.8"/>
      </defs>
      <g>
       <use xlink:href="#m53c744c290" x="68.94804" y="318.04" style="stroke: #000000; stroke-width: 0.8"/>
      </g>
     </g>
     <g id="text_1">
      <!-- 0.0 -->
      <g transform="translate(60.996477 332.638437) scale(0.1 -0.1)">
       <defs>
        <path id="DejaVuSans-30" d="M 2034 4250 
Q 1547 4250 1301 3770 
Q 1056 3291 1056 2328 
Q 1056 1369 1301 889 
Q 1547 409 2034 409 
Q 2525 409 2770 889 
Q 3016 1369 3016 2328 
Q 3016 3291 2770 3770 
Q 2525 4250 2034 4250 
z
M 2034 4750 
Q 2819 4750 3233 4129 
Q 3647 3509 3647 2328 
Q 3647 1150 3233 529 
Q 2819 -91 2034 -91 
Q 1250 -91 836 529 
Q 422 1150 422 2328 
Q 422 3509 836 4129 
Q 1250 4750 2034 4750 
z
" transform="scale(0.015625)"/>
        <path id="DejaVuSans-2e" d="M 684 794 
L 1344 794 
L 1344 0 
L 684 0 
L 684 794 
z
" transform="scale(0.015625)"/>
       </defs>
       <use xlink:href="#DejaVuSans-30"/>
       <use xlink:href="#DejaVuSans-2e" x="63.623047"/>
       <use xlink:href="#DejaVuSans-30" x="95.410156"/>
      </g>
     </g>
    </g>
    <g id="xtick_2">
     <g id="line2d_3">
      <path d="M 102.988933 318.04 
L 102.988933 36.72 
" clip-path="url(#pd9ae5a8d85)" style="fill: none; stroke: #b0b0b0; stroke-width: 0.8; stroke-linecap: square"/>
     </g>
     <g id="line2d_4">
      <g>
       <use xlink:href="#m53c744c290" x="102.988933" y="318.04" style="stroke: #000000; stroke-width: 0.8"/>
      </g>
     </g>
     <g id="text_2">
      <!-- 2.5 -->
      <g transform="translate(95.03737 332.638437) scale(0.1 -0.1)">
       <defs>
        <path id="DejaVuSans-32" d="M 1228 531 
L 3431 531 
L 3431 0 
L 469 0 
L 469 531 
Q 828 903 1448 1529 
Q 2069 2156 2228 2338 
Q 2531 2678 2651 2914 
Q 2772 3150 2772 3378 
Q 2772 3750 2511 3984 
Q 2250 4219 1831 4219 
Q 1534 4219 1204 4116 
Q 875 4013 500 3803 
L 500 4441 
Q 881 4594 1212 4672 
Q 1544 4750 1819 4750 
Q 2544 4750 2975 4387 
Q 3406 4025 3406 3419 
Q 3406 3131 3298 2873 
Q 3191 2616 2906 2266 
Q 2828 2175 2409 1742 
Q 1991 1309 1228 531 
z
" transform="scale(0.015625)"/>
        <path id="DejaVuSans-35" d="M 691 4666 
L 3169 4666 
L 3169 4134 
L 1269 4134 
L 1269 2991 
Q 1406 3038 1543 3061 
Q 1681 3084 1819 3084 
Q 2600 3084 3056 2656 
Q 3513 2228 3513 1497 
Q 3513 744 3044 326 
Q 2575 -91 1722 -91 
Q 1428 -91 1123 -41 
Q 819 9 494 109 
L 494 744 
Q 775 591 1075 516 
Q 1375 441 1709 441 
Q 2250 441 2565 725 
Q 2881 1009 2881 1497 
Q 2881 1984 2565 2268 
Q 2250 2553 1709 2553 
Q 1456 2553 1204 2497 
Q 953 2441 691 2322 
L 691 4666 
z
" transform="scale(0.015625)"/>
       </defs>
       <use xlink:href="#DejaVuSans-32"/>
       <use xlink:href="#DejaVuSans-2e" x="63.623047"/>
       <use xlink:href="#DejaVuSans-35" x="95.410156"/>
      </g>
     </g>
    </g>
    <g id="xtick_3">
     <g id="line2d_5">
      <path d="M 137.029826 318.04 
L 137.029826 36.72 
" clip-path="url(#pd9ae5a8d85)" style="fill: none; stroke: #b0b0b0; stroke-width: 0.8; stroke-linecap: square"/>
     </g>
     <g id="line2d_6">
      <g>
       <use xlink:href="#m53c744c290" x="137.029826" y="318.04" style="stroke: #000000; stroke-width: 0.8"/>
      </g>
     </g>
     <g id="text_3">
      <!-- 5.0 -->
      <g transform="translate(129.078264 332.638437) scale(0.1 -0.1)">
       <use xlink:href="#DejaVuSans-35"/>
       <use xlink:href="#DejaVuSans-2e" x="63.623047"/>
       <use xlink:href="#DejaVuSans-30" x="95.410156"/>
      </g>
     </g>
    </g>
    <g id="xtick_4">
     <g id="line2d_7">
      <path d="M 171.070719 318.04 
L 171.070719 36.72 
" clip-path="url(#pd9ae5a8d85)" style="fill: none; stroke: #b0b0b0; stroke-width: 0.8; stroke-linecap: square"/>
     </g>
     <g id="line2d_8">
      <g>
       <use xlink:href="#m53c744c290" x="171.070719" y="318.04" style="stroke: #000000; stroke-width: 0.8"/>
      </g>
     </g>
     <g id="text_4">
      <!-- 7.5 -->
      <g transform="translate(163.119157 332.638437) scale(0.1 -0.1)">
       <defs>
        <path id="DejaVuSans-37" d="M 525 4666 
L 3525 4666 
L 3525 4397 
L 1831 0 
L 1172 0 
L 2766 4134 
L 525 4134 
L 525 4666 
z
" transform="scale(0.015625)"/>
       </defs>
       <use xlink:href="#DejaVuSans-37"/>
       <use xlink:href="#DejaVuSans-2e" x="63.623047"/>
       <use xlink:href="#DejaVuSans-35" x="95.410156"/>
      </g>
     </g>
    </g>
    <g id="xtick_5">
     <g id="line2d_9">
      <path d="M 205.111612 318.04 
L 205.111612 36.72 
" clip-path="url(#pd9ae5a8d85)" style="fill: none; stroke: #b0b0b0; stroke-width: 0.8; stroke-linecap: square"/>
     </g>
     <g id="line2d_10">
      <g>
       <use xlink:href="#m53c744c290" x="205.111612" y="318.04" style="stroke: #000000; stroke-width: 0.8"/>
      </g>
     </g>
     <g id="text_5">
      <!-- 10.0 -->
      <g transform="translate(193.9788 332.638437) scale(0.1 -0.1)">
       <defs>
        <path id="DejaVuSans-31" d="M 794 531 
L 1825 531 
L 1825 4091 
L 703 3866 
L 703 4441 
L 1819 4666 
L 2450 4666 
L 2450 531 
L 3481 531 
L 3481 0 
L 794 0 
L 794 531 
z
" transform="scale(0.015625)"/>
       </defs>
       <use xlink:href="#DejaVuSans-31"/>
       <use xlink:href="#DejaVuSans-30" x="63.623047"/>
       <use xlink:href="#DejaVuSans-2e" x="127.246094"/>
       <use xlink:href="#DejaVuSans-30" x="159.033203"/>
      </g>
     </g>
    </g>
    <g id="xtick_6">
     <g id="line2d_11">
      <path d="M 239.152506 318.04 
L 239.152506 36.72 
" clip-path="url(#pd9ae5a8d85)" style="fill: none; stroke: #b0b0b0; stroke-width: 0.8; stroke-linecap: square"/>
     </g>
     <g id="line2d_12">
      <g>
       <use xlink:href="#m53c744c290" x="239.152506" y="318.04" style="stroke: #000000; stroke-width: 0.8"/>
      </g>
     </g>
     <g id="text_6">
      <!-- 12.5 -->
      <g transform="translate(228.019693 332.638437) scale(0.1 -0.1)">
       <use xlink:href="#DejaVuSans-31"/>
       <use xlink:href="#DejaVuSans-32" x="63.623047"/>
       <use xlink:href="#DejaVuSans-2e" x="127.246094"/>
       <use xlink:href="#DejaVuSans-35" x="159.033203"/>
      </g>
     </g>
    </g>
    <g id="xtick_7">
     <g id="line2d_13">
      <path d="M 273.193399 318.04 
L 273.193399 36.72 
" clip-path="url(#pd9ae5a8d85)" style="fill: none; stroke: #b0b0b0; stroke-width: 0.8; stroke-linecap: square"/>
     </g>
     <g id="line2d_14">
      <g>
       <use xlink:href="#m53c744c290" x="273.193399" y="318.04" style="stroke: #000000; stroke-width: 0.8"/>
      </g>
     </g>
     <g id="text_7">
      <!-- 15.0 -->
      <g transform="translate(262.060586 332.638437) scale(0.1 -0.1)">
       <use xlink:href="#DejaVuSans-31"/>
       <use xlink:href="#DejaVuSans-35" x="63.623047"/>
       <use xlink:href="#DejaVuSans-2e" x="127.246094"/>
       <use xlink:href="#DejaVuSans-30" x="159.033203"/>
      </g>
     </g>
    </g>
    <g id="xtick_8">
     <g id="line2d_15">
      <path d="M 307.234292 318.04 
L 307.234292 36.72 
" clip-path="url(#pd9ae5a8d85)" style="fill: none; stroke: #b0b0b0; stroke-width: 0.8; stroke-linecap: square"/>
     </g>
     <g id="line2d_16">
      <g>
       <use xlink:href="#m53c744c290" x="307.234292" y="318.04" style="stroke: #000000; stroke-width: 0.8"/>
      </g>
     </g>
     <g id="text_8">
      <!-- 17.5 -->
      <g transform="translate(296.101479 332.638437) scale(0.1 -0.1)">
       <use xlink:href="#DejaVuSans-31"/>
       <use xlink:href="#DejaVuSans-37" x="63.623047"/>
       <use xlink:href="#DejaVuSans-2e" x="127.246094"/>
       <use xlink:href="#DejaVuSans-35" x="159.033203"/>
      </g>
     </g>
    </g>
    <g id="xtick_9">
     <g id="line2d_17">
      <path d="M 341.275185 318.04 
L 341.275185 36.72 
" clip-path="url(#pd9ae5a8d85)" style="fill: none; stroke: #b0b0b0; stroke-width: 0.8; stroke-linecap: square"/>
     </g>
     <g id="line2d_18">
      <g>
       <use xlink:href="#m53c744c290" x="341.275185" y="318.04" style="stroke: #000000; stroke-width: 0.8"/>
      </g>
     </g>
     <g id="text_9">
      <!-- 20.0 -->
      <g transform="translate(330.142372 332.638437) scale(0.1 -0.1)">
       <use xlink:href="#DejaVuSans-32"/>
       <use xlink:href="#DejaVuSans-30" x="63.623047"/>
       <use xlink:href="#DejaVuSans-2e" x="127.246094"/>
       <use xlink:href="#DejaVuSans-30" x="159.033203"/>
      </g>
     </g>
    </g>
    <g id="text_10">
     <!-- t -->
     <g transform="translate(203.015156 346.316562) scale(0.1 -0.1)">
      <defs>
       <path id="DejaVuSans-74" d="M 1172 4494 
L 1172 3500 
L 2356 3500 
L 2356 3053 
L 1172 3053 
L 1172 1153 
Q 1172 725 1289 603 
Q 1406 481 1766 481 
L 2356 481 
L 2356 0 
L 1766 0 
Q 1100 0 847 248 
Q 594 497 594 1153 
L 594 3053 
L 172 3053 
L 172 3500 
L 594 3500 
L 594 4494 
L 1172 4494 
z
" transform="scale(0.015625)"/>
      </defs>
      <use xlink:href="#DejaVuSans-74"/>
     </g>
    </g>
   </g>
   <g id="matplotlib.axis_2">
    <g id="ytick_1">
     <g id="line2d_19">
      <path d="M 55.345313 293.617681 
L 354.605312 293.617681 
" clip-path="url(#pd9ae5a8d85)" style="fill: none; stroke: #b0b0b0; stroke-width: 0.8; stroke-linecap: square"/>
     </g>
     <g id="line2d_20">
      <defs>
       <path id="m5ae203f740" d="M 0 0 
L -3.5 0 
" style="stroke: #000000; stroke-width: 0.8"/>
      </defs>
      <g>
       <use xlink:href="#m5ae203f740" x="55.345313" y="293.617681" style="stroke: #000000; stroke-width: 0.8"/>
      </g>
     </g>
     <g id="text_11">
      <!-- −300 -->
      <g transform="translate(20.878125 297.4169) scale(0.1 -0.1)">
       <defs>
        <path id="DejaVuSans-2212" d="M 678 2272 
L 4684 2272 
L 4684 1741 
L 678 1741 
L 678 2272 
z
" transform="scale(0.015625)"/>
        <path id="DejaVuSans-33" d="M 2597 2516 
Q 3050 2419 3304 2112 
Q 3559 1806 3559 1356 
Q 3559 666 3084 287 
Q 2609 -91 1734 -91 
Q 1441 -91 1130 -33 
Q 819 25 488 141 
L 488 750 
Q 750 597 1062 519 
Q 1375 441 1716 441 
Q 2309 441 2620 675 
Q 2931 909 2931 1356 
Q 2931 1769 2642 2001 
Q 2353 2234 1838 2234 
L 1294 2234 
L 1294 2753 
L 1863 2753 
Q 2328 2753 2575 2939 
Q 2822 3125 2822 3475 
Q 2822 3834 2567 4026 
Q 2313 4219 1838 4219 
Q 1578 4219 1281 4162 
Q 984 4106 628 3988 
L 628 4550 
Q 988 4650 1302 4700 
Q 1616 4750 1894 4750 
Q 2613 4750 3031 4423 
Q 3450 4097 3450 3541 
Q 3450 3153 3228 2886 
Q 3006 2619 2597 2516 
z
" transform="scale(0.015625)"/>
       </defs>
       <use xlink:href="#DejaVuSans-2212"/>
       <use xlink:href="#DejaVuSans-33" x="83.789062"/>
       <use xlink:href="#DejaVuSans-30" x="147.412109"/>
       <use xlink:href="#DejaVuSans-30" x="211.035156"/>
      </g>
     </g>
    </g>
    <g id="ytick_2">
     <g id="line2d_21">
      <path d="M 55.345313 256.40577 
L 354.605312 256.40577 
" clip-path="url(#pd9ae5a8d85)" style="fill: none; stroke: #b0b0b0; stroke-width: 0.8; stroke-linecap: square"/>
     </g>
     <g id="line2d_22">
      <g>
       <use xlink:href="#m5ae203f740" x="55.345313" y="256.40577" style="stroke: #000000; stroke-width: 0.8"/>
      </g>
     </g>
     <g id="text_12">
      <!-- −250 -->
      <g transform="translate(20.878125 260.204989) scale(0.1 -0.1)">
       <use xlink:href="#DejaVuSans-2212"/>
       <use xlink:href="#DejaVuSans-32" x="83.789062"/>
       <use xlink:href="#DejaVuSans-35" x="147.412109"/>
       <use xlink:href="#DejaVuSans-30" x="211.035156"/>
      </g>
     </g>
    </g>
    <g id="ytick_3">
     <g id="line2d_23">
      <path d="M 55.345313 219.193859 
L 354.605312 219.193859 
" clip-path="url(#pd9ae5a8d85)" style="fill: none; stroke: #b0b0b0; stroke-width: 0.8; stroke-linecap: square"/>
     </g>
     <g id="line2d_24">
      <g>
       <use xlink:href="#m5ae203f740" x="55.345313" y="219.193859" style="stroke: #000000; stroke-width: 0.8"/>
      </g>
     </g>
     <g id="text_13">
      <!-- −200 -->
      <g transform="translate(20.878125 222.993078) scale(0.1 -0.1)">
       <use xlink:href="#DejaVuSans-2212"/>
       <use xlink:href="#DejaVuSans-32" x="83.789062"/>
       <use xlink:href="#DejaVuSans-30" x="147.412109"/>
       <use xlink:href="#DejaVuSans-30" x="211.035156"/>
      </g>
     </g>
    </g>
    <g id="ytick_4">
     <g id="line2d_25">
      <path d="M 55.345313 181.981948 
L 354.605312 181.981948 
" clip-path="url(#pd9ae5a8d85)" style="fill: none; stroke: #b0b0b0; stroke-width: 0.8; stroke-linecap: square"/>
     </g>
     <g id="line2d_26">
      <g>
       <use xlink:href="#m5ae203f740" x="55.345313" y="181.981948" style="stroke: #000000; stroke-width: 0.8"/>
      </g>
     </g>
     <g id="text_14">
      <!-- −150 -->
      <g transform="translate(20.878125 185.781166) scale(0.1 -0.1)">
       <use xlink:href="#DejaVuSans-2212"/>
       <use xlink:href="#DejaVuSans-31" x="83.789062"/>
       <use xlink:href="#DejaVuSans-35" x="147.412109"/>
       <use xlink:href="#DejaVuSans-30" x="211.035156"/>
      </g>
     </g>
    </g>
    <g id="ytick_5">
     <g id="line2d_27">
      <path d="M 55.345313 144.770036 
L 354.605312 144.770036 
" clip-path="url(#pd9ae5a8d85)" style="fill: none; stroke: #b0b0b0; stroke-width: 0.8; stroke-linecap: square"/>
     </g>
     <g id="line2d_28">
      <g>
       <use xlink:href="#m5ae203f740" x="55.345313" y="144.770036" style="stroke: #000000; stroke-width: 0.8"/>
      </g>
     </g>
     <g id="text_15">
      <!-- −100 -->
      <g transform="translate(20.878125 148.569255) scale(0.1 -0.1)">
       <use xlink:href="#DejaVuSans-2212"/>
       <use xlink:href="#DejaVuSans-31" x="83.789062"/>
       <use xlink:href="#DejaVuSans-30" x="147.412109"/>
       <use xlink:href="#DejaVuSans-30" x="211.035156"/>
      </g>
     </g>
    </g>
    <g id="ytick_6">
     <g id="line2d_29">
      <path d="M 55.345313 107.558125 
L 354.605312 107.558125 
" clip-path="url(#pd9ae5a8d85)" style="fill: none; stroke: #b0b0b0; stroke-width: 0.8; stroke-linecap: square"/>
     </g>
     <g id="line2d_30">
      <g>
       <use xlink:href="#m5ae203f740" x="55.345313" y="107.558125" style="stroke: #000000; stroke-width: 0.8"/>
      </g>
     </g>
     <g id="text_16">
      <!-- −50 -->
      <g transform="translate(27.240625 111.357344) scale(0.1 -0.1)">
       <use xlink:href="#DejaVuSans-2212"/>
       <use xlink:href="#DejaVuSans-35" x="83.789062"/>
       <use xlink:href="#DejaVuSans-30" x="147.412109"/>
      </g>
     </g>
    </g>
    <g id="ytick_7">
     <g id="line2d_31">
      <path d="M 55.345313 70.346214 
L 354.605312 70.346214 
" clip-path="url(#pd9ae5a8d85)" style="fill: none; stroke: #b0b0b0; stroke-width: 0.8; stroke-linecap: square"/>
     </g>
     <g id="line2d_32">
      <g>
       <use xlink:href="#m5ae203f740" x="55.345313" y="70.346214" style="stroke: #000000; stroke-width: 0.8"/>
      </g>
     </g>
     <g id="text_17">
      <!-- 0 -->
      <g transform="translate(41.982813 74.145433) scale(0.1 -0.1)">
       <use xlink:href="#DejaVuSans-30"/>
      </g>
     </g>
    </g>
    <g id="text_18">
     <!-- x(t) -->
     <g transform="translate(14.798438 186.201094) rotate(-90) scale(0.1 -0.1)">
      <defs>
       <path id="DejaVuSans-78" d="M 3513 3500 
L 2247 1797 
L 3578 0 
L 2900 0 
L 1881 1375 
L 863 0 
L 184 0 
L 1544 1831 
L 300 3500 
L 978 3500 
L 1906 2253 
L 2834 3500 
L 3513 3500 
z
" transform="scale(0.015625)"/>
       <path id="DejaVuSans-28" d="M 1984 4856 
Q 1566 4138 1362 3434 
Q 1159 2731 1159 2009 
Q 1159 1288 1364 580 
Q 1569 -128 1984 -844 
L 1484 -844 
Q 1016 -109 783 600 
Q 550 1309 550 2009 
Q 550 2706 781 3412 
Q 1013 4119 1484 4856 
L 1984 4856 
z
" transform="scale(0.015625)"/>
       <path id="DejaVuSans-29" d="M 513 4856 
L 1013 4856 
Q 1481 4119 1714 3412 
Q 1947 2706 1947 2009 
Q 1947 1309 1714 600 
Q 1481 -109 1013 -844 
L 513 -844 
Q 928 -128 1133 580 
Q 1338 1288 1338 2009 
Q 1338 2731 1133 3434 
Q 928 4138 513 4856 
z
" transform="scale(0.015625)"/>
      </defs>
      <use xlink:href="#DejaVuSans-78"/>
      <use xlink:href="#DejaVuSans-28" x="59.179688"/>
      <use xlink:href="#DejaVuSans-74" x="98.193359"/>
      <use xlink:href="#DejaVuSans-29" x="137.402344"/>
     </g>
    </g>
   </g>
   <g id="line2d_33">
    <path d="M 68.94804 70.346214 
L 82.578027 70.23585 
L 88.030022 69.964034 
L 92.936817 69.497071 
L 97.843613 68.786864 
L 102.750408 67.848081 
L 111.4736 65.882299 
L 116.380395 64.893151 
L 120.196792 64.360305 
L 122.922789 64.17494 
L 125.648787 64.196202 
L 128.374784 64.455845 
L 131.100782 64.970981 
L 133.826779 65.74161 
L 136.552777 66.759939 
L 139.278774 68.015971 
L 142.004771 69.492577 
L 145.275968 71.515281 
L 149.637564 74.516039 
L 158.360756 80.633132 
L 161.631953 82.588631 
L 164.357951 83.930086 
L 166.538748 84.765194 
L 168.719546 85.355001 
L 170.900344 85.673338 
L 172.535943 85.721356 
L 174.171541 85.598913 
L 175.80714 85.303704 
L 177.987938 84.646218 
L 180.168736 83.7026 
L 182.349534 82.491931 
L 184.530332 81.035407 
L 187.256329 78.910256 
L 190.527526 76.00404 
L 194.889122 71.769056 
L 200.341117 66.485048 
L 203.067114 64.101135 
L 205.247912 62.418387 
L 207.42871 60.992335 
L 209.609508 59.870969 
L 211.245107 59.255361 
L 212.880705 58.849838 
L 214.516304 58.666748 
L 216.151902 58.715519 
L 217.787501 59.001434 
L 219.423099 59.523546 
L 221.058697 60.274836 
L 222.694296 61.2461 
L 224.329894 62.427814 
L 226.510692 64.311032 
L 228.69149 66.513814 
L 231.417488 69.648905 
L 234.688685 73.829043 
L 245.047475 87.544991 
L 247.228273 90.008019 
L 249.409071 92.159159 
L 251.044669 93.528793 
L 252.680268 94.662176 
L 254.315866 95.537775 
L 255.951465 96.137299 
L 257.587063 96.446032 
L 259.222662 96.453127 
L 260.85826 96.152652 
L 262.493859 95.546373 
L 264.129457 94.643691 
L 265.765056 93.456435 
L 267.400654 91.997204 
L 269.036253 90.281289 
L 271.217051 87.627578 
L 273.397848 84.607606 
L 276.123846 80.420692 
L 279.940242 74.067677 
L 285.937437 63.992056 
L 288.663434 59.8275 
L 290.844232 56.855719 
L 293.02503 54.295409 
L 294.660629 52.691033 
L 296.296227 51.388815 
L 297.931826 50.412879 
L 299.567424 49.783061 
L 300.657823 49.563175 
L 301.748222 49.507273 
L 302.838621 49.617562 
L 303.92902 49.894581 
L 305.019419 50.336794 
L 306.655017 51.302075 
L 308.290616 52.617254 
L 309.926214 54.267442 
L 311.561813 56.234429 
L 313.197411 58.495391 
L 315.378209 61.919047 
L 317.559007 65.73847 
L 320.285005 70.931797 
L 326.282199 83.045164 
L 329.553396 89.396921 
L 332.279393 94.196112 
L 334.460191 97.562263 
L 336.09579 99.746929 
L 337.731388 101.599409 
L 339.366987 103.087535 
L 341.002585 104.183901 
L 341.002585 104.183901 
" clip-path="url(#pd9ae5a8d85)" style="fill: none; stroke: #0000ff; stroke-width: 1.5; stroke-linecap: square"/>
   </g>
   <g id="line2d_34">
    <path d="M 68.94804 70.346214 
L 76.035633 70.67977 
L 83.123227 70.901965 
L 97.843613 71.277584 
L 101.660009 71.571068 
L 103.295608 71.852401 
L 104.931206 72.407805 
L 106.566805 73.259217 
L 109.838002 75.705976 
L 112.018799 76.959559 
L 113.109198 77.824162 
L 115.289996 79.946671 
L 116.380395 80.767951 
L 117.470794 81.550263 
L 118.561193 82.540388 
L 120.196792 84.29914 
L 121.287191 85.257019 
L 122.922789 86.567341 
L 124.013188 87.716027 
L 125.103587 88.915553 
L 126.193986 89.913081 
L 127.829585 91.273866 
L 128.919984 92.463772 
L 130.010383 93.664803 
L 131.100782 94.660448 
L 132.191181 95.541433 
L 133.28158 96.641384 
L 134.917178 98.48486 
L 136.007577 99.455293 
L 137.097976 100.374882 
L 138.188375 101.524549 
L 139.278774 102.794914 
L 140.369173 103.846002 
L 142.004771 105.244713 
L 143.09517 106.45417 
L 144.185569 107.678952 
L 145.275968 108.692052 
L 146.366367 109.596583 
L 147.456766 110.72666 
L 148.547165 112.023547 
L 150.182764 113.542373 
L 151.273163 114.493039 
L 152.363562 115.682185 
L 153.453961 116.934861 
L 154.54436 117.970307 
L 155.634759 118.867226 
L 156.725158 119.984577 
L 158.360756 121.850762 
L 159.451155 122.83546 
L 160.541554 123.773677 
L 161.631953 124.948107 
L 162.722352 126.218318 
L 163.812751 127.267772 
L 165.448349 128.693867 
L 166.538748 129.934524 
L 167.629147 131.142629 
L 168.719546 132.14178 
L 169.809945 133.070258 
L 170.900344 134.232873 
L 171.990743 135.515359 
L 173.081142 136.574959 
L 174.716741 137.994025 
L 175.80714 139.22257 
L 176.897539 140.444356 
L 177.987938 141.454998 
L 179.078337 142.375454 
L 180.168736 143.527879 
L 181.259135 144.81961 
L 182.894733 146.327409 
L 183.985132 147.300465 
L 185.075531 148.517742 
L 186.16593 149.751588 
L 187.256329 150.772012 
L 188.346728 151.685666 
L 189.437127 152.828898 
L 190.527526 154.127873 
L 192.163124 155.64664 
L 193.253523 156.610627 
L 194.343922 157.817234 
L 195.434321 159.062044 
L 196.52472 160.09117 
L 197.615119 160.998996 
L 198.705518 162.133694 
L 199.795917 163.438415 
L 201.431516 164.967711 
L 202.521915 165.923116 
L 203.612314 167.119517 
L 204.702713 168.374449 
L 205.793112 169.411531 
L 206.883511 170.314384 
L 207.97391 171.441006 
L 209.609508 173.307718 
L 210.699907 174.28989 
L 211.790306 175.237135 
L 212.880705 176.423722 
L 213.971104 177.688046 
L 215.061503 178.732531 
L 216.697102 180.169939 
L 219.968298 183.612723 
L 221.058697 184.552216 
L 222.149096 185.729345 
L 223.239495 187.002367 
L 224.329894 188.053815 
L 225.965493 189.484371 
L 227.055892 190.728953 
L 228.146291 191.936715 
L 229.23669 192.93592 
L 230.327089 193.868077 
L 231.417488 195.036081 
L 232.507887 196.317106 
L 233.598286 197.375153 
L 235.233884 198.799351 
L 236.324283 200.034336 
L 237.414682 201.251907 
L 238.505081 202.259284 
L 239.59548 203.184549 
L 240.685879 204.343747 
L 241.776278 205.632055 
L 243.411877 207.135129 
L 244.502276 208.114728 
L 245.592674 209.340008 
L 246.683073 210.567359 
L 247.773472 211.582679 
L 248.863871 212.501533 
L 249.95427 213.652227 
L 251.044669 214.947063 
L 252.680268 216.459099 
L 253.770667 217.430413 
L 254.861066 218.645955 
L 255.951465 219.88298 
L 257.041864 220.906004 
L 258.132263 221.818972 
L 259.222662 222.961444 
L 260.313061 224.262018 
L 261.948659 225.783211 
L 263.039058 226.746354 
L 264.129457 227.952199 
L 265.219856 229.198703 
L 266.310255 230.229185 
L 267.400654 231.136833 
L 268.491053 232.271342 
L 269.581452 233.576829 
L 271.217051 235.107393 
L 272.30745 236.062526 
L 273.397848 237.258778 
L 274.488247 238.514479 
L 275.578646 239.552164 
L 276.669045 240.455104 
L 277.759444 241.581876 
L 279.395043 243.448962 
L 280.485442 244.431587 
L 281.575841 245.378922 
L 282.66624 246.565743 
L 283.756639 247.830265 
L 284.847038 248.874894 
L 286.482636 250.312671 
L 289.753833 253.755744 
L 290.844232 254.695546 
L 291.934631 255.873143 
L 293.02503 257.146023 
L 294.115429 258.197336 
L 295.751028 259.628354 
L 296.841427 260.87347 
L 297.931826 262.08088 
L 299.022225 263.079819 
L 300.112623 264.012412 
L 301.203022 265.181022 
L 302.293421 266.461713 
L 303.38382 267.519459 
L 305.019419 268.944156 
L 306.109818 270.179825 
L 307.200217 271.396838 
L 308.290616 272.403773 
L 309.381015 273.329536 
L 310.471414 274.489417 
L 311.561813 275.777297 
L 313.197411 277.279821 
L 314.28781 278.260074 
L 315.378209 279.486139 
L 316.468608 280.712797 
L 317.559007 281.727569 
L 318.649406 282.646939 
L 319.739805 283.798355 
L 320.830204 285.092735 
L 322.465803 286.604094 
L 323.556202 287.576113 
L 324.646601 288.792504 
L 325.737 290.028754 
L 326.827398 291.051171 
L 327.917797 291.964643 
L 329.008196 293.107852 
L 330.098595 294.407987 
L 331.734194 295.928408 
L 332.824593 296.892283 
L 333.914992 298.099013 
L 335.005391 299.344703 
L 336.09579 300.374548 
L 337.186189 301.282668 
L 338.276588 302.417916 
L 339.366987 303.723007 
L 341.002585 305.252727 
L 341.002585 305.252727 
" clip-path="url(#pd9ae5a8d85)" style="fill: none; stroke-dasharray: 5.55,2.4; stroke-dashoffset: 0; stroke: #ff0000; stroke-width: 1.5"/>
   </g>
   <g id="patch_3">
    <path d="M 55.345313 318.04 
L 55.345313 36.72 
" style="fill: none; stroke: #000000; stroke-width: 0.8; stroke-linejoin: miter; stroke-linecap: square"/>
   </g>
   <g id="patch_4">
    <path d="M 354.605312 318.04 
L 354.605312 36.72 
" style="fill: none; stroke: #000000; stroke-width: 0.8; stroke-linejoin: miter; stroke-linecap: square"/>
   </g>
   <g id="patch_5">
    <path d="M 55.345313 318.04 
L 354.605312 318.04 
" style="fill: none; stroke: #000000; stroke-width: 0.8; stroke-linejoin: miter; stroke-linecap: square"/>
   </g>
   <g id="patch_6">
    <path d="M 55.345313 36.72 
L 354.605312 36.72 
" style="fill: none; stroke: #000000; stroke-width: 0.8; stroke-linejoin: miter; stroke-linecap: square"/>
   </g>
   <g id="legend_1">
    <g id="patch_7">
     <path d="M 62.345313 313.04 
L 120.9375 313.04 
Q 122.9375 313.04 122.9375 311.04 
L 122.9375 282.68375 
Q 122.9375 280.68375 120.9375 280.68375 
L 62.345313 280.68375 
Q 60.345313 280.68375 60.345313 282.68375 
L 60.345313 311.04 
Q 60.345313 313.04 62.345313 313.04 
z
" style="fill: #ffffff; opacity: 0.8; stroke: #cccccc; stroke-linejoin: miter"/>
    </g>
    <g id="line2d_35">
     <path d="M 64.345313 288.782187 
L 74.345313 288.782187 
L 84.345313 288.782187 
" style="fill: none; stroke: #0000ff; stroke-width: 1.5; stroke-linecap: square"/>
    </g>
    <g id="text_19">
     <!-- data -->
     <g transform="translate(92.345313 292.282187) scale(0.1 -0.1)">
      <defs>
       <path id="DejaVuSans-64" d="M 2906 2969 
L 2906 4863 
L 3481 4863 
L 3481 0 
L 2906 0 
L 2906 525 
Q 2725 213 2448 61 
Q 2172 -91 1784 -91 
Q 1150 -91 751 415 
Q 353 922 353 1747 
Q 353 2572 751 3078 
Q 1150 3584 1784 3584 
Q 2172 3584 2448 3432 
Q 2725 3281 2906 2969 
z
M 947 1747 
Q 947 1113 1208 752 
Q 1469 391 1925 391 
Q 2381 391 2643 752 
Q 2906 1113 2906 1747 
Q 2906 2381 2643 2742 
Q 2381 3103 1925 3103 
Q 1469 3103 1208 2742 
Q 947 2381 947 1747 
z
" transform="scale(0.015625)"/>
       <path id="DejaVuSans-61" d="M 2194 1759 
Q 1497 1759 1228 1600 
Q 959 1441 959 1056 
Q 959 750 1161 570 
Q 1363 391 1709 391 
Q 2188 391 2477 730 
Q 2766 1069 2766 1631 
L 2766 1759 
L 2194 1759 
z
M 3341 1997 
L 3341 0 
L 2766 0 
L 2766 531 
Q 2569 213 2275 61 
Q 1981 -91 1556 -91 
Q 1019 -91 701 211 
Q 384 513 384 1019 
Q 384 1609 779 1909 
Q 1175 2209 1959 2209 
L 2766 2209 
L 2766 2266 
Q 2766 2663 2505 2880 
Q 2244 3097 1772 3097 
Q 1472 3097 1187 3025 
Q 903 2953 641 2809 
L 641 3341 
Q 956 3463 1253 3523 
Q 1550 3584 1831 3584 
Q 2591 3584 2966 3190 
Q 3341 2797 3341 1997 
z
" transform="scale(0.015625)"/>
      </defs>
      <use xlink:href="#DejaVuSans-64"/>
      <use xlink:href="#DejaVuSans-61" x="63.476562"/>
      <use xlink:href="#DejaVuSans-74" x="124.755859"/>
      <use xlink:href="#DejaVuSans-61" x="163.964844"/>
     </g>
    </g>
    <g id="line2d_36">
     <path d="M 64.345313 303.460312 
L 74.345313 303.460312 
L 84.345313 303.460312 
" style="fill: none; stroke-dasharray: 5.55,2.4; stroke-dashoffset: 0; stroke: #ff0000; stroke-width: 1.5"/>
    </g>
    <g id="text_20">
     <!-- sindy -->
     <g transform="translate(92.345313 306.960312) scale(0.1 -0.1)">
      <defs>
       <path id="DejaVuSans-73" d="M 2834 3397 
L 2834 2853 
Q 2591 2978 2328 3040 
Q 2066 3103 1784 3103 
Q 1356 3103 1142 2972 
Q 928 2841 928 2578 
Q 928 2378 1081 2264 
Q 1234 2150 1697 2047 
L 1894 2003 
Q 2506 1872 2764 1633 
Q 3022 1394 3022 966 
Q 3022 478 2636 193 
Q 2250 -91 1575 -91 
Q 1294 -91 989 -36 
Q 684 19 347 128 
L 347 722 
Q 666 556 975 473 
Q 1284 391 1588 391 
Q 1994 391 2212 530 
Q 2431 669 2431 922 
Q 2431 1156 2273 1281 
Q 2116 1406 1581 1522 
L 1381 1569 
Q 847 1681 609 1914 
Q 372 2147 372 2553 
Q 372 3047 722 3315 
Q 1072 3584 1716 3584 
Q 2034 3584 2315 3537 
Q 2597 3491 2834 3397 
z
" transform="scale(0.015625)"/>
       <path id="DejaVuSans-69" d="M 603 3500 
L 1178 3500 
L 1178 0 
L 603 0 
L 603 3500 
z
M 603 4863 
L 1178 4863 
L 1178 4134 
L 603 4134 
L 603 4863 
z
" transform="scale(0.015625)"/>
       <path id="DejaVuSans-6e" d="M 3513 2113 
L 3513 0 
L 2938 0 
L 2938 2094 
Q 2938 2591 2744 2837 
Q 2550 3084 2163 3084 
Q 1697 3084 1428 2787 
Q 1159 2491 1159 1978 
L 1159 0 
L 581 0 
L 581 3500 
L 1159 3500 
L 1159 2956 
Q 1366 3272 1645 3428 
Q 1925 3584 2291 3584 
Q 2894 3584 3203 3211 
Q 3513 2838 3513 2113 
z
" transform="scale(0.015625)"/>
       <path id="DejaVuSans-79" d="M 2059 -325 
Q 1816 -950 1584 -1140 
Q 1353 -1331 966 -1331 
L 506 -1331 
L 506 -850 
L 844 -850 
Q 1081 -850 1212 -737 
Q 1344 -625 1503 -206 
L 1606 56 
L 191 3500 
L 800 3500 
L 1894 763 
L 2988 3500 
L 3597 3500 
L 2059 -325 
z
" transform="scale(0.015625)"/>
      </defs>
      <use xlink:href="#DejaVuSans-73"/>
      <use xlink:href="#DejaVuSans-69" x="52.099609"/>
      <use xlink:href="#DejaVuSans-6e" x="79.882812"/>
      <use xlink:href="#DejaVuSans-64" x="143.261719"/>
      <use xlink:href="#DejaVuSans-79" x="206.738281"/>
     </g>
    </g>
   </g>
  </g>
  <g id="axes_2">
   <g id="patch_8">
    <path d="M 410.695313 318.04 
L 709.955312 318.04 
L 709.955312 36.72 
L 410.695313 36.72 
z
" style="fill: #ffffff"/>
   </g>
   <g id="matplotlib.axis_3">
    <g id="xtick_10">
     <g id="line2d_37">
      <path d="M 424.29804 318.04 
L 424.29804 36.72 
" clip-path="url(#pfd8b9d8375)" style="fill: none; stroke: #b0b0b0; stroke-width: 0.8; stroke-linecap: square"/>
     </g>
     <g id="line2d_38">
      <g>
       <use xlink:href="#m53c744c290" x="424.29804" y="318.04" style="stroke: #000000; stroke-width: 0.8"/>
      </g>
     </g>
     <g id="text_21">
      <!-- 0.0 -->
      <g transform="translate(416.346477 332.638437) scale(0.1 -0.1)">
       <use xlink:href="#DejaVuSans-30"/>
       <use xlink:href="#DejaVuSans-2e" x="63.623047"/>
       <use xlink:href="#DejaVuSans-30" x="95.410156"/>
      </g>
     </g>
    </g>
    <g id="xtick_11">
     <g id="line2d_39">
      <path d="M 458.338933 318.04 
L 458.338933 36.72 
" clip-path="url(#pfd8b9d8375)" style="fill: none; stroke: #b0b0b0; stroke-width: 0.8; stroke-linecap: square"/>
     </g>
     <g id="line2d_40">
      <g>
       <use xlink:href="#m53c744c290" x="458.338933" y="318.04" style="stroke: #000000; stroke-width: 0.8"/>
      </g>
     </g>
     <g id="text_22">
      <!-- 2.5 -->
      <g transform="translate(450.38737 332.638437) scale(0.1 -0.1)">
       <use xlink:href="#DejaVuSans-32"/>
       <use xlink:href="#DejaVuSans-2e" x="63.623047"/>
       <use xlink:href="#DejaVuSans-35" x="95.410156"/>
      </g>
     </g>
    </g>
    <g id="xtick_12">
     <g id="line2d_41">
      <path d="M 492.379826 318.04 
L 492.379826 36.72 
" clip-path="url(#pfd8b9d8375)" style="fill: none; stroke: #b0b0b0; stroke-width: 0.8; stroke-linecap: square"/>
     </g>
     <g id="line2d_42">
      <g>
       <use xlink:href="#m53c744c290" x="492.379826" y="318.04" style="stroke: #000000; stroke-width: 0.8"/>
      </g>
     </g>
     <g id="text_23">
      <!-- 5.0 -->
      <g transform="translate(484.428264 332.638437) scale(0.1 -0.1)">
       <use xlink:href="#DejaVuSans-35"/>
       <use xlink:href="#DejaVuSans-2e" x="63.623047"/>
       <use xlink:href="#DejaVuSans-30" x="95.410156"/>
      </g>
     </g>
    </g>
    <g id="xtick_13">
     <g id="line2d_43">
      <path d="M 526.420719 318.04 
L 526.420719 36.72 
" clip-path="url(#pfd8b9d8375)" style="fill: none; stroke: #b0b0b0; stroke-width: 0.8; stroke-linecap: square"/>
     </g>
     <g id="line2d_44">
      <g>
       <use xlink:href="#m53c744c290" x="526.420719" y="318.04" style="stroke: #000000; stroke-width: 0.8"/>
      </g>
     </g>
     <g id="text_24">
      <!-- 7.5 -->
      <g transform="translate(518.469157 332.638437) scale(0.1 -0.1)">
       <use xlink:href="#DejaVuSans-37"/>
       <use xlink:href="#DejaVuSans-2e" x="63.623047"/>
       <use xlink:href="#DejaVuSans-35" x="95.410156"/>
      </g>
     </g>
    </g>
    <g id="xtick_14">
     <g id="line2d_45">
      <path d="M 560.461612 318.04 
L 560.461612 36.72 
" clip-path="url(#pfd8b9d8375)" style="fill: none; stroke: #b0b0b0; stroke-width: 0.8; stroke-linecap: square"/>
     </g>
     <g id="line2d_46">
      <g>
       <use xlink:href="#m53c744c290" x="560.461612" y="318.04" style="stroke: #000000; stroke-width: 0.8"/>
      </g>
     </g>
     <g id="text_25">
      <!-- 10.0 -->
      <g transform="translate(549.3288 332.638437) scale(0.1 -0.1)">
       <use xlink:href="#DejaVuSans-31"/>
       <use xlink:href="#DejaVuSans-30" x="63.623047"/>
       <use xlink:href="#DejaVuSans-2e" x="127.246094"/>
       <use xlink:href="#DejaVuSans-30" x="159.033203"/>
      </g>
     </g>
    </g>
    <g id="xtick_15">
     <g id="line2d_47">
      <path d="M 594.502506 318.04 
L 594.502506 36.72 
" clip-path="url(#pfd8b9d8375)" style="fill: none; stroke: #b0b0b0; stroke-width: 0.8; stroke-linecap: square"/>
     </g>
     <g id="line2d_48">
      <g>
       <use xlink:href="#m53c744c290" x="594.502506" y="318.04" style="stroke: #000000; stroke-width: 0.8"/>
      </g>
     </g>
     <g id="text_26">
      <!-- 12.5 -->
      <g transform="translate(583.369693 332.638437) scale(0.1 -0.1)">
       <use xlink:href="#DejaVuSans-31"/>
       <use xlink:href="#DejaVuSans-32" x="63.623047"/>
       <use xlink:href="#DejaVuSans-2e" x="127.246094"/>
       <use xlink:href="#DejaVuSans-35" x="159.033203"/>
      </g>
     </g>
    </g>
    <g id="xtick_16">
     <g id="line2d_49">
      <path d="M 628.543399 318.04 
L 628.543399 36.72 
" clip-path="url(#pfd8b9d8375)" style="fill: none; stroke: #b0b0b0; stroke-width: 0.8; stroke-linecap: square"/>
     </g>
     <g id="line2d_50">
      <g>
       <use xlink:href="#m53c744c290" x="628.543399" y="318.04" style="stroke: #000000; stroke-width: 0.8"/>
      </g>
     </g>
     <g id="text_27">
      <!-- 15.0 -->
      <g transform="translate(617.410586 332.638437) scale(0.1 -0.1)">
       <use xlink:href="#DejaVuSans-31"/>
       <use xlink:href="#DejaVuSans-35" x="63.623047"/>
       <use xlink:href="#DejaVuSans-2e" x="127.246094"/>
       <use xlink:href="#DejaVuSans-30" x="159.033203"/>
      </g>
     </g>
    </g>
    <g id="xtick_17">
     <g id="line2d_51">
      <path d="M 662.584292 318.04 
L 662.584292 36.72 
" clip-path="url(#pfd8b9d8375)" style="fill: none; stroke: #b0b0b0; stroke-width: 0.8; stroke-linecap: square"/>
     </g>
     <g id="line2d_52">
      <g>
       <use xlink:href="#m53c744c290" x="662.584292" y="318.04" style="stroke: #000000; stroke-width: 0.8"/>
      </g>
     </g>
     <g id="text_28">
      <!-- 17.5 -->
      <g transform="translate(651.451479 332.638437) scale(0.1 -0.1)">
       <use xlink:href="#DejaVuSans-31"/>
       <use xlink:href="#DejaVuSans-37" x="63.623047"/>
       <use xlink:href="#DejaVuSans-2e" x="127.246094"/>
       <use xlink:href="#DejaVuSans-35" x="159.033203"/>
      </g>
     </g>
    </g>
    <g id="xtick_18">
     <g id="line2d_53">
      <path d="M 696.625185 318.04 
L 696.625185 36.72 
" clip-path="url(#pfd8b9d8375)" style="fill: none; stroke: #b0b0b0; stroke-width: 0.8; stroke-linecap: square"/>
     </g>
     <g id="line2d_54">
      <g>
       <use xlink:href="#m53c744c290" x="696.625185" y="318.04" style="stroke: #000000; stroke-width: 0.8"/>
      </g>
     </g>
     <g id="text_29">
      <!-- 20.0 -->
      <g transform="translate(685.492372 332.638437) scale(0.1 -0.1)">
       <use xlink:href="#DejaVuSans-32"/>
       <use xlink:href="#DejaVuSans-30" x="63.623047"/>
       <use xlink:href="#DejaVuSans-2e" x="127.246094"/>
       <use xlink:href="#DejaVuSans-30" x="159.033203"/>
      </g>
     </g>
    </g>
    <g id="text_30">
     <!-- t -->
     <g transform="translate(558.365156 346.316562) scale(0.1 -0.1)">
      <use xlink:href="#DejaVuSans-74"/>
     </g>
    </g>
   </g>
   <g id="matplotlib.axis_4">
    <g id="ytick_8">
     <g id="line2d_55">
      <path d="M 410.695313 310.46624 
L 709.955312 310.46624 
" clip-path="url(#pfd8b9d8375)" style="fill: none; stroke: #b0b0b0; stroke-width: 0.8; stroke-linecap: square"/>
     </g>
     <g id="line2d_56">
      <g>
       <use xlink:href="#m5ae203f740" x="410.695313" y="310.46624" style="stroke: #000000; stroke-width: 0.8"/>
      </g>
     </g>
     <g id="text_31">
      <!-- −1.5 -->
      <g transform="translate(379.4125 314.265458) scale(0.1 -0.1)">
       <use xlink:href="#DejaVuSans-2212"/>
       <use xlink:href="#DejaVuSans-31" x="83.789062"/>
       <use xlink:href="#DejaVuSans-2e" x="147.412109"/>
       <use xlink:href="#DejaVuSans-35" x="179.199219"/>
      </g>
     </g>
    </g>
    <g id="ytick_9">
     <g id="line2d_57">
      <path d="M 410.695313 263.36013 
L 709.955312 263.36013 
" clip-path="url(#pfd8b9d8375)" style="fill: none; stroke: #b0b0b0; stroke-width: 0.8; stroke-linecap: square"/>
     </g>
     <g id="line2d_58">
      <g>
       <use xlink:href="#m5ae203f740" x="410.695313" y="263.36013" style="stroke: #000000; stroke-width: 0.8"/>
      </g>
     </g>
     <g id="text_32">
      <!-- −1.0 -->
      <g transform="translate(379.4125 267.159349) scale(0.1 -0.1)">
       <use xlink:href="#DejaVuSans-2212"/>
       <use xlink:href="#DejaVuSans-31" x="83.789062"/>
       <use xlink:href="#DejaVuSans-2e" x="147.412109"/>
       <use xlink:href="#DejaVuSans-30" x="179.199219"/>
      </g>
     </g>
    </g>
    <g id="ytick_10">
     <g id="line2d_59">
      <path d="M 410.695313 216.25402 
L 709.955312 216.25402 
" clip-path="url(#pfd8b9d8375)" style="fill: none; stroke: #b0b0b0; stroke-width: 0.8; stroke-linecap: square"/>
     </g>
     <g id="line2d_60">
      <g>
       <use xlink:href="#m5ae203f740" x="410.695313" y="216.25402" style="stroke: #000000; stroke-width: 0.8"/>
      </g>
     </g>
     <g id="text_33">
      <!-- −0.5 -->
      <g transform="translate(379.4125 220.053239) scale(0.1 -0.1)">
       <use xlink:href="#DejaVuSans-2212"/>
       <use xlink:href="#DejaVuSans-30" x="83.789062"/>
       <use xlink:href="#DejaVuSans-2e" x="147.412109"/>
       <use xlink:href="#DejaVuSans-35" x="179.199219"/>
      </g>
     </g>
    </g>
    <g id="ytick_11">
     <g id="line2d_61">
      <path d="M 410.695313 169.147911 
L 709.955312 169.147911 
" clip-path="url(#pfd8b9d8375)" style="fill: none; stroke: #b0b0b0; stroke-width: 0.8; stroke-linecap: square"/>
     </g>
     <g id="line2d_62">
      <g>
       <use xlink:href="#m5ae203f740" x="410.695313" y="169.147911" style="stroke: #000000; stroke-width: 0.8"/>
      </g>
     </g>
     <g id="text_34">
      <!-- 0.0 -->
      <g transform="translate(387.792188 172.947129) scale(0.1 -0.1)">
       <use xlink:href="#DejaVuSans-30"/>
       <use xlink:href="#DejaVuSans-2e" x="63.623047"/>
       <use xlink:href="#DejaVuSans-30" x="95.410156"/>
      </g>
     </g>
    </g>
    <g id="ytick_12">
     <g id="line2d_63">
      <path d="M 410.695313 122.041801 
L 709.955312 122.041801 
" clip-path="url(#pfd8b9d8375)" style="fill: none; stroke: #b0b0b0; stroke-width: 0.8; stroke-linecap: square"/>
     </g>
     <g id="line2d_64">
      <g>
       <use xlink:href="#m5ae203f740" x="410.695313" y="122.041801" style="stroke: #000000; stroke-width: 0.8"/>
      </g>
     </g>
     <g id="text_35">
      <!-- 0.5 -->
      <g transform="translate(387.792188 125.84102) scale(0.1 -0.1)">
       <use xlink:href="#DejaVuSans-30"/>
       <use xlink:href="#DejaVuSans-2e" x="63.623047"/>
       <use xlink:href="#DejaVuSans-35" x="95.410156"/>
      </g>
     </g>
    </g>
    <g id="ytick_13">
     <g id="line2d_65">
      <path d="M 410.695313 74.935691 
L 709.955312 74.935691 
" clip-path="url(#pfd8b9d8375)" style="fill: none; stroke: #b0b0b0; stroke-width: 0.8; stroke-linecap: square"/>
     </g>
     <g id="line2d_66">
      <g>
       <use xlink:href="#m5ae203f740" x="410.695313" y="74.935691" style="stroke: #000000; stroke-width: 0.8"/>
      </g>
     </g>
     <g id="text_36">
      <!-- 1.0 -->
      <g transform="translate(387.792188 78.73491) scale(0.1 -0.1)">
       <use xlink:href="#DejaVuSans-31"/>
       <use xlink:href="#DejaVuSans-2e" x="63.623047"/>
       <use xlink:href="#DejaVuSans-30" x="95.410156"/>
      </g>
     </g>
    </g>
    <g id="text_37">
     <!-- fr(t) -->
     <g transform="translate(373.332813 187.057344) rotate(-90) scale(0.1 -0.1)">
      <defs>
       <path id="DejaVuSans-66" d="M 2375 4863 
L 2375 4384 
L 1825 4384 
Q 1516 4384 1395 4259 
Q 1275 4134 1275 3809 
L 1275 3500 
L 2222 3500 
L 2222 3053 
L 1275 3053 
L 1275 0 
L 697 0 
L 697 3053 
L 147 3053 
L 147 3500 
L 697 3500 
L 697 3744 
Q 697 4328 969 4595 
Q 1241 4863 1831 4863 
L 2375 4863 
z
" transform="scale(0.015625)"/>
       <path id="DejaVuSans-72" d="M 2631 2963 
Q 2534 3019 2420 3045 
Q 2306 3072 2169 3072 
Q 1681 3072 1420 2755 
Q 1159 2438 1159 1844 
L 1159 0 
L 581 0 
L 581 3500 
L 1159 3500 
L 1159 2956 
Q 1341 3275 1631 3429 
Q 1922 3584 2338 3584 
Q 2397 3584 2469 3576 
Q 2541 3569 2628 3553 
L 2631 2963 
z
" transform="scale(0.015625)"/>
      </defs>
      <use xlink:href="#DejaVuSans-66"/>
      <use xlink:href="#DejaVuSans-72" x="35.205078"/>
      <use xlink:href="#DejaVuSans-28" x="76.318359"/>
      <use xlink:href="#DejaVuSans-74" x="115.332031"/>
      <use xlink:href="#DejaVuSans-29" x="154.541016"/>
     </g>
    </g>
   </g>
   <g id="line2d_67">
    <path d="M 424.29804 169.147911 
L 428.114436 169.052354 
L 429.750035 168.754735 
L 430.840434 168.341432 
L 431.930833 167.673881 
L 433.021232 166.674743 
L 434.111631 165.265596 
L 435.20203 163.372525 
L 436.292429 160.932483 
L 437.382828 157.899984 
L 438.473227 154.253462 
L 439.563625 150.000493 
L 441.199224 142.580417 
L 443.380022 131.205588 
L 448.286817 104.603939 
L 449.922416 97.03123 
L 451.558014 90.59918 
L 452.648413 86.986446 
L 453.738812 83.902152 
L 454.829211 81.311442 
L 455.91961 79.164501 
L 457.010009 77.403051 
L 458.100408 75.966149 
L 459.190807 74.794832 
L 460.826406 73.420244 
L 462.462004 72.373813 
L 464.642802 71.30338 
L 467.368799 70.271693 
L 470.639996 69.30426 
L 473.911193 68.585469 
L 476.637191 68.204422 
L 479.363188 68.065291 
L 479.908388 68.571625 
L 480.453587 70.231082 
L 480.998787 73.076273 
L 481.543986 77.134986 
L 482.089186 82.431743 
L 483.179585 96.820454 
L 484.269984 116.369003 
L 485.360383 141.145012 
L 487.541181 197.555808 
L 488.63158 218.290551 
L 489.721979 233.294282 
L 490.812378 243.53739 
L 491.902777 250.208406 
L 492.993175 254.425658 
L 494.083574 257.089342 
L 495.173973 258.844776 
L 496.264372 260.112084 
L 497.899971 261.614916 
L 504.987564 267.696311 
L 513.165557 274.991481 
L 515.891554 277.136616 
L 518.617552 278.980658 
L 520.798349 280.178742 
L 522.979147 281.085175 
L 524.614746 281.551558 
L 526.250344 281.820429 
L 527.340743 281.884622 
L 527.885943 281.392864 
L 528.431142 278.650255 
L 528.976342 273.487301 
L 529.521541 265.892942 
L 530.066741 255.863554 
L 531.15714 228.522695 
L 532.247539 191.586129 
L 533.337938 153.460467 
L 534.428337 126.481103 
L 534.973536 116.909344 
L 535.518736 109.524641 
L 536.063935 103.948499 
L 536.609135 99.809128 
L 537.154334 96.769698 
L 537.699534 94.54339 
L 538.244733 92.898138 
L 539.335132 90.678224 
L 540.425531 89.175058 
L 543.151529 86.150433 
L 546.422726 82.390828 
L 551.329521 76.31078 
L 555.691117 70.990009 
L 558.417114 67.972244 
L 560.597912 65.842072 
L 562.77871 64.036851 
L 564.414309 62.933001 
L 566.049907 62.069122 
L 567.685506 61.465218 
L 569.321104 61.138072 
L 570.411503 61.103723 
L 570.956703 63.152827 
L 571.501902 68.527954 
L 572.047102 77.245502 
L 572.592301 89.311502 
L 573.137501 104.721551 
L 574.227899 145.503872 
L 575.318298 190.572015 
L 575.863498 207.59099 
L 576.408697 220.843228 
L 576.953897 230.779582 
L 577.499096 237.988418 
L 578.044296 243.081939 
L 578.589495 246.620144 
L 579.134695 249.070665 
L 579.679894 250.796764 
L 580.770293 253.055466 
L 582.405892 255.37625 
L 585.131889 259.094345 
L 587.857887 263.246153 
L 591.129084 268.67584 
L 599.307076 282.510322 
L 602.033073 286.561815 
L 604.213871 289.391602 
L 605.84947 291.218395 
L 607.485068 292.756038 
L 609.120667 293.976008 
L 610.756265 294.853733 
L 611.846664 295.238588 
L 612.937063 295.457453 
L 613.482263 295.503402 
L 614.027462 295.116194 
L 614.572662 291.109732 
L 615.117861 282.768366 
L 615.663061 270.08673 
L 616.20826 253.073026 
L 617.298659 206.150122 
L 618.389058 157.316936 
L 618.934258 140.342009 
L 619.479457 127.910638 
L 620.024657 119.206841 
L 620.569856 113.329013 
L 621.115056 109.448495 
L 621.660255 106.89028 
L 622.205455 105.153214 
L 623.295854 102.888855 
L 628.747848 93.931167 
L 631.473846 88.630974 
L 635.290242 80.588768 
L 641.287437 67.834161 
L 644.013434 62.562301 
L 646.194232 58.800359 
L 647.829831 56.315285 
L 649.465429 54.164474 
L 651.101028 52.384866 
L 652.736626 51.008693 
L 653.827025 50.328927 
L 654.917424 49.847165 
L 656.007823 49.568815 
L 656.553022 49.507273 
L 657.098222 49.771515 
L 657.643421 54.112123 
L 658.188621 63.73284 
L 658.73382 78.634258 
L 659.27902 98.800365 
L 660.369419 154.160035 
L 660.914618 180.673657 
L 661.459818 201.017064 
L 662.005017 215.641874 
L 662.550217 225.577062 
L 663.095416 232.027661 
L 663.640616 236.102927 
L 664.185815 238.683481 
L 664.731015 240.3949 
L 665.821414 242.66787 
L 669.092611 248.446591 
L 671.273409 252.916111 
L 673.999406 259.155563 
L 677.270603 267.291542 
L 684.903396 286.534068 
L 687.629393 292.609306 
L 689.810191 296.870476 
L 691.44579 299.636018 
L 693.081388 301.981051 
L 694.716987 303.864851 
L 695.807386 304.847079 
L 696.352585 305.252727 
L 696.352585 305.252727 
" clip-path="url(#pfd8b9d8375)" style="fill: none; stroke: #0000ff; stroke-width: 1.5; stroke-linecap: square"/>
   </g>
   <g id="line2d_68">
    <path d="M 424.29804 169.147911 
L 428.114436 172.871381 
L 430.295234 174.621979 
L 432.476032 176.033846 
L 440.108825 180.540587 
L 442.289623 182.21522 
L 444.470421 184.211555 
L 446.106019 185.964113 
L 447.741618 187.971725 
L 449.377216 190.268512 
L 451.012815 192.889288 
L 452.648413 195.868356 
L 454.284012 199.237457 
L 455.91961 203.019142 
L 460.281206 213.954468 
L 460.826406 215.554646 
L 461.371605 218.064262 
L 461.916805 221.960832 
L 463.007204 231.342216 
L 463.552403 234.25096 
L 464.097603 236.109683 
L 464.642802 237.159052 
L 466.8236 239.025985 
L 467.368799 239.383991 
L 467.913999 240.008739 
L 468.459198 242.179623 
L 469.549597 249.298454 
L 470.094797 250.840956 
L 470.639996 251.320218 
L 472.820794 250.342821 
L 473.365994 250.282103 
L 473.911193 251.928968 
L 474.456393 255.374148 
L 475.001592 257.742734 
L 475.546792 258.525377 
L 476.091991 258.299813 
L 477.18239 256.983164 
L 478.272789 255.922924 
L 478.817989 256.710905 
L 479.908388 262.142654 
L 480.453587 262.874352 
L 480.998787 262.536252 
L 482.089186 260.835658 
L 483.179585 259.426145 
L 483.724784 260.214239 
L 484.269984 263.152863 
L 484.815183 265.243582 
L 485.360383 265.698138 
L 485.905582 265.12175 
L 486.995981 263.222099 
L 488.08638 261.711008 
L 488.63158 262.983664 
L 489.176779 265.937166 
L 489.721979 267.462594 
L 490.267178 267.547675 
L 490.812378 266.696647 
L 491.902777 264.720655 
L 492.447976 263.76742 
L 492.993175 263.418587 
L 493.538375 265.432755 
L 494.083574 268.105933 
L 494.628774 269.011701 
L 495.173973 268.700331 
L 496.809572 265.636078 
L 497.354771 264.655923 
L 497.899971 265.001303 
L 498.44517 267.662687 
L 498.99037 269.682442 
L 499.535569 270.03355 
L 500.080769 269.332394 
L 501.171168 267.139592 
L 501.716367 266.139671 
L 502.261567 265.379221 
L 502.806766 266.720183 
L 503.351966 269.522621 
L 503.897165 270.752183 
L 504.442365 270.619949 
L 506.623163 266.384254 
L 507.168362 266.252136 
L 508.258761 270.871016 
L 508.803961 271.416976 
L 509.34916 270.840223 
L 510.439559 268.551561 
L 511.529958 266.591057 
L 512.075158 267.484132 
L 512.620357 270.266581 
L 513.165557 271.740047 
L 513.710756 271.741233 
L 514.255956 270.785304 
L 515.346355 268.5455 
L 515.891554 267.452255 
L 516.436754 267.03765 
L 516.981953 269.053351 
L 517.527153 271.530538 
L 518.072352 272.236755 
L 518.617552 271.762642 
L 520.25315 268.404742 
L 520.798349 267.368733 
L 521.343549 267.938767 
L 521.888748 270.648594 
L 522.433948 272.319142 
L 522.979147 272.431646 
L 523.524347 271.543222 
L 524.614746 269.245372 
L 525.159945 268.145305 
L 525.705145 267.542652 
L 526.250344 269.298488 
L 526.795544 271.889233 
L 527.340743 272.73838 
L 527.885943 272.354105 
L 530.066741 267.888096 
L 530.61194 268.205632 
L 531.15714 270.818367 
L 531.702339 272.657771 
L 532.247539 272.87094 
L 532.792738 272.049118 
L 533.883137 269.713078 
L 534.428337 268.614894 
L 534.973536 267.876423 
L 535.518736 269.398804 
L 536.063935 272.064886 
L 536.609135 273.048556 
L 537.154334 272.746957 
L 539.335132 268.249232 
L 539.880332 268.357545 
L 540.970731 272.846975 
L 541.51593 273.156079 
L 542.06113 272.400279 
L 543.151529 270.038592 
L 543.696728 268.946247 
L 544.241928 268.104575 
L 544.787127 269.410671 
L 545.332327 272.123741 
L 545.877526 273.238285 
L 546.422726 273.015469 
L 548.603523 268.511239 
L 549.148723 268.439517 
L 550.239122 272.939366 
L 550.784321 273.343015 
L 551.329521 272.653144 
L 552.41992 270.274599 
L 553.510319 268.267444 
L 554.055518 269.369043 
L 554.600718 272.105309 
L 555.145917 273.349589 
L 555.691117 273.20362 
L 557.326715 269.851297 
L 557.871915 268.710145 
L 558.417114 268.480007 
L 559.507513 272.966702 
L 560.052713 273.465545 
L 560.597912 272.841863 
L 561.688311 270.453289 
L 562.77871 268.390304 
L 563.32391 269.296316 
L 563.869109 272.034167 
L 564.414309 273.408238 
L 564.959508 273.338441 
L 565.504708 272.323362 
L 566.595107 270.010243 
L 567.140306 268.868428 
L 567.685506 268.497285 
L 568.775905 272.948703 
L 569.321104 273.544721 
L 569.866304 272.987702 
L 571.501902 269.525084 
L 572.047102 268.489179 
L 572.592301 269.207162 
L 573.137501 271.926132 
L 573.6827 273.430394 
L 574.227899 273.436978 
L 574.773099 272.469997 
L 575.863498 270.13836 
L 576.408697 269.000323 
L 576.953897 268.503167 
L 577.499096 270.437925 
L 578.044296 272.897842 
L 578.589495 273.593919 
L 579.134695 273.104156 
L 580.770293 269.648867 
L 581.315493 268.574258 
L 581.860692 269.111335 
L 582.405892 271.791708 
L 582.951091 273.426312 
L 583.496291 273.51017 
L 584.04149 272.594404 
L 585.131889 270.246093 
L 585.677089 269.114913 
L 586.222288 268.505297 
L 586.767488 270.276502 
L 587.312687 272.822107 
L 587.857887 273.621739 
L 588.403086 273.199899 
L 590.583884 268.65198 
L 591.129084 269.015379 
L 591.674283 271.638127 
L 592.219483 273.402521 
L 592.764682 273.565118 
L 593.309882 272.703401 
L 594.400281 270.340314 
L 594.94548 269.218013 
L 595.49068 268.508566 
L 596.035879 270.109981 
L 596.581079 272.726673 
L 597.126278 273.633738 
L 597.671478 273.280542 
L 599.852276 268.726342 
L 600.397475 268.923701 
L 600.942674 271.470585 
L 601.487874 273.363156 
L 602.033073 273.606467 
L 602.578273 272.801354 
L 603.668672 270.425596 
L 604.213871 269.313335 
L 604.759071 268.516031 
L 605.30427 269.942966 
L 605.84947 272.61495 
L 606.394669 273.6335 
L 606.939869 273.349732 
L 609.120667 268.799739 
L 609.665866 268.839255 
L 610.756265 273.310794 
L 611.301465 273.637271 
L 611.846664 272.891044 
L 612.937063 270.50502 
L 614.027462 268.529508 
L 614.572662 269.77888 
L 615.117861 272.489252 
L 615.663061 273.623312 
L 616.20826 273.409845 
L 618.389058 268.873511 
L 618.934258 268.763991 
L 620.024657 273.246998 
L 620.569856 273.659539 
L 621.115056 272.974212 
L 622.205455 270.58068 
L 623.295854 268.549965 
L 623.841053 269.620323 
L 624.386253 272.351241 
L 624.931452 273.604598 
L 625.476652 273.462432 
L 627.11225 270.096262 
L 627.65745 268.948313 
L 628.202649 268.699151 
L 629.293048 273.172666 
L 629.838247 273.674585 
L 630.383447 273.051919 
L 631.473846 270.654021 
L 632.564245 268.577792 
L 633.109444 269.469296 
L 633.654644 272.202214 
L 634.199843 273.578203 
L 634.745043 273.508506 
L 635.290242 272.492118 
L 636.380641 270.17052 
L 636.925841 269.024359 
L 637.47104 268.645469 
L 638.561439 273.088273 
L 639.106639 273.683261 
L 639.651838 273.124789 
L 641.287437 269.65277 
L 641.832636 268.612979 
L 642.377836 269.327346 
L 642.923035 272.043304 
L 643.468235 273.544574 
L 644.013434 273.548732 
L 644.558634 272.57935 
L 645.649033 270.242653 
L 646.194232 269.101587 
L 646.739432 268.603306 
L 647.284631 270.538371 
L 647.829831 272.994037 
L 648.37503 273.686103 
L 648.92023 273.193162 
L 650.555828 269.731328 
L 651.101028 268.65524 
L 651.646227 269.19567 
L 652.191427 271.8756 
L 652.736626 273.503887 
L 653.281826 273.583547 
L 653.827025 272.66444 
L 654.917424 270.313265 
L 655.462623 269.179775 
L 656.007823 268.572744 
L 656.553022 270.349702 
L 657.098222 272.890026 
L 657.643421 273.683428 
L 658.188621 273.257199 
L 660.369419 268.704105 
L 660.914618 269.075178 
L 661.459818 271.70023 
L 662.005017 273.456129 
L 662.550217 273.613239 
L 663.095416 272.747399 
L 664.185815 270.382819 
L 664.731015 269.258617 
L 665.276214 268.553646 
L 665.821414 270.164753 
L 666.366613 272.776255 
L 666.911813 273.675396 
L 667.457012 273.316957 
L 669.63781 268.758978 
L 670.18301 268.966543 
L 670.728209 271.518404 
L 671.273409 273.401154 
L 671.818608 273.637998 
L 672.363808 272.828128 
L 673.454207 270.451682 
L 673.999406 269.337777 
L 674.544606 268.545713 
L 675.089805 269.985119 
L 675.635005 272.652745 
L 676.180204 273.662053 
L 676.725404 273.37243 
L 678.906202 268.819192 
L 679.451401 268.870232 
L 680.5418 273.338725 
L 681.087 273.657949 
L 681.632199 272.906455 
L 682.722598 270.520158 
L 683.812997 268.548506 
L 684.358196 269.812245 
L 684.903396 272.519573 
L 685.448595 273.643356 
L 685.993795 273.423581 
L 688.174593 268.884034 
L 688.719792 268.786535 
L 689.810191 273.268545 
L 690.355391 273.673165 
L 690.90059 272.982168 
L 691.990989 270.588506 
L 693.081388 268.561484 
L 693.626588 269.647426 
L 694.171787 272.376921 
L 694.716987 273.619191 
L 695.262186 273.470365 
L 696.352585 271.159669 
L 696.352585 271.159669 
" clip-path="url(#pfd8b9d8375)" style="fill: none; stroke-dasharray: 5.55,2.4; stroke-dashoffset: 0; stroke: #ff0000; stroke-width: 1.5"/>
   </g>
   <g id="patch_9">
    <path d="M 410.695313 318.04 
L 410.695313 36.72 
" style="fill: none; stroke: #000000; stroke-width: 0.8; stroke-linejoin: miter; stroke-linecap: square"/>
   </g>
   <g id="patch_10">
    <path d="M 709.955312 318.04 
L 709.955312 36.72 
" style="fill: none; stroke: #000000; stroke-width: 0.8; stroke-linejoin: miter; stroke-linecap: square"/>
   </g>
   <g id="patch_11">
    <path d="M 410.695312 318.04 
L 709.955312 318.04 
" style="fill: none; stroke: #000000; stroke-width: 0.8; stroke-linejoin: miter; stroke-linecap: square"/>
   </g>
   <g id="patch_12">
    <path d="M 410.695312 36.72 
L 709.955312 36.72 
" style="fill: none; stroke: #000000; stroke-width: 0.8; stroke-linejoin: miter; stroke-linecap: square"/>
   </g>
   <g id="legend_2">
    <g id="patch_13">
     <path d="M 417.695313 313.04 
L 476.2875 313.04 
Q 478.2875 313.04 478.2875 311.04 
L 478.2875 282.68375 
Q 478.2875 280.68375 476.2875 280.68375 
L 417.695313 280.68375 
Q 415.695313 280.68375 415.695313 282.68375 
L 415.695313 311.04 
Q 415.695313 313.04 417.695313 313.04 
z
" style="fill: #ffffff; opacity: 0.8; stroke: #cccccc; stroke-linejoin: miter"/>
    </g>
    <g id="line2d_69">
     <path d="M 419.695313 288.782187 
L 429.695313 288.782187 
L 439.695313 288.782187 
" style="fill: none; stroke: #0000ff; stroke-width: 1.5; stroke-linecap: square"/>
    </g>
    <g id="text_38">
     <!-- data -->
     <g transform="translate(447.695313 292.282187) scale(0.1 -0.1)">
      <use xlink:href="#DejaVuSans-64"/>
      <use xlink:href="#DejaVuSans-61" x="63.476562"/>
      <use xlink:href="#DejaVuSans-74" x="124.755859"/>
      <use xlink:href="#DejaVuSans-61" x="163.964844"/>
     </g>
    </g>
    <g id="line2d_70">
     <path d="M 419.695313 303.460312 
L 429.695313 303.460312 
L 439.695313 303.460312 
" style="fill: none; stroke-dasharray: 5.55,2.4; stroke-dashoffset: 0; stroke: #ff0000; stroke-width: 1.5"/>
    </g>
    <g id="text_39">
     <!-- sindy -->
     <g transform="translate(447.695313 306.960312) scale(0.1 -0.1)">
      <use xlink:href="#DejaVuSans-73"/>
      <use xlink:href="#DejaVuSans-69" x="52.099609"/>
      <use xlink:href="#DejaVuSans-6e" x="79.882812"/>
      <use xlink:href="#DejaVuSans-64" x="143.261719"/>
      <use xlink:href="#DejaVuSans-79" x="206.738281"/>
     </g>
    </g>
   </g>
  </g>
  <g id="axes_3">
   <g id="patch_14">
    <path d="M 766.045313 318.04 
L 1065.305313 318.04 
L 1065.305313 36.72 
L 766.045313 36.72 
z
" style="fill: #ffffff"/>
   </g>
   <g id="matplotlib.axis_5">
    <g id="xtick_19">
     <g id="line2d_71">
      <path d="M 792.025062 318.04 
L 792.025062 36.72 
" clip-path="url(#ped71c29951)" style="fill: none; stroke: #b0b0b0; stroke-width: 0.8; stroke-linecap: square"/>
     </g>
     <g id="line2d_72">
      <g>
       <use xlink:href="#m53c744c290" x="792.025062" y="318.04" style="stroke: #000000; stroke-width: 0.8"/>
      </g>
     </g>
     <g id="text_40">
      <!-- −300 -->
      <g transform="translate(778.291468 332.638437) scale(0.1 -0.1)">
       <use xlink:href="#DejaVuSans-2212"/>
       <use xlink:href="#DejaVuSans-33" x="83.789062"/>
       <use xlink:href="#DejaVuSans-30" x="147.412109"/>
       <use xlink:href="#DejaVuSans-30" x="211.035156"/>
      </g>
     </g>
    </g>
    <g id="xtick_20">
     <g id="line2d_73">
      <path d="M 831.610006 318.04 
L 831.610006 36.72 
" clip-path="url(#ped71c29951)" style="fill: none; stroke: #b0b0b0; stroke-width: 0.8; stroke-linecap: square"/>
     </g>
     <g id="line2d_74">
      <g>
       <use xlink:href="#m53c744c290" x="831.610006" y="318.04" style="stroke: #000000; stroke-width: 0.8"/>
      </g>
     </g>
     <g id="text_41">
      <!-- −250 -->
      <g transform="translate(817.876413 332.638437) scale(0.1 -0.1)">
       <use xlink:href="#DejaVuSans-2212"/>
       <use xlink:href="#DejaVuSans-32" x="83.789062"/>
       <use xlink:href="#DejaVuSans-35" x="147.412109"/>
       <use xlink:href="#DejaVuSans-30" x="211.035156"/>
      </g>
     </g>
    </g>
    <g id="xtick_21">
     <g id="line2d_75">
      <path d="M 871.194951 318.04 
L 871.194951 36.72 
" clip-path="url(#ped71c29951)" style="fill: none; stroke: #b0b0b0; stroke-width: 0.8; stroke-linecap: square"/>
     </g>
     <g id="line2d_76">
      <g>
       <use xlink:href="#m53c744c290" x="871.194951" y="318.04" style="stroke: #000000; stroke-width: 0.8"/>
      </g>
     </g>
     <g id="text_42">
      <!-- −200 -->
      <g transform="translate(857.461357 332.638437) scale(0.1 -0.1)">
       <use xlink:href="#DejaVuSans-2212"/>
       <use xlink:href="#DejaVuSans-32" x="83.789062"/>
       <use xlink:href="#DejaVuSans-30" x="147.412109"/>
       <use xlink:href="#DejaVuSans-30" x="211.035156"/>
      </g>
     </g>
    </g>
    <g id="xtick_22">
     <g id="line2d_77">
      <path d="M 910.779895 318.04 
L 910.779895 36.72 
" clip-path="url(#ped71c29951)" style="fill: none; stroke: #b0b0b0; stroke-width: 0.8; stroke-linecap: square"/>
     </g>
     <g id="line2d_78">
      <g>
       <use xlink:href="#m53c744c290" x="910.779895" y="318.04" style="stroke: #000000; stroke-width: 0.8"/>
      </g>
     </g>
     <g id="text_43">
      <!-- −150 -->
      <g transform="translate(897.046301 332.638437) scale(0.1 -0.1)">
       <use xlink:href="#DejaVuSans-2212"/>
       <use xlink:href="#DejaVuSans-31" x="83.789062"/>
       <use xlink:href="#DejaVuSans-35" x="147.412109"/>
       <use xlink:href="#DejaVuSans-30" x="211.035156"/>
      </g>
     </g>
    </g>
    <g id="xtick_23">
     <g id="line2d_79">
      <path d="M 950.364839 318.04 
L 950.364839 36.72 
" clip-path="url(#ped71c29951)" style="fill: none; stroke: #b0b0b0; stroke-width: 0.8; stroke-linecap: square"/>
     </g>
     <g id="line2d_80">
      <g>
       <use xlink:href="#m53c744c290" x="950.364839" y="318.04" style="stroke: #000000; stroke-width: 0.8"/>
      </g>
     </g>
     <g id="text_44">
      <!-- −100 -->
      <g transform="translate(936.631246 332.638437) scale(0.1 -0.1)">
       <use xlink:href="#DejaVuSans-2212"/>
       <use xlink:href="#DejaVuSans-31" x="83.789062"/>
       <use xlink:href="#DejaVuSans-30" x="147.412109"/>
       <use xlink:href="#DejaVuSans-30" x="211.035156"/>
      </g>
     </g>
    </g>
    <g id="xtick_24">
     <g id="line2d_81">
      <path d="M 989.949784 318.04 
L 989.949784 36.72 
" clip-path="url(#ped71c29951)" style="fill: none; stroke: #b0b0b0; stroke-width: 0.8; stroke-linecap: square"/>
     </g>
     <g id="line2d_82">
      <g>
       <use xlink:href="#m53c744c290" x="989.949784" y="318.04" style="stroke: #000000; stroke-width: 0.8"/>
      </g>
     </g>
     <g id="text_45">
      <!-- −50 -->
      <g transform="translate(979.39744 332.638437) scale(0.1 -0.1)">
       <use xlink:href="#DejaVuSans-2212"/>
       <use xlink:href="#DejaVuSans-35" x="83.789062"/>
       <use xlink:href="#DejaVuSans-30" x="147.412109"/>
      </g>
     </g>
    </g>
    <g id="xtick_25">
     <g id="line2d_83">
      <path d="M 1029.534728 318.04 
L 1029.534728 36.72 
" clip-path="url(#ped71c29951)" style="fill: none; stroke: #b0b0b0; stroke-width: 0.8; stroke-linecap: square"/>
     </g>
     <g id="line2d_84">
      <g>
       <use xlink:href="#m53c744c290" x="1029.534728" y="318.04" style="stroke: #000000; stroke-width: 0.8"/>
      </g>
     </g>
     <g id="text_46">
      <!-- 0 -->
      <g transform="translate(1026.353478 332.638437) scale(0.1 -0.1)">
       <use xlink:href="#DejaVuSans-30"/>
      </g>
     </g>
    </g>
    <g id="text_47">
     <!-- x(t) -->
     <g transform="translate(906.854219 346.316562) scale(0.1 -0.1)">
      <use xlink:href="#DejaVuSans-78"/>
      <use xlink:href="#DejaVuSans-28" x="59.179688"/>
      <use xlink:href="#DejaVuSans-74" x="98.193359"/>
      <use xlink:href="#DejaVuSans-29" x="137.402344"/>
     </g>
    </g>
   </g>
   <g id="matplotlib.axis_6">
    <g id="ytick_14">
     <g id="line2d_85">
      <path d="M 766.045313 310.46624 
L 1065.305313 310.46624 
" clip-path="url(#ped71c29951)" style="fill: none; stroke: #b0b0b0; stroke-width: 0.8; stroke-linecap: square"/>
     </g>
     <g id="line2d_86">
      <g>
       <use xlink:href="#m5ae203f740" x="766.045313" y="310.46624" style="stroke: #000000; stroke-width: 0.8"/>
      </g>
     </g>
     <g id="text_48">
      <!-- −1.5 -->
      <g transform="translate(734.7625 314.265458) scale(0.1 -0.1)">
       <use xlink:href="#DejaVuSans-2212"/>
       <use xlink:href="#DejaVuSans-31" x="83.789062"/>
       <use xlink:href="#DejaVuSans-2e" x="147.412109"/>
       <use xlink:href="#DejaVuSans-35" x="179.199219"/>
      </g>
     </g>
    </g>
    <g id="ytick_15">
     <g id="line2d_87">
      <path d="M 766.045313 263.36013 
L 1065.305313 263.36013 
" clip-path="url(#ped71c29951)" style="fill: none; stroke: #b0b0b0; stroke-width: 0.8; stroke-linecap: square"/>
     </g>
     <g id="line2d_88">
      <g>
       <use xlink:href="#m5ae203f740" x="766.045313" y="263.36013" style="stroke: #000000; stroke-width: 0.8"/>
      </g>
     </g>
     <g id="text_49">
      <!-- −1.0 -->
      <g transform="translate(734.7625 267.159349) scale(0.1 -0.1)">
       <use xlink:href="#DejaVuSans-2212"/>
       <use xlink:href="#DejaVuSans-31" x="83.789062"/>
       <use xlink:href="#DejaVuSans-2e" x="147.412109"/>
       <use xlink:href="#DejaVuSans-30" x="179.199219"/>
      </g>
     </g>
    </g>
    <g id="ytick_16">
     <g id="line2d_89">
      <path d="M 766.045313 216.25402 
L 1065.305313 216.25402 
" clip-path="url(#ped71c29951)" style="fill: none; stroke: #b0b0b0; stroke-width: 0.8; stroke-linecap: square"/>
     </g>
     <g id="line2d_90">
      <g>
       <use xlink:href="#m5ae203f740" x="766.045313" y="216.25402" style="stroke: #000000; stroke-width: 0.8"/>
      </g>
     </g>
     <g id="text_50">
      <!-- −0.5 -->
      <g transform="translate(734.7625 220.053239) scale(0.1 -0.1)">
       <use xlink:href="#DejaVuSans-2212"/>
       <use xlink:href="#DejaVuSans-30" x="83.789062"/>
       <use xlink:href="#DejaVuSans-2e" x="147.412109"/>
       <use xlink:href="#DejaVuSans-35" x="179.199219"/>
      </g>
     </g>
    </g>
    <g id="ytick_17">
     <g id="line2d_91">
      <path d="M 766.045313 169.147911 
L 1065.305313 169.147911 
" clip-path="url(#ped71c29951)" style="fill: none; stroke: #b0b0b0; stroke-width: 0.8; stroke-linecap: square"/>
     </g>
     <g id="line2d_92">
      <g>
       <use xlink:href="#m5ae203f740" x="766.045313" y="169.147911" style="stroke: #000000; stroke-width: 0.8"/>
      </g>
     </g>
     <g id="text_51">
      <!-- 0.0 -->
      <g transform="translate(743.142187 172.947129) scale(0.1 -0.1)">
       <use xlink:href="#DejaVuSans-30"/>
       <use xlink:href="#DejaVuSans-2e" x="63.623047"/>
       <use xlink:href="#DejaVuSans-30" x="95.410156"/>
      </g>
     </g>
    </g>
    <g id="ytick_18">
     <g id="line2d_93">
      <path d="M 766.045313 122.041801 
L 1065.305313 122.041801 
" clip-path="url(#ped71c29951)" style="fill: none; stroke: #b0b0b0; stroke-width: 0.8; stroke-linecap: square"/>
     </g>
     <g id="line2d_94">
      <g>
       <use xlink:href="#m5ae203f740" x="766.045313" y="122.041801" style="stroke: #000000; stroke-width: 0.8"/>
      </g>
     </g>
     <g id="text_52">
      <!-- 0.5 -->
      <g transform="translate(743.142187 125.84102) scale(0.1 -0.1)">
       <use xlink:href="#DejaVuSans-30"/>
       <use xlink:href="#DejaVuSans-2e" x="63.623047"/>
       <use xlink:href="#DejaVuSans-35" x="95.410156"/>
      </g>
     </g>
    </g>
    <g id="ytick_19">
     <g id="line2d_95">
      <path d="M 766.045313 74.935691 
L 1065.305313 74.935691 
" clip-path="url(#ped71c29951)" style="fill: none; stroke: #b0b0b0; stroke-width: 0.8; stroke-linecap: square"/>
     </g>
     <g id="line2d_96">
      <g>
       <use xlink:href="#m5ae203f740" x="766.045313" y="74.935691" style="stroke: #000000; stroke-width: 0.8"/>
      </g>
     </g>
     <g id="text_53">
      <!-- 1.0 -->
      <g transform="translate(743.142187 78.73491) scale(0.1 -0.1)">
       <use xlink:href="#DejaVuSans-31"/>
       <use xlink:href="#DejaVuSans-2e" x="63.623047"/>
       <use xlink:href="#DejaVuSans-30" x="95.410156"/>
      </g>
     </g>
    </g>
    <g id="text_54">
     <!-- fr(t) -->
     <g transform="translate(728.682813 187.057344) rotate(-90) scale(0.1 -0.1)">
      <use xlink:href="#DejaVuSans-66"/>
      <use xlink:href="#DejaVuSans-72" x="35.205078"/>
      <use xlink:href="#DejaVuSans-28" x="76.318359"/>
      <use xlink:href="#DejaVuSans-74" x="115.332031"/>
      <use xlink:href="#DejaVuSans-29" x="154.541016"/>
     </g>
    </g>
   </g>
   <g id="line2d_97">
    <path d="M 1029.534728 169.147911 
L 1029.984361 128.198435 
L 1030.438022 104.603939 
L 1030.912748 90.59918 
L 1031.396104 82.54794 
L 1031.835658 78.239397 
L 1032.315429 75.350802 
L 1032.826235 73.420244 
L 1033.489837 71.802372 
L 1034.283311 70.458661 
L 1035.695454 68.585469 
L 1036.119026 68.065291 
L 1034.957005 197.555808 
L 1034.432971 226.457615 
L 1034.030788 238.937651 
L 1033.586998 247.24549 
L 1033.102268 252.561511 
L 1032.577435 255.905524 
L 1032.013572 258.049664 
L 1031.412032 259.520495 
L 1030.442802 261.142337 
L 1028.66726 263.429585 
L 1019.352715 274.53461 
L 1013.176238 281.884622 
L 1013.498343 243.403006 
L 1014.322801 153.460467 
L 1014.787915 126.481103 
L 1015.326595 109.524641 
L 1015.936329 99.809128 
L 1016.614469 94.54339 
L 1017.358089 91.654304 
L 1018.163877 89.873984 
L 1019.028078 88.536777 
L 1020.914384 86.150433 
L 1034.689858 69.743206 
L 1041.959002 61.092919 
L 1041.96951 61.103723 
L 1040.807769 190.572015 
L 1040.248366 220.843228 
L 1039.929484 230.779582 
L 1039.584961 237.988418 
L 1039.215163 243.081939 
L 1038.820476 246.620144 
L 1038.401306 249.070665 
L 1037.958091 250.796764 
L 1037.491301 252.063827 
L 1036.489076 253.892536 
L 1034.822961 256.094555 
L 1027.353703 265.013426 
L 1001.731891 295.503402 
L 1001.762957 291.109732 
L 1002.727535 179.330372 
L 1003.333444 140.342009 
L 1003.687782 127.910638 
L 1004.07576 119.206841 
L 1004.496911 113.329013 
L 1004.95075 109.448495 
L 1005.43676 106.89028 
L 1005.954389 105.153214 
L 1006.503037 103.89302 
L 1007.690755 102.007673 
L 1009.68714 99.507341 
L 1029.539709 75.871886 
L 1051.694834 49.507273 
L 1051.702585 49.771515 
L 1050.520159 180.673657 
L 1050.177696 201.017064 
L 1049.793327 215.641874 
L 1049.367597 225.577062 
L 1048.901057 232.027661 
L 1048.394278 236.102927 
L 1047.847872 238.683481 
L 1047.262493 240.3949 
L 1046.638856 241.642385 
L 1045.279958 243.605391 
L 1041.275003 248.446591 
L 993.539185 305.252727 
L 993.539185 305.252727 
" clip-path="url(#ped71c29951)" style="fill: none; stroke: #0000ff; stroke-width: 1.5; stroke-linecap: square"/>
   </g>
   <g id="line2d_98">
    <path d="M 1029.534728 169.147911 
L 1029.269418 174.219282 
L 1028.921822 180.163748 
L 1028.055504 208.62784 
L 1027.775312 211.42046 
L 1026.78669 218.064262 
L 1025.480165 231.342216 
L 1025.034403 234.25096 
L 1024.622131 236.109683 
L 1024.209629 237.159052 
L 1022.060077 240.008739 
L 1021.579906 242.179623 
L 1020.994525 246.084639 
L 1020.372663 249.298454 
L 1019.835234 250.840956 
L 1019.322043 251.320218 
L 1018.848259 251.07252 
L 1018.448388 250.736585 
L 1017.110325 250.282103 
L 1016.562922 251.928968 
L 1015.908381 255.374148 
L 1015.256795 257.742734 
L 1014.692013 258.525377 
L 1014.148097 258.299813 
L 1013.255155 256.983164 
L 1012.279167 255.922924 
L 1011.715783 256.710905 
L 1011.057228 259.703297 
L 1010.370673 262.142654 
L 1009.781208 262.874352 
L 1009.217746 262.536252 
L 1007.815487 260.134515 
L 1007.272503 259.426145 
L 1006.689318 260.214239 
L 1006.006716 263.152863 
L 1005.320629 265.243582 
L 1004.729094 265.698138 
L 1004.162136 265.12175 
L 1003.226623 263.222099 
L 1002.73279 262.382153 
L 1002.170647 261.711008 
L 1001.562694 262.983664 
L 1000.851567 265.937166 
L 1000.188874 267.462594 
L 999.601659 267.547675 
L 999.044059 266.696647 
L 998.115253 264.720655 
L 997.591108 263.76742 
L 997.012312 263.418587 
L 996.368126 265.432755 
L 995.645366 268.105933 
L 995.016749 269.011701 
L 994.432928 268.700331 
L 992.410724 264.655923 
L 991.814167 265.001303 
L 991.124139 267.662687 
L 990.422988 269.682442 
L 989.821251 270.03355 
L 989.245338 269.332394 
L 987.781331 266.139671 
L 987.205224 265.379221 
L 986.579189 266.720183 
L 985.855181 269.522621 
L 985.199599 270.752183 
L 984.61007 270.619949 
L 984.055887 269.597289 
L 983.116726 267.450152 
L 982.572625 266.384254 
L 981.98001 266.252136 
L 980.589316 270.871016 
L 979.975086 271.416976 
L 979.392514 270.840223 
L 977.919493 267.533477 
L 977.347415 266.591057 
L 976.730888 267.484132 
L 976.013423 270.266581 
L 975.339165 271.740047 
L 974.745694 271.741233 
L 974.180898 270.785304 
L 973.235428 268.5455 
L 972.700154 267.452255 
L 972.110156 267.03765 
L 970.724739 271.530538 
L 970.099616 272.236755 
L 969.513958 271.762642 
L 967.466199 267.368733 
L 966.855702 267.938767 
L 966.146424 270.648594 
L 965.45844 272.319142 
L 964.861278 272.431646 
L 964.289985 271.543222 
L 963.338135 269.245372 
L 962.810722 268.145305 
L 962.22314 267.542652 
L 961.573966 269.298488 
L 960.844723 271.889233 
L 960.209695 272.73838 
L 959.622209 272.354105 
L 957.572962 267.888096 
L 956.966867 268.205632 
L 956.266072 270.818367 
L 955.567386 272.657771 
L 954.966372 272.87094 
L 954.390664 272.049118 
L 952.912127 268.614894 
L 952.327031 267.876423 
L 951.686211 269.398804 
L 950.956491 272.064886 
L 950.312104 273.048556 
L 949.72324 272.746957 
L 948.708152 270.407565 
L 947.673043 268.249232 
L 947.070464 268.357545 
L 946.378139 270.857426 
L 945.670806 272.846975 
L 945.06561 273.156079 
L 944.486683 272.400279 
L 943.008195 268.946247 
L 942.425749 268.104575 
L 941.792058 269.410671 
L 941.063691 272.123741 
L 940.410246 273.238285 
L 939.820108 273.015469 
L 939.266934 271.914871 
L 938.321424 269.645426 
L 937.769165 268.511239 
L 937.169573 268.439517 
L 935.771219 272.939366 
L 935.161419 273.343015 
L 934.580036 272.653144 
L 933.100946 269.189722 
L 932.521364 268.267444 
L 931.893887 269.369043 
L 931.168278 272.105309 
L 930.505963 273.349589 
L 929.914473 273.20362 
L 929.3559 272.143873 
L 928.409675 269.851297 
L 927.862812 268.710145 
L 927.265873 268.480007 
L 925.870034 272.966702 
L 925.255155 273.465545 
L 924.671845 272.841863 
L 923.191509 269.376191 
L 922.615038 268.390304 
L 921.993041 269.296316 
L 921.271341 272.034167 
L 920.600326 273.408238 
L 920.007287 273.338441 
L 919.443955 272.323362 
L 918.496156 270.010243 
L 917.95483 268.868428 
L 917.36034 268.497285 
L 915.96808 272.948703 
L 915.347622 273.544721 
L 914.762761 272.987702 
L 913.280543 269.525084 
L 912.707457 268.489179 
L 912.090316 269.207162 
L 911.373496 271.926132 
L 910.693988 273.430394 
L 910.099115 273.436978 
L 909.531579 272.469997 
L 908.581389 270.13836 
L 908.045719 269.000323 
L 907.453569 268.503167 
L 906.065861 272.897842 
L 905.439319 273.593919 
L 904.853172 273.104156 
L 902.799036 268.574258 
L 902.186211 269.111335 
L 901.475086 271.791708 
L 900.787371 273.426312 
L 900.190304 273.51017 
L 899.619067 272.594404 
L 898.665703 270.246093 
L 898.135778 269.114913 
L 897.545938 268.505297 
L 896.893289 270.276502 
L 896.163686 272.822107 
L 895.530572 273.621739 
L 894.943311 273.199899 
L 892.890033 268.65198 
L 892.281051 269.015379 
L 891.576291 271.638127 
L 890.880756 273.402521 
L 890.281075 273.565118 
L 889.706601 272.703401 
L 888.749313 270.340314 
L 888.225187 269.218013 
L 887.637697 268.508566 
L 886.992065 270.109981 
L 886.261741 272.726673 
L 885.621602 273.633738 
L 885.033316 273.280542 
L 882.980606 268.726342 
L 882.375056 268.923701 
L 881.677189 271.470585 
L 880.974339 273.363156 
L 880.371569 273.606467 
L 879.794293 272.801354 
L 878.314051 269.313335 
L 877.729013 268.516031 
L 877.089976 269.942966 
L 876.360131 272.61495 
L 875.712568 273.6335 
L 875.123265 273.349732 
L 874.104108 270.992648 
L 873.070853 268.799739 
L 872.468385 268.839255 
L 871.777794 271.293008 
L 871.06826 273.310794 
L 870.461884 273.637271 
L 869.882207 272.891044 
L 868.402432 269.403237 
L 867.820001 268.529508 
L 867.187104 269.77888 
L 866.458901 272.489252 
L 865.803591 273.623312 
L 865.213198 273.409845 
L 864.658793 272.310235 
L 863.712589 270.01906 
L 863.160827 268.873511 
L 862.561154 268.763991 
L 861.162618 273.246998 
L 860.552089 273.659539 
L 859.970375 272.974212 
L 858.490363 269.48921 
L 857.910739 268.549965 
L 857.283506 269.620323 
L 856.558054 272.351241 
L 855.894767 273.604598 
L 855.303135 273.462432 
L 854.743982 272.40256 
L 853.797228 270.096262 
L 853.250555 268.948313 
L 852.653456 268.699151 
L 851.257488 273.172666 
L 850.642239 273.674585 
L 850.058808 273.051919 
L 848.577859 269.572191 
L 848.001283 268.577792 
L 847.379232 269.469296 
L 846.65756 272.202214 
L 845.986175 273.578203 
L 845.393081 273.508506 
L 844.829547 272.492118 
L 843.88141 270.17052 
L 843.340045 269.024359 
L 842.745364 268.645469 
L 841.352919 273.088273 
L 840.732378 273.683261 
L 840.147498 273.124789 
L 838.664925 269.65277 
L 838.091667 268.612979 
L 837.474323 269.327346 
L 836.757366 272.043304 
L 836.077886 273.544574 
L 835.483034 273.548732 
L 834.915508 272.57935 
L 833.965169 270.242653 
L 833.429292 269.101587 
L 832.836938 268.603306 
L 831.448943 272.994037 
L 830.822547 273.686103 
L 830.236431 273.193162 
L 828.181915 268.65524 
L 827.56882 269.19567 
L 826.857398 271.8756 
L 826.169962 273.503887 
L 825.57299 273.583547 
L 825.001874 272.66444 
L 824.048535 270.313265 
L 823.518283 269.179775 
L 822.928231 268.572744 
L 822.27515 270.349702 
L 821.545574 272.890026 
L 820.912788 273.683428 
L 820.325583 273.257199 
L 818.272037 268.704105 
L 817.662764 269.075178 
L 816.957569 271.70023 
L 816.262459 273.456129 
L 815.662946 273.613239 
L 815.088644 272.747399 
L 814.131535 270.382819 
L 813.606998 269.258617 
L 813.019287 268.553646 
L 812.373151 270.164753 
L 811.642809 272.776255 
L 811.003142 273.675396 
L 810.414925 273.316957 
L 808.362036 268.758978 
L 807.756197 268.966543 
L 807.057784 271.518404 
L 806.355429 273.401154 
L 805.752901 273.637998 
L 805.175811 272.828128 
L 803.695417 269.337777 
L 803.110143 268.545713 
L 802.470575 269.985119 
L 801.740631 272.652745 
L 801.09365 273.662053 
L 800.504429 273.37243 
L 799.485911 271.01271 
L 798.451906 268.819192 
L 797.849162 268.870232 
L 797.157945 271.331432 
L 796.448918 273.338725 
L 795.842857 273.657949 
L 795.263361 272.906455 
L 793.783516 269.416925 
L 793.200828 268.548506 
L 792.567403 269.812245 
L 791.839003 272.519573 
L 791.184358 273.643356 
L 790.594064 273.423581 
L 790.040073 272.320431 
L 789.093847 270.029645 
L 788.541636 268.884034 
L 787.941704 268.786535 
L 786.542966 273.268545 
L 785.932823 273.673165 
L 785.351274 272.982168 
L 783.871273 269.495757 
L 783.29137 268.561484 
L 782.66363 269.647426 
L 781.937877 272.376921 
L 781.275311 273.619191 
L 780.6838 273.470365 
L 780.125057 272.406535 
L 779.64804 271.159669 
L 779.64804 271.159669 
" clip-path="url(#ped71c29951)" style="fill: none; stroke-dasharray: 5.55,2.4; stroke-dashoffset: 0; stroke: #ff0000; stroke-width: 1.5"/>
   </g>
   <g id="patch_15">
    <path d="M 766.045313 318.04 
L 766.045313 36.72 
" style="fill: none; stroke: #000000; stroke-width: 0.8; stroke-linejoin: miter; stroke-linecap: square"/>
   </g>
   <g id="patch_16">
    <path d="M 1065.305313 318.04 
L 1065.305313 36.72 
" style="fill: none; stroke: #000000; stroke-width: 0.8; stroke-linejoin: miter; stroke-linecap: square"/>
   </g>
   <g id="patch_17">
    <path d="M 766.045313 318.04 
L 1065.305313 318.04 
" style="fill: none; stroke: #000000; stroke-width: 0.8; stroke-linejoin: miter; stroke-linecap: square"/>
   </g>
   <g id="patch_18">
    <path d="M 766.045313 36.72 
L 1065.305313 36.72 
" style="fill: none; stroke: #000000; stroke-width: 0.8; stroke-linejoin: miter; stroke-linecap: square"/>
   </g>
   <g id="legend_3">
    <g id="patch_19">
     <path d="M 773.045313 74.07625 
L 831.6375 74.07625 
Q 833.6375 74.07625 833.6375 72.07625 
L 833.6375 43.72 
Q 833.6375 41.72 831.6375 41.72 
L 773.045313 41.72 
Q 771.045313 41.72 771.045313 43.72 
L 771.045313 72.07625 
Q 771.045313 74.07625 773.045313 74.07625 
z
" style="fill: #ffffff; opacity: 0.8; stroke: #cccccc; stroke-linejoin: miter"/>
    </g>
    <g id="line2d_99">
     <path d="M 775.045313 49.818437 
L 785.045313 49.818437 
L 795.045313 49.818437 
" style="fill: none; stroke: #0000ff; stroke-width: 1.5; stroke-linecap: square"/>
    </g>
    <g id="text_55">
     <!-- data -->
     <g transform="translate(803.045313 53.318437) scale(0.1 -0.1)">
      <use xlink:href="#DejaVuSans-64"/>
      <use xlink:href="#DejaVuSans-61" x="63.476562"/>
      <use xlink:href="#DejaVuSans-74" x="124.755859"/>
      <use xlink:href="#DejaVuSans-61" x="163.964844"/>
     </g>
    </g>
    <g id="line2d_100">
     <path d="M 775.045313 64.496562 
L 785.045313 64.496562 
L 795.045313 64.496562 
" style="fill: none; stroke-dasharray: 5.55,2.4; stroke-dashoffset: 0; stroke: #ff0000; stroke-width: 1.5"/>
    </g>
    <g id="text_56">
     <!-- sindy -->
     <g transform="translate(803.045313 67.996562) scale(0.1 -0.1)">
      <use xlink:href="#DejaVuSans-73"/>
      <use xlink:href="#DejaVuSans-69" x="52.099609"/>
      <use xlink:href="#DejaVuSans-6e" x="79.882812"/>
      <use xlink:href="#DejaVuSans-64" x="143.261719"/>
      <use xlink:href="#DejaVuSans-79" x="206.738281"/>
     </g>
    </g>
   </g>
  </g>
  <g id="text_57">
   <!-- FL_fr_n3 -->
   <g transform="translate(502.781562 19.3575) scale(0.16 -0.16)">
    <defs>
     <path id="DejaVuSans-46" d="M 628 4666 
L 3309 4666 
L 3309 4134 
L 1259 4134 
L 1259 2759 
L 3109 2759 
L 3109 2228 
L 1259 2228 
L 1259 0 
L 628 0 
L 628 4666 
z
" transform="scale(0.015625)"/>
     <path id="DejaVuSans-4c" d="M 628 4666 
L 1259 4666 
L 1259 531 
L 3531 531 
L 3531 0 
L 628 0 
L 628 4666 
z
" transform="scale(0.015625)"/>
     <path id="DejaVuSans-5f" d="M 3263 -1063 
L 3263 -1509 
L -63 -1509 
L -63 -1063 
L 3263 -1063 
z
" transform="scale(0.015625)"/>
    </defs>
    <use xlink:href="#DejaVuSans-46"/>
    <use xlink:href="#DejaVuSans-4c" x="57.519531"/>
    <use xlink:href="#DejaVuSans-5f" x="113.232422"/>
    <use xlink:href="#DejaVuSans-66" x="163.232422"/>
    <use xlink:href="#DejaVuSans-72" x="198.4375"/>
    <use xlink:href="#DejaVuSans-5f" x="239.550781"/>
    <use xlink:href="#DejaVuSans-6e" x="289.550781"/>
    <use xlink:href="#DejaVuSans-33" x="352.929688"/>
   </g>
  </g>
 </g>
 <defs>
  <clipPath id="pd9ae5a8d85">
   <rect x="55.345313" y="36.72" width="299.26" height="281.32"/>
  </clipPath>
  <clipPath id="pfd8b9d8375">
   <rect x="410.695313" y="36.72" width="299.26" height="281.32"/>
  </clipPath>
  <clipPath id="ped71c29951">
   <rect x="766.045313" y="36.72" width="299.26" height="281.32"/>
  </clipPath>
 </defs>
</svg>
