<?xml version="1.0" encoding="utf-8" standalone="no"?>
<!DOCTYPE svg PUBLIC "-//W3C//DTD SVG 1.1//EN"
  "http://www.w3.org/Graphics/SVG/1.1/DTD/svg11.dtd">
<svg xmlns:xlink="http://www.w3.org/1999/xlink" width="1072.380312pt" height="355.59625pt" viewBox="0 0 1072.380312 355.59625" xmlns="http://www.w3.org/2000/svg" version="1.1">
 <metadata>
  <rdf:RDF xmlns:dc="http://purl.org/dc/elements/1.1/" xmlns:cc="http://creativecommons.org/ns#" xmlns:rdf="http://www.w3.org/1999/02/22-rdf-syntax-ns#">
   <cc:Work>
    <dc:type rdf:resource="http://purl.org/dc/dcmitype/StillImage"/>
    <dc:date>2025-01-24T15:06:42.413093</dc:date>
    <dc:format>image/svg+xml</dc:format>
    <dc:creator>
     <cc:Agent>
      <dc:title>Matplotlib v3.9.2, https://matplotlib.org/</dc:title>
     </cc:Agent>
    </dc:creator>
   </cc:Work>
  </rdf:RDF>
 </metadata>
 <defs>
  <style type="text/css">*{stroke-linejoin: round; stroke-linecap: butt}</style>
 </defs>
 <g id="figure_1">
  <g id="patch_1">
   <path d="M 0 355.59625 
L 1072.380312 355.59625 
L 1072.380312 0 
L 0 0 
z
" style="fill: #ffffff"/>
  </g>
  <g id="axes_1">
   <g id="patch_2">
    <path d="M 42.620313 318.04 
L 341.880313 318.04 
L 341.880313 36 
L 42.620313 36 
z
" style="fill: #ffffff"/>
   </g>
   <g id="matplotlib.axis_1">
    <g id="xtick_1">
     <g id="line2d_1">
      <path d="M 56.22304 318.04 
L 56.22304 36 
" clip-path="url(#p05a3f2fe88)" style="fill: none; stroke: #b0b0b0; stroke-width: 0.8; stroke-linecap: square"/>
     </g>
     <g id="line2d_2">
      <defs>
       <path id="ma89bd5cbd7" d="M 0 0 
L 0 3.5 
" style="stroke: #000000; stroke-width: 0.8"/>
      </defs>
      <g>
       <use xlink:href="#ma89bd5cbd7" x="56.22304" y="318.04" style="stroke: #000000; stroke-width: 0.8"/>
      </g>
     </g>
     <g id="text_1">
      <!-- 0.0 -->
      <g transform="translate(48.271477 332.638437) scale(0.1 -0.1)">
       <defs>
        <path id="DejaVuSans-30" d="M 2034 4250 
Q 1547 4250 1301 3770 
Q 1056 3291 1056 2328 
Q 1056 1369 1301 889 
Q 1547 409 2034 409 
Q 2525 409 2770 889 
Q 3016 1369 3016 2328 
Q 3016 3291 2770 3770 
Q 2525 4250 2034 4250 
z
M 2034 4750 
Q 2819 4750 3233 4129 
Q 3647 3509 3647 2328 
Q 3647 1150 3233 529 
Q 2819 -91 2034 -91 
Q 1250 -91 836 529 
Q 422 1150 422 2328 
Q 422 3509 836 4129 
Q 1250 4750 2034 4750 
z
" transform="scale(0.015625)"/>
        <path id="DejaVuSans-2e" d="M 684 794 
L 1344 794 
L 1344 0 
L 684 0 
L 684 794 
z
" transform="scale(0.015625)"/>
       </defs>
       <use xlink:href="#DejaVuSans-30"/>
       <use xlink:href="#DejaVuSans-2e" x="63.623047"/>
       <use xlink:href="#DejaVuSans-30" x="95.410156"/>
      </g>
     </g>
    </g>
    <g id="xtick_2">
     <g id="line2d_3">
      <path d="M 90.229858 318.04 
L 90.229858 36 
" clip-path="url(#p05a3f2fe88)" style="fill: none; stroke: #b0b0b0; stroke-width: 0.8; stroke-linecap: square"/>
     </g>
     <g id="line2d_4">
      <g>
       <use xlink:href="#ma89bd5cbd7" x="90.229858" y="318.04" style="stroke: #000000; stroke-width: 0.8"/>
      </g>
     </g>
     <g id="text_2">
      <!-- 2.5 -->
      <g transform="translate(82.278295 332.638437) scale(0.1 -0.1)">
       <defs>
        <path id="DejaVuSans-32" d="M 1228 531 
L 3431 531 
L 3431 0 
L 469 0 
L 469 531 
Q 828 903 1448 1529 
Q 2069 2156 2228 2338 
Q 2531 2678 2651 2914 
Q 2772 3150 2772 3378 
Q 2772 3750 2511 3984 
Q 2250 4219 1831 4219 
Q 1534 4219 1204 4116 
Q 875 4013 500 3803 
L 500 4441 
Q 881 4594 1212 4672 
Q 1544 4750 1819 4750 
Q 2544 4750 2975 4387 
Q 3406 4025 3406 3419 
Q 3406 3131 3298 2873 
Q 3191 2616 2906 2266 
Q 2828 2175 2409 1742 
Q 1991 1309 1228 531 
z
" transform="scale(0.015625)"/>
        <path id="DejaVuSans-35" d="M 691 4666 
L 3169 4666 
L 3169 4134 
L 1269 4134 
L 1269 2991 
Q 1406 3038 1543 3061 
Q 1681 3084 1819 3084 
Q 2600 3084 3056 2656 
Q 3513 2228 3513 1497 
Q 3513 744 3044 326 
Q 2575 -91 1722 -91 
Q 1428 -91 1123 -41 
Q 819 9 494 109 
L 494 744 
Q 775 591 1075 516 
Q 1375 441 1709 441 
Q 2250 441 2565 725 
Q 2881 1009 2881 1497 
Q 2881 1984 2565 2268 
Q 2250 2553 1709 2553 
Q 1456 2553 1204 2497 
Q 953 2441 691 2322 
L 691 4666 
z
" transform="scale(0.015625)"/>
       </defs>
       <use xlink:href="#DejaVuSans-32"/>
       <use xlink:href="#DejaVuSans-2e" x="63.623047"/>
       <use xlink:href="#DejaVuSans-35" x="95.410156"/>
      </g>
     </g>
    </g>
    <g id="xtick_3">
     <g id="line2d_5">
      <path d="M 124.236676 318.04 
L 124.236676 36 
" clip-path="url(#p05a3f2fe88)" style="fill: none; stroke: #b0b0b0; stroke-width: 0.8; stroke-linecap: square"/>
     </g>
     <g id="line2d_6">
      <g>
       <use xlink:href="#ma89bd5cbd7" x="124.236676" y="318.04" style="stroke: #000000; stroke-width: 0.8"/>
      </g>
     </g>
     <g id="text_3">
      <!-- 5.0 -->
      <g transform="translate(116.285114 332.638437) scale(0.1 -0.1)">
       <use xlink:href="#DejaVuSans-35"/>
       <use xlink:href="#DejaVuSans-2e" x="63.623047"/>
       <use xlink:href="#DejaVuSans-30" x="95.410156"/>
      </g>
     </g>
    </g>
    <g id="xtick_4">
     <g id="line2d_7">
      <path d="M 158.243494 318.04 
L 158.243494 36 
" clip-path="url(#p05a3f2fe88)" style="fill: none; stroke: #b0b0b0; stroke-width: 0.8; stroke-linecap: square"/>
     </g>
     <g id="line2d_8">
      <g>
       <use xlink:href="#ma89bd5cbd7" x="158.243494" y="318.04" style="stroke: #000000; stroke-width: 0.8"/>
      </g>
     </g>
     <g id="text_4">
      <!-- 7.5 -->
      <g transform="translate(150.291932 332.638437) scale(0.1 -0.1)">
       <defs>
        <path id="DejaVuSans-37" d="M 525 4666 
L 3525 4666 
L 3525 4397 
L 1831 0 
L 1172 0 
L 2766 4134 
L 525 4134 
L 525 4666 
z
" transform="scale(0.015625)"/>
       </defs>
       <use xlink:href="#DejaVuSans-37"/>
       <use xlink:href="#DejaVuSans-2e" x="63.623047"/>
       <use xlink:href="#DejaVuSans-35" x="95.410156"/>
      </g>
     </g>
    </g>
    <g id="xtick_5">
     <g id="line2d_9">
      <path d="M 192.250313 318.04 
L 192.250313 36 
" clip-path="url(#p05a3f2fe88)" style="fill: none; stroke: #b0b0b0; stroke-width: 0.8; stroke-linecap: square"/>
     </g>
     <g id="line2d_10">
      <g>
       <use xlink:href="#ma89bd5cbd7" x="192.250313" y="318.04" style="stroke: #000000; stroke-width: 0.8"/>
      </g>
     </g>
     <g id="text_5">
      <!-- 10.0 -->
      <g transform="translate(181.1175 332.638437) scale(0.1 -0.1)">
       <defs>
        <path id="DejaVuSans-31" d="M 794 531 
L 1825 531 
L 1825 4091 
L 703 3866 
L 703 4441 
L 1819 4666 
L 2450 4666 
L 2450 531 
L 3481 531 
L 3481 0 
L 794 0 
L 794 531 
z
" transform="scale(0.015625)"/>
       </defs>
       <use xlink:href="#DejaVuSans-31"/>
       <use xlink:href="#DejaVuSans-30" x="63.623047"/>
       <use xlink:href="#DejaVuSans-2e" x="127.246094"/>
       <use xlink:href="#DejaVuSans-30" x="159.033203"/>
      </g>
     </g>
    </g>
    <g id="xtick_6">
     <g id="line2d_11">
      <path d="M 226.257131 318.04 
L 226.257131 36 
" clip-path="url(#p05a3f2fe88)" style="fill: none; stroke: #b0b0b0; stroke-width: 0.8; stroke-linecap: square"/>
     </g>
     <g id="line2d_12">
      <g>
       <use xlink:href="#ma89bd5cbd7" x="226.257131" y="318.04" style="stroke: #000000; stroke-width: 0.8"/>
      </g>
     </g>
     <g id="text_6">
      <!-- 12.5 -->
      <g transform="translate(215.124318 332.638437) scale(0.1 -0.1)">
       <use xlink:href="#DejaVuSans-31"/>
       <use xlink:href="#DejaVuSans-32" x="63.623047"/>
       <use xlink:href="#DejaVuSans-2e" x="127.246094"/>
       <use xlink:href="#DejaVuSans-35" x="159.033203"/>
      </g>
     </g>
    </g>
    <g id="xtick_7">
     <g id="line2d_13">
      <path d="M 260.263949 318.04 
L 260.263949 36 
" clip-path="url(#p05a3f2fe88)" style="fill: none; stroke: #b0b0b0; stroke-width: 0.8; stroke-linecap: square"/>
     </g>
     <g id="line2d_14">
      <g>
       <use xlink:href="#ma89bd5cbd7" x="260.263949" y="318.04" style="stroke: #000000; stroke-width: 0.8"/>
      </g>
     </g>
     <g id="text_7">
      <!-- 15.0 -->
      <g transform="translate(249.131136 332.638437) scale(0.1 -0.1)">
       <use xlink:href="#DejaVuSans-31"/>
       <use xlink:href="#DejaVuSans-35" x="63.623047"/>
       <use xlink:href="#DejaVuSans-2e" x="127.246094"/>
       <use xlink:href="#DejaVuSans-30" x="159.033203"/>
      </g>
     </g>
    </g>
    <g id="xtick_8">
     <g id="line2d_15">
      <path d="M 294.270767 318.04 
L 294.270767 36 
" clip-path="url(#p05a3f2fe88)" style="fill: none; stroke: #b0b0b0; stroke-width: 0.8; stroke-linecap: square"/>
     </g>
     <g id="line2d_16">
      <g>
       <use xlink:href="#ma89bd5cbd7" x="294.270767" y="318.04" style="stroke: #000000; stroke-width: 0.8"/>
      </g>
     </g>
     <g id="text_8">
      <!-- 17.5 -->
      <g transform="translate(283.137955 332.638437) scale(0.1 -0.1)">
       <use xlink:href="#DejaVuSans-31"/>
       <use xlink:href="#DejaVuSans-37" x="63.623047"/>
       <use xlink:href="#DejaVuSans-2e" x="127.246094"/>
       <use xlink:href="#DejaVuSans-35" x="159.033203"/>
      </g>
     </g>
    </g>
    <g id="xtick_9">
     <g id="line2d_17">
      <path d="M 328.277585 318.04 
L 328.277585 36 
" clip-path="url(#p05a3f2fe88)" style="fill: none; stroke: #b0b0b0; stroke-width: 0.8; stroke-linecap: square"/>
     </g>
     <g id="line2d_18">
      <g>
       <use xlink:href="#ma89bd5cbd7" x="328.277585" y="318.04" style="stroke: #000000; stroke-width: 0.8"/>
      </g>
     </g>
     <g id="text_9">
      <!-- 20.0 -->
      <g transform="translate(317.144773 332.638437) scale(0.1 -0.1)">
       <use xlink:href="#DejaVuSans-32"/>
       <use xlink:href="#DejaVuSans-30" x="63.623047"/>
       <use xlink:href="#DejaVuSans-2e" x="127.246094"/>
       <use xlink:href="#DejaVuSans-30" x="159.033203"/>
      </g>
     </g>
    </g>
    <g id="text_10">
     <!-- t -->
     <g transform="translate(190.290156 346.316562) scale(0.1 -0.1)">
      <defs>
       <path id="DejaVuSans-74" d="M 1172 4494 
L 1172 3500 
L 2356 3500 
L 2356 3053 
L 1172 3053 
L 1172 1153 
Q 1172 725 1289 603 
Q 1406 481 1766 481 
L 2356 481 
L 2356 0 
L 1766 0 
Q 1100 0 847 248 
Q 594 497 594 1153 
L 594 3053 
L 172 3053 
L 172 3500 
L 594 3500 
L 594 4494 
L 1172 4494 
z
" transform="scale(0.015625)"/>
      </defs>
      <use xlink:href="#DejaVuSans-74"/>
     </g>
    </g>
   </g>
   <g id="matplotlib.axis_2">
    <g id="ytick_1">
     <g id="line2d_19">
      <path d="M 42.620313 312.071634 
L 341.880313 312.071634 
" clip-path="url(#p05a3f2fe88)" style="fill: none; stroke: #b0b0b0; stroke-width: 0.8; stroke-linecap: square"/>
     </g>
     <g id="line2d_20">
      <defs>
       <path id="m01910e1a14" d="M 0 0 
L -3.5 0 
" style="stroke: #000000; stroke-width: 0.8"/>
      </defs>
      <g>
       <use xlink:href="#m01910e1a14" x="42.620313" y="312.071634" style="stroke: #000000; stroke-width: 0.8"/>
      </g>
     </g>
     <g id="text_11">
      <!-- −4 -->
      <g transform="translate(20.878125 315.870852) scale(0.1 -0.1)">
       <defs>
        <path id="DejaVuSans-2212" d="M 678 2272 
L 4684 2272 
L 4684 1741 
L 678 1741 
L 678 2272 
z
" transform="scale(0.015625)"/>
        <path id="DejaVuSans-34" d="M 2419 4116 
L 825 1625 
L 2419 1625 
L 2419 4116 
z
M 2253 4666 
L 3047 4666 
L 3047 1625 
L 3713 1625 
L 3713 1100 
L 3047 1100 
L 3047 0 
L 2419 0 
L 2419 1100 
L 313 1100 
L 313 1709 
L 2253 4666 
z
" transform="scale(0.015625)"/>
       </defs>
       <use xlink:href="#DejaVuSans-2212"/>
       <use xlink:href="#DejaVuSans-34" x="83.789062"/>
      </g>
     </g>
    </g>
    <g id="ytick_2">
     <g id="line2d_21">
      <path d="M 42.620313 260.794278 
L 341.880313 260.794278 
" clip-path="url(#p05a3f2fe88)" style="fill: none; stroke: #b0b0b0; stroke-width: 0.8; stroke-linecap: square"/>
     </g>
     <g id="line2d_22">
      <g>
       <use xlink:href="#m01910e1a14" x="42.620313" y="260.794278" style="stroke: #000000; stroke-width: 0.8"/>
      </g>
     </g>
     <g id="text_12">
      <!-- −3 -->
      <g transform="translate(20.878125 264.593496) scale(0.1 -0.1)">
       <defs>
        <path id="DejaVuSans-33" d="M 2597 2516 
Q 3050 2419 3304 2112 
Q 3559 1806 3559 1356 
Q 3559 666 3084 287 
Q 2609 -91 1734 -91 
Q 1441 -91 1130 -33 
Q 819 25 488 141 
L 488 750 
Q 750 597 1062 519 
Q 1375 441 1716 441 
Q 2309 441 2620 675 
Q 2931 909 2931 1356 
Q 2931 1769 2642 2001 
Q 2353 2234 1838 2234 
L 1294 2234 
L 1294 2753 
L 1863 2753 
Q 2328 2753 2575 2939 
Q 2822 3125 2822 3475 
Q 2822 3834 2567 4026 
Q 2313 4219 1838 4219 
Q 1578 4219 1281 4162 
Q 984 4106 628 3988 
L 628 4550 
Q 988 4650 1302 4700 
Q 1616 4750 1894 4750 
Q 2613 4750 3031 4423 
Q 3450 4097 3450 3541 
Q 3450 3153 3228 2886 
Q 3006 2619 2597 2516 
z
" transform="scale(0.015625)"/>
       </defs>
       <use xlink:href="#DejaVuSans-2212"/>
       <use xlink:href="#DejaVuSans-33" x="83.789062"/>
      </g>
     </g>
    </g>
    <g id="ytick_3">
     <g id="line2d_23">
      <path d="M 42.620313 209.516922 
L 341.880313 209.516922 
" clip-path="url(#p05a3f2fe88)" style="fill: none; stroke: #b0b0b0; stroke-width: 0.8; stroke-linecap: square"/>
     </g>
     <g id="line2d_24">
      <g>
       <use xlink:href="#m01910e1a14" x="42.620313" y="209.516922" style="stroke: #000000; stroke-width: 0.8"/>
      </g>
     </g>
     <g id="text_13">
      <!-- −2 -->
      <g transform="translate(20.878125 213.31614) scale(0.1 -0.1)">
       <use xlink:href="#DejaVuSans-2212"/>
       <use xlink:href="#DejaVuSans-32" x="83.789062"/>
      </g>
     </g>
    </g>
    <g id="ytick_4">
     <g id="line2d_25">
      <path d="M 42.620313 158.239566 
L 341.880313 158.239566 
" clip-path="url(#p05a3f2fe88)" style="fill: none; stroke: #b0b0b0; stroke-width: 0.8; stroke-linecap: square"/>
     </g>
     <g id="line2d_26">
      <g>
       <use xlink:href="#m01910e1a14" x="42.620313" y="158.239566" style="stroke: #000000; stroke-width: 0.8"/>
      </g>
     </g>
     <g id="text_14">
      <!-- −1 -->
      <g transform="translate(20.878125 162.038784) scale(0.1 -0.1)">
       <use xlink:href="#DejaVuSans-2212"/>
       <use xlink:href="#DejaVuSans-31" x="83.789062"/>
      </g>
     </g>
    </g>
    <g id="ytick_5">
     <g id="line2d_27">
      <path d="M 42.620313 106.96221 
L 341.880313 106.96221 
" clip-path="url(#p05a3f2fe88)" style="fill: none; stroke: #b0b0b0; stroke-width: 0.8; stroke-linecap: square"/>
     </g>
     <g id="line2d_28">
      <g>
       <use xlink:href="#m01910e1a14" x="42.620313" y="106.96221" style="stroke: #000000; stroke-width: 0.8"/>
      </g>
     </g>
     <g id="text_15">
      <!-- 0 -->
      <g transform="translate(29.257813 110.761428) scale(0.1 -0.1)">
       <use xlink:href="#DejaVuSans-30"/>
      </g>
     </g>
    </g>
    <g id="ytick_6">
     <g id="line2d_29">
      <path d="M 42.620313 55.684854 
L 341.880313 55.684854 
" clip-path="url(#p05a3f2fe88)" style="fill: none; stroke: #b0b0b0; stroke-width: 0.8; stroke-linecap: square"/>
     </g>
     <g id="line2d_30">
      <g>
       <use xlink:href="#m01910e1a14" x="42.620313" y="55.684854" style="stroke: #000000; stroke-width: 0.8"/>
      </g>
     </g>
     <g id="text_16">
      <!-- 1 -->
      <g transform="translate(29.257813 59.484072) scale(0.1 -0.1)">
       <use xlink:href="#DejaVuSans-31"/>
      </g>
     </g>
    </g>
    <g id="text_17">
     <!-- x(t) -->
     <g transform="translate(14.798438 185.841094) rotate(-90) scale(0.1 -0.1)">
      <defs>
       <path id="DejaVuSans-78" d="M 3513 3500 
L 2247 1797 
L 3578 0 
L 2900 0 
L 1881 1375 
L 863 0 
L 184 0 
L 1544 1831 
L 300 3500 
L 978 3500 
L 1906 2253 
L 2834 3500 
L 3513 3500 
z
" transform="scale(0.015625)"/>
       <path id="DejaVuSans-28" d="M 1984 4856 
Q 1566 4138 1362 3434 
Q 1159 2731 1159 2009 
Q 1159 1288 1364 580 
Q 1569 -128 1984 -844 
L 1484 -844 
Q 1016 -109 783 600 
Q 550 1309 550 2009 
Q 550 2706 781 3412 
Q 1013 4119 1484 4856 
L 1984 4856 
z
" transform="scale(0.015625)"/>
       <path id="DejaVuSans-29" d="M 513 4856 
L 1013 4856 
Q 1481 4119 1714 3412 
Q 1947 2706 1947 2009 
Q 1947 1309 1714 600 
Q 1481 -109 1013 -844 
L 513 -844 
Q 928 -128 1133 580 
Q 1338 1288 1338 2009 
Q 1338 2731 1133 3434 
Q 928 4138 513 4856 
z
" transform="scale(0.015625)"/>
      </defs>
      <use xlink:href="#DejaVuSans-78"/>
      <use xlink:href="#DejaVuSans-28" x="59.179688"/>
      <use xlink:href="#DejaVuSans-74" x="98.193359"/>
      <use xlink:href="#DejaVuSans-29" x="137.402344"/>
     </g>
    </g>
   </g>
   <g id="line2d_31">
    <path d="M 56.22304 106.96221 
L 67.388442 106.854817 
L 71.745671 106.5855 
L 75.285921 106.159242 
L 78.553843 105.55448 
L 81.821766 104.725274 
L 85.089688 103.675019 
L 88.902264 102.215149 
L 100.61232 97.528785 
L 103.063262 96.880955 
L 105.241877 96.517425 
L 107.148165 96.399054 
L 109.054453 96.49569 
L 110.960741 96.83164 
L 112.867029 97.427167 
L 114.50099 98.155976 
L 116.407279 99.26984 
L 118.313567 100.671193 
L 120.219855 102.35711 
L 122.39847 104.618701 
L 124.577085 107.210458 
L 127.028027 110.46974 
L 130.023622 114.839596 
L 134.925506 122.472261 
L 139.282736 129.12607 
L 142.006005 132.8975 
L 144.18462 135.557139 
L 146.090908 137.548431 
L 147.724869 138.960769 
L 149.35883 140.065902 
L 150.720464 140.729717 
L 152.082099 141.14219 
L 153.443733 141.288527 
L 154.533041 141.205204 
L 155.622348 140.937646 
L 156.711656 140.481444 
L 158.07329 139.641206 
L 159.434924 138.498023 
L 160.796559 137.051858 
L 162.158193 135.306069 
L 163.792154 132.825471 
L 165.426116 129.94185 
L 167.332404 126.102826 
L 169.511019 121.155001 
L 171.961961 114.993551 
L 175.229883 106.083893 
L 184.488997 80.333763 
L 186.939938 74.354562 
L 189.118553 69.63512 
L 191.024842 66.064889 
L 192.658803 63.479826 
L 194.020437 61.693536 
L 195.382072 60.265734 
L 196.471379 59.395162 
L 197.560687 58.776006 
L 198.649994 58.416261 
L 199.739301 58.322753 
L 200.828609 58.501038 
L 201.917916 58.955033 
L 203.007224 59.686753 
L 204.096531 60.696248 
L 205.185839 61.981584 
L 206.547473 63.969958 
L 207.909108 66.37093 
L 209.543069 69.77253 
L 211.17703 73.705338 
L 213.083318 78.900825 
L 215.261933 85.526417 
L 217.985202 94.603323 
L 222.070105 109.131198 
L 226.971989 126.422301 
L 229.695257 135.239612 
L 231.873872 141.598973 
L 233.780161 146.523968 
L 235.414122 150.194697 
L 237.048083 153.30002 
L 238.409717 155.421015 
L 239.771352 157.091371 
L 240.860659 158.0888 
L 241.949967 158.774849 
L 243.039274 159.141684 
L 243.856255 159.203479 
L 244.673235 159.080082 
L 245.490216 158.770096 
L 246.579524 158.065541 
L 247.668831 157.028849 
L 248.758139 155.663104 
L 249.847446 153.973846 
L 251.20908 151.419732 
L 252.570715 148.393675 
L 254.204676 144.177313 
L 256.110964 138.523982 
L 258.289579 131.228544 
L 260.740521 122.185584 
L 264.28077 108.170134 
L 270.271961 84.382155 
L 272.99523 74.554888 
L 275.173845 67.508998 
L 277.080133 62.090404 
L 278.714094 58.085952 
L 280.075729 55.246667 
L 281.437363 52.893319 
L 282.526671 51.379162 
L 283.615978 50.20607 
L 284.705286 49.384754 
L 285.522266 49.005103 
L 286.339247 48.831576 
L 287.156228 48.866743 
L 287.973208 49.112506 
L 288.790189 49.56992 
L 289.607169 50.239149 
L 290.696477 51.45954 
L 291.785784 53.050843 
L 292.875092 55.005983 
L 294.236726 57.94623 
L 295.598361 61.413956 
L 297.232322 66.226142 
L 299.13861 72.651905 
L 301.317225 80.908587 
L 304.040494 92.271125 
L 308.125397 110.476857 
L 312.754954 130.922159 
L 315.478222 141.973351 
L 317.656837 149.93348 
L 319.563125 156.086469 
L 321.197087 160.661107 
L 322.558721 163.927807 
L 323.920355 166.66076 
L 325.009663 168.441629 
L 326.09897 169.846653 
L 327.188278 170.86352 
L 328.005258 171.365092 
L 328.277585 171.481794 
L 328.277585 171.481794 
" clip-path="url(#p05a3f2fe88)" style="fill: none; stroke: #0000ff; stroke-width: 1.5; stroke-linecap: square"/>
   </g>
   <g id="line2d_32">
    <path d="M 56.22304 106.96221 
L 58.946308 107.458772 
L 61.941904 107.7763 
L 65.482153 107.929483 
L 69.29473 107.882839 
L 73.107306 107.626153 
L 76.647555 107.175103 
L 79.915478 106.546647 
L 83.1834 105.692279 
L 86.451323 104.60607 
L 89.991572 103.186595 
L 94.348802 101.177415 
L 101.973954 97.611632 
L 104.697223 96.600071 
L 107.148165 95.931632 
L 109.32678 95.586115 
L 111.233068 95.519021 
L 112.867029 95.661199 
L 114.50099 96.003086 
L 116.134952 96.553781 
L 117.768913 97.316831 
L 119.675201 98.472614 
L 121.581489 99.903283 
L 123.760104 101.851806 
L 126.211046 104.396479 
L 128.661988 107.252677 
L 131.11293 110.437398 
L 133.563872 114.00218 
L 137.376448 120.051046 
L 140.372043 124.644412 
L 142.278331 127.214641 
L 143.912293 129.105611 
L 145.546254 130.671603 
L 147.180215 131.899513 
L 148.541849 132.665594 
L 149.903484 133.204304 
L 151.265118 133.524374 
L 152.626753 133.635642 
L 153.988387 133.547738 
L 155.350021 133.254677 
L 156.711656 132.733492 
L 158.07329 131.967801 
L 159.434924 130.948657 
L 160.796559 129.673273 
L 162.43052 127.807235 
L 164.064481 125.582457 
L 165.698442 123.006867 
L 167.604731 119.5632 
L 169.511019 115.641192 
L 171.417307 111.230105 
L 173.868249 104.948889 
L 177.408498 95.29143 
L 184.761324 74.816439 
L 186.667612 70.270471 
L 188.301573 66.852507 
L 189.935534 63.906813 
L 191.569495 61.426935 
L 193.203457 59.388993 
L 194.565091 58.009276 
L 195.926725 56.907304 
L 197.28836 56.078932 
L 198.649994 55.527852 
L 199.739301 55.294107 
L 200.828609 55.27004 
L 201.64559 55.428661 
L 202.46257 55.769646 
L 203.279551 56.316753 
L 204.096531 57.088272 
L 205.185839 58.484438 
L 206.275146 60.30301 
L 207.364454 62.52244 
L 208.726088 65.793659 
L 210.36005 70.300572 
L 212.538664 76.980779 
L 216.078914 88.661791 
L 220.708471 104.635179 
L 223.431739 114.692962 
L 226.155008 125.846712 
L 228.60595 135.682445 
L 230.239911 141.440251 
L 231.873872 146.362597 
L 233.507834 150.490568 
L 235.141795 153.946927 
L 236.775756 156.863894 
L 238.409717 159.351476 
L 240.316005 161.815248 
L 242.222294 163.87428 
L 243.856255 165.328468 
L 245.217889 166.25581 
L 246.03487 166.595019 
L 246.85185 166.694335 
L 247.396504 166.592227 
L 247.941158 166.329957 
L 248.485812 165.886414 
L 249.302792 164.841659 
L 250.119773 163.306767 
L 250.936753 161.278307 
L 252.026061 157.885891 
L 253.387695 152.846008 
L 262.374482 117.803888 
L 268.365673 95.67672 
L 272.722903 80.58132 
L 274.901518 73.746408 
L 276.807806 68.503708 
L 278.441768 64.665927 
L 280.075729 61.446952 
L 281.437363 59.212544 
L 282.798998 57.353543 
L 284.160632 55.841416 
L 285.522266 54.655701 
L 286.883901 53.787883 
L 287.973208 53.358048 
L 288.790189 53.253371 
L 289.607169 53.384944 
L 290.42415 53.79332 
L 291.241131 54.511618 
L 292.058111 55.561669 
L 292.875092 56.950756 
L 293.964399 59.312784 
L 295.053707 62.198852 
L 296.415341 66.400507 
L 298.321629 73.037798 
L 301.589552 85.361376 
L 307.580743 108.786149 
L 309.487031 116.972502 
L 312.2103 129.849316 
L 314.661242 141.041071 
L 316.295203 147.552624 
L 317.929164 153.25439 
L 320.107779 160.02042 
L 322.558721 167.658406 
L 323.648028 171.717188 
L 324.465009 175.485462 
L 325.28199 180.497219 
L 325.826643 185.166563 
L 326.371297 191.997855 
L 326.915951 203.752597 
L 327.188278 213.975618 
L 327.460605 231.090158 
L 328.005258 305.22 
L 328.277585 305.22 
L 328.277585 305.22 
" clip-path="url(#p05a3f2fe88)" style="fill: none; stroke-dasharray: 5.55,2.4; stroke-dashoffset: 0; stroke: #ff0000; stroke-width: 1.5"/>
   </g>
   <g id="patch_3">
    <path d="M 42.620313 318.04 
L 42.620313 36 
" style="fill: none; stroke: #000000; stroke-width: 0.8; stroke-linejoin: miter; stroke-linecap: square"/>
   </g>
   <g id="patch_4">
    <path d="M 341.880313 318.04 
L 341.880313 36 
" style="fill: none; stroke: #000000; stroke-width: 0.8; stroke-linejoin: miter; stroke-linecap: square"/>
   </g>
   <g id="patch_5">
    <path d="M 42.620313 318.04 
L 341.880313 318.04 
" style="fill: none; stroke: #000000; stroke-width: 0.8; stroke-linejoin: miter; stroke-linecap: square"/>
   </g>
   <g id="patch_6">
    <path d="M 42.620313 36 
L 341.880313 36 
" style="fill: none; stroke: #000000; stroke-width: 0.8; stroke-linejoin: miter; stroke-linecap: square"/>
   </g>
   <g id="legend_1">
    <g id="patch_7">
     <path d="M 49.620313 73.35625 
L 108.2125 73.35625 
Q 110.2125 73.35625 110.2125 71.35625 
L 110.2125 43 
Q 110.2125 41 108.2125 41 
L 49.620313 41 
Q 47.620313 41 47.620313 43 
L 47.620313 71.35625 
Q 47.620313 73.35625 49.620313 73.35625 
z
" style="fill: #ffffff; opacity: 0.8; stroke: #cccccc; stroke-linejoin: miter"/>
    </g>
    <g id="line2d_33">
     <path d="M 51.620313 49.098437 
L 61.620313 49.098437 
L 71.620313 49.098437 
" style="fill: none; stroke: #0000ff; stroke-width: 1.5; stroke-linecap: square"/>
    </g>
    <g id="text_18">
     <!-- data -->
     <g transform="translate(79.620313 52.598437) scale(0.1 -0.1)">
      <defs>
       <path id="DejaVuSans-64" d="M 2906 2969 
L 2906 4863 
L 3481 4863 
L 3481 0 
L 2906 0 
L 2906 525 
Q 2725 213 2448 61 
Q 2172 -91 1784 -91 
Q 1150 -91 751 415 
Q 353 922 353 1747 
Q 353 2572 751 3078 
Q 1150 3584 1784 3584 
Q 2172 3584 2448 3432 
Q 2725 3281 2906 2969 
z
M 947 1747 
Q 947 1113 1208 752 
Q 1469 391 1925 391 
Q 2381 391 2643 752 
Q 2906 1113 2906 1747 
Q 2906 2381 2643 2742 
Q 2381 3103 1925 3103 
Q 1469 3103 1208 2742 
Q 947 2381 947 1747 
z
" transform="scale(0.015625)"/>
       <path id="DejaVuSans-61" d="M 2194 1759 
Q 1497 1759 1228 1600 
Q 959 1441 959 1056 
Q 959 750 1161 570 
Q 1363 391 1709 391 
Q 2188 391 2477 730 
Q 2766 1069 2766 1631 
L 2766 1759 
L 2194 1759 
z
M 3341 1997 
L 3341 0 
L 2766 0 
L 2766 531 
Q 2569 213 2275 61 
Q 1981 -91 1556 -91 
Q 1019 -91 701 211 
Q 384 513 384 1019 
Q 384 1609 779 1909 
Q 1175 2209 1959 2209 
L 2766 2209 
L 2766 2266 
Q 2766 2663 2505 2880 
Q 2244 3097 1772 3097 
Q 1472 3097 1187 3025 
Q 903 2953 641 2809 
L 641 3341 
Q 956 3463 1253 3523 
Q 1550 3584 1831 3584 
Q 2591 3584 2966 3190 
Q 3341 2797 3341 1997 
z
" transform="scale(0.015625)"/>
      </defs>
      <use xlink:href="#DejaVuSans-64"/>
      <use xlink:href="#DejaVuSans-61" x="63.476562"/>
      <use xlink:href="#DejaVuSans-74" x="124.755859"/>
      <use xlink:href="#DejaVuSans-61" x="163.964844"/>
     </g>
    </g>
    <g id="line2d_34">
     <path d="M 51.620313 63.776562 
L 61.620313 63.776562 
L 71.620313 63.776562 
" style="fill: none; stroke-dasharray: 5.55,2.4; stroke-dashoffset: 0; stroke: #ff0000; stroke-width: 1.5"/>
    </g>
    <g id="text_19">
     <!-- sindy -->
     <g transform="translate(79.620313 67.276562) scale(0.1 -0.1)">
      <defs>
       <path id="DejaVuSans-73" d="M 2834 3397 
L 2834 2853 
Q 2591 2978 2328 3040 
Q 2066 3103 1784 3103 
Q 1356 3103 1142 2972 
Q 928 2841 928 2578 
Q 928 2378 1081 2264 
Q 1234 2150 1697 2047 
L 1894 2003 
Q 2506 1872 2764 1633 
Q 3022 1394 3022 966 
Q 3022 478 2636 193 
Q 2250 -91 1575 -91 
Q 1294 -91 989 -36 
Q 684 19 347 128 
L 347 722 
Q 666 556 975 473 
Q 1284 391 1588 391 
Q 1994 391 2212 530 
Q 2431 669 2431 922 
Q 2431 1156 2273 1281 
Q 2116 1406 1581 1522 
L 1381 1569 
Q 847 1681 609 1914 
Q 372 2147 372 2553 
Q 372 3047 722 3315 
Q 1072 3584 1716 3584 
Q 2034 3584 2315 3537 
Q 2597 3491 2834 3397 
z
" transform="scale(0.015625)"/>
       <path id="DejaVuSans-69" d="M 603 3500 
L 1178 3500 
L 1178 0 
L 603 0 
L 603 3500 
z
M 603 4863 
L 1178 4863 
L 1178 4134 
L 603 4134 
L 603 4863 
z
" transform="scale(0.015625)"/>
       <path id="DejaVuSans-6e" d="M 3513 2113 
L 3513 0 
L 2938 0 
L 2938 2094 
Q 2938 2591 2744 2837 
Q 2550 3084 2163 3084 
Q 1697 3084 1428 2787 
Q 1159 2491 1159 1978 
L 1159 0 
L 581 0 
L 581 3500 
L 1159 3500 
L 1159 2956 
Q 1366 3272 1645 3428 
Q 1925 3584 2291 3584 
Q 2894 3584 3203 3211 
Q 3513 2838 3513 2113 
z
" transform="scale(0.015625)"/>
       <path id="DejaVuSans-79" d="M 2059 -325 
Q 1816 -950 1584 -1140 
Q 1353 -1331 966 -1331 
L 506 -1331 
L 506 -850 
L 844 -850 
Q 1081 -850 1212 -737 
Q 1344 -625 1503 -206 
L 1606 56 
L 191 3500 
L 800 3500 
L 1894 763 
L 2988 3500 
L 3597 3500 
L 2059 -325 
z
" transform="scale(0.015625)"/>
      </defs>
      <use xlink:href="#DejaVuSans-73"/>
      <use xlink:href="#DejaVuSans-69" x="52.099609"/>
      <use xlink:href="#DejaVuSans-6e" x="79.882812"/>
      <use xlink:href="#DejaVuSans-64" x="143.261719"/>
      <use xlink:href="#DejaVuSans-79" x="206.738281"/>
     </g>
    </g>
   </g>
  </g>
  <g id="axes_2">
   <g id="patch_8">
    <path d="M 404.270312 318.04 
L 703.530313 318.04 
L 703.530313 36 
L 404.270312 36 
z
" style="fill: #ffffff"/>
   </g>
   <g id="matplotlib.axis_3">
    <g id="xtick_10">
     <g id="line2d_35">
      <path d="M 417.87304 318.04 
L 417.87304 36 
" clip-path="url(#p8b9be3fcbb)" style="fill: none; stroke: #b0b0b0; stroke-width: 0.8; stroke-linecap: square"/>
     </g>
     <g id="line2d_36">
      <g>
       <use xlink:href="#ma89bd5cbd7" x="417.87304" y="318.04" style="stroke: #000000; stroke-width: 0.8"/>
      </g>
     </g>
     <g id="text_20">
      <!-- 0.0 -->
      <g transform="translate(409.921477 332.638437) scale(0.1 -0.1)">
       <use xlink:href="#DejaVuSans-30"/>
       <use xlink:href="#DejaVuSans-2e" x="63.623047"/>
       <use xlink:href="#DejaVuSans-30" x="95.410156"/>
      </g>
     </g>
    </g>
    <g id="xtick_11">
     <g id="line2d_37">
      <path d="M 451.879858 318.04 
L 451.879858 36 
" clip-path="url(#p8b9be3fcbb)" style="fill: none; stroke: #b0b0b0; stroke-width: 0.8; stroke-linecap: square"/>
     </g>
     <g id="line2d_38">
      <g>
       <use xlink:href="#ma89bd5cbd7" x="451.879858" y="318.04" style="stroke: #000000; stroke-width: 0.8"/>
      </g>
     </g>
     <g id="text_21">
      <!-- 2.5 -->
      <g transform="translate(443.928295 332.638437) scale(0.1 -0.1)">
       <use xlink:href="#DejaVuSans-32"/>
       <use xlink:href="#DejaVuSans-2e" x="63.623047"/>
       <use xlink:href="#DejaVuSans-35" x="95.410156"/>
      </g>
     </g>
    </g>
    <g id="xtick_12">
     <g id="line2d_39">
      <path d="M 485.886676 318.04 
L 485.886676 36 
" clip-path="url(#p8b9be3fcbb)" style="fill: none; stroke: #b0b0b0; stroke-width: 0.8; stroke-linecap: square"/>
     </g>
     <g id="line2d_40">
      <g>
       <use xlink:href="#ma89bd5cbd7" x="485.886676" y="318.04" style="stroke: #000000; stroke-width: 0.8"/>
      </g>
     </g>
     <g id="text_22">
      <!-- 5.0 -->
      <g transform="translate(477.935114 332.638437) scale(0.1 -0.1)">
       <use xlink:href="#DejaVuSans-35"/>
       <use xlink:href="#DejaVuSans-2e" x="63.623047"/>
       <use xlink:href="#DejaVuSans-30" x="95.410156"/>
      </g>
     </g>
    </g>
    <g id="xtick_13">
     <g id="line2d_41">
      <path d="M 519.893494 318.04 
L 519.893494 36 
" clip-path="url(#p8b9be3fcbb)" style="fill: none; stroke: #b0b0b0; stroke-width: 0.8; stroke-linecap: square"/>
     </g>
     <g id="line2d_42">
      <g>
       <use xlink:href="#ma89bd5cbd7" x="519.893494" y="318.04" style="stroke: #000000; stroke-width: 0.8"/>
      </g>
     </g>
     <g id="text_23">
      <!-- 7.5 -->
      <g transform="translate(511.941932 332.638437) scale(0.1 -0.1)">
       <use xlink:href="#DejaVuSans-37"/>
       <use xlink:href="#DejaVuSans-2e" x="63.623047"/>
       <use xlink:href="#DejaVuSans-35" x="95.410156"/>
      </g>
     </g>
    </g>
    <g id="xtick_14">
     <g id="line2d_43">
      <path d="M 553.900313 318.04 
L 553.900313 36 
" clip-path="url(#p8b9be3fcbb)" style="fill: none; stroke: #b0b0b0; stroke-width: 0.8; stroke-linecap: square"/>
     </g>
     <g id="line2d_44">
      <g>
       <use xlink:href="#ma89bd5cbd7" x="553.900313" y="318.04" style="stroke: #000000; stroke-width: 0.8"/>
      </g>
     </g>
     <g id="text_24">
      <!-- 10.0 -->
      <g transform="translate(542.7675 332.638437) scale(0.1 -0.1)">
       <use xlink:href="#DejaVuSans-31"/>
       <use xlink:href="#DejaVuSans-30" x="63.623047"/>
       <use xlink:href="#DejaVuSans-2e" x="127.246094"/>
       <use xlink:href="#DejaVuSans-30" x="159.033203"/>
      </g>
     </g>
    </g>
    <g id="xtick_15">
     <g id="line2d_45">
      <path d="M 587.907131 318.04 
L 587.907131 36 
" clip-path="url(#p8b9be3fcbb)" style="fill: none; stroke: #b0b0b0; stroke-width: 0.8; stroke-linecap: square"/>
     </g>
     <g id="line2d_46">
      <g>
       <use xlink:href="#ma89bd5cbd7" x="587.907131" y="318.04" style="stroke: #000000; stroke-width: 0.8"/>
      </g>
     </g>
     <g id="text_25">
      <!-- 12.5 -->
      <g transform="translate(576.774318 332.638437) scale(0.1 -0.1)">
       <use xlink:href="#DejaVuSans-31"/>
       <use xlink:href="#DejaVuSans-32" x="63.623047"/>
       <use xlink:href="#DejaVuSans-2e" x="127.246094"/>
       <use xlink:href="#DejaVuSans-35" x="159.033203"/>
      </g>
     </g>
    </g>
    <g id="xtick_16">
     <g id="line2d_47">
      <path d="M 621.913949 318.04 
L 621.913949 36 
" clip-path="url(#p8b9be3fcbb)" style="fill: none; stroke: #b0b0b0; stroke-width: 0.8; stroke-linecap: square"/>
     </g>
     <g id="line2d_48">
      <g>
       <use xlink:href="#ma89bd5cbd7" x="621.913949" y="318.04" style="stroke: #000000; stroke-width: 0.8"/>
      </g>
     </g>
     <g id="text_26">
      <!-- 15.0 -->
      <g transform="translate(610.781136 332.638437) scale(0.1 -0.1)">
       <use xlink:href="#DejaVuSans-31"/>
       <use xlink:href="#DejaVuSans-35" x="63.623047"/>
       <use xlink:href="#DejaVuSans-2e" x="127.246094"/>
       <use xlink:href="#DejaVuSans-30" x="159.033203"/>
      </g>
     </g>
    </g>
    <g id="xtick_17">
     <g id="line2d_49">
      <path d="M 655.920767 318.04 
L 655.920767 36 
" clip-path="url(#p8b9be3fcbb)" style="fill: none; stroke: #b0b0b0; stroke-width: 0.8; stroke-linecap: square"/>
     </g>
     <g id="line2d_50">
      <g>
       <use xlink:href="#ma89bd5cbd7" x="655.920767" y="318.04" style="stroke: #000000; stroke-width: 0.8"/>
      </g>
     </g>
     <g id="text_27">
      <!-- 17.5 -->
      <g transform="translate(644.787955 332.638437) scale(0.1 -0.1)">
       <use xlink:href="#DejaVuSans-31"/>
       <use xlink:href="#DejaVuSans-37" x="63.623047"/>
       <use xlink:href="#DejaVuSans-2e" x="127.246094"/>
       <use xlink:href="#DejaVuSans-35" x="159.033203"/>
      </g>
     </g>
    </g>
    <g id="xtick_18">
     <g id="line2d_51">
      <path d="M 689.927585 318.04 
L 689.927585 36 
" clip-path="url(#p8b9be3fcbb)" style="fill: none; stroke: #b0b0b0; stroke-width: 0.8; stroke-linecap: square"/>
     </g>
     <g id="line2d_52">
      <g>
       <use xlink:href="#ma89bd5cbd7" x="689.927585" y="318.04" style="stroke: #000000; stroke-width: 0.8"/>
      </g>
     </g>
     <g id="text_28">
      <!-- 20.0 -->
      <g transform="translate(678.794773 332.638437) scale(0.1 -0.1)">
       <use xlink:href="#DejaVuSans-32"/>
       <use xlink:href="#DejaVuSans-30" x="63.623047"/>
       <use xlink:href="#DejaVuSans-2e" x="127.246094"/>
       <use xlink:href="#DejaVuSans-30" x="159.033203"/>
      </g>
     </g>
    </g>
    <g id="text_29">
     <!-- t -->
     <g transform="translate(551.940156 346.316562) scale(0.1 -0.1)">
      <use xlink:href="#DejaVuSans-74"/>
     </g>
    </g>
   </g>
   <g id="matplotlib.axis_4">
    <g id="ytick_7">
     <g id="line2d_53">
      <path d="M 404.270312 285.810835 
L 703.530313 285.810835 
" clip-path="url(#p8b9be3fcbb)" style="fill: none; stroke: #b0b0b0; stroke-width: 0.8; stroke-linecap: square"/>
     </g>
     <g id="line2d_54">
      <g>
       <use xlink:href="#m01910e1a14" x="404.270312" y="285.810835" style="stroke: #000000; stroke-width: 0.8"/>
      </g>
     </g>
     <g id="text_30">
      <!-- −1.25 -->
      <g transform="translate(366.625 289.610054) scale(0.1 -0.1)">
       <use xlink:href="#DejaVuSans-2212"/>
       <use xlink:href="#DejaVuSans-31" x="83.789062"/>
       <use xlink:href="#DejaVuSans-2e" x="147.412109"/>
       <use xlink:href="#DejaVuSans-32" x="179.199219"/>
       <use xlink:href="#DejaVuSans-35" x="242.822266"/>
      </g>
     </g>
    </g>
    <g id="ytick_8">
     <g id="line2d_55">
      <path d="M 404.270312 249.503786 
L 703.530313 249.503786 
" clip-path="url(#p8b9be3fcbb)" style="fill: none; stroke: #b0b0b0; stroke-width: 0.8; stroke-linecap: square"/>
     </g>
     <g id="line2d_56">
      <g>
       <use xlink:href="#m01910e1a14" x="404.270312" y="249.503786" style="stroke: #000000; stroke-width: 0.8"/>
      </g>
     </g>
     <g id="text_31">
      <!-- −1.00 -->
      <g transform="translate(366.625 253.303005) scale(0.1 -0.1)">
       <use xlink:href="#DejaVuSans-2212"/>
       <use xlink:href="#DejaVuSans-31" x="83.789062"/>
       <use xlink:href="#DejaVuSans-2e" x="147.412109"/>
       <use xlink:href="#DejaVuSans-30" x="179.199219"/>
       <use xlink:href="#DejaVuSans-30" x="242.822266"/>
      </g>
     </g>
    </g>
    <g id="ytick_9">
     <g id="line2d_57">
      <path d="M 404.270312 213.196737 
L 703.530313 213.196737 
" clip-path="url(#p8b9be3fcbb)" style="fill: none; stroke: #b0b0b0; stroke-width: 0.8; stroke-linecap: square"/>
     </g>
     <g id="line2d_58">
      <g>
       <use xlink:href="#m01910e1a14" x="404.270312" y="213.196737" style="stroke: #000000; stroke-width: 0.8"/>
      </g>
     </g>
     <g id="text_32">
      <!-- −0.75 -->
      <g transform="translate(366.625 216.995956) scale(0.1 -0.1)">
       <use xlink:href="#DejaVuSans-2212"/>
       <use xlink:href="#DejaVuSans-30" x="83.789062"/>
       <use xlink:href="#DejaVuSans-2e" x="147.412109"/>
       <use xlink:href="#DejaVuSans-37" x="179.199219"/>
       <use xlink:href="#DejaVuSans-35" x="242.822266"/>
      </g>
     </g>
    </g>
    <g id="ytick_10">
     <g id="line2d_59">
      <path d="M 404.270312 176.889688 
L 703.530313 176.889688 
" clip-path="url(#p8b9be3fcbb)" style="fill: none; stroke: #b0b0b0; stroke-width: 0.8; stroke-linecap: square"/>
     </g>
     <g id="line2d_60">
      <g>
       <use xlink:href="#m01910e1a14" x="404.270312" y="176.889688" style="stroke: #000000; stroke-width: 0.8"/>
      </g>
     </g>
     <g id="text_33">
      <!-- −0.50 -->
      <g transform="translate(366.625 180.688907) scale(0.1 -0.1)">
       <use xlink:href="#DejaVuSans-2212"/>
       <use xlink:href="#DejaVuSans-30" x="83.789062"/>
       <use xlink:href="#DejaVuSans-2e" x="147.412109"/>
       <use xlink:href="#DejaVuSans-35" x="179.199219"/>
       <use xlink:href="#DejaVuSans-30" x="242.822266"/>
      </g>
     </g>
    </g>
    <g id="ytick_11">
     <g id="line2d_61">
      <path d="M 404.270312 140.582639 
L 703.530313 140.582639 
" clip-path="url(#p8b9be3fcbb)" style="fill: none; stroke: #b0b0b0; stroke-width: 0.8; stroke-linecap: square"/>
     </g>
     <g id="line2d_62">
      <g>
       <use xlink:href="#m01910e1a14" x="404.270312" y="140.582639" style="stroke: #000000; stroke-width: 0.8"/>
      </g>
     </g>
     <g id="text_34">
      <!-- −0.25 -->
      <g transform="translate(366.625 144.381858) scale(0.1 -0.1)">
       <use xlink:href="#DejaVuSans-2212"/>
       <use xlink:href="#DejaVuSans-30" x="83.789062"/>
       <use xlink:href="#DejaVuSans-2e" x="147.412109"/>
       <use xlink:href="#DejaVuSans-32" x="179.199219"/>
       <use xlink:href="#DejaVuSans-35" x="242.822266"/>
      </g>
     </g>
    </g>
    <g id="ytick_12">
     <g id="line2d_63">
      <path d="M 404.270312 104.27559 
L 703.530313 104.27559 
" clip-path="url(#p8b9be3fcbb)" style="fill: none; stroke: #b0b0b0; stroke-width: 0.8; stroke-linecap: square"/>
     </g>
     <g id="line2d_64">
      <g>
       <use xlink:href="#m01910e1a14" x="404.270312" y="104.27559" style="stroke: #000000; stroke-width: 0.8"/>
      </g>
     </g>
     <g id="text_35">
      <!-- 0.00 -->
      <g transform="translate(375.004687 108.074809) scale(0.1 -0.1)">
       <use xlink:href="#DejaVuSans-30"/>
       <use xlink:href="#DejaVuSans-2e" x="63.623047"/>
       <use xlink:href="#DejaVuSans-30" x="95.410156"/>
       <use xlink:href="#DejaVuSans-30" x="159.033203"/>
      </g>
     </g>
    </g>
    <g id="ytick_13">
     <g id="line2d_65">
      <path d="M 404.270312 67.968541 
L 703.530313 67.968541 
" clip-path="url(#p8b9be3fcbb)" style="fill: none; stroke: #b0b0b0; stroke-width: 0.8; stroke-linecap: square"/>
     </g>
     <g id="line2d_66">
      <g>
       <use xlink:href="#m01910e1a14" x="404.270312" y="67.968541" style="stroke: #000000; stroke-width: 0.8"/>
      </g>
     </g>
     <g id="text_36">
      <!-- 0.25 -->
      <g transform="translate(375.004687 71.76776) scale(0.1 -0.1)">
       <use xlink:href="#DejaVuSans-30"/>
       <use xlink:href="#DejaVuSans-2e" x="63.623047"/>
       <use xlink:href="#DejaVuSans-32" x="95.410156"/>
       <use xlink:href="#DejaVuSans-35" x="159.033203"/>
      </g>
     </g>
    </g>
    <g id="text_37">
     <!-- Fr(t) -->
     <g transform="translate(360.545313 187.450469) rotate(-90) scale(0.1 -0.1)">
      <defs>
       <path id="DejaVuSans-46" d="M 628 4666 
L 3309 4666 
L 3309 4134 
L 1259 4134 
L 1259 2759 
L 3109 2759 
L 3109 2228 
L 1259 2228 
L 1259 0 
L 628 0 
L 628 4666 
z
" transform="scale(0.015625)"/>
       <path id="DejaVuSans-72" d="M 2631 2963 
Q 2534 3019 2420 3045 
Q 2306 3072 2169 3072 
Q 1681 3072 1420 2755 
Q 1159 2438 1159 1844 
L 1159 0 
L 581 0 
L 581 3500 
L 1159 3500 
L 1159 2956 
Q 1341 3275 1631 3429 
Q 1922 3584 2338 3584 
Q 2397 3584 2469 3576 
Q 2541 3569 2628 3553 
L 2631 2963 
z
" transform="scale(0.015625)"/>
      </defs>
      <use xlink:href="#DejaVuSans-46"/>
      <use xlink:href="#DejaVuSans-72" x="50.269531"/>
      <use xlink:href="#DejaVuSans-28" x="91.382812"/>
      <use xlink:href="#DejaVuSans-74" x="130.396484"/>
      <use xlink:href="#DejaVuSans-29" x="169.605469"/>
     </g>
    </g>
   </g>
   <g id="line2d_67">
    <path d="M 417.87304 104.27559 
L 427.949134 104.173486 
L 432.034037 103.898974 
L 435.30196 103.460141 
L 438.297555 102.833453 
L 441.293151 101.963755 
L 444.288746 100.847042 
L 447.556669 99.375562 
L 451.641572 97.272 
L 458.994397 93.435328 
L 461.989993 92.162472 
L 464.440935 91.372681 
L 466.61955 90.917813 
L 468.525838 90.747854 
L 470.159799 90.807537 
L 471.79376 91.108174 
L 473.427722 91.670525 
L 475.061683 92.510572 
L 476.695644 93.640231 
L 478.329605 95.06685 
L 479.963567 96.792757 
L 481.597528 98.814895 
L 483.503816 101.536489 
L 485.682431 105.089795 
L 489.22268 111.384435 
L 495.213872 122.050409 
L 497.93714 126.449089 
L 500.388082 130.003972 
L 502.566697 132.785588 
L 504.472985 134.899676 
L 506.379273 136.698118 
L 508.285561 138.168343 
L 509.919523 139.159019 
L 511.553484 139.893567 
L 513.187445 140.363986 
L 514.549079 140.547185 
L 515.638387 140.538718 
L 516.727694 140.291163 
L 517.817002 139.779376 
L 518.906309 138.997981 
L 519.995617 137.943398 
L 521.084924 136.613914 
L 522.446559 134.565993 
L 523.808193 132.093774 
L 525.442154 128.580988 
L 527.076116 124.497478 
L 528.982404 119.06102 
L 531.161019 112.054381 
L 533.611961 103.336903 
L 536.607556 92.816526 
L 539.058498 85.065098 
L 541.237113 78.95668 
L 543.143401 74.249278 
L 545.049689 70.135179 
L 546.955977 66.594419 
L 548.589938 63.992891 
L 550.2239 61.768179 
L 551.857861 59.897798 
L 553.491822 58.360577 
L 555.125783 57.137955 
L 556.759745 56.21499 
L 558.393706 55.581163 
L 559.75534 55.269767 
L 561.116975 55.155184 
L 561.933955 55.236806 
L 562.750936 55.535524 
L 563.567916 56.054465 
L 564.384897 56.794686 
L 565.474205 58.126044 
L 566.563512 59.848971 
L 567.65282 61.958597 
L 569.014454 65.127409 
L 570.376088 68.86692 
L 572.01005 74.067693 
L 573.644011 79.988546 
L 575.550299 87.706893 
L 577.728914 97.425737 
L 582.358471 118.526022 
L 584.264759 125.83982 
L 586.171047 132.212218 
L 587.805008 136.947424 
L 589.438969 141.05096 
L 591.072931 144.569825 
L 592.706892 147.554644 
L 594.340853 150.055586 
L 595.974814 152.119506 
L 597.608776 153.788065 
L 599.242737 155.096555 
L 600.876698 156.073192 
L 602.238332 156.648731 
L 603.599967 157.016179 
L 604.961601 157.179476 
L 605.778582 157.156196 
L 606.595562 156.893544 
L 607.412543 156.366241 
L 608.229524 155.573746 
L 609.046504 154.516614 
L 610.135812 152.698469 
L 611.225119 150.41991 
L 612.586753 146.940496 
L 613.948388 142.786187 
L 615.582349 136.961535 
L 617.21631 130.294699 
L 619.122598 121.576646 
L 621.301213 110.585195 
L 625.11379 90.995235 
L 627.020078 82.723567 
L 628.654039 76.550695 
L 630.288 71.191819 
L 631.921961 66.592378 
L 633.555923 62.685985 
L 635.189884 59.402347 
L 636.823845 56.672842 
L 638.457806 54.434178 
L 640.091768 52.630597 
L 641.453402 51.425757 
L 642.815036 50.467913 
L 644.176671 49.739295 
L 645.538305 49.226713 
L 646.899939 48.921583 
L 648.261574 48.82 
L 649.078554 48.968965 
L 649.895535 49.416794 
L 650.712516 50.164561 
L 651.529496 51.212074 
L 652.618804 53.072308 
L 653.708111 55.455663 
L 654.797419 58.351121 
L 656.159053 62.667385 
L 657.520687 67.722311 
L 659.154649 74.696482 
L 661.060937 83.959941 
L 663.239552 95.805007 
L 667.596782 120.158578 
L 669.230743 127.72546 
L 670.864704 134.313377 
L 672.498665 139.973045 
L 674.132627 144.780141 
L 675.766588 148.82214 
L 677.400549 152.188757 
L 679.03451 154.965558 
L 680.396145 156.885227 
L 681.757779 158.488851 
L 683.39174 160.043897 
L 685.025702 161.241942 
L 686.659663 162.121104 
L 688.293624 162.708918 
L 689.927585 163.02263 
L 689.927585 163.02263 
" clip-path="url(#p8b9be3fcbb)" style="fill: none; stroke: #0000ff; stroke-width: 1.5; stroke-linecap: square"/>
   </g>
   <g id="line2d_68">
    <path d="M 417.87304 104.27559 
L 420.323982 104.604678 
L 423.04725 104.745948 
L 426.315173 104.684902 
L 429.855422 104.394568 
L 433.395671 103.887107 
L 436.663594 103.206515 
L 439.65919 102.374619 
L 442.654785 101.319078 
L 445.650381 100.031246 
L 448.918303 98.384583 
L 453.54786 95.772462 
L 458.722071 92.908032 
L 461.445339 91.648348 
L 463.896281 90.769975 
L 466.074896 90.244697 
L 467.981184 90.010741 
L 469.887472 90.005029 
L 471.79376 90.243759 
L 473.700049 90.740659 
L 475.606337 91.500075 
L 477.512625 92.517644 
L 479.418913 93.782722 
L 481.597528 95.515173 
L 483.776143 97.540168 
L 485.954758 99.856723 
L 488.4057 102.806245 
L 490.856642 106.107132 
L 493.57991 110.182474 
L 499.571101 119.386824 
L 501.47739 121.77466 
L 503.111351 123.42934 
L 504.472985 124.496955 
L 505.83462 125.270271 
L 507.196254 125.750628 
L 508.557888 125.947613 
L 509.919523 125.876049 
L 511.281157 125.553483 
L 512.642791 124.998335 
L 514.276753 124.050519 
L 515.910714 122.821712 
L 517.544675 121.310733 
L 519.178636 119.496799 
L 520.812598 117.371567 
L 522.718886 114.501069 
L 524.625174 111.219124 
L 526.803789 106.974192 
L 528.982404 102.198477 
L 531.161019 96.866571 
L 533.339634 90.935197 
L 539.875479 72.380326 
L 542.054094 67.188343 
L 543.960382 63.228726 
L 545.594343 60.29777 
L 547.228304 57.809586 
L 548.862265 55.761289 
L 550.2239 54.374011 
L 551.585534 53.254291 
L 552.947168 52.377734 
L 554.308803 51.722636 
L 555.670437 51.27426 
L 557.032072 51.027814 
L 558.393706 50.990192 
L 559.75534 51.180696 
L 561.116975 51.630754 
L 562.206282 52.21427 
L 563.29559 53.078441 
L 564.384897 54.315207 
L 565.474205 56.005784 
L 566.563512 58.210287 
L 567.65282 60.957535 
L 569.014454 65.137223 
L 570.376088 70.047449 
L 572.282376 77.815352 
L 579.907529 110.958858 
L 583.720105 126.924838 
L 586.988027 139.658632 
L 588.894316 146.169502 
L 590.25595 150.095304 
L 591.617584 153.328294 
L 592.706892 155.429253 
L 593.796199 157.144957 
L 595.157834 158.83567 
L 596.519468 160.128884 
L 597.881102 161.125322 
L 599.515064 162.0405 
L 601.421352 162.842175 
L 603.599967 163.51322 
L 605.778582 163.945697 
L 607.140216 163.991658 
L 607.957197 163.825984 
L 608.774177 163.432104 
L 609.591158 162.731682 
L 610.408139 161.644649 
L 611.225119 160.101466 
L 612.0421 158.059569 
L 613.131407 154.568197 
L 614.493042 149.178638 
L 616.671657 139.335522 
L 620.211906 123.476102 
L 628.381712 88.735595 
L 630.288 81.866306 
L 632.194288 75.855998 
L 633.82825 71.351782 
L 635.462211 67.436335 
L 637.096172 64.112224 
L 638.457806 61.786219 
L 639.819441 59.84106 
L 641.181075 58.242161 
L 642.542709 56.94984 
L 643.904344 55.927797 
L 645.265978 55.149974 
L 646.627613 54.60506 
L 647.989247 54.299043 
L 649.078554 54.250097 
L 649.895535 54.386857 
L 650.712516 54.738876 
L 651.529496 55.366631 
L 652.346477 56.327069 
L 653.163457 57.668516 
L 653.980438 59.424957 
L 655.069746 62.434356 
L 656.159053 66.177097 
L 657.520687 71.737427 
L 659.426976 80.642632 
L 669.230743 128.193222 
L 672.498665 142.33666 
L 674.404954 149.7115 
L 675.766588 154.243493 
L 677.128222 158.074676 
L 678.489857 161.276184 
L 680.123818 164.533249 
L 683.39174 170.773501 
L 684.481048 173.427752 
L 685.298028 175.940251 
L 686.115009 179.232363 
L 686.659663 182.139831 
L 687.204317 185.997534 
L 687.74897 191.490313 
L 688.293624 200.233875 
L 688.565951 207.069842 
L 688.838278 217.255858 
L 689.110605 234.100674 
L 689.655258 305.22 
L 689.927585 305.22 
L 689.927585 305.22 
" clip-path="url(#p8b9be3fcbb)" style="fill: none; stroke-dasharray: 5.55,2.4; stroke-dashoffset: 0; stroke: #ff0000; stroke-width: 1.5"/>
   </g>
   <g id="patch_9">
    <path d="M 404.270312 318.04 
L 404.270312 36 
" style="fill: none; stroke: #000000; stroke-width: 0.8; stroke-linejoin: miter; stroke-linecap: square"/>
   </g>
   <g id="patch_10">
    <path d="M 703.530313 318.04 
L 703.530313 36 
" style="fill: none; stroke: #000000; stroke-width: 0.8; stroke-linejoin: miter; stroke-linecap: square"/>
   </g>
   <g id="patch_11">
    <path d="M 404.270312 318.04 
L 703.530313 318.04 
" style="fill: none; stroke: #000000; stroke-width: 0.8; stroke-linejoin: miter; stroke-linecap: square"/>
   </g>
   <g id="patch_12">
    <path d="M 404.270312 36 
L 703.530313 36 
" style="fill: none; stroke: #000000; stroke-width: 0.8; stroke-linejoin: miter; stroke-linecap: square"/>
   </g>
   <g id="legend_2">
    <g id="patch_13">
     <path d="M 411.270312 73.35625 
L 469.8625 73.35625 
Q 471.8625 73.35625 471.8625 71.35625 
L 471.8625 43 
Q 471.8625 41 469.8625 41 
L 411.270312 41 
Q 409.270312 41 409.270312 43 
L 409.270312 71.35625 
Q 409.270312 73.35625 411.270312 73.35625 
z
" style="fill: #ffffff; opacity: 0.8; stroke: #cccccc; stroke-linejoin: miter"/>
    </g>
    <g id="line2d_69">
     <path d="M 413.270312 49.098437 
L 423.270312 49.098437 
L 433.270312 49.098437 
" style="fill: none; stroke: #0000ff; stroke-width: 1.5; stroke-linecap: square"/>
    </g>
    <g id="text_38">
     <!-- data -->
     <g transform="translate(441.270312 52.598437) scale(0.1 -0.1)">
      <use xlink:href="#DejaVuSans-64"/>
      <use xlink:href="#DejaVuSans-61" x="63.476562"/>
      <use xlink:href="#DejaVuSans-74" x="124.755859"/>
      <use xlink:href="#DejaVuSans-61" x="163.964844"/>
     </g>
    </g>
    <g id="line2d_70">
     <path d="M 413.270312 63.776562 
L 423.270312 63.776562 
L 433.270312 63.776562 
" style="fill: none; stroke-dasharray: 5.55,2.4; stroke-dashoffset: 0; stroke: #ff0000; stroke-width: 1.5"/>
    </g>
    <g id="text_39">
     <!-- sindy -->
     <g transform="translate(441.270312 67.276562) scale(0.1 -0.1)">
      <use xlink:href="#DejaVuSans-73"/>
      <use xlink:href="#DejaVuSans-69" x="52.099609"/>
      <use xlink:href="#DejaVuSans-6e" x="79.882812"/>
      <use xlink:href="#DejaVuSans-64" x="143.261719"/>
      <use xlink:href="#DejaVuSans-79" x="206.738281"/>
     </g>
    </g>
   </g>
  </g>
  <g id="axes_3">
   <g id="patch_14">
    <path d="M 765.920313 318.04 
L 1065.180313 318.04 
L 1065.180313 36 
L 765.920313 36 
z
" style="fill: #ffffff"/>
   </g>
   <g id="matplotlib.axis_5">
    <g id="xtick_19">
     <g id="line2d_71">
      <path d="M 772.253079 318.04 
L 772.253079 36 
" clip-path="url(#p070326d6f9)" style="fill: none; stroke: #b0b0b0; stroke-width: 0.8; stroke-linecap: square"/>
     </g>
     <g id="line2d_72">
      <g>
       <use xlink:href="#ma89bd5cbd7" x="772.253079" y="318.04" style="stroke: #000000; stroke-width: 0.8"/>
      </g>
     </g>
     <g id="text_40">
      <!-- −4 -->
      <g transform="translate(764.881985 332.638437) scale(0.1 -0.1)">
       <use xlink:href="#DejaVuSans-2212"/>
       <use xlink:href="#DejaVuSans-34" x="83.789062"/>
      </g>
     </g>
    </g>
    <g id="xtick_20">
     <g id="line2d_73">
      <path d="M 826.661182 318.04 
L 826.661182 36 
" clip-path="url(#p070326d6f9)" style="fill: none; stroke: #b0b0b0; stroke-width: 0.8; stroke-linecap: square"/>
     </g>
     <g id="line2d_74">
      <g>
       <use xlink:href="#ma89bd5cbd7" x="826.661182" y="318.04" style="stroke: #000000; stroke-width: 0.8"/>
      </g>
     </g>
     <g id="text_41">
      <!-- −3 -->
      <g transform="translate(819.290088 332.638437) scale(0.1 -0.1)">
       <use xlink:href="#DejaVuSans-2212"/>
       <use xlink:href="#DejaVuSans-33" x="83.789062"/>
      </g>
     </g>
    </g>
    <g id="xtick_21">
     <g id="line2d_75">
      <path d="M 881.069286 318.04 
L 881.069286 36 
" clip-path="url(#p070326d6f9)" style="fill: none; stroke: #b0b0b0; stroke-width: 0.8; stroke-linecap: square"/>
     </g>
     <g id="line2d_76">
      <g>
       <use xlink:href="#ma89bd5cbd7" x="881.069286" y="318.04" style="stroke: #000000; stroke-width: 0.8"/>
      </g>
     </g>
     <g id="text_42">
      <!-- −2 -->
      <g transform="translate(873.698192 332.638437) scale(0.1 -0.1)">
       <use xlink:href="#DejaVuSans-2212"/>
       <use xlink:href="#DejaVuSans-32" x="83.789062"/>
      </g>
     </g>
    </g>
    <g id="xtick_22">
     <g id="line2d_77">
      <path d="M 935.477389 318.04 
L 935.477389 36 
" clip-path="url(#p070326d6f9)" style="fill: none; stroke: #b0b0b0; stroke-width: 0.8; stroke-linecap: square"/>
     </g>
     <g id="line2d_78">
      <g>
       <use xlink:href="#ma89bd5cbd7" x="935.477389" y="318.04" style="stroke: #000000; stroke-width: 0.8"/>
      </g>
     </g>
     <g id="text_43">
      <!-- −1 -->
      <g transform="translate(928.106296 332.638437) scale(0.1 -0.1)">
       <use xlink:href="#DejaVuSans-2212"/>
       <use xlink:href="#DejaVuSans-31" x="83.789062"/>
      </g>
     </g>
    </g>
    <g id="xtick_23">
     <g id="line2d_79">
      <path d="M 989.885493 318.04 
L 989.885493 36 
" clip-path="url(#p070326d6f9)" style="fill: none; stroke: #b0b0b0; stroke-width: 0.8; stroke-linecap: square"/>
     </g>
     <g id="line2d_80">
      <g>
       <use xlink:href="#ma89bd5cbd7" x="989.885493" y="318.04" style="stroke: #000000; stroke-width: 0.8"/>
      </g>
     </g>
     <g id="text_44">
      <!-- 0 -->
      <g transform="translate(986.704243 332.638437) scale(0.1 -0.1)">
       <use xlink:href="#DejaVuSans-30"/>
      </g>
     </g>
    </g>
    <g id="xtick_24">
     <g id="line2d_81">
      <path d="M 1044.293597 318.04 
L 1044.293597 36 
" clip-path="url(#p070326d6f9)" style="fill: none; stroke: #b0b0b0; stroke-width: 0.8; stroke-linecap: square"/>
     </g>
     <g id="line2d_82">
      <g>
       <use xlink:href="#ma89bd5cbd7" x="1044.293597" y="318.04" style="stroke: #000000; stroke-width: 0.8"/>
      </g>
     </g>
     <g id="text_45">
      <!-- 1 -->
      <g transform="translate(1041.112347 332.638437) scale(0.1 -0.1)">
       <use xlink:href="#DejaVuSans-31"/>
      </g>
     </g>
    </g>
    <g id="text_46">
     <!-- x(t) -->
     <g transform="translate(906.729219 346.316562) scale(0.1 -0.1)">
      <use xlink:href="#DejaVuSans-78"/>
      <use xlink:href="#DejaVuSans-28" x="59.179688"/>
      <use xlink:href="#DejaVuSans-74" x="98.193359"/>
      <use xlink:href="#DejaVuSans-29" x="137.402344"/>
     </g>
    </g>
   </g>
   <g id="matplotlib.axis_6">
    <g id="ytick_14">
     <g id="line2d_83">
      <path d="M 765.920313 285.810835 
L 1065.180313 285.810835 
" clip-path="url(#p070326d6f9)" style="fill: none; stroke: #b0b0b0; stroke-width: 0.8; stroke-linecap: square"/>
     </g>
     <g id="line2d_84">
      <g>
       <use xlink:href="#m01910e1a14" x="765.920313" y="285.810835" style="stroke: #000000; stroke-width: 0.8"/>
      </g>
     </g>
     <g id="text_47">
      <!-- −1.25 -->
      <g transform="translate(728.275 289.610054) scale(0.1 -0.1)">
       <use xlink:href="#DejaVuSans-2212"/>
       <use xlink:href="#DejaVuSans-31" x="83.789062"/>
       <use xlink:href="#DejaVuSans-2e" x="147.412109"/>
       <use xlink:href="#DejaVuSans-32" x="179.199219"/>
       <use xlink:href="#DejaVuSans-35" x="242.822266"/>
      </g>
     </g>
    </g>
    <g id="ytick_15">
     <g id="line2d_85">
      <path d="M 765.920313 249.503786 
L 1065.180313 249.503786 
" clip-path="url(#p070326d6f9)" style="fill: none; stroke: #b0b0b0; stroke-width: 0.8; stroke-linecap: square"/>
     </g>
     <g id="line2d_86">
      <g>
       <use xlink:href="#m01910e1a14" x="765.920313" y="249.503786" style="stroke: #000000; stroke-width: 0.8"/>
      </g>
     </g>
     <g id="text_48">
      <!-- −1.00 -->
      <g transform="translate(728.275 253.303005) scale(0.1 -0.1)">
       <use xlink:href="#DejaVuSans-2212"/>
       <use xlink:href="#DejaVuSans-31" x="83.789062"/>
       <use xlink:href="#DejaVuSans-2e" x="147.412109"/>
       <use xlink:href="#DejaVuSans-30" x="179.199219"/>
       <use xlink:href="#DejaVuSans-30" x="242.822266"/>
      </g>
     </g>
    </g>
    <g id="ytick_16">
     <g id="line2d_87">
      <path d="M 765.920313 213.196737 
L 1065.180313 213.196737 
" clip-path="url(#p070326d6f9)" style="fill: none; stroke: #b0b0b0; stroke-width: 0.8; stroke-linecap: square"/>
     </g>
     <g id="line2d_88">
      <g>
       <use xlink:href="#m01910e1a14" x="765.920313" y="213.196737" style="stroke: #000000; stroke-width: 0.8"/>
      </g>
     </g>
     <g id="text_49">
      <!-- −0.75 -->
      <g transform="translate(728.275 216.995956) scale(0.1 -0.1)">
       <use xlink:href="#DejaVuSans-2212"/>
       <use xlink:href="#DejaVuSans-30" x="83.789062"/>
       <use xlink:href="#DejaVuSans-2e" x="147.412109"/>
       <use xlink:href="#DejaVuSans-37" x="179.199219"/>
       <use xlink:href="#DejaVuSans-35" x="242.822266"/>
      </g>
     </g>
    </g>
    <g id="ytick_17">
     <g id="line2d_89">
      <path d="M 765.920313 176.889688 
L 1065.180313 176.889688 
" clip-path="url(#p070326d6f9)" style="fill: none; stroke: #b0b0b0; stroke-width: 0.8; stroke-linecap: square"/>
     </g>
     <g id="line2d_90">
      <g>
       <use xlink:href="#m01910e1a14" x="765.920313" y="176.889688" style="stroke: #000000; stroke-width: 0.8"/>
      </g>
     </g>
     <g id="text_50">
      <!-- −0.50 -->
      <g transform="translate(728.275 180.688907) scale(0.1 -0.1)">
       <use xlink:href="#DejaVuSans-2212"/>
       <use xlink:href="#DejaVuSans-30" x="83.789062"/>
       <use xlink:href="#DejaVuSans-2e" x="147.412109"/>
       <use xlink:href="#DejaVuSans-35" x="179.199219"/>
       <use xlink:href="#DejaVuSans-30" x="242.822266"/>
      </g>
     </g>
    </g>
    <g id="ytick_18">
     <g id="line2d_91">
      <path d="M 765.920313 140.582639 
L 1065.180313 140.582639 
" clip-path="url(#p070326d6f9)" style="fill: none; stroke: #b0b0b0; stroke-width: 0.8; stroke-linecap: square"/>
     </g>
     <g id="line2d_92">
      <g>
       <use xlink:href="#m01910e1a14" x="765.920313" y="140.582639" style="stroke: #000000; stroke-width: 0.8"/>
      </g>
     </g>
     <g id="text_51">
      <!-- −0.25 -->
      <g transform="translate(728.275 144.381858) scale(0.1 -0.1)">
       <use xlink:href="#DejaVuSans-2212"/>
       <use xlink:href="#DejaVuSans-30" x="83.789062"/>
       <use xlink:href="#DejaVuSans-2e" x="147.412109"/>
       <use xlink:href="#DejaVuSans-32" x="179.199219"/>
       <use xlink:href="#DejaVuSans-35" x="242.822266"/>
      </g>
     </g>
    </g>
    <g id="ytick_19">
     <g id="line2d_93">
      <path d="M 765.920313 104.27559 
L 1065.180313 104.27559 
" clip-path="url(#p070326d6f9)" style="fill: none; stroke: #b0b0b0; stroke-width: 0.8; stroke-linecap: square"/>
     </g>
     <g id="line2d_94">
      <g>
       <use xlink:href="#m01910e1a14" x="765.920313" y="104.27559" style="stroke: #000000; stroke-width: 0.8"/>
      </g>
     </g>
     <g id="text_52">
      <!-- 0.00 -->
      <g transform="translate(736.654688 108.074809) scale(0.1 -0.1)">
       <use xlink:href="#DejaVuSans-30"/>
       <use xlink:href="#DejaVuSans-2e" x="63.623047"/>
       <use xlink:href="#DejaVuSans-30" x="95.410156"/>
       <use xlink:href="#DejaVuSans-30" x="159.033203"/>
      </g>
     </g>
    </g>
    <g id="ytick_20">
     <g id="line2d_95">
      <path d="M 765.920313 67.968541 
L 1065.180313 67.968541 
" clip-path="url(#p070326d6f9)" style="fill: none; stroke: #b0b0b0; stroke-width: 0.8; stroke-linecap: square"/>
     </g>
     <g id="line2d_96">
      <g>
       <use xlink:href="#m01910e1a14" x="765.920313" y="67.968541" style="stroke: #000000; stroke-width: 0.8"/>
      </g>
     </g>
     <g id="text_53">
      <!-- 0.25 -->
      <g transform="translate(736.654688 71.76776) scale(0.1 -0.1)">
       <use xlink:href="#DejaVuSans-30"/>
       <use xlink:href="#DejaVuSans-2e" x="63.623047"/>
       <use xlink:href="#DejaVuSans-32" x="95.410156"/>
       <use xlink:href="#DejaVuSans-35" x="159.033203"/>
      </g>
     </g>
    </g>
    <g id="text_54">
     <!-- Fr(t) -->
     <g transform="translate(722.195312 187.450469) rotate(-90) scale(0.1 -0.1)">
      <use xlink:href="#DejaVuSans-46"/>
      <use xlink:href="#DejaVuSans-72" x="50.269531"/>
      <use xlink:href="#DejaVuSans-28" x="91.382812"/>
      <use xlink:href="#DejaVuSans-74" x="130.396484"/>
      <use xlink:href="#DejaVuSans-29" x="169.605469"/>
     </g>
    </g>
   </g>
   <g id="line2d_97">
    <path d="M 989.885493 104.27559 
L 993.791987 99.242851 
L 997.738139 94.509279 
L 1001.093584 90.742822 
L 1000.819938 91.108174 
L 987.355178 108.923746 
L 983.255882 113.860843 
L 979.314687 118.273107 
L 975.246392 122.508372 
L 971.170933 126.449089 
L 966.791082 130.372031 
L 962.366719 134.03145 
L 957.710819 137.579152 
L 953.463376 140.565657 
L 953.511569 140.501242 
L 984.440024 99.401934 
L 988.396997 94.65344 
L 992.445626 90.135683 
L 996.550363 85.88199 
L 1000.675094 81.9149 
L 1004.783404 78.247539 
L 1008.838824 74.885157 
L 1013.584438 71.251007 
L 1018.139744 68.04347 
L 1023.133105 64.817081 
L 1028.303152 61.768179 
L 1033.279806 59.088777 
L 1038.570938 56.490098 
L 1041.496667 55.155184 
L 1041.436409 55.236806 
L 1000.990122 109.041191 
L 996.915162 113.928445 
L 992.785132 118.526022 
L 988.625591 122.820894 
L 984.461955 126.807519 
L 980.319396 130.486515 
L 976.222752 133.863401 
L 971.203662 137.674024 
L 966.34099 141.05096 
L 961.679848 144.021814 
L 956.413517 147.092103 
L 951.571219 149.67032 
L 945.889305 152.424018 
L 940.231369 154.902189 
L 934.454743 157.187699 
L 934.454625 157.185185 
L 977.086669 100.405649 
L 981.64462 94.892592 
L 986.272844 89.742675 
L 990.941004 84.968532 
L 995.619031 80.572916 
L 1000.277247 76.550695 
L 1004.886466 72.890702 
L 1009.418086 69.577412 
L 1013.844177 66.592378 
L 1019.187069 63.291901 
L 1024.271449 60.432016 
L 1029.962732 57.525153 
L 1035.131684 55.129475 
L 1041.084344 52.630597 
L 1047.255569 50.304339 
L 1051.577585 48.82 
L 1051.527989 48.886192 
L 1006.721492 108.539547 
L 1002.955802 113.096869 
L 999.132553 117.415621 
L 995.266089 121.488738 
L 991.370683 125.31342 
L 987.460504 128.890478 
L 983.549587 132.223708 
L 979.651806 135.319302 
L 974.498834 139.091224 
L 969.425408 142.477845 
L 964.462665 145.504503 
L 959.640921 148.197774 
L 953.85673 151.136175 
L 948.393968 153.64582 
L 942.336738 156.157383 
L 936.063653 158.488851 
L 929.441851 160.68491 
L 922.569932 162.708918 
L 921.426655 163.02263 
L 921.426655 163.02263 
" clip-path="url(#p070326d6f9)" style="fill: none; stroke: #0000ff; stroke-width: 1.5; stroke-linecap: square"/>
   </g>
   <g id="line2d_98">
    <path d="M 989.885493 104.27559 
L 989.092843 104.740594 
L 988.877553 104.684902 
L 988.865949 104.424537 
L 989.102784 103.788679 
L 989.856413 102.459199 
L 991.590112 99.903038 
L 994.017226 96.714533 
L 996.302909 94.066639 
L 998.258241 92.12132 
L 999.925152 90.769975 
L 1001.061639 90.117419 
L 1001.706806 89.982521 
L 1001.956157 90.110426 
L 1002.032883 90.424633 
L 1001.876489 91.034052 
L 1001.343881 92.050512 
L 1000.270342 93.587337 
L 998.27757 95.994295 
L 994.739478 99.856723 
L 983.289769 111.901281 
L 979.244192 115.782912 
L 975.53658 119.011467 
L 972.397344 121.461733 
L 969.518803 123.42934 
L 967.351902 124.675263 
L 965.514898 125.497183 
L 964.254203 125.862684 
L 963.243397 125.950268 
L 962.479432 125.776115 
L 962.041183 125.460471 
L 961.751428 124.998335 
L 961.58991 124.228674 
L 961.64149 123.261449 
L 961.906888 122.103063 
L 962.540741 120.442443 
L 963.547762 118.473174 
L 965.213908 115.78231 
L 967.411092 112.675389 
L 970.558191 108.627649 
L 974.887684 103.4431 
L 980.676614 96.866571 
L 988.996544 87.760706 
L 995.105827 81.324033 
L 999.045788 77.450917 
L 1003.083361 73.781972 
L 1007.194432 70.353708 
L 1011.333695 67.188343 
L 1015.440077 64.301979 
L 1020.221387 61.225986 
L 1024.718465 58.589534 
L 1029.456014 56.072883 
L 1034.069728 53.895384 
L 1037.795737 52.377734 
L 1040.680135 51.429359 
L 1042.563711 51.027814 
L 1043.722958 51.009206 
L 1044.262201 51.180696 
L 1044.609235 51.518092 
L 1044.752792 52.045778 
L 1044.641655 52.830949 
L 1044.203627 53.966367 
L 1043.104733 56.005784 
L 1040.882258 59.515709 
L 1036.388302 66.065492 
L 1029.621011 75.516835 
L 1022.615453 84.920042 
L 1016.060337 93.303503 
L 1009.303247 101.56987 
L 998.441076 114.475746 
L 992.354601 121.373139 
L 987.157871 126.924838 
L 982.807062 131.284574 
L 978.22522 135.553947 
L 973.465022 139.658632 
L 968.645456 143.506634 
L 963.91412 147.008131 
L 959.411739 150.095304 
L 954.260144 153.328294 
L 949.721888 155.892177 
L 945.791394 157.876118 
L 941.785831 159.652418 
L 937.912997 161.125322 
L 933.895571 162.413121 
L 929.498647 163.581108 
L 927.318967 163.999028 
L 926.707035 163.957261 
L 926.508699 163.723784 
L 926.540792 163.432104 
L 926.893038 162.731682 
L 928.046385 161.183763 
L 930.761268 158.059569 
L 937.904102 150.328329 
L 965.315723 121.139071 
L 976.207668 109.430909 
L 989.269671 95.31591 
L 995.645144 88.735595 
L 1000.830457 83.738767 
L 1004.936144 80.063979 
L 1010.011067 75.855998 
L 1014.978843 72.061641 
L 1019.762713 68.675848 
L 1025.129291 65.154744 
L 1030.692085 61.786219 
L 1035.974491 58.842697 
L 1040.975842 56.306141 
L 1044.406312 54.7951 
L 1045.978658 54.299043 
L 1046.677842 54.275521 
L 1046.862086 54.477267 
L 1046.811096 54.914562 
L 1046.480065 55.647194 
L 1045.538464 57.176578 
L 1042.950405 60.834567 
L 1035.672353 70.558414 
L 1025.881165 83.320069 
L 1018.330126 92.800396 
L 1009.47364 103.521942 
L 997.163733 118.14811 
L 991.44745 124.510042 
L 986.762438 129.406447 
L 981.84043 134.210249 
L 976.614817 138.915081 
L 971.151479 143.448913 
L 965.601011 147.712746 
L 960.14973 151.607308 
L 954.965894 155.065393 
L 949.01793 158.760956 
L 942.699768 162.41683 
L 930.981921 169.084497 
L 927.395318 171.384082 
L 923.432886 174.201447 
L 919.942935 176.929616 
L 915.599409 180.593762 
L 909.582146 185.997534 
L 899.657982 195.280422 
L 876.338363 217.255858 
L 858.178892 234.100674 
L 825.128902 264.229091 
L 779.52304 305.22 
L 779.52304 305.22 
" clip-path="url(#p070326d6f9)" style="fill: none; stroke-dasharray: 5.55,2.4; stroke-dashoffset: 0; stroke: #ff0000; stroke-width: 1.5"/>
   </g>
   <g id="patch_15">
    <path d="M 765.920313 318.04 
L 765.920313 36 
" style="fill: none; stroke: #000000; stroke-width: 0.8; stroke-linejoin: miter; stroke-linecap: square"/>
   </g>
   <g id="patch_16">
    <path d="M 1065.180313 318.04 
L 1065.180313 36 
" style="fill: none; stroke: #000000; stroke-width: 0.8; stroke-linejoin: miter; stroke-linecap: square"/>
   </g>
   <g id="patch_17">
    <path d="M 765.920313 318.04 
L 1065.180313 318.04 
" style="fill: none; stroke: #000000; stroke-width: 0.8; stroke-linejoin: miter; stroke-linecap: square"/>
   </g>
   <g id="patch_18">
    <path d="M 765.920313 36 
L 1065.180313 36 
" style="fill: none; stroke: #000000; stroke-width: 0.8; stroke-linejoin: miter; stroke-linecap: square"/>
   </g>
   <g id="legend_3">
    <g id="patch_19">
     <path d="M 772.920313 73.35625 
L 831.5125 73.35625 
Q 833.5125 73.35625 833.5125 71.35625 
L 833.5125 43 
Q 833.5125 41 831.5125 41 
L 772.920313 41 
Q 770.920313 41 770.920313 43 
L 770.920313 71.35625 
Q 770.920313 73.35625 772.920313 73.35625 
z
" style="fill: #ffffff; opacity: 0.8; stroke: #cccccc; stroke-linejoin: miter"/>
    </g>
    <g id="line2d_99">
     <path d="M 774.920313 49.098437 
L 784.920313 49.098437 
L 794.920313 49.098437 
" style="fill: none; stroke: #0000ff; stroke-width: 1.5; stroke-linecap: square"/>
    </g>
    <g id="text_55">
     <!-- data -->
     <g transform="translate(802.920313 52.598437) scale(0.1 -0.1)">
      <use xlink:href="#DejaVuSans-64"/>
      <use xlink:href="#DejaVuSans-61" x="63.476562"/>
      <use xlink:href="#DejaVuSans-74" x="124.755859"/>
      <use xlink:href="#DejaVuSans-61" x="163.964844"/>
     </g>
    </g>
    <g id="line2d_100">
     <path d="M 774.920313 63.776562 
L 784.920313 63.776562 
L 794.920313 63.776562 
" style="fill: none; stroke-dasharray: 5.55,2.4; stroke-dashoffset: 0; stroke: #ff0000; stroke-width: 1.5"/>
    </g>
    <g id="text_56">
     <!-- sindy -->
     <g transform="translate(802.920313 67.276562) scale(0.1 -0.1)">
      <use xlink:href="#DejaVuSans-73"/>
      <use xlink:href="#DejaVuSans-69" x="52.099609"/>
      <use xlink:href="#DejaVuSans-6e" x="79.882812"/>
      <use xlink:href="#DejaVuSans-64" x="143.261719"/>
      <use xlink:href="#DejaVuSans-79" x="206.738281"/>
     </g>
    </g>
   </g>
  </g>
  <g id="text_57">
   <!-- cust_c -->
   <g transform="translate(510.809062 18.9125) scale(0.16 -0.16)">
    <defs>
     <path id="DejaVuSans-63" d="M 3122 3366 
L 3122 2828 
Q 2878 2963 2633 3030 
Q 2388 3097 2138 3097 
Q 1578 3097 1268 2742 
Q 959 2388 959 1747 
Q 959 1106 1268 751 
Q 1578 397 2138 397 
Q 2388 397 2633 464 
Q 2878 531 3122 666 
L 3122 134 
Q 2881 22 2623 -34 
Q 2366 -91 2075 -91 
Q 1284 -91 818 406 
Q 353 903 353 1747 
Q 353 2603 823 3093 
Q 1294 3584 2113 3584 
Q 2378 3584 2631 3529 
Q 2884 3475 3122 3366 
z
" transform="scale(0.015625)"/>
     <path id="DejaVuSans-75" d="M 544 1381 
L 544 3500 
L 1119 3500 
L 1119 1403 
Q 1119 906 1312 657 
Q 1506 409 1894 409 
Q 2359 409 2629 706 
Q 2900 1003 2900 1516 
L 2900 3500 
L 3475 3500 
L 3475 0 
L 2900 0 
L 2900 538 
Q 2691 219 2414 64 
Q 2138 -91 1772 -91 
Q 1169 -91 856 284 
Q 544 659 544 1381 
z
M 1991 3584 
L 1991 3584 
z
" transform="scale(0.015625)"/>
     <path id="DejaVuSans-5f" d="M 3263 -1063 
L 3263 -1509 
L -63 -1509 
L -63 -1063 
L 3263 -1063 
z
" transform="scale(0.015625)"/>
    </defs>
    <use xlink:href="#DejaVuSans-63"/>
    <use xlink:href="#DejaVuSans-75" x="54.980469"/>
    <use xlink:href="#DejaVuSans-73" x="118.359375"/>
    <use xlink:href="#DejaVuSans-74" x="170.458984"/>
    <use xlink:href="#DejaVuSans-5f" x="209.667969"/>
    <use xlink:href="#DejaVuSans-63" x="259.667969"/>
   </g>
  </g>
 </g>
 <defs>
  <clipPath id="p05a3f2fe88">
   <rect x="42.620313" y="36" width="299.26" height="282.04"/>
  </clipPath>
  <clipPath id="p8b9be3fcbb">
   <rect x="404.270312" y="36" width="299.26" height="282.04"/>
  </clipPath>
  <clipPath id="p070326d6f9">
   <rect x="765.920313" y="36" width="299.26" height="282.04"/>
  </clipPath>
 </defs>
</svg>
