<?xml version="1.0" encoding="utf-8" standalone="no"?>
<!DOCTYPE svg PUBLIC "-//W3C//DTD SVG 1.1//EN"
  "http://www.w3.org/Graphics/SVG/1.1/DTD/svg11.dtd">
<svg xmlns:xlink="http://www.w3.org/1999/xlink" width="1072.470937pt" height="355.59625pt" viewBox="0 0 1072.470937 355.59625" xmlns="http://www.w3.org/2000/svg" version="1.1">
 <metadata>
  <rdf:RDF xmlns:dc="http://purl.org/dc/elements/1.1/" xmlns:cc="http://creativecommons.org/ns#" xmlns:rdf="http://www.w3.org/1999/02/22-rdf-syntax-ns#">
   <cc:Work>
    <dc:type rdf:resource="http://purl.org/dc/dcmitype/StillImage"/>
    <dc:date>2025-01-24T15:06:36.927667</dc:date>
    <dc:format>image/svg+xml</dc:format>
    <dc:creator>
     <cc:Agent>
      <dc:title>Matplotlib v3.9.2, https://matplotlib.org/</dc:title>
     </cc:Agent>
    </dc:creator>
   </cc:Work>
  </rdf:RDF>
 </metadata>
 <defs>
  <style type="text/css">*{stroke-linejoin: round; stroke-linecap: butt}</style>
 </defs>
 <g id="figure_1">
  <g id="patch_1">
   <path d="M 0 355.59625 
L 1072.470937 355.59625 
L 1072.470937 0 
L 0 0 
z
" style="fill: #ffffff"/>
  </g>
  <g id="axes_1">
   <g id="patch_2">
    <path d="M 52.160938 318.04 
L 352.530937 318.04 
L 352.530937 36.72 
L 52.160938 36.72 
z
" style="fill: #ffffff"/>
   </g>
   <g id="matplotlib.axis_1">
    <g id="xtick_1">
     <g id="line2d_1">
      <path d="M 65.814119 318.04 
L 65.814119 36.72 
" clip-path="url(#p0a507fe7db)" style="fill: none; stroke: #b0b0b0; stroke-width: 0.8; stroke-linecap: square"/>
     </g>
     <g id="line2d_2">
      <defs>
       <path id="md8ab8ceea0" d="M 0 0 
L 0 3.5 
" style="stroke: #000000; stroke-width: 0.8"/>
      </defs>
      <g>
       <use xlink:href="#md8ab8ceea0" x="65.814119" y="318.04" style="stroke: #000000; stroke-width: 0.8"/>
      </g>
     </g>
     <g id="text_1">
      <!-- 0.0 -->
      <g transform="translate(57.862557 332.638437) scale(0.1 -0.1)">
       <defs>
        <path id="DejaVuSans-30" d="M 2034 4250 
Q 1547 4250 1301 3770 
Q 1056 3291 1056 2328 
Q 1056 1369 1301 889 
Q 1547 409 2034 409 
Q 2525 409 2770 889 
Q 3016 1369 3016 2328 
Q 3016 3291 2770 3770 
Q 2525 4250 2034 4250 
z
M 2034 4750 
Q 2819 4750 3233 4129 
Q 3647 3509 3647 2328 
Q 3647 1150 3233 529 
Q 2819 -91 2034 -91 
Q 1250 -91 836 529 
Q 422 1150 422 2328 
Q 422 3509 836 4129 
Q 1250 4750 2034 4750 
z
" transform="scale(0.015625)"/>
        <path id="DejaVuSans-2e" d="M 684 794 
L 1344 794 
L 1344 0 
L 684 0 
L 684 794 
z
" transform="scale(0.015625)"/>
       </defs>
       <use xlink:href="#DejaVuSans-30"/>
       <use xlink:href="#DejaVuSans-2e" x="63.623047"/>
       <use xlink:href="#DejaVuSans-30" x="95.410156"/>
      </g>
     </g>
    </g>
    <g id="xtick_2">
     <g id="line2d_3">
      <path d="M 99.947074 318.04 
L 99.947074 36.72 
" clip-path="url(#p0a507fe7db)" style="fill: none; stroke: #b0b0b0; stroke-width: 0.8; stroke-linecap: square"/>
     </g>
     <g id="line2d_4">
      <g>
       <use xlink:href="#md8ab8ceea0" x="99.947074" y="318.04" style="stroke: #000000; stroke-width: 0.8"/>
      </g>
     </g>
     <g id="text_2">
      <!-- 2.5 -->
      <g transform="translate(91.995511 332.638437) scale(0.1 -0.1)">
       <defs>
        <path id="DejaVuSans-32" d="M 1228 531 
L 3431 531 
L 3431 0 
L 469 0 
L 469 531 
Q 828 903 1448 1529 
Q 2069 2156 2228 2338 
Q 2531 2678 2651 2914 
Q 2772 3150 2772 3378 
Q 2772 3750 2511 3984 
Q 2250 4219 1831 4219 
Q 1534 4219 1204 4116 
Q 875 4013 500 3803 
L 500 4441 
Q 881 4594 1212 4672 
Q 1544 4750 1819 4750 
Q 2544 4750 2975 4387 
Q 3406 4025 3406 3419 
Q 3406 3131 3298 2873 
Q 3191 2616 2906 2266 
Q 2828 2175 2409 1742 
Q 1991 1309 1228 531 
z
" transform="scale(0.015625)"/>
        <path id="DejaVuSans-35" d="M 691 4666 
L 3169 4666 
L 3169 4134 
L 1269 4134 
L 1269 2991 
Q 1406 3038 1543 3061 
Q 1681 3084 1819 3084 
Q 2600 3084 3056 2656 
Q 3513 2228 3513 1497 
Q 3513 744 3044 326 
Q 2575 -91 1722 -91 
Q 1428 -91 1123 -41 
Q 819 9 494 109 
L 494 744 
Q 775 591 1075 516 
Q 1375 441 1709 441 
Q 2250 441 2565 725 
Q 2881 1009 2881 1497 
Q 2881 1984 2565 2268 
Q 2250 2553 1709 2553 
Q 1456 2553 1204 2497 
Q 953 2441 691 2322 
L 691 4666 
z
" transform="scale(0.015625)"/>
       </defs>
       <use xlink:href="#DejaVuSans-32"/>
       <use xlink:href="#DejaVuSans-2e" x="63.623047"/>
       <use xlink:href="#DejaVuSans-35" x="95.410156"/>
      </g>
     </g>
    </g>
    <g id="xtick_3">
     <g id="line2d_5">
      <path d="M 134.080028 318.04 
L 134.080028 36.72 
" clip-path="url(#p0a507fe7db)" style="fill: none; stroke: #b0b0b0; stroke-width: 0.8; stroke-linecap: square"/>
     </g>
     <g id="line2d_6">
      <g>
       <use xlink:href="#md8ab8ceea0" x="134.080028" y="318.04" style="stroke: #000000; stroke-width: 0.8"/>
      </g>
     </g>
     <g id="text_3">
      <!-- 5.0 -->
      <g transform="translate(126.128466 332.638437) scale(0.1 -0.1)">
       <use xlink:href="#DejaVuSans-35"/>
       <use xlink:href="#DejaVuSans-2e" x="63.623047"/>
       <use xlink:href="#DejaVuSans-30" x="95.410156"/>
      </g>
     </g>
    </g>
    <g id="xtick_4">
     <g id="line2d_7">
      <path d="M 168.212983 318.04 
L 168.212983 36.72 
" clip-path="url(#p0a507fe7db)" style="fill: none; stroke: #b0b0b0; stroke-width: 0.8; stroke-linecap: square"/>
     </g>
     <g id="line2d_8">
      <g>
       <use xlink:href="#md8ab8ceea0" x="168.212983" y="318.04" style="stroke: #000000; stroke-width: 0.8"/>
      </g>
     </g>
     <g id="text_4">
      <!-- 7.5 -->
      <g transform="translate(160.26142 332.638437) scale(0.1 -0.1)">
       <defs>
        <path id="DejaVuSans-37" d="M 525 4666 
L 3525 4666 
L 3525 4397 
L 1831 0 
L 1172 0 
L 2766 4134 
L 525 4134 
L 525 4666 
z
" transform="scale(0.015625)"/>
       </defs>
       <use xlink:href="#DejaVuSans-37"/>
       <use xlink:href="#DejaVuSans-2e" x="63.623047"/>
       <use xlink:href="#DejaVuSans-35" x="95.410156"/>
      </g>
     </g>
    </g>
    <g id="xtick_5">
     <g id="line2d_9">
      <path d="M 202.345937 318.04 
L 202.345937 36.72 
" clip-path="url(#p0a507fe7db)" style="fill: none; stroke: #b0b0b0; stroke-width: 0.8; stroke-linecap: square"/>
     </g>
     <g id="line2d_10">
      <g>
       <use xlink:href="#md8ab8ceea0" x="202.345937" y="318.04" style="stroke: #000000; stroke-width: 0.8"/>
      </g>
     </g>
     <g id="text_5">
      <!-- 10.0 -->
      <g transform="translate(191.213125 332.638437) scale(0.1 -0.1)">
       <defs>
        <path id="DejaVuSans-31" d="M 794 531 
L 1825 531 
L 1825 4091 
L 703 3866 
L 703 4441 
L 1819 4666 
L 2450 4666 
L 2450 531 
L 3481 531 
L 3481 0 
L 794 0 
L 794 531 
z
" transform="scale(0.015625)"/>
       </defs>
       <use xlink:href="#DejaVuSans-31"/>
       <use xlink:href="#DejaVuSans-30" x="63.623047"/>
       <use xlink:href="#DejaVuSans-2e" x="127.246094"/>
       <use xlink:href="#DejaVuSans-30" x="159.033203"/>
      </g>
     </g>
    </g>
    <g id="xtick_6">
     <g id="line2d_11">
      <path d="M 236.478892 318.04 
L 236.478892 36.72 
" clip-path="url(#p0a507fe7db)" style="fill: none; stroke: #b0b0b0; stroke-width: 0.8; stroke-linecap: square"/>
     </g>
     <g id="line2d_12">
      <g>
       <use xlink:href="#md8ab8ceea0" x="236.478892" y="318.04" style="stroke: #000000; stroke-width: 0.8"/>
      </g>
     </g>
     <g id="text_6">
      <!-- 12.5 -->
      <g transform="translate(225.34608 332.638437) scale(0.1 -0.1)">
       <use xlink:href="#DejaVuSans-31"/>
       <use xlink:href="#DejaVuSans-32" x="63.623047"/>
       <use xlink:href="#DejaVuSans-2e" x="127.246094"/>
       <use xlink:href="#DejaVuSans-35" x="159.033203"/>
      </g>
     </g>
    </g>
    <g id="xtick_7">
     <g id="line2d_13">
      <path d="M 270.611847 318.04 
L 270.611847 36.72 
" clip-path="url(#p0a507fe7db)" style="fill: none; stroke: #b0b0b0; stroke-width: 0.8; stroke-linecap: square"/>
     </g>
     <g id="line2d_14">
      <g>
       <use xlink:href="#md8ab8ceea0" x="270.611847" y="318.04" style="stroke: #000000; stroke-width: 0.8"/>
      </g>
     </g>
     <g id="text_7">
      <!-- 15.0 -->
      <g transform="translate(259.479034 332.638437) scale(0.1 -0.1)">
       <use xlink:href="#DejaVuSans-31"/>
       <use xlink:href="#DejaVuSans-35" x="63.623047"/>
       <use xlink:href="#DejaVuSans-2e" x="127.246094"/>
       <use xlink:href="#DejaVuSans-30" x="159.033203"/>
      </g>
     </g>
    </g>
    <g id="xtick_8">
     <g id="line2d_15">
      <path d="M 304.744801 318.04 
L 304.744801 36.72 
" clip-path="url(#p0a507fe7db)" style="fill: none; stroke: #b0b0b0; stroke-width: 0.8; stroke-linecap: square"/>
     </g>
     <g id="line2d_16">
      <g>
       <use xlink:href="#md8ab8ceea0" x="304.744801" y="318.04" style="stroke: #000000; stroke-width: 0.8"/>
      </g>
     </g>
     <g id="text_8">
      <!-- 17.5 -->
      <g transform="translate(293.611989 332.638437) scale(0.1 -0.1)">
       <use xlink:href="#DejaVuSans-31"/>
       <use xlink:href="#DejaVuSans-37" x="63.623047"/>
       <use xlink:href="#DejaVuSans-2e" x="127.246094"/>
       <use xlink:href="#DejaVuSans-35" x="159.033203"/>
      </g>
     </g>
    </g>
    <g id="xtick_9">
     <g id="line2d_17">
      <path d="M 338.877756 318.04 
L 338.877756 36.72 
" clip-path="url(#p0a507fe7db)" style="fill: none; stroke: #b0b0b0; stroke-width: 0.8; stroke-linecap: square"/>
     </g>
     <g id="line2d_18">
      <g>
       <use xlink:href="#md8ab8ceea0" x="338.877756" y="318.04" style="stroke: #000000; stroke-width: 0.8"/>
      </g>
     </g>
     <g id="text_9">
      <!-- 20.0 -->
      <g transform="translate(327.744943 332.638437) scale(0.1 -0.1)">
       <use xlink:href="#DejaVuSans-32"/>
       <use xlink:href="#DejaVuSans-30" x="63.623047"/>
       <use xlink:href="#DejaVuSans-2e" x="127.246094"/>
       <use xlink:href="#DejaVuSans-30" x="159.033203"/>
      </g>
     </g>
    </g>
    <g id="text_10">
     <!-- t -->
     <g transform="translate(200.385781 346.316562) scale(0.1 -0.1)">
      <defs>
       <path id="DejaVuSans-74" d="M 1172 4494 
L 1172 3500 
L 2356 3500 
L 2356 3053 
L 1172 3053 
L 1172 1153 
Q 1172 725 1289 603 
Q 1406 481 1766 481 
L 2356 481 
L 2356 0 
L 1766 0 
Q 1100 0 847 248 
Q 594 497 594 1153 
L 594 3053 
L 172 3053 
L 172 3500 
L 594 3500 
L 594 4494 
L 1172 4494 
z
" transform="scale(0.015625)"/>
      </defs>
      <use xlink:href="#DejaVuSans-74"/>
     </g>
    </g>
   </g>
   <g id="matplotlib.axis_2">
    <g id="ytick_1">
     <g id="line2d_19">
      <path d="M 52.160938 281.286585 
L 352.530937 281.286585 
" clip-path="url(#p0a507fe7db)" style="fill: none; stroke: #b0b0b0; stroke-width: 0.8; stroke-linecap: square"/>
     </g>
     <g id="line2d_20">
      <defs>
       <path id="m04ced31f0f" d="M 0 0 
L -3.5 0 
" style="stroke: #000000; stroke-width: 0.8"/>
      </defs>
      <g>
       <use xlink:href="#m04ced31f0f" x="52.160938" y="281.286585" style="stroke: #000000; stroke-width: 0.8"/>
      </g>
     </g>
     <g id="text_11">
      <!-- −1.0 -->
      <g transform="translate(20.878125 285.085804) scale(0.1 -0.1)">
       <defs>
        <path id="DejaVuSans-2212" d="M 678 2272 
L 4684 2272 
L 4684 1741 
L 678 1741 
L 678 2272 
z
" transform="scale(0.015625)"/>
       </defs>
       <use xlink:href="#DejaVuSans-2212"/>
       <use xlink:href="#DejaVuSans-31" x="83.789062"/>
       <use xlink:href="#DejaVuSans-2e" x="147.412109"/>
       <use xlink:href="#DejaVuSans-30" x="179.199219"/>
      </g>
     </g>
    </g>
    <g id="ytick_2">
     <g id="line2d_21">
      <path d="M 52.160938 234.885014 
L 352.530937 234.885014 
" clip-path="url(#p0a507fe7db)" style="fill: none; stroke: #b0b0b0; stroke-width: 0.8; stroke-linecap: square"/>
     </g>
     <g id="line2d_22">
      <g>
       <use xlink:href="#m04ced31f0f" x="52.160938" y="234.885014" style="stroke: #000000; stroke-width: 0.8"/>
      </g>
     </g>
     <g id="text_12">
      <!-- −0.5 -->
      <g transform="translate(20.878125 238.684233) scale(0.1 -0.1)">
       <use xlink:href="#DejaVuSans-2212"/>
       <use xlink:href="#DejaVuSans-30" x="83.789062"/>
       <use xlink:href="#DejaVuSans-2e" x="147.412109"/>
       <use xlink:href="#DejaVuSans-35" x="179.199219"/>
      </g>
     </g>
    </g>
    <g id="ytick_3">
     <g id="line2d_23">
      <path d="M 52.160938 188.483443 
L 352.530937 188.483443 
" clip-path="url(#p0a507fe7db)" style="fill: none; stroke: #b0b0b0; stroke-width: 0.8; stroke-linecap: square"/>
     </g>
     <g id="line2d_24">
      <g>
       <use xlink:href="#m04ced31f0f" x="52.160938" y="188.483443" style="stroke: #000000; stroke-width: 0.8"/>
      </g>
     </g>
     <g id="text_13">
      <!-- 0.0 -->
      <g transform="translate(29.257812 192.282662) scale(0.1 -0.1)">
       <use xlink:href="#DejaVuSans-30"/>
       <use xlink:href="#DejaVuSans-2e" x="63.623047"/>
       <use xlink:href="#DejaVuSans-30" x="95.410156"/>
      </g>
     </g>
    </g>
    <g id="ytick_4">
     <g id="line2d_25">
      <path d="M 52.160938 142.081873 
L 352.530937 142.081873 
" clip-path="url(#p0a507fe7db)" style="fill: none; stroke: #b0b0b0; stroke-width: 0.8; stroke-linecap: square"/>
     </g>
     <g id="line2d_26">
      <g>
       <use xlink:href="#m04ced31f0f" x="52.160938" y="142.081873" style="stroke: #000000; stroke-width: 0.8"/>
      </g>
     </g>
     <g id="text_14">
      <!-- 0.5 -->
      <g transform="translate(29.257812 145.881091) scale(0.1 -0.1)">
       <use xlink:href="#DejaVuSans-30"/>
       <use xlink:href="#DejaVuSans-2e" x="63.623047"/>
       <use xlink:href="#DejaVuSans-35" x="95.410156"/>
      </g>
     </g>
    </g>
    <g id="ytick_5">
     <g id="line2d_27">
      <path d="M 52.160938 95.680302 
L 352.530937 95.680302 
" clip-path="url(#p0a507fe7db)" style="fill: none; stroke: #b0b0b0; stroke-width: 0.8; stroke-linecap: square"/>
     </g>
     <g id="line2d_28">
      <g>
       <use xlink:href="#m04ced31f0f" x="52.160938" y="95.680302" style="stroke: #000000; stroke-width: 0.8"/>
      </g>
     </g>
     <g id="text_15">
      <!-- 1.0 -->
      <g transform="translate(29.257812 99.479521) scale(0.1 -0.1)">
       <use xlink:href="#DejaVuSans-31"/>
       <use xlink:href="#DejaVuSans-2e" x="63.623047"/>
       <use xlink:href="#DejaVuSans-30" x="95.410156"/>
      </g>
     </g>
    </g>
    <g id="ytick_6">
     <g id="line2d_29">
      <path d="M 52.160938 49.278731 
L 352.530937 49.278731 
" clip-path="url(#p0a507fe7db)" style="fill: none; stroke: #b0b0b0; stroke-width: 0.8; stroke-linecap: square"/>
     </g>
     <g id="line2d_30">
      <g>
       <use xlink:href="#m04ced31f0f" x="52.160938" y="49.278731" style="stroke: #000000; stroke-width: 0.8"/>
      </g>
     </g>
     <g id="text_16">
      <!-- 1.5 -->
      <g transform="translate(29.257812 53.07795) scale(0.1 -0.1)">
       <use xlink:href="#DejaVuSans-31"/>
       <use xlink:href="#DejaVuSans-2e" x="63.623047"/>
       <use xlink:href="#DejaVuSans-35" x="95.410156"/>
      </g>
     </g>
    </g>
    <g id="text_17">
     <!-- x(t) -->
     <g transform="translate(14.798438 186.201094) rotate(-90) scale(0.1 -0.1)">
      <defs>
       <path id="DejaVuSans-78" d="M 3513 3500 
L 2247 1797 
L 3578 0 
L 2900 0 
L 1881 1375 
L 863 0 
L 184 0 
L 1544 1831 
L 300 3500 
L 978 3500 
L 1906 2253 
L 2834 3500 
L 3513 3500 
z
" transform="scale(0.015625)"/>
       <path id="DejaVuSans-28" d="M 1984 4856 
Q 1566 4138 1362 3434 
Q 1159 2731 1159 2009 
Q 1159 1288 1364 580 
Q 1569 -128 1984 -844 
L 1484 -844 
Q 1016 -109 783 600 
Q 550 1309 550 2009 
Q 550 2706 781 3412 
Q 1013 4119 1484 4856 
L 1984 4856 
z
" transform="scale(0.015625)"/>
       <path id="DejaVuSans-29" d="M 513 4856 
L 1013 4856 
Q 1481 4119 1714 3412 
Q 1947 2706 1947 2009 
Q 1947 1309 1714 600 
Q 1481 -109 1013 -844 
L 513 -844 
Q 928 -128 1133 580 
Q 1338 1288 1338 2009 
Q 1338 2731 1133 3434 
Q 928 4138 513 4856 
z
" transform="scale(0.015625)"/>
      </defs>
      <use xlink:href="#DejaVuSans-78"/>
      <use xlink:href="#DejaVuSans-28" x="59.179688"/>
      <use xlink:href="#DejaVuSans-74" x="98.193359"/>
      <use xlink:href="#DejaVuSans-29" x="137.402344"/>
     </g>
    </g>
   </g>
   <g id="line2d_31">
    <path d="M 65.814119 188.483443 
L 75.380913 188.378254 
L 79.207631 188.098328 
L 82.214338 187.657922 
L 84.947707 187.030211 
L 87.40774 186.246605 
L 89.867773 185.236872 
L 92.327806 183.995949 
L 95.061175 182.359172 
L 98.067882 180.2918 
L 102.441274 176.976843 
L 107.361339 173.30224 
L 109.821372 171.722233 
L 112.008068 170.58329 
L 113.921427 169.858508 
L 115.561448 169.482073 
L 116.928133 169.36596 
L 118.294818 169.448491 
L 119.661503 169.74607 
L 121.028188 170.273324 
L 122.394873 171.042775 
L 123.761558 172.064554 
L 125.128243 173.346123 
L 126.768264 175.233111 
L 128.408286 177.502438 
L 130.048308 180.14901 
L 131.961667 183.696524 
L 133.875026 187.7077 
L 136.061721 192.799367 
L 138.795091 199.791478 
L 142.348472 209.583004 
L 149.181896 228.596196 
L 151.641929 234.775443 
L 153.828625 239.671309 
L 155.468647 242.873978 
L 157.108668 245.602139 
L 158.475353 247.468469 
L 159.842038 248.9287 
L 160.935386 249.783382 
L 162.028734 250.343294 
L 162.848745 250.561581 
L 163.668756 250.60118 
L 164.488767 250.457338 
L 165.308778 250.125896 
L 166.128789 249.603369 
L 167.222136 248.604722 
L 168.315484 247.256931 
L 169.408832 245.557809 
L 170.775517 242.9405 
L 172.142202 239.780924 
L 173.508887 236.09143 
L 175.148909 230.99127 
L 176.78893 225.199457 
L 178.702289 217.644947 
L 180.888985 208.098456 
L 183.622355 195.09455 
L 187.722409 174.301691 
L 192.915812 148.060485 
L 195.649182 135.342052 
L 197.835877 126.13414 
L 199.749236 118.978507 
L 201.389258 113.628993 
L 202.755943 109.787852 
L 204.122628 106.554978 
L 205.215976 104.434008 
L 206.309324 102.747166 
L 207.402672 101.511409 
L 208.222682 100.889705 
L 209.042693 100.535761 
L 209.862704 100.454444 
L 210.682715 100.649881 
L 211.502726 101.12525 
L 212.322737 101.882646 
L 213.142748 102.923047 
L 214.236096 104.750059 
L 215.329444 107.076294 
L 216.422792 109.894618 
L 217.789476 114.09279 
L 219.156161 119.013852 
L 220.796183 125.819861 
L 222.709542 134.89825 
L 224.896238 146.580139 
L 227.356271 161.05274 
L 230.909651 183.53757 
L 237.469739 225.362296 
L 240.203108 241.167739 
L 242.389804 252.514162 
L 244.303163 261.257659 
L 245.943185 267.736993 
L 247.30987 272.346863 
L 248.676554 276.185496 
L 249.769902 278.671121 
L 250.86325 280.614652 
L 251.683261 281.705933 
L 252.503272 282.475987 
L 253.323283 282.919264 
L 254.143294 283.031101 
L 254.689968 282.919641 
L 255.509979 282.471382 
L 256.32999 281.684505 
L 257.150001 280.558784 
L 257.970012 279.095398 
L 259.063359 276.623635 
L 260.156707 273.566371 
L 261.523392 268.943867 
L 262.890077 263.467227 
L 264.530099 255.836342 
L 266.170121 247.14752 
L 268.08348 235.836526 
L 270.543512 219.784522 
L 273.823556 196.627464 
L 281.203654 143.924729 
L 283.663687 128.15766 
L 285.850383 115.596464 
L 287.763742 105.987539 
L 289.403764 98.930412 
L 290.770448 93.96338 
L 292.137133 89.886321 
L 293.230481 87.298294 
L 294.323829 85.332665 
L 295.14384 84.278212 
L 295.963851 83.591109 
L 296.783862 83.277055 
L 297.330536 83.277277 
L 297.87721 83.446487 
L 298.423884 83.785489 
L 299.243895 84.61333 
L 300.063905 85.824518 
L 300.883916 87.417721 
L 301.977264 90.130883 
L 303.070612 93.506207 
L 304.437297 98.63072 
L 305.803982 104.720022 
L 307.444004 113.221884 
L 309.084026 122.915302 
L 310.997384 135.543078 
L 313.457417 153.466138 
L 316.737461 179.305836 
L 323.844222 235.992232 
L 326.304255 253.735222 
L 328.490951 267.934808 
L 330.40431 278.854869 
L 332.044331 286.925902 
L 333.411016 292.649752 
L 334.777701 297.395684 
L 335.871049 300.450965 
L 336.964397 302.820149 
L 337.784408 304.133757 
L 338.604419 305.041516 
L 338.877756 305.252727 
L 338.877756 305.252727 
" clip-path="url(#p0a507fe7db)" style="fill: none; stroke: #0000ff; stroke-width: 1.5; stroke-linecap: square"/>
   </g>
   <g id="line2d_32">
    <path d="M 65.814119 188.483443 
L 68.274152 188.814993 
L 71.007522 188.952299 
L 74.014229 188.878597 
L 77.294272 188.575082 
L 80.574316 188.054686 
L 83.85436 187.303099 
L 86.861066 186.383138 
L 89.867773 185.214946 
L 92.87448 183.784145 
L 95.881186 182.100033 
L 99.434567 179.842089 
L 109.274698 173.378001 
L 111.734731 172.121697 
L 113.921427 171.267735 
L 115.834785 170.772694 
L 117.474807 170.566467 
L 119.114829 170.590216 
L 120.481514 170.809926 
L 121.848199 171.230929 
L 123.214884 171.869581 
L 124.581569 172.740082 
L 125.948253 173.854251 
L 127.314938 175.221323 
L 128.95496 177.204484 
L 130.594982 179.566191 
L 132.235004 182.304598 
L 134.148363 185.961192 
L 136.335058 190.677195 
L 139.068428 197.145377 
L 147.268537 216.950997 
L 149.72857 222.10143 
L 151.915266 226.134759 
L 153.828625 229.188549 
L 155.468647 231.427252 
L 157.108668 233.299652 
L 158.475353 234.570583 
L 159.842038 235.570973 
L 161.208723 236.294146 
L 162.575408 236.733479 
L 163.668756 236.875996 
L 164.762104 236.818035 
L 165.855452 236.524966 
L 166.948799 235.96669 
L 168.042147 235.121075 
L 169.135495 233.973388 
L 170.228843 232.515074 
L 171.595528 230.249274 
L 172.962213 227.488034 
L 174.328898 224.226576 
L 175.695583 220.45405 
L 177.335604 215.225671 
L 178.975626 209.193922 
L 180.615648 202.329084 
L 182.529007 193.281796 
L 184.98904 180.350124 
L 188.815757 158.812787 
L 197.835877 107.703345 
L 200.569247 93.657225 
L 203.02928 82.123744 
L 204.942639 74.094805 
L 206.309324 69.121875 
L 207.402672 65.830683 
L 208.222682 63.897032 
L 209.042693 62.517881 
L 209.589367 61.940519 
L 210.136041 61.65258 
L 210.682715 61.669787 
L 211.229389 62.002855 
L 211.776063 62.651877 
L 212.322737 63.607212 
L 213.142748 65.57505 
L 213.962759 68.11438 
L 215.056107 72.245287 
L 216.422792 78.368668 
L 218.062813 86.813077 
L 220.249509 99.464078 
L 223.256216 118.428761 
L 226.809597 142.125905 
L 229.542966 161.734332 
L 237.196402 217.758555 
L 239.383097 231.774708 
L 241.296456 242.701363 
L 242.936478 250.887751 
L 244.5765 257.889636 
L 245.943185 262.799738 
L 247.30987 266.881508 
L 248.403218 269.56905 
L 249.496565 271.762181 
L 250.589913 273.479926 
L 251.683261 274.741451 
L 252.503272 275.39965 
L 253.323283 275.819957 
L 254.143294 276.010414 
L 254.963305 275.955496 
L 255.783316 275.58966 
L 256.603327 274.859194 
L 257.423338 273.733789 
L 258.243349 272.206626 
L 259.336696 269.573376 
L 260.430044 266.334408 
L 261.796729 261.605154 
L 263.710088 254.109703 
L 266.170121 243.54678 
L 268.356817 233.306759 
L 270.270175 223.286086 
L 271.910197 213.567362 
L 273.823556 200.903341 
L 276.830263 179.267718 
L 289.950437 83.403862 
L 292.683807 65.16666 
L 294.050492 57.26244 
L 294.870503 53.483052 
L 295.690514 50.833066 
L 296.237188 49.836977 
L 296.510525 49.588421 
L 296.783862 49.507273 
L 297.057199 49.589947 
L 297.330536 49.83079 
L 297.87721 50.762205 
L 298.423884 52.233802 
L 299.243895 55.251003 
L 300.337242 60.296179 
L 301.977264 69.007686 
L 304.437297 83.390813 
L 307.170667 100.837626 
L 310.724047 125.124839 
L 313.457417 145.23778 
L 315.91745 165.122816 
L 324.117559 233.024842 
L 326.304255 248.862473 
L 328.217614 261.05584 
L 329.857636 270.074481 
L 331.497657 277.761212 
L 332.864342 283.210899 
L 334.231027 287.865491 
L 335.597712 291.790866 
L 336.964397 295.035266 
L 338.057745 297.15574 
L 338.604419 298.056965 
L 338.877756 298.056965 
L 338.877756 298.056965 
" clip-path="url(#p0a507fe7db)" style="fill: none; stroke-dasharray: 5.55,2.4; stroke-dashoffset: 0; stroke: #ff0000; stroke-width: 1.5"/>
   </g>
   <g id="patch_3">
    <path d="M 52.160938 318.04 
L 52.160938 36.72 
" style="fill: none; stroke: #000000; stroke-width: 0.8; stroke-linejoin: miter; stroke-linecap: square"/>
   </g>
   <g id="patch_4">
    <path d="M 352.530937 318.04 
L 352.530937 36.72 
" style="fill: none; stroke: #000000; stroke-width: 0.8; stroke-linejoin: miter; stroke-linecap: square"/>
   </g>
   <g id="patch_5">
    <path d="M 52.160938 318.04 
L 352.530938 318.04 
" style="fill: none; stroke: #000000; stroke-width: 0.8; stroke-linejoin: miter; stroke-linecap: square"/>
   </g>
   <g id="patch_6">
    <path d="M 52.160938 36.72 
L 352.530938 36.72 
" style="fill: none; stroke: #000000; stroke-width: 0.8; stroke-linejoin: miter; stroke-linecap: square"/>
   </g>
   <g id="legend_1">
    <g id="patch_7">
     <path d="M 59.160938 74.07625 
L 117.753125 74.07625 
Q 119.753125 74.07625 119.753125 72.07625 
L 119.753125 43.72 
Q 119.753125 41.72 117.753125 41.72 
L 59.160938 41.72 
Q 57.160938 41.72 57.160938 43.72 
L 57.160938 72.07625 
Q 57.160938 74.07625 59.160938 74.07625 
z
" style="fill: #ffffff; opacity: 0.8; stroke: #cccccc; stroke-linejoin: miter"/>
    </g>
    <g id="line2d_33">
     <path d="M 61.160938 49.818437 
L 71.160938 49.818437 
L 81.160938 49.818437 
" style="fill: none; stroke: #0000ff; stroke-width: 1.5; stroke-linecap: square"/>
    </g>
    <g id="text_18">
     <!-- data -->
     <g transform="translate(89.160938 53.318437) scale(0.1 -0.1)">
      <defs>
       <path id="DejaVuSans-64" d="M 2906 2969 
L 2906 4863 
L 3481 4863 
L 3481 0 
L 2906 0 
L 2906 525 
Q 2725 213 2448 61 
Q 2172 -91 1784 -91 
Q 1150 -91 751 415 
Q 353 922 353 1747 
Q 353 2572 751 3078 
Q 1150 3584 1784 3584 
Q 2172 3584 2448 3432 
Q 2725 3281 2906 2969 
z
M 947 1747 
Q 947 1113 1208 752 
Q 1469 391 1925 391 
Q 2381 391 2643 752 
Q 2906 1113 2906 1747 
Q 2906 2381 2643 2742 
Q 2381 3103 1925 3103 
Q 1469 3103 1208 2742 
Q 947 2381 947 1747 
z
" transform="scale(0.015625)"/>
       <path id="DejaVuSans-61" d="M 2194 1759 
Q 1497 1759 1228 1600 
Q 959 1441 959 1056 
Q 959 750 1161 570 
Q 1363 391 1709 391 
Q 2188 391 2477 730 
Q 2766 1069 2766 1631 
L 2766 1759 
L 2194 1759 
z
M 3341 1997 
L 3341 0 
L 2766 0 
L 2766 531 
Q 2569 213 2275 61 
Q 1981 -91 1556 -91 
Q 1019 -91 701 211 
Q 384 513 384 1019 
Q 384 1609 779 1909 
Q 1175 2209 1959 2209 
L 2766 2209 
L 2766 2266 
Q 2766 2663 2505 2880 
Q 2244 3097 1772 3097 
Q 1472 3097 1187 3025 
Q 903 2953 641 2809 
L 641 3341 
Q 956 3463 1253 3523 
Q 1550 3584 1831 3584 
Q 2591 3584 2966 3190 
Q 3341 2797 3341 1997 
z
" transform="scale(0.015625)"/>
      </defs>
      <use xlink:href="#DejaVuSans-64"/>
      <use xlink:href="#DejaVuSans-61" x="63.476562"/>
      <use xlink:href="#DejaVuSans-74" x="124.755859"/>
      <use xlink:href="#DejaVuSans-61" x="163.964844"/>
     </g>
    </g>
    <g id="line2d_34">
     <path d="M 61.160938 64.496562 
L 71.160938 64.496562 
L 81.160938 64.496562 
" style="fill: none; stroke-dasharray: 5.55,2.4; stroke-dashoffset: 0; stroke: #ff0000; stroke-width: 1.5"/>
    </g>
    <g id="text_19">
     <!-- sindy -->
     <g transform="translate(89.160938 67.996562) scale(0.1 -0.1)">
      <defs>
       <path id="DejaVuSans-73" d="M 2834 3397 
L 2834 2853 
Q 2591 2978 2328 3040 
Q 2066 3103 1784 3103 
Q 1356 3103 1142 2972 
Q 928 2841 928 2578 
Q 928 2378 1081 2264 
Q 1234 2150 1697 2047 
L 1894 2003 
Q 2506 1872 2764 1633 
Q 3022 1394 3022 966 
Q 3022 478 2636 193 
Q 2250 -91 1575 -91 
Q 1294 -91 989 -36 
Q 684 19 347 128 
L 347 722 
Q 666 556 975 473 
Q 1284 391 1588 391 
Q 1994 391 2212 530 
Q 2431 669 2431 922 
Q 2431 1156 2273 1281 
Q 2116 1406 1581 1522 
L 1381 1569 
Q 847 1681 609 1914 
Q 372 2147 372 2553 
Q 372 3047 722 3315 
Q 1072 3584 1716 3584 
Q 2034 3584 2315 3537 
Q 2597 3491 2834 3397 
z
" transform="scale(0.015625)"/>
       <path id="DejaVuSans-69" d="M 603 3500 
L 1178 3500 
L 1178 0 
L 603 0 
L 603 3500 
z
M 603 4863 
L 1178 4863 
L 1178 4134 
L 603 4134 
L 603 4863 
z
" transform="scale(0.015625)"/>
       <path id="DejaVuSans-6e" d="M 3513 2113 
L 3513 0 
L 2938 0 
L 2938 2094 
Q 2938 2591 2744 2837 
Q 2550 3084 2163 3084 
Q 1697 3084 1428 2787 
Q 1159 2491 1159 1978 
L 1159 0 
L 581 0 
L 581 3500 
L 1159 3500 
L 1159 2956 
Q 1366 3272 1645 3428 
Q 1925 3584 2291 3584 
Q 2894 3584 3203 3211 
Q 3513 2838 3513 2113 
z
" transform="scale(0.015625)"/>
       <path id="DejaVuSans-79" d="M 2059 -325 
Q 1816 -950 1584 -1140 
Q 1353 -1331 966 -1331 
L 506 -1331 
L 506 -850 
L 844 -850 
Q 1081 -850 1212 -737 
Q 1344 -625 1503 -206 
L 1606 56 
L 191 3500 
L 800 3500 
L 1894 763 
L 2988 3500 
L 3597 3500 
L 2059 -325 
z
" transform="scale(0.015625)"/>
      </defs>
      <use xlink:href="#DejaVuSans-73"/>
      <use xlink:href="#DejaVuSans-69" x="52.099609"/>
      <use xlink:href="#DejaVuSans-6e" x="79.882812"/>
      <use xlink:href="#DejaVuSans-64" x="143.261719"/>
      <use xlink:href="#DejaVuSans-79" x="206.738281"/>
     </g>
    </g>
   </g>
  </g>
  <g id="axes_2">
   <g id="patch_8">
    <path d="M 408.530938 318.04 
L 708.900938 318.04 
L 708.900938 36.72 
L 408.530938 36.72 
z
" style="fill: #ffffff"/>
   </g>
   <g id="matplotlib.axis_3">
    <g id="xtick_10">
     <g id="line2d_35">
      <path d="M 422.184119 318.04 
L 422.184119 36.72 
" clip-path="url(#p09ae0dcd77)" style="fill: none; stroke: #b0b0b0; stroke-width: 0.8; stroke-linecap: square"/>
     </g>
     <g id="line2d_36">
      <g>
       <use xlink:href="#md8ab8ceea0" x="422.184119" y="318.04" style="stroke: #000000; stroke-width: 0.8"/>
      </g>
     </g>
     <g id="text_20">
      <!-- 0.0 -->
      <g transform="translate(414.232557 332.638437) scale(0.1 -0.1)">
       <use xlink:href="#DejaVuSans-30"/>
       <use xlink:href="#DejaVuSans-2e" x="63.623047"/>
       <use xlink:href="#DejaVuSans-30" x="95.410156"/>
      </g>
     </g>
    </g>
    <g id="xtick_11">
     <g id="line2d_37">
      <path d="M 456.317074 318.04 
L 456.317074 36.72 
" clip-path="url(#p09ae0dcd77)" style="fill: none; stroke: #b0b0b0; stroke-width: 0.8; stroke-linecap: square"/>
     </g>
     <g id="line2d_38">
      <g>
       <use xlink:href="#md8ab8ceea0" x="456.317074" y="318.04" style="stroke: #000000; stroke-width: 0.8"/>
      </g>
     </g>
     <g id="text_21">
      <!-- 2.5 -->
      <g transform="translate(448.365511 332.638437) scale(0.1 -0.1)">
       <use xlink:href="#DejaVuSans-32"/>
       <use xlink:href="#DejaVuSans-2e" x="63.623047"/>
       <use xlink:href="#DejaVuSans-35" x="95.410156"/>
      </g>
     </g>
    </g>
    <g id="xtick_12">
     <g id="line2d_39">
      <path d="M 490.450028 318.04 
L 490.450028 36.72 
" clip-path="url(#p09ae0dcd77)" style="fill: none; stroke: #b0b0b0; stroke-width: 0.8; stroke-linecap: square"/>
     </g>
     <g id="line2d_40">
      <g>
       <use xlink:href="#md8ab8ceea0" x="490.450028" y="318.04" style="stroke: #000000; stroke-width: 0.8"/>
      </g>
     </g>
     <g id="text_22">
      <!-- 5.0 -->
      <g transform="translate(482.498466 332.638437) scale(0.1 -0.1)">
       <use xlink:href="#DejaVuSans-35"/>
       <use xlink:href="#DejaVuSans-2e" x="63.623047"/>
       <use xlink:href="#DejaVuSans-30" x="95.410156"/>
      </g>
     </g>
    </g>
    <g id="xtick_13">
     <g id="line2d_41">
      <path d="M 524.582983 318.04 
L 524.582983 36.72 
" clip-path="url(#p09ae0dcd77)" style="fill: none; stroke: #b0b0b0; stroke-width: 0.8; stroke-linecap: square"/>
     </g>
     <g id="line2d_42">
      <g>
       <use xlink:href="#md8ab8ceea0" x="524.582983" y="318.04" style="stroke: #000000; stroke-width: 0.8"/>
      </g>
     </g>
     <g id="text_23">
      <!-- 7.5 -->
      <g transform="translate(516.63142 332.638437) scale(0.1 -0.1)">
       <use xlink:href="#DejaVuSans-37"/>
       <use xlink:href="#DejaVuSans-2e" x="63.623047"/>
       <use xlink:href="#DejaVuSans-35" x="95.410156"/>
      </g>
     </g>
    </g>
    <g id="xtick_14">
     <g id="line2d_43">
      <path d="M 558.715938 318.04 
L 558.715938 36.72 
" clip-path="url(#p09ae0dcd77)" style="fill: none; stroke: #b0b0b0; stroke-width: 0.8; stroke-linecap: square"/>
     </g>
     <g id="line2d_44">
      <g>
       <use xlink:href="#md8ab8ceea0" x="558.715938" y="318.04" style="stroke: #000000; stroke-width: 0.8"/>
      </g>
     </g>
     <g id="text_24">
      <!-- 10.0 -->
      <g transform="translate(547.583125 332.638437) scale(0.1 -0.1)">
       <use xlink:href="#DejaVuSans-31"/>
       <use xlink:href="#DejaVuSans-30" x="63.623047"/>
       <use xlink:href="#DejaVuSans-2e" x="127.246094"/>
       <use xlink:href="#DejaVuSans-30" x="159.033203"/>
      </g>
     </g>
    </g>
    <g id="xtick_15">
     <g id="line2d_45">
      <path d="M 592.848892 318.04 
L 592.848892 36.72 
" clip-path="url(#p09ae0dcd77)" style="fill: none; stroke: #b0b0b0; stroke-width: 0.8; stroke-linecap: square"/>
     </g>
     <g id="line2d_46">
      <g>
       <use xlink:href="#md8ab8ceea0" x="592.848892" y="318.04" style="stroke: #000000; stroke-width: 0.8"/>
      </g>
     </g>
     <g id="text_25">
      <!-- 12.5 -->
      <g transform="translate(581.71608 332.638437) scale(0.1 -0.1)">
       <use xlink:href="#DejaVuSans-31"/>
       <use xlink:href="#DejaVuSans-32" x="63.623047"/>
       <use xlink:href="#DejaVuSans-2e" x="127.246094"/>
       <use xlink:href="#DejaVuSans-35" x="159.033203"/>
      </g>
     </g>
    </g>
    <g id="xtick_16">
     <g id="line2d_47">
      <path d="M 626.981847 318.04 
L 626.981847 36.72 
" clip-path="url(#p09ae0dcd77)" style="fill: none; stroke: #b0b0b0; stroke-width: 0.8; stroke-linecap: square"/>
     </g>
     <g id="line2d_48">
      <g>
       <use xlink:href="#md8ab8ceea0" x="626.981847" y="318.04" style="stroke: #000000; stroke-width: 0.8"/>
      </g>
     </g>
     <g id="text_26">
      <!-- 15.0 -->
      <g transform="translate(615.849034 332.638437) scale(0.1 -0.1)">
       <use xlink:href="#DejaVuSans-31"/>
       <use xlink:href="#DejaVuSans-35" x="63.623047"/>
       <use xlink:href="#DejaVuSans-2e" x="127.246094"/>
       <use xlink:href="#DejaVuSans-30" x="159.033203"/>
      </g>
     </g>
    </g>
    <g id="xtick_17">
     <g id="line2d_49">
      <path d="M 661.114801 318.04 
L 661.114801 36.72 
" clip-path="url(#p09ae0dcd77)" style="fill: none; stroke: #b0b0b0; stroke-width: 0.8; stroke-linecap: square"/>
     </g>
     <g id="line2d_50">
      <g>
       <use xlink:href="#md8ab8ceea0" x="661.114801" y="318.04" style="stroke: #000000; stroke-width: 0.8"/>
      </g>
     </g>
     <g id="text_27">
      <!-- 17.5 -->
      <g transform="translate(649.981989 332.638437) scale(0.1 -0.1)">
       <use xlink:href="#DejaVuSans-31"/>
       <use xlink:href="#DejaVuSans-37" x="63.623047"/>
       <use xlink:href="#DejaVuSans-2e" x="127.246094"/>
       <use xlink:href="#DejaVuSans-35" x="159.033203"/>
      </g>
     </g>
    </g>
    <g id="xtick_18">
     <g id="line2d_51">
      <path d="M 695.247756 318.04 
L 695.247756 36.72 
" clip-path="url(#p09ae0dcd77)" style="fill: none; stroke: #b0b0b0; stroke-width: 0.8; stroke-linecap: square"/>
     </g>
     <g id="line2d_52">
      <g>
       <use xlink:href="#md8ab8ceea0" x="695.247756" y="318.04" style="stroke: #000000; stroke-width: 0.8"/>
      </g>
     </g>
     <g id="text_28">
      <!-- 20.0 -->
      <g transform="translate(684.114943 332.638437) scale(0.1 -0.1)">
       <use xlink:href="#DejaVuSans-32"/>
       <use xlink:href="#DejaVuSans-30" x="63.623047"/>
       <use xlink:href="#DejaVuSans-2e" x="127.246094"/>
       <use xlink:href="#DejaVuSans-30" x="159.033203"/>
      </g>
     </g>
    </g>
    <g id="text_29">
     <!-- t -->
     <g transform="translate(556.755781 346.316562) scale(0.1 -0.1)">
      <use xlink:href="#DejaVuSans-74"/>
     </g>
    </g>
   </g>
   <g id="matplotlib.axis_4">
    <g id="ytick_7">
     <g id="line2d_53">
      <path d="M 408.530938 304.020416 
L 708.900938 304.020416 
" clip-path="url(#p09ae0dcd77)" style="fill: none; stroke: #b0b0b0; stroke-width: 0.8; stroke-linecap: square"/>
     </g>
     <g id="line2d_54">
      <g>
       <use xlink:href="#m04ced31f0f" x="408.530938" y="304.020416" style="stroke: #000000; stroke-width: 0.8"/>
      </g>
     </g>
     <g id="text_30">
      <!-- −0.4 -->
      <g transform="translate(377.248125 307.819635) scale(0.1 -0.1)">
       <defs>
        <path id="DejaVuSans-34" d="M 2419 4116 
L 825 1625 
L 2419 1625 
L 2419 4116 
z
M 2253 4666 
L 3047 4666 
L 3047 1625 
L 3713 1625 
L 3713 1100 
L 3047 1100 
L 3047 0 
L 2419 0 
L 2419 1100 
L 313 1100 
L 313 1709 
L 2253 4666 
z
" transform="scale(0.015625)"/>
       </defs>
       <use xlink:href="#DejaVuSans-2212"/>
       <use xlink:href="#DejaVuSans-30" x="83.789062"/>
       <use xlink:href="#DejaVuSans-2e" x="147.412109"/>
       <use xlink:href="#DejaVuSans-34" x="179.199219"/>
      </g>
     </g>
    </g>
    <g id="ytick_8">
     <g id="line2d_55">
      <path d="M 408.530938 249.43773 
L 708.900938 249.43773 
" clip-path="url(#p09ae0dcd77)" style="fill: none; stroke: #b0b0b0; stroke-width: 0.8; stroke-linecap: square"/>
     </g>
     <g id="line2d_56">
      <g>
       <use xlink:href="#m04ced31f0f" x="408.530938" y="249.43773" style="stroke: #000000; stroke-width: 0.8"/>
      </g>
     </g>
     <g id="text_31">
      <!-- −0.2 -->
      <g transform="translate(377.248125 253.236948) scale(0.1 -0.1)">
       <use xlink:href="#DejaVuSans-2212"/>
       <use xlink:href="#DejaVuSans-30" x="83.789062"/>
       <use xlink:href="#DejaVuSans-2e" x="147.412109"/>
       <use xlink:href="#DejaVuSans-32" x="179.199219"/>
      </g>
     </g>
    </g>
    <g id="ytick_9">
     <g id="line2d_57">
      <path d="M 408.530938 194.855043 
L 708.900938 194.855043 
" clip-path="url(#p09ae0dcd77)" style="fill: none; stroke: #b0b0b0; stroke-width: 0.8; stroke-linecap: square"/>
     </g>
     <g id="line2d_58">
      <g>
       <use xlink:href="#m04ced31f0f" x="408.530938" y="194.855043" style="stroke: #000000; stroke-width: 0.8"/>
      </g>
     </g>
     <g id="text_32">
      <!-- 0.0 -->
      <g transform="translate(385.627813 198.654262) scale(0.1 -0.1)">
       <use xlink:href="#DejaVuSans-30"/>
       <use xlink:href="#DejaVuSans-2e" x="63.623047"/>
       <use xlink:href="#DejaVuSans-30" x="95.410156"/>
      </g>
     </g>
    </g>
    <g id="ytick_10">
     <g id="line2d_59">
      <path d="M 408.530938 140.272356 
L 708.900938 140.272356 
" clip-path="url(#p09ae0dcd77)" style="fill: none; stroke: #b0b0b0; stroke-width: 0.8; stroke-linecap: square"/>
     </g>
     <g id="line2d_60">
      <g>
       <use xlink:href="#m04ced31f0f" x="408.530938" y="140.272356" style="stroke: #000000; stroke-width: 0.8"/>
      </g>
     </g>
     <g id="text_33">
      <!-- 0.2 -->
      <g transform="translate(385.627813 144.071575) scale(0.1 -0.1)">
       <use xlink:href="#DejaVuSans-30"/>
       <use xlink:href="#DejaVuSans-2e" x="63.623047"/>
       <use xlink:href="#DejaVuSans-32" x="95.410156"/>
      </g>
     </g>
    </g>
    <g id="ytick_11">
     <g id="line2d_61">
      <path d="M 408.530938 85.689669 
L 708.900938 85.689669 
" clip-path="url(#p09ae0dcd77)" style="fill: none; stroke: #b0b0b0; stroke-width: 0.8; stroke-linecap: square"/>
     </g>
     <g id="line2d_62">
      <g>
       <use xlink:href="#m04ced31f0f" x="408.530938" y="85.689669" style="stroke: #000000; stroke-width: 0.8"/>
      </g>
     </g>
     <g id="text_34">
      <!-- 0.4 -->
      <g transform="translate(385.627813 89.488888) scale(0.1 -0.1)">
       <use xlink:href="#DejaVuSans-30"/>
       <use xlink:href="#DejaVuSans-2e" x="63.623047"/>
       <use xlink:href="#DejaVuSans-34" x="95.410156"/>
      </g>
     </g>
    </g>
    <g id="text_35">
     <!-- Fr(t) -->
     <g transform="translate(371.168438 187.810469) rotate(-90) scale(0.1 -0.1)">
      <defs>
       <path id="DejaVuSans-46" d="M 628 4666 
L 3309 4666 
L 3309 4134 
L 1259 4134 
L 1259 2759 
L 3109 2759 
L 3109 2228 
L 1259 2228 
L 1259 0 
L 628 0 
L 628 4666 
z
" transform="scale(0.015625)"/>
       <path id="DejaVuSans-72" d="M 2631 2963 
Q 2534 3019 2420 3045 
Q 2306 3072 2169 3072 
Q 1681 3072 1420 2755 
Q 1159 2438 1159 1844 
L 1159 0 
L 581 0 
L 581 3500 
L 1159 3500 
L 1159 2956 
Q 1341 3275 1631 3429 
Q 1922 3584 2338 3584 
Q 2397 3584 2469 3576 
Q 2541 3569 2628 3553 
L 2631 2963 
z
" transform="scale(0.015625)"/>
      </defs>
      <use xlink:href="#DejaVuSans-46"/>
      <use xlink:href="#DejaVuSans-72" x="50.269531"/>
      <use xlink:href="#DejaVuSans-28" x="91.382812"/>
      <use xlink:href="#DejaVuSans-74" x="130.396484"/>
      <use xlink:href="#DejaVuSans-29" x="169.605469"/>
     </g>
    </g>
   </g>
   <g id="line2d_63">
    <path d="M 422.184119 194.855043 
L 430.930902 194.746084 
L 434.210946 194.480408 
L 436.944316 194.039216 
L 439.404349 193.408544 
L 441.591044 192.624192 
L 443.77774 191.604948 
L 445.964436 190.33876 
L 448.151132 188.826905 
L 450.611165 186.852998 
L 453.344534 184.375959 
L 457.444589 180.314311 
L 462.364654 175.470538 
L 464.824687 173.330672 
L 467.011383 171.720273 
L 468.924742 170.607843 
L 470.564764 169.920752 
L 471.931448 169.563559 
L 473.298133 169.424209 
L 474.391481 169.496993 
L 475.484829 169.768972 
L 476.578177 170.251857 
L 477.671525 170.955907 
L 478.764873 171.890041 
L 480.131558 173.392453 
L 481.498243 175.276857 
L 482.864927 177.549939 
L 484.231612 180.213773 
L 485.871634 183.921851 
L 487.511656 188.173694 
L 489.425015 193.786704 
L 492.158384 202.673221 
L 500.905168 231.65762 
L 503.3652 238.837998 
L 505.551896 244.576566 
L 507.465255 249.033954 
L 509.378614 252.923682 
L 511.018636 255.783593 
L 512.658657 258.190305 
L 514.025342 259.840377 
L 515.392027 261.159352 
L 516.758712 262.139146 
L 517.85206 262.672508 
L 518.945408 262.977124 
L 520.038756 263.041075 
L 520.858767 262.829571 
L 521.678778 262.342222 
L 522.498789 261.573906 
L 523.318799 260.52053 
L 524.412147 258.667538 
L 525.505495 256.298422 
L 526.598843 253.412667 
L 527.965528 249.084139 
L 529.332213 243.968049 
L 530.972235 236.823222 
L 532.612257 228.637606 
L 534.525615 217.876885 
L 536.712311 204.174743 
L 542.725725 165.023499 
L 544.91242 152.83474 
L 546.825779 143.346684 
L 548.739138 134.981155 
L 550.37916 128.689446 
L 552.019182 123.178657 
L 553.659203 118.410823 
L 555.299225 114.344013 
L 556.939247 110.936189 
L 558.305932 108.571358 
L 559.672617 106.616959 
L 561.039302 105.056346 
L 562.405987 103.876774 
L 563.499335 103.201716 
L 564.592682 102.763096 
L 565.68603 102.56107 
L 566.506041 102.605423 
L 567.052715 102.84248 
L 567.599389 103.262508 
L 568.4194 104.237703 
L 569.239411 105.628729 
L 570.059422 107.435925 
L 571.15277 110.490346 
L 572.246118 114.274242 
L 573.612803 120.009387 
L 574.979487 126.826014 
L 576.619509 136.361975 
L 578.259531 147.271953 
L 580.17289 161.555327 
L 582.359586 179.615203 
L 587.552988 223.706206 
L 589.466347 237.197138 
L 591.106369 247.353671 
L 592.746391 256.252091 
L 594.386413 263.963473 
L 596.026434 270.576137 
L 597.666456 276.185223 
L 599.033141 280.16101 
L 600.399826 283.556875 
L 601.766511 286.419737 
L 603.133196 288.791014 
L 604.499881 290.705974 
L 605.866565 292.193313 
L 606.959913 293.090208 
L 608.053261 293.735459 
L 609.146609 294.134002 
L 610.239957 294.2877 
L 610.786631 294.228499 
L 611.333305 293.954598 
L 611.879979 293.459971 
L 612.69999 292.302956 
L 613.520001 290.647708 
L 614.340012 288.495962 
L 615.433359 284.861509 
L 616.526707 280.366141 
L 617.893392 273.569262 
L 619.260077 265.516471 
L 620.900099 254.296102 
L 622.540121 241.520154 
L 624.45348 224.888592 
L 626.913512 201.285903 
L 629.646882 174.737781 
L 631.560241 158.573138 
L 633.200263 146.446966 
L 634.840285 135.87643 
L 636.480306 126.770546 
L 638.120328 119.010079 
L 639.76035 112.464015 
L 641.127035 107.841971 
L 642.49372 103.900464 
L 643.860405 100.573789 
L 645.22709 97.803556 
L 646.593774 95.539416 
L 647.960459 93.739431 
L 649.053807 92.610907 
L 650.147155 91.744772 
L 651.240503 91.131432 
L 652.333851 90.764859 
L 653.427199 90.642666 
L 653.973873 90.767055 
L 654.520547 91.140571 
L 655.067221 91.764164 
L 655.887232 93.169372 
L 656.707242 95.137862 
L 657.527253 97.666878 
L 658.620601 101.901573 
L 659.713949 107.104493 
L 661.080634 114.928928 
L 662.447319 124.157068 
L 664.087341 136.963013 
L 665.727363 151.489019 
L 667.640721 170.32787 
L 670.100754 196.920094 
L 672.014113 216.893382 
L 673.654135 232.04554 
L 675.294157 245.337598 
L 676.934178 256.829947 
L 678.5742 266.64488 
L 680.214222 274.938352 
L 681.580907 280.808791 
L 682.947592 285.836185 
L 684.314277 290.111844 
L 685.680962 293.719292 
L 687.047646 296.732831 
L 688.414331 299.216858 
L 689.781016 301.225698 
L 691.147701 302.803727 
L 692.514386 303.985622 
L 693.607734 304.663198 
L 694.701082 305.112238 
L 695.247756 305.252727 
L 695.247756 305.252727 
" clip-path="url(#p09ae0dcd77)" style="fill: none; stroke: #0000ff; stroke-width: 1.5; stroke-linecap: square"/>
   </g>
   <g id="line2d_64">
    <path d="M 422.184119 194.855043 
L 424.370815 194.769508 
L 426.830848 194.418084 
L 429.564218 193.78702 
L 432.844261 192.781943 
L 436.397642 191.456295 
L 440.22436 189.783854 
L 444.051077 187.857274 
L 448.151132 185.524416 
L 459.904622 178.588617 
L 462.091317 177.652593 
L 464.004676 177.042266 
L 465.918035 176.669151 
L 467.558057 176.566691 
L 469.198079 176.687448 
L 470.838101 177.050143 
L 472.478122 177.670669 
L 474.118144 178.562155 
L 475.758166 179.741276 
L 477.398188 181.228125 
L 479.03821 183.036837 
L 480.678232 185.174408 
L 482.59159 188.082531 
L 484.504949 191.421977 
L 486.691645 195.726605 
L 489.151678 201.104563 
L 492.431721 208.883681 
L 497.07845 219.857398 
L 499.538483 225.045439 
L 501.451842 228.590118 
L 503.091863 231.227033 
L 504.731885 233.461948 
L 506.09857 235.003678 
L 507.465255 236.247051 
L 508.83194 237.188836 
L 510.198625 237.827796 
L 511.291973 238.120847 
L 512.385321 238.220198 
L 513.478668 238.126009 
L 514.572016 237.838267 
L 515.665364 237.356665 
L 517.032049 236.480939 
L 518.398734 235.298778 
L 519.765419 233.806452 
L 521.132104 231.989125 
L 522.498789 229.793322 
L 523.865473 227.166647 
L 525.232158 224.069199 
L 526.598843 220.470514 
L 528.238865 215.455298 
L 529.878887 209.640826 
L 531.518909 202.982694 
L 533.15893 195.438234 
L 535.072289 185.491684 
L 537.258985 172.718149 
L 540.539029 151.831366 
L 543.272399 135.029585 
L 545.185757 124.558924 
L 547.099116 115.358264 
L 549.012475 107.298168 
L 551.199171 99.094814 
L 554.752551 86.795875 
L 560.492628 67.575766 
L 562.13265 62.908934 
L 563.225998 60.43136 
L 564.046008 59.056163 
L 564.592682 58.418525 
L 565.139356 58.02971 
L 565.68603 57.904918 
L 566.232704 58.051572 
L 566.779378 58.474278 
L 567.326052 59.178342 
L 568.146063 60.752089 
L 568.966074 62.904963 
L 570.059422 66.560384 
L 571.426107 72.179434 
L 572.792792 78.803257 
L 574.432813 88.04079 
L 576.072835 98.749284 
L 577.712857 110.925461 
L 579.626216 126.777661 
L 582.086249 149.206904 
L 585.366292 181.507308 
L 588.372999 210.689411 
L 590.286358 227.183754 
L 591.92638 239.473229 
L 593.566402 249.968076 
L 594.933086 257.39402 
L 596.299771 263.696096 
L 597.666456 268.947436 
L 599.033141 273.217015 
L 600.126489 275.971329 
L 601.219837 278.176227 
L 602.313185 279.867951 
L 603.406533 281.082347 
L 604.226544 281.700454 
L 605.046554 282.082467 
L 605.866565 282.240388 
L 606.686576 282.18491 
L 607.506587 281.925439 
L 608.326598 281.470209 
L 609.419946 280.571132 
L 610.513294 279.351957 
L 611.606642 277.789103 
L 612.69999 275.773755 
L 613.793338 273.227392 
L 614.886686 270.125083 
L 616.25337 265.504384 
L 617.893392 259.027289 
L 619.806751 250.463063 
L 621.993447 239.52679 
L 623.906806 228.736887 
L 625.546827 218.212454 
L 627.186849 206.193111 
L 629.100208 190.232117 
L 634.840285 140.585338 
L 636.480306 128.827852 
L 638.393665 116.806616 
L 640.580361 104.588171 
L 647.140448 68.859191 
L 649.053807 58.638182 
L 650.147155 53.801806 
L 650.967166 51.153302 
L 651.51384 50.032813 
L 652.060514 49.520559 
L 652.333851 49.507273 
L 652.607188 49.658059 
L 653.153862 50.438735 
L 653.700536 51.805113 
L 654.520547 54.767302 
L 655.613895 59.900646 
L 657.527253 70.266259 
L 660.260623 86.260465 
L 662.173982 98.943182 
L 663.814004 111.264081 
L 665.727363 127.414041 
L 667.914058 148.069859 
L 670.100754 170.859541 
L 675.02082 223.404361 
L 676.660841 238.313298 
L 678.300863 251.215091 
L 679.940885 262.166615 
L 681.30757 269.915293 
L 682.674255 276.503115 
L 684.04094 282.005948 
L 685.407625 286.508111 
L 686.77431 290.114926 
L 687.867657 292.438389 
L 688.961005 294.333702 
L 690.054353 295.863332 
L 691.147701 297.081668 
L 692.241049 298.031511 
L 693.334397 298.741458 
L 694.427745 299.223814 
L 695.247756 299.378591 
L 695.247756 299.378591 
" clip-path="url(#p09ae0dcd77)" style="fill: none; stroke-dasharray: 5.55,2.4; stroke-dashoffset: 0; stroke: #ff0000; stroke-width: 1.5"/>
   </g>
   <g id="patch_9">
    <path d="M 408.530938 318.04 
L 408.530938 36.72 
" style="fill: none; stroke: #000000; stroke-width: 0.8; stroke-linejoin: miter; stroke-linecap: square"/>
   </g>
   <g id="patch_10">
    <path d="M 708.900938 318.04 
L 708.900938 36.72 
" style="fill: none; stroke: #000000; stroke-width: 0.8; stroke-linejoin: miter; stroke-linecap: square"/>
   </g>
   <g id="patch_11">
    <path d="M 408.530938 318.04 
L 708.900938 318.04 
" style="fill: none; stroke: #000000; stroke-width: 0.8; stroke-linejoin: miter; stroke-linecap: square"/>
   </g>
   <g id="patch_12">
    <path d="M 408.530938 36.72 
L 708.900938 36.72 
" style="fill: none; stroke: #000000; stroke-width: 0.8; stroke-linejoin: miter; stroke-linecap: square"/>
   </g>
   <g id="legend_2">
    <g id="patch_13">
     <path d="M 415.530938 74.07625 
L 474.123125 74.07625 
Q 476.123125 74.07625 476.123125 72.07625 
L 476.123125 43.72 
Q 476.123125 41.72 474.123125 41.72 
L 415.530938 41.72 
Q 413.530938 41.72 413.530938 43.72 
L 413.530938 72.07625 
Q 413.530938 74.07625 415.530938 74.07625 
z
" style="fill: #ffffff; opacity: 0.8; stroke: #cccccc; stroke-linejoin: miter"/>
    </g>
    <g id="line2d_65">
     <path d="M 417.530938 49.818437 
L 427.530938 49.818437 
L 437.530938 49.818437 
" style="fill: none; stroke: #0000ff; stroke-width: 1.5; stroke-linecap: square"/>
    </g>
    <g id="text_36">
     <!-- data -->
     <g transform="translate(445.530938 53.318437) scale(0.1 -0.1)">
      <use xlink:href="#DejaVuSans-64"/>
      <use xlink:href="#DejaVuSans-61" x="63.476562"/>
      <use xlink:href="#DejaVuSans-74" x="124.755859"/>
      <use xlink:href="#DejaVuSans-61" x="163.964844"/>
     </g>
    </g>
    <g id="line2d_66">
     <path d="M 417.530938 64.496562 
L 427.530938 64.496562 
L 437.530938 64.496562 
" style="fill: none; stroke-dasharray: 5.55,2.4; stroke-dashoffset: 0; stroke: #ff0000; stroke-width: 1.5"/>
    </g>
    <g id="text_37">
     <!-- sindy -->
     <g transform="translate(445.530938 67.996562) scale(0.1 -0.1)">
      <use xlink:href="#DejaVuSans-73"/>
      <use xlink:href="#DejaVuSans-69" x="52.099609"/>
      <use xlink:href="#DejaVuSans-6e" x="79.882812"/>
      <use xlink:href="#DejaVuSans-64" x="143.261719"/>
      <use xlink:href="#DejaVuSans-79" x="206.738281"/>
     </g>
    </g>
   </g>
  </g>
  <g id="axes_3">
   <g id="patch_14">
    <path d="M 764.900938 318.04 
L 1065.270937 318.04 
L 1065.270937 36.72 
L 764.900938 36.72 
z
" style="fill: #ffffff"/>
   </g>
   <g id="matplotlib.axis_5">
    <g id="xtick_19">
     <g id="line2d_67">
      <path d="M 804.143164 318.04 
L 804.143164 36.72 
" clip-path="url(#pe97f130bcb)" style="fill: none; stroke: #b0b0b0; stroke-width: 0.8; stroke-linecap: square"/>
     </g>
     <g id="line2d_68">
      <g>
       <use xlink:href="#md8ab8ceea0" x="804.143164" y="318.04" style="stroke: #000000; stroke-width: 0.8"/>
      </g>
     </g>
     <g id="text_38">
      <!-- −1.0 -->
      <g transform="translate(792.001758 332.638437) scale(0.1 -0.1)">
       <use xlink:href="#DejaVuSans-2212"/>
       <use xlink:href="#DejaVuSans-31" x="83.789062"/>
       <use xlink:href="#DejaVuSans-2e" x="147.412109"/>
       <use xlink:href="#DejaVuSans-30" x="179.199219"/>
      </g>
     </g>
    </g>
    <g id="xtick_20">
     <g id="line2d_69">
      <path d="M 853.686886 318.04 
L 853.686886 36.72 
" clip-path="url(#pe97f130bcb)" style="fill: none; stroke: #b0b0b0; stroke-width: 0.8; stroke-linecap: square"/>
     </g>
     <g id="line2d_70">
      <g>
       <use xlink:href="#md8ab8ceea0" x="853.686886" y="318.04" style="stroke: #000000; stroke-width: 0.8"/>
      </g>
     </g>
     <g id="text_39">
      <!-- −0.5 -->
      <g transform="translate(841.54548 332.638437) scale(0.1 -0.1)">
       <use xlink:href="#DejaVuSans-2212"/>
       <use xlink:href="#DejaVuSans-30" x="83.789062"/>
       <use xlink:href="#DejaVuSans-2e" x="147.412109"/>
       <use xlink:href="#DejaVuSans-35" x="179.199219"/>
      </g>
     </g>
    </g>
    <g id="xtick_21">
     <g id="line2d_71">
      <path d="M 903.230608 318.04 
L 903.230608 36.72 
" clip-path="url(#pe97f130bcb)" style="fill: none; stroke: #b0b0b0; stroke-width: 0.8; stroke-linecap: square"/>
     </g>
     <g id="line2d_72">
      <g>
       <use xlink:href="#md8ab8ceea0" x="903.230608" y="318.04" style="stroke: #000000; stroke-width: 0.8"/>
      </g>
     </g>
     <g id="text_40">
      <!-- 0.0 -->
      <g transform="translate(895.279045 332.638437) scale(0.1 -0.1)">
       <use xlink:href="#DejaVuSans-30"/>
       <use xlink:href="#DejaVuSans-2e" x="63.623047"/>
       <use xlink:href="#DejaVuSans-30" x="95.410156"/>
      </g>
     </g>
    </g>
    <g id="xtick_22">
     <g id="line2d_73">
      <path d="M 952.77433 318.04 
L 952.77433 36.72 
" clip-path="url(#pe97f130bcb)" style="fill: none; stroke: #b0b0b0; stroke-width: 0.8; stroke-linecap: square"/>
     </g>
     <g id="line2d_74">
      <g>
       <use xlink:href="#md8ab8ceea0" x="952.77433" y="318.04" style="stroke: #000000; stroke-width: 0.8"/>
      </g>
     </g>
     <g id="text_41">
      <!-- 0.5 -->
      <g transform="translate(944.822767 332.638437) scale(0.1 -0.1)">
       <use xlink:href="#DejaVuSans-30"/>
       <use xlink:href="#DejaVuSans-2e" x="63.623047"/>
       <use xlink:href="#DejaVuSans-35" x="95.410156"/>
      </g>
     </g>
    </g>
    <g id="xtick_23">
     <g id="line2d_75">
      <path d="M 1002.318052 318.04 
L 1002.318052 36.72 
" clip-path="url(#pe97f130bcb)" style="fill: none; stroke: #b0b0b0; stroke-width: 0.8; stroke-linecap: square"/>
     </g>
     <g id="line2d_76">
      <g>
       <use xlink:href="#md8ab8ceea0" x="1002.318052" y="318.04" style="stroke: #000000; stroke-width: 0.8"/>
      </g>
     </g>
     <g id="text_42">
      <!-- 1.0 -->
      <g transform="translate(994.366489 332.638437) scale(0.1 -0.1)">
       <use xlink:href="#DejaVuSans-31"/>
       <use xlink:href="#DejaVuSans-2e" x="63.623047"/>
       <use xlink:href="#DejaVuSans-30" x="95.410156"/>
      </g>
     </g>
    </g>
    <g id="xtick_24">
     <g id="line2d_77">
      <path d="M 1051.861773 318.04 
L 1051.861773 36.72 
" clip-path="url(#pe97f130bcb)" style="fill: none; stroke: #b0b0b0; stroke-width: 0.8; stroke-linecap: square"/>
     </g>
     <g id="line2d_78">
      <g>
       <use xlink:href="#md8ab8ceea0" x="1051.861773" y="318.04" style="stroke: #000000; stroke-width: 0.8"/>
      </g>
     </g>
     <g id="text_43">
      <!-- 1.5 -->
      <g transform="translate(1043.910211 332.638437) scale(0.1 -0.1)">
       <use xlink:href="#DejaVuSans-31"/>
       <use xlink:href="#DejaVuSans-2e" x="63.623047"/>
       <use xlink:href="#DejaVuSans-35" x="95.410156"/>
      </g>
     </g>
    </g>
    <g id="text_44">
     <!-- x(t) -->
     <g transform="translate(906.264844 346.316562) scale(0.1 -0.1)">
      <use xlink:href="#DejaVuSans-78"/>
      <use xlink:href="#DejaVuSans-28" x="59.179688"/>
      <use xlink:href="#DejaVuSans-74" x="98.193359"/>
      <use xlink:href="#DejaVuSans-29" x="137.402344"/>
     </g>
    </g>
   </g>
   <g id="matplotlib.axis_6">
    <g id="ytick_12">
     <g id="line2d_79">
      <path d="M 764.900938 304.020416 
L 1065.270937 304.020416 
" clip-path="url(#pe97f130bcb)" style="fill: none; stroke: #b0b0b0; stroke-width: 0.8; stroke-linecap: square"/>
     </g>
     <g id="line2d_80">
      <g>
       <use xlink:href="#m04ced31f0f" x="764.900938" y="304.020416" style="stroke: #000000; stroke-width: 0.8"/>
      </g>
     </g>
     <g id="text_45">
      <!-- −0.4 -->
      <g transform="translate(733.618125 307.819635) scale(0.1 -0.1)">
       <use xlink:href="#DejaVuSans-2212"/>
       <use xlink:href="#DejaVuSans-30" x="83.789062"/>
       <use xlink:href="#DejaVuSans-2e" x="147.412109"/>
       <use xlink:href="#DejaVuSans-34" x="179.199219"/>
      </g>
     </g>
    </g>
    <g id="ytick_13">
     <g id="line2d_81">
      <path d="M 764.900938 249.43773 
L 1065.270937 249.43773 
" clip-path="url(#pe97f130bcb)" style="fill: none; stroke: #b0b0b0; stroke-width: 0.8; stroke-linecap: square"/>
     </g>
     <g id="line2d_82">
      <g>
       <use xlink:href="#m04ced31f0f" x="764.900938" y="249.43773" style="stroke: #000000; stroke-width: 0.8"/>
      </g>
     </g>
     <g id="text_46">
      <!-- −0.2 -->
      <g transform="translate(733.618125 253.236948) scale(0.1 -0.1)">
       <use xlink:href="#DejaVuSans-2212"/>
       <use xlink:href="#DejaVuSans-30" x="83.789062"/>
       <use xlink:href="#DejaVuSans-2e" x="147.412109"/>
       <use xlink:href="#DejaVuSans-32" x="179.199219"/>
      </g>
     </g>
    </g>
    <g id="ytick_14">
     <g id="line2d_83">
      <path d="M 764.900938 194.855043 
L 1065.270937 194.855043 
" clip-path="url(#pe97f130bcb)" style="fill: none; stroke: #b0b0b0; stroke-width: 0.8; stroke-linecap: square"/>
     </g>
     <g id="line2d_84">
      <g>
       <use xlink:href="#m04ced31f0f" x="764.900938" y="194.855043" style="stroke: #000000; stroke-width: 0.8"/>
      </g>
     </g>
     <g id="text_47">
      <!-- 0.0 -->
      <g transform="translate(741.997813 198.654262) scale(0.1 -0.1)">
       <use xlink:href="#DejaVuSans-30"/>
       <use xlink:href="#DejaVuSans-2e" x="63.623047"/>
       <use xlink:href="#DejaVuSans-30" x="95.410156"/>
      </g>
     </g>
    </g>
    <g id="ytick_15">
     <g id="line2d_85">
      <path d="M 764.900938 140.272356 
L 1065.270937 140.272356 
" clip-path="url(#pe97f130bcb)" style="fill: none; stroke: #b0b0b0; stroke-width: 0.8; stroke-linecap: square"/>
     </g>
     <g id="line2d_86">
      <g>
       <use xlink:href="#m04ced31f0f" x="764.900938" y="140.272356" style="stroke: #000000; stroke-width: 0.8"/>
      </g>
     </g>
     <g id="text_48">
      <!-- 0.2 -->
      <g transform="translate(741.997813 144.071575) scale(0.1 -0.1)">
       <use xlink:href="#DejaVuSans-30"/>
       <use xlink:href="#DejaVuSans-2e" x="63.623047"/>
       <use xlink:href="#DejaVuSans-32" x="95.410156"/>
      </g>
     </g>
    </g>
    <g id="ytick_16">
     <g id="line2d_87">
      <path d="M 764.900938 85.689669 
L 1065.270937 85.689669 
" clip-path="url(#pe97f130bcb)" style="fill: none; stroke: #b0b0b0; stroke-width: 0.8; stroke-linecap: square"/>
     </g>
     <g id="line2d_88">
      <g>
       <use xlink:href="#m04ced31f0f" x="764.900938" y="85.689669" style="stroke: #000000; stroke-width: 0.8"/>
      </g>
     </g>
     <g id="text_49">
      <!-- 0.4 -->
      <g transform="translate(741.997813 89.488888) scale(0.1 -0.1)">
       <use xlink:href="#DejaVuSans-30"/>
       <use xlink:href="#DejaVuSans-2e" x="63.623047"/>
       <use xlink:href="#DejaVuSans-34" x="95.410156"/>
      </g>
     </g>
    </g>
    <g id="text_50">
     <!-- Fr(t) -->
     <g transform="translate(727.538438 187.810469) rotate(-90) scale(0.1 -0.1)">
      <use xlink:href="#DejaVuSans-46"/>
      <use xlink:href="#DejaVuSans-72" x="50.269531"/>
      <use xlink:href="#DejaVuSans-28" x="91.382812"/>
      <use xlink:href="#DejaVuSans-74" x="130.396484"/>
      <use xlink:href="#DejaVuSans-29" x="169.605469"/>
     </g>
    </g>
   </g>
   <g id="line2d_89">
    <path d="M 903.230608 194.855043 
L 908.517088 187.763738 
L 913.940567 180.867424 
L 919.439829 174.245646 
L 923.64266 169.424209 
L 923.319505 169.869498 
L 900.031173 201.760289 
L 894.971024 208.214014 
L 889.592254 214.725995 
L 883.979171 221.159235 
L 878.225623 227.39034 
L 872.433501 233.312732 
L 866.711088 238.837998 
L 861.171318 243.895584 
L 855.212322 249.033954 
L 849.190836 253.926494 
L 843.154559 258.546447 
L 836.899047 263.051489 
L 836.906477 263.041075 
L 890.491782 189.368968 
L 896.17182 182.079978 
L 901.983137 175.038098 
L 907.893094 168.28327 
L 913.868467 161.846421 
L 919.875612 155.750157 
L 925.880625 150.00961 
L 931.849486 144.633363 
L 937.748207 139.624419 
L 943.542965 134.981155 
L 949.200239 130.69824 
L 956.028139 125.838665 
L 962.526213 121.508858 
L 968.632889 117.685491 
L 975.360807 113.731386 
L 982.259857 109.939794 
L 989.407065 106.273801 
L 996.913895 102.690352 
L 997.224314 102.54777 
L 997.114573 102.701154 
L 925.288422 201.433893 
L 919.75905 208.468552 
L 914.160154 215.206928 
L 908.511398 221.634514 
L 902.832416 227.741836 
L 897.142758 233.523875 
L 891.461846 238.979465 
L 885.808937 244.110723 
L 880.203079 248.922491 
L 874.663078 253.421825 
L 869.207462 257.617519 
L 862.096012 262.75706 
L 855.209146 267.401256 
L 848.587863 271.578087 
L 842.27181 275.316014 
L 834.863955 279.413835 
L 828.063455 282.92177 
L 820.797937 286.419737 
L 812.80106 289.99276 
L 804.860598 293.274868 
L 802.280731 294.2877 
L 802.320074 294.228499 
L 877.872805 190.274442 
L 884.05251 182.319566 
L 890.319803 174.737781 
L 896.651291 167.544728 
L 903.023678 160.749269 
L 909.413829 154.35439 
L 915.798813 148.358104 
L 922.155957 142.754303 
L 928.462885 137.533565 
L 934.697559 132.683882 
L 940.838315 128.19132 
L 946.863901 124.040593 
L 952.753511 120.215567 
L 960.35975 115.593542 
L 967.641441 111.481793 
L 974.553619 107.841971 
L 981.053237 104.637575 
L 988.535382 101.192853 
L 996.473396 97.803556 
L 1004.151237 94.765786 
L 1012.401415 91.744772 
L 1015.583572 90.642666 
L 1015.493247 90.767055 
L 936.150334 199.917149 
L 931.619397 205.771229 
L 927.034112 211.432028 
L 922.402239 216.893382 
L 917.731523 222.150952 
L 913.029691 227.202063 
L 908.304436 232.04554 
L 903.563417 236.681551 
L 898.814245 241.111444 
L 891.691725 247.375264 
L 884.593129 253.192517 
L 877.543392 258.57833 
L 870.567073 263.550418 
L 863.688321 268.128295 
L 856.930832 272.332588 
L 850.317818 276.18447 
L 843.87197 279.705182 
L 837.615418 282.91565 
L 829.604941 286.748659 
L 822.018485 290.111844 
L 814.903165 293.047553 
L 806.739547 296.1744 
L 798.121973 299.216858 
L 788.840889 302.221779 
L 779.377261 305.021072 
L 778.554119 305.252727 
L 778.554119 305.252727 
" clip-path="url(#pe97f130bcb)" style="fill: none; stroke: #0000ff; stroke-width: 1.5; stroke-linecap: square"/>
   </g>
   <g id="line2d_90">
    <path d="M 903.230608 194.855043 
L 902.90465 194.769508 
L 902.749975 194.468417 
L 902.754162 193.859578 
L 902.998896 192.874332 
L 903.579398 191.456295 
L 904.569931 189.654722 
L 905.894815 187.709967 
L 907.66012 185.524416 
L 909.70072 183.343064 
L 912.070607 181.146599 
L 914.238562 179.421664 
L 916.234826 178.092371 
L 917.95885 177.194165 
L 919.358938 176.706468 
L 920.428133 176.566691 
L 921.193615 176.687448 
L 921.704101 176.972181 
L 922.082247 177.434319 
L 922.313071 178.081778 
L 922.381119 178.922152 
L 922.219491 180.201862 
L 921.759368 181.794768 
L 920.969503 183.712692 
L 919.823302 185.960124 
L 918.007563 188.993689 
L 915.654253 192.451436 
L 912.751705 196.298194 
L 909.30206 200.482867 
L 905.325 204.937075 
L 900.888303 209.545841 
L 896.105849 214.158106 
L 891.106985 218.626302 
L 886.752664 222.240445 
L 882.422613 225.580513 
L 878.194863 228.590118 
L 874.138741 231.227033 
L 870.313123 233.461948 
L 866.766006 235.276361 
L 863.535226 236.66006 
L 861.105849 237.480782 
L 858.929832 237.998546 
L 857.018031 238.213509 
L 855.685021 238.167697 
L 854.53115 237.928359 
L 853.56029 237.49527 
L 852.776143 236.867839 
L 852.182333 236.045024 
L 851.78248 235.02527 
L 851.580245 233.806452 
L 851.585406 232.380948 
L 851.832216 230.720719 
L 852.354962 228.796844 
L 853.179374 226.585907 
L 854.660244 223.390413 
L 856.658991 219.688377 
L 859.183762 215.455298 
L 862.913135 209.640826 
L 868.244966 201.787822 
L 874.677491 192.721645 
L 882.277105 182.429657 
L 889.755782 172.718149 
L 896.658779 164.139259 
L 902.569475 157.106438 
L 908.747586 150.085298 
L 915.123103 143.218541 
L 919.998073 138.242271 
L 924.930556 133.458037 
L 929.905201 128.892042 
L 934.910457 124.558924 
L 939.937466 120.462576 
L 944.97882 116.597418 
L 950.027396 112.949902 
L 956.756507 108.390019 
L 963.462666 104.121854 
L 971.772302 99.094814 
L 997.135877 83.999495 
L 1005.906004 78.405135 
L 1014.16595 72.866933 
L 1031.624295 60.988599 
L 1034.937514 59.056163 
L 1036.814314 58.191898 
L 1037.726115 57.933652 
L 1038.342573 57.944161 
L 1038.650011 58.227906 
L 1038.631638 58.791139 
L 1038.276016 59.635151 
L 1037.583045 60.752089 
L 1035.93591 62.904963 
L 1033.621506 65.57021 
L 1029.648529 69.804871 
L 1020.801968 78.803257 
L 1010.179682 89.721744 
L 1003.50716 96.860653 
L 996.499193 104.660218 
L 989.238701 113.08863 
L 981.799305 122.086923 
L 974.22995 131.584315 
L 964.601901 144.055585 
L 933.947339 184.244616 
L 925.265209 195.090205 
L 918.68138 203.022507 
L 912.077488 210.689411 
L 905.491682 218.020897 
L 898.959705 224.96303 
L 892.513288 231.47936 
L 886.179887 237.550047 
L 879.983551 243.169233 
L 873.946383 248.341484 
L 868.089965 253.078116 
L 862.43627 257.39402 
L 857.007811 261.305352 
L 850.158928 265.91878 
L 843.799795 269.877733 
L 837.97116 273.217015 
L 832.701201 275.971329 
L 828.00423 278.176227 
L 823.881876 279.867951 
L 820.325861 281.082347 
L 817.321284 281.853406 
L 814.849552 282.21196 
L 813.33333 282.226507 
L 812.096854 282.034065 
L 811.131512 281.643238 
L 810.428742 281.06158 
L 809.979973 280.295802 
L 809.776619 279.351957 
L 809.835256 278.218011 
L 810.225865 276.844152 
L 811.005796 275.188829 
L 812.207409 273.227392 
L 813.837986 270.952224 
L 816.64955 267.446072 
L 821.05983 262.379636 
L 829.626767 253.006835 
L 840.575307 240.965336 
L 848.416906 231.962462 
L 855.372015 223.645255 
L 864.458165 212.402743 
L 889.969679 180.481743 
L 898.199162 170.597869 
L 906.650455 160.855397 
L 913.07039 153.788368 
L 919.521762 147.01479 
L 925.982628 140.585338 
L 932.442285 134.523503 
L 938.898717 128.827852 
L 945.354956 123.47603 
L 951.815382 118.429422 
L 958.282634 113.637844 
L 966.913537 107.546398 
L 979.838656 98.761394 
L 994.753004 88.559992 
L 1005.199677 81.093286 
L 1015.425809 73.459981 
L 1036.702775 57.324459 
L 1041.787702 53.801806 
L 1044.793982 51.918637 
L 1047.372751 50.521184 
L 1049.414257 49.697054 
L 1050.202184 49.520559 
L 1050.821585 49.507273 
L 1051.265725 49.658059 
L 1051.531112 49.970462 
L 1051.617756 50.438735 
L 1051.529483 51.053844 
L 1051.272331 51.805113 
L 1050.277843 53.673741 
L 1048.706596 55.949639 
L 1046.656652 58.528443 
L 1042.910681 62.759178 
L 1038.624318 67.223126 
L 1032.411291 73.34899 
L 1011.836936 93.302447 
L 1004.437963 100.898543 
L 996.811492 109.11185 
L 990.969365 115.686507 
L 983.046101 124.993461 
L 974.977096 134.894438 
L 966.730454 145.365525 
L 951.648873 164.98324 
L 937.812878 182.847337 
L 928.173135 194.901542 
L 920.798961 203.80137 
L 913.355455 212.446164 
L 905.889434 220.734646 
L 898.441444 228.590819 
L 891.044122 235.966252 
L 883.723297 242.838085 
L 876.501196 249.2039 
L 869.40041 255.07509 
L 862.447194 260.470348 
L 855.673023 265.410493 
L 849.113951 269.915293 
L 842.808046 274.002409 
L 836.79172 277.688025 
L 829.272937 282.005948 
L 822.373636 285.683 
L 816.114512 288.772016 
L 810.489456 291.334278 
L 804.309885 293.89649 
L 799.009591 295.863332 
L 793.706355 297.588004 
L 789.463471 298.741458 
L 786.703974 299.308585 
L 786.237153 299.378591 
L 786.237153 299.378591 
" clip-path="url(#pe97f130bcb)" style="fill: none; stroke-dasharray: 5.55,2.4; stroke-dashoffset: 0; stroke: #ff0000; stroke-width: 1.5"/>
   </g>
   <g id="patch_15">
    <path d="M 764.900938 318.04 
L 764.900938 36.72 
" style="fill: none; stroke: #000000; stroke-width: 0.8; stroke-linejoin: miter; stroke-linecap: square"/>
   </g>
   <g id="patch_16">
    <path d="M 1065.270937 318.04 
L 1065.270937 36.72 
" style="fill: none; stroke: #000000; stroke-width: 0.8; stroke-linejoin: miter; stroke-linecap: square"/>
   </g>
   <g id="patch_17">
    <path d="M 764.900938 318.04 
L 1065.270937 318.04 
" style="fill: none; stroke: #000000; stroke-width: 0.8; stroke-linejoin: miter; stroke-linecap: square"/>
   </g>
   <g id="patch_18">
    <path d="M 764.900938 36.72 
L 1065.270937 36.72 
" style="fill: none; stroke: #000000; stroke-width: 0.8; stroke-linejoin: miter; stroke-linecap: square"/>
   </g>
   <g id="legend_3">
    <g id="patch_19">
     <path d="M 771.900938 74.07625 
L 830.493125 74.07625 
Q 832.493125 74.07625 832.493125 72.07625 
L 832.493125 43.72 
Q 832.493125 41.72 830.493125 41.72 
L 771.900938 41.72 
Q 769.900938 41.72 769.900938 43.72 
L 769.900938 72.07625 
Q 769.900938 74.07625 771.900938 74.07625 
z
" style="fill: #ffffff; opacity: 0.8; stroke: #cccccc; stroke-linejoin: miter"/>
    </g>
    <g id="line2d_91">
     <path d="M 773.900938 49.818437 
L 783.900938 49.818437 
L 793.900938 49.818437 
" style="fill: none; stroke: #0000ff; stroke-width: 1.5; stroke-linecap: square"/>
    </g>
    <g id="text_51">
     <!-- data -->
     <g transform="translate(801.900938 53.318437) scale(0.1 -0.1)">
      <use xlink:href="#DejaVuSans-64"/>
      <use xlink:href="#DejaVuSans-61" x="63.476562"/>
      <use xlink:href="#DejaVuSans-74" x="124.755859"/>
      <use xlink:href="#DejaVuSans-61" x="163.964844"/>
     </g>
    </g>
    <g id="line2d_92">
     <path d="M 773.900938 64.496562 
L 783.900938 64.496562 
L 793.900938 64.496562 
" style="fill: none; stroke-dasharray: 5.55,2.4; stroke-dashoffset: 0; stroke: #ff0000; stroke-width: 1.5"/>
    </g>
    <g id="text_52">
     <!-- sindy -->
     <g transform="translate(801.900938 67.996562) scale(0.1 -0.1)">
      <use xlink:href="#DejaVuSans-73"/>
      <use xlink:href="#DejaVuSans-69" x="52.099609"/>
      <use xlink:href="#DejaVuSans-6e" x="79.882812"/>
      <use xlink:href="#DejaVuSans-64" x="143.261719"/>
      <use xlink:href="#DejaVuSans-79" x="206.738281"/>
     </g>
    </g>
   </g>
  </g>
  <g id="text_53">
   <!-- four_c -->
   <g transform="translate(511.602188 19.3575) scale(0.16 -0.16)">
    <defs>
     <path id="DejaVuSans-66" d="M 2375 4863 
L 2375 4384 
L 1825 4384 
Q 1516 4384 1395 4259 
Q 1275 4134 1275 3809 
L 1275 3500 
L 2222 3500 
L 2222 3053 
L 1275 3053 
L 1275 0 
L 697 0 
L 697 3053 
L 147 3053 
L 147 3500 
L 697 3500 
L 697 3744 
Q 697 4328 969 4595 
Q 1241 4863 1831 4863 
L 2375 4863 
z
" transform="scale(0.015625)"/>
     <path id="DejaVuSans-6f" d="M 1959 3097 
Q 1497 3097 1228 2736 
Q 959 2375 959 1747 
Q 959 1119 1226 758 
Q 1494 397 1959 397 
Q 2419 397 2687 759 
Q 2956 1122 2956 1747 
Q 2956 2369 2687 2733 
Q 2419 3097 1959 3097 
z
M 1959 3584 
Q 2709 3584 3137 3096 
Q 3566 2609 3566 1747 
Q 3566 888 3137 398 
Q 2709 -91 1959 -91 
Q 1206 -91 779 398 
Q 353 888 353 1747 
Q 353 2609 779 3096 
Q 1206 3584 1959 3584 
z
" transform="scale(0.015625)"/>
     <path id="DejaVuSans-75" d="M 544 1381 
L 544 3500 
L 1119 3500 
L 1119 1403 
Q 1119 906 1312 657 
Q 1506 409 1894 409 
Q 2359 409 2629 706 
Q 2900 1003 2900 1516 
L 2900 3500 
L 3475 3500 
L 3475 0 
L 2900 0 
L 2900 538 
Q 2691 219 2414 64 
Q 2138 -91 1772 -91 
Q 1169 -91 856 284 
Q 544 659 544 1381 
z
M 1991 3584 
L 1991 3584 
z
" transform="scale(0.015625)"/>
     <path id="DejaVuSans-5f" d="M 3263 -1063 
L 3263 -1509 
L -63 -1509 
L -63 -1063 
L 3263 -1063 
z
" transform="scale(0.015625)"/>
     <path id="DejaVuSans-63" d="M 3122 3366 
L 3122 2828 
Q 2878 2963 2633 3030 
Q 2388 3097 2138 3097 
Q 1578 3097 1268 2742 
Q 959 2388 959 1747 
Q 959 1106 1268 751 
Q 1578 397 2138 397 
Q 2388 397 2633 464 
Q 2878 531 3122 666 
L 3122 134 
Q 2881 22 2623 -34 
Q 2366 -91 2075 -91 
Q 1284 -91 818 406 
Q 353 903 353 1747 
Q 353 2603 823 3093 
Q 1294 3584 2113 3584 
Q 2378 3584 2631 3529 
Q 2884 3475 3122 3366 
z
" transform="scale(0.015625)"/>
    </defs>
    <use xlink:href="#DejaVuSans-66"/>
    <use xlink:href="#DejaVuSans-6f" x="35.205078"/>
    <use xlink:href="#DejaVuSans-75" x="96.386719"/>
    <use xlink:href="#DejaVuSans-72" x="159.765625"/>
    <use xlink:href="#DejaVuSans-5f" x="200.878906"/>
    <use xlink:href="#DejaVuSans-63" x="250.878906"/>
   </g>
  </g>
 </g>
 <defs>
  <clipPath id="p0a507fe7db">
   <rect x="52.160938" y="36.72" width="300.37" height="281.32"/>
  </clipPath>
  <clipPath id="p09ae0dcd77">
   <rect x="408.530938" y="36.72" width="300.37" height="281.32"/>
  </clipPath>
  <clipPath id="pe97f130bcb">
   <rect x="764.900938" y="36.72" width="300.37" height="281.32"/>
  </clipPath>
 </defs>
</svg>
