<?xml version="1.0" encoding="utf-8" standalone="no"?>
<!DOCTYPE svg PUBLIC "-//W3C//DTD SVG 1.1//EN"
  "http://www.w3.org/Graphics/SVG/1.1/DTD/svg11.dtd">
<svg xmlns:xlink="http://www.w3.org/1999/xlink" width="1072.470937pt" height="355.59625pt" viewBox="0 0 1072.470937 355.59625" xmlns="http://www.w3.org/2000/svg" version="1.1">
 <metadata>
  <rdf:RDF xmlns:dc="http://purl.org/dc/elements/1.1/" xmlns:cc="http://creativecommons.org/ns#" xmlns:rdf="http://www.w3.org/1999/02/22-rdf-syntax-ns#">
   <cc:Work>
    <dc:type rdf:resource="http://purl.org/dc/dcmitype/StillImage"/>
    <dc:date>2025-01-24T15:06:31.971578</dc:date>
    <dc:format>image/svg+xml</dc:format>
    <dc:creator>
     <cc:Agent>
      <dc:title>Matplotlib v3.9.2, https://matplotlib.org/</dc:title>
     </cc:Agent>
    </dc:creator>
   </cc:Work>
  </rdf:RDF>
 </metadata>
 <defs>
  <style type="text/css">*{stroke-linejoin: round; stroke-linecap: butt}</style>
 </defs>
 <g id="figure_1">
  <g id="patch_1">
   <path d="M 0 355.59625 
L 1072.470937 355.59625 
L 1072.470937 0 
L 0 0 
z
" style="fill: #ffffff"/>
  </g>
  <g id="axes_1">
   <g id="patch_2">
    <path d="M 52.160938 318.04 
L 352.530937 318.04 
L 352.530937 36.72 
L 52.160938 36.72 
z
" style="fill: #ffffff"/>
   </g>
   <g id="matplotlib.axis_1">
    <g id="xtick_1">
     <g id="line2d_1">
      <path d="M 65.814119 318.04 
L 65.814119 36.72 
" clip-path="url(#pd8d9b0e27a)" style="fill: none; stroke: #b0b0b0; stroke-width: 0.8; stroke-linecap: square"/>
     </g>
     <g id="line2d_2">
      <defs>
       <path id="mad1f149c26" d="M 0 0 
L 0 3.5 
" style="stroke: #000000; stroke-width: 0.8"/>
      </defs>
      <g>
       <use xlink:href="#mad1f149c26" x="65.814119" y="318.04" style="stroke: #000000; stroke-width: 0.8"/>
      </g>
     </g>
     <g id="text_1">
      <!-- 0.0 -->
      <g transform="translate(57.862557 332.638437) scale(0.1 -0.1)">
       <defs>
        <path id="DejaVuSans-30" d="M 2034 4250 
Q 1547 4250 1301 3770 
Q 1056 3291 1056 2328 
Q 1056 1369 1301 889 
Q 1547 409 2034 409 
Q 2525 409 2770 889 
Q 3016 1369 3016 2328 
Q 3016 3291 2770 3770 
Q 2525 4250 2034 4250 
z
M 2034 4750 
Q 2819 4750 3233 4129 
Q 3647 3509 3647 2328 
Q 3647 1150 3233 529 
Q 2819 -91 2034 -91 
Q 1250 -91 836 529 
Q 422 1150 422 2328 
Q 422 3509 836 4129 
Q 1250 4750 2034 4750 
z
" transform="scale(0.015625)"/>
        <path id="DejaVuSans-2e" d="M 684 794 
L 1344 794 
L 1344 0 
L 684 0 
L 684 794 
z
" transform="scale(0.015625)"/>
       </defs>
       <use xlink:href="#DejaVuSans-30"/>
       <use xlink:href="#DejaVuSans-2e" x="63.623047"/>
       <use xlink:href="#DejaVuSans-30" x="95.410156"/>
      </g>
     </g>
    </g>
    <g id="xtick_2">
     <g id="line2d_3">
      <path d="M 99.947074 318.04 
L 99.947074 36.72 
" clip-path="url(#pd8d9b0e27a)" style="fill: none; stroke: #b0b0b0; stroke-width: 0.8; stroke-linecap: square"/>
     </g>
     <g id="line2d_4">
      <g>
       <use xlink:href="#mad1f149c26" x="99.947074" y="318.04" style="stroke: #000000; stroke-width: 0.8"/>
      </g>
     </g>
     <g id="text_2">
      <!-- 2.5 -->
      <g transform="translate(91.995511 332.638437) scale(0.1 -0.1)">
       <defs>
        <path id="DejaVuSans-32" d="M 1228 531 
L 3431 531 
L 3431 0 
L 469 0 
L 469 531 
Q 828 903 1448 1529 
Q 2069 2156 2228 2338 
Q 2531 2678 2651 2914 
Q 2772 3150 2772 3378 
Q 2772 3750 2511 3984 
Q 2250 4219 1831 4219 
Q 1534 4219 1204 4116 
Q 875 4013 500 3803 
L 500 4441 
Q 881 4594 1212 4672 
Q 1544 4750 1819 4750 
Q 2544 4750 2975 4387 
Q 3406 4025 3406 3419 
Q 3406 3131 3298 2873 
Q 3191 2616 2906 2266 
Q 2828 2175 2409 1742 
Q 1991 1309 1228 531 
z
" transform="scale(0.015625)"/>
        <path id="DejaVuSans-35" d="M 691 4666 
L 3169 4666 
L 3169 4134 
L 1269 4134 
L 1269 2991 
Q 1406 3038 1543 3061 
Q 1681 3084 1819 3084 
Q 2600 3084 3056 2656 
Q 3513 2228 3513 1497 
Q 3513 744 3044 326 
Q 2575 -91 1722 -91 
Q 1428 -91 1123 -41 
Q 819 9 494 109 
L 494 744 
Q 775 591 1075 516 
Q 1375 441 1709 441 
Q 2250 441 2565 725 
Q 2881 1009 2881 1497 
Q 2881 1984 2565 2268 
Q 2250 2553 1709 2553 
Q 1456 2553 1204 2497 
Q 953 2441 691 2322 
L 691 4666 
z
" transform="scale(0.015625)"/>
       </defs>
       <use xlink:href="#DejaVuSans-32"/>
       <use xlink:href="#DejaVuSans-2e" x="63.623047"/>
       <use xlink:href="#DejaVuSans-35" x="95.410156"/>
      </g>
     </g>
    </g>
    <g id="xtick_3">
     <g id="line2d_5">
      <path d="M 134.080028 318.04 
L 134.080028 36.72 
" clip-path="url(#pd8d9b0e27a)" style="fill: none; stroke: #b0b0b0; stroke-width: 0.8; stroke-linecap: square"/>
     </g>
     <g id="line2d_6">
      <g>
       <use xlink:href="#mad1f149c26" x="134.080028" y="318.04" style="stroke: #000000; stroke-width: 0.8"/>
      </g>
     </g>
     <g id="text_3">
      <!-- 5.0 -->
      <g transform="translate(126.128466 332.638437) scale(0.1 -0.1)">
       <use xlink:href="#DejaVuSans-35"/>
       <use xlink:href="#DejaVuSans-2e" x="63.623047"/>
       <use xlink:href="#DejaVuSans-30" x="95.410156"/>
      </g>
     </g>
    </g>
    <g id="xtick_4">
     <g id="line2d_7">
      <path d="M 168.212983 318.04 
L 168.212983 36.72 
" clip-path="url(#pd8d9b0e27a)" style="fill: none; stroke: #b0b0b0; stroke-width: 0.8; stroke-linecap: square"/>
     </g>
     <g id="line2d_8">
      <g>
       <use xlink:href="#mad1f149c26" x="168.212983" y="318.04" style="stroke: #000000; stroke-width: 0.8"/>
      </g>
     </g>
     <g id="text_4">
      <!-- 7.5 -->
      <g transform="translate(160.26142 332.638437) scale(0.1 -0.1)">
       <defs>
        <path id="DejaVuSans-37" d="M 525 4666 
L 3525 4666 
L 3525 4397 
L 1831 0 
L 1172 0 
L 2766 4134 
L 525 4134 
L 525 4666 
z
" transform="scale(0.015625)"/>
       </defs>
       <use xlink:href="#DejaVuSans-37"/>
       <use xlink:href="#DejaVuSans-2e" x="63.623047"/>
       <use xlink:href="#DejaVuSans-35" x="95.410156"/>
      </g>
     </g>
    </g>
    <g id="xtick_5">
     <g id="line2d_9">
      <path d="M 202.345937 318.04 
L 202.345937 36.72 
" clip-path="url(#pd8d9b0e27a)" style="fill: none; stroke: #b0b0b0; stroke-width: 0.8; stroke-linecap: square"/>
     </g>
     <g id="line2d_10">
      <g>
       <use xlink:href="#mad1f149c26" x="202.345937" y="318.04" style="stroke: #000000; stroke-width: 0.8"/>
      </g>
     </g>
     <g id="text_5">
      <!-- 10.0 -->
      <g transform="translate(191.213125 332.638437) scale(0.1 -0.1)">
       <defs>
        <path id="DejaVuSans-31" d="M 794 531 
L 1825 531 
L 1825 4091 
L 703 3866 
L 703 4441 
L 1819 4666 
L 2450 4666 
L 2450 531 
L 3481 531 
L 3481 0 
L 794 0 
L 794 531 
z
" transform="scale(0.015625)"/>
       </defs>
       <use xlink:href="#DejaVuSans-31"/>
       <use xlink:href="#DejaVuSans-30" x="63.623047"/>
       <use xlink:href="#DejaVuSans-2e" x="127.246094"/>
       <use xlink:href="#DejaVuSans-30" x="159.033203"/>
      </g>
     </g>
    </g>
    <g id="xtick_6">
     <g id="line2d_11">
      <path d="M 236.478892 318.04 
L 236.478892 36.72 
" clip-path="url(#pd8d9b0e27a)" style="fill: none; stroke: #b0b0b0; stroke-width: 0.8; stroke-linecap: square"/>
     </g>
     <g id="line2d_12">
      <g>
       <use xlink:href="#mad1f149c26" x="236.478892" y="318.04" style="stroke: #000000; stroke-width: 0.8"/>
      </g>
     </g>
     <g id="text_6">
      <!-- 12.5 -->
      <g transform="translate(225.34608 332.638437) scale(0.1 -0.1)">
       <use xlink:href="#DejaVuSans-31"/>
       <use xlink:href="#DejaVuSans-32" x="63.623047"/>
       <use xlink:href="#DejaVuSans-2e" x="127.246094"/>
       <use xlink:href="#DejaVuSans-35" x="159.033203"/>
      </g>
     </g>
    </g>
    <g id="xtick_7">
     <g id="line2d_13">
      <path d="M 270.611847 318.04 
L 270.611847 36.72 
" clip-path="url(#pd8d9b0e27a)" style="fill: none; stroke: #b0b0b0; stroke-width: 0.8; stroke-linecap: square"/>
     </g>
     <g id="line2d_14">
      <g>
       <use xlink:href="#mad1f149c26" x="270.611847" y="318.04" style="stroke: #000000; stroke-width: 0.8"/>
      </g>
     </g>
     <g id="text_7">
      <!-- 15.0 -->
      <g transform="translate(259.479034 332.638437) scale(0.1 -0.1)">
       <use xlink:href="#DejaVuSans-31"/>
       <use xlink:href="#DejaVuSans-35" x="63.623047"/>
       <use xlink:href="#DejaVuSans-2e" x="127.246094"/>
       <use xlink:href="#DejaVuSans-30" x="159.033203"/>
      </g>
     </g>
    </g>
    <g id="xtick_8">
     <g id="line2d_15">
      <path d="M 304.744801 318.04 
L 304.744801 36.72 
" clip-path="url(#pd8d9b0e27a)" style="fill: none; stroke: #b0b0b0; stroke-width: 0.8; stroke-linecap: square"/>
     </g>
     <g id="line2d_16">
      <g>
       <use xlink:href="#mad1f149c26" x="304.744801" y="318.04" style="stroke: #000000; stroke-width: 0.8"/>
      </g>
     </g>
     <g id="text_8">
      <!-- 17.5 -->
      <g transform="translate(293.611989 332.638437) scale(0.1 -0.1)">
       <use xlink:href="#DejaVuSans-31"/>
       <use xlink:href="#DejaVuSans-37" x="63.623047"/>
       <use xlink:href="#DejaVuSans-2e" x="127.246094"/>
       <use xlink:href="#DejaVuSans-35" x="159.033203"/>
      </g>
     </g>
    </g>
    <g id="xtick_9">
     <g id="line2d_17">
      <path d="M 338.877756 318.04 
L 338.877756 36.72 
" clip-path="url(#pd8d9b0e27a)" style="fill: none; stroke: #b0b0b0; stroke-width: 0.8; stroke-linecap: square"/>
     </g>
     <g id="line2d_18">
      <g>
       <use xlink:href="#mad1f149c26" x="338.877756" y="318.04" style="stroke: #000000; stroke-width: 0.8"/>
      </g>
     </g>
     <g id="text_9">
      <!-- 20.0 -->
      <g transform="translate(327.744943 332.638437) scale(0.1 -0.1)">
       <use xlink:href="#DejaVuSans-32"/>
       <use xlink:href="#DejaVuSans-30" x="63.623047"/>
       <use xlink:href="#DejaVuSans-2e" x="127.246094"/>
       <use xlink:href="#DejaVuSans-30" x="159.033203"/>
      </g>
     </g>
    </g>
    <g id="text_10">
     <!-- t -->
     <g transform="translate(200.385781 346.316562) scale(0.1 -0.1)">
      <defs>
       <path id="DejaVuSans-74" d="M 1172 4494 
L 1172 3500 
L 2356 3500 
L 2356 3053 
L 1172 3053 
L 1172 1153 
Q 1172 725 1289 603 
Q 1406 481 1766 481 
L 2356 481 
L 2356 0 
L 1766 0 
Q 1100 0 847 248 
Q 594 497 594 1153 
L 594 3053 
L 172 3053 
L 172 3500 
L 594 3500 
L 594 4494 
L 1172 4494 
z
" transform="scale(0.015625)"/>
      </defs>
      <use xlink:href="#DejaVuSans-74"/>
     </g>
    </g>
   </g>
   <g id="matplotlib.axis_2">
    <g id="ytick_1">
     <g id="line2d_19">
      <path d="M 52.160938 277.887637 
L 352.530937 277.887637 
" clip-path="url(#pd8d9b0e27a)" style="fill: none; stroke: #b0b0b0; stroke-width: 0.8; stroke-linecap: square"/>
     </g>
     <g id="line2d_20">
      <defs>
       <path id="ma6835eea8c" d="M 0 0 
L -3.5 0 
" style="stroke: #000000; stroke-width: 0.8"/>
      </defs>
      <g>
       <use xlink:href="#ma6835eea8c" x="52.160938" y="277.887637" style="stroke: #000000; stroke-width: 0.8"/>
      </g>
     </g>
     <g id="text_11">
      <!-- −1.0 -->
      <g transform="translate(20.878125 281.686856) scale(0.1 -0.1)">
       <defs>
        <path id="DejaVuSans-2212" d="M 678 2272 
L 4684 2272 
L 4684 1741 
L 678 1741 
L 678 2272 
z
" transform="scale(0.015625)"/>
       </defs>
       <use xlink:href="#DejaVuSans-2212"/>
       <use xlink:href="#DejaVuSans-31" x="83.789062"/>
       <use xlink:href="#DejaVuSans-2e" x="147.412109"/>
       <use xlink:href="#DejaVuSans-30" x="179.199219"/>
      </g>
     </g>
    </g>
    <g id="ytick_2">
     <g id="line2d_21">
      <path d="M 52.160938 224.905261 
L 352.530937 224.905261 
" clip-path="url(#pd8d9b0e27a)" style="fill: none; stroke: #b0b0b0; stroke-width: 0.8; stroke-linecap: square"/>
     </g>
     <g id="line2d_22">
      <g>
       <use xlink:href="#ma6835eea8c" x="52.160938" y="224.905261" style="stroke: #000000; stroke-width: 0.8"/>
      </g>
     </g>
     <g id="text_12">
      <!-- −0.5 -->
      <g transform="translate(20.878125 228.70448) scale(0.1 -0.1)">
       <use xlink:href="#DejaVuSans-2212"/>
       <use xlink:href="#DejaVuSans-30" x="83.789062"/>
       <use xlink:href="#DejaVuSans-2e" x="147.412109"/>
       <use xlink:href="#DejaVuSans-35" x="179.199219"/>
      </g>
     </g>
    </g>
    <g id="ytick_3">
     <g id="line2d_23">
      <path d="M 52.160938 171.922885 
L 352.530937 171.922885 
" clip-path="url(#pd8d9b0e27a)" style="fill: none; stroke: #b0b0b0; stroke-width: 0.8; stroke-linecap: square"/>
     </g>
     <g id="line2d_24">
      <g>
       <use xlink:href="#ma6835eea8c" x="52.160938" y="171.922885" style="stroke: #000000; stroke-width: 0.8"/>
      </g>
     </g>
     <g id="text_13">
      <!-- 0.0 -->
      <g transform="translate(29.257812 175.722103) scale(0.1 -0.1)">
       <use xlink:href="#DejaVuSans-30"/>
       <use xlink:href="#DejaVuSans-2e" x="63.623047"/>
       <use xlink:href="#DejaVuSans-30" x="95.410156"/>
      </g>
     </g>
    </g>
    <g id="ytick_4">
     <g id="line2d_25">
      <path d="M 52.160938 118.940508 
L 352.530937 118.940508 
" clip-path="url(#pd8d9b0e27a)" style="fill: none; stroke: #b0b0b0; stroke-width: 0.8; stroke-linecap: square"/>
     </g>
     <g id="line2d_26">
      <g>
       <use xlink:href="#ma6835eea8c" x="52.160938" y="118.940508" style="stroke: #000000; stroke-width: 0.8"/>
      </g>
     </g>
     <g id="text_14">
      <!-- 0.5 -->
      <g transform="translate(29.257812 122.739727) scale(0.1 -0.1)">
       <use xlink:href="#DejaVuSans-30"/>
       <use xlink:href="#DejaVuSans-2e" x="63.623047"/>
       <use xlink:href="#DejaVuSans-35" x="95.410156"/>
      </g>
     </g>
    </g>
    <g id="ytick_5">
     <g id="line2d_27">
      <path d="M 52.160938 65.958132 
L 352.530937 65.958132 
" clip-path="url(#pd8d9b0e27a)" style="fill: none; stroke: #b0b0b0; stroke-width: 0.8; stroke-linecap: square"/>
     </g>
     <g id="line2d_28">
      <g>
       <use xlink:href="#ma6835eea8c" x="52.160938" y="65.958132" style="stroke: #000000; stroke-width: 0.8"/>
      </g>
     </g>
     <g id="text_15">
      <!-- 1.0 -->
      <g transform="translate(29.257812 69.757351) scale(0.1 -0.1)">
       <use xlink:href="#DejaVuSans-31"/>
       <use xlink:href="#DejaVuSans-2e" x="63.623047"/>
       <use xlink:href="#DejaVuSans-30" x="95.410156"/>
      </g>
     </g>
    </g>
    <g id="text_16">
     <!-- x(t) -->
     <g transform="translate(14.798438 186.201094) rotate(-90) scale(0.1 -0.1)">
      <defs>
       <path id="DejaVuSans-78" d="M 3513 3500 
L 2247 1797 
L 3578 0 
L 2900 0 
L 1881 1375 
L 863 0 
L 184 0 
L 1544 1831 
L 300 3500 
L 978 3500 
L 1906 2253 
L 2834 3500 
L 3513 3500 
z
" transform="scale(0.015625)"/>
       <path id="DejaVuSans-28" d="M 1984 4856 
Q 1566 4138 1362 3434 
Q 1159 2731 1159 2009 
Q 1159 1288 1364 580 
Q 1569 -128 1984 -844 
L 1484 -844 
Q 1016 -109 783 600 
Q 550 1309 550 2009 
Q 550 2706 781 3412 
Q 1013 4119 1484 4856 
L 1984 4856 
z
" transform="scale(0.015625)"/>
       <path id="DejaVuSans-29" d="M 513 4856 
L 1013 4856 
Q 1481 4119 1714 3412 
Q 1947 2706 1947 2009 
Q 1947 1309 1714 600 
Q 1481 -109 1013 -844 
L 513 -844 
Q 928 -128 1133 580 
Q 1338 1288 1338 2009 
Q 1338 2731 1133 3434 
Q 928 4138 513 4856 
z
" transform="scale(0.015625)"/>
      </defs>
      <use xlink:href="#DejaVuSans-78"/>
      <use xlink:href="#DejaVuSans-28" x="59.179688"/>
      <use xlink:href="#DejaVuSans-74" x="98.193359"/>
      <use xlink:href="#DejaVuSans-29" x="137.402344"/>
     </g>
    </g>
   </g>
   <g id="line2d_29">
    <path d="M 65.814119 171.922885 
L 75.107576 171.815615 
L 78.660957 171.547783 
L 81.667664 171.092116 
L 84.127697 170.507613 
L 86.587729 169.695004 
L 89.047762 168.629571 
L 91.507795 167.300254 
L 93.967828 165.712748 
L 96.701197 163.676793 
L 99.981241 160.945205 
L 108.18135 153.954723 
L 110.368046 152.428694 
L 112.281405 151.346489 
L 113.921427 150.656507 
L 115.561448 150.226684 
L 116.928133 150.094105 
L 118.294818 150.18834 
L 119.661503 150.528123 
L 121.028188 151.130153 
L 122.394873 152.008731 
L 123.761558 153.175421 
L 125.128243 154.638745 
L 126.494927 156.403895 
L 128.134949 158.922488 
L 129.774971 161.873367 
L 131.68833 165.844951 
L 133.601689 170.352264 
L 135.788384 176.093461 
L 138.248417 183.184202 
L 141.528461 193.382739 
L 150.001907 220.151393 
L 152.46194 226.96245 
L 154.375299 231.645011 
L 156.015321 235.129368 
L 157.382005 237.603811 
L 158.74869 239.645082 
L 159.842038 240.940663 
L 160.935386 241.916558 
L 162.028734 242.555879 
L 162.848745 242.805124 
L 163.668756 242.850339 
L 164.488767 242.686096 
L 165.308778 242.307648 
L 166.128789 241.711016 
L 167.222136 240.570737 
L 168.315484 239.031799 
L 169.408832 237.091702 
L 170.50218 234.750758 
L 171.868865 231.266019 
L 173.23555 227.172811 
L 174.875572 221.486265 
L 176.515594 215.000532 
L 178.428952 206.508219 
L 180.615648 195.7361 
L 183.349018 181.004674 
L 187.175735 158.942442 
L 193.189149 124.259417 
L 195.922519 109.870189 
L 198.109214 99.500568 
L 200.022573 91.482096 
L 201.662595 85.521989 
L 203.02928 81.271072 
L 204.395965 77.724312 
L 205.489313 75.424531 
L 206.582661 73.625491 
L 207.402672 72.616224 
L 208.222682 71.906348 
L 209.042693 71.502206 
L 209.862704 71.409357 
L 210.682715 71.632511 
L 211.502726 72.175299 
L 212.322737 73.04011 
L 213.142748 74.228064 
L 214.236096 76.314189 
L 215.329444 78.970336 
L 216.422792 82.188364 
L 217.789476 86.981933 
L 219.156161 92.600914 
L 220.796183 100.372171 
L 222.709542 110.738083 
L 224.896238 124.076731 
L 227.356271 140.601879 
L 230.909651 166.275573 
L 237.469739 214.032004 
L 240.203108 232.07902 
L 242.389804 245.034625 
L 244.303163 255.018151 
L 245.943185 262.416403 
L 247.30987 267.680057 
L 248.676554 272.063097 
L 249.769902 274.90124 
L 250.86325 277.120409 
L 251.683261 278.366458 
L 252.503272 279.245723 
L 253.323283 279.751867 
L 253.869957 279.879335 
L 254.416631 279.837261 
L 254.963305 279.624565 
L 255.783316 278.98398 
L 256.603327 277.956489 
L 257.423338 276.542368 
L 258.243349 274.743499 
L 259.336696 271.752777 
L 260.430044 268.097171 
L 261.796729 262.620198 
L 263.163414 256.17802 
L 264.803436 247.254856 
L 266.716795 235.354772 
L 268.903491 220.073315 
L 271.363523 201.218409 
L 275.190241 169.867182 
L 280.383643 127.394024 
L 283.117013 106.888631 
L 285.303709 92.116287 
L 287.217068 80.697408 
L 288.85709 72.208444 
L 290.223774 66.147718 
L 291.590459 61.078881 
L 292.683807 57.777529 
L 293.777155 55.174919 
L 294.597166 53.695474 
L 295.417177 52.630497 
L 296.237188 51.987268 
L 296.783862 51.79582 
L 297.330536 51.796074 
L 297.87721 51.989282 
L 298.423884 52.376363 
L 299.243895 53.32161 
L 300.063905 54.704572 
L 300.883916 56.523728 
L 301.977264 59.621679 
L 303.070612 63.475701 
L 304.16396 68.066812 
L 305.530645 74.804026 
L 306.89733 82.593312 
L 308.537352 93.224451 
L 310.45071 107.204279 
L 312.637406 124.913459 
L 315.370776 148.938232 
L 325.484244 239.885855 
L 327.67094 256.78871 
L 329.584299 269.981399 
L 331.22432 279.898736 
L 332.864342 288.378291 
L 334.231027 294.25199 
L 335.324375 298.121916 
L 336.417723 301.222105 
L 337.237734 303.02609 
L 338.057745 304.372454 
L 338.877756 305.252727 
L 338.877756 305.252727 
" clip-path="url(#pd8d9b0e27a)" style="fill: none; stroke: #0000ff; stroke-width: 1.5; stroke-linecap: square"/>
   </g>
   <g id="line2d_30">
    <path d="M 65.814119 171.922885 
L 69.3675 172.786283 
L 73.194218 173.487826 
L 77.020935 173.971001 
L 80.300979 174.175584 
L 83.307686 174.135644 
L 85.767718 173.895597 
L 88.227751 173.431008 
L 90.414447 172.805095 
L 92.601143 171.963615 
L 94.787838 170.901354 
L 97.247871 169.450346 
L 99.981241 167.554066 
L 103.261285 164.98055 
L 111.461394 158.374085 
L 113.64809 156.940463 
L 115.561448 155.927786 
L 117.20147 155.285221 
L 118.841492 154.892535 
L 120.208177 154.792266 
L 121.574862 154.92875 
L 122.941547 155.328163 
L 124.308232 156.013977 
L 125.674916 157.006515 
L 127.041601 158.322537 
L 128.408286 159.974846 
L 129.774971 161.971954 
L 131.414993 164.828802 
L 133.055015 168.185122 
L 134.695037 172.024437 
L 136.608395 177.040592 
L 139.068428 184.151632 
L 142.621809 195.195647 
L 147.815211 211.32498 
L 150.548581 219.069355 
L 152.735277 224.626271 
L 154.648636 228.919195 
L 156.288657 232.123793 
L 157.928679 234.85482 
L 159.295364 236.749429 
L 160.662049 238.283692 
L 162.028734 239.446751 
L 163.122082 240.103523 
L 164.21543 240.510158 
L 165.308778 240.641056 
L 166.128789 240.537437 
L 166.948799 240.245824 
L 167.76881 239.753781 
L 168.588821 239.049898 
L 169.682169 237.764113 
L 170.775517 236.061876 
L 171.868865 233.925152 
L 172.962213 231.339542 
L 174.328898 227.460441 
L 175.695583 222.851359 
L 177.062267 217.509797 
L 178.702289 210.144332 
L 180.342311 201.767819 
L 182.25567 190.791818 
L 184.715703 175.193746 
L 192.369138 125.550448 
L 194.555834 113.151744 
L 196.469193 103.413782 
L 198.382551 94.821755 
L 200.022573 88.413766 
L 201.662595 82.90561 
L 203.02928 79.003474 
L 204.395965 75.720934 
L 205.76265 73.048408 
L 206.855998 71.3415 
L 207.949345 70.010366 
L 209.042693 69.047902 
L 209.862704 68.563839 
L 210.682715 68.289525 
L 211.502726 68.250057 
L 212.322737 68.470548 
L 213.142748 68.973338 
L 213.962759 69.77798 
L 214.78277 70.901234 
L 215.602781 72.357071 
L 216.696129 74.834517 
L 217.789476 77.941854 
L 218.882824 81.68965 
L 220.249509 87.277883 
L 221.616194 93.857309 
L 223.256216 103.016496 
L 224.896238 113.473106 
L 226.809597 127.156524 
L 228.996292 144.441856 
L 237.469739 213.358168 
L 239.656434 228.445254 
L 241.569793 240.122398 
L 243.209815 248.91217 
L 244.849837 256.544728 
L 246.489859 263.019039 
L 247.856544 267.543916 
L 249.223228 271.299132 
L 250.316576 273.766502 
L 251.409924 275.772819 
L 252.503272 277.333766 
L 253.59662 278.465186 
L 254.416631 279.040438 
L 255.236642 279.370017 
L 256.056653 279.425737 
L 256.876664 279.181115 
L 257.696675 278.612138 
L 258.516686 277.697245 
L 259.336696 276.417328 
L 260.156707 274.755739 
L 261.250055 271.922435 
L 262.343403 268.359002 
L 263.436751 264.046721 
L 264.803436 257.587813 
L 266.170121 249.939694 
L 267.536806 241.119095 
L 269.176827 229.039243 
L 271.090186 213.014231 
L 273.276882 192.617603 
L 279.563632 132.83158 
L 281.750328 114.62511 
L 283.663687 100.464077 
L 285.303709 89.747218 
L 286.943731 80.37283 
L 288.583753 72.333184 
L 289.950437 66.630384 
L 291.317122 61.804975 
L 292.683807 57.824584 
L 293.777155 55.225178 
L 294.870503 53.1258 
L 295.963851 51.508286 
L 297.057199 50.355131 
L 297.87721 49.793386 
L 298.697221 49.524969 
L 299.243895 49.527637 
L 299.790568 49.687373 
L 300.337242 50.01329 
L 301.157253 50.831529 
L 301.977264 52.066119 
L 302.797275 53.7368 
L 303.617286 55.858998 
L 304.710634 59.409694 
L 305.803982 63.797654 
L 306.89733 69.025513 
L 308.264015 76.726291 
L 309.6307 85.681848 
L 311.270721 97.98904 
L 313.18408 114.297047 
L 315.370776 135.017027 
L 322.477537 204.038157 
L 324.664233 222.499261 
L 326.577592 236.848991 
L 328.217614 247.685428 
L 329.857636 257.126725 
L 331.497657 265.172831 
L 332.864342 270.834083 
L 334.231027 275.578725 
L 335.597712 279.445591 
L 336.69106 281.936491 
L 337.784408 283.917399 
L 338.604419 285.082823 
L 338.877756 285.082823 
L 338.877756 285.082823 
" clip-path="url(#pd8d9b0e27a)" style="fill: none; stroke-dasharray: 5.55,2.4; stroke-dashoffset: 0; stroke: #ff0000; stroke-width: 1.5"/>
   </g>
   <g id="patch_3">
    <path d="M 52.160938 318.04 
L 52.160938 36.72 
" style="fill: none; stroke: #000000; stroke-width: 0.8; stroke-linejoin: miter; stroke-linecap: square"/>
   </g>
   <g id="patch_4">
    <path d="M 352.530937 318.04 
L 352.530937 36.72 
" style="fill: none; stroke: #000000; stroke-width: 0.8; stroke-linejoin: miter; stroke-linecap: square"/>
   </g>
   <g id="patch_5">
    <path d="M 52.160938 318.04 
L 352.530938 318.04 
" style="fill: none; stroke: #000000; stroke-width: 0.8; stroke-linejoin: miter; stroke-linecap: square"/>
   </g>
   <g id="patch_6">
    <path d="M 52.160938 36.72 
L 352.530938 36.72 
" style="fill: none; stroke: #000000; stroke-width: 0.8; stroke-linejoin: miter; stroke-linecap: square"/>
   </g>
   <g id="legend_1">
    <g id="patch_7">
     <path d="M 59.160938 74.07625 
L 117.753125 74.07625 
Q 119.753125 74.07625 119.753125 72.07625 
L 119.753125 43.72 
Q 119.753125 41.72 117.753125 41.72 
L 59.160938 41.72 
Q 57.160938 41.72 57.160938 43.72 
L 57.160938 72.07625 
Q 57.160938 74.07625 59.160938 74.07625 
z
" style="fill: #ffffff; opacity: 0.8; stroke: #cccccc; stroke-linejoin: miter"/>
    </g>
    <g id="line2d_31">
     <path d="M 61.160938 49.818437 
L 71.160938 49.818437 
L 81.160938 49.818437 
" style="fill: none; stroke: #0000ff; stroke-width: 1.5; stroke-linecap: square"/>
    </g>
    <g id="text_17">
     <!-- data -->
     <g transform="translate(89.160938 53.318437) scale(0.1 -0.1)">
      <defs>
       <path id="DejaVuSans-64" d="M 2906 2969 
L 2906 4863 
L 3481 4863 
L 3481 0 
L 2906 0 
L 2906 525 
Q 2725 213 2448 61 
Q 2172 -91 1784 -91 
Q 1150 -91 751 415 
Q 353 922 353 1747 
Q 353 2572 751 3078 
Q 1150 3584 1784 3584 
Q 2172 3584 2448 3432 
Q 2725 3281 2906 2969 
z
M 947 1747 
Q 947 1113 1208 752 
Q 1469 391 1925 391 
Q 2381 391 2643 752 
Q 2906 1113 2906 1747 
Q 2906 2381 2643 2742 
Q 2381 3103 1925 3103 
Q 1469 3103 1208 2742 
Q 947 2381 947 1747 
z
" transform="scale(0.015625)"/>
       <path id="DejaVuSans-61" d="M 2194 1759 
Q 1497 1759 1228 1600 
Q 959 1441 959 1056 
Q 959 750 1161 570 
Q 1363 391 1709 391 
Q 2188 391 2477 730 
Q 2766 1069 2766 1631 
L 2766 1759 
L 2194 1759 
z
M 3341 1997 
L 3341 0 
L 2766 0 
L 2766 531 
Q 2569 213 2275 61 
Q 1981 -91 1556 -91 
Q 1019 -91 701 211 
Q 384 513 384 1019 
Q 384 1609 779 1909 
Q 1175 2209 1959 2209 
L 2766 2209 
L 2766 2266 
Q 2766 2663 2505 2880 
Q 2244 3097 1772 3097 
Q 1472 3097 1187 3025 
Q 903 2953 641 2809 
L 641 3341 
Q 956 3463 1253 3523 
Q 1550 3584 1831 3584 
Q 2591 3584 2966 3190 
Q 3341 2797 3341 1997 
z
" transform="scale(0.015625)"/>
      </defs>
      <use xlink:href="#DejaVuSans-64"/>
      <use xlink:href="#DejaVuSans-61" x="63.476562"/>
      <use xlink:href="#DejaVuSans-74" x="124.755859"/>
      <use xlink:href="#DejaVuSans-61" x="163.964844"/>
     </g>
    </g>
    <g id="line2d_32">
     <path d="M 61.160938 64.496562 
L 71.160938 64.496562 
L 81.160938 64.496562 
" style="fill: none; stroke-dasharray: 5.55,2.4; stroke-dashoffset: 0; stroke: #ff0000; stroke-width: 1.5"/>
    </g>
    <g id="text_18">
     <!-- sindy -->
     <g transform="translate(89.160938 67.996562) scale(0.1 -0.1)">
      <defs>
       <path id="DejaVuSans-73" d="M 2834 3397 
L 2834 2853 
Q 2591 2978 2328 3040 
Q 2066 3103 1784 3103 
Q 1356 3103 1142 2972 
Q 928 2841 928 2578 
Q 928 2378 1081 2264 
Q 1234 2150 1697 2047 
L 1894 2003 
Q 2506 1872 2764 1633 
Q 3022 1394 3022 966 
Q 3022 478 2636 193 
Q 2250 -91 1575 -91 
Q 1294 -91 989 -36 
Q 684 19 347 128 
L 347 722 
Q 666 556 975 473 
Q 1284 391 1588 391 
Q 1994 391 2212 530 
Q 2431 669 2431 922 
Q 2431 1156 2273 1281 
Q 2116 1406 1581 1522 
L 1381 1569 
Q 847 1681 609 1914 
Q 372 2147 372 2553 
Q 372 3047 722 3315 
Q 1072 3584 1716 3584 
Q 2034 3584 2315 3537 
Q 2597 3491 2834 3397 
z
" transform="scale(0.015625)"/>
       <path id="DejaVuSans-69" d="M 603 3500 
L 1178 3500 
L 1178 0 
L 603 0 
L 603 3500 
z
M 603 4863 
L 1178 4863 
L 1178 4134 
L 603 4134 
L 603 4863 
z
" transform="scale(0.015625)"/>
       <path id="DejaVuSans-6e" d="M 3513 2113 
L 3513 0 
L 2938 0 
L 2938 2094 
Q 2938 2591 2744 2837 
Q 2550 3084 2163 3084 
Q 1697 3084 1428 2787 
Q 1159 2491 1159 1978 
L 1159 0 
L 581 0 
L 581 3500 
L 1159 3500 
L 1159 2956 
Q 1366 3272 1645 3428 
Q 1925 3584 2291 3584 
Q 2894 3584 3203 3211 
Q 3513 2838 3513 2113 
z
" transform="scale(0.015625)"/>
       <path id="DejaVuSans-79" d="M 2059 -325 
Q 1816 -950 1584 -1140 
Q 1353 -1331 966 -1331 
L 506 -1331 
L 506 -850 
L 844 -850 
Q 1081 -850 1212 -737 
Q 1344 -625 1503 -206 
L 1606 56 
L 191 3500 
L 800 3500 
L 1894 763 
L 2988 3500 
L 3597 3500 
L 2059 -325 
z
" transform="scale(0.015625)"/>
      </defs>
      <use xlink:href="#DejaVuSans-73"/>
      <use xlink:href="#DejaVuSans-69" x="52.099609"/>
      <use xlink:href="#DejaVuSans-6e" x="79.882812"/>
      <use xlink:href="#DejaVuSans-64" x="143.261719"/>
      <use xlink:href="#DejaVuSans-79" x="206.738281"/>
     </g>
    </g>
   </g>
  </g>
  <g id="axes_2">
   <g id="patch_8">
    <path d="M 408.530938 318.04 
L 708.900938 318.04 
L 708.900938 36.72 
L 408.530938 36.72 
z
" style="fill: #ffffff"/>
   </g>
   <g id="matplotlib.axis_3">
    <g id="xtick_10">
     <g id="line2d_33">
      <path d="M 422.184119 318.04 
L 422.184119 36.72 
" clip-path="url(#p508c80a173)" style="fill: none; stroke: #b0b0b0; stroke-width: 0.8; stroke-linecap: square"/>
     </g>
     <g id="line2d_34">
      <g>
       <use xlink:href="#mad1f149c26" x="422.184119" y="318.04" style="stroke: #000000; stroke-width: 0.8"/>
      </g>
     </g>
     <g id="text_19">
      <!-- 0.0 -->
      <g transform="translate(414.232557 332.638437) scale(0.1 -0.1)">
       <use xlink:href="#DejaVuSans-30"/>
       <use xlink:href="#DejaVuSans-2e" x="63.623047"/>
       <use xlink:href="#DejaVuSans-30" x="95.410156"/>
      </g>
     </g>
    </g>
    <g id="xtick_11">
     <g id="line2d_35">
      <path d="M 456.317074 318.04 
L 456.317074 36.72 
" clip-path="url(#p508c80a173)" style="fill: none; stroke: #b0b0b0; stroke-width: 0.8; stroke-linecap: square"/>
     </g>
     <g id="line2d_36">
      <g>
       <use xlink:href="#mad1f149c26" x="456.317074" y="318.04" style="stroke: #000000; stroke-width: 0.8"/>
      </g>
     </g>
     <g id="text_20">
      <!-- 2.5 -->
      <g transform="translate(448.365511 332.638437) scale(0.1 -0.1)">
       <use xlink:href="#DejaVuSans-32"/>
       <use xlink:href="#DejaVuSans-2e" x="63.623047"/>
       <use xlink:href="#DejaVuSans-35" x="95.410156"/>
      </g>
     </g>
    </g>
    <g id="xtick_12">
     <g id="line2d_37">
      <path d="M 490.450028 318.04 
L 490.450028 36.72 
" clip-path="url(#p508c80a173)" style="fill: none; stroke: #b0b0b0; stroke-width: 0.8; stroke-linecap: square"/>
     </g>
     <g id="line2d_38">
      <g>
       <use xlink:href="#mad1f149c26" x="490.450028" y="318.04" style="stroke: #000000; stroke-width: 0.8"/>
      </g>
     </g>
     <g id="text_21">
      <!-- 5.0 -->
      <g transform="translate(482.498466 332.638437) scale(0.1 -0.1)">
       <use xlink:href="#DejaVuSans-35"/>
       <use xlink:href="#DejaVuSans-2e" x="63.623047"/>
       <use xlink:href="#DejaVuSans-30" x="95.410156"/>
      </g>
     </g>
    </g>
    <g id="xtick_13">
     <g id="line2d_39">
      <path d="M 524.582983 318.04 
L 524.582983 36.72 
" clip-path="url(#p508c80a173)" style="fill: none; stroke: #b0b0b0; stroke-width: 0.8; stroke-linecap: square"/>
     </g>
     <g id="line2d_40">
      <g>
       <use xlink:href="#mad1f149c26" x="524.582983" y="318.04" style="stroke: #000000; stroke-width: 0.8"/>
      </g>
     </g>
     <g id="text_22">
      <!-- 7.5 -->
      <g transform="translate(516.63142 332.638437) scale(0.1 -0.1)">
       <use xlink:href="#DejaVuSans-37"/>
       <use xlink:href="#DejaVuSans-2e" x="63.623047"/>
       <use xlink:href="#DejaVuSans-35" x="95.410156"/>
      </g>
     </g>
    </g>
    <g id="xtick_14">
     <g id="line2d_41">
      <path d="M 558.715938 318.04 
L 558.715938 36.72 
" clip-path="url(#p508c80a173)" style="fill: none; stroke: #b0b0b0; stroke-width: 0.8; stroke-linecap: square"/>
     </g>
     <g id="line2d_42">
      <g>
       <use xlink:href="#mad1f149c26" x="558.715938" y="318.04" style="stroke: #000000; stroke-width: 0.8"/>
      </g>
     </g>
     <g id="text_23">
      <!-- 10.0 -->
      <g transform="translate(547.583125 332.638437) scale(0.1 -0.1)">
       <use xlink:href="#DejaVuSans-31"/>
       <use xlink:href="#DejaVuSans-30" x="63.623047"/>
       <use xlink:href="#DejaVuSans-2e" x="127.246094"/>
       <use xlink:href="#DejaVuSans-30" x="159.033203"/>
      </g>
     </g>
    </g>
    <g id="xtick_15">
     <g id="line2d_43">
      <path d="M 592.848892 318.04 
L 592.848892 36.72 
" clip-path="url(#p508c80a173)" style="fill: none; stroke: #b0b0b0; stroke-width: 0.8; stroke-linecap: square"/>
     </g>
     <g id="line2d_44">
      <g>
       <use xlink:href="#mad1f149c26" x="592.848892" y="318.04" style="stroke: #000000; stroke-width: 0.8"/>
      </g>
     </g>
     <g id="text_24">
      <!-- 12.5 -->
      <g transform="translate(581.71608 332.638437) scale(0.1 -0.1)">
       <use xlink:href="#DejaVuSans-31"/>
       <use xlink:href="#DejaVuSans-32" x="63.623047"/>
       <use xlink:href="#DejaVuSans-2e" x="127.246094"/>
       <use xlink:href="#DejaVuSans-35" x="159.033203"/>
      </g>
     </g>
    </g>
    <g id="xtick_16">
     <g id="line2d_45">
      <path d="M 626.981847 318.04 
L 626.981847 36.72 
" clip-path="url(#p508c80a173)" style="fill: none; stroke: #b0b0b0; stroke-width: 0.8; stroke-linecap: square"/>
     </g>
     <g id="line2d_46">
      <g>
       <use xlink:href="#mad1f149c26" x="626.981847" y="318.04" style="stroke: #000000; stroke-width: 0.8"/>
      </g>
     </g>
     <g id="text_25">
      <!-- 15.0 -->
      <g transform="translate(615.849034 332.638437) scale(0.1 -0.1)">
       <use xlink:href="#DejaVuSans-31"/>
       <use xlink:href="#DejaVuSans-35" x="63.623047"/>
       <use xlink:href="#DejaVuSans-2e" x="127.246094"/>
       <use xlink:href="#DejaVuSans-30" x="159.033203"/>
      </g>
     </g>
    </g>
    <g id="xtick_17">
     <g id="line2d_47">
      <path d="M 661.114801 318.04 
L 661.114801 36.72 
" clip-path="url(#p508c80a173)" style="fill: none; stroke: #b0b0b0; stroke-width: 0.8; stroke-linecap: square"/>
     </g>
     <g id="line2d_48">
      <g>
       <use xlink:href="#mad1f149c26" x="661.114801" y="318.04" style="stroke: #000000; stroke-width: 0.8"/>
      </g>
     </g>
     <g id="text_26">
      <!-- 17.5 -->
      <g transform="translate(649.981989 332.638437) scale(0.1 -0.1)">
       <use xlink:href="#DejaVuSans-31"/>
       <use xlink:href="#DejaVuSans-37" x="63.623047"/>
       <use xlink:href="#DejaVuSans-2e" x="127.246094"/>
       <use xlink:href="#DejaVuSans-35" x="159.033203"/>
      </g>
     </g>
    </g>
    <g id="xtick_18">
     <g id="line2d_49">
      <path d="M 695.247756 318.04 
L 695.247756 36.72 
" clip-path="url(#p508c80a173)" style="fill: none; stroke: #b0b0b0; stroke-width: 0.8; stroke-linecap: square"/>
     </g>
     <g id="line2d_50">
      <g>
       <use xlink:href="#mad1f149c26" x="695.247756" y="318.04" style="stroke: #000000; stroke-width: 0.8"/>
      </g>
     </g>
     <g id="text_27">
      <!-- 20.0 -->
      <g transform="translate(684.114943 332.638437) scale(0.1 -0.1)">
       <use xlink:href="#DejaVuSans-32"/>
       <use xlink:href="#DejaVuSans-30" x="63.623047"/>
       <use xlink:href="#DejaVuSans-2e" x="127.246094"/>
       <use xlink:href="#DejaVuSans-30" x="159.033203"/>
      </g>
     </g>
    </g>
    <g id="text_28">
     <!-- t -->
     <g transform="translate(556.755781 346.316562) scale(0.1 -0.1)">
      <use xlink:href="#DejaVuSans-74"/>
     </g>
    </g>
   </g>
   <g id="matplotlib.axis_4">
    <g id="ytick_6">
     <g id="line2d_51">
      <path d="M 408.530938 303.903895 
L 708.900938 303.903895 
" clip-path="url(#p508c80a173)" style="fill: none; stroke: #b0b0b0; stroke-width: 0.8; stroke-linecap: square"/>
     </g>
     <g id="line2d_52">
      <g>
       <use xlink:href="#ma6835eea8c" x="408.530938" y="303.903895" style="stroke: #000000; stroke-width: 0.8"/>
      </g>
     </g>
     <g id="text_29">
      <!-- −0.4 -->
      <g transform="translate(377.248125 307.703113) scale(0.1 -0.1)">
       <defs>
        <path id="DejaVuSans-34" d="M 2419 4116 
L 825 1625 
L 2419 1625 
L 2419 4116 
z
M 2253 4666 
L 3047 4666 
L 3047 1625 
L 3713 1625 
L 3713 1100 
L 3047 1100 
L 3047 0 
L 2419 0 
L 2419 1100 
L 313 1100 
L 313 1709 
L 2253 4666 
z
" transform="scale(0.015625)"/>
       </defs>
       <use xlink:href="#DejaVuSans-2212"/>
       <use xlink:href="#DejaVuSans-30" x="83.789062"/>
       <use xlink:href="#DejaVuSans-2e" x="147.412109"/>
       <use xlink:href="#DejaVuSans-34" x="179.199219"/>
      </g>
     </g>
    </g>
    <g id="ytick_7">
     <g id="line2d_53">
      <path d="M 408.530938 244.160104 
L 708.900938 244.160104 
" clip-path="url(#p508c80a173)" style="fill: none; stroke: #b0b0b0; stroke-width: 0.8; stroke-linecap: square"/>
     </g>
     <g id="line2d_54">
      <g>
       <use xlink:href="#ma6835eea8c" x="408.530938" y="244.160104" style="stroke: #000000; stroke-width: 0.8"/>
      </g>
     </g>
     <g id="text_30">
      <!-- −0.2 -->
      <g transform="translate(377.248125 247.959323) scale(0.1 -0.1)">
       <use xlink:href="#DejaVuSans-2212"/>
       <use xlink:href="#DejaVuSans-30" x="83.789062"/>
       <use xlink:href="#DejaVuSans-2e" x="147.412109"/>
       <use xlink:href="#DejaVuSans-32" x="179.199219"/>
      </g>
     </g>
    </g>
    <g id="ytick_8">
     <g id="line2d_55">
      <path d="M 408.530938 184.416314 
L 708.900938 184.416314 
" clip-path="url(#p508c80a173)" style="fill: none; stroke: #b0b0b0; stroke-width: 0.8; stroke-linecap: square"/>
     </g>
     <g id="line2d_56">
      <g>
       <use xlink:href="#ma6835eea8c" x="408.530938" y="184.416314" style="stroke: #000000; stroke-width: 0.8"/>
      </g>
     </g>
     <g id="text_31">
      <!-- 0.0 -->
      <g transform="translate(385.627813 188.215533) scale(0.1 -0.1)">
       <use xlink:href="#DejaVuSans-30"/>
       <use xlink:href="#DejaVuSans-2e" x="63.623047"/>
       <use xlink:href="#DejaVuSans-30" x="95.410156"/>
      </g>
     </g>
    </g>
    <g id="ytick_9">
     <g id="line2d_57">
      <path d="M 408.530938 124.672524 
L 708.900938 124.672524 
" clip-path="url(#p508c80a173)" style="fill: none; stroke: #b0b0b0; stroke-width: 0.8; stroke-linecap: square"/>
     </g>
     <g id="line2d_58">
      <g>
       <use xlink:href="#ma6835eea8c" x="408.530938" y="124.672524" style="stroke: #000000; stroke-width: 0.8"/>
      </g>
     </g>
     <g id="text_32">
      <!-- 0.2 -->
      <g transform="translate(385.627813 128.471743) scale(0.1 -0.1)">
       <use xlink:href="#DejaVuSans-30"/>
       <use xlink:href="#DejaVuSans-2e" x="63.623047"/>
       <use xlink:href="#DejaVuSans-32" x="95.410156"/>
      </g>
     </g>
    </g>
    <g id="ytick_10">
     <g id="line2d_59">
      <path d="M 408.530938 64.928734 
L 708.900938 64.928734 
" clip-path="url(#p508c80a173)" style="fill: none; stroke: #b0b0b0; stroke-width: 0.8; stroke-linecap: square"/>
     </g>
     <g id="line2d_60">
      <g>
       <use xlink:href="#ma6835eea8c" x="408.530938" y="64.928734" style="stroke: #000000; stroke-width: 0.8"/>
      </g>
     </g>
     <g id="text_33">
      <!-- 0.4 -->
      <g transform="translate(385.627813 68.727953) scale(0.1 -0.1)">
       <use xlink:href="#DejaVuSans-30"/>
       <use xlink:href="#DejaVuSans-2e" x="63.623047"/>
       <use xlink:href="#DejaVuSans-34" x="95.410156"/>
      </g>
     </g>
    </g>
    <g id="text_34">
     <!-- Fr(t) -->
     <g transform="translate(371.168438 187.810469) rotate(-90) scale(0.1 -0.1)">
      <defs>
       <path id="DejaVuSans-46" d="M 628 4666 
L 3309 4666 
L 3309 4134 
L 1259 4134 
L 1259 2759 
L 3109 2759 
L 3109 2228 
L 1259 2228 
L 1259 0 
L 628 0 
L 628 4666 
z
" transform="scale(0.015625)"/>
       <path id="DejaVuSans-72" d="M 2631 2963 
Q 2534 3019 2420 3045 
Q 2306 3072 2169 3072 
Q 1681 3072 1420 2755 
Q 1159 2438 1159 1844 
L 1159 0 
L 581 0 
L 581 3500 
L 1159 3500 
L 1159 2956 
Q 1341 3275 1631 3429 
Q 1922 3584 2338 3584 
Q 2397 3584 2469 3576 
Q 2541 3569 2628 3553 
L 2631 2963 
z
" transform="scale(0.015625)"/>
      </defs>
      <use xlink:href="#DejaVuSans-46"/>
      <use xlink:href="#DejaVuSans-72" x="50.269531"/>
      <use xlink:href="#DejaVuSans-28" x="91.382812"/>
      <use xlink:href="#DejaVuSans-74" x="130.396484"/>
      <use xlink:href="#DejaVuSans-29" x="169.605469"/>
     </g>
    </g>
   </g>
   <g id="line2d_61">
    <path d="M 422.184119 184.416314 
L 430.657565 184.310987 
L 433.937609 184.040912 
L 436.670979 183.583975 
L 438.857675 183.010235 
L 441.04437 182.212453 
L 443.231066 181.162867 
L 445.417762 179.845001 
L 447.604458 178.256417 
L 450.064491 176.163044 
L 452.79786 173.510461 
L 456.351241 169.709826 
L 462.637991 162.923847 
L 465.098024 160.617747 
L 467.011383 159.09402 
L 468.651405 158.029202 
L 470.291427 157.229164 
L 471.658111 156.793216 
L 473.024796 156.5912 
L 474.118144 156.62072 
L 475.211492 156.862615 
L 476.30484 157.332341 
L 477.398188 158.041468 
L 478.491536 159.000141 
L 479.584884 160.216923 
L 480.951569 162.111115 
L 482.318253 164.428395 
L 483.684938 167.173094 
L 485.32496 171.029263 
L 486.964982 175.487259 
L 488.878341 181.416267 
L 491.065037 189.005907 
L 495.438428 205.14985 
L 499.538483 220.028009 
L 502.271853 229.160435 
L 504.458548 235.788301 
L 506.645244 241.701088 
L 508.558603 246.229354 
L 510.198625 249.601913 
L 511.838647 252.486056 
L 513.205331 254.505685 
L 514.572016 256.167818 
L 515.938701 257.464136 
L 517.032049 258.231576 
L 518.125397 258.7534 
L 519.218745 259.023128 
L 520.038756 259.049724 
L 520.858767 258.81822 
L 521.678778 258.28479 
L 522.498789 257.443825 
L 523.318799 256.290847 
L 524.412147 254.262644 
L 525.505495 251.669514 
L 526.598843 248.510894 
L 527.965528 243.77308 
L 529.332213 238.173235 
L 530.972235 230.352823 
L 532.612257 221.393211 
L 534.525615 209.615003 
L 536.712311 194.617245 
L 542.725725 151.764029 
L 544.91242 138.422753 
L 546.825779 128.037547 
L 548.739138 118.88101 
L 550.37916 111.994384 
L 552.019182 105.962518 
L 553.659203 100.743858 
L 555.299225 96.292509 
L 556.939247 92.562455 
L 558.305932 89.974016 
L 559.672617 87.834818 
L 561.039302 86.12664 
L 562.13265 85.060899 
L 563.225998 84.257058 
L 564.319345 83.712344 
L 565.412693 83.426322 
L 566.232704 83.3889 
L 566.779378 83.548752 
L 567.326052 83.908202 
L 568.146063 84.824286 
L 568.966074 86.194995 
L 569.786085 88.021302 
L 570.879433 91.163358 
L 571.972781 95.106552 
L 573.066129 99.837945 
L 574.432813 106.831438 
L 575.799498 114.977379 
L 577.43952 126.183817 
L 579.352879 141.058586 
L 581.539575 160.112138 
L 583.999608 183.615626 
L 586.186303 204.27121 
L 588.099662 220.412741 
L 590.013021 234.624339 
L 591.653043 245.275294 
L 593.293065 254.57217 
L 594.933086 262.600524 
L 596.573108 269.460625 
L 598.21313 275.257092 
L 599.579815 279.348402 
L 600.9465 282.826159 
L 602.313185 285.739418 
L 603.67987 288.130889 
L 605.046554 290.036343 
L 606.139902 291.230138 
L 607.23325 292.142293 
L 608.326598 292.78067 
L 609.419946 293.149842 
L 610.513294 293.245723 
L 611.059968 293.066337 
L 611.606642 292.645849 
L 612.153316 291.983377 
L 612.973327 290.535108 
L 613.793338 288.541876 
L 614.613349 286.006334 
L 615.706696 281.790851 
L 616.800044 276.638199 
L 618.166729 268.918294 
L 619.533414 259.837913 
L 621.173436 247.260532 
L 623.086795 230.487122 
L 625.273491 208.947596 
L 628.00686 179.402592 
L 629.920219 159.724553 
L 631.833578 142.370594 
L 633.4736 129.386549 
L 635.113622 118.091712 
L 636.753643 108.379859 
L 638.393665 100.117226 
L 639.76035 94.234746 
L 641.127035 89.175662 
L 642.49372 84.861463 
L 643.860405 81.220232 
L 645.22709 78.188057 
L 646.593774 75.709831 
L 647.960459 73.739646 
L 649.053807 72.504414 
L 650.147155 71.556381 
L 651.240503 70.885046 
L 652.333851 70.483812 
L 653.427199 70.350065 
L 653.973873 70.486215 
L 654.520547 70.895049 
L 655.067221 71.577607 
L 655.887232 73.115685 
L 656.707242 75.270307 
L 657.527253 78.038455 
L 658.620601 82.673565 
L 659.713949 88.368451 
L 661.080634 96.932731 
L 662.447319 107.033444 
L 664.087341 121.050264 
L 665.727363 136.949786 
L 667.640721 157.569958 
L 670.100754 186.676627 
L 672.014113 208.538503 
L 673.654135 225.123385 
L 675.294157 239.672282 
L 676.934178 252.251298 
L 678.5742 262.994289 
L 680.214222 272.071955 
L 681.580907 278.497478 
L 682.947592 284.000241 
L 684.314277 288.680187 
L 685.680962 292.62874 
L 687.047646 295.927226 
L 688.414331 298.646132 
L 689.781016 300.84492 
L 691.147701 302.57216 
L 692.241049 303.640294 
L 693.334397 304.445794 
L 694.427745 304.999168 
L 695.247756 305.252727 
L 695.247756 305.252727 
" clip-path="url(#p508c80a173)" style="fill: none; stroke: #0000ff; stroke-width: 1.5; stroke-linecap: square"/>
   </g>
   <g id="line2d_62">
    <path d="M 422.184119 184.416314 
L 425.190826 185.441682 
L 428.744207 186.408183 
L 432.297587 187.144618 
L 435.577631 187.609216 
L 438.584338 187.815147 
L 441.317707 187.777489 
L 443.77774 187.527622 
L 446.237773 187.049134 
L 448.697806 186.328953 
L 451.157838 185.36835 
L 453.891208 184.042822 
L 457.171252 182.171128 
L 465.918035 176.973144 
L 468.104731 176.003382 
L 470.01809 175.389446 
L 471.658111 175.080171 
L 473.298133 175.005811 
L 474.664818 175.147353 
L 476.031503 175.50057 
L 477.398188 176.090814 
L 478.764873 176.940417 
L 480.131558 178.06819 
L 481.498243 179.488944 
L 482.864927 181.213048 
L 484.504949 183.689834 
L 486.144971 186.610883 
L 487.784993 189.964689 
L 489.698352 194.393039 
L 491.885048 200.047309 
L 494.891754 208.494468 
L 500.631831 224.754741 
L 503.091863 230.99189 
L 505.005222 235.292468 
L 506.645244 238.516538 
L 508.285266 241.264523 
L 509.651951 243.164582 
L 511.018636 244.693287 
L 512.111984 245.641173 
L 513.205331 246.340144 
L 514.298679 246.787638 
L 515.392027 246.98231 
L 516.485375 246.923841 
L 517.578723 246.612727 
L 518.672071 246.050081 
L 519.765419 245.237416 
L 520.858767 244.171795 
L 521.952115 242.830597 
L 523.045462 241.188387 
L 524.412147 238.678875 
L 525.778832 235.628293 
L 527.145517 232.007793 
L 528.512202 227.795905 
L 530.152224 221.941641 
L 531.792246 215.205536 
L 533.432267 207.593025 
L 535.345626 197.633981 
L 537.532322 184.911806 
L 539.992355 169.134218 
L 546.825779 124.281291 
L 549.012475 111.715331 
L 550.925834 101.992975 
L 552.565856 94.735015 
L 554.205877 88.539729 
L 555.572562 84.216246 
L 556.939247 80.665753 
L 558.032595 78.381765 
L 559.125943 76.588268 
L 560.219291 75.278665 
L 561.039302 74.608844 
L 561.859313 74.202047 
L 562.679324 74.053568 
L 563.499335 74.158395 
L 564.319345 74.51131 
L 565.139356 75.10698 
L 565.959367 75.940045 
L 567.052715 77.421273 
L 568.146063 79.375654 
L 569.239411 81.861888 
L 570.332759 84.927182 
L 571.426107 88.607066 
L 572.792792 94.106282 
L 574.159476 100.622806 
L 575.526161 108.149358 
L 577.166183 118.464468 
L 579.079542 132.127782 
L 581.266238 149.578678 
L 583.999608 173.421744 
L 589.739684 224.319224 
L 591.92638 241.27887 
L 593.839739 254.283466 
L 595.47976 263.912009 
L 596.846445 270.819141 
L 598.21313 276.701557 
L 599.579815 281.569352 
L 600.673163 284.749121 
L 601.766511 287.312795 
L 602.859859 289.281727 
L 603.67987 290.382494 
L 604.499881 291.173029 
L 605.319891 291.664581 
L 606.139902 291.868639 
L 606.959913 291.796789 
L 607.779924 291.460578 
L 608.599935 290.871389 
L 609.419946 290.040336 
L 610.513294 288.574497 
L 611.606642 286.703435 
L 612.69999 284.384124 
L 613.793338 281.571867 
L 614.886686 278.228958 
L 616.25337 273.257134 
L 617.620055 267.360299 
L 618.98674 260.505209 
L 620.626762 250.988098 
L 622.266784 240.057518 
L 624.180143 225.551075 
L 626.093501 209.242538 
L 628.280197 188.599631 
L 635.660295 116.421982 
L 637.573654 100.587669 
L 639.213676 88.611852 
L 640.853698 78.228931 
L 642.220383 70.831053 
L 643.587068 64.578962 
L 644.953753 59.458904 
L 646.0471 56.160018 
L 647.140448 53.549864 
L 648.233796 51.606912 
L 649.053807 50.573412 
L 649.873818 49.891513 
L 650.693829 49.550524 
L 651.51384 49.539674 
L 652.333851 49.848243 
L 653.153862 50.465703 
L 653.973873 51.384605 
L 654.793884 52.629423 
L 655.613895 54.241158 
L 656.433905 56.25548 
L 657.527253 59.61825 
L 658.620601 63.803637 
L 659.713949 68.847494 
L 661.080634 76.384212 
L 662.447319 85.282201 
L 664.087341 97.686152 
L 665.727363 111.821999 
L 667.640721 130.194801 
L 670.100754 156.068586 
L 675.567494 214.700947 
L 677.754189 235.190303 
L 679.394211 248.732938 
L 681.034233 260.546666 
L 682.400918 269.022397 
L 683.767603 276.247531 
L 685.134288 282.241589 
L 686.227636 286.175591 
L 687.320983 289.372053 
L 688.414331 291.861566 
L 689.234342 293.284995 
L 690.054353 294.344784 
L 690.874364 295.056428 
L 691.694375 295.435636 
L 692.514386 295.498149 
L 693.334397 295.259569 
L 694.154408 294.735206 
L 694.974419 293.939948 
L 695.247756 293.939948 
L 695.247756 293.939948 
" clip-path="url(#p508c80a173)" style="fill: none; stroke-dasharray: 5.55,2.4; stroke-dashoffset: 0; stroke: #ff0000; stroke-width: 1.5"/>
   </g>
   <g id="patch_9">
    <path d="M 408.530938 318.04 
L 408.530938 36.72 
" style="fill: none; stroke: #000000; stroke-width: 0.8; stroke-linejoin: miter; stroke-linecap: square"/>
   </g>
   <g id="patch_10">
    <path d="M 708.900938 318.04 
L 708.900938 36.72 
" style="fill: none; stroke: #000000; stroke-width: 0.8; stroke-linejoin: miter; stroke-linecap: square"/>
   </g>
   <g id="patch_11">
    <path d="M 408.530938 318.04 
L 708.900938 318.04 
" style="fill: none; stroke: #000000; stroke-width: 0.8; stroke-linejoin: miter; stroke-linecap: square"/>
   </g>
   <g id="patch_12">
    <path d="M 408.530938 36.72 
L 708.900938 36.72 
" style="fill: none; stroke: #000000; stroke-width: 0.8; stroke-linejoin: miter; stroke-linecap: square"/>
   </g>
   <g id="legend_2">
    <g id="patch_13">
     <path d="M 415.530938 74.07625 
L 474.123125 74.07625 
Q 476.123125 74.07625 476.123125 72.07625 
L 476.123125 43.72 
Q 476.123125 41.72 474.123125 41.72 
L 415.530938 41.72 
Q 413.530938 41.72 413.530938 43.72 
L 413.530938 72.07625 
Q 413.530938 74.07625 415.530938 74.07625 
z
" style="fill: #ffffff; opacity: 0.8; stroke: #cccccc; stroke-linejoin: miter"/>
    </g>
    <g id="line2d_63">
     <path d="M 417.530938 49.818437 
L 427.530938 49.818437 
L 437.530938 49.818437 
" style="fill: none; stroke: #0000ff; stroke-width: 1.5; stroke-linecap: square"/>
    </g>
    <g id="text_35">
     <!-- data -->
     <g transform="translate(445.530938 53.318437) scale(0.1 -0.1)">
      <use xlink:href="#DejaVuSans-64"/>
      <use xlink:href="#DejaVuSans-61" x="63.476562"/>
      <use xlink:href="#DejaVuSans-74" x="124.755859"/>
      <use xlink:href="#DejaVuSans-61" x="163.964844"/>
     </g>
    </g>
    <g id="line2d_64">
     <path d="M 417.530938 64.496562 
L 427.530938 64.496562 
L 437.530938 64.496562 
" style="fill: none; stroke-dasharray: 5.55,2.4; stroke-dashoffset: 0; stroke: #ff0000; stroke-width: 1.5"/>
    </g>
    <g id="text_36">
     <!-- sindy -->
     <g transform="translate(445.530938 67.996562) scale(0.1 -0.1)">
      <use xlink:href="#DejaVuSans-73"/>
      <use xlink:href="#DejaVuSans-69" x="52.099609"/>
      <use xlink:href="#DejaVuSans-6e" x="79.882812"/>
      <use xlink:href="#DejaVuSans-64" x="143.261719"/>
      <use xlink:href="#DejaVuSans-79" x="206.738281"/>
     </g>
    </g>
   </g>
  </g>
  <g id="axes_3">
   <g id="patch_14">
    <path d="M 764.900938 318.04 
L 1065.270937 318.04 
L 1065.270937 36.72 
L 764.900938 36.72 
z
" style="fill: #ffffff"/>
   </g>
   <g id="matplotlib.axis_5">
    <g id="xtick_19">
     <g id="line2d_65">
      <path d="M 807.772277 318.04 
L 807.772277 36.72 
" clip-path="url(#p1dbc6698d9)" style="fill: none; stroke: #b0b0b0; stroke-width: 0.8; stroke-linecap: square"/>
     </g>
     <g id="line2d_66">
      <g>
       <use xlink:href="#mad1f149c26" x="807.772277" y="318.04" style="stroke: #000000; stroke-width: 0.8"/>
      </g>
     </g>
     <g id="text_37">
      <!-- −1.0 -->
      <g transform="translate(795.630871 332.638437) scale(0.1 -0.1)">
       <use xlink:href="#DejaVuSans-2212"/>
       <use xlink:href="#DejaVuSans-31" x="83.789062"/>
       <use xlink:href="#DejaVuSans-2e" x="147.412109"/>
       <use xlink:href="#DejaVuSans-30" x="179.199219"/>
      </g>
     </g>
    </g>
    <g id="xtick_20">
     <g id="line2d_67">
      <path d="M 864.342433 318.04 
L 864.342433 36.72 
" clip-path="url(#p1dbc6698d9)" style="fill: none; stroke: #b0b0b0; stroke-width: 0.8; stroke-linecap: square"/>
     </g>
     <g id="line2d_68">
      <g>
       <use xlink:href="#mad1f149c26" x="864.342433" y="318.04" style="stroke: #000000; stroke-width: 0.8"/>
      </g>
     </g>
     <g id="text_38">
      <!-- −0.5 -->
      <g transform="translate(852.201027 332.638437) scale(0.1 -0.1)">
       <use xlink:href="#DejaVuSans-2212"/>
       <use xlink:href="#DejaVuSans-30" x="83.789062"/>
       <use xlink:href="#DejaVuSans-2e" x="147.412109"/>
       <use xlink:href="#DejaVuSans-35" x="179.199219"/>
      </g>
     </g>
    </g>
    <g id="xtick_21">
     <g id="line2d_69">
      <path d="M 920.912589 318.04 
L 920.912589 36.72 
" clip-path="url(#p1dbc6698d9)" style="fill: none; stroke: #b0b0b0; stroke-width: 0.8; stroke-linecap: square"/>
     </g>
     <g id="line2d_70">
      <g>
       <use xlink:href="#mad1f149c26" x="920.912589" y="318.04" style="stroke: #000000; stroke-width: 0.8"/>
      </g>
     </g>
     <g id="text_39">
      <!-- 0.0 -->
      <g transform="translate(912.961027 332.638437) scale(0.1 -0.1)">
       <use xlink:href="#DejaVuSans-30"/>
       <use xlink:href="#DejaVuSans-2e" x="63.623047"/>
       <use xlink:href="#DejaVuSans-30" x="95.410156"/>
      </g>
     </g>
    </g>
    <g id="xtick_22">
     <g id="line2d_71">
      <path d="M 977.482746 318.04 
L 977.482746 36.72 
" clip-path="url(#p1dbc6698d9)" style="fill: none; stroke: #b0b0b0; stroke-width: 0.8; stroke-linecap: square"/>
     </g>
     <g id="line2d_72">
      <g>
       <use xlink:href="#mad1f149c26" x="977.482746" y="318.04" style="stroke: #000000; stroke-width: 0.8"/>
      </g>
     </g>
     <g id="text_40">
      <!-- 0.5 -->
      <g transform="translate(969.531183 332.638437) scale(0.1 -0.1)">
       <use xlink:href="#DejaVuSans-30"/>
       <use xlink:href="#DejaVuSans-2e" x="63.623047"/>
       <use xlink:href="#DejaVuSans-35" x="95.410156"/>
      </g>
     </g>
    </g>
    <g id="xtick_23">
     <g id="line2d_73">
      <path d="M 1034.052902 318.04 
L 1034.052902 36.72 
" clip-path="url(#p1dbc6698d9)" style="fill: none; stroke: #b0b0b0; stroke-width: 0.8; stroke-linecap: square"/>
     </g>
     <g id="line2d_74">
      <g>
       <use xlink:href="#mad1f149c26" x="1034.052902" y="318.04" style="stroke: #000000; stroke-width: 0.8"/>
      </g>
     </g>
     <g id="text_41">
      <!-- 1.0 -->
      <g transform="translate(1026.10134 332.638437) scale(0.1 -0.1)">
       <use xlink:href="#DejaVuSans-31"/>
       <use xlink:href="#DejaVuSans-2e" x="63.623047"/>
       <use xlink:href="#DejaVuSans-30" x="95.410156"/>
      </g>
     </g>
    </g>
    <g id="text_42">
     <!-- x(t) -->
     <g transform="translate(906.264844 346.316562) scale(0.1 -0.1)">
      <use xlink:href="#DejaVuSans-78"/>
      <use xlink:href="#DejaVuSans-28" x="59.179688"/>
      <use xlink:href="#DejaVuSans-74" x="98.193359"/>
      <use xlink:href="#DejaVuSans-29" x="137.402344"/>
     </g>
    </g>
   </g>
   <g id="matplotlib.axis_6">
    <g id="ytick_11">
     <g id="line2d_75">
      <path d="M 764.900938 303.903895 
L 1065.270937 303.903895 
" clip-path="url(#p1dbc6698d9)" style="fill: none; stroke: #b0b0b0; stroke-width: 0.8; stroke-linecap: square"/>
     </g>
     <g id="line2d_76">
      <g>
       <use xlink:href="#ma6835eea8c" x="764.900938" y="303.903895" style="stroke: #000000; stroke-width: 0.8"/>
      </g>
     </g>
     <g id="text_43">
      <!-- −0.4 -->
      <g transform="translate(733.618125 307.703113) scale(0.1 -0.1)">
       <use xlink:href="#DejaVuSans-2212"/>
       <use xlink:href="#DejaVuSans-30" x="83.789062"/>
       <use xlink:href="#DejaVuSans-2e" x="147.412109"/>
       <use xlink:href="#DejaVuSans-34" x="179.199219"/>
      </g>
     </g>
    </g>
    <g id="ytick_12">
     <g id="line2d_77">
      <path d="M 764.900938 244.160104 
L 1065.270937 244.160104 
" clip-path="url(#p1dbc6698d9)" style="fill: none; stroke: #b0b0b0; stroke-width: 0.8; stroke-linecap: square"/>
     </g>
     <g id="line2d_78">
      <g>
       <use xlink:href="#ma6835eea8c" x="764.900938" y="244.160104" style="stroke: #000000; stroke-width: 0.8"/>
      </g>
     </g>
     <g id="text_44">
      <!-- −0.2 -->
      <g transform="translate(733.618125 247.959323) scale(0.1 -0.1)">
       <use xlink:href="#DejaVuSans-2212"/>
       <use xlink:href="#DejaVuSans-30" x="83.789062"/>
       <use xlink:href="#DejaVuSans-2e" x="147.412109"/>
       <use xlink:href="#DejaVuSans-32" x="179.199219"/>
      </g>
     </g>
    </g>
    <g id="ytick_13">
     <g id="line2d_79">
      <path d="M 764.900938 184.416314 
L 1065.270937 184.416314 
" clip-path="url(#p1dbc6698d9)" style="fill: none; stroke: #b0b0b0; stroke-width: 0.8; stroke-linecap: square"/>
     </g>
     <g id="line2d_80">
      <g>
       <use xlink:href="#ma6835eea8c" x="764.900938" y="184.416314" style="stroke: #000000; stroke-width: 0.8"/>
      </g>
     </g>
     <g id="text_45">
      <!-- 0.0 -->
      <g transform="translate(741.997813 188.215533) scale(0.1 -0.1)">
       <use xlink:href="#DejaVuSans-30"/>
       <use xlink:href="#DejaVuSans-2e" x="63.623047"/>
       <use xlink:href="#DejaVuSans-30" x="95.410156"/>
      </g>
     </g>
    </g>
    <g id="ytick_14">
     <g id="line2d_81">
      <path d="M 764.900938 124.672524 
L 1065.270937 124.672524 
" clip-path="url(#p1dbc6698d9)" style="fill: none; stroke: #b0b0b0; stroke-width: 0.8; stroke-linecap: square"/>
     </g>
     <g id="line2d_82">
      <g>
       <use xlink:href="#ma6835eea8c" x="764.900938" y="124.672524" style="stroke: #000000; stroke-width: 0.8"/>
      </g>
     </g>
     <g id="text_46">
      <!-- 0.2 -->
      <g transform="translate(741.997813 128.471743) scale(0.1 -0.1)">
       <use xlink:href="#DejaVuSans-30"/>
       <use xlink:href="#DejaVuSans-2e" x="63.623047"/>
       <use xlink:href="#DejaVuSans-32" x="95.410156"/>
      </g>
     </g>
    </g>
    <g id="ytick_15">
     <g id="line2d_83">
      <path d="M 764.900938 64.928734 
L 1065.270937 64.928734 
" clip-path="url(#p1dbc6698d9)" style="fill: none; stroke: #b0b0b0; stroke-width: 0.8; stroke-linecap: square"/>
     </g>
     <g id="line2d_84">
      <g>
       <use xlink:href="#ma6835eea8c" x="764.900938" y="64.928734" style="stroke: #000000; stroke-width: 0.8"/>
      </g>
     </g>
     <g id="text_47">
      <!-- 0.4 -->
      <g transform="translate(741.997813 68.727953) scale(0.1 -0.1)">
       <use xlink:href="#DejaVuSans-30"/>
       <use xlink:href="#DejaVuSans-2e" x="63.623047"/>
       <use xlink:href="#DejaVuSans-34" x="95.410156"/>
      </g>
     </g>
    </g>
    <g id="text_48">
     <!-- Fr(t) -->
     <g transform="translate(727.538438 187.810469) rotate(-90) scale(0.1 -0.1)">
      <use xlink:href="#DejaVuSans-46"/>
      <use xlink:href="#DejaVuSans-72" x="50.269531"/>
      <use xlink:href="#DejaVuSans-28" x="91.382812"/>
      <use xlink:href="#DejaVuSans-74" x="130.396484"/>
      <use xlink:href="#DejaVuSans-29" x="169.605469"/>
     </g>
    </g>
   </g>
   <g id="line2d_85">
    <path d="M 920.912589 184.416314 
L 926.56863 177.131356 
L 932.381423 170.010675 
L 938.232863 163.198894 
L 944.219538 156.58085 
L 944.219456 156.581244 
L 918.050048 190.979783 
L 912.331377 198.021766 
L 906.236128 205.14985 
L 900.783282 211.212841 
L 895.189205 217.140049 
L 889.525264 222.853654 
L 883.867216 228.286402 
L 877.37948 234.194915 
L 871.137815 239.572831 
L 864.476016 244.999554 
L 857.819647 250.116945 
L 851.276724 254.866968 
L 845.173694 259.061122 
L 845.215517 259.005712 
L 906.367106 178.4115 
L 912.852704 170.433294 
L 919.488199 162.725564 
L 926.236323 155.332029 
L 933.05914 148.286539 
L 939.918237 141.613839 
L 946.774898 135.33049 
L 953.59028 129.445889 
L 960.325575 123.963321 
L 966.942162 118.88101 
L 973.401767 114.193121 
L 979.666609 109.890698 
L 987.167275 105.03748 
L 994.234911 100.743858 
L 1002.048431 96.292509 
L 1009.027523 92.562455 
L 1016.853779 88.637844 
L 1024.974047 84.835532 
L 1028.236755 83.380864 
L 1028.190825 83.443968 
L 948.181707 188.982175 
L 941.899594 196.785527 
L 935.530612 204.27121 
L 929.097217 211.421363 
L 922.621843 218.223854 
L 916.126852 224.671635 
L 909.634475 230.762095 
L 903.166767 236.496422 
L 896.745561 241.878987 
L 890.392428 246.916765 
L 884.128634 251.618802 
L 877.975102 255.995731 
L 871.952376 260.059339 
L 864.160275 265.01187 
L 856.682893 269.460625 
L 849.565086 273.436725 
L 841.239 277.788446 
L 833.622019 281.505409 
L 825.522782 285.199779 
L 817.65806 288.549844 
L 809.120642 291.940173 
L 805.645708 293.250894 
L 805.690631 293.186095 
L 891.95847 179.402592 
L 896.650122 173.553593 
L 901.390186 167.882925 
L 906.170737 162.396851 
L 910.983863 157.100036 
L 918.24738 149.516304 
L 925.539961 142.370594 
L 932.83534 135.662436 
L 940.107525 129.386549 
L 947.330849 123.533735 
L 954.480013 118.091712 
L 961.530135 113.045854 
L 968.456788 108.379859 
L 975.23604 104.076322 
L 981.844496 100.117226 
L 988.259336 96.484357 
L 996.472989 92.116827 
L 1004.252222 88.255639 
L 1011.548461 84.861463 
L 1019.919452 81.220232 
L 1028.755027 77.649699 
L 1037.228992 74.469305 
L 1046.1415 71.362932 
L 1049.199777 70.350065 
L 1049.096642 70.486215 
L 958.501087 189.957071 
L 953.327559 196.364688 
L 948.091976 202.560747 
L 942.803196 208.538503 
L 937.470066 214.293206 
L 932.101406 219.821928 
L 926.706003 225.123385 
L 921.292598 230.197757 
L 915.869885 235.046521 
L 910.446496 239.672282 
L 905.030999 244.078618 
L 899.631889 248.269928 
L 891.582337 254.165 
L 883.616617 259.607228 
L 875.7623 264.617969 
L 868.046445 269.219802 
L 860.495554 273.435901 
L 853.135537 277.289516 
L 845.991663 280.803552 
L 839.088521 284.000241 
L 830.299949 287.805497 
L 822.036124 291.131644 
L 812.522951 294.681082 
L 804.005466 297.624067 
L 795.221524 300.444286 
L 785.262054 303.398384 
L 778.554119 305.252727 
L 778.554119 305.252727 
" clip-path="url(#p1dbc6698d9)" style="fill: none; stroke: #0000ff; stroke-width: 1.5; stroke-linecap: square"/>
   </g>
   <g id="line2d_86">
    <path d="M 920.912589 184.416314 
L 918.553167 187.609216 
L 918.511383 187.821728 
L 918.567778 187.825718 
L 918.943253 187.635336 
L 920.504611 186.510073 
L 929.775629 179.628395 
L 933.389842 177.251328 
L 935.984373 175.803003 
L 937.561234 175.158756 
L 938.475514 175.000537 
L 938.923142 175.10297 
L 939.136383 175.332198 
L 939.203234 175.706901 
L 939.057507 176.398394 
L 938.509805 177.582657 
L 937.515284 179.18079 
L 935.743284 181.594847 
L 932.861294 185.095277 
L 929.032683 189.376503 
L 924.255142 194.393039 
L 918.577934 200.047309 
L 912.157148 206.142347 
L 905.19525 212.446115 
L 897.909813 218.724598 
L 891.443482 224.021698 
L 885.042606 228.992071 
L 878.842323 233.515993 
L 873.781054 236.961363 
L 869.026818 239.952528 
L 864.640316 242.44835 
L 861.30372 244.12718 
L 858.284716 245.427408 
L 855.605381 246.340144 
L 853.719126 246.787638 
L 852.070425 246.98231 
L 850.666374 246.923841 
L 849.51318 246.612727 
L 848.816244 246.214246 
L 848.265654 245.674895 
L 847.863497 244.995323 
L 847.6168 244.171795 
L 847.541066 243.19318 
L 847.651701 242.048578 
L 847.963061 240.728135 
L 848.713238 238.678875 
L 849.872169 236.283186 
L 851.464703 233.525922 
L 853.511997 230.39496 
L 856.736647 225.942149 
L 860.723787 220.880247 
L 865.488546 215.205536 
L 871.0357 208.921923 
L 878.716034 200.594948 
L 887.483224 191.444278 
L 897.28371 181.523212 
L 909.85492 169.134218 
L 923.204148 156.291083 
L 936.842906 143.458204 
L 950.340548 131.047426 
L 963.336861 119.405182 
L 973.858872 110.248681 
L 983.663505 101.992975 
L 992.648478 94.735015 
L 999.457814 89.496592 
L 1005.6215 85.019239 
L 1011.123746 81.31392 
L 1015.044511 78.906574 
L 1018.537462 76.990979 
L 1021.604994 75.561146 
L 1024.25142 74.608844 
L 1025.963311 74.202047 
L 1027.444367 74.053568 
L 1028.697629 74.158395 
L 1029.726265 74.51131 
L 1030.533484 75.10698 
L 1031.122452 75.940045 
L 1031.492459 77.00915 
L 1031.621306 78.335385 
L 1031.481202 79.945309 
L 1031.047304 81.861888 
L 1030.29774 84.104428 
L 1029.213623 86.688539 
L 1027.779045 89.62611 
L 1025.299156 94.106282 
L 1022.150943 99.23807 
L 1018.32089 105.019137 
L 1013.804312 111.435992 
L 1008.605045 118.464468 
L 1002.735066 126.070334 
L 996.214053 134.210055 
L 989.068895 142.831677 
L 981.333144 151.875836 
L 973.046435 161.276859 
L 964.253877 170.963947 
L 955.011144 180.85692 
L 945.431077 190.823334 
L 935.64939 200.715385 
L 925.790016 210.404022 
L 915.964578 219.778941 
L 906.272466 228.747792 
L 896.801056 237.235092 
L 887.626074 245.180942 
L 878.812033 252.539648 
L 870.41277 259.278295 
L 862.47204 265.375322 
L 855.024184 270.819141 
L 848.094846 275.606796 
L 841.701748 279.742704 
L 835.855504 283.237455 
L 830.560452 286.106707 
L 825.815513 288.370155 
L 822.614566 289.683799 
L 819.716151 290.679927 
L 817.115473 291.369536 
L 814.806932 291.763972 
L 812.784301 291.874773 
L 811.040894 291.713525 
L 809.569723 291.291735 
L 808.363655 290.620707 
L 807.703358 290.040336 
L 807.155618 289.357253 
L 806.541412 288.146032 
L 806.275799 287.211316 
L 806.135745 286.167502 
L 806.180133 284.384124 
L 806.554041 282.323321 
L 807.282232 279.968842 
L 808.386855 277.306522 
L 809.887437 274.324187 
L 811.800877 271.011578 
L 814.141422 267.360299 
L 816.92065 263.363779 
L 821.323649 257.490084 
L 826.535561 250.988098 
L 832.561302 243.857296 
L 839.397128 236.102992 
L 847.030656 227.736465 
L 857.661621 216.444448 
L 869.446282 204.271188 
L 882.302721 191.28258 
L 898.816497 174.913885 
L 918.748858 155.509607 
L 938.535506 136.589745 
L 954.839804 121.277691 
L 970.191461 107.141251 
L 984.363364 94.405961 
L 995.165258 84.970309 
L 1004.997432 76.657588 
L 1013.836886 69.489187 
L 1020.191078 64.578962 
L 1025.913241 60.393495 
L 1031.013742 56.919388 
L 1035.506566 54.13897 
L 1039.408291 52.031363 
L 1041.957647 50.878323 
L 1044.192902 50.080402 
L 1046.122325 49.626973 
L 1047.754195 49.507273 
L 1048.68084 49.607564 
L 1049.48124 49.848243 
L 1050.157704 50.226196 
L 1050.712484 50.738348 
L 1051.14503 51.384605 
L 1051.444669 52.175642 
L 1051.598862 53.124019 
L 1051.596013 54.241158 
L 1051.425459 55.537344 
L 1050.834158 57.837007 
L 1049.814958 60.585757 
L 1048.343672 63.803637 
L 1046.400765 67.504786 
L 1043.971288 71.69748 
L 1041.044777 76.384212 
L 1036.35968 83.395423 
L 1030.777809 91.256075 
L 1024.309033 99.9272 
L 1016.975116 109.354642 
L 1008.808827 119.4705 
L 999.852974 130.194801 
L 990.159356 141.437354 
L 979.787677 153.099777 
L 968.82445 165.058277 
L 957.443427 177.10949 
L 945.826251 189.053388 
L 934.135135 200.720097 
L 922.51347 211.968298 
L 911.086606 222.683115 
L 899.962737 232.773732 
L 889.233805 242.170913 
L 878.976432 250.824554 
L 869.252849 258.70134 
L 860.111873 265.78253 
L 851.589916 272.061904 
L 843.712055 277.543846 
L 836.493156 282.241589 
L 829.939045 286.175591 
L 825.458773 288.640472 
L 821.348086 290.703128 
L 817.601806 292.377388 
L 814.213217 293.677904 
L 811.174326 294.619909 
L 808.476124 295.218989 
L 806.108824 295.490887 
L 804.062093 295.451314 
L 802.325261 295.11579 
L 801.334201 294.735206 
L 800.472868 294.234235 
L 800.089858 293.939948 
L 800.089858 293.939948 
" clip-path="url(#p1dbc6698d9)" style="fill: none; stroke-dasharray: 5.55,2.4; stroke-dashoffset: 0; stroke: #ff0000; stroke-width: 1.5"/>
   </g>
   <g id="patch_15">
    <path d="M 764.900938 318.04 
L 764.900938 36.72 
" style="fill: none; stroke: #000000; stroke-width: 0.8; stroke-linejoin: miter; stroke-linecap: square"/>
   </g>
   <g id="patch_16">
    <path d="M 1065.270937 318.04 
L 1065.270937 36.72 
" style="fill: none; stroke: #000000; stroke-width: 0.8; stroke-linejoin: miter; stroke-linecap: square"/>
   </g>
   <g id="patch_17">
    <path d="M 764.900938 318.04 
L 1065.270937 318.04 
" style="fill: none; stroke: #000000; stroke-width: 0.8; stroke-linejoin: miter; stroke-linecap: square"/>
   </g>
   <g id="patch_18">
    <path d="M 764.900938 36.72 
L 1065.270937 36.72 
" style="fill: none; stroke: #000000; stroke-width: 0.8; stroke-linejoin: miter; stroke-linecap: square"/>
   </g>
   <g id="legend_3">
    <g id="patch_19">
     <path d="M 771.900938 74.07625 
L 830.493125 74.07625 
Q 832.493125 74.07625 832.493125 72.07625 
L 832.493125 43.72 
Q 832.493125 41.72 830.493125 41.72 
L 771.900938 41.72 
Q 769.900938 41.72 769.900938 43.72 
L 769.900938 72.07625 
Q 769.900938 74.07625 771.900938 74.07625 
z
" style="fill: #ffffff; opacity: 0.8; stroke: #cccccc; stroke-linejoin: miter"/>
    </g>
    <g id="line2d_87">
     <path d="M 773.900938 49.818437 
L 783.900938 49.818437 
L 793.900938 49.818437 
" style="fill: none; stroke: #0000ff; stroke-width: 1.5; stroke-linecap: square"/>
    </g>
    <g id="text_49">
     <!-- data -->
     <g transform="translate(801.900938 53.318437) scale(0.1 -0.1)">
      <use xlink:href="#DejaVuSans-64"/>
      <use xlink:href="#DejaVuSans-61" x="63.476562"/>
      <use xlink:href="#DejaVuSans-74" x="124.755859"/>
      <use xlink:href="#DejaVuSans-61" x="163.964844"/>
     </g>
    </g>
    <g id="line2d_88">
     <path d="M 773.900938 64.496562 
L 783.900938 64.496562 
L 793.900938 64.496562 
" style="fill: none; stroke-dasharray: 5.55,2.4; stroke-dashoffset: 0; stroke: #ff0000; stroke-width: 1.5"/>
    </g>
    <g id="text_50">
     <!-- sindy -->
     <g transform="translate(801.900938 67.996562) scale(0.1 -0.1)">
      <use xlink:href="#DejaVuSans-73"/>
      <use xlink:href="#DejaVuSans-69" x="52.099609"/>
      <use xlink:href="#DejaVuSans-6e" x="79.882812"/>
      <use xlink:href="#DejaVuSans-64" x="143.261719"/>
      <use xlink:href="#DejaVuSans-79" x="206.738281"/>
     </g>
    </g>
   </g>
  </g>
  <g id="text_51">
   <!-- poly_c -->
   <g transform="translate(510.740938 19.3575) scale(0.16 -0.16)">
    <defs>
     <path id="DejaVuSans-70" d="M 1159 525 
L 1159 -1331 
L 581 -1331 
L 581 3500 
L 1159 3500 
L 1159 2969 
Q 1341 3281 1617 3432 
Q 1894 3584 2278 3584 
Q 2916 3584 3314 3078 
Q 3713 2572 3713 1747 
Q 3713 922 3314 415 
Q 2916 -91 2278 -91 
Q 1894 -91 1617 61 
Q 1341 213 1159 525 
z
M 3116 1747 
Q 3116 2381 2855 2742 
Q 2594 3103 2138 3103 
Q 1681 3103 1420 2742 
Q 1159 2381 1159 1747 
Q 1159 1113 1420 752 
Q 1681 391 2138 391 
Q 2594 391 2855 752 
Q 3116 1113 3116 1747 
z
" transform="scale(0.015625)"/>
     <path id="DejaVuSans-6f" d="M 1959 3097 
Q 1497 3097 1228 2736 
Q 959 2375 959 1747 
Q 959 1119 1226 758 
Q 1494 397 1959 397 
Q 2419 397 2687 759 
Q 2956 1122 2956 1747 
Q 2956 2369 2687 2733 
Q 2419 3097 1959 3097 
z
M 1959 3584 
Q 2709 3584 3137 3096 
Q 3566 2609 3566 1747 
Q 3566 888 3137 398 
Q 2709 -91 1959 -91 
Q 1206 -91 779 398 
Q 353 888 353 1747 
Q 353 2609 779 3096 
Q 1206 3584 1959 3584 
z
" transform="scale(0.015625)"/>
     <path id="DejaVuSans-6c" d="M 603 4863 
L 1178 4863 
L 1178 0 
L 603 0 
L 603 4863 
z
" transform="scale(0.015625)"/>
     <path id="DejaVuSans-5f" d="M 3263 -1063 
L 3263 -1509 
L -63 -1509 
L -63 -1063 
L 3263 -1063 
z
" transform="scale(0.015625)"/>
     <path id="DejaVuSans-63" d="M 3122 3366 
L 3122 2828 
Q 2878 2963 2633 3030 
Q 2388 3097 2138 3097 
Q 1578 3097 1268 2742 
Q 959 2388 959 1747 
Q 959 1106 1268 751 
Q 1578 397 2138 397 
Q 2388 397 2633 464 
Q 2878 531 3122 666 
L 3122 134 
Q 2881 22 2623 -34 
Q 2366 -91 2075 -91 
Q 1284 -91 818 406 
Q 353 903 353 1747 
Q 353 2603 823 3093 
Q 1294 3584 2113 3584 
Q 2378 3584 2631 3529 
Q 2884 3475 3122 3366 
z
" transform="scale(0.015625)"/>
    </defs>
    <use xlink:href="#DejaVuSans-70"/>
    <use xlink:href="#DejaVuSans-6f" x="63.476562"/>
    <use xlink:href="#DejaVuSans-6c" x="124.658203"/>
    <use xlink:href="#DejaVuSans-79" x="152.441406"/>
    <use xlink:href="#DejaVuSans-5f" x="211.621094"/>
    <use xlink:href="#DejaVuSans-63" x="261.621094"/>
   </g>
  </g>
 </g>
 <defs>
  <clipPath id="pd8d9b0e27a">
   <rect x="52.160938" y="36.72" width="300.37" height="281.32"/>
  </clipPath>
  <clipPath id="p508c80a173">
   <rect x="408.530938" y="36.72" width="300.37" height="281.32"/>
  </clipPath>
  <clipPath id="p1dbc6698d9">
   <rect x="764.900938" y="36.72" width="300.37" height="281.32"/>
  </clipPath>
 </defs>
</svg>
